<svg width="30" height="30" viewBox="0 0 30 30" fill="none" xmlns="http://www.w3.org/2000/svg">
<path opacity="0.1" d="M5.64879 26.7283C3.32898 24.8787 1.60979 22.3827 0.708642 19.5559C-0.192506 16.7292 -0.235135 13.6987 0.586154 10.8478C1.40744 7.99679 3.05579 5.45339 5.32266 3.53927C7.58953 1.62514 10.3731 0.426255 13.3214 0.0942319C16.2696 -0.237792 19.2502 0.311985 21.886 1.67399C24.5218 3.03599 26.6945 5.14905 28.1293 7.74594C29.5641 10.3428 30.1966 13.3069 29.9467 16.2633C29.6968 19.2196 28.5758 22.0355 26.7255 24.3547C24.245 27.4639 20.6311 29.4606 16.6786 29.9057C12.7262 30.3508 8.75873 29.2079 5.64879 26.7283Z" fill="#FFCACA"/>
</svg>
