<svg width="473" height="481" viewBox="0 0 473 481" fill="none" xmlns="http://www.w3.org/2000/svg">
<g opacity="0.25">
<path fill-rule="evenodd" clip-rule="evenodd" d="M13.0039 159.61C14.469 162.39 13.3395 165.862 10.4798 167.37C7.62003 168.877 4.11705 167.846 2.65189 165.066C1.18672 162.285 2.31625 158.813 5.17599 157.306C8.03572 155.799 11.5387 156.83 13.0039 159.61Z" fill="#F03738"/>
<path fill-rule="evenodd" clip-rule="evenodd" d="M13.0039 159.61C14.469 162.39 13.3395 165.862 10.4798 167.37C7.62003 168.877 4.11705 167.846 2.65189 165.066C1.18672 162.285 2.31625 158.813 5.17599 157.306C8.03572 155.799 11.5387 156.83 13.0039 159.61Z" fill="white" fill-opacity="0.5"/>
<path fill-rule="evenodd" clip-rule="evenodd" d="M26.2631 184.769C27.7283 187.549 26.5988 191.022 23.739 192.529C20.8793 194.036 17.3763 193.005 15.9112 190.225C14.446 187.445 15.5755 183.972 18.4353 182.465C21.295 180.958 24.798 181.989 26.2631 184.769Z" fill="#F03738"/>
<path fill-rule="evenodd" clip-rule="evenodd" d="M26.2631 184.769C27.7283 187.549 26.5988 191.022 23.739 192.529C20.8793 194.036 17.3763 193.005 15.9112 190.225C14.446 187.445 15.5755 183.972 18.4353 182.465C21.295 180.958 24.798 181.989 26.2631 184.769Z" fill="white" fill-opacity="0.5"/>
<path fill-rule="evenodd" clip-rule="evenodd" d="M53.8688 170.221C55.334 173.001 54.2045 176.473 51.3447 177.98C48.485 179.488 44.982 178.457 43.5169 175.676C42.0517 172.896 43.1812 169.424 46.041 167.917C48.9007 166.41 52.4037 167.441 53.8688 170.221Z" fill="#F03738"/>
<path fill-rule="evenodd" clip-rule="evenodd" d="M53.8688 170.221C55.334 173.001 54.2045 176.473 51.3447 177.98C48.485 179.488 44.982 178.457 43.5169 175.676C42.0517 172.896 43.1812 169.424 46.041 167.917C48.9007 166.41 52.4037 167.441 53.8688 170.221Z" fill="white" fill-opacity="0.5"/>
<path fill-rule="evenodd" clip-rule="evenodd" d="M79.7486 156.581C81.2138 159.362 80.0842 162.834 77.2244 164.341C74.3647 165.848 70.8617 164.817 69.3965 162.037C67.9313 159.257 69.0609 155.785 71.9207 154.278C74.7804 152.77 78.2834 153.801 79.7486 156.581Z" fill="#F03738"/>
<path fill-rule="evenodd" clip-rule="evenodd" d="M79.7486 156.581C81.2138 159.362 80.0842 162.834 77.2244 164.341C74.3647 165.848 70.8617 164.817 69.3965 162.037C67.9313 159.257 69.0609 155.785 71.9207 154.278C74.7804 152.77 78.2834 153.801 79.7486 156.581Z" fill="white" fill-opacity="0.5"/>
<path fill-rule="evenodd" clip-rule="evenodd" d="M105.629 142.942C107.094 145.723 105.964 149.195 103.105 150.702C100.245 152.209 96.7418 151.178 95.2766 148.398C93.8115 145.618 94.941 142.146 97.8007 140.638C100.66 139.131 104.163 140.162 105.629 142.942Z" fill="#F03738"/>
<path fill-rule="evenodd" clip-rule="evenodd" d="M105.629 142.942C107.094 145.723 105.964 149.195 103.105 150.702C100.245 152.209 96.7418 151.178 95.2766 148.398C93.8115 145.618 94.941 142.146 97.8007 140.638C100.66 139.131 104.163 140.162 105.629 142.942Z" fill="white" fill-opacity="0.5"/>
<path fill-rule="evenodd" clip-rule="evenodd" d="M133.234 128.394C134.699 131.174 133.57 134.646 130.71 136.153C127.85 137.66 124.347 136.629 122.882 133.849C121.417 131.069 122.546 127.597 125.406 126.09C128.266 124.582 131.769 125.613 133.234 128.394Z" fill="#F03738"/>
<path fill-rule="evenodd" clip-rule="evenodd" d="M133.234 128.394C134.699 131.174 133.57 134.646 130.71 136.153C127.85 137.66 124.347 136.629 122.882 133.849C121.417 131.069 122.546 127.597 125.406 126.09C128.266 124.582 131.769 125.613 133.234 128.394Z" fill="white" fill-opacity="0.5"/>
<path fill-rule="evenodd" clip-rule="evenodd" d="M159.114 114.754C160.579 117.535 159.449 121.007 156.59 122.514C153.73 124.021 150.227 122.99 148.762 120.21C147.297 117.43 148.426 113.958 151.286 112.45C154.146 110.943 157.649 111.974 159.114 114.754Z" fill="#F03738"/>
<path fill-rule="evenodd" clip-rule="evenodd" d="M159.114 114.754C160.579 117.535 159.449 121.007 156.59 122.514C153.73 124.021 150.227 122.99 148.762 120.21C147.297 117.43 148.426 113.958 151.286 112.45C154.146 110.943 157.649 111.974 159.114 114.754Z" fill="white" fill-opacity="0.5"/>
<path fill-rule="evenodd" clip-rule="evenodd" d="M186.719 100.206C188.184 102.986 187.054 106.459 184.195 107.966C181.335 109.473 177.832 108.442 176.367 105.662C174.902 102.882 176.031 99.4092 178.891 97.902C181.751 96.3948 185.254 97.4259 186.719 100.206Z" fill="#F03738"/>
<path fill-rule="evenodd" clip-rule="evenodd" d="M186.719 100.206C188.184 102.986 187.054 106.459 184.195 107.966C181.335 109.473 177.832 108.442 176.367 105.662C174.902 102.882 176.031 99.4092 178.891 97.902C181.751 96.3948 185.254 97.4259 186.719 100.206Z" fill="white" fill-opacity="0.5"/>
<path fill-rule="evenodd" clip-rule="evenodd" d="M212.599 86.5669C214.064 89.347 212.934 92.8195 210.075 94.3266C207.215 95.8337 203.712 94.8027 202.247 92.0226C200.782 89.2425 201.911 85.77 204.771 84.2629C207.631 82.7558 211.134 83.7868 212.599 86.5669Z" fill="#F03738"/>
<path fill-rule="evenodd" clip-rule="evenodd" d="M212.599 86.5669C214.064 89.347 212.934 92.8195 210.075 94.3266C207.215 95.8337 203.712 94.8027 202.247 92.0226C200.782 89.2425 201.911 85.77 204.771 84.2629C207.631 82.7558 211.134 83.7868 212.599 86.5669Z" fill="white" fill-opacity="0.5"/>
<path fill-rule="evenodd" clip-rule="evenodd" d="M240.204 72.0181C241.669 74.7982 240.54 78.2707 237.68 79.7778C234.82 81.2849 231.317 80.2539 229.852 77.4738C228.387 74.6937 229.517 71.2212 232.376 69.7141C235.236 68.2069 238.739 69.238 240.204 72.0181Z" fill="#F03738"/>
<path fill-rule="evenodd" clip-rule="evenodd" d="M240.204 72.0181C241.669 74.7982 240.54 78.2707 237.68 79.7778C234.82 81.2849 231.317 80.2539 229.852 77.4738C228.387 74.6937 229.517 71.2212 232.376 69.7141C235.236 68.2069 238.739 69.238 240.204 72.0181Z" fill="white" fill-opacity="0.5"/>
<path fill-rule="evenodd" clip-rule="evenodd" d="M266.084 58.3789C267.55 61.159 266.42 64.6315 263.56 66.1386C260.701 67.6458 257.198 66.6147 255.732 63.8346C254.267 61.0545 255.397 57.582 258.257 56.0749C261.116 54.5678 264.619 55.5988 266.084 58.3789Z" fill="#F03738"/>
<path fill-rule="evenodd" clip-rule="evenodd" d="M266.084 58.3789C267.55 61.159 266.42 64.6315 263.56 66.1386C260.701 67.6458 257.198 66.6147 255.732 63.8346C254.267 61.0545 255.397 57.582 258.257 56.0749C261.116 54.5678 264.619 55.5988 266.084 58.3789Z" fill="white" fill-opacity="0.5"/>
<path fill-rule="evenodd" clip-rule="evenodd" d="M291.964 44.7397C293.429 47.5198 292.3 50.9923 289.44 52.4994C286.58 54.0066 283.077 52.9755 281.612 50.1954C280.147 47.4153 281.276 43.9428 284.136 42.4357C286.996 40.9285 290.499 41.9596 291.964 44.7397Z" fill="#F03738"/>
<path fill-rule="evenodd" clip-rule="evenodd" d="M291.964 44.7397C293.429 47.5198 292.3 50.9923 289.44 52.4994C286.58 54.0066 283.077 52.9755 281.612 50.1954C280.147 47.4153 281.276 43.9428 284.136 42.4357C286.996 40.9285 290.499 41.9596 291.964 44.7397Z" fill="white" fill-opacity="0.5"/>
<path fill-rule="evenodd" clip-rule="evenodd" d="M319.569 30.1914C321.035 32.9715 319.905 36.444 317.045 37.9511C314.186 39.4583 310.683 38.4272 309.218 35.6471C307.752 32.867 308.882 29.3945 311.742 27.8874C314.601 26.3803 318.104 27.4113 319.569 30.1914Z" fill="#F03738"/>
<path fill-rule="evenodd" clip-rule="evenodd" d="M319.569 30.1914C321.035 32.9715 319.905 36.444 317.045 37.9511C314.186 39.4583 310.683 38.4272 309.218 35.6471C307.752 32.867 308.882 29.3945 311.742 27.8874C314.601 26.3803 318.104 27.4113 319.569 30.1914Z" fill="white" fill-opacity="0.5"/>
<path fill-rule="evenodd" clip-rule="evenodd" d="M40.4069 211.606C41.8721 214.386 40.7426 217.859 37.8828 219.366C35.0231 220.873 31.5201 219.842 30.055 217.062C28.5898 214.282 29.7193 210.809 32.5791 209.302C35.4388 207.795 38.9418 208.826 40.4069 211.606Z" fill="#F03738"/>
<path fill-rule="evenodd" clip-rule="evenodd" d="M40.4069 211.606C41.8721 214.386 40.7426 217.859 37.8828 219.366C35.0231 220.873 31.5201 219.842 30.055 217.062C28.5898 214.282 29.7193 210.809 32.5791 209.302C35.4388 207.795 38.9418 208.826 40.4069 211.606Z" fill="white" fill-opacity="0.5"/>
<path fill-rule="evenodd" clip-rule="evenodd" d="M68.0124 197.058C69.4776 199.838 68.348 203.31 65.4883 204.817C62.6286 206.324 59.1256 205.293 57.6604 202.513C56.1953 199.733 57.3248 196.261 60.1845 194.754C63.0443 193.246 66.5472 194.278 68.0124 197.058Z" fill="#F03738"/>
<path fill-rule="evenodd" clip-rule="evenodd" d="M68.0124 197.058C69.4776 199.838 68.348 203.31 65.4883 204.817C62.6286 206.324 59.1256 205.293 57.6604 202.513C56.1953 199.733 57.3248 196.261 60.1845 194.754C63.0443 193.246 66.5472 194.278 68.0124 197.058Z" fill="white" fill-opacity="0.5"/>
<path fill-rule="evenodd" clip-rule="evenodd" d="M93.8921 183.418C95.3573 186.199 94.2278 189.671 91.368 191.178C88.5082 192.685 85.0052 191.654 83.5401 188.874C82.0749 186.094 83.2045 182.622 86.0642 181.114C88.924 179.607 92.427 180.638 93.8921 183.418Z" fill="#F03738"/>
<path fill-rule="evenodd" clip-rule="evenodd" d="M93.8921 183.418C95.3573 186.199 94.2278 189.671 91.368 191.178C88.5082 192.685 85.0052 191.654 83.5401 188.874C82.0749 186.094 83.2045 182.622 86.0642 181.114C88.924 179.607 92.427 180.638 93.8921 183.418Z" fill="white" fill-opacity="0.5"/>
<path fill-rule="evenodd" clip-rule="evenodd" d="M119.772 169.779C121.237 172.559 120.108 176.032 117.248 177.539C114.388 179.046 110.885 178.015 109.42 175.235C107.955 172.455 109.085 168.982 111.944 167.475C114.804 165.968 118.307 166.999 119.772 169.779Z" fill="#F03738"/>
<path fill-rule="evenodd" clip-rule="evenodd" d="M119.772 169.779C121.237 172.559 120.108 176.032 117.248 177.539C114.388 179.046 110.885 178.015 109.42 175.235C107.955 172.455 109.085 168.982 111.944 167.475C114.804 165.968 118.307 166.999 119.772 169.779Z" fill="white" fill-opacity="0.5"/>
<path fill-rule="evenodd" clip-rule="evenodd" d="M147.378 155.23C148.843 158.011 147.713 161.483 144.854 162.99C141.994 164.497 138.491 163.466 137.026 160.686C135.56 157.906 136.69 154.434 139.55 152.926C142.409 151.419 145.912 152.45 147.378 155.23Z" fill="#F03738"/>
<path fill-rule="evenodd" clip-rule="evenodd" d="M147.378 155.23C148.843 158.011 147.713 161.483 144.854 162.99C141.994 164.497 138.491 163.466 137.026 160.686C135.56 157.906 136.69 154.434 139.55 152.926C142.409 151.419 145.912 152.45 147.378 155.23Z" fill="white" fill-opacity="0.5"/>
<path fill-rule="evenodd" clip-rule="evenodd" d="M173.257 141.592C174.722 144.372 173.593 147.844 170.733 149.352C167.873 150.859 164.37 149.828 162.905 147.047C161.44 144.267 162.57 140.795 165.429 139.288C168.289 137.781 171.792 138.812 173.257 141.592Z" fill="#F03738"/>
<path fill-rule="evenodd" clip-rule="evenodd" d="M173.257 141.592C174.722 144.372 173.593 147.844 170.733 149.352C167.873 150.859 164.37 149.828 162.905 147.047C161.44 144.267 162.57 140.795 165.429 139.288C168.289 137.781 171.792 138.812 173.257 141.592Z" fill="white" fill-opacity="0.5"/>
<path fill-rule="evenodd" clip-rule="evenodd" d="M200.862 127.043C202.328 129.823 201.198 133.296 198.338 134.803C195.478 136.31 191.975 135.279 190.51 132.499C189.045 129.719 190.175 126.247 193.034 124.739C195.894 123.232 199.397 124.263 200.862 127.043Z" fill="#F03738"/>
<path fill-rule="evenodd" clip-rule="evenodd" d="M200.862 127.043C202.328 129.823 201.198 133.296 198.338 134.803C195.478 136.31 191.975 135.279 190.51 132.499C189.045 129.719 190.175 126.247 193.034 124.739C195.894 123.232 199.397 124.263 200.862 127.043Z" fill="white" fill-opacity="0.5"/>
<path fill-rule="evenodd" clip-rule="evenodd" d="M226.743 113.404C228.208 116.184 227.078 119.656 224.219 121.164C221.359 122.671 217.856 121.64 216.391 118.86C214.925 116.079 216.055 112.607 218.915 111.1C221.774 109.593 225.277 110.624 226.743 113.404Z" fill="#F03738"/>
<path fill-rule="evenodd" clip-rule="evenodd" d="M226.743 113.404C228.208 116.184 227.078 119.656 224.219 121.164C221.359 122.671 217.856 121.64 216.391 118.86C214.925 116.079 216.055 112.607 218.915 111.1C221.774 109.593 225.277 110.624 226.743 113.404Z" fill="white" fill-opacity="0.5"/>
<path fill-rule="evenodd" clip-rule="evenodd" d="M254.348 98.8555C255.813 101.636 254.684 105.108 251.824 106.615C248.964 108.122 245.461 107.091 243.996 104.311C242.531 101.531 243.66 98.0586 246.52 96.5515C249.38 95.0443 252.883 96.0754 254.348 98.8555Z" fill="#F03738"/>
<path fill-rule="evenodd" clip-rule="evenodd" d="M254.348 98.8555C255.813 101.636 254.684 105.108 251.824 106.615C248.964 108.122 245.461 107.091 243.996 104.311C242.531 101.531 243.66 98.0586 246.52 96.5515C249.38 95.0443 252.883 96.0754 254.348 98.8555Z" fill="white" fill-opacity="0.5"/>
<path fill-rule="evenodd" clip-rule="evenodd" d="M280.228 85.2159C281.693 87.996 280.564 91.4684 277.704 92.9755C274.844 94.4827 271.341 93.4516 269.876 90.6715C268.411 87.8914 269.541 84.4189 272.4 82.9118C275.26 81.4047 278.763 82.4357 280.228 85.2159Z" fill="#F03738"/>
<path fill-rule="evenodd" clip-rule="evenodd" d="M280.228 85.2159C281.693 87.996 280.564 91.4684 277.704 92.9755C274.844 94.4827 271.341 93.4516 269.876 90.6715C268.411 87.8914 269.541 84.4189 272.4 82.9118C275.26 81.4047 278.763 82.4357 280.228 85.2159Z" fill="white" fill-opacity="0.5"/>
<path fill-rule="evenodd" clip-rule="evenodd" d="M306.108 71.5771C307.573 74.3572 306.444 77.8297 303.584 79.3368C300.724 80.844 297.221 79.8129 295.756 77.0328C294.291 74.2527 295.42 70.7803 298.28 69.2731C301.14 67.7659 304.643 68.797 306.108 71.5771Z" fill="#F03738"/>
<path fill-rule="evenodd" clip-rule="evenodd" d="M306.108 71.5771C307.573 74.3572 306.444 77.8297 303.584 79.3368C300.724 80.844 297.221 79.8129 295.756 77.0328C294.291 74.2527 295.42 70.7803 298.28 69.2731C301.14 67.7659 304.643 68.797 306.108 71.5771Z" fill="white" fill-opacity="0.5"/>
<path fill-rule="evenodd" clip-rule="evenodd" d="M333.713 57.0284C335.178 59.8085 334.049 63.2809 331.189 64.788C328.329 66.2952 324.827 65.2641 323.361 62.484C321.896 59.7039 323.026 56.2314 325.885 54.7243C328.745 53.2172 332.248 54.2482 333.713 57.0284Z" fill="#F03738"/>
<path fill-rule="evenodd" clip-rule="evenodd" d="M333.713 57.0284C335.178 59.8085 334.049 63.2809 331.189 64.788C328.329 66.2952 324.827 65.2641 323.361 62.484C321.896 59.7039 323.026 56.2314 325.885 54.7243C328.745 53.2172 332.248 54.2482 333.713 57.0284Z" fill="white" fill-opacity="0.5"/>
<path fill-rule="evenodd" clip-rule="evenodd" d="M53.6657 236.765C55.1309 239.545 54.0014 243.017 51.1416 244.524C48.2819 246.031 44.7789 245 43.3138 242.22C41.8486 239.44 42.9781 235.968 45.8379 234.461C48.6976 232.954 52.2006 233.985 53.6657 236.765Z" fill="#F03738"/>
<path fill-rule="evenodd" clip-rule="evenodd" d="M53.6657 236.765C55.1309 239.545 54.0014 243.017 51.1416 244.524C48.2819 246.031 44.7789 245 43.3138 242.22C41.8486 239.44 42.9781 235.968 45.8379 234.461C48.6976 232.954 52.2006 233.985 53.6657 236.765Z" fill="white" fill-opacity="0.5"/>
<path fill-rule="evenodd" clip-rule="evenodd" d="M81.2714 222.216C82.7366 224.996 81.6071 228.468 78.7473 229.976C75.8876 231.483 72.3846 230.452 70.9195 227.672C69.4543 224.891 70.5838 221.419 73.4436 219.912C76.3033 218.405 79.8063 219.436 81.2714 222.216Z" fill="#F03738"/>
<path fill-rule="evenodd" clip-rule="evenodd" d="M81.2714 222.216C82.7366 224.996 81.6071 228.468 78.7473 229.976C75.8876 231.483 72.3846 230.452 70.9195 227.672C69.4543 224.891 70.5838 221.419 73.4436 219.912C76.3033 218.405 79.8063 219.436 81.2714 222.216Z" fill="white" fill-opacity="0.5"/>
<path fill-rule="evenodd" clip-rule="evenodd" d="M107.151 208.577C108.616 211.357 107.487 214.83 104.627 216.337C101.767 217.844 98.2643 216.813 96.7991 214.033C95.3339 211.253 96.4635 207.78 99.3233 206.273C102.183 204.766 105.686 205.797 107.151 208.577Z" fill="#F03738"/>
<path fill-rule="evenodd" clip-rule="evenodd" d="M107.151 208.577C108.616 211.357 107.487 214.83 104.627 216.337C101.767 217.844 98.2643 216.813 96.7991 214.033C95.3339 211.253 96.4635 207.78 99.3233 206.273C102.183 204.766 105.686 205.797 107.151 208.577Z" fill="white" fill-opacity="0.5"/>
<path fill-rule="evenodd" clip-rule="evenodd" d="M133.031 194.938C134.496 197.718 133.367 201.19 130.507 202.697C127.647 204.204 124.144 203.173 122.679 200.393C121.214 197.613 122.344 194.141 125.203 192.633C128.063 191.126 131.566 192.157 133.031 194.938Z" fill="#F03738"/>
<path fill-rule="evenodd" clip-rule="evenodd" d="M133.031 194.938C134.496 197.718 133.367 201.19 130.507 202.697C127.647 204.204 124.144 203.173 122.679 200.393C121.214 197.613 122.344 194.141 125.203 192.633C128.063 191.126 131.566 192.157 133.031 194.938Z" fill="white" fill-opacity="0.5"/>
<path fill-rule="evenodd" clip-rule="evenodd" d="M160.637 180.389C162.102 183.169 160.972 186.642 158.113 188.149C155.253 189.656 151.75 188.625 150.285 185.845C148.82 183.065 149.949 179.592 152.809 178.085C155.669 176.578 159.171 177.609 160.637 180.389Z" fill="#F03738"/>
<path fill-rule="evenodd" clip-rule="evenodd" d="M160.637 180.389C162.102 183.169 160.972 186.642 158.113 188.149C155.253 189.656 151.75 188.625 150.285 185.845C148.82 183.065 149.949 179.592 152.809 178.085C155.669 176.578 159.171 177.609 160.637 180.389Z" fill="white" fill-opacity="0.5"/>
<path fill-rule="evenodd" clip-rule="evenodd" d="M186.516 166.75C187.981 169.53 186.852 173.003 183.992 174.51C181.132 176.017 177.63 174.986 176.164 172.206C174.699 169.426 175.829 165.953 178.688 164.446C181.548 162.939 185.051 163.97 186.516 166.75Z" fill="#F03738"/>
<path fill-rule="evenodd" clip-rule="evenodd" d="M186.516 166.75C187.981 169.53 186.852 173.003 183.992 174.51C181.132 176.017 177.63 174.986 176.164 172.206C174.699 169.426 175.829 165.953 178.688 164.446C181.548 162.939 185.051 163.97 186.516 166.75Z" fill="white" fill-opacity="0.5"/>
<path fill-rule="evenodd" clip-rule="evenodd" d="M214.121 152.202C215.587 154.982 214.457 158.454 211.597 159.961C208.737 161.468 205.234 160.437 203.769 157.657C202.304 154.877 203.434 151.405 206.293 149.898C209.153 148.39 212.656 149.421 214.121 152.202Z" fill="#F03738"/>
<path fill-rule="evenodd" clip-rule="evenodd" d="M214.121 152.202C215.587 154.982 214.457 158.454 211.597 159.961C208.737 161.468 205.234 160.437 203.769 157.657C202.304 154.877 203.434 151.405 206.293 149.898C209.153 148.39 212.656 149.421 214.121 152.202Z" fill="white" fill-opacity="0.5"/>
<path fill-rule="evenodd" clip-rule="evenodd" d="M240.001 138.563C241.467 141.343 240.337 144.815 237.477 146.322C234.618 147.829 231.115 146.798 229.649 144.018C228.184 141.238 229.314 137.766 232.174 136.258C235.033 134.751 238.536 135.782 240.001 138.563Z" fill="#F03738"/>
<path fill-rule="evenodd" clip-rule="evenodd" d="M240.001 138.563C241.467 141.343 240.337 144.815 237.477 146.322C234.618 147.829 231.115 146.798 229.649 144.018C228.184 141.238 229.314 137.766 232.174 136.258C235.033 134.751 238.536 135.782 240.001 138.563Z" fill="white" fill-opacity="0.5"/>
<path fill-rule="evenodd" clip-rule="evenodd" d="M267.607 124.014C269.072 126.794 267.943 130.266 265.083 131.773C262.223 133.281 258.72 132.249 257.255 129.469C255.79 126.689 256.919 123.217 259.779 121.71C262.639 120.203 266.142 121.234 267.607 124.014Z" fill="#F03738"/>
<path fill-rule="evenodd" clip-rule="evenodd" d="M267.607 124.014C269.072 126.794 267.943 130.266 265.083 131.773C262.223 133.281 258.72 132.249 257.255 129.469C255.79 126.689 256.919 123.217 259.779 121.71C262.639 120.203 266.142 121.234 267.607 124.014Z" fill="white" fill-opacity="0.5"/>
<path fill-rule="evenodd" clip-rule="evenodd" d="M293.487 110.375C294.952 113.155 293.823 116.627 290.963 118.134C288.103 119.641 284.6 118.61 283.135 115.83C281.67 113.05 282.799 109.578 285.659 108.071C288.519 106.563 292.022 107.594 293.487 110.375Z" fill="#F03738"/>
<path fill-rule="evenodd" clip-rule="evenodd" d="M293.487 110.375C294.952 113.155 293.823 116.627 290.963 118.134C288.103 119.641 284.6 118.61 283.135 115.83C281.67 113.05 282.799 109.578 285.659 108.071C288.519 106.563 292.022 107.594 293.487 110.375Z" fill="white" fill-opacity="0.5"/>
<path fill-rule="evenodd" clip-rule="evenodd" d="M319.367 96.7353C320.832 99.5154 319.702 102.988 316.843 104.495C313.983 106.002 310.48 104.971 309.015 102.191C307.55 99.4109 308.679 95.9385 311.539 94.4313C314.399 92.9241 317.902 93.9552 319.367 96.7353Z" fill="#F03738"/>
<path fill-rule="evenodd" clip-rule="evenodd" d="M319.367 96.7353C320.832 99.5154 319.702 102.988 316.843 104.495C313.983 106.002 310.48 104.971 309.015 102.191C307.55 99.4109 308.679 95.9385 311.539 94.4313C314.399 92.9241 317.902 93.9552 319.367 96.7353Z" fill="white" fill-opacity="0.5"/>
<path fill-rule="evenodd" clip-rule="evenodd" d="M346.972 82.187C348.437 84.9672 347.308 88.4396 344.448 89.9467C341.588 91.4539 338.085 90.4228 336.62 87.6427C335.155 84.8626 336.285 81.3901 339.144 79.883C342.004 78.3759 345.507 79.4069 346.972 82.187Z" fill="#F03738"/>
<path fill-rule="evenodd" clip-rule="evenodd" d="M346.972 82.187C348.437 84.9672 347.308 88.4396 344.448 89.9467C341.588 91.4539 338.085 90.4228 336.62 87.6427C335.155 84.8626 336.285 81.3901 339.144 79.883C342.004 78.3759 345.507 79.4069 346.972 82.187Z" fill="white" fill-opacity="0.5"/>
<path fill-rule="evenodd" clip-rule="evenodd" d="M67.8095 263.602C69.2747 266.382 68.1452 269.854 65.2854 271.361C62.4257 272.868 58.9227 271.837 57.4576 269.057C55.9924 266.277 57.1219 262.805 59.9816 261.298C62.8414 259.79 66.3444 260.821 67.8095 263.602Z" fill="#F03738"/>
<path fill-rule="evenodd" clip-rule="evenodd" d="M67.8095 263.602C69.2747 266.382 68.1452 269.854 65.2854 271.361C62.4257 272.868 58.9227 271.837 57.4576 269.057C55.9924 266.277 57.1219 262.805 59.9816 261.298C62.8414 259.79 66.3444 260.821 67.8095 263.602Z" fill="white" fill-opacity="0.5"/>
<path fill-rule="evenodd" clip-rule="evenodd" d="M95.415 249.053C96.8802 251.833 95.7506 255.306 92.8909 256.813C90.0312 258.32 86.5282 257.289 85.063 254.509C83.5979 251.729 84.7274 248.256 87.5871 246.749C90.4469 245.242 93.9498 246.273 95.415 249.053Z" fill="#F03738"/>
<path fill-rule="evenodd" clip-rule="evenodd" d="M95.415 249.053C96.8802 251.833 95.7506 255.306 92.8909 256.813C90.0312 258.32 86.5282 257.289 85.063 254.509C83.5979 251.729 84.7274 248.256 87.5871 246.749C90.4469 245.242 93.9498 246.273 95.415 249.053Z" fill="white" fill-opacity="0.5"/>
<path fill-rule="evenodd" clip-rule="evenodd" d="M121.295 235.414C122.76 238.194 121.63 241.667 118.771 243.174C115.911 244.681 112.408 243.65 110.943 240.87C109.477 238.09 110.607 234.617 113.467 233.11C116.327 231.603 119.83 232.634 121.295 235.414Z" fill="#F03738"/>
<path fill-rule="evenodd" clip-rule="evenodd" d="M121.295 235.414C122.76 238.194 121.63 241.667 118.771 243.174C115.911 244.681 112.408 243.65 110.943 240.87C109.477 238.09 110.607 234.617 113.467 233.11C116.327 231.603 119.83 232.634 121.295 235.414Z" fill="white" fill-opacity="0.5"/>
<path fill-rule="evenodd" clip-rule="evenodd" d="M147.175 221.775C148.64 224.555 147.51 228.027 144.651 229.535C141.791 231.042 138.288 230.011 136.823 227.231C135.358 224.45 136.487 220.978 139.347 219.471C142.207 217.964 145.71 218.995 147.175 221.775Z" fill="#F03738"/>
<path fill-rule="evenodd" clip-rule="evenodd" d="M147.175 221.775C148.64 224.555 147.51 228.027 144.651 229.535C141.791 231.042 138.288 230.011 136.823 227.231C135.358 224.45 136.487 220.978 139.347 219.471C142.207 217.964 145.71 218.995 147.175 221.775Z" fill="white" fill-opacity="0.5"/>
<path fill-rule="evenodd" clip-rule="evenodd" d="M174.78 207.226C176.245 210.006 175.116 213.479 172.256 214.986C169.396 216.493 165.893 215.462 164.428 212.682C162.963 209.902 164.093 206.429 166.952 204.922C169.812 203.415 173.315 204.446 174.78 207.226Z" fill="#F03738"/>
<path fill-rule="evenodd" clip-rule="evenodd" d="M174.78 207.226C176.245 210.006 175.116 213.479 172.256 214.986C169.396 216.493 165.893 215.462 164.428 212.682C162.963 209.902 164.093 206.429 166.952 204.922C169.812 203.415 173.315 204.446 174.78 207.226Z" fill="white" fill-opacity="0.5"/>
<path fill-rule="evenodd" clip-rule="evenodd" d="M200.66 193.587C202.125 196.367 200.995 199.84 198.136 201.347C195.276 202.854 191.773 201.823 190.308 199.043C188.843 196.263 189.972 192.79 192.832 191.283C195.692 189.776 199.195 190.807 200.66 193.587Z" fill="#F03738"/>
<path fill-rule="evenodd" clip-rule="evenodd" d="M200.66 193.587C202.125 196.367 200.995 199.84 198.136 201.347C195.276 202.854 191.773 201.823 190.308 199.043C188.843 196.263 189.972 192.79 192.832 191.283C195.692 189.776 199.195 190.807 200.66 193.587Z" fill="white" fill-opacity="0.5"/>
<path fill-rule="evenodd" clip-rule="evenodd" d="M228.265 179.039C229.73 181.819 228.601 185.291 225.741 186.798C222.881 188.305 219.378 187.274 217.913 184.494C216.448 181.714 217.577 178.242 220.437 176.735C223.297 175.227 226.8 176.258 228.265 179.039Z" fill="#F03738"/>
<path fill-rule="evenodd" clip-rule="evenodd" d="M228.265 179.039C229.73 181.819 228.601 185.291 225.741 186.798C222.881 188.305 219.378 187.274 217.913 184.494C216.448 181.714 217.577 178.242 220.437 176.735C223.297 175.227 226.8 176.258 228.265 179.039Z" fill="white" fill-opacity="0.5"/>
<path fill-rule="evenodd" clip-rule="evenodd" d="M254.145 165.399C255.61 168.18 254.481 171.652 251.621 173.159C248.761 174.666 245.258 173.635 243.793 170.855C242.328 168.075 243.458 164.603 246.317 163.095C249.177 161.588 252.68 162.619 254.145 165.399Z" fill="#F03738"/>
<path fill-rule="evenodd" clip-rule="evenodd" d="M254.145 165.399C255.61 168.18 254.481 171.652 251.621 173.159C248.761 174.666 245.258 173.635 243.793 170.855C242.328 168.075 243.458 164.603 246.317 163.095C249.177 161.588 252.68 162.619 254.145 165.399Z" fill="white" fill-opacity="0.5"/>
<path fill-rule="evenodd" clip-rule="evenodd" d="M281.751 150.851C283.216 153.631 282.086 157.103 279.227 158.61C276.367 160.117 272.864 159.086 271.399 156.306C269.934 153.526 271.063 150.054 273.923 148.547C276.783 147.039 280.286 148.07 281.751 150.851Z" fill="#F03738"/>
<path fill-rule="evenodd" clip-rule="evenodd" d="M281.751 150.851C283.216 153.631 282.086 157.103 279.227 158.61C276.367 160.117 272.864 159.086 271.399 156.306C269.934 153.526 271.063 150.054 273.923 148.547C276.783 147.039 280.286 148.07 281.751 150.851Z" fill="white" fill-opacity="0.5"/>
<path fill-rule="evenodd" clip-rule="evenodd" d="M307.631 137.211C309.096 139.992 307.966 143.464 305.107 144.971C302.247 146.478 298.744 145.447 297.279 142.667C295.814 139.887 296.943 136.415 299.803 134.907C302.663 133.4 306.166 134.431 307.631 137.211Z" fill="#F03738"/>
<path fill-rule="evenodd" clip-rule="evenodd" d="M307.631 137.211C309.096 139.992 307.966 143.464 305.107 144.971C302.247 146.478 298.744 145.447 297.279 142.667C295.814 139.887 296.943 136.415 299.803 134.907C302.663 133.4 306.166 134.431 307.631 137.211Z" fill="white" fill-opacity="0.5"/>
<path fill-rule="evenodd" clip-rule="evenodd" d="M333.511 123.572C334.976 126.352 333.846 129.825 330.986 131.332C328.127 132.839 324.624 131.808 323.158 129.028C321.693 126.248 322.823 122.775 325.683 121.268C328.542 119.761 332.045 120.792 333.511 123.572Z" fill="#F03738"/>
<path fill-rule="evenodd" clip-rule="evenodd" d="M333.511 123.572C334.976 126.352 333.846 129.825 330.986 131.332C328.127 132.839 324.624 131.808 323.158 129.028C321.693 126.248 322.823 122.775 325.683 121.268C328.542 119.761 332.045 120.792 333.511 123.572Z" fill="white" fill-opacity="0.5"/>
<path fill-rule="evenodd" clip-rule="evenodd" d="M361.116 109.024C362.581 111.804 361.452 115.277 358.592 116.784C355.732 118.291 352.229 117.26 350.764 114.48C349.299 111.7 350.428 108.227 353.288 106.72C356.148 105.213 359.651 106.244 361.116 109.024Z" fill="#F03738"/>
<path fill-rule="evenodd" clip-rule="evenodd" d="M361.116 109.024C362.581 111.804 361.452 115.277 358.592 116.784C355.732 118.291 352.229 117.26 350.764 114.48C349.299 111.7 350.428 108.227 353.288 106.72C356.148 105.213 359.651 106.244 361.116 109.024Z" fill="white" fill-opacity="0.5"/>
<path fill-rule="evenodd" clip-rule="evenodd" d="M81.0688 288.761C82.534 291.541 81.4044 295.013 78.5447 296.52C75.685 298.028 72.182 296.997 70.7168 294.216C69.2517 291.436 70.3812 287.964 73.2409 286.457C76.1007 284.95 79.6036 285.981 81.0688 288.761Z" fill="#F03738"/>
<path fill-rule="evenodd" clip-rule="evenodd" d="M81.0688 288.761C82.534 291.541 81.4044 295.013 78.5447 296.52C75.685 298.028 72.182 296.997 70.7168 294.216C69.2517 291.436 70.3812 287.964 73.2409 286.457C76.1007 284.95 79.6036 285.981 81.0688 288.761Z" fill="white" fill-opacity="0.5"/>
<path fill-rule="evenodd" clip-rule="evenodd" d="M108.675 274.212C110.14 276.993 109.01 280.465 106.15 281.972C103.291 283.479 99.7877 282.448 98.3225 279.668C96.8574 276.888 97.9869 273.416 100.847 271.908C103.706 270.401 107.209 271.432 108.675 274.212Z" fill="#F03738"/>
<path fill-rule="evenodd" clip-rule="evenodd" d="M108.675 274.212C110.14 276.993 109.01 280.465 106.15 281.972C103.291 283.479 99.7877 282.448 98.3225 279.668C96.8574 276.888 97.9869 273.416 100.847 271.908C103.706 270.401 107.209 271.432 108.675 274.212Z" fill="white" fill-opacity="0.5"/>
<path fill-rule="evenodd" clip-rule="evenodd" d="M134.554 260.573C136.019 263.353 134.89 266.826 132.03 268.333C129.17 269.84 125.667 268.809 124.202 266.029C122.737 263.249 123.866 259.776 126.726 258.269C129.586 256.762 133.089 257.793 134.554 260.573Z" fill="#F03738"/>
<path fill-rule="evenodd" clip-rule="evenodd" d="M134.554 260.573C136.019 263.353 134.89 266.826 132.03 268.333C129.17 269.84 125.667 268.809 124.202 266.029C122.737 263.249 123.866 259.776 126.726 258.269C129.586 256.762 133.089 257.793 134.554 260.573Z" fill="white" fill-opacity="0.5"/>
<path fill-rule="evenodd" clip-rule="evenodd" d="M160.434 246.934C161.899 249.714 160.77 253.187 157.91 254.694C155.05 256.201 151.547 255.17 150.082 252.39C148.617 249.61 149.747 246.137 152.606 244.63C155.466 243.123 158.969 244.154 160.434 246.934Z" fill="#F03738"/>
<path fill-rule="evenodd" clip-rule="evenodd" d="M160.434 246.934C161.899 249.714 160.77 253.187 157.91 254.694C155.05 256.201 151.547 255.17 150.082 252.39C148.617 249.61 149.747 246.137 152.606 244.63C155.466 243.123 158.969 244.154 160.434 246.934Z" fill="white" fill-opacity="0.5"/>
<path fill-rule="evenodd" clip-rule="evenodd" d="M188.04 232.385C189.505 235.165 188.375 238.638 185.516 240.145C182.656 241.652 179.153 240.621 177.688 237.841C176.223 235.061 177.352 231.588 180.212 230.081C183.072 228.574 186.575 229.605 188.04 232.385Z" fill="#F03738"/>
<path fill-rule="evenodd" clip-rule="evenodd" d="M188.04 232.385C189.505 235.165 188.375 238.638 185.516 240.145C182.656 241.652 179.153 240.621 177.688 237.841C176.223 235.061 177.352 231.588 180.212 230.081C183.072 228.574 186.575 229.605 188.04 232.385Z" fill="white" fill-opacity="0.5"/>
<path fill-rule="evenodd" clip-rule="evenodd" d="M213.919 218.747C215.385 221.527 214.255 224.999 211.395 226.506C208.536 228.013 205.033 226.982 203.567 224.202C202.102 221.422 203.232 217.95 206.092 216.443C208.951 214.935 212.454 215.966 213.919 218.747Z" fill="#F03738"/>
<path fill-rule="evenodd" clip-rule="evenodd" d="M213.919 218.747C215.385 221.527 214.255 224.999 211.395 226.506C208.536 228.013 205.033 226.982 203.567 224.202C202.102 221.422 203.232 217.95 206.092 216.443C208.951 214.935 212.454 215.966 213.919 218.747Z" fill="white" fill-opacity="0.5"/>
<path fill-rule="evenodd" clip-rule="evenodd" d="M241.525 204.198C242.99 206.978 241.86 210.45 239 211.957C236.141 213.465 232.638 212.434 231.172 209.653C229.707 206.873 230.837 203.401 233.697 201.894C236.556 200.387 240.059 201.418 241.525 204.198Z" fill="#F03738"/>
<path fill-rule="evenodd" clip-rule="evenodd" d="M241.525 204.198C242.99 206.978 241.86 210.45 239 211.957C236.141 213.465 232.638 212.434 231.172 209.653C229.707 206.873 230.837 203.401 233.697 201.894C236.556 200.387 240.059 201.418 241.525 204.198Z" fill="white" fill-opacity="0.5"/>
<path fill-rule="evenodd" clip-rule="evenodd" d="M267.404 190.559C268.87 193.339 267.74 196.811 264.88 198.318C262.021 199.825 258.518 198.794 257.053 196.014C255.587 193.234 256.717 189.762 259.577 188.255C262.436 186.747 265.939 187.779 267.404 190.559Z" fill="#F03738"/>
<path fill-rule="evenodd" clip-rule="evenodd" d="M267.404 190.559C268.87 193.339 267.74 196.811 264.88 198.318C262.021 199.825 258.518 198.794 257.053 196.014C255.587 193.234 256.717 189.762 259.577 188.255C262.436 186.747 265.939 187.779 267.404 190.559Z" fill="white" fill-opacity="0.5"/>
<path fill-rule="evenodd" clip-rule="evenodd" d="M295.01 176.01C296.475 178.79 295.346 182.263 292.486 183.77C289.626 185.277 286.123 184.246 284.658 181.466C283.193 178.686 284.322 175.213 287.182 173.706C290.042 172.199 293.545 173.23 295.01 176.01Z" fill="#F03738"/>
<path fill-rule="evenodd" clip-rule="evenodd" d="M295.01 176.01C296.475 178.79 295.346 182.263 292.486 183.77C289.626 185.277 286.123 184.246 284.658 181.466C283.193 178.686 284.322 175.213 287.182 173.706C290.042 172.199 293.545 173.23 295.01 176.01Z" fill="white" fill-opacity="0.5"/>
<path fill-rule="evenodd" clip-rule="evenodd" d="M320.89 162.371C322.355 165.151 321.226 168.623 318.366 170.13C315.506 171.637 312.003 170.606 310.538 167.826C309.073 165.046 310.202 161.574 313.062 160.067C315.922 158.559 319.425 159.591 320.89 162.371Z" fill="#F03738"/>
<path fill-rule="evenodd" clip-rule="evenodd" d="M320.89 162.371C322.355 165.151 321.226 168.623 318.366 170.13C315.506 171.637 312.003 170.606 310.538 167.826C309.073 165.046 310.202 161.574 313.062 160.067C315.922 158.559 319.425 159.591 320.89 162.371Z" fill="white" fill-opacity="0.5"/>
<path fill-rule="evenodd" clip-rule="evenodd" d="M346.77 148.732C348.235 151.512 347.105 154.984 344.246 156.492C341.386 157.999 337.883 156.968 336.418 154.188C334.953 151.408 336.082 147.935 338.942 146.428C341.802 144.921 345.305 145.952 346.77 148.732Z" fill="#F03738"/>
<path fill-rule="evenodd" clip-rule="evenodd" d="M346.77 148.732C348.235 151.512 347.105 154.984 344.246 156.492C341.386 157.999 337.883 156.968 336.418 154.188C334.953 151.408 336.082 147.935 338.942 146.428C341.802 144.921 345.305 145.952 346.77 148.732Z" fill="white" fill-opacity="0.5"/>
<path fill-rule="evenodd" clip-rule="evenodd" d="M374.375 134.183C375.84 136.963 374.711 140.436 371.851 141.943C368.991 143.45 365.488 142.419 364.023 139.639C362.558 136.859 363.688 133.386 366.547 131.879C369.407 130.372 372.91 131.403 374.375 134.183Z" fill="#F03738"/>
<path fill-rule="evenodd" clip-rule="evenodd" d="M374.375 134.183C375.84 136.963 374.711 140.436 371.851 141.943C368.991 143.45 365.488 142.419 364.023 139.639C362.558 136.859 363.688 133.386 366.547 131.879C369.407 130.372 372.91 131.403 374.375 134.183Z" fill="white" fill-opacity="0.5"/>
<path fill-rule="evenodd" clip-rule="evenodd" d="M95.2124 315.598C96.6775 318.378 95.548 321.851 92.6883 323.358C89.8285 324.865 86.3255 323.834 84.8604 321.054C83.3952 318.274 84.5247 314.801 87.3845 313.294C90.2442 311.787 93.7472 312.818 95.2124 315.598Z" fill="#F03738"/>
<path fill-rule="evenodd" clip-rule="evenodd" d="M95.2124 315.598C96.6775 318.378 95.548 321.851 92.6883 323.358C89.8285 324.865 86.3255 323.834 84.8604 321.054C83.3952 318.274 84.5247 314.801 87.3845 313.294C90.2442 311.787 93.7472 312.818 95.2124 315.598Z" fill="white" fill-opacity="0.5"/>
<path fill-rule="evenodd" clip-rule="evenodd" d="M122.818 301.049C124.283 303.829 123.154 307.302 120.294 308.809C117.434 310.316 113.931 309.285 112.466 306.505C111.001 303.725 112.13 300.252 114.99 298.745C117.85 297.238 121.353 298.269 122.818 301.049Z" fill="#F03738"/>
<path fill-rule="evenodd" clip-rule="evenodd" d="M122.818 301.049C124.283 303.829 123.154 307.302 120.294 308.809C117.434 310.316 113.931 309.285 112.466 306.505C111.001 303.725 112.13 300.252 114.99 298.745C117.85 297.238 121.353 298.269 122.818 301.049Z" fill="white" fill-opacity="0.5"/>
<path fill-rule="evenodd" clip-rule="evenodd" d="M148.698 287.41C150.163 290.19 149.033 293.663 146.174 295.17C143.314 296.677 139.811 295.646 138.346 292.866C136.881 290.086 138.01 286.613 140.87 285.106C143.73 283.599 147.233 284.63 148.698 287.41Z" fill="#F03738"/>
<path fill-rule="evenodd" clip-rule="evenodd" d="M148.698 287.41C150.163 290.19 149.033 293.663 146.174 295.17C143.314 296.677 139.811 295.646 138.346 292.866C136.881 290.086 138.01 286.613 140.87 285.106C143.73 283.599 147.233 284.63 148.698 287.41Z" fill="white" fill-opacity="0.5"/>
<path fill-rule="evenodd" clip-rule="evenodd" d="M174.578 273.771C176.043 276.551 174.913 280.024 172.054 281.531C169.194 283.038 165.691 282.007 164.226 279.227C162.761 276.447 163.89 272.974 166.75 271.467C169.61 269.96 173.113 270.991 174.578 273.771Z" fill="#F03738"/>
<path fill-rule="evenodd" clip-rule="evenodd" d="M174.578 273.771C176.043 276.551 174.913 280.024 172.054 281.531C169.194 283.038 165.691 282.007 164.226 279.227C162.761 276.447 163.89 272.974 166.75 271.467C169.61 269.96 173.113 270.991 174.578 273.771Z" fill="white" fill-opacity="0.5"/>
<path fill-rule="evenodd" clip-rule="evenodd" d="M202.183 259.223C203.648 262.003 202.519 265.475 199.659 266.982C196.799 268.49 193.296 267.458 191.831 264.678C190.366 261.898 191.496 258.426 194.355 256.919C197.215 255.412 200.718 256.443 202.183 259.223Z" fill="#F03738"/>
<path fill-rule="evenodd" clip-rule="evenodd" d="M202.183 259.223C203.648 262.003 202.519 265.475 199.659 266.982C196.799 268.49 193.296 267.458 191.831 264.678C190.366 261.898 191.496 258.426 194.355 256.919C197.215 255.412 200.718 256.443 202.183 259.223Z" fill="white" fill-opacity="0.5"/>
<path fill-rule="evenodd" clip-rule="evenodd" d="M228.063 245.584C229.528 248.364 228.399 251.836 225.539 253.343C222.679 254.85 219.176 253.819 217.711 251.039C216.246 248.259 217.375 244.787 220.235 243.279C223.095 241.772 226.598 242.803 228.063 245.584Z" fill="#F03738"/>
<path fill-rule="evenodd" clip-rule="evenodd" d="M228.063 245.584C229.528 248.364 228.399 251.836 225.539 253.343C222.679 254.85 219.176 253.819 217.711 251.039C216.246 248.259 217.375 244.787 220.235 243.279C223.095 241.772 226.598 242.803 228.063 245.584Z" fill="white" fill-opacity="0.5"/>
<path fill-rule="evenodd" clip-rule="evenodd" d="M255.668 231.035C257.133 233.815 256.004 237.288 253.144 238.795C250.284 240.302 246.781 239.271 245.316 236.491C243.851 233.711 244.98 230.238 247.84 228.731C250.7 227.224 254.203 228.255 255.668 231.035Z" fill="#F03738"/>
<path fill-rule="evenodd" clip-rule="evenodd" d="M255.668 231.035C257.133 233.815 256.004 237.288 253.144 238.795C250.284 240.302 246.781 239.271 245.316 236.491C243.851 233.711 244.98 230.238 247.84 228.731C250.7 227.224 254.203 228.255 255.668 231.035Z" fill="white" fill-opacity="0.5"/>
<path fill-rule="evenodd" clip-rule="evenodd" d="M281.548 217.396C283.013 220.176 281.884 223.648 279.024 225.155C276.164 226.662 272.661 225.631 271.196 222.851C269.731 220.071 270.861 216.599 273.72 215.091C276.58 213.584 280.083 214.615 281.548 217.396Z" fill="#F03738"/>
<path fill-rule="evenodd" clip-rule="evenodd" d="M281.548 217.396C283.013 220.176 281.884 223.648 279.024 225.155C276.164 226.662 272.661 225.631 271.196 222.851C269.731 220.071 270.861 216.599 273.72 215.091C276.58 213.584 280.083 214.615 281.548 217.396Z" fill="white" fill-opacity="0.5"/>
<path fill-rule="evenodd" clip-rule="evenodd" d="M309.154 202.847C310.619 205.627 309.489 209.1 306.629 210.607C303.77 212.114 300.267 211.083 298.802 208.303C297.336 205.523 298.466 202.05 301.326 200.543C304.185 199.036 307.688 200.067 309.154 202.847Z" fill="#F03738"/>
<path fill-rule="evenodd" clip-rule="evenodd" d="M309.154 202.847C310.619 205.627 309.489 209.1 306.629 210.607C303.77 212.114 300.267 211.083 298.802 208.303C297.336 205.523 298.466 202.05 301.326 200.543C304.185 199.036 307.688 200.067 309.154 202.847Z" fill="white" fill-opacity="0.5"/>
<path fill-rule="evenodd" clip-rule="evenodd" d="M335.034 189.208C336.499 191.988 335.369 195.461 332.51 196.968C329.65 198.475 326.147 197.444 324.682 194.664C323.217 191.884 324.346 188.411 327.206 186.904C330.065 185.397 333.568 186.428 335.034 189.208Z" fill="#F03738"/>
<path fill-rule="evenodd" clip-rule="evenodd" d="M335.034 189.208C336.499 191.988 335.369 195.461 332.51 196.968C329.65 198.475 326.147 197.444 324.682 194.664C323.217 191.884 324.346 188.411 327.206 186.904C330.065 185.397 333.568 186.428 335.034 189.208Z" fill="white" fill-opacity="0.5"/>
<path fill-rule="evenodd" clip-rule="evenodd" d="M360.913 175.569C362.379 178.349 361.249 181.821 358.389 183.329C355.529 184.836 352.026 183.805 350.561 181.025C349.096 178.244 350.226 174.772 353.085 173.265C355.945 171.758 359.448 172.789 360.913 175.569Z" fill="#F03738"/>
<path fill-rule="evenodd" clip-rule="evenodd" d="M360.913 175.569C362.379 178.349 361.249 181.821 358.389 183.329C355.529 184.836 352.026 183.805 350.561 181.025C349.096 178.244 350.226 174.772 353.085 173.265C355.945 171.758 359.448 172.789 360.913 175.569Z" fill="white" fill-opacity="0.5"/>
<path fill-rule="evenodd" clip-rule="evenodd" d="M388.519 161.02C389.984 163.8 388.854 167.273 385.995 168.78C383.135 170.287 379.632 169.256 378.167 166.476C376.702 163.696 377.831 160.223 380.691 158.716C383.551 157.209 387.054 158.24 388.519 161.02Z" fill="#F03738"/>
<path fill-rule="evenodd" clip-rule="evenodd" d="M388.519 161.02C389.984 163.8 388.854 167.273 385.995 168.78C383.135 170.287 379.632 169.256 378.167 166.476C376.702 163.696 377.831 160.223 380.691 158.716C383.551 157.209 387.054 158.24 388.519 161.02Z" fill="white" fill-opacity="0.5"/>
<path fill-rule="evenodd" clip-rule="evenodd" d="M108.472 340.757C109.937 343.537 108.808 347.01 105.948 348.517C103.088 350.024 99.5851 348.993 98.1199 346.213C96.6547 343.433 97.7843 339.96 100.644 338.453C103.504 336.946 107.007 337.977 108.472 340.757Z" fill="#F03738"/>
<path fill-rule="evenodd" clip-rule="evenodd" d="M108.472 340.757C109.937 343.537 108.808 347.01 105.948 348.517C103.088 350.024 99.5851 348.993 98.1199 346.213C96.6547 343.433 97.7843 339.96 100.644 338.453C103.504 336.946 107.007 337.977 108.472 340.757Z" fill="white" fill-opacity="0.5"/>
<path fill-rule="evenodd" clip-rule="evenodd" d="M136.077 326.209C137.543 328.989 136.413 332.461 133.553 333.968C130.694 335.475 127.191 334.444 125.725 331.664C124.26 328.884 125.39 325.412 128.249 323.904C131.109 322.397 134.612 323.428 136.077 326.209Z" fill="#F03738"/>
<path fill-rule="evenodd" clip-rule="evenodd" d="M136.077 326.209C137.543 328.989 136.413 332.461 133.553 333.968C130.694 335.475 127.191 334.444 125.725 331.664C124.26 328.884 125.39 325.412 128.249 323.904C131.109 322.397 134.612 323.428 136.077 326.209Z" fill="white" fill-opacity="0.5"/>
<path fill-rule="evenodd" clip-rule="evenodd" d="M161.957 312.569C163.422 315.349 162.292 318.822 159.433 320.329C156.573 321.836 153.07 320.805 151.605 318.025C150.14 315.245 151.269 311.772 154.129 310.265C156.989 308.758 160.492 309.789 161.957 312.569Z" fill="#F03738"/>
<path fill-rule="evenodd" clip-rule="evenodd" d="M161.957 312.569C163.422 315.349 162.292 318.822 159.433 320.329C156.573 321.836 153.07 320.805 151.605 318.025C150.14 315.245 151.269 311.772 154.129 310.265C156.989 308.758 160.492 309.789 161.957 312.569Z" fill="white" fill-opacity="0.5"/>
<path fill-rule="evenodd" clip-rule="evenodd" d="M187.837 298.93C189.302 301.71 188.173 305.182 185.313 306.689C182.453 308.197 178.95 307.165 177.485 304.385C176.02 301.605 177.15 298.133 180.009 296.626C182.869 295.119 186.372 296.15 187.837 298.93Z" fill="#F03738"/>
<path fill-rule="evenodd" clip-rule="evenodd" d="M187.837 298.93C189.302 301.71 188.173 305.182 185.313 306.689C182.453 308.197 178.95 307.165 177.485 304.385C176.02 301.605 177.15 298.133 180.009 296.626C182.869 295.119 186.372 296.15 187.837 298.93Z" fill="white" fill-opacity="0.5"/>
<path fill-rule="evenodd" clip-rule="evenodd" d="M215.442 284.381C216.907 287.161 215.778 290.634 212.918 292.141C210.058 293.648 206.556 292.617 205.09 289.837C203.625 287.057 204.755 283.584 207.614 282.077C210.474 280.57 213.977 281.601 215.442 284.381Z" fill="#F03738"/>
<path fill-rule="evenodd" clip-rule="evenodd" d="M215.442 284.381C216.907 287.161 215.778 290.634 212.918 292.141C210.058 293.648 206.556 292.617 205.09 289.837C203.625 287.057 204.755 283.584 207.614 282.077C210.474 280.57 213.977 281.601 215.442 284.381Z" fill="white" fill-opacity="0.5"/>
<path fill-rule="evenodd" clip-rule="evenodd" d="M241.322 270.742C242.787 273.522 241.658 276.995 238.798 278.502C235.938 280.009 232.435 278.978 230.97 276.198C229.505 273.418 230.635 269.945 233.494 268.438C236.354 266.931 239.857 267.962 241.322 270.742Z" fill="#F03738"/>
<path fill-rule="evenodd" clip-rule="evenodd" d="M241.322 270.742C242.787 273.522 241.658 276.995 238.798 278.502C235.938 280.009 232.435 278.978 230.97 276.198C229.505 273.418 230.635 269.945 233.494 268.438C236.354 266.931 239.857 267.962 241.322 270.742Z" fill="white" fill-opacity="0.5"/>
<path fill-rule="evenodd" clip-rule="evenodd" d="M268.927 256.194C270.393 258.974 269.263 262.446 266.403 263.954C263.543 265.461 260.04 264.43 258.575 261.65C257.11 258.869 258.24 255.397 261.099 253.89C263.959 252.383 267.462 253.414 268.927 256.194Z" fill="#F03738"/>
<path fill-rule="evenodd" clip-rule="evenodd" d="M268.927 256.194C270.393 258.974 269.263 262.446 266.403 263.954C263.543 265.461 260.04 264.43 258.575 261.65C257.11 258.869 258.24 255.397 261.099 253.89C263.959 252.383 267.462 253.414 268.927 256.194Z" fill="white" fill-opacity="0.5"/>
<path fill-rule="evenodd" clip-rule="evenodd" d="M294.807 242.555C296.272 245.335 295.143 248.807 292.283 250.314C289.423 251.822 285.921 250.79 284.455 248.01C282.99 245.23 284.12 241.758 286.979 240.251C289.839 238.744 293.342 239.775 294.807 242.555Z" fill="#F03738"/>
<path fill-rule="evenodd" clip-rule="evenodd" d="M294.807 242.555C296.272 245.335 295.143 248.807 292.283 250.314C289.423 251.822 285.921 250.79 284.455 248.01C282.99 245.23 284.12 241.758 286.979 240.251C289.839 238.744 293.342 239.775 294.807 242.555Z" fill="white" fill-opacity="0.5"/>
<path fill-rule="evenodd" clip-rule="evenodd" d="M322.413 228.006C323.878 230.786 322.748 234.258 319.889 235.766C317.029 237.273 313.526 236.242 312.061 233.462C310.596 230.681 311.725 227.209 314.585 225.702C317.445 224.195 320.948 225.226 322.413 228.006Z" fill="#F03738"/>
<path fill-rule="evenodd" clip-rule="evenodd" d="M322.413 228.006C323.878 230.786 322.748 234.258 319.889 235.766C317.029 237.273 313.526 236.242 312.061 233.462C310.596 230.681 311.725 227.209 314.585 225.702C317.445 224.195 320.948 225.226 322.413 228.006Z" fill="white" fill-opacity="0.5"/>
<path fill-rule="evenodd" clip-rule="evenodd" d="M348.293 214.367C349.758 217.147 348.629 220.619 345.769 222.126C342.909 223.634 339.406 222.602 337.941 219.822C336.476 217.042 337.605 213.57 340.465 212.063C343.325 210.556 346.828 211.587 348.293 214.367Z" fill="#F03738"/>
<path fill-rule="evenodd" clip-rule="evenodd" d="M348.293 214.367C349.758 217.147 348.629 220.619 345.769 222.126C342.909 223.634 339.406 222.602 337.941 219.822C336.476 217.042 337.605 213.57 340.465 212.063C343.325 210.556 346.828 211.587 348.293 214.367Z" fill="white" fill-opacity="0.5"/>
<path fill-rule="evenodd" clip-rule="evenodd" d="M374.173 200.727C375.638 203.508 374.508 206.98 371.649 208.487C368.789 209.994 365.286 208.963 363.821 206.183C362.355 203.403 363.485 199.931 366.345 198.423C369.205 196.916 372.708 197.947 374.173 200.727Z" fill="#F03738"/>
<path fill-rule="evenodd" clip-rule="evenodd" d="M374.173 200.727C375.638 203.508 374.508 206.98 371.649 208.487C368.789 209.994 365.286 208.963 363.821 206.183C362.355 203.403 363.485 199.931 366.345 198.423C369.205 196.916 372.708 197.947 374.173 200.727Z" fill="white" fill-opacity="0.5"/>
<path fill-rule="evenodd" clip-rule="evenodd" d="M401.778 186.179C403.243 188.959 402.114 192.432 399.254 193.939C396.394 195.446 392.891 194.415 391.426 191.635C389.961 188.855 391.09 185.382 393.95 183.875C396.81 182.368 400.313 183.399 401.778 186.179Z" fill="#F03738"/>
<path fill-rule="evenodd" clip-rule="evenodd" d="M401.778 186.179C403.243 188.959 402.114 192.432 399.254 193.939C396.394 195.446 392.891 194.415 391.426 191.635C389.961 188.855 391.09 185.382 393.95 183.875C396.81 182.368 400.313 183.399 401.778 186.179Z" fill="white" fill-opacity="0.5"/>
<path fill-rule="evenodd" clip-rule="evenodd" d="M121.731 365.916C123.196 368.696 122.066 372.168 119.207 373.675C116.347 375.182 112.844 374.151 111.379 371.371C109.914 368.591 111.043 365.119 113.903 363.612C116.763 362.104 120.265 363.135 121.731 365.916Z" fill="#F03738"/>
<path fill-rule="evenodd" clip-rule="evenodd" d="M121.731 365.916C123.196 368.696 122.066 372.168 119.207 373.675C116.347 375.182 112.844 374.151 111.379 371.371C109.914 368.591 111.043 365.119 113.903 363.612C116.763 362.104 120.265 363.135 121.731 365.916Z" fill="white" fill-opacity="0.5"/>
<path fill-rule="evenodd" clip-rule="evenodd" d="M149.336 351.367C150.801 354.147 149.672 357.619 146.812 359.126C143.952 360.634 140.449 359.602 138.984 356.822C137.519 354.042 138.649 350.57 141.508 349.063C144.368 347.556 147.871 348.587 149.336 351.367Z" fill="#F03738"/>
<path fill-rule="evenodd" clip-rule="evenodd" d="M149.336 351.367C150.801 354.147 149.672 357.619 146.812 359.126C143.952 360.634 140.449 359.602 138.984 356.822C137.519 354.042 138.649 350.57 141.508 349.063C144.368 347.556 147.871 348.587 149.336 351.367Z" fill="white" fill-opacity="0.5"/>
<path fill-rule="evenodd" clip-rule="evenodd" d="M175.216 337.727C176.681 340.508 175.551 343.98 172.692 345.487C169.832 346.994 166.329 345.963 164.864 343.183C163.399 340.403 164.528 336.931 167.388 335.423C170.248 333.916 173.751 334.947 175.216 337.727Z" fill="#F03738"/>
<path fill-rule="evenodd" clip-rule="evenodd" d="M175.216 337.727C176.681 340.508 175.551 343.98 172.692 345.487C169.832 346.994 166.329 345.963 164.864 343.183C163.399 340.403 164.528 336.931 167.388 335.423C170.248 333.916 173.751 334.947 175.216 337.727Z" fill="white" fill-opacity="0.5"/>
<path fill-rule="evenodd" clip-rule="evenodd" d="M201.096 324.088C202.561 326.868 201.432 330.341 198.572 331.848C195.712 333.355 192.209 332.324 190.744 329.544C189.279 326.764 190.408 323.291 193.268 321.784C196.128 320.277 199.631 321.308 201.096 324.088Z" fill="#F03738"/>
<path fill-rule="evenodd" clip-rule="evenodd" d="M201.096 324.088C202.561 326.868 201.432 330.341 198.572 331.848C195.712 333.355 192.209 332.324 190.744 329.544C189.279 326.764 190.408 323.291 193.268 321.784C196.128 320.277 199.631 321.308 201.096 324.088Z" fill="white" fill-opacity="0.5"/>
<path fill-rule="evenodd" clip-rule="evenodd" d="M228.701 309.54C230.167 312.32 229.037 315.792 226.177 317.299C223.318 318.806 219.815 317.775 218.349 314.995C216.884 312.215 218.014 308.743 220.873 307.236C223.733 305.728 227.236 306.759 228.701 309.54Z" fill="#F03738"/>
<path fill-rule="evenodd" clip-rule="evenodd" d="M228.701 309.54C230.167 312.32 229.037 315.792 226.177 317.299C223.318 318.806 219.815 317.775 218.349 314.995C216.884 312.215 218.014 308.743 220.873 307.236C223.733 305.728 227.236 306.759 228.701 309.54Z" fill="white" fill-opacity="0.5"/>
<path fill-rule="evenodd" clip-rule="evenodd" d="M254.581 295.901C256.046 298.681 254.917 302.153 252.057 303.661C249.197 305.168 245.694 304.137 244.229 301.357C242.764 298.576 243.893 295.104 246.753 293.597C249.613 292.09 253.116 293.121 254.581 295.901Z" fill="#F03738"/>
<path fill-rule="evenodd" clip-rule="evenodd" d="M254.581 295.901C256.046 298.681 254.917 302.153 252.057 303.661C249.197 305.168 245.694 304.137 244.229 301.357C242.764 298.576 243.893 295.104 246.753 293.597C249.613 292.09 253.116 293.121 254.581 295.901Z" fill="white" fill-opacity="0.5"/>
<path fill-rule="evenodd" clip-rule="evenodd" d="M282.186 281.352C283.652 284.133 282.522 287.605 279.662 289.112C276.802 290.619 273.299 289.588 271.834 286.808C270.369 284.028 271.499 280.556 274.358 279.048C277.218 277.541 280.721 278.572 282.186 281.352Z" fill="#F03738"/>
<path fill-rule="evenodd" clip-rule="evenodd" d="M282.186 281.352C283.652 284.133 282.522 287.605 279.662 289.112C276.802 290.619 273.299 289.588 271.834 286.808C270.369 284.028 271.499 280.556 274.358 279.048C277.218 277.541 280.721 278.572 282.186 281.352Z" fill="white" fill-opacity="0.5"/>
<path fill-rule="evenodd" clip-rule="evenodd" d="M308.066 267.713C309.532 270.493 308.402 273.965 305.542 275.473C302.683 276.98 299.18 275.949 297.714 273.169C296.249 270.388 297.379 266.916 300.238 265.409C303.098 263.902 306.601 264.933 308.066 267.713Z" fill="#F03738"/>
<path fill-rule="evenodd" clip-rule="evenodd" d="M308.066 267.713C309.532 270.493 308.402 273.965 305.542 275.473C302.683 276.98 299.18 275.949 297.714 273.169C296.249 270.388 297.379 266.916 300.238 265.409C303.098 263.902 306.601 264.933 308.066 267.713Z" fill="white" fill-opacity="0.5"/>
<path fill-rule="evenodd" clip-rule="evenodd" d="M335.672 253.165C337.137 255.945 336.007 259.417 333.148 260.924C330.288 262.431 326.785 261.4 325.32 258.62C323.855 255.84 324.984 252.368 327.844 250.861C330.704 249.353 334.207 250.384 335.672 253.165Z" fill="#F03738"/>
<path fill-rule="evenodd" clip-rule="evenodd" d="M335.672 253.165C337.137 255.945 336.007 259.417 333.148 260.924C330.288 262.431 326.785 261.4 325.32 258.62C323.855 255.84 324.984 252.368 327.844 250.861C330.704 249.353 334.207 250.384 335.672 253.165Z" fill="white" fill-opacity="0.5"/>
<path fill-rule="evenodd" clip-rule="evenodd" d="M361.552 239.525C363.017 242.305 361.888 245.778 359.028 247.285C356.168 248.792 352.665 247.761 351.2 244.981C349.735 242.2 350.864 238.728 353.724 237.221C356.584 235.714 360.087 236.745 361.552 239.525Z" fill="#F03738"/>
<path fill-rule="evenodd" clip-rule="evenodd" d="M361.552 239.525C363.017 242.305 361.888 245.778 359.028 247.285C356.168 248.792 352.665 247.761 351.2 244.981C349.735 242.2 350.864 238.728 353.724 237.221C356.584 235.714 360.087 236.745 361.552 239.525Z" fill="white" fill-opacity="0.5"/>
<path fill-rule="evenodd" clip-rule="evenodd" d="M387.432 225.886C388.897 228.666 387.767 232.139 384.908 233.646C382.048 235.153 378.545 234.122 377.08 231.342C375.614 228.562 376.744 225.089 379.604 223.582C382.464 222.075 385.967 223.106 387.432 225.886Z" fill="#F03738"/>
<path fill-rule="evenodd" clip-rule="evenodd" d="M387.432 225.886C388.897 228.666 387.767 232.139 384.908 233.646C382.048 235.153 378.545 234.122 377.08 231.342C375.614 228.562 376.744 225.089 379.604 223.582C382.464 222.075 385.967 223.106 387.432 225.886Z" fill="white" fill-opacity="0.5"/>
<path fill-rule="evenodd" clip-rule="evenodd" d="M415.037 211.337C416.502 214.118 415.373 217.59 412.513 219.097C409.653 220.604 406.15 219.573 404.685 216.793C403.22 214.013 404.349 210.541 407.209 209.033C410.069 207.526 413.572 208.557 415.037 211.337Z" fill="#F03738"/>
<path fill-rule="evenodd" clip-rule="evenodd" d="M415.037 211.337C416.502 214.118 415.373 217.59 412.513 219.097C409.653 220.604 406.15 219.573 404.685 216.793C403.22 214.013 404.349 210.541 407.209 209.033C410.069 207.526 413.572 208.557 415.037 211.337Z" fill="white" fill-opacity="0.5"/>
<path fill-rule="evenodd" clip-rule="evenodd" d="M135.874 392.752C137.34 395.533 136.21 399.005 133.35 400.512C130.491 402.019 126.988 400.988 125.522 398.208C124.057 395.428 125.187 391.956 128.047 390.448C130.906 388.941 134.409 389.972 135.874 392.752Z" fill="#F03738"/>
<path fill-rule="evenodd" clip-rule="evenodd" d="M135.874 392.752C137.34 395.533 136.21 399.005 133.35 400.512C130.491 402.019 126.988 400.988 125.522 398.208C124.057 395.428 125.187 391.956 128.047 390.448C130.906 388.941 134.409 389.972 135.874 392.752Z" fill="white" fill-opacity="0.5"/>
<path fill-rule="evenodd" clip-rule="evenodd" d="M163.48 378.204C164.945 380.984 163.816 384.457 160.956 385.964C158.096 387.471 154.593 386.44 153.128 383.66C151.663 380.88 152.792 377.407 155.652 375.9C158.512 374.393 162.015 375.424 163.48 378.204Z" fill="#F03738"/>
<path fill-rule="evenodd" clip-rule="evenodd" d="M163.48 378.204C164.945 380.984 163.816 384.457 160.956 385.964C158.096 387.471 154.593 386.44 153.128 383.66C151.663 380.88 152.792 377.407 155.652 375.9C158.512 374.393 162.015 375.424 163.48 378.204Z" fill="white" fill-opacity="0.5"/>
<path fill-rule="evenodd" clip-rule="evenodd" d="M189.36 364.565C190.825 367.345 189.695 370.817 186.836 372.325C183.976 373.832 180.473 372.801 179.008 370.021C177.542 367.241 178.672 363.768 181.532 362.261C184.392 360.754 187.895 361.785 189.36 364.565Z" fill="#F03738"/>
<path fill-rule="evenodd" clip-rule="evenodd" d="M189.36 364.565C190.825 367.345 189.695 370.817 186.836 372.325C183.976 373.832 180.473 372.801 179.008 370.021C177.542 367.241 178.672 363.768 181.532 362.261C184.392 360.754 187.895 361.785 189.36 364.565Z" fill="white" fill-opacity="0.5"/>
<path fill-rule="evenodd" clip-rule="evenodd" d="M215.24 350.926C216.705 353.706 215.576 357.178 212.716 358.685C209.856 360.193 206.353 359.162 204.888 356.381C203.423 353.601 204.552 350.129 207.412 348.622C210.272 347.115 213.775 348.146 215.24 350.926Z" fill="#F03738"/>
<path fill-rule="evenodd" clip-rule="evenodd" d="M215.24 350.926C216.705 353.706 215.576 357.178 212.716 358.685C209.856 360.193 206.353 359.162 204.888 356.381C203.423 353.601 204.552 350.129 207.412 348.622C210.272 347.115 213.775 348.146 215.24 350.926Z" fill="white" fill-opacity="0.5"/>
<path fill-rule="evenodd" clip-rule="evenodd" d="M242.845 336.377C244.31 339.158 243.181 342.63 240.321 344.137C237.461 345.644 233.958 344.613 232.493 341.833C231.028 339.053 232.158 335.581 235.017 334.073C237.877 332.566 241.38 333.597 242.845 336.377Z" fill="#F03738"/>
<path fill-rule="evenodd" clip-rule="evenodd" d="M242.845 336.377C244.31 339.158 243.181 342.63 240.321 344.137C237.461 345.644 233.958 344.613 232.493 341.833C231.028 339.053 232.158 335.581 235.017 334.073C237.877 332.566 241.38 333.597 242.845 336.377Z" fill="white" fill-opacity="0.5"/>
<path fill-rule="evenodd" clip-rule="evenodd" d="M268.725 322.738C270.19 325.518 269.061 328.991 266.201 330.498C263.341 332.005 259.838 330.974 258.373 328.194C256.908 325.414 258.037 321.941 260.897 320.434C263.757 318.927 267.26 319.958 268.725 322.738Z" fill="#F03738"/>
<path fill-rule="evenodd" clip-rule="evenodd" d="M268.725 322.738C270.19 325.518 269.061 328.991 266.201 330.498C263.341 332.005 259.838 330.974 258.373 328.194C256.908 325.414 258.037 321.941 260.897 320.434C263.757 318.927 267.26 319.958 268.725 322.738Z" fill="white" fill-opacity="0.5"/>
<path fill-rule="evenodd" clip-rule="evenodd" d="M296.33 308.19C297.795 310.97 296.666 314.442 293.806 315.95C290.946 317.457 287.443 316.426 285.978 313.646C284.513 310.866 285.642 307.393 288.502 305.886C291.362 304.379 294.865 305.41 296.33 308.19Z" fill="#F03738"/>
<path fill-rule="evenodd" clip-rule="evenodd" d="M296.33 308.19C297.795 310.97 296.666 314.442 293.806 315.95C290.946 317.457 287.443 316.426 285.978 313.646C284.513 310.866 285.642 307.393 288.502 305.886C291.362 304.379 294.865 305.41 296.33 308.19Z" fill="white" fill-opacity="0.5"/>
<path fill-rule="evenodd" clip-rule="evenodd" d="M322.21 294.55C323.675 297.33 322.546 300.803 319.686 302.31C316.826 303.817 313.323 302.786 311.858 300.006C310.393 297.226 311.523 293.753 314.382 292.246C317.242 290.739 320.745 291.77 322.21 294.55Z" fill="#F03738"/>
<path fill-rule="evenodd" clip-rule="evenodd" d="M322.21 294.55C323.675 297.33 322.546 300.803 319.686 302.31C316.826 303.817 313.323 302.786 311.858 300.006C310.393 297.226 311.523 293.753 314.382 292.246C317.242 290.739 320.745 291.77 322.21 294.55Z" fill="white" fill-opacity="0.5"/>
<path fill-rule="evenodd" clip-rule="evenodd" d="M349.816 280.002C351.281 282.782 350.151 286.255 347.292 287.762C344.432 289.269 340.929 288.238 339.464 285.458C337.998 282.678 339.128 279.205 341.988 277.698C344.847 276.191 348.35 277.222 349.816 280.002Z" fill="#F03738"/>
<path fill-rule="evenodd" clip-rule="evenodd" d="M349.816 280.002C351.281 282.782 350.151 286.255 347.292 287.762C344.432 289.269 340.929 288.238 339.464 285.458C337.998 282.678 339.128 279.205 341.988 277.698C344.847 276.191 348.35 277.222 349.816 280.002Z" fill="white" fill-opacity="0.5"/>
<path fill-rule="evenodd" clip-rule="evenodd" d="M375.696 266.363C377.161 269.143 376.031 272.615 373.172 274.123C370.312 275.63 366.809 274.599 365.344 271.818C363.879 269.038 365.008 265.566 367.868 264.059C370.728 262.552 374.231 263.583 375.696 266.363Z" fill="#F03738"/>
<path fill-rule="evenodd" clip-rule="evenodd" d="M375.696 266.363C377.161 269.143 376.031 272.615 373.172 274.123C370.312 275.63 366.809 274.599 365.344 271.818C363.879 269.038 365.008 265.566 367.868 264.059C370.728 262.552 374.231 263.583 375.696 266.363Z" fill="white" fill-opacity="0.5"/>
<path fill-rule="evenodd" clip-rule="evenodd" d="M401.576 252.724C403.041 255.504 401.911 258.976 399.051 260.483C396.192 261.99 392.689 260.959 391.223 258.179C389.758 255.399 390.888 251.927 393.748 250.42C396.607 248.912 400.11 249.943 401.576 252.724Z" fill="#F03738"/>
<path fill-rule="evenodd" clip-rule="evenodd" d="M401.576 252.724C403.041 255.504 401.911 258.976 399.051 260.483C396.192 261.99 392.689 260.959 391.223 258.179C389.758 255.399 390.888 251.927 393.748 250.42C396.607 248.912 400.11 249.943 401.576 252.724Z" fill="white" fill-opacity="0.5"/>
<path fill-rule="evenodd" clip-rule="evenodd" d="M429.181 238.175C430.646 240.955 429.516 244.427 426.657 245.935C423.797 247.442 420.294 246.411 418.829 243.63C417.364 240.85 418.493 237.378 421.353 235.871C424.213 234.364 427.716 235.395 429.181 238.175Z" fill="#F03738"/>
<path fill-rule="evenodd" clip-rule="evenodd" d="M429.181 238.175C430.646 240.955 429.516 244.427 426.657 245.935C423.797 247.442 420.294 246.411 418.829 243.63C417.364 240.85 418.493 237.378 421.353 235.871C424.213 234.364 427.716 235.395 429.181 238.175Z" fill="white" fill-opacity="0.5"/>
<path fill-rule="evenodd" clip-rule="evenodd" d="M149.134 417.912C150.599 420.692 149.469 424.164 146.61 425.671C143.75 427.178 140.247 426.147 138.782 423.367C137.317 420.587 138.446 417.115 141.306 415.608C144.166 414.1 147.669 415.132 149.134 417.912Z" fill="#F03738"/>
<path fill-rule="evenodd" clip-rule="evenodd" d="M149.134 417.912C150.599 420.692 149.469 424.164 146.61 425.671C143.75 427.178 140.247 426.147 138.782 423.367C137.317 420.587 138.446 417.115 141.306 415.608C144.166 414.1 147.669 415.132 149.134 417.912Z" fill="white" fill-opacity="0.5"/>
<path fill-rule="evenodd" clip-rule="evenodd" d="M176.739 403.363C178.204 406.143 177.075 409.616 174.215 411.123C171.355 412.63 167.852 411.599 166.387 408.819C164.922 406.039 166.052 402.566 168.911 401.059C171.771 399.552 175.274 400.583 176.739 403.363Z" fill="#F03738"/>
<path fill-rule="evenodd" clip-rule="evenodd" d="M176.739 403.363C178.204 406.143 177.075 409.616 174.215 411.123C171.355 412.63 167.852 411.599 166.387 408.819C164.922 406.039 166.052 402.566 168.911 401.059C171.771 399.552 175.274 400.583 176.739 403.363Z" fill="white" fill-opacity="0.5"/>
<path fill-rule="evenodd" clip-rule="evenodd" d="M202.619 389.724C204.084 392.504 202.955 395.977 200.095 397.484C197.235 398.991 193.732 397.96 192.267 395.18C190.802 392.4 191.931 388.927 194.791 387.42C197.651 385.913 201.154 386.944 202.619 389.724Z" fill="#F03738"/>
<path fill-rule="evenodd" clip-rule="evenodd" d="M202.619 389.724C204.084 392.504 202.955 395.977 200.095 397.484C197.235 398.991 193.732 397.96 192.267 395.18C190.802 392.4 191.931 388.927 194.791 387.42C197.651 385.913 201.154 386.944 202.619 389.724Z" fill="white" fill-opacity="0.5"/>
<path fill-rule="evenodd" clip-rule="evenodd" d="M228.499 376.084C229.964 378.865 228.835 382.337 225.975 383.844C223.115 385.351 219.612 384.32 218.147 381.54C216.682 378.76 217.811 375.288 220.671 373.78C223.531 372.273 227.034 373.304 228.499 376.084Z" fill="#F03738"/>
<path fill-rule="evenodd" clip-rule="evenodd" d="M228.499 376.084C229.964 378.865 228.835 382.337 225.975 383.844C223.115 385.351 219.612 384.32 218.147 381.54C216.682 378.76 217.811 375.288 220.671 373.78C223.531 372.273 227.034 373.304 228.499 376.084Z" fill="white" fill-opacity="0.5"/>
<path fill-rule="evenodd" clip-rule="evenodd" d="M256.104 361.536C257.57 364.316 256.44 367.789 253.58 369.296C250.721 370.803 247.218 369.772 245.752 366.992C244.287 364.212 245.417 360.739 248.277 359.232C251.136 357.725 254.639 358.756 256.104 361.536Z" fill="#F03738"/>
<path fill-rule="evenodd" clip-rule="evenodd" d="M256.104 361.536C257.57 364.316 256.44 367.789 253.58 369.296C250.721 370.803 247.218 369.772 245.752 366.992C244.287 364.212 245.417 360.739 248.277 359.232C251.136 357.725 254.639 358.756 256.104 361.536Z" fill="white" fill-opacity="0.5"/>
<path fill-rule="evenodd" clip-rule="evenodd" d="M281.984 347.897C283.449 350.677 282.32 354.15 279.46 355.657C276.6 357.164 273.097 356.133 271.632 353.353C270.167 350.573 271.296 347.1 274.156 345.593C277.016 344.086 280.519 345.117 281.984 347.897Z" fill="#F03738"/>
<path fill-rule="evenodd" clip-rule="evenodd" d="M281.984 347.897C283.449 350.677 282.32 354.15 279.46 355.657C276.6 357.164 273.097 356.133 271.632 353.353C270.167 350.573 271.296 347.1 274.156 345.593C277.016 344.086 280.519 345.117 281.984 347.897Z" fill="white" fill-opacity="0.5"/>
<path fill-rule="evenodd" clip-rule="evenodd" d="M309.589 333.349C311.054 336.129 309.925 339.601 307.065 341.108C304.205 342.615 300.702 341.584 299.237 338.804C297.772 336.024 298.901 332.552 301.761 331.045C304.621 329.537 308.124 330.568 309.589 333.349Z" fill="#F03738"/>
<path fill-rule="evenodd" clip-rule="evenodd" d="M309.589 333.349C311.054 336.129 309.925 339.601 307.065 341.108C304.205 342.615 300.702 341.584 299.237 338.804C297.772 336.024 298.901 332.552 301.761 331.045C304.621 329.537 308.124 330.568 309.589 333.349Z" fill="white" fill-opacity="0.5"/>
<path fill-rule="evenodd" clip-rule="evenodd" d="M335.469 319.709C336.935 322.49 335.805 325.962 332.945 327.469C330.086 328.976 326.583 327.945 325.117 325.165C323.652 322.385 324.782 318.913 327.642 317.405C330.501 315.898 334.004 316.929 335.469 319.709Z" fill="#F03738"/>
<path fill-rule="evenodd" clip-rule="evenodd" d="M335.469 319.709C336.935 322.49 335.805 325.962 332.945 327.469C330.086 328.976 326.583 327.945 325.117 325.165C323.652 322.385 324.782 318.913 327.642 317.405C330.501 315.898 334.004 316.929 335.469 319.709Z" fill="white" fill-opacity="0.5"/>
<path fill-rule="evenodd" clip-rule="evenodd" d="M363.075 305.161C364.54 307.941 363.411 311.413 360.551 312.92C357.691 314.427 354.188 313.396 352.723 310.616C351.258 307.836 352.387 304.364 355.247 302.857C358.107 301.35 361.61 302.381 363.075 305.161Z" fill="#F03738"/>
<path fill-rule="evenodd" clip-rule="evenodd" d="M363.075 305.161C364.54 307.941 363.411 311.413 360.551 312.92C357.691 314.427 354.188 313.396 352.723 310.616C351.258 307.836 352.387 304.364 355.247 302.857C358.107 301.35 361.61 302.381 363.075 305.161Z" fill="white" fill-opacity="0.5"/>
<path fill-rule="evenodd" clip-rule="evenodd" d="M388.955 291.522C390.42 294.302 389.291 297.774 386.431 299.281C383.571 300.788 380.068 299.757 378.603 296.977C377.138 294.197 378.267 290.725 381.127 289.217C383.987 287.71 387.49 288.741 388.955 291.522Z" fill="#F03738"/>
<path fill-rule="evenodd" clip-rule="evenodd" d="M388.955 291.522C390.42 294.302 389.291 297.774 386.431 299.281C383.571 300.788 380.068 299.757 378.603 296.977C377.138 294.197 378.267 290.725 381.127 289.217C383.987 287.71 387.49 288.741 388.955 291.522Z" fill="white" fill-opacity="0.5"/>
<path fill-rule="evenodd" clip-rule="evenodd" d="M414.835 277.882C416.3 280.662 415.17 284.135 412.311 285.642C409.451 287.149 405.948 286.118 404.483 283.338C403.018 280.558 404.147 277.085 407.007 275.578C409.867 274.071 413.37 275.102 414.835 277.882Z" fill="#F03738"/>
<path fill-rule="evenodd" clip-rule="evenodd" d="M414.835 277.882C416.3 280.662 415.17 284.135 412.311 285.642C409.451 287.149 405.948 286.118 404.483 283.338C403.018 280.558 404.147 277.085 407.007 275.578C409.867 274.071 413.37 275.102 414.835 277.882Z" fill="white" fill-opacity="0.5"/>
<path fill-rule="evenodd" clip-rule="evenodd" d="M442.44 263.334C443.905 266.114 442.776 269.587 439.916 271.094C437.056 272.601 433.553 271.57 432.088 268.79C430.623 266.01 431.753 262.537 434.612 261.03C437.472 259.523 440.975 260.554 442.44 263.334Z" fill="#F03738"/>
<path fill-rule="evenodd" clip-rule="evenodd" d="M442.44 263.334C443.905 266.114 442.776 269.587 439.916 271.094C437.056 272.601 433.553 271.57 432.088 268.79C430.623 266.01 431.753 262.537 434.612 261.03C437.472 259.523 440.975 260.554 442.44 263.334Z" fill="white" fill-opacity="0.5"/>
<path fill-rule="evenodd" clip-rule="evenodd" d="M163.277 444.749C164.742 447.529 163.613 451.002 160.753 452.509C157.893 454.016 154.39 452.985 152.925 450.205C151.46 447.425 152.59 443.952 155.449 442.445C158.309 440.938 161.812 441.969 163.277 444.749Z" fill="#F03738"/>
<path fill-rule="evenodd" clip-rule="evenodd" d="M163.277 444.749C164.742 447.529 163.613 451.002 160.753 452.509C157.893 454.016 154.39 452.985 152.925 450.205C151.46 447.425 152.59 443.952 155.449 442.445C158.309 440.938 161.812 441.969 163.277 444.749Z" fill="white" fill-opacity="0.5"/>
<path fill-rule="evenodd" clip-rule="evenodd" d="M190.883 430.2C192.348 432.98 191.218 436.453 188.359 437.96C185.499 439.467 181.996 438.436 180.531 435.656C179.066 432.876 180.195 429.403 183.055 427.896C185.915 426.389 189.418 427.42 190.883 430.2Z" fill="#F03738"/>
<path fill-rule="evenodd" clip-rule="evenodd" d="M190.883 430.2C192.348 432.98 191.218 436.453 188.359 437.96C185.499 439.467 181.996 438.436 180.531 435.656C179.066 432.876 180.195 429.403 183.055 427.896C185.915 426.389 189.418 427.42 190.883 430.2Z" fill="white" fill-opacity="0.5"/>
<path fill-rule="evenodd" clip-rule="evenodd" d="M216.763 416.561C218.228 419.341 217.098 422.814 214.238 424.321C211.379 425.828 207.876 424.797 206.41 422.017C204.945 419.237 206.075 415.764 208.935 414.257C211.794 412.75 215.297 413.781 216.763 416.561Z" fill="#F03738"/>
<path fill-rule="evenodd" clip-rule="evenodd" d="M216.763 416.561C218.228 419.341 217.098 422.814 214.238 424.321C211.379 425.828 207.876 424.797 206.41 422.017C204.945 419.237 206.075 415.764 208.935 414.257C211.794 412.75 215.297 413.781 216.763 416.561Z" fill="white" fill-opacity="0.5"/>
<path fill-rule="evenodd" clip-rule="evenodd" d="M242.643 402.922C244.108 405.702 242.978 409.174 240.119 410.682C237.259 412.189 233.756 411.158 232.291 408.378C230.826 405.597 231.955 402.125 234.815 400.618C237.675 399.111 241.178 400.142 242.643 402.922Z" fill="#F03738"/>
<path fill-rule="evenodd" clip-rule="evenodd" d="M242.643 402.922C244.108 405.702 242.978 409.174 240.119 410.682C237.259 412.189 233.756 411.158 232.291 408.378C230.826 405.597 231.955 402.125 234.815 400.618C237.675 399.111 241.178 400.142 242.643 402.922Z" fill="white" fill-opacity="0.5"/>
<path fill-rule="evenodd" clip-rule="evenodd" d="M270.248 388.373C271.713 391.153 270.584 394.626 267.724 396.133C264.864 397.64 261.361 396.609 259.896 393.829C258.431 391.049 259.56 387.576 262.42 386.069C265.28 384.562 268.783 385.593 270.248 388.373Z" fill="#F03738"/>
<path fill-rule="evenodd" clip-rule="evenodd" d="M270.248 388.373C271.713 391.153 270.584 394.626 267.724 396.133C264.864 397.64 261.361 396.609 259.896 393.829C258.431 391.049 259.56 387.576 262.42 386.069C265.28 384.562 268.783 385.593 270.248 388.373Z" fill="white" fill-opacity="0.5"/>
<path fill-rule="evenodd" clip-rule="evenodd" d="M296.128 374.734C297.593 377.514 296.464 380.986 293.604 382.494C290.744 384.001 287.241 382.97 285.776 380.19C284.311 377.409 285.44 373.937 288.3 372.43C291.16 370.923 294.663 371.954 296.128 374.734Z" fill="#F03738"/>
<path fill-rule="evenodd" clip-rule="evenodd" d="M296.128 374.734C297.593 377.514 296.464 380.986 293.604 382.494C290.744 384.001 287.241 382.97 285.776 380.19C284.311 377.409 285.44 373.937 288.3 372.43C291.16 370.923 294.663 371.954 296.128 374.734Z" fill="white" fill-opacity="0.5"/>
<path fill-rule="evenodd" clip-rule="evenodd" d="M323.733 360.185C325.198 362.966 324.069 366.438 321.209 367.945C318.349 369.452 314.846 368.421 313.381 365.641C311.916 362.861 313.045 359.389 315.905 357.881C318.765 356.374 322.268 357.405 323.733 360.185Z" fill="#F03738"/>
<path fill-rule="evenodd" clip-rule="evenodd" d="M323.733 360.185C325.198 362.966 324.069 366.438 321.209 367.945C318.349 369.452 314.846 368.421 313.381 365.641C311.916 362.861 313.045 359.389 315.905 357.881C318.765 356.374 322.268 357.405 323.733 360.185Z" fill="white" fill-opacity="0.5"/>
<path fill-rule="evenodd" clip-rule="evenodd" d="M349.613 346.546C351.078 349.327 349.949 352.799 347.089 354.306C344.229 355.813 340.726 354.782 339.261 352.002C337.796 349.222 338.925 345.75 341.785 344.242C344.645 342.735 348.148 343.766 349.613 346.546Z" fill="#F03738"/>
<path fill-rule="evenodd" clip-rule="evenodd" d="M349.613 346.546C351.078 349.327 349.949 352.799 347.089 354.306C344.229 355.813 340.726 354.782 339.261 352.002C337.796 349.222 338.925 345.75 341.785 344.242C344.645 342.735 348.148 343.766 349.613 346.546Z" fill="white" fill-opacity="0.5"/>
<path fill-rule="evenodd" clip-rule="evenodd" d="M377.218 331.998C378.684 334.778 377.554 338.251 374.694 339.758C371.835 341.265 368.332 340.234 366.866 337.454C365.401 334.674 366.531 331.201 369.391 329.694C372.25 328.187 375.753 329.218 377.218 331.998Z" fill="#F03738"/>
<path fill-rule="evenodd" clip-rule="evenodd" d="M377.218 331.998C378.684 334.778 377.554 338.251 374.694 339.758C371.835 341.265 368.332 340.234 366.866 337.454C365.401 334.674 366.531 331.201 369.391 329.694C372.25 328.187 375.753 329.218 377.218 331.998Z" fill="white" fill-opacity="0.5"/>
<path fill-rule="evenodd" clip-rule="evenodd" d="M403.099 318.358C404.564 321.139 403.434 324.611 400.574 326.118C397.715 327.625 394.212 326.594 392.747 323.814C391.281 321.034 392.411 317.562 395.271 316.054C398.13 314.547 401.633 315.578 403.099 318.358Z" fill="#F03738"/>
<path fill-rule="evenodd" clip-rule="evenodd" d="M403.099 318.358C404.564 321.139 403.434 324.611 400.574 326.118C397.715 327.625 394.212 326.594 392.747 323.814C391.281 321.034 392.411 317.562 395.271 316.054C398.13 314.547 401.633 315.578 403.099 318.358Z" fill="white" fill-opacity="0.5"/>
<path fill-rule="evenodd" clip-rule="evenodd" d="M428.978 304.719C430.444 307.499 429.314 310.972 426.454 312.479C423.594 313.986 420.091 312.955 418.626 310.175C417.161 307.395 418.291 303.922 421.15 302.415C424.01 300.908 427.513 301.939 428.978 304.719Z" fill="#F03738"/>
<path fill-rule="evenodd" clip-rule="evenodd" d="M428.978 304.719C430.444 307.499 429.314 310.972 426.454 312.479C423.594 313.986 420.091 312.955 418.626 310.175C417.161 307.395 418.291 303.922 421.15 302.415C424.01 300.908 427.513 301.939 428.978 304.719Z" fill="white" fill-opacity="0.5"/>
<path fill-rule="evenodd" clip-rule="evenodd" d="M456.584 290.171C458.049 292.951 456.919 296.424 454.06 297.931C451.2 299.438 447.697 298.407 446.232 295.627C444.767 292.846 445.896 289.374 448.756 287.867C451.616 286.36 455.118 287.391 456.584 290.171Z" fill="#F03738"/>
<path fill-rule="evenodd" clip-rule="evenodd" d="M456.584 290.171C458.049 292.951 456.919 296.424 454.06 297.931C451.2 299.438 447.697 298.407 446.232 295.627C444.767 292.846 445.896 289.374 448.756 287.867C451.616 286.36 455.118 287.391 456.584 290.171Z" fill="white" fill-opacity="0.5"/>
<path fill-rule="evenodd" clip-rule="evenodd" d="M176.537 469.908C178.002 472.688 176.872 476.161 174.013 477.668C171.153 479.175 167.65 478.144 166.185 475.364C164.72 472.584 165.849 469.111 168.709 467.604C171.569 466.097 175.072 467.128 176.537 469.908Z" fill="#F03738"/>
<path fill-rule="evenodd" clip-rule="evenodd" d="M176.537 469.908C178.002 472.688 176.872 476.161 174.013 477.668C171.153 479.175 167.65 478.144 166.185 475.364C164.72 472.584 165.849 469.111 168.709 467.604C171.569 466.097 175.072 467.128 176.537 469.908Z" fill="white" fill-opacity="0.5"/>
<path fill-rule="evenodd" clip-rule="evenodd" d="M204.142 455.359C205.607 458.139 204.478 461.612 201.618 463.119C198.758 464.626 195.255 463.595 193.79 460.815C192.325 458.035 193.455 454.562 196.314 453.055C199.174 451.548 202.677 452.579 204.142 455.359Z" fill="#F03738"/>
<path fill-rule="evenodd" clip-rule="evenodd" d="M204.142 455.359C205.607 458.139 204.478 461.612 201.618 463.119C198.758 464.626 195.255 463.595 193.79 460.815C192.325 458.035 193.455 454.562 196.314 453.055C199.174 451.548 202.677 452.579 204.142 455.359Z" fill="white" fill-opacity="0.5"/>
<path fill-rule="evenodd" clip-rule="evenodd" d="M230.022 441.72C231.487 444.5 230.358 447.973 227.498 449.48C224.638 450.987 221.135 449.956 219.67 447.176C218.205 444.396 219.334 440.923 222.194 439.416C225.054 437.909 228.557 438.94 230.022 441.72Z" fill="#F03738"/>
<path fill-rule="evenodd" clip-rule="evenodd" d="M230.022 441.72C231.487 444.5 230.358 447.973 227.498 449.48C224.638 450.987 221.135 449.956 219.67 447.176C218.205 444.396 219.334 440.923 222.194 439.416C225.054 437.909 228.557 438.94 230.022 441.72Z" fill="white" fill-opacity="0.5"/>
<path fill-rule="evenodd" clip-rule="evenodd" d="M255.902 428.081C257.367 430.861 256.238 434.334 253.378 435.841C250.518 437.348 247.015 436.317 245.55 433.537C244.085 430.757 245.214 427.284 248.074 425.777C250.934 424.27 254.437 425.301 255.902 428.081Z" fill="#F03738"/>
<path fill-rule="evenodd" clip-rule="evenodd" d="M255.902 428.081C257.367 430.861 256.238 434.334 253.378 435.841C250.518 437.348 247.015 436.317 245.55 433.537C244.085 430.757 245.214 427.284 248.074 425.777C250.934 424.27 254.437 425.301 255.902 428.081Z" fill="white" fill-opacity="0.5"/>
<path fill-rule="evenodd" clip-rule="evenodd" d="M283.508 413.532C284.973 416.312 283.843 419.785 280.983 421.292C278.124 422.799 274.621 421.768 273.156 418.988C271.69 416.208 272.82 412.735 275.68 411.228C278.539 409.721 282.042 410.752 283.508 413.532Z" fill="#F03738"/>
<path fill-rule="evenodd" clip-rule="evenodd" d="M283.508 413.532C284.973 416.312 283.843 419.785 280.983 421.292C278.124 422.799 274.621 421.768 273.156 418.988C271.69 416.208 272.82 412.735 275.68 411.228C278.539 409.721 282.042 410.752 283.508 413.532Z" fill="white" fill-opacity="0.5"/>
<path fill-rule="evenodd" clip-rule="evenodd" d="M309.387 399.894C310.852 402.674 309.723 406.146 306.863 407.653C304.003 409.16 300.5 408.129 299.035 405.349C297.57 402.569 298.7 399.097 301.559 397.59C304.419 396.082 307.922 397.113 309.387 399.894Z" fill="#F03738"/>
<path fill-rule="evenodd" clip-rule="evenodd" d="M309.387 399.894C310.852 402.674 309.723 406.146 306.863 407.653C304.003 409.16 300.5 408.129 299.035 405.349C297.57 402.569 298.7 399.097 301.559 397.59C304.419 396.082 307.922 397.113 309.387 399.894Z" fill="white" fill-opacity="0.5"/>
<path fill-rule="evenodd" clip-rule="evenodd" d="M336.992 385.345C338.457 388.125 337.328 391.598 334.468 393.105C331.608 394.612 328.105 393.581 326.64 390.801C325.175 388.021 326.305 384.548 329.164 383.041C332.024 381.534 335.527 382.565 336.992 385.345Z" fill="#F03738"/>
<path fill-rule="evenodd" clip-rule="evenodd" d="M336.992 385.345C338.457 388.125 337.328 391.598 334.468 393.105C331.608 394.612 328.105 393.581 326.64 390.801C325.175 388.021 326.305 384.548 329.164 383.041C332.024 381.534 335.527 382.565 336.992 385.345Z" fill="white" fill-opacity="0.5"/>
<path fill-rule="evenodd" clip-rule="evenodd" d="M362.872 371.706C364.338 374.486 363.208 377.958 360.348 379.465C357.489 380.972 353.986 379.941 352.521 377.161C351.055 374.381 352.185 370.909 355.045 369.402C357.904 367.894 361.407 368.925 362.872 371.706Z" fill="#F03738"/>
<path fill-rule="evenodd" clip-rule="evenodd" d="M362.872 371.706C364.338 374.486 363.208 377.958 360.348 379.465C357.489 380.972 353.986 379.941 352.521 377.161C351.055 374.381 352.185 370.909 355.045 369.402C357.904 367.894 361.407 368.925 362.872 371.706Z" fill="white" fill-opacity="0.5"/>
<path fill-rule="evenodd" clip-rule="evenodd" d="M390.478 357.157C391.943 359.937 390.813 363.41 387.954 364.917C385.094 366.424 381.591 365.393 380.126 362.613C378.661 359.833 379.79 356.36 382.65 354.853C385.51 353.346 389.013 354.377 390.478 357.157Z" fill="#F03738"/>
<path fill-rule="evenodd" clip-rule="evenodd" d="M390.478 357.157C391.943 359.937 390.813 363.41 387.954 364.917C385.094 366.424 381.591 365.393 380.126 362.613C378.661 359.833 379.79 356.36 382.65 354.853C385.51 353.346 389.013 354.377 390.478 357.157Z" fill="white" fill-opacity="0.5"/>
<path fill-rule="evenodd" clip-rule="evenodd" d="M416.358 343.518C417.823 346.298 416.693 349.77 413.834 351.277C410.974 352.784 407.471 351.753 406.006 348.973C404.541 346.193 405.67 342.721 408.53 341.214C411.39 339.706 414.893 340.738 416.358 343.518Z" fill="#F03738"/>
<path fill-rule="evenodd" clip-rule="evenodd" d="M416.358 343.518C417.823 346.298 416.693 349.77 413.834 351.277C410.974 352.784 407.471 351.753 406.006 348.973C404.541 346.193 405.67 342.721 408.53 341.214C411.39 339.706 414.893 340.738 416.358 343.518Z" fill="white" fill-opacity="0.5"/>
<path fill-rule="evenodd" clip-rule="evenodd" d="M442.238 329.879C443.703 332.659 442.573 336.131 439.713 337.639C436.854 339.146 433.351 338.115 431.886 335.335C430.42 332.554 431.55 329.082 434.41 327.575C437.269 326.068 440.772 327.099 442.238 329.879Z" fill="#F03738"/>
<path fill-rule="evenodd" clip-rule="evenodd" d="M442.238 329.879C443.703 332.659 442.573 336.131 439.713 337.639C436.854 339.146 433.351 338.115 431.886 335.335C430.42 332.554 431.55 329.082 434.41 327.575C437.269 326.068 440.772 327.099 442.238 329.879Z" fill="white" fill-opacity="0.5"/>
<path fill-rule="evenodd" clip-rule="evenodd" d="M469.843 315.33C471.308 318.11 470.179 321.583 467.319 323.09C464.459 324.597 460.956 323.566 459.491 320.786C458.026 318.006 459.155 314.533 462.015 313.026C464.875 311.519 468.378 312.55 469.843 315.33Z" fill="#F03738"/>
<path fill-rule="evenodd" clip-rule="evenodd" d="M469.843 315.33C471.308 318.11 470.179 321.583 467.319 323.09C464.459 324.597 460.956 323.566 459.491 320.786C458.026 318.006 459.155 314.533 462.015 313.026C464.875 311.519 468.378 312.55 469.843 315.33Z" fill="white" fill-opacity="0.5"/>
<path fill-rule="evenodd" clip-rule="evenodd" d="M40.6093 145.061C42.0745 147.841 40.945 151.314 38.0852 152.821C35.2255 154.328 31.7225 153.297 30.2574 150.517C28.7922 147.737 29.9217 144.264 32.7815 142.757C35.6412 141.25 39.1442 142.281 40.6093 145.061Z" fill="#F03738"/>
<path fill-rule="evenodd" clip-rule="evenodd" d="M40.6093 145.061C42.0745 147.841 40.945 151.314 38.0852 152.821C35.2255 154.328 31.7225 153.297 30.2574 150.517C28.7922 147.737 29.9217 144.264 32.7815 142.757C35.6412 141.25 39.1442 142.281 40.6093 145.061Z" fill="white" fill-opacity="0.5"/>
<path fill-rule="evenodd" clip-rule="evenodd" d="M66.4891 131.422C67.9542 134.202 66.8247 137.675 63.9649 139.182C61.1052 140.689 57.6022 139.658 56.137 136.878C54.6718 134.098 55.8014 130.625 58.6611 129.118C61.5209 127.611 65.0239 128.642 66.4891 131.422Z" fill="#F03738"/>
<path fill-rule="evenodd" clip-rule="evenodd" d="M66.4891 131.422C67.9542 134.202 66.8247 137.675 63.9649 139.182C61.1052 140.689 57.6022 139.658 56.137 136.878C54.6718 134.098 55.8014 130.625 58.6611 129.118C61.5209 127.611 65.0239 128.642 66.4891 131.422Z" fill="white" fill-opacity="0.5"/>
<path fill-rule="evenodd" clip-rule="evenodd" d="M92.3691 117.783C93.8343 120.563 92.7047 124.035 89.845 125.542C86.9853 127.05 83.4823 126.019 82.0171 123.238C80.552 120.458 81.6815 116.986 84.5412 115.479C87.401 113.972 90.9039 115.003 92.3691 117.783Z" fill="#F03738"/>
<path fill-rule="evenodd" clip-rule="evenodd" d="M92.3691 117.783C93.8343 120.563 92.7047 124.035 89.845 125.542C86.9853 127.05 83.4823 126.019 82.0171 123.238C80.552 120.458 81.6815 116.986 84.5412 115.479C87.401 113.972 90.9039 115.003 92.3691 117.783Z" fill="white" fill-opacity="0.5"/>
<path fill-rule="evenodd" clip-rule="evenodd" d="M119.974 103.234C121.439 106.014 120.31 109.487 117.45 110.994C114.59 112.501 111.088 111.47 109.622 108.69C108.157 105.91 109.287 102.437 112.146 100.93C115.006 99.4232 118.509 100.454 119.974 103.234Z" fill="#F03738"/>
<path fill-rule="evenodd" clip-rule="evenodd" d="M119.974 103.234C121.439 106.014 120.31 109.487 117.45 110.994C114.59 112.501 111.088 111.47 109.622 108.69C108.157 105.91 109.287 102.437 112.146 100.93C115.006 99.4232 118.509 100.454 119.974 103.234Z" fill="white" fill-opacity="0.5"/>
<path fill-rule="evenodd" clip-rule="evenodd" d="M145.854 89.5952C147.319 92.3753 146.19 95.8478 143.33 97.3549C140.47 98.8621 136.967 97.831 135.502 95.0509C134.037 92.2708 135.167 88.7983 138.026 87.2912C140.886 85.7841 144.389 86.8151 145.854 89.5952Z" fill="#F03738"/>
<path fill-rule="evenodd" clip-rule="evenodd" d="M145.854 89.5952C147.319 92.3753 146.19 95.8478 143.33 97.3549C140.47 98.8621 136.967 97.831 135.502 95.0509C134.037 92.2708 135.167 88.7983 138.026 87.2912C140.886 85.7841 144.389 86.8151 145.854 89.5952Z" fill="white" fill-opacity="0.5"/>
<path fill-rule="evenodd" clip-rule="evenodd" d="M173.46 75.0468C174.925 77.8269 173.795 81.2994 170.936 82.8066C168.076 84.3137 164.573 83.2827 163.108 80.5026C161.643 77.7225 162.772 74.25 165.632 72.7428C168.492 71.2357 171.995 72.2667 173.46 75.0468Z" fill="#F03738"/>
<path fill-rule="evenodd" clip-rule="evenodd" d="M173.46 75.0468C174.925 77.8269 173.795 81.2994 170.936 82.8066C168.076 84.3137 164.573 83.2827 163.108 80.5026C161.643 77.7225 162.772 74.25 165.632 72.7428C168.492 71.2357 171.995 72.2667 173.46 75.0468Z" fill="white" fill-opacity="0.5"/>
<path fill-rule="evenodd" clip-rule="evenodd" d="M199.34 61.4077C200.805 64.1878 199.675 67.6603 196.815 69.1674C193.956 70.6746 190.453 69.6435 188.988 66.8634C187.522 64.0833 188.652 60.6108 191.512 59.1037C194.371 57.5966 197.874 58.6276 199.34 61.4077Z" fill="#F03738"/>
<path fill-rule="evenodd" clip-rule="evenodd" d="M199.34 61.4077C200.805 64.1878 199.675 67.6603 196.815 69.1674C193.956 70.6746 190.453 69.6435 188.988 66.8634C187.522 64.0833 188.652 60.6108 191.512 59.1037C194.371 57.5966 197.874 58.6276 199.34 61.4077Z" fill="white" fill-opacity="0.5"/>
<path fill-rule="evenodd" clip-rule="evenodd" d="M226.945 46.8589C228.41 49.639 227.281 53.1115 224.421 54.6186C221.561 56.1257 218.058 55.0947 216.593 52.3146C215.128 49.5345 216.257 46.062 219.117 44.5549C221.977 43.0477 225.48 44.0788 226.945 46.8589Z" fill="#F03738"/>
<path fill-rule="evenodd" clip-rule="evenodd" d="M226.945 46.8589C228.41 49.639 227.281 53.1115 224.421 54.6186C221.561 56.1257 218.058 55.0947 216.593 52.3146C215.128 49.5345 216.257 46.062 219.117 44.5549C221.977 43.0477 225.48 44.0788 226.945 46.8589Z" fill="white" fill-opacity="0.5"/>
<path fill-rule="evenodd" clip-rule="evenodd" d="M252.825 33.2198C254.29 35.9999 253.161 39.4723 250.301 40.9795C247.441 42.4866 243.938 41.4555 242.473 38.6754C241.008 35.8953 242.138 32.4229 244.997 30.9157C247.857 29.4086 251.36 30.4397 252.825 33.2198Z" fill="#F03738"/>
<path fill-rule="evenodd" clip-rule="evenodd" d="M252.825 33.2198C254.29 35.9999 253.161 39.4723 250.301 40.9795C247.441 42.4866 243.938 41.4555 242.473 38.6754C241.008 35.8953 242.138 32.4229 244.997 30.9157C247.857 29.4086 251.36 30.4397 252.825 33.2198Z" fill="white" fill-opacity="0.5"/>
<path fill-rule="evenodd" clip-rule="evenodd" d="M278.705 19.5805C280.17 22.3606 279.041 25.8331 276.181 27.3402C273.321 28.8474 269.818 27.8164 268.353 25.0363C266.888 22.2562 268.017 18.7837 270.877 17.2765C273.737 15.7694 277.24 16.8004 278.705 19.5805Z" fill="#F03738"/>
<path fill-rule="evenodd" clip-rule="evenodd" d="M278.705 19.5805C280.17 22.3606 279.041 25.8331 276.181 27.3402C273.321 28.8474 269.818 27.8164 268.353 25.0363C266.888 22.2562 268.017 18.7837 270.877 17.2765C273.737 15.7694 277.24 16.8004 278.705 19.5805Z" fill="white" fill-opacity="0.5"/>
<path fill-rule="evenodd" clip-rule="evenodd" d="M306.31 5.03226C307.775 7.81237 306.646 11.2848 303.786 12.792C300.926 14.2991 297.423 13.268 295.958 10.4879C294.493 7.70781 295.623 4.23535 298.482 2.72822C301.342 1.2211 304.845 2.25215 306.31 5.03226Z" fill="#F03738"/>
<path fill-rule="evenodd" clip-rule="evenodd" d="M306.31 5.03226C307.775 7.81237 306.646 11.2848 303.786 12.792C300.926 14.2991 297.423 13.268 295.958 10.4879C294.493 7.70781 295.623 4.23535 298.482 2.72822C301.342 1.2211 304.845 2.25215 306.31 5.03226Z" fill="white" fill-opacity="0.5"/>
</g>
</svg>
