<svg width="120" height="90" viewBox="0 0 120 90" fill="none" xmlns="http://www.w3.org/2000/svg">
<g opacity="0.15">
<path d="M1.14148 87.9311C2.01053 88.9172 3.26837 89.5519 4.64426 89.6986C6.02015 89.8454 7.40407 89.4924 8.49809 88.7157L118.001 9.37127C119.098 8.57547 119.804 7.41442 119.965 6.14303C120.126 4.87164 119.728 3.59383 118.859 2.59017C117.99 1.60407 116.733 0.96934 115.357 0.8226C113.981 0.67586 112.597 1.02885 111.503 1.80559L1.99973 81.1388C0.902415 81.9366 0.195889 83.0996 0.0350052 84.3728C-0.125878 85.646 0.272029 86.9256 1.14148 87.9311Z" fill="#C2C9D1"/>
<path d="M1.14148 87.9311C2.01053 88.9172 3.26837 89.5519 4.64426 89.6986C6.02015 89.8454 7.40407 89.4924 8.49809 88.7157L118.001 9.37127C119.098 8.57547 119.804 7.41442 119.965 6.14303C120.126 4.87164 119.728 3.59383 118.859 2.59017C117.99 1.60407 116.733 0.96934 115.357 0.8226C113.981 0.67586 112.597 1.02885 111.503 1.80559L1.99973 81.1388C0.902415 81.9366 0.195889 83.0996 0.0350052 84.3728C-0.125878 85.646 0.272029 86.9256 1.14148 87.9311Z" fill="white" fill-opacity="0.75"/>
</g>
</svg>
