<svg width="477" height="595" viewBox="0 0 477 595" fill="none" xmlns="http://www.w3.org/2000/svg">
<g opacity="0.2">
<path opacity="0.55" d="M256.015 31.3464L286.683 11.2064C275.499 16.6217 265.181 23.3975 256.015 31.3464Z" fill="url(#paint0_linear_828)"/>
<path opacity="0.55" d="M330.227 0.987558L215.392 76.3758C213.843 78.478 212.316 80.6034 210.809 82.752L335.136 1.12362C333.566 1.03144 331.935 0.981396 330.227 0.987558Z" fill="url(#paint1_linear_828)"/>
<path opacity="0.55" d="M354.281 6.91367L189.381 115.133L185.856 120.736L356.675 8.59628C355.919 8.08185 355.115 7.48372 354.281 6.91367Z" fill="url(#paint2_linear_828)"/>
<path opacity="0.55" d="M365.914 21.0049L167.187 151.457L163.739 157.061L367.112 23.5444C366.723 22.6932 366.318 21.842 365.914 21.0049Z" fill="url(#paint3_linear_828)"/>
<path opacity="0.55" d="M372.544 38.3705L142.95 189.089C141.392 191.294 139.865 193.433 138.368 195.508L373.451 41.1626C373.154 40.1993 372.841 39.2779 372.544 38.3705Z" fill="url(#paint4_linear_828)"/>
<path opacity="0.55" d="M378.858 55.9328L94.0929 242.856C90.2655 246.504 86.4277 250.148 82.5797 253.786L380.056 58.5282C379.606 57.6772 379.216 56.7981 378.858 55.9328Z" fill="url(#paint5_linear_828)"/>
<path opacity="0.55" d="M386.845 72.399L34.8718 303.468C33.0986 305.692 31.3769 307.944 29.7067 310.223L388.181 74.8821C387.731 74.0591 387.28 73.236 386.845 72.399Z" fill="url(#paint6_linear_828)"/>
<path opacity="0.55" d="M395.87 88.1903L12.0171 340.144C11.3482 341.684 10.6947 343.224 10.0875 344.778L397.267 90.5893C396.832 89.7942 396.351 88.9992 395.87 88.1903Z" fill="url(#paint7_linear_828)"/>
<path opacity="0.55" d="M405.528 103.574L3.70452 367.362C3.49578 368.62 3.30233 369.865 3.12429 371.11L407.064 105.931L405.528 103.574Z" fill="url(#paint8_linear_828)"/>
<path opacity="0.55" d="M415.495 118.747L2.00234 390.209C2.00812 391.299 2.01398 392.403 2.11216 393.507L417.047 121.104C416.519 120.323 416.007 119.542 415.495 118.747Z" fill="url(#paint9_linear_828)"/>
<path opacity="0.55" d="M425.417 133.963L3.84329 410.723C4.00258 411.742 4.16179 412.748 4.33646 413.768L426.923 136.333L425.417 133.963Z" fill="url(#paint10_linear_828)"/>
<path opacity="0.55" d="M434.956 149.417L7.73935 429.887C7.97527 430.851 8.22654 431.815 8.47785 432.778L436.385 151.858L434.956 149.417Z" fill="url(#paint11_linear_828)"/>
<path opacity="0.55" d="M443.79 165.349L12.9084 448.237C13.2056 449.158 13.4875 450.094 13.7849 451.029L445.081 167.888C444.645 167.037 444.21 166.2 443.79 165.349Z" fill="url(#paint12_linear_828)"/>
<path opacity="0.55" d="M451.566 181.941L18.752 466.108L19.6901 468.9L452.672 184.649C452.314 183.728 451.924 182.849 451.566 181.941Z" fill="url(#paint13_linear_828)"/>
<path opacity="0.55" d="M458.421 199.195L24.9018 483.797L25.8856 486.519L459.358 201.903L458.421 199.195Z" fill="url(#paint14_linear_828)"/>
<path opacity="0.55" d="M464.372 217.01L31.4661 501.219L32.5419 503.871L465.187 219.844C464.92 218.895 464.654 217.945 464.372 217.01Z" fill="url(#paint15_linear_828)"/>
<path opacity="0.55" d="M469.218 235.556L38.7963 518.121C39.201 518.986 39.6056 519.837 40.0256 520.688L469.849 238.503C469.644 237.525 469.439 236.534 469.218 235.556Z" fill="url(#paint16_linear_828)"/>
<path opacity="0.55" d="M472.746 254.959L47.1846 534.306L48.6131 536.733L473.131 258.061C473.003 257.027 472.89 255.993 472.746 254.959Z" fill="url(#paint17_linear_828)"/>
<path opacity="0.55" d="M474.602 275.446L57.2143 549.507C57.7722 550.26 58.3455 550.998 58.9187 551.737L474.712 278.758C474.691 277.654 474.654 276.564 474.602 275.446Z" fill="url(#paint18_linear_828)"/>
<path opacity="0.55" d="M474.296 297.393L69.1446 563.429C69.8253 564.111 70.5214 564.822 71.2171 565.434L473.991 300.944C474.108 299.77 474.21 298.581 474.296 297.393Z" fill="url(#paint19_linear_828)"/>
<path opacity="0.55" d="M470.938 321.322L83.6814 575.553L86.2139 577.249L470.052 325.267C470.368 323.952 470.73 322.636 470.938 321.322Z" fill="url(#paint20_linear_828)"/>
<path opacity="0.55" d="M462.934 348.301L101.637 585.484C102.686 585.928 103.75 586.357 104.814 586.772L461.112 352.85C461.735 351.338 462.358 349.827 462.934 348.301Z" fill="url(#paint21_linear_828)"/>
<path opacity="0.55" d="M447.34 380.325L124.392 592.253C125.748 592.499 127.103 592.732 128.473 592.937L443.907 385.928C445.082 384.009 446.226 382.146 447.34 380.325Z" fill="url(#paint22_linear_828)"/>
<path opacity="0.55" d="M416.96 421.921L154.536 594.201C156.428 594.124 158.305 594.005 160.197 593.859L409.817 429.983C412.234 427.319 414.615 424.631 416.96 421.921Z" fill="url(#paint23_linear_828)"/>
<path opacity="0.55" d="M342.686 492.398L200.633 585.664C204.432 584.43 208.18 583.088 211.875 581.64L321.927 509.4C328.842 503.803 335.762 498.135 342.686 492.398Z" fill="url(#paint24_linear_828)"/>
</g>
<defs>
<linearGradient id="paint0_linear_828" x1="257.966" y1="12.4713" x2="289.423" y2="31.2865" gradientUnits="userSpaceOnUse">
<stop stop-color="white"/>
<stop offset="1" stop-color="#FFBFCA"/>
</linearGradient>
<linearGradient id="paint1_linear_828" x1="218.72" y1="6.10582" x2="346.355" y2="82.3225" gradientUnits="userSpaceOnUse">
<stop stop-color="white"/>
<stop offset="1" stop-color="#FFBFCA"/>
</linearGradient>
<linearGradient id="paint2_linear_828" x1="196.718" y1="14.0467" x2="373.289" y2="118.11" gradientUnits="userSpaceOnUse">
<stop stop-color="white"/>
<stop offset="1" stop-color="#FFBFCA"/>
</linearGradient>
<linearGradient id="paint3_linear_828" x1="176.668" y1="29.5343" x2="387.323" y2="153.19" gradientUnits="userSpaceOnUse">
<stop stop-color="white"/>
<stop offset="1" stop-color="#FFBFCA"/>
</linearGradient>
<linearGradient id="paint4_linear_828" x1="153.313" y1="48.2237" x2="396.706" y2="191.221" gradientUnits="userSpaceOnUse">
<stop stop-color="white"/>
<stop offset="1" stop-color="#FFBFCA"/>
</linearGradient>
<linearGradient id="paint5_linear_828" x1="101.496" y1="68.3436" x2="408.685" y2="249.736" gradientUnits="userSpaceOnUse">
<stop stop-color="white"/>
<stop offset="1" stop-color="#FFBFCA"/>
</linearGradient>
<linearGradient id="paint6_linear_828" x1="52.5051" y1="87.3202" x2="422.193" y2="306.175" gradientUnits="userSpaceOnUse">
<stop stop-color="white"/>
<stop offset="1" stop-color="#FFBFCA"/>
</linearGradient>
<linearGradient id="paint7_linear_828" x1="34.7129" y1="104.29" x2="433.772" y2="340.795" gradientUnits="userSpaceOnUse">
<stop stop-color="white"/>
<stop offset="1" stop-color="#FFBFCA"/>
</linearGradient>
<linearGradient id="paint8_linear_828" x1="28.8164" y1="120.361" x2="445.02" y2="367.174" gradientUnits="userSpaceOnUse">
<stop stop-color="white"/>
<stop offset="1" stop-color="#FFBFCA"/>
</linearGradient>
<linearGradient id="paint9_linear_828" x1="28.4177" y1="135.989" x2="455.947" y2="389.629" gradientUnits="userSpaceOnUse">
<stop stop-color="white"/>
<stop offset="1" stop-color="#FFBFCA"/>
</linearGradient>
<linearGradient id="paint10_linear_828" x1="30.7698" y1="151.522" x2="466.351" y2="410.194" gradientUnits="userSpaceOnUse">
<stop stop-color="white"/>
<stop offset="1" stop-color="#FFBFCA"/>
</linearGradient>
<linearGradient id="paint11_linear_828" x1="35.0197" y1="167.201" x2="476.229" y2="429.332" gradientUnits="userSpaceOnUse">
<stop stop-color="white"/>
<stop offset="1" stop-color="#FFBFCA"/>
</linearGradient>
<linearGradient id="paint12_linear_828" x1="40.4126" y1="183.279" x2="485.242" y2="447.572" gradientUnits="userSpaceOnUse">
<stop stop-color="white"/>
<stop offset="1" stop-color="#FFBFCA"/>
</linearGradient>
<linearGradient id="paint13_linear_828" x1="46.3669" y1="199.952" x2="493.096" y2="465.26" gradientUnits="userSpaceOnUse">
<stop stop-color="white"/>
<stop offset="1" stop-color="#FFBFCA"/>
</linearGradient>
<linearGradient id="paint14_linear_828" x1="52.5503" y1="217.229" x2="499.841" y2="482.86" gradientUnits="userSpaceOnUse">
<stop stop-color="white"/>
<stop offset="1" stop-color="#FFBFCA"/>
</linearGradient>
<linearGradient id="paint15_linear_828" x1="59.0674" y1="235.015" x2="505.619" y2="500.186" gradientUnits="userSpaceOnUse">
<stop stop-color="white"/>
<stop offset="1" stop-color="#FFBFCA"/>
</linearGradient>
<linearGradient id="paint16_linear_828" x1="66.2272" y1="253.453" x2="510.061" y2="516.977" gradientUnits="userSpaceOnUse">
<stop stop-color="white"/>
<stop offset="1" stop-color="#FFBFCA"/>
</linearGradient>
<linearGradient id="paint17_linear_828" x1="74.2899" y1="272.646" x2="512.882" y2="533.04" gradientUnits="userSpaceOnUse">
<stop stop-color="white"/>
<stop offset="1" stop-color="#FFBFCA"/>
</linearGradient>
<linearGradient id="paint18_linear_828" x1="83.7806" y1="292.789" x2="513.761" y2="547.969" gradientUnits="userSpaceOnUse">
<stop stop-color="white"/>
<stop offset="1" stop-color="#FFBFCA"/>
</linearGradient>
<linearGradient id="paint19_linear_828" x1="94.926" y1="314.219" x2="512.135" y2="561.903" gradientUnits="userSpaceOnUse">
<stop stop-color="white"/>
<stop offset="1" stop-color="#FFBFCA"/>
</linearGradient>
<linearGradient id="paint20_linear_828" x1="108.324" y1="337.389" x2="506.88" y2="574.256" gradientUnits="userSpaceOnUse">
<stop stop-color="white"/>
<stop offset="1" stop-color="#FFBFCA"/>
</linearGradient>
<linearGradient id="paint21_linear_828" x1="124.628" y1="363.274" x2="496.222" y2="584.394" gradientUnits="userSpaceOnUse">
<stop stop-color="white"/>
<stop offset="1" stop-color="#FFBFCA"/>
</linearGradient>
<linearGradient id="paint22_linear_828" x1="144.943" y1="393.677" x2="476.643" y2="591.568" gradientUnits="userSpaceOnUse">
<stop stop-color="white"/>
<stop offset="1" stop-color="#FFBFCA"/>
</linearGradient>
<linearGradient id="paint23_linear_828" x1="171.235" y1="432.742" x2="440.356" y2="593.769" gradientUnits="userSpaceOnUse">
<stop stop-color="white"/>
<stop offset="1" stop-color="#FFBFCA"/>
</linearGradient>
<linearGradient id="paint24_linear_828" x1="209.672" y1="498.256" x2="355.357" y2="585.419" gradientUnits="userSpaceOnUse">
<stop stop-color="white"/>
<stop offset="1" stop-color="#FFBFCA"/>
</linearGradient>
</defs>
</svg>
