<svg width="131" height="98" viewBox="0 0 131 98" fill="none" xmlns="http://www.w3.org/2000/svg">
<path opacity="0.2" d="M129.556 3.16207C130.1 3.78589 130.504 4.5014 130.744 5.26761C130.985 6.03382 131.056 6.83568 130.956 7.62725C130.856 8.41883 130.585 9.18458 130.159 9.88062C129.733 10.5767 129.161 11.1893 128.474 11.6835L10.7999 96.663C9.41378 97.6621 7.64925 98.1195 5.89342 97.9347C4.13759 97.75 2.53388 96.9383 1.43417 95.6777C0.33959 94.4152 -0.159998 92.8085 0.0451227 91.2106C0.250243 89.6128 1.14331 88.1544 2.52809 87.1562L120.203 2.17667C121.587 1.17821 123.349 0.721154 125.103 0.90592C126.857 1.09069 128.458 1.90217 129.556 3.16207Z" fill="#F7F7F9"/>
</svg>
