<svg width="536" height="487" viewBox="0 0 536 487" fill="none" xmlns="http://www.w3.org/2000/svg">
<path opacity="0.1" d="M526.733 306.587C512.917 352.943 484.264 394.542 444.4 426.123C404.535 457.704 355.249 477.849 302.773 484.01C250.298 490.172 196.99 482.074 149.591 460.739C102.192 439.404 62.8314 405.792 36.4856 364.152C10.1399 322.512 -2.00731 274.715 1.5803 226.805C5.16791 178.896 24.3292 133.025 56.6409 94.9937C88.9526 56.9628 132.963 28.4799 183.108 13.1466C233.253 -2.18676 287.279 -3.6819 338.355 8.85075C406.809 25.7063 465.091 66.5247 500.41 122.346C535.728 178.167 545.195 244.429 526.733 306.587ZM90.0916 199.189C80.4297 231.258 81.4669 265.207 93.0717 296.738C104.676 328.269 126.327 355.965 155.285 376.323C184.242 396.68 219.204 408.783 255.746 411.1C292.288 413.417 328.769 405.845 360.571 389.34C392.372 372.836 418.067 348.142 434.402 318.383C450.737 288.623 456.978 255.137 452.336 222.161C447.694 189.184 432.377 158.2 408.324 133.129C384.271 108.059 352.563 90.0284 317.212 81.3197C269.88 69.7179 219.407 75.6069 176.842 97.6974C134.276 119.788 103.084 156.281 90.0916 199.189Z" fill="url(#paint0_linear_828)"/>
<defs>
<linearGradient id="paint0_linear_828" x1="381.014" y1="494.508" x2="205.815" y2="83.0204" gradientUnits="userSpaceOnUse">
<stop stop-color="#FBFAFF"/>
<stop offset="0.632763" stop-color="white"/>
<stop offset="1" stop-color="#C5B9EC" stop-opacity="0"/>
</linearGradient>
</defs>
</svg>
