<svg width="91" height="84" viewBox="0 0 91 84" fill="none" xmlns="http://www.w3.org/2000/svg">
<path opacity="0.05" d="M21.5314 68.354C15.6632 64.1077 11.425 58.4604 9.22569 52.1994C7.03046 45.9499 6.9284 39.2759 8.92653 32.9809C10.9281 26.675 14.983 20.9319 20.7074 16.545C26.4384 12.1532 33.5546 9.34759 41.1707 8.56918C48.7872 7.79072 56.4613 9.08581 63.203 12.2474C69.9411 15.4073 75.3769 20.254 78.9193 26.0728C82.4544 31.8795 83.9752 38.4332 83.3706 44.925C82.7657 51.4207 80.0462 57.698 75.4345 62.944C69.2357 69.9955 60.0554 74.671 49.8293 75.7162C39.6012 76.7616 29.4171 74.0602 21.5314 68.354Z" stroke="white" stroke-width="15"/>
</svg>
