<svg width="14" height="11" viewBox="0 0 14 11" fill="none" xmlns="http://www.w3.org/2000/svg">
<path id="Vector" fill-rule="evenodd" clip-rule="evenodd" d="M13.7069 1.20099C13.8944 1.38852 13.9997 1.64283 13.9997 1.90799C13.9997 2.17315 13.8944 2.42746 13.7069 2.61499L5.70692 10.615C5.51939 10.8025 5.26508 10.9078 4.99992 10.9078C4.73475 10.9078 4.48045 10.8025 4.29292 10.615L0.292919 6.61499C0.110761 6.42639 0.00996641 6.17379 0.0122448 5.91159C0.0145233 5.64939 0.119692 5.39858 0.3051 5.21317C0.490508 5.02776 0.741321 4.92259 1.00352 4.92032C1.26571 4.91804 1.51832 5.01883 1.70692 5.20099L4.99992 8.49399L12.2929 1.20099C12.4804 1.01352 12.7348 0.908203 12.9999 0.908203C13.2651 0.908203 13.5194 1.01352 13.7069 1.20099Z" fill="white"/>
</svg>
