<svg width="542" height="647" viewBox="0 0 542 647" fill="none" xmlns="http://www.w3.org/2000/svg">
<g id="&#208;&#161;&#208;&#187;&#208;&#190;&#208;&#185;_x0020_1">
<path id="Vector" fill-rule="evenodd" clip-rule="evenodd" d="M92.6302 324.53C79.2658 329.382 66.7195 337.813 53.9868 344.299C4.49877 369.506 -12.9539 308.907 25.2799 295.145C56.0766 284.059 65.3072 270.652 83.061 272.101C100.815 273.55 109.423 279.577 109.423 279.577L109.561 282.743C103.803 277.051 76.6399 283.623 82.6109 295.627H82.6105C85.1498 298.289 92.6526 321.245 92.6302 324.53V324.53Z" fill="#E5EEFF"/>
<path id="Vector_2" fill-rule="evenodd" clip-rule="evenodd" d="M36.8451 350.004C-2.96707 358.979 -14.0895 307.12 21.3129 294.376C52.9202 282.998 62.3938 269.238 80.6147 270.726C98.8361 272.213 107.671 278.399 107.671 278.399C107.671 278.399 107.768 278.5 107.945 278.692C104.795 276.962 96.5803 273.205 83.0613 272.101C65.307 270.652 56.0769 284.059 25.2803 295.145C-8.13275 307.173 0.985081 354.967 36.8456 350.004L36.8451 350.004Z" fill="#868CB5"/>
<path id="Vector_3" fill-rule="evenodd" clip-rule="evenodd" d="M100.01 275.359C99.9787 275.37 75.3467 283.804 62.9165 276.893C69.6187 273.516 75.584 271.491 83.0621 272.101C90.1639 272.681 95.801 273.994 100.01 275.359Z" fill="#C5D2EB"/>
<path id="Vector_4" d="M85.1945 322.504C85.479 322.338 85.8448 322.435 86.0109 322.719C86.1769 323.003 86.0808 323.369 85.7963 323.535C84.2469 324.44 82.6743 325.335 81.0692 326.224C80.8823 326.669 80.4356 326.974 79.9252 326.956C79.8724 326.954 79.8205 326.948 79.7696 326.94C76.9948 328.457 74.1168 329.96 71.0904 331.465L70.3093 331.852C70.2631 332.489 69.7194 332.981 69.0753 332.959C68.8446 332.95 68.6319 332.878 68.4535 332.758C63.9419 334.94 59.0893 337.134 53.7543 339.389C53.4517 339.517 53.1025 339.374 52.975 339.072C52.8476 338.769 52.9898 338.42 53.2923 338.293C58.5907 336.053 63.421 333.869 67.9241 331.69C68.2414 322.912 65.1269 320.295 61.0787 316.897C60.3965 316.324 59.6882 315.73 58.859 314.986C58.8024 314.936 58.752 314.881 58.7078 314.823C57.1456 315.564 55.5657 316.296 53.9669 317.016C52.1464 317.834 50.2393 318.668 48.2347 319.515C47.9321 319.642 47.5829 319.5 47.4554 319.197C47.328 318.895 47.4702 318.546 47.7727 318.418C49.7027 317.603 51.6041 316.772 53.4769 315.929C55.2565 315.127 56.9577 314.339 58.5865 313.563C58.6331 313.47 58.6925 313.381 58.7653 313.3C59.2049 312.809 59.9598 312.767 60.4512 313.206C61.1205 313.807 61.8826 314.446 62.6143 315.06C66.9693 318.716 70.364 321.568 70.3378 330.507L70.5633 330.395C73.4308 328.969 76.1699 327.542 78.821 326.098C78.7858 325.978 78.7687 325.85 78.7735 325.718C79.1264 316.183 76.3973 313.774 72.0285 309.919L70.8439 308.868C70.3525 308.428 70.3107 307.673 70.7502 307.182C71.1898 306.691 71.9447 306.649 72.4361 307.088L73.6111 308.13C78.3434 312.305 81.3566 314.965 81.1896 324.791C82.5434 324.033 83.8768 323.272 85.195 322.503L85.1945 322.504Z" fill="#868CB5"/>
<path id="Vector_5" fill-rule="evenodd" clip-rule="evenodd" d="M96.9568 321.384L97.0633 321.349L118.639 317.624L117.068 282.742L109.56 282.743C103.802 277.051 76.6394 283.623 82.6105 295.627C91.7787 291.892 92.1517 300.184 97.1114 310.828C99.4818 315.916 98.5623 319.269 96.9563 321.385L96.9568 321.384Z" fill="#DAD9FF"/>
<path id="Vector_6" fill-rule="evenodd" clip-rule="evenodd" d="M92.6306 324.528C101.226 321.857 104.916 321.26 102.589 313.46C97.3706 299.342 96.098 290.943 82.6113 295.625C85.105 300.45 91.2777 315.745 92.6306 324.528Z" fill="#868CB5"/>
<path id="Vector_7" d="M71.6379 311.314C73.4799 311.314 74.9731 309.821 74.9731 307.979C74.9731 306.137 73.4799 304.644 71.6379 304.644C69.7959 304.644 68.3027 306.137 68.3027 307.979C68.3027 309.821 69.7959 311.314 71.6379 311.314Z" fill="#868CB5"/>
<path id="Vector_8" d="M59.654 317.432C61.496 317.432 62.9892 315.938 62.9892 314.096C62.9892 312.254 61.496 310.761 59.654 310.761C57.8121 310.761 56.3188 312.254 56.3188 314.096C56.3188 315.938 57.8121 317.432 59.654 317.432Z" fill="#868CB5"/>
<path id="Vector_9" d="M79.9673 328.363C81.4044 328.363 82.5694 327.198 82.5694 325.761C82.5694 324.324 81.4044 323.159 79.9673 323.159C78.5302 323.159 77.3652 324.324 77.3652 325.761C77.3652 327.198 78.5302 328.363 79.9673 328.363Z" fill="#868CB5"/>
<path id="Vector_10" d="M69.1163 334.366C70.5534 334.366 71.7184 333.201 71.7184 331.764C71.7184 330.327 70.5534 329.162 69.1163 329.162C67.6792 329.162 66.5142 330.327 66.5142 331.764C66.5142 333.201 67.6792 334.366 69.1163 334.366Z" fill="#868CB5"/>
<path id="Vector_11" d="M67.64 285.682C67.8859 285.9 67.9088 286.276 67.6914 286.522C67.474 286.768 67.0977 286.791 66.8518 286.573L63.0447 283.211C62.7988 282.994 62.7759 282.617 62.9933 282.371C63.2107 282.126 63.587 282.103 63.8329 282.32L67.64 285.682ZM64.5151 287.025C64.761 287.242 64.7839 287.618 64.5665 287.864C64.3491 288.11 63.9728 288.133 63.7269 287.916L59.9198 284.554C59.6739 284.336 59.651 283.96 59.8684 283.714C60.0858 283.468 60.4621 283.445 60.708 283.663L64.5151 287.025Z" fill="#868CB5"/>
<path id="Vector_12" d="M24.6382 295.072C24.3295 295.183 23.9884 295.022 23.8781 294.713C23.7672 294.404 23.928 294.063 24.2372 293.953C36.7673 289.442 45.8737 284.641 53.4588 280.641C64.5561 274.79 72.4356 270.635 83.1076 271.506C101.021 272.968 109.739 279.072 109.764 279.089C109.922 279.2 110.01 279.373 110.017 279.552L110.155 282.718C110.169 283.046 109.915 283.324 109.586 283.338C109.414 283.345 109.257 283.279 109.143 283.168C106.91 280.961 101.091 280.755 95.4217 282.072C92.7587 282.691 90.1395 283.65 87.9469 284.901C85.7939 286.129 84.0604 287.633 83.1204 289.361C82.1752 291.098 82.0401 293.093 83.1124 295.294C84.3558 296.715 86.5731 302.217 88.6096 308.092C91.0381 315.097 93.2377 322.699 93.2254 324.533C93.2244 324.789 93.0612 325.007 92.8339 325.09C84.0219 328.289 75.5353 333.073 67.1163 337.817C62.824 340.236 58.5474 342.647 54.258 344.832C53.0245 345.46 51.7786 346.035 50.5413 346.57C49.3107 347.103 48.1238 347.58 46.9764 348.026C34.2275 352.986 23.6364 350.504 16.4713 344.501C13.2741 341.824 10.7619 338.442 9.04653 334.708C7.33399 330.978 6.41683 326.892 6.40875 322.803C6.39067 313.747 10.8166 304.673 20.8949 299.358C21.186 299.205 21.5466 299.317 21.6993 299.608C21.852 299.899 21.7407 300.259 21.4496 300.412C11.8132 305.494 7.58088 314.16 7.59801 322.803C7.60562 326.72 8.4852 330.635 10.1283 334.213C11.7695 337.786 14.1746 341.023 17.2358 343.587C24.0935 349.331 34.2632 351.694 46.5468 346.915C47.7056 346.464 48.8873 345.989 50.0694 345.478C51.2444 344.97 52.4598 344.408 53.7162 343.767C58.0013 341.585 62.2589 339.185 66.5331 336.776C74.857 332.086 83.246 327.357 92.0109 324.123C91.7645 321.851 89.7237 314.935 87.4855 308.479C85.4704 302.665 83.3131 297.267 82.2009 296.061C82.1414 296.005 82.0934 295.937 82.061 295.861C80.7757 293.255 80.9408 290.877 82.0744 288.792C83.1276 286.856 85.0233 285.198 87.359 283.866C89.6542 282.557 92.3848 281.555 95.1553 280.911C100.454 279.68 105.945 279.77 108.911 281.513L108.841 279.906C107.351 278.954 98.92 273.994 83.0144 272.696C72.6816 271.853 64.9304 275.94 54.0135 281.696C46.4008 285.71 37.2625 290.528 24.6382 295.072V295.072ZM83.883 274.741C83.5881 274.596 83.4668 274.238 83.6123 273.943C83.7574 273.648 84.1151 273.527 84.4101 273.672C85.3629 274.143 85.8729 274.724 86.0122 275.368C86.1726 276.107 85.84 276.847 85.1284 277.545C84.5195 278.143 83.6057 278.728 82.4806 279.26C78.3748 281.203 71.2454 282.522 65.8566 281.104C61.9654 280.08 56.8225 283.02 49.7488 287.065C43.9166 290.4 36.7953 294.472 27.9016 297.726C27.5928 297.838 27.2508 297.678 27.139 297.369C27.0272 297.06 27.1866 296.718 27.4958 296.607C36.2787 293.393 43.3586 289.345 49.157 286.029C56.4748 281.845 61.7955 278.803 66.1606 279.952C71.2721 281.297 78.0566 280.035 81.9726 278.182C82.9758 277.708 83.7774 277.199 84.294 276.694C84.7069 276.291 84.9119 275.921 84.8468 275.62C84.7844 275.333 84.4795 275.035 83.8839 274.741H83.883Z" fill="#868CB5"/>
<path id="Vector_13" fill-rule="evenodd" clip-rule="evenodd" d="M122.682 552.293L119.088 562.329C122.891 562.315 127.479 562.739 132.784 563.016C142.879 564.193 141.78 570.541 141.39 578.459L141.564 578.577L141.795 578.595C144.473 578.787 146.741 578.303 148.38 577.204C149.982 576.13 150.994 574.447 151.207 572.219L151.223 572.008C151.234 571.878 151.285 571.76 151.365 571.668L152.631 569.967C152.827 569.703 153.2 569.648 153.464 569.844C153.494 569.866 153.522 569.891 153.547 569.918L157.256 559.246C154.269 561.157 148.826 561.195 142.384 559.765C137.956 558.781 133.015 557.12 128.091 554.926C126.279 554.118 124.467 553.238 122.682 552.292V552.293Z" fill="#DAD9FF"/>
<path id="Vector_14" fill-rule="evenodd" clip-rule="evenodd" d="M202.236 421.483L192.534 557.32C192.232 561.539 194.952 565.402 199.147 565.96H199.148C203.342 566.517 206.976 563.499 207.787 559.346L233.247 428.937C221.171 426.651 210.157 424.123 202.237 421.483H202.236Z" fill="#F2C88C"/>
<path id="Vector_15" fill-rule="evenodd" clip-rule="evenodd" d="M368.299 438.669L393.478 595.109C394.199 599.588 397.987 602.953 402.502 602.505H402.503C407.019 602.057 410.072 598.015 409.899 593.48L403.83 434.211C391.896 436.357 379.91 437.768 368.299 438.668V438.669Z" fill="#F2C88C"/>
<path id="Vector_16" fill-rule="evenodd" clip-rule="evenodd" d="M475.118 414.227L511.119 513.823C512.462 517.538 516.248 519.803 520.039 518.687L520.039 518.687C523.83 517.572 525.787 513.619 524.904 509.768L498.384 394.092C491.588 402.59 483.908 409.104 475.118 414.227H475.118Z" fill="#F2C88C"/>
<path id="Vector_17" fill-rule="evenodd" clip-rule="evenodd" d="M283.022 436.538L276.819 510.469C276.489 514.406 278.984 518.043 282.894 518.612H282.895C286.805 519.181 290.233 516.406 291.038 512.537L306.339 439.023C300.542 438.543 292.381 437.69 283.023 436.538L283.022 436.538Z" fill="#F2C88C"/>
<path id="Vector_18" fill-rule="evenodd" clip-rule="evenodd" d="M397.225 170.054L487.822 168.65C487.822 168.65 537.679 163.576 540.487 200.793C543.296 238.01 539.784 296.293 519.421 353.874C499.342 410.65 469.344 423.746 414.812 432.018C395.489 436.283 375.688 438.415 357.239 439.387C350.377 439.748 342.637 439.794 334.354 439.58C326.071 439.794 318.332 439.748 311.469 439.387C291.048 438.312 198.307 426.808 190.332 415.193C175.823 394.059 157.668 377.572 149.287 353.874C140.396 328.733 134.717 303.457 131.375 279.86C212.731 281.042 194.051 221.76 195.632 200.793C198.441 163.577 248.298 168.65 248.298 168.65L271.482 170.054H397.225H397.225Z" fill="#ABE188"/>
<path id="Vector_19" fill-rule="evenodd" clip-rule="evenodd" d="M167.195 288.176L155.238 283.327C149.431 280.972 144.607 277.191 141.005 272.549C140.525 271.953 140.061 271.337 139.617 270.701C130.001 256.966 131.84 238.496 143.091 226.847C143.8 227.125 144.499 227.421 145.189 227.733L145.206 227.741C145.456 227.855 145.706 227.97 145.954 228.089L145.999 228.111C147.28 228.722 148.526 229.389 149.735 230.113L149.79 230.146C150.021 230.285 150.252 230.426 150.481 230.57L150.503 230.583C151.216 231.03 151.916 231.496 152.601 231.98L152.65 232.014C152.864 232.167 153.078 232.322 153.29 232.478L153.34 232.514C153.552 232.671 153.763 232.829 153.971 232.988L154.024 233.029C154.231 233.188 154.436 233.348 154.64 233.51L154.696 233.556C154.902 233.72 155.106 233.886 155.309 234.053L155.35 234.087C155.551 234.254 155.751 234.423 155.949 234.594L156.01 234.646C156.206 234.816 156.401 234.986 156.595 235.16L156.641 235.201C156.834 235.373 157.026 235.548 157.215 235.723L157.282 235.786C157.469 235.961 157.656 236.137 157.841 236.315L157.887 236.36C158.072 236.537 158.254 236.717 158.435 236.898L158.512 236.975C158.682 237.146 158.852 237.318 159.02 237.492L159.12 237.597C159.287 237.771 159.453 237.947 159.619 238.125L159.683 238.195C159.847 238.373 160.011 238.552 160.172 238.732L160.283 238.856C160.438 239.031 160.591 239.206 160.745 239.384L160.824 239.476C160.98 239.659 161.135 239.843 161.289 240.028L161.383 240.143C161.532 240.324 161.68 240.506 161.826 240.689L161.91 240.793C162.057 240.979 162.203 241.166 162.347 241.354L162.448 241.486C162.584 241.665 162.72 241.845 162.854 242.026L162.963 242.175C163.092 242.352 163.22 242.529 163.347 242.708L163.479 242.896C163.595 243.061 163.71 243.227 163.824 243.393L163.968 243.606C164.083 243.777 164.197 243.947 164.31 244.12L164.42 244.291C164.536 244.471 164.653 244.651 164.766 244.833L164.893 245.036C164.999 245.208 165.105 245.38 165.21 245.553L165.336 245.766C165.44 245.94 165.543 246.114 165.644 246.29L165.776 246.523C165.873 246.692 165.968 246.862 166.063 247.033L166.186 247.26C166.281 247.435 166.376 247.61 166.469 247.787L166.597 248.034C166.684 248.202 166.771 248.37 166.856 248.539L166.992 248.814C167.074 248.979 167.156 249.145 167.236 249.312L167.368 249.593C167.445 249.757 167.522 249.92 167.598 250.085L167.727 250.374C167.803 250.544 167.879 250.713 167.952 250.884L168.054 251.124C168.134 251.311 168.214 251.499 168.291 251.688L168.375 251.897C168.454 252.093 168.532 252.289 168.609 252.486L168.702 252.733C168.772 252.914 168.841 253.096 168.907 253.279L169.018 253.589C169.079 253.758 169.139 253.928 169.198 254.098L169.298 254.397C169.357 254.571 169.415 254.745 169.472 254.92L169.57 255.232C169.623 255.404 169.678 255.575 169.73 255.749L169.829 256.086C169.876 256.249 169.924 256.411 169.969 256.574L170.065 256.926C170.111 257.096 170.157 257.266 170.202 257.436L170.27 257.709C170.318 257.9 170.366 258.091 170.411 258.282C170.44 258.404 170.467 258.527 170.496 258.649C170.531 258.804 170.567 258.958 170.601 259.112C170.634 259.264 170.664 259.416 170.696 259.568C170.724 259.706 170.754 259.844 170.781 259.983L170.859 260.398C170.887 260.549 170.917 260.701 170.943 260.853C170.967 260.99 170.989 261.128 171.012 261.264C171.038 261.417 171.064 261.57 171.088 261.723L171.153 262.163C171.174 262.308 171.196 262.453 171.216 262.599C171.239 262.764 171.259 262.931 171.279 263.097L171.327 263.477C171.347 263.647 171.363 263.817 171.381 263.988C171.394 264.115 171.409 264.243 171.421 264.371L171.459 264.812C171.473 264.965 171.487 265.117 171.498 265.27L171.523 265.639C171.535 265.816 171.548 265.992 171.557 266.17L171.573 266.52C171.582 266.703 171.591 266.887 171.598 267.071L171.599 267.083C171.609 267.374 171.616 267.666 171.621 267.958L171.621 267.985C171.625 268.281 171.627 268.577 171.626 268.873V268.891C171.624 269.19 171.62 269.49 171.613 269.791L171.612 269.8C171.604 270.104 171.594 270.409 171.58 270.714L171.568 270.957L171.566 271.007L171.556 271.199L171.55 271.299L171.541 271.442L171.532 271.591L171.526 271.683L171.513 271.882L171.492 272.166L171.491 272.174L171.472 272.407L171.468 272.464L171.452 272.647L171.443 272.754L171.43 272.887L171.416 273.042L171.408 273.127L171.402 273.177L171.383 273.366L171.358 273.604L171.356 273.619L171.331 273.843L171.303 274.081L171.29 274.194L171.274 274.319L171.243 274.556L171.216 274.765L171.212 274.793L171.179 275.029L171.176 275.051L171.145 275.265C170.475 279.838 169.121 284.175 167.195 288.176L167.195 288.176Z" fill="#FF5E04"/>
<path id="Vector_20" fill-rule="evenodd" clip-rule="evenodd" d="M165.392 346.167C143.63 403.326 121.867 460.486 100.104 517.646C89.9077 540.747 148.012 569.095 158.153 556.524L243.296 369.331L279.668 361.085C275.369 360.666 270.762 360.131 265.702 359.461L165.392 346.167H165.392Z" fill="#6934D9"/>
<path id="Vector_21" fill-rule="evenodd" clip-rule="evenodd" d="M264.248 279.849L123.138 279.849C106.745 279.849 107.776 338.557 125.972 340.942L265.703 359.461C297.091 363.622 311.077 362.556 341.783 361.029C360.155 343.333 376.691 327.738 393.084 313.037L337.688 279.848L264.247 279.849L264.248 279.849Z" fill="#6934D9"/>
<path id="Vector_22" fill-rule="evenodd" clip-rule="evenodd" d="M294.803 123.617C290.01 124.509 278.489 127.786 268.072 137.342C239.335 139.643 220.546 149.103 206.386 163.469L236.566 275.136L330.757 278.061C361.545 288.285 354.108 314.398 391.342 314.601C397.609 308.96 403.847 303.454 410.15 298.019C433.053 278.268 456.795 259.445 485.89 238.333C483.902 233.92 481.023 229.928 477.972 226.211C476.993 224.238 475.813 222.332 474.422 220.525C438.01 173.188 427.633 132.448 368.762 132.441C362.555 125.391 352.088 118.697 338.793 118.697L294.804 123.617L294.803 123.617Z" fill="#FF0028"/>
<path id="Vector_23" fill-rule="evenodd" clip-rule="evenodd" d="M339.967 126.356C347.805 125.965 360.864 130.983 360.864 138.173C360.864 145.037 355.881 152.453 347.907 158.172C346.974 158.841 345.92 159.067 344.794 158.838C343.669 158.609 342.786 157.99 342.188 157.009L341.667 156.154L341.864 156.051C336.114 159.06 328.368 160.905 319.848 160.905C306.867 160.905 297.611 156.774 292.245 150.262C291.998 152.711 286.093 153.314 284.251 151.223C279.962 140.923 284.077 132.774 295.625 128.973L296.515 134.773L297.225 139.404C298.671 143.604 298.171 158.511 321.967 154.862C345.196 151.3 341.149 135.181 340.716 131.298L340.716 131.296L340.698 131.12L340.23 128.069L339.968 126.355L339.967 126.356Z" fill="#D90324"/>
<path id="Vector_24" d="M346.907 171.436C346.301 171.697 345.598 171.416 345.338 170.81C345.078 170.204 345.358 169.501 345.964 169.241C352.257 166.532 357.554 162.646 361.297 158.375C365.06 154.081 367.236 149.423 367.236 145.237C367.236 144.577 367.772 144.042 368.432 144.042C369.092 144.042 369.628 144.577 369.628 145.237C369.628 150.007 367.233 155.218 363.091 159.944C359.121 164.475 353.528 168.586 346.908 171.436H346.907Z" fill="#D90324"/>
<path id="Vector_25" fill-rule="evenodd" clip-rule="evenodd" d="M315.425 278.754C320.481 280.087 325.104 279.883 332.188 286.19C338.711 291.998 353.771 326.734 376.447 328.206C381.461 323.565 386.411 319.041 391.343 314.603C354.919 314.404 361.238 289.413 332.707 278.754H315.425Z" fill="#2B0087"/>
<path id="Vector_26" fill-rule="evenodd" clip-rule="evenodd" d="M264.571 245.767L267.339 244.521C271.874 242.575 278.445 236.306 283.631 236.386C284.792 236.404 286.093 236.44 287.496 236.49C285.383 237.885 283.376 239.241 281.66 239.977C277.232 242.651 279.916 249.394 285.505 247.319C289.665 245.634 290.935 244.07 298.585 241.051C299.783 240.577 299.596 241.244 299.374 241.347C293.109 244.454 287.065 247.412 281.224 250.589C275.21 253.943 279.401 261.92 285.571 258.583C280.16 260.878 284.382 269.604 291.905 265.242L297.07 263.381C295.188 264.2 294.467 265.559 294.562 266.879L270.519 267.01L264.572 245.767L264.571 245.767Z" fill="#D90324"/>
<g id="_1220799904">
<g id="Group">
<path id="Vector_27" fill-rule="evenodd" clip-rule="evenodd" d="M155.312 267.013H346.483C349.412 267.013 351.809 269.41 351.809 272.339V272.34C351.809 275.269 349.412 277.666 346.483 277.666H160.638C157.708 277.666 155.312 275.269 155.312 272.34V267.014V267.013Z" fill="#E5EEFF"/>
<path id="1" d="M346.483 268.015H155.311V266.013H346.483V268.015ZM352.804 272.34H350.813L350.808 272.118L350.791 271.9L350.764 271.685L350.725 271.473L350.677 271.265L350.619 271.061L350.551 270.862L350.473 270.665L350.387 270.473L350.291 270.288L350.186 270.107L350.073 269.931L349.952 269.761L349.823 269.596L349.687 269.439L349.542 269.288L349.392 269.144L349.234 269.008L349.07 268.878L348.899 268.757L348.723 268.644L348.541 268.539L348.355 268.443L348.164 268.356L347.967 268.277L347.768 268.209L347.562 268.151L347.354 268.103L347.141 268.065L346.925 268.037L346.706 268.02L346.483 268.014V266.012L346.807 266.021L347.127 266.045L347.443 266.085L347.753 266.141L348.058 266.212L348.358 266.298L348.652 266.398L348.938 266.512L349.218 266.639L349.491 266.779L349.755 266.931L350.011 267.096L350.259 267.272L350.498 267.46L350.727 267.659L350.947 267.868L351.155 268.087L351.354 268.317L351.542 268.555L351.719 268.803L351.884 269.06L352.036 269.324L352.177 269.598L352.304 269.878L352.418 270.165L352.518 270.46L352.604 270.76L352.675 271.067L352.731 271.378L352.771 271.694L352.796 272.015L352.804 272.339L352.804 272.34ZM350.813 272.34V272.34H352.804V272.34H350.813ZM346.483 278.667V276.665L346.706 276.66L346.925 276.643L347.141 276.615L347.354 276.577L347.562 276.529L347.768 276.47L347.967 276.402L348.164 276.324L348.355 276.237L348.541 276.141L348.723 276.036L348.899 275.923L349.07 275.801L349.234 275.672L349.392 275.536L349.542 275.392L349.687 275.241L349.823 275.083L349.952 274.919L350.073 274.749L350.186 274.573L350.291 274.391L350.387 274.206L350.473 274.015L350.551 273.818L350.619 273.619L350.677 273.415L350.725 273.207L350.764 272.995L350.791 272.78L350.808 272.562L350.813 272.34H352.804L352.796 272.664L352.771 272.985L352.73 273.3L352.674 273.612L352.603 273.918L352.517 274.219L352.417 274.514L352.303 274.8L352.176 275.081L352.036 275.354L351.883 275.619L351.718 275.875L351.542 276.123L351.354 276.361L351.155 276.591L350.946 276.81L350.727 277.02L350.497 277.218L350.259 277.406L350.011 277.582L349.755 277.747L349.49 277.899L349.218 278.039L348.938 278.166L348.652 278.28L348.357 278.38L348.058 278.466L347.752 278.537L347.442 278.593L347.127 278.633L346.806 278.657L346.483 278.666L346.483 278.667ZM160.638 276.665H346.483V278.667H160.638V276.665ZM154.316 272.34H156.307L156.312 272.563L156.329 272.781L156.357 272.996L156.395 273.208L156.443 273.416L156.501 273.62L156.569 273.819L156.647 274.015L156.733 274.207L156.829 274.392L156.934 274.574L157.047 274.75L157.168 274.92L157.297 275.084L157.433 275.242L157.578 275.393L157.729 275.537L157.886 275.673L158.051 275.802L158.221 275.923L158.397 276.037L158.579 276.142L158.765 276.238L158.956 276.325L159.153 276.403L159.353 276.471L159.558 276.53L159.767 276.578L159.98 276.616L160.196 276.644L160.414 276.661L160.637 276.666V278.668L160.314 278.66L159.993 278.636L159.678 278.595L159.367 278.539L159.062 278.468L158.762 278.382L158.468 278.283L158.182 278.169L157.902 278.042L157.629 277.901L157.365 277.749L157.109 277.585L156.861 277.408L156.623 277.221L156.393 277.022L156.174 276.813L155.965 276.593L155.766 276.364L155.578 276.125L155.401 275.877L155.236 275.621L155.084 275.356L154.943 275.083L154.816 274.802L154.703 274.516L154.602 274.221L154.517 273.92L154.445 273.614L154.39 273.303L154.349 272.987L154.324 272.666L154.316 272.342L154.316 272.34ZM156.307 267.015V272.34H154.316V267.015L155.312 266.013L156.307 267.015ZM154.316 267.015V266.013H155.312L154.316 267.015Z" fill="#C6D6F7"/>
</g>
<g id="Group_2">
<path id="Vector_28" fill-rule="evenodd" clip-rule="evenodd" d="M157.687 267.898H269.727C269.985 267.898 270.206 267.788 270.362 267.583C270.517 267.378 270.564 267.135 270.494 266.887L242.185 165.933C241.405 163.152 238.835 161.336 235.921 161.506L134.245 167.465C132.336 167.577 130.739 168.449 129.627 169.987C128.514 171.525 128.196 173.301 128.706 175.123L153.853 264.99C154.342 266.734 155.875 267.898 157.687 267.898V267.898Z" fill="#E5EEFF"/>
<path id="1_2" d="M269.726 268.893H157.686V266.902H269.726V268.893ZM269.566 266.982L271.155 268.182V268.183L271.126 268.221L271.092 268.262L271.057 268.302L271.021 268.34L270.989 268.375L270.95 268.412L270.91 268.448L270.879 268.476L270.833 268.514L270.79 268.546L270.75 268.575L270.709 268.603L270.664 268.632L270.617 268.66L270.573 268.684L270.525 268.709L270.487 268.727L270.434 268.75L270.376 268.774L270.334 268.789L270.286 268.806L270.23 268.822L270.187 268.834L270.139 268.846L270.081 268.858L270.031 268.867L269.981 268.875L269.933 268.881L269.883 268.886L269.824 268.89L269.776 268.891L269.727 268.892V266.902H269.726H269.725L269.714 266.903L269.71 266.903L269.708 266.904L269.704 266.904L269.699 266.905L269.686 266.908L269.682 266.909L269.683 266.909L269.67 266.913L269.665 266.914L269.649 266.921L269.637 266.927L269.639 266.925L269.63 266.93L269.626 266.932L269.618 266.937L269.61 266.942L269.606 266.945L269.603 266.947L269.596 266.952L269.585 266.96L269.588 266.958L269.582 266.964L269.577 266.968L269.577 266.969L269.572 266.973L269.569 266.977L269.565 266.981L269.565 266.981V266.982H269.566ZM269.533 267.154L271.452 266.618V266.617L271.467 266.67L271.478 266.717L271.487 266.762L271.497 266.818L271.505 266.866L271.511 266.921L271.515 266.969L271.519 267.018L271.521 267.075V267.125L271.519 267.173L271.517 267.232L271.512 267.28L271.507 267.329L271.498 267.387L271.49 267.434L271.48 267.484L271.467 267.541L271.454 267.587L271.439 267.635L271.421 267.691L271.403 267.738L271.385 267.785L271.364 267.83L271.341 267.88L271.318 267.925L271.295 267.968L271.266 268.017L271.242 268.057L271.214 268.098L271.185 268.141L271.155 268.182L269.565 266.982L269.563 266.985L269.561 266.988L269.559 266.99H269.56L269.555 266.998L269.553 267.001L269.552 267.005L269.548 267.013L269.546 267.017L269.544 267.021L269.543 267.026L269.539 267.039L269.537 267.044L269.536 267.047L269.533 267.061L269.531 267.066L269.531 267.069L269.529 267.083L269.529 267.086L269.528 267.09L269.528 267.104L269.527 267.107V267.111L269.528 267.123L269.528 267.125V267.128L269.53 267.138L269.53 267.14L269.532 267.149L269.531 267.148H269.531L269.533 267.154V267.154L269.533 267.154ZM243.143 165.664L271.452 266.618L269.533 267.154L241.224 166.2L243.143 165.664ZM235.979 162.499L235.862 160.512H235.862L236.176 160.5L236.488 160.502L236.797 160.516L237.104 160.543L237.408 160.584L237.706 160.636L238.001 160.701L238.293 160.778L238.58 160.867L238.861 160.967L239.138 161.078L239.409 161.202L239.673 161.335L239.932 161.479L240.184 161.635L240.429 161.8L240.666 161.976L240.895 162.16L241.119 162.356L241.333 162.56L241.538 162.774L241.734 162.997L241.922 163.229L242.099 163.468L242.268 163.717L242.426 163.974L242.573 164.238L242.71 164.509L242.836 164.788L242.95 165.074L243.052 165.366L243.143 165.665L241.224 166.201L241.158 165.984L241.084 165.772L241.002 165.566L240.911 165.366L240.813 165.17L240.706 164.98L240.593 164.796L240.473 164.619L240.345 164.447L240.211 164.281L240.071 164.122L239.924 163.969L239.771 163.823L239.612 163.684L239.447 163.551L239.277 163.425L239.102 163.306L238.922 163.195L238.737 163.092L238.546 162.995L238.352 162.907L238.154 162.827L237.952 162.755L237.745 162.691L237.536 162.636L237.322 162.59L237.105 162.552L236.886 162.523L236.664 162.503L236.438 162.492L236.21 162.491L235.979 162.499H235.98H235.979ZM134.186 166.471L235.862 160.512L235.979 162.5L134.303 168.459L134.186 166.471ZM130.434 170.57L128.818 169.404L128.939 169.242L129.065 169.082L129.193 168.928L129.324 168.778L129.459 168.632L129.598 168.489L129.74 168.352L129.885 168.218L130.034 168.089L130.185 167.966L130.34 167.846L130.498 167.731L130.659 167.62L130.823 167.515L130.99 167.414L131.159 167.319L131.331 167.228L131.507 167.141L131.684 167.06L131.863 166.985L132.045 166.914L132.229 166.848L132.418 166.787L132.607 166.732L132.796 166.682L132.989 166.636L133.186 166.596L133.381 166.561L133.58 166.531L133.781 166.505L133.983 166.486L134.186 166.471L134.303 168.459L134.151 168.469L134 168.484L133.852 168.502L133.706 168.525L133.561 168.55L133.421 168.579L133.281 168.612L133.142 168.649L133.006 168.688L132.874 168.731L132.742 168.779L132.612 168.829L132.485 168.883L132.359 168.94L132.237 169L132.115 169.065L131.995 169.133L131.878 169.203L131.762 169.277L131.648 169.355L131.537 169.436L131.428 169.521L131.319 169.61L131.213 169.702L131.109 169.798L131.006 169.897L130.906 169.999L130.808 170.105L130.712 170.216L130.617 170.33L130.525 170.447L130.435 170.569L130.434 170.57ZM129.665 174.855L127.745 175.391L127.693 175.195L127.646 174.999L127.605 174.803L127.57 174.607L127.54 174.411L127.515 174.215L127.495 174.018L127.482 173.822L127.474 173.626L127.472 173.432L127.475 173.237L127.484 173.043L127.498 172.849L127.519 172.656L127.544 172.464L127.576 172.273L127.613 172.082L127.656 171.893L127.704 171.705L127.758 171.519L127.817 171.333L127.882 171.149L127.951 170.967L128.027 170.786L128.108 170.606L128.194 170.429L128.285 170.252L128.382 170.078L128.483 169.908L128.59 169.737L128.702 169.568L128.818 169.403L130.434 170.568L130.347 170.692L130.264 170.816L130.186 170.941L130.111 171.068L130.041 171.194L129.976 171.32L129.913 171.448L129.856 171.575L129.803 171.703L129.753 171.834L129.707 171.964L129.666 172.093L129.628 172.226L129.594 172.357L129.564 172.489L129.539 172.622L129.517 172.756L129.499 172.89L129.485 173.025L129.475 173.16L129.469 173.297L129.466 173.435L129.468 173.573L129.473 173.712L129.483 173.852L129.497 173.992L129.515 174.133L129.537 174.276L129.563 174.419L129.593 174.564L129.627 174.708L129.666 174.853L129.665 174.855ZM152.893 265.257L127.745 175.391L129.665 174.855L154.812 264.722L152.893 265.257ZM157.687 266.902V268.893L157.477 268.888L157.271 268.876L157.065 268.855L156.862 268.827L156.66 268.789L156.462 268.744L156.268 268.692L156.074 268.632L155.886 268.564L155.7 268.49L155.517 268.407L155.339 268.317L155.167 268.221L154.997 268.117L154.832 268.007L154.672 267.89L154.516 267.767L154.365 267.637L154.22 267.502L154.08 267.361L153.946 267.213L153.818 267.061L153.695 266.903L153.578 266.738L153.469 266.57L153.366 266.397L153.269 266.217L153.179 266.034L153.097 265.846L153.022 265.654L152.954 265.458L152.894 265.258L154.813 264.722L154.851 264.846L154.892 264.966L154.938 265.084L154.988 265.198L155.043 265.309L155.1 265.416L155.162 265.52L155.229 265.622L155.298 265.718L155.371 265.813L155.448 265.905L155.527 265.991L155.611 266.076L155.697 266.156L155.786 266.233L155.877 266.305L155.972 266.374L156.07 266.439L156.17 266.501L156.275 266.558L156.381 266.612L156.487 266.66L156.598 266.704L156.711 266.745L156.826 266.781L156.944 266.812L157.063 266.84L157.183 266.861L157.307 266.879L157.432 266.892L157.56 266.899L157.688 266.902H157.687Z" fill="#C6D6F7"/>
</g>
<path id="Vector_29" fill-rule="evenodd" clip-rule="evenodd" d="M270.777 266.703H341.452C341.934 266.703 342.329 266.308 342.329 265.825V265.824C342.329 265.342 341.934 264.947 341.452 264.947H270.279L270.777 266.703V266.703Z" fill="#C6D6F7" stroke="#C6D6F7" stroke-width="0.79633" stroke-miterlimit="22.9256"/>
<path id="Vector_30" d="M270.776 267.898V274.368" stroke="#C6D6F7" stroke-width="1.99035" stroke-miterlimit="22.9256" stroke-linecap="round" stroke-linejoin="round"/>
<path id="Vector_31" d="M276.417 273.533H290.433" stroke="#C6D6F7" stroke-width="1.99035" stroke-miterlimit="22.9256" stroke-linecap="round" stroke-linejoin="round"/>
<g id="Group_3">
<path id="Vector_32" d="M295.306 274.53C294.756 274.53 294.311 274.083 294.311 273.532C294.311 272.981 294.756 272.534 295.306 272.534V274.53ZM305.651 274.53H295.306V272.534H305.651V274.53ZM305.651 272.534C306.201 272.534 306.647 272.981 306.647 273.532C306.647 274.083 306.201 274.53 305.651 274.53V272.534Z" fill="#C6D6F7"/>
</g>
</g>
<path id="Vector_33" fill-rule="evenodd" clip-rule="evenodd" d="M336.138 232.77L355.628 232.703V267.334C353.743 267.369 352.435 267.204 347.62 267.941C335.84 269.746 314.976 266.337 301.187 270.151C295.712 272.361 291.739 265.699 297.067 263.382L291.902 265.243C284.379 269.606 280.157 260.879 285.569 258.585C279.398 261.922 275.207 253.944 281.222 250.591C287.062 247.413 293.106 244.455 299.372 241.349C299.593 241.246 299.781 240.579 298.582 241.052C290.933 244.072 289.662 245.636 285.502 247.321C279.913 249.395 277.229 242.653 281.658 239.978C286.193 238.032 292.765 231.763 297.949 231.844C308.673 232.01 331.36 232.088 336.137 232.769L336.138 232.77Z" fill="#EBA884"/>
<path id="Vector_34" d="M288.327 256.993L307.323 247.394" stroke="#C98560" stroke-width="1.18213" stroke-miterlimit="22.9256" stroke-linecap="round" stroke-linejoin="round"/>
<path id="Vector_35" d="M351.037 262.471C348.173 261.237 347.876 258.212 348.91 255.818" stroke="#C98560" stroke-width="1.18213" stroke-miterlimit="22.9256" stroke-linecap="round" stroke-linejoin="round"/>
<path id="Vector_36" d="M304.392 260.339L310.874 257.762" stroke="#C98560" stroke-width="1.18213" stroke-miterlimit="22.9256" stroke-linecap="round" stroke-linejoin="round"/>
<path id="Vector_37" d="M311.615 265.078C309.514 263.25 308.705 259.689 310.908 257.749" stroke="#C98560" stroke-width="1.18213" stroke-miterlimit="22.9256" stroke-linecap="round" stroke-linejoin="round"/>
<path id="Vector_38" d="M305.518 254.532C304.156 252.103 304.595 248.478 307.323 247.394" stroke="#C98560" stroke-width="1.18213" stroke-miterlimit="22.9256" stroke-linecap="round" stroke-linejoin="round"/>
<path id="Vector_39" fill-rule="evenodd" clip-rule="evenodd" d="M362.846 267.333H355.629V232.702L362.572 232.72C362.26 234.202 362.112 235.741 362.148 237.319C362.382 247.323 362.606 257.329 362.847 267.333H362.846Z" fill="#D90324"/>
<path id="Vector_40" fill-rule="evenodd" clip-rule="evenodd" d="M342.525 62.3881L342.526 62.3929L345.099 83.2692C347.406 101.794 334.259 118.68 315.735 120.987C297.211 123.295 280.325 110.148 278.018 91.6235L275.573 71.9897L275.222 69.1764L272.342 46.0486C268.963 39.7626 278.363 24.3289 286.592 24.9511C291.683 26.7036 298.562 26.9338 304.081 25.6489C308.181 24.6937 311.555 23.0345 313.185 21.6644C316.663 18.7398 335.942 36.5816 339.6 38.4307C340.319 43.6111 341.375 52.4021 342.461 62.087C342.475 62.195 342.497 62.2953 342.525 62.3886L342.525 62.3881Z" fill="#EBA884"/>
<path id="Vector_41" fill-rule="evenodd" clip-rule="evenodd" d="M345.433 56.4024C347.586 56.1346 349.966 58.2367 350.31 60.9982L351.279 68.7793C351.982 74.4226 347.955 79.5474 342.319 80.2495L339.495 57.1421L345.433 56.4024Z" fill="#EBA884"/>
<path id="Vector_42" fill-rule="evenodd" clip-rule="evenodd" d="M272.342 46.0485L274.341 62.1064L274.691 64.9202C274.691 64.9202 266.581 67.4961 266.1 57.8593C265.618 48.2225 262.007 47.5503 264.9 38.618C267.793 29.6862 269.517 27.2135 274.207 24.4544C274.02 22.8741 267.639 12.6407 274.544 3.74645C281.45 -5.14827 291.791 4.50901 291.612 5.10126C291.432 5.69399 309.569 3.50527 322.574 8.70473C335.58 13.9042 343.237 21.0883 345.293 35.9074C347.349 50.7266 347.289 47.4542 347.933 59.5357C348.117 63.0055 338.341 65.8759 337.999 63.1301L332.453 41.2415C328.796 39.3929 313.046 27.1835 309.568 30.1076C307.937 31.4777 304.564 33.1374 300.464 34.0921C294.945 35.377 288.066 35.1468 282.974 33.3948C274.745 32.7716 272.341 46.0495 272.341 46.0495L272.342 46.0485Z" fill="#241813"/>
<path id="Vector_43" fill-rule="evenodd" clip-rule="evenodd" d="M346.028 135.675C347.269 137.621 347.95 139.737 347.947 141.95C347.938 151.478 335.288 159.186 319.694 159.168C304.1 159.149 291.466 151.41 291.475 141.884C291.477 139.67 292.162 137.556 293.407 135.612L296.645 135.616L297.226 139.404C298.672 143.604 298.172 158.511 321.968 154.862C339.806 152.126 341.559 141.987 341.216 135.669L346.027 135.675H346.028Z" fill="#AD041E"/>
<path id="Vector_44" fill-rule="evenodd" clip-rule="evenodd" d="M337.355 109.326L340.229 128.07L340.697 131.121L340.715 131.296L340.716 131.298C341.148 135.182 345.195 151.3 321.966 154.863C298.17 158.512 298.67 143.605 297.224 139.405L296.514 134.774L293.647 116.078C300.278 120.238 308.377 122.128 316.722 120.848C325.093 119.565 332.272 115.312 337.355 109.326V109.326Z" fill="#EBA884"/>
<path id="Vector_45" d="M324.398 48.2863C319.873 46.716 315.395 44.8683 310.552 44.7142C308.699 44.6552 306.606 43.0835 305.769 41.4913C304.938 39.9096 305.849 38.8687 307.502 38.9234C312.94 39.0956 318.019 41.085 323.097 42.8471C324.805 43.4403 326.827 44.7199 327.286 46.618C327.716 48.4195 325.673 48.7282 324.398 48.2863Z" fill="#241813"/>
<path id="Vector_46" d="M293.07 50.5348C288.572 51.3193 286.829 51.7945 281.937 53.3044C279.775 53.9399 277.038 55.9479 276.23 58.1337C275.354 60.5127 278.33 60.0285 279.601 59.6551C283.287 57.5596 285.03 57.0839 289.528 56.2994C291.829 55.8979 294.777 54.7962 296.075 52.6912C297.358 50.6052 294.434 50.296 293.071 50.5348H293.07Z" fill="#241813"/>
<path id="Vector_47" fill-rule="evenodd" clip-rule="evenodd" d="M337.355 109.326L339.072 120.522C335.015 132.902 305.06 142.436 293.667 116.123C299.866 119.996 307.355 121.89 315.16 121.051L315.549 121.008L315.734 120.987L315.98 120.953L316.387 120.898L316.721 120.848L316.781 120.839L317.304 120.753L317.52 120.716C317.773 120.671 318.025 120.624 318.276 120.573L318.302 120.568L318.332 120.562C326.013 119.006 332.601 114.924 337.354 109.326H337.355Z" fill="#C98560"/>
<path id="Vector_48" d="M266.24 11.6196C266.424 10.9084 266.631 10.6315 267.231 10.5273C267.756 10.4536 268.067 10.828 268.141 11.3532C268.145 11.3879 268.918 24.1977 275.693 24.7167C276.221 24.7557 276.618 25.2157 276.579 25.7437C276.54 26.2722 274.358 28.4243 273.83 28.3858C265.498 27.7469 265.676 13.842 266.239 11.6196H266.24Z" fill="#241813"/>
<path id="Vector_49" d="M300.104 70.4921C301.219 74.9347 301.923 79.4639 303.08 83.9031C303.714 86.3268 303.088 89.1202 304.266 91.3417C304.963 92.668 307.336 94.108 309.045 94.0085C309.635 93.9733 309.192 94.6555 309.019 94.8244C308.604 95.2316 308.047 95.527 307.466 95.5603C305.771 95.6587 303.328 94.6089 302.503 93.294C301.178 91.1738 301.808 88.3186 301.144 85.9282C299.845 81.262 299.148 76.4793 297.97 71.7903C297.771 70.993 299.974 69.9659 300.104 70.4921Z" fill="black"/>
<path id="Vector_50" d="M346.815 66.1528C346.815 66.1528 349.012 73.0482 345.352 75.1479" stroke="#C98560" stroke-width="1.17452" stroke-miterlimit="22.9256" stroke-linecap="round" stroke-linejoin="round"/>
<path id="Vector_51" d="M284.281 73.8131C284.704 75.8277 286.683 77.1174 288.697 76.694C290.715 76.2696 292.002 74.2931 291.579 72.2785C291.155 70.2624 289.18 68.9723 287.162 69.3967C285.149 69.82 283.857 71.7975 284.281 73.8136V73.8131Z" fill="black"/>
<path id="Vector_52" d="M312.391 68.2319C312.815 70.247 314.79 71.5371 316.807 71.1128C318.824 70.6885 320.113 68.7119 319.69 66.6973C319.266 64.6813 317.29 63.3916 315.272 63.8155C313.255 64.2398 311.967 66.2159 312.391 68.2319Z" fill="black"/>
<path id="Vector_53" d="M311.557 108.73C312.703 108.143 313.848 107.557 314.993 106.971C315.583 106.67 315.759 108.864 315.178 109.161C314.032 109.748 312.887 110.334 311.746 110.918C311.152 111.222 310.98 109.025 311.557 108.73H311.557Z" fill="black"/>
<path id="Vector_54" d="M320.31 93.7168C321.043 98.8453 318.165 104.637 311.353 106.095C304.54 107.553 298.799 105.079 295.809 101.716C295.019 100.733 296.617 99.1407 297.455 100.187C300.861 100.64 318.915 98.832 318.263 94.2776C318.082 93.017 320.103 92.2844 320.31 93.7168Z" fill="black"/>
<path id="Vector_55" fill-rule="evenodd" clip-rule="evenodd" d="M298.491 101.852C302.578 102.002 313.304 101.833 319.314 96.4385C318.447 100.609 309.908 109.45 298.491 101.852Z" fill="white"/>
<path id="Vector_56" d="M321.706 173.928C321.817 173.278 322.434 172.841 323.084 172.952C323.734 173.063 324.171 173.68 324.06 174.329C323.324 178.595 324.331 181.928 325.442 185.605C326.661 189.643 328 194.073 327.513 200.582C327.285 203.641 326.999 206.191 326.666 208.377C327.201 208.995 327.428 209.862 327.193 210.703L324.908 218.874C324.675 219.706 324.043 220.325 323.277 220.581L322.917 221.465C322.459 222.587 321.988 223.742 321.563 224.885C321.334 225.501 320.648 225.815 320.032 225.586C319.416 225.357 319.102 224.67 319.331 224.054C319.831 222.707 320.274 221.622 320.704 220.569L320.883 220.131C320.146 219.516 319.792 218.501 320.066 217.521L322.351 209.35C322.623 208.38 323.436 207.7 324.373 207.546C324.669 205.523 324.925 203.182 325.132 200.405C325.585 194.346 324.313 190.135 323.154 186.297C321.958 182.339 320.875 178.752 321.707 173.928L321.706 173.928Z" fill="#FF5E04"/>
<path id="Vector_57" d="M303.387 173.772C303.498 173.119 304.119 172.679 304.772 172.79C305.425 172.901 305.865 173.522 305.754 174.175C304.887 179.197 302.279 184.798 299.431 190.916C296.911 196.327 294.198 202.152 292.403 208.204C290.526 214.529 287.662 218.474 284.592 221.489C284.728 222.334 284.431 223.23 283.731 223.818L277.237 229.278C276.593 229.819 275.751 229.98 274.989 229.784C273.342 231.532 272.001 233.56 271.217 236.29C271.035 236.928 270.371 237.298 269.732 237.116C269.094 236.935 268.724 236.27 268.906 235.632C269.829 232.415 271.364 230.098 273.23 228.131C272.925 227.187 273.197 226.105 274.001 225.429L280.496 219.969C281.241 219.343 282.25 219.226 283.093 219.58C285.865 216.796 288.426 213.175 290.101 207.527C291.957 201.27 294.702 195.376 297.252 189.901C300.032 183.931 302.578 178.464 303.387 173.772L303.387 173.772Z" fill="#FF5E04"/>
<path id="Vector_58" d="M285.865 164.73C286.409 165.099 286.552 165.839 286.183 166.384C285.814 166.928 285.074 167.07 284.529 166.701C280.143 163.721 276.557 160.194 274.062 156.528C271.526 152.8 270.098 148.901 270.073 145.243C270.07 144.585 270.601 144.049 271.259 144.047C271.917 144.045 272.453 144.575 272.455 145.233C272.477 148.398 273.758 151.838 276.034 155.184C278.37 158.616 281.738 161.926 285.866 164.731L285.865 164.73Z" fill="#D90324"/>
<path id="Vector_59" fill-rule="evenodd" clip-rule="evenodd" d="M486.055 238.215C483.349 231.812 478.853 226.283 474.423 220.526C472.888 218.531 471.403 216.549 469.956 214.58C468.153 215.497 466.417 216.529 464.757 217.663H464.757L464.711 217.695L464.241 218.021L464.099 218.121C463.943 218.232 463.788 218.343 463.633 218.456L463.558 218.511C462.649 219.174 461.765 219.869 460.908 220.595L460.832 220.659L460.372 221.055L460.289 221.127L459.854 221.513L459.736 221.62C459.598 221.744 459.46 221.869 459.324 221.995L459.196 222.115C459.054 222.249 458.91 222.383 458.768 222.519L458.763 222.524C457.936 223.314 457.138 224.136 456.37 224.985L456.307 225.054C456.17 225.206 456.035 225.358 455.901 225.511L455.827 225.596C455.701 225.74 455.577 225.883 455.453 226.029L455.332 226.172C455.21 226.316 455.089 226.461 454.969 226.606L454.911 226.677C454.777 226.84 454.643 227.005 454.511 227.17L454.502 227.182C453.935 227.891 453.389 228.617 452.863 229.359L452.81 229.434C452.694 229.598 452.58 229.762 452.467 229.927L452.392 230.035C452.284 230.193 452.178 230.351 452.072 230.51L451.979 230.652L451.675 231.119L451.588 231.255C451.484 231.417 451.382 231.58 451.28 231.744L451.22 231.841C451.113 232.015 451.006 232.189 450.902 232.363L450.889 232.384C450.555 232.942 450.233 233.508 449.921 234.081L449.838 234.234L449.593 234.695L449.491 234.891L449.26 235.342L449.151 235.559L448.937 235.994L448.813 236.252L448.621 236.658L448.486 236.951L448.31 237.338L448.181 237.632L448.005 238.034L448.005 238.035C447.911 238.253 447.82 238.472 447.73 238.692L447.576 239.076L447.449 239.394L447.31 239.756L447.177 240.108L447.041 240.48L446.917 240.825L446.783 241.212L446.672 241.54L446.545 241.923L446.429 242.283L446.312 242.655L446.199 243.032L446.092 243.393L445.983 243.775C445.928 243.972 445.874 244.17 445.821 244.369L445.695 244.849L445.617 245.163L445.51 245.602L445.434 245.931L445.336 246.361L445.259 246.722L445.175 247.131L445.108 247.464L445.027 247.895L444.96 248.26L444.886 248.694L444.833 249.012C444.807 249.175 444.783 249.339 444.758 249.503L444.713 249.806C444.676 250.062 444.642 250.32 444.609 250.578L444.597 250.687C444.568 250.913 444.542 251.139 444.518 251.366L444.489 251.647C444.473 251.808 444.456 251.97 444.441 252.131L444.411 252.476L444.373 252.944L444.35 253.277L444.32 253.754L444.302 254.077L444.28 254.574L444.268 254.885L444.254 255.396L444.247 255.699C444.242 255.965 444.24 256.232 444.24 256.501L444.243 256.975L444.243 257.025L444.25 257.482L444.251 257.508L444.263 257.968L444.265 258.04L444.28 258.458L444.282 258.51L444.286 258.605L444.3 258.896L444.31 259.085L444.311 259.107L444.33 259.43L444.334 259.507L444.337 259.539L444.368 260V260.004L444.399 260.396L444.407 260.497L444.415 260.58L444.447 260.938L444.451 260.99L444.456 261.036L444.488 261.356L444.491 261.388L444.514 261.602L444.522 261.675L444.555 261.972L444.558 261.993L444.606 262.392L444.625 262.542L444.668 262.87L444.678 262.944L444.678 262.948L444.723 263.259L444.733 263.326L444.758 263.502L444.812 263.849L444.818 263.889L444.822 263.918L444.869 264.202L444.876 264.245L444.916 264.485L444.921 264.515L444.976 264.827L445.011 265.021L445.053 265.247L445.088 265.432L445.092 265.45L445.153 265.76L445.204 266.01L445.227 266.125L445.281 266.378L445.348 266.686L445.354 266.714L445.412 266.974L445.421 267.013L445.488 267.3L445.56 267.605L445.624 267.863L445.654 267.984L445.787 268.502L445.793 268.523L445.814 268.6C458.263 258.778 471.49 248.784 486.058 238.216L486.055 238.215Z" fill="#FF5E04"/>
<path id="Vector_60" fill-rule="evenodd" clip-rule="evenodd" d="M60.8097 625.245C58.5016 604.071 87.6917 588.364 106.137 576.149C110.277 573.14 128.245 570.083 141.357 579.157C147.275 579.716 151.446 577.15 151.816 572.057L153.108 570.321C153.778 571.86 154.717 573.908 155.671 576.66C154.781 574.237 153.865 572.268 153.003 571.059C154.75 575.072 158.433 581.833 159.332 596.22V596.221L159.373 596.911C160.195 611.774 152.419 609.715 130.115 627.102C107.81 644.49 59.9182 634.748 60.8092 625.245H60.8097Z" fill="#E5EEFF"/>
<path id="Vector_61" fill-rule="evenodd" clip-rule="evenodd" d="M156.415 578.95C157.728 583.302 158.943 589.114 159.374 596.91C159.873 605.918 157.212 608.71 150.073 613.383C153.618 598.976 151.093 582.058 156.416 578.95L156.415 578.95Z" fill="#C5D2EB"/>
<path id="Vector_62" d="M145.953 603.867C145.931 603.539 146.179 603.254 146.508 603.232C146.836 603.21 147.121 603.459 147.143 603.787L147.492 608.855C147.514 609.183 147.266 609.467 146.937 609.489C146.609 609.511 146.324 609.263 146.302 608.934L145.953 603.867ZM143.432 605.868C143.41 605.539 143.658 605.255 143.987 605.233C144.315 605.211 144.6 605.46 144.622 605.788L144.971 610.855C144.993 611.184 144.745 611.468 144.416 611.49C144.088 611.512 143.804 611.264 143.782 610.935L143.432 605.868Z" fill="#868CB5"/>
<path id="Vector_63" fill-rule="evenodd" clip-rule="evenodd" d="M123.06 588.52C123.399 589.756 122.206 590.96 120.396 591.21C118.586 591.46 116.843 590.66 116.504 589.425C116.292 588.652 116.679 587.893 117.44 587.37C116.104 586.141 113.902 585.096 111.47 584.435C108.983 583.76 106.303 583.5 104.093 583.863C103.678 583.931 103.282 584.021 102.91 584.134C102.979 584.234 103.034 584.338 103.071 584.447C103.41 585.434 102.218 586.396 100.407 586.595C99.6813 586.675 98.9664 586.62 98.3484 586.462L98.2523 586.527C97.1534 587.278 96.0793 588.013 95.0318 588.732C96.1783 588.734 97.3656 588.852 98.5425 589.075C101.07 589.556 103.579 590.524 105.551 591.855C106.756 592.668 107.772 593.624 108.495 594.7C109.978 594.752 111.266 595.483 111.553 596.527C111.892 597.763 110.699 598.967 108.889 599.217C108.21 599.311 107.541 599.257 106.952 599.088L102.374 603.519C102.138 603.748 101.761 603.743 101.532 603.507C101.303 603.272 101.308 602.894 101.543 602.665L105.807 598.539C105.404 598.24 105.115 597.862 104.997 597.432C104.781 596.645 105.186 595.872 105.975 595.349C105.492 594.807 104.893 594.301 104.212 593.842C102.506 592.69 100.318 591.849 98.103 591.427C95.9057 591.009 93.706 591.005 91.9569 591.521C91.6614 591.608 91.3798 591.71 91.1149 591.827C91.3299 592.013 91.485 592.224 91.5644 592.454C91.9036 593.441 90.711 594.403 88.9004 594.602C88.1916 594.68 87.4938 594.63 86.8858 594.481C84.5235 596.222 82.3704 597.908 80.451 599.583C80.2036 599.799 79.8273 599.774 79.6114 599.527C79.3954 599.28 79.4201 598.903 79.6675 598.687C81.4647 597.118 83.456 595.546 85.6228 593.933C85.3222 593.718 85.1067 593.462 85.0082 593.176C84.6691 592.189 85.8616 591.228 87.6717 591.028C87.8092 591.013 87.9462 591.003 88.0818 590.998C88.9323 590.178 90.0302 589.595 91.2823 589.226C91.7257 589.095 92.1904 588.992 92.6704 588.913C94.0894 587.932 95.5598 586.926 97.0778 585.888C96.8043 585.681 96.6083 585.439 96.516 585.17C96.1768 584.183 97.3694 583.221 99.1795 583.022C99.3997 582.998 99.6186 582.986 99.834 582.986C100.816 582.284 102.031 581.821 103.38 581.562C104.565 580.742 105.776 579.899 107.01 579.031C107.279 578.842 107.651 578.907 107.841 579.176C108.03 579.446 107.965 579.818 107.696 580.007C107.069 580.448 106.446 580.884 105.83 581.314C107.864 581.266 110.051 581.566 112.098 582.122C114.906 582.885 117.499 584.148 119.125 585.671C119.474 585.998 119.782 586.34 120.042 586.695C121.509 586.759 122.777 587.487 123.06 588.522L123.06 588.52Z" fill="#868CB5"/>
<path id="Vector_64" d="M117.15 628.739C117.466 628.646 117.797 628.827 117.89 629.143C117.983 629.459 117.802 629.79 117.486 629.882C109.171 632.353 98.8312 633.424 89.2776 633.007C82.3713 632.706 75.8627 631.626 70.8103 629.735C65.6456 627.802 61.9717 625.006 60.8719 621.304C60.6135 620.433 60.4979 619.514 60.5403 618.548C60.5541 618.22 60.8319 617.965 61.1606 617.978C61.4888 617.992 61.7438 618.27 61.73 618.599C61.6939 619.429 61.7933 620.219 62.0154 620.967C62.9973 624.272 66.4062 626.817 71.2256 628.62C76.1572 630.466 82.5393 631.522 89.329 631.818C98.7575 632.229 108.955 631.173 117.15 628.739ZM158.288 595.112C158.347 595.435 158.133 595.745 157.81 595.805C157.486 595.864 157.176 595.65 157.116 595.327C156.713 593.124 156.113 591.844 155.434 591.345C155.101 591.101 154.73 591.085 154.35 591.273C153.859 591.516 153.341 592.054 152.831 592.851C151.007 595.7 149.511 601.525 149.755 608.861C149.842 611.506 141.679 616.5 134.358 620.978C130.713 623.207 127.28 625.307 125.252 626.854C124.991 627.053 124.616 627.003 124.417 626.742C124.218 626.481 124.268 626.107 124.529 625.907C126.605 624.323 130.064 622.207 133.737 619.961C140.779 615.654 148.63 610.851 148.566 608.898C148.313 601.307 149.899 595.221 151.828 592.208C152.454 591.228 153.135 590.544 153.823 590.205C154.621 589.811 155.412 589.852 156.138 590.385C157.053 591.057 157.824 592.586 158.288 595.113V595.112Z" fill="#868CB5"/>
<path id="Vector_65" fill-rule="evenodd" clip-rule="evenodd" d="M132.784 563.015C115.408 562.107 105.712 559.613 106.138 576.148C106.255 576.035 106.425 575.926 106.644 575.821C111.577 572.933 128.721 570.412 141.358 579.155C141.706 570.914 143.174 564.226 132.784 563.015Z" fill="#868CB5"/>
<path id="Vector_66" d="M166.173 347.471L101.22 518.07C97.511 527.811 104.804 537.505 115.244 544.939C119.501 547.97 124.278 550.622 129.061 552.753C133.843 554.883 138.625 556.493 142.897 557.442C145.407 558 147.725 558.337 149.736 558.425L237.996 356.99L166.172 347.471H166.173ZM98.9895 517.222L164.278 345.743C164.471 345.24 164.989 344.914 165.547 344.987L265.857 358.281C268.28 358.602 270.692 358.902 273.107 359.183C275.498 359.46 277.708 359.699 279.754 359.898C280.264 359.934 280.713 360.299 280.831 360.824C280.975 361.466 280.571 362.103 279.93 362.247L244.138 370.362L159.24 557.014C157.442 561.004 150.755 561.625 142.384 559.766C137.955 558.782 133.014 557.121 128.09 554.926C123.167 552.733 118.249 550.002 113.864 546.88C102.601 538.86 94.8014 528.223 98.9895 517.221V517.222Z" fill="#2B0087"/>
<path id="Vector_67" fill-rule="evenodd" clip-rule="evenodd" d="M321.074 281.034C353.774 294.713 350.02 350.41 317.969 360.95C301.28 361.535 287.852 361.195 265.857 358.28L126.126 339.761C119.823 338.935 115.71 330.305 113.853 319.918C112.958 314.911 112.6 309.521 112.779 304.385C112.959 299.268 113.671 294.397 114.918 290.406C116.664 284.817 119.417 281.043 123.138 281.043V281.039L273.642 281.035C286.825 281.82 290.472 288.347 296.667 299.442L296.782 299.648C297.102 300.222 297.827 300.429 298.401 300.11C298.976 299.79 299.182 299.065 298.863 298.491L298.748 298.285C294.126 290.006 290.833 284.114 284.356 281.035L321.075 281.034L321.074 281.034ZM332.373 278.654L332.452 278.657C332.67 278.737 332.884 278.819 333.097 278.9L333.108 278.909C361.173 289.652 355.092 314.404 391.342 314.601L342.065 360.757L340.476 362.287L336.574 362.482C309.354 363.855 295.193 364.57 265.548 360.641L125.817 342.122L125.78 342.116C118.273 341.103 113.524 331.658 111.501 320.337C110.581 315.19 110.213 309.628 110.399 304.31C110.586 298.973 111.333 293.882 112.641 289.696C114.7 283.104 118.184 278.654 123.138 278.654H123.283C192.989 278.654 262.672 278.655 332.373 278.655V278.654Z" fill="#2B0087"/>
<path id="Vector_68" fill-rule="evenodd" clip-rule="evenodd" d="M380.501 313.633L403.56 290.954C404.986 289.552 406.604 288.488 408.294 287.685C399.945 287.966 391.598 288.195 383.419 288.195C377.906 288.321 372.844 286.176 369.126 282.623C365.405 279.066 363.024 274.097 362.877 268.578C362.624 258.159 362.392 247.739 362.149 237.319C362.02 231.782 364.166 226.705 367.725 222.976C371.291 219.239 376.282 216.851 381.829 216.702L399.612 216.226L392.213 206.01C391.826 205.477 391.945 204.73 392.479 204.345C393.012 203.958 393.759 204.077 394.145 204.611L402.502 216.148L426.339 215.509C426.996 215.494 427.541 216.014 427.556 216.671C427.571 217.328 427.051 217.873 426.394 217.888L381.885 219.081C376.998 219.212 372.598 221.321 369.451 224.619C366.309 227.911 364.414 232.39 364.527 237.272C364.77 247.689 365.003 258.106 365.255 268.522C365.385 273.38 367.485 277.759 370.768 280.896C374.05 284.033 378.513 285.926 383.37 285.816L425.93 284.675L424.515 285.85C424.583 285.868 424.638 285.884 424.676 285.899L391.342 314.601C387.216 314.579 383.643 314.235 380.501 313.633H380.501Z" fill="#D90324"/>
<path id="Vector_69" d="M60.2127 625.253C58.1862 606.215 80.8588 591.685 98.9765 580.077C101.357 578.551 103.66 577.076 105.788 575.667C108.316 573.829 115.773 571.968 124.171 572.685C129.92 573.176 136.138 574.865 141.564 578.577L141.795 578.595C144.473 578.788 146.741 578.303 148.38 577.205C149.982 576.13 150.994 574.448 151.207 572.22L151.223 572.008C151.234 571.878 151.285 571.761 151.365 571.668L152.631 569.967C152.827 569.703 153.2 569.648 153.464 569.844C153.55 569.909 153.615 569.991 153.655 570.084L153.94 570.734C155.49 574.261 158.069 580.132 159.356 590.119C160.062 593.628 160.577 597.105 160.787 600.102C161.43 627.113 150.562 617.556 131.593 634.607C113.055 651.269 57.5388 651.289 60.5177 626.98C60.2751 626.412 60.1694 625.835 60.2137 625.253H60.2127ZM99.6206 581.08C81.7603 592.524 59.4045 606.849 61.4025 625.183V625.3C61.3378 625.994 61.6075 626.71 62.165 627.425C63.6017 629.268 66.8298 631.041 71.1977 632.505C75.6337 633.992 81.2142 635.142 87.2756 635.71C101.709 637.064 118.849 635.131 129.749 626.634C136.75 621.177 142.322 617.63 146.649 614.877C155.91 608.983 159.324 606.808 158.779 596.944C158.021 583.261 154.837 575.743 152.975 571.499L152.398 572.274L152.392 572.324C152.145 574.936 150.944 576.917 149.042 578.193C147.181 579.441 144.657 579.996 141.714 579.785L141.314 579.75C141.212 579.743 141.11 579.709 141.02 579.647C135.759 576.007 129.689 574.354 124.073 573.874C115.963 573.182 108.854 574.913 106.488 576.632L106.467 576.646C104.291 578.087 101.995 579.558 99.6206 581.08V581.08Z" fill="#868CB5"/>
<path id="Vector_70" d="M347.803 55.3689C348.351 55.3922 348.775 55.8555 348.752 56.4026C348.728 56.9501 348.265 57.3749 347.718 57.3512L326.729 56.3821C326.181 56.3588 325.756 55.8955 325.78 55.3484C325.804 54.8009 326.267 54.3761 326.814 54.3999L347.803 55.3689Z" fill="#160045"/>
<path id="Vector_71" d="M302.809 65.1489C301.241 64.5443 299.797 64.4653 298.461 64.7669C297.096 65.0747 295.817 65.7811 294.612 66.733L293.383 65.178C294.81 64.051 296.348 63.2085 298.025 62.8304C299.731 62.4455 301.557 62.5402 303.524 63.298L302.809 65.1485V65.1489Z" fill="#160045"/>
<path id="Vector_72" d="M314.093 52.662C320.802 51.3719 324.528 52.3404 326.698 54.1629C328.934 56.0405 329.442 58.6759 329.844 60.7699C330.24 62.8274 330.83 65.8971 329.591 68.8874C328.352 71.8762 325.331 74.6548 318.572 75.9554C304.888 78.5875 303.282 70.2417 302.472 66.0331L302.452 65.9318C302.054 63.8563 301.586 61.2671 302.943 58.7363C304.284 56.236 307.385 53.9517 314.093 52.6616L314.093 52.662ZM325.423 55.6866C323.664 54.2095 320.468 53.4588 314.467 54.6134C308.465 55.7674 305.776 57.6484 304.692 59.6696C303.647 61.62 304.08 63.8706 304.424 65.6592L304.443 65.7606C305.133 69.345 306.574 76.2399 318.198 74.0036C324.148 72.859 326.744 70.5657 327.756 68.1253C328.766 65.6863 328.244 62.9653 327.893 61.1429C327.55 59.3566 327.117 57.108 325.423 55.6861V55.6866Z" fill="#160045"/>
<path id="Vector_73" d="M279.957 60.3061C286.652 59.0189 290.371 59.9855 292.537 61.8046C294.768 63.6784 295.275 66.3086 295.677 68.3988C296.071 70.4525 296.66 73.5127 295.422 76.493C294.185 79.4728 291.17 82.2414 284.424 83.5391C270.767 86.1655 269.167 77.8535 268.359 73.6521L268.339 73.5507C267.941 71.4786 267.474 68.895 268.829 66.369C270.167 63.8725 273.264 61.5934 279.957 60.3061ZM291.262 63.3283C289.507 61.855 286.318 61.1058 280.33 62.2575C274.342 63.4092 271.659 65.2854 270.578 67.3023C269.535 69.247 269.967 71.4933 270.311 73.2777L270.33 73.379C271.019 76.9549 272.453 83.8174 284.051 81.5868C289.988 80.4451 292.578 78.1608 293.587 75.7304C294.596 73.301 294.075 70.5899 293.725 68.7718C293.383 66.9893 292.951 64.7469 291.262 63.3283Z" fill="#160045"/>
<path id="Vector_74" d="M275.32 69.591C275.868 69.5482 276.346 69.9573 276.389 70.5048C276.432 71.0523 276.023 71.5309 275.475 71.5737L269.562 72.0603C269.015 72.1032 268.536 71.6941 268.493 71.1465C268.45 70.599 268.86 70.1204 269.407 70.0776L275.32 69.591Z" fill="#160045"/>
<path id="Vector_75" d="M486.212 191.482C486.212 190.822 486.747 190.287 487.406 190.287C488.066 190.287 488.601 190.822 488.601 191.482C488.601 200.732 488.722 207.11 488.824 212.558C488.994 221.592 489.118 228.133 488.596 238.763C488.578 239.139 488.388 239.466 488.105 239.671C458.67 261.003 434.751 279.949 411.708 299.821C388.759 319.612 366.655 340.339 340.828 365.257V392.399C340.828 393.059 340.293 393.594 339.634 393.594C338.975 393.594 338.439 393.059 338.439 392.399V364.754C338.443 364.441 338.565 364.129 338.808 363.896C364.818 338.796 387.049 317.942 410.15 298.02C433.147 278.188 456.988 259.293 486.244 238.076C486.732 227.825 486.611 221.403 486.445 212.595C486.338 206.915 486.211 200.264 486.211 191.482H486.212Z" fill="#9DBF76"/>
</g>
</svg>
