<svg width="661" height="973" viewBox="0 0 661 973" fill="none" xmlns="http://www.w3.org/2000/svg">
<g id="Group 1000006124">
<g id="Group" opacity="0.2">
<path id="Vector" opacity="0.55" d="M422.882 105.141L458.276 101.293C446.387 101.046 434.48 102.341 422.882 105.141V105.141Z" fill="url(#paint0_linear_1531_7308)"/>
<path id="Vector_2" opacity="0.55" d="M504.165 116.686L371.674 131.085C369.314 132.208 366.96 133.36 364.609 134.54L508.056 118.943C506.838 118.18 505.547 117.425 504.165 116.686Z" fill="url(#paint1_linear_1531_7308)"/>
<path id="Vector_3" opacity="0.55" d="M525.426 138.236L335.539 159.029L329.747 162.296L526.469 140.725C526.131 139.954 525.798 139.09 525.426 138.236Z" fill="url(#paint2_linear_1531_7308)"/>
<path id="Vector_4" opacity="0.55" d="M532.558 162.943L303.828 188.085L298.102 191.389L532.187 165.647C532.321 164.746 532.444 163.839 532.558 162.943Z" fill="url(#paint3_linear_1531_7308)"/>
<path id="Vector_5" opacity="0.55" d="M534.07 189.634L269.778 218.671C267.363 219.883 265.006 221.052 262.709 222.178L533.332 192.427C533.599 191.47 533.832 190.543 534.07 189.634Z" fill="url(#paint4_linear_1531_7308)"/>
<path id="Vector_6" opacity="0.55" d="M535.326 221.572L207.299 257.476C202.292 258.932 197.279 260.38 192.26 261.819L534.925 224.321C535.01 223.394 535.159 222.47 535.326 221.572Z" fill="url(#paint5_linear_1531_7308)"/>
<path id="Vector_7" opacity="0.55" d="M538.483 252.53L132.879 296.872C130.277 298.003 127.701 299.182 125.153 300.406L538.252 255.242C538.322 254.339 538.393 253.437 538.483 252.53Z" fill="url(#paint6_linear_1531_7308)"/>
<path id="Vector_8" opacity="0.55" d="M542.814 277.497L100.427 325.789C99.0761 326.816 97.7373 327.85 96.4285 328.916L542.677 280.163C542.745 279.292 542.776 278.401 542.814 277.497Z" fill="url(#paint7_linear_1531_7308)"/>
<path id="Vector_9" opacity="0.55" d="M547.883 300.123L84.7258 350.692C83.8938 351.679 83.0816 352.661 82.2818 353.65L547.879 302.813L547.883 300.123Z" fill="url(#paint8_linear_1531_7308)"/>
<path id="Vector_10" opacity="0.55" d="M553.287 321.646L76.6437 373.683C76.0736 374.619 75.4961 375.567 74.9933 376.556L553.295 324.342C553.282 323.443 553.28 322.551 553.287 321.646Z" fill="url(#paint9_linear_1531_7308)"/>
<path id="Vector_11" opacity="0.55" d="M558.625 342.68L72.6028 395.699C72.1936 396.642 71.7916 397.573 71.3948 398.522L558.589 345.367L558.625 342.68Z" fill="url(#paint10_linear_1531_7308)"/>
<path id="Vector_12" opacity="0.55" d="M563.518 363.471L70.9578 417.192C70.6399 418.12 70.3345 419.055 70.0291 419.99L563.383 366.184L563.518 363.471Z" fill="url(#paint11_linear_1531_7308)"/>
<path id="Vector_13" opacity="0.55" d="M567.586 384.277L70.7904 438.468C70.5443 439.386 70.2784 440.311 70.0249 441.241L567.288 387.015C567.386 386.096 567.476 385.189 567.586 384.277Z" fill="url(#paint12_linear_1531_7308)"/>
<path id="Vector_14" opacity="0.55" d="M570.433 405.255L71.4351 459.71L70.7195 462.51L569.898 408.057C570.095 407.111 570.244 406.188 570.433 405.255Z" fill="url(#paint13_linear_1531_7308)"/>
<path id="Vector_15" opacity="0.55" d="M572.205 426.506L72.4118 481.027L71.7701 483.788L571.534 429.234L572.205 426.506Z" fill="url(#paint14_linear_1531_7308)"/>
<path id="Vector_16" opacity="0.55" d="M572.949 447.919L73.8625 502.374L73.332 505.114L572.112 450.703C572.397 449.773 572.683 448.844 572.949 447.919Z" fill="url(#paint15_linear_1531_7308)"/>
<path id="Vector_17" opacity="0.55" d="M572.409 469.536L76.2025 523.67C76.0727 524.587 75.9503 525.493 75.8403 526.405L571.364 472.335C571.714 471.408 572.072 470.469 572.409 469.536Z" fill="url(#paint16_linear_1531_7308)"/>
<path id="Vector_18" opacity="0.55" d="M570.338 491.35L79.7543 544.851L79.6269 547.553L569.014 494.174C569.456 493.233 569.909 492.298 570.338 491.35Z" fill="url(#paint17_linear_1531_7308)"/>
<path id="Vector_19" opacity="0.55" d="M566.338 513.368L85.1601 565.921C85.2132 566.809 85.286 567.692 85.3589 568.575L564.68 516.252C565.245 515.297 565.79 514.348 566.338 513.368Z" fill="url(#paint18_linear_1531_7308)"/>
<path id="Vector_20" opacity="0.55" d="M559.859 535.73L92.7606 586.742C92.9498 587.623 93.1368 588.536 93.375 589.364L557.741 538.639C558.454 537.684 559.163 536.71 559.859 535.73Z" fill="url(#paint19_linear_1531_7308)"/>
<path id="Vector_21" opacity="0.55" d="M549.881 558.511L103.376 607.194L104.525 609.751L547.085 561.501C548.034 560.513 549.02 559.545 549.881 558.511Z" fill="url(#paint20_linear_1531_7308)"/>
<path id="Vector_22" opacity="0.55" d="M534.541 582.08L117.896 627.464C118.508 628.302 119.14 629.133 119.779 629.953L530.671 585.179C531.971 584.157 533.271 583.134 534.541 582.08Z" fill="url(#paint21_linear_1531_7308)"/>
<path id="Vector_23" opacity="0.55" d="M510.424 607.124L137.912 647.567C138.876 648.369 139.847 649.159 140.845 649.932L504.696 610.42C506.657 609.291 508.564 608.196 510.424 607.124Z" fill="url(#paint22_linear_1531_7308)"/>
<path id="Vector_24" opacity="0.55" d="M469.283 635.141L166.423 668.013C167.992 668.772 169.57 669.489 171.175 670.189L459.258 638.92C462.617 637.696 465.958 636.436 469.283 635.141Z" fill="url(#paint23_linear_1531_7308)"/>
<path id="Vector_25" opacity="0.55" d="M377.476 673.558L213.532 691.36C217.252 691.961 220.986 692.449 224.735 692.822L351.737 679.043C360.276 677.272 368.856 675.444 377.476 673.558Z" fill="url(#paint24_linear_1531_7308)"/>
</g>
<g id="&#208;&#191;&#208;&#176;&#208;&#178;&#208;&#181;&#208;&#187;5 1" clip-path="url(#clip0_1531_7308)">
<g id="&#208;&#161;&#208;&#187;&#208;&#190;&#208;&#185;_x0020_1">
<path id="Vector_26" fill-rule="evenodd" clip-rule="evenodd" d="M445.567 276.157L411.666 267.341C405.871 265.834 399.966 266.886 395.193 269.788C383.798 257.548 370.391 251.034 353.642 248.572C348.192 247.772 336.593 247.948 330.39 247.947C323.42 240.038 311.847 232.835 296.918 232.835L270.056 232.815H247.259C240.889 233.579 227.846 239.857 220.875 247.766C217.653 247.766 214.716 247.907 213.77 248.002C184.438 250.952 167.103 264.499 151.579 283.975L149.319 275.081C146.436 263.738 134.68 256.902 123.345 259.85L89.4443 268.666C78.1096 271.614 71.248 283.291 74.1984 294.617L93.8882 372.091C96.9461 394.365 116.066 411.525 139.2 411.525C152.596 411.525 164.648 405.77 173.014 396.601L173.053 396.603C179.37 389.595 175.357 394.048 181.673 387.04C181.481 396.373 181.235 438.162 181.177 442.118C181.152 443.723 181.138 445.268 181.138 446.734C181.676 463.262 174.541 465.313 186.957 470.012C196.765 481.307 230.955 481.676 271.7 480.834C348.399 479.876 356.644 475.741 361.012 469.947C373.097 467.261 369.666 444.628 367.529 427.318L367.766 391.112C372.577 400.877 381.407 408.583 392.721 411.525C413.379 416.897 434.805 404.437 440.059 383.766L460.812 302.107C463.763 290.782 456.901 279.105 445.566 276.156L445.567 276.157Z" fill="#FF0028"/>
<path id="Vector_27" d="M374.605 972.38C497.176 972.38 596.54 945.812 596.54 913.038C596.54 880.265 497.176 853.697 374.605 853.697C252.034 853.697 152.67 880.265 152.67 913.038C152.67 945.812 252.034 972.38 374.605 972.38Z" fill="url(#paint25_linear_1531_7308)"/>
<g id="_1522594048">
<path id="Vector_28" fill-rule="evenodd" clip-rule="evenodd" d="M229.689 847.904L228.384 861.888L226.854 870.238L216.083 870.617L184.747 862.889L185.644 842.873C198.538 847.992 216.419 850.536 229.689 847.904H229.689Z" fill="#DAD9FF"/>
<path id="Vector_29" fill-rule="evenodd" clip-rule="evenodd" d="M126.46 917.444C120.905 946.416 186.343 949.913 206.94 931.732C227.537 913.552 240.119 924.866 238.305 894.46C237.948 891.078 237.229 887.142 236.295 883.16C234.447 871.861 231.316 865.126 229.435 861.079L229.089 860.333C229.039 860.226 228.964 860.13 228.864 860.052C228.56 859.819 228.144 859.861 227.935 860.147L226.583 861.994C226.497 862.094 226.444 862.223 226.437 862.369L226.428 862.606C226.279 865.1 225.21 866.939 223.457 868.064C221.663 869.213 219.138 869.639 216.124 869.283L215.864 869.25L215.665 869.109C215.733 863.913 215.559 858.217 211.419 854.71C206.691 850.705 189.423 849.511 183.193 850.638C174.774 852.162 175.384 850.534 175.972 863.868C175.839 863.947 175.716 864.026 175.602 864.106C173.27 865.579 170.746 867.118 168.136 868.709C148.275 880.814 123.422 895.966 126.465 917.48L126.462 917.557C126.463 917.52 126.457 917.481 126.459 917.444H126.46ZM168.9 869.871C149.321 881.805 124.815 896.744 127.798 917.464L127.802 917.595C127.758 918.373 128.09 919.192 128.744 920.025C130.43 922.172 134.125 924.335 139.085 926.21C144.123 928.113 150.431 929.698 157.256 930.654C173.507 932.932 192.662 931.655 204.55 922.671C212.185 916.901 218.294 913.206 223.037 910.334C233.191 904.191 236.935 901.925 235.924 890.805C234.521 875.379 230.643 866.758 228.383 861.888L227.767 862.73L227.762 862.786C227.591 865.71 226.324 867.875 224.241 869.21C222.203 870.517 219.393 871.008 216.082 870.617L215.632 870.557C215.517 870.543 215.401 870.5 215.297 870.425C209.246 866.057 202.369 863.88 196.048 863.048C186.92 861.845 179.011 863.419 176.426 865.229L176.403 865.244C174.019 866.75 171.503 868.284 168.9 869.871L168.9 869.87V869.871Z" fill="#868CB5"/>
<path id="Vector_30" fill-rule="evenodd" clip-rule="evenodd" d="M168.901 869.87C149.322 881.804 124.815 896.743 127.798 917.464L127.803 917.594C127.758 918.372 128.09 919.191 128.744 920.024C130.431 922.171 134.125 924.335 139.085 926.209C144.123 928.113 150.432 929.697 157.256 930.654C173.507 932.931 192.662 931.655 204.55 922.67C212.185 916.9 218.294 913.203 223.038 910.333C233.192 904.19 236.935 901.924 235.925 890.804C234.522 875.378 230.644 866.757 228.383 861.888L227.767 862.729L227.763 862.786C227.591 865.709 226.324 867.874 224.241 869.21C222.203 870.516 219.393 871.008 216.082 870.616L215.632 870.557C215.517 870.543 215.402 870.499 215.298 870.424C209.247 866.056 202.369 863.88 196.048 863.047C186.92 861.844 179.012 863.418 176.427 865.228L176.403 865.243C174.02 866.75 171.503 868.283 168.9 869.87L168.901 869.87V869.87Z" fill="#E5EEFF"/>
<path id="Vector_31" fill-rule="evenodd" clip-rule="evenodd" d="M227.01 907.896C229.974 892.626 227.031 874.877 231.983 870.83C233.594 875.728 235.144 882.209 235.925 890.803C236.791 900.331 234.166 903.36 227.01 907.896Z" fill="#C5D2EB"/>
<path id="Vector_32" d="M177.855 890.505L172.897 895.248C172.642 895.493 172.219 895.467 171.952 895.191C171.685 894.914 171.675 894.49 171.931 894.244L176.548 889.828C176.084 889.471 175.744 889.031 175.594 888.54C175.32 887.644 175.743 886.796 176.608 886.249C176.043 885.615 175.351 885.015 174.569 884.462C172.606 883.078 170.117 882.018 167.615 881.428C165.132 880.843 162.664 880.724 160.722 881.211C160.393 881.294 160.081 881.394 159.789 881.513C160.037 881.733 160.22 881.978 160.319 882.241C160.739 883.368 159.44 884.387 157.416 884.517C156.624 884.568 155.839 884.475 155.151 884.275C152.57 886.109 150.222 887.892 148.136 889.676C147.868 889.906 147.444 889.858 147.191 889.569C146.939 889.28 146.952 888.858 147.221 888.628C149.174 886.957 151.345 885.293 153.711 883.593C153.365 883.335 153.113 883.036 152.991 882.71C152.571 881.583 153.87 880.564 155.894 880.434C156.047 880.424 156.201 880.42 156.353 880.421C157.274 879.543 158.482 878.945 159.872 878.596C160.365 878.472 160.881 878.38 161.416 878.318C162.97 877.288 164.578 876.233 166.241 875.146C165.925 874.899 165.696 874.616 165.581 874.309C165.161 873.182 166.46 872.163 168.483 872.033C168.73 872.017 168.975 872.016 169.216 872.026C170.29 871.288 171.634 870.832 173.138 870.612C174.435 869.751 175.759 868.867 177.109 867.955C177.404 867.757 177.824 867.849 178.047 868.161C178.27 868.474 178.212 868.889 177.918 869.087C177.233 869.551 176.552 870.008 175.877 870.459C178.157 870.512 180.625 870.963 182.944 871.696C186.125 872.701 189.087 874.257 190.973 876.054C191.378 876.44 191.738 876.841 192.044 877.254C193.692 877.402 195.144 878.287 195.504 879.465C195.935 880.872 194.645 882.164 192.623 882.35C190.602 882.537 188.615 881.546 188.184 880.139C187.915 879.26 188.318 878.425 189.152 877.878C187.603 876.425 185.089 875.136 182.334 874.265C179.516 873.375 176.497 872.943 174.033 873.236C173.57 873.29 173.129 873.371 172.716 873.479C172.798 873.594 172.863 873.715 172.91 873.839C173.33 874.966 172.031 875.985 170.007 876.115C169.196 876.167 168.391 876.067 167.691 875.857L167.586 875.926C166.383 876.713 165.208 877.483 164.061 878.237C165.348 878.298 166.685 878.493 168.015 878.806C170.87 879.479 173.725 880.699 175.991 882.299C177.376 883.276 178.555 884.404 179.409 885.651C181.077 885.787 182.551 886.677 182.915 887.866C183.345 889.273 182.056 890.565 180.033 890.751C179.276 890.821 178.523 890.726 177.855 890.505V890.505ZM190.497 924.382C190.847 924.294 191.226 924.515 191.343 924.875C191.46 925.234 191.27 925.597 190.92 925.685C181.689 928.028 170.13 928.691 159.393 927.723C151.631 927.024 144.284 925.469 138.538 923.078C132.664 920.635 128.429 917.298 127.045 913.077C126.72 912.086 126.553 911.046 126.562 909.961C126.564 909.593 126.865 909.321 127.235 909.353C127.604 909.386 127.901 909.712 127.898 910.081C127.891 911.012 128.035 911.906 128.314 912.759C129.549 916.527 133.478 919.566 138.959 921.847C144.567 924.18 151.771 925.701 159.402 926.389C169.999 927.344 181.399 926.691 190.497 924.382L190.498 924.382L190.497 924.382ZM235.299 888.721C235.379 889.087 235.15 889.425 234.79 889.475C234.43 889.525 234.072 889.268 233.993 888.901C233.45 886.403 232.727 884.932 231.944 884.336C231.56 884.044 231.142 884.007 230.724 884.198C230.184 884.445 229.624 885.024 229.084 885.893C227.152 889.002 225.709 895.474 226.28 903.734C226.484 906.714 217.527 911.902 209.492 916.554C205.492 918.871 201.724 921.053 199.511 922.686C199.226 922.897 198.805 922.821 198.57 922.517C198.336 922.213 198.377 921.795 198.662 921.584C200.927 919.911 204.723 917.713 208.755 915.379C216.482 910.904 225.098 905.915 224.946 903.715C224.355 895.166 225.889 888.405 227.932 885.117C228.595 884.049 229.332 883.316 230.09 882.97C230.97 882.568 231.86 882.655 232.696 883.293C233.749 884.096 234.677 885.856 235.299 888.722V888.721ZM221.813 897.92C221.775 897.549 222.043 897.242 222.41 897.235C222.778 897.227 223.107 897.522 223.145 897.892L223.742 903.608C223.78 903.979 223.513 904.285 223.145 904.293C222.777 904.3 222.448 904.006 222.41 903.636L221.813 897.92ZM219.065 900.037C219.027 899.666 219.295 899.36 219.662 899.353C220.03 899.345 220.359 899.64 220.396 900.01L220.994 905.726C221.032 906.097 220.764 906.403 220.396 906.41C220.029 906.418 219.7 906.124 219.662 905.754L219.065 900.037Z" fill="#868CB5"/>
</g>
<path id="Vector_33" fill-rule="evenodd" clip-rule="evenodd" d="M328.312 845.531L331.529 854.387L333.138 862.848L344.808 868.152L378.691 861.189L371.426 837.665C359.406 842.633 341.368 846.494 328.313 845.531H328.312Z" fill="#DAD9FF"/>
<path id="Vector_34" fill-rule="evenodd" clip-rule="evenodd" d="M440.576 910.87C449.367 939.599 383.782 943.146 361.017 925.139C338.251 907.133 326.813 918.37 325.294 888.209C325.282 884.856 325.574 880.95 326.077 876.999C326.696 865.791 329.111 859.106 330.562 855.09L330.83 854.35C330.867 854.244 330.932 854.148 331.024 854.072C331.305 853.84 331.73 853.881 331.972 854.165L333.538 855.994C333.635 856.094 333.703 856.222 333.726 856.367L333.762 856.601C334.186 859.075 335.465 860.897 337.357 862.011C339.293 863.148 347.207 864.356 350.206 863.999L350.464 863.966L350.65 863.826C349.817 857.13 349.047 851.178 356.104 847.899C358.499 846.786 371.555 845.515 375.342 845.743C382.284 846.161 384.892 848.644 384.766 857.793C384.908 857.871 385.041 857.949 385.165 858.028C387.677 859.486 390.392 861.009 393.197 862.584C414.552 874.567 441.275 889.565 440.575 910.906L440.586 910.982C440.581 910.945 440.582 910.907 440.576 910.87H440.575H440.576ZM392.555 863.737C413.607 875.55 439.955 890.338 439.23 910.892L439.24 911.022C439.371 911.793 439.126 912.606 438.558 913.433C437.094 915.564 433.608 917.714 428.814 919.58C423.945 921.474 417.76 923.053 410.985 924.01C394.854 926.288 375.402 925.045 362.429 916.149C354.097 910.435 347.531 906.776 342.433 903.935C331.521 897.855 327.498 895.611 327.292 884.581C327.009 869.28 329.969 860.725 331.713 855.892L332.425 856.726L332.436 856.782C332.931 859.682 334.446 861.827 336.694 863.149C338.892 864.442 347.101 865.714 350.395 865.322L350.842 865.263C350.957 865.249 351.069 865.205 351.165 865.131C356.784 860.791 364.295 858.147 370.575 857.313C380.078 856.807 381.652 857.351 384.457 859.143L384.482 859.157C387.051 860.649 389.757 862.167 392.555 863.737L392.554 863.737H392.555Z" fill="#868CB5"/>
<path id="Vector_35" fill-rule="evenodd" clip-rule="evenodd" d="M438.558 913.431C437.094 915.563 433.608 917.713 428.814 919.578C423.945 921.472 417.76 923.052 410.985 924.008C394.854 926.287 375.402 925.044 362.429 916.147C354.097 910.433 347.531 906.774 342.433 903.934C331.521 897.853 327.498 895.61 327.292 884.58C327.009 869.278 329.969 860.723 331.713 855.891L332.425 856.724L332.436 856.78C332.931 859.68 334.446 861.826 336.694 863.147C337.299 863.503 338.361 863.857 339.649 864.176C340.316 864.351 341.005 864.498 341.709 864.62L341.855 864.647L341.865 864.649L342.002 864.674L342.116 864.695L342.15 864.701L342.299 864.727L342.368 864.739L342.448 864.752L342.597 864.778L342.622 864.782L342.747 864.803L342.877 864.824L342.897 864.827L343.048 864.852L343.134 864.866L343.199 864.876L343.35 864.899L343.391 864.906L343.501 864.922L343.649 864.944L343.653 864.945L343.804 864.967L343.906 864.982L343.956 864.989L344.107 865.01L344.164 865.018L344.259 865.03L344.41 865.05L344.422 865.052L344.562 865.07L344.679 865.085L344.713 865.089L344.864 865.108L344.936 865.116L345.015 865.126L345.165 865.143L345.192 865.147L345.315 865.161L345.446 865.175L345.464 865.177L345.613 865.193L345.699 865.203L345.762 865.209L345.909 865.224L345.951 865.227L346.057 865.238L346.2 865.251L346.203 865.252L346.349 865.265L346.448 865.274L346.493 865.277L346.637 865.289L346.692 865.293L346.78 865.3L346.923 865.311L346.934 865.312L347.063 865.321L347.173 865.329L347.203 865.331L347.342 865.34L347.409 865.343L347.48 865.347L347.616 865.355L347.641 865.356L347.751 865.362L347.87 865.367L347.885 865.368L348.018 865.373L348.095 865.377L348.149 865.379L348.278 865.383L348.316 865.384L348.407 865.386L348.532 865.389H348.533L348.658 865.392L348.744 865.393L348.782 865.393L348.903 865.394H348.95L349.141 865.393L349.151 865.392L349.257 865.391L349.347 865.389L349.371 865.388L349.483 865.385L349.538 865.383L349.593 865.381L349.701 865.376L349.722 865.375L349.807 865.371L349.901 865.365L349.911 865.364L350.012 865.357L350.072 865.353L350.111 865.35L350.237 865.338L350.303 865.331L350.395 865.321L350.842 865.262C350.957 865.248 351.069 865.205 351.165 865.131C356.784 860.79 364.295 858.146 370.575 857.313L370.745 857.304L370.92 857.295C372.613 857.214 374.913 857.162 377.067 857.142C381.095 857.226 382.466 857.869 384.457 859.142L384.482 859.156C387.051 860.648 389.757 862.167 392.555 863.737L392.555 863.736C413.606 875.549 439.954 890.337 439.23 910.891L439.24 911.021C439.291 911.323 439.285 911.632 439.223 911.945C439.062 912.514 438.843 913.017 438.558 913.432L438.558 913.431Z" fill="#E5EEFF"/>
<path id="Vector_36" fill-rule="evenodd" clip-rule="evenodd" d="M338.162 901.524C333.493 886.382 334.506 868.775 329.068 864.767C327.984 869.626 327.135 876.056 327.293 884.582C327.469 894.033 330.448 897.033 338.163 901.524H338.162Z" fill="#C5D2EB"/>
<path id="Vector_37" d="M385.798 884.21L391.318 888.908C391.602 889.151 392.026 889.125 392.265 888.85C392.504 888.575 392.466 888.155 392.182 887.911L387.041 883.536C387.47 883.182 387.763 882.745 387.861 882.258C388.038 881.369 387.519 880.529 386.587 879.987C387.086 879.357 387.718 878.761 388.446 878.212C390.272 876.836 392.664 875.782 395.122 875.194C397.561 874.611 400.036 874.489 402.047 874.971C402.387 875.052 402.713 875.151 403.02 875.268C402.794 875.486 402.637 875.73 402.566 875.991C402.266 877.11 403.689 878.119 405.743 878.245C406.547 878.294 407.328 878.201 408 878.002C410.804 879.818 413.366 881.584 415.666 883.35C415.962 883.578 416.384 883.53 416.606 883.243C416.829 882.956 416.77 882.538 416.473 882.31C414.32 880.656 411.949 879.008 409.376 877.324C409.697 877.068 409.918 876.771 410.005 876.448C410.305 875.329 408.882 874.32 406.829 874.194C406.673 874.184 406.518 874.18 406.365 874.181C405.339 873.312 404.056 872.721 402.616 872.375C402.106 872.253 401.575 872.163 401.028 872.101C399.349 871.082 397.611 870.038 395.816 868.961C396.106 868.716 396.306 868.435 396.388 868.13C396.688 867.012 395.266 866.003 393.212 865.877C392.962 865.861 392.715 865.86 392.473 865.871C391.309 865.141 389.903 864.689 388.364 864.473C386.961 863.621 385.529 862.746 384.068 861.843C383.749 861.646 383.336 861.739 383.145 862.048C382.954 862.359 383.058 862.771 383.377 862.967C384.119 863.426 384.856 863.878 385.586 864.324C383.293 864.38 380.856 864.831 378.598 865.56C375.501 866.561 372.687 868.107 370.983 869.892C370.618 870.276 370.3 870.673 370.036 871.083C368.391 871.232 367.025 872.112 366.792 873.281C366.512 874.677 367.955 875.957 370.013 876.139C372.071 876.322 373.966 875.337 374.245 873.94C374.42 873.068 373.922 872.241 373.021 871.699C374.423 870.256 376.814 868.973 379.497 868.107C382.239 867.222 385.235 866.789 387.751 867.076C388.224 867.13 388.677 867.21 389.106 867.316C389.036 867.43 388.984 867.55 388.95 867.673C388.65 868.792 390.073 869.8 392.127 869.927C392.95 869.977 393.751 869.878 394.433 869.669L394.547 869.737C395.846 870.516 397.116 871.277 398.354 872.024C397.064 872.086 395.738 872.282 394.431 872.594C391.626 873.264 388.883 874.477 386.774 876.068C385.487 877.039 384.422 878.158 383.697 879.396C382.032 879.533 380.644 880.418 380.408 881.597C380.128 882.994 381.571 884.274 383.63 884.456C384.401 884.524 385.149 884.429 385.798 884.209L385.798 884.21ZM376.783 917.826C376.42 917.739 376.062 917.958 375.984 918.315C375.906 918.672 376.137 919.032 376.5 919.119C386.064 921.431 397.789 922.076 408.507 921.102C416.254 920.399 423.49 918.848 429.02 916.47C434.672 914.039 438.575 910.724 439.505 906.536C439.724 905.553 439.778 904.521 439.65 903.445C439.607 903.08 439.273 902.811 438.904 902.843C438.536 902.876 438.272 903.2 438.315 903.566C438.425 904.489 438.378 905.376 438.191 906.223C437.36 909.961 433.735 912.98 428.46 915.249C423.063 917.57 415.967 919.087 408.351 919.779C397.773 920.739 386.209 920.105 376.783 917.826H376.783V917.826ZM327.692 882.511C327.652 882.874 327.919 883.209 328.288 883.258C328.657 883.307 328.988 883.052 329.028 882.688C329.3 880.209 329.868 878.75 330.592 878.157C330.946 877.867 331.362 877.831 331.805 878.02C332.378 878.264 333.006 878.837 333.646 879.699C335.935 882.779 338.104 889.197 338.437 897.391C338.558 900.346 348.16 905.48 356.772 910.086C361.06 912.378 365.097 914.537 367.508 916.155C367.819 916.363 368.236 916.288 368.439 915.985C368.642 915.684 368.554 915.268 368.243 915.06C365.775 913.404 361.707 911.228 357.386 908.918C349.103 904.489 339.868 899.551 339.779 897.368C339.433 888.888 337.143 882.185 334.722 878.926C333.935 877.867 333.112 877.141 332.31 876.799C331.379 876.401 330.492 876.49 329.719 877.123C328.745 877.921 328.004 879.667 327.692 882.51V882.511ZM342.3 891.618C342.297 891.25 341.994 890.947 341.623 890.939C341.251 890.933 340.952 891.225 340.955 891.592L340.982 897.263C340.985 897.63 341.288 897.934 341.659 897.941C342.03 897.948 342.33 897.655 342.327 897.288L342.3 891.618ZM345.303 893.715C345.301 893.347 344.998 893.044 344.626 893.037C344.255 893.03 343.956 893.322 343.958 893.69L343.985 899.36C343.988 899.727 344.291 900.031 344.662 900.038C345.033 900.045 345.333 899.753 345.331 899.385L345.303 893.715Z" fill="#868CB5"/>
<path id="Vector_38" fill-rule="evenodd" clip-rule="evenodd" d="M321.87 863.955C330.95 880.54 386.532 866.099 385.659 856.24L364.454 566.597L356.331 479.877H196.847L195.978 495.434L181.739 626.415L169.173 859.697C162.804 872.515 236.536 882.573 236.257 860.504L257.237 680.367L273.455 562.438L321.871 863.956L321.87 863.955Z" fill="#6934D9"/>
<path id="Vector_39" fill-rule="evenodd" clip-rule="evenodd" d="M228.233 870.354C233.177 868.279 236.315 865.086 236.257 860.504L257.238 680.367L273.455 562.438L266.731 548.146L249.648 667.651L228.233 870.355V870.354Z" fill="#2B0087"/>
<path id="Vector_40" d="M274.664 529.782L274.41 482.48" stroke="#2B0087" stroke-width="0.882784" stroke-miterlimit="22.9256" stroke-linecap="round" stroke-linejoin="round"/>
<path id="Vector_41" d="M381.798 861.433L349.826 496.307L348.42 476.311" stroke="#2B0087" stroke-width="0.882784" stroke-miterlimit="22.9256" stroke-linecap="round" stroke-linejoin="round"/>
<path id="Vector_42" d="M354.43 547.081L343.697 543.205L333.802 479.877" stroke="#2B0087" stroke-width="0.882784" stroke-miterlimit="22.9256" stroke-linecap="round" stroke-linejoin="round"/>
<path id="Vector_43" d="M253.102 674.955L242.757 653.076" stroke="#2B0087" stroke-width="0.882784" stroke-miterlimit="22.9256" stroke-linecap="round" stroke-linejoin="round"/>
<path id="Vector_44" d="M181.739 626.415L201.231 502.525L202.585 480.614" stroke="#2B0087" stroke-width="0.882784" stroke-miterlimit="22.9256" stroke-linecap="round" stroke-linejoin="round"/>
<path id="Vector_45" d="M273.55 562.435L263.109 540.556L262.883 482.233" stroke="#2B0087" stroke-width="0.882784" stroke-miterlimit="22.9256" stroke-linecap="round" stroke-linejoin="round"/>
<path id="Vector_46" d="M527.098 885.406C524.578 884.702 526.649 869.438 531.724 851.313C536.798 833.187 542.955 819.065 545.474 819.769C547.994 820.473 545.922 835.737 540.848 853.862C535.774 871.988 529.617 886.11 527.098 885.406Z" fill="#33CC66" stroke="#259E4D" stroke-width="0.530488" stroke-miterlimit="22.9256"/>
<path id="Vector_47" d="M527.096 885.409C519.703 887.113 508.94 867.848 503.057 842.377C497.173 816.907 498.397 794.877 505.79 793.172C513.183 791.468 523.945 810.734 529.829 836.204C535.712 861.674 534.489 883.704 527.096 885.409Z" fill="#48F080" stroke="#259E4D" stroke-width="0.530487" stroke-miterlimit="22.9256"/>
<path id="Vector_48" d="M481.004 907.377C479.312 906.904 480.703 896.654 484.11 884.482C487.518 872.311 491.652 862.827 493.344 863.3C495.036 863.773 493.645 874.023 490.237 886.195C486.83 898.366 482.696 907.85 481.004 907.377Z" fill="#33CC66" stroke="#259E4D" stroke-width="0.356235" stroke-miterlimit="22.9256"/>
<path id="Vector_49" d="M481.003 907.377C476.038 908.522 468.811 895.584 464.86 878.48C460.909 861.376 461.731 846.583 466.696 845.438C471.66 844.293 478.887 857.231 482.838 874.335C486.789 891.439 485.967 906.232 481.003 907.377Z" fill="#48F080" stroke="#259E4D" stroke-width="0.356235" stroke-miterlimit="22.9256"/>
<path id="Vector_50" d="M454.47 871.293C452.724 871.392 450.17 866.302 448.766 859.924C447.361 853.546 447.638 848.296 449.384 848.197C451.13 848.098 453.684 853.188 455.089 859.566C456.493 865.943 456.216 871.194 454.47 871.293Z" fill="#33CC66" stroke="#259E4D" stroke-width="0.255478" stroke-miterlimit="22.9256"/>
<path id="Vector_51" d="M197.16 477.586L196.847 479.877L195.978 495.434L181.739 626.415L169.173 859.697C162.804 872.516 236.536 882.573 236.257 860.505L257.237 680.367L273.455 562.438L321.871 863.956C330.951 880.541 386.532 866.1 385.659 856.241L364.455 566.598L356.331 479.878L356.062 476.924" stroke="#2B0087" stroke-width="0.882784" stroke-miterlimit="22.9256" stroke-linecap="round" stroke-linejoin="round"/>
<path id="Vector_52" d="M191.116 540.525L195.636 536.295" stroke="#2B0087" stroke-width="0.882784" stroke-miterlimit="22.9256" stroke-linecap="round" stroke-linejoin="round"/>
<path id="Vector_53" fill-rule="evenodd" clip-rule="evenodd" d="M181.529 398.454C181.398 411.9 181.269 431.778 181.205 439.342C184.107 435.9 193.009 430.767 193.074 425.493L193.161 374.308L181.674 387.042L181.529 398.454V398.454Z" fill="#D90324"/>
<path id="Vector_54" fill-rule="evenodd" clip-rule="evenodd" d="M245.954 245.246L246.429 239.925C229.167 243.66 223.999 258.731 235.119 272.401C236.083 273.257 237.234 273.632 238.517 273.509C239.801 273.385 240.859 272.797 241.642 271.773L242.324 270.88L242.117 270.742C248.185 274.772 256.619 277.737 266.135 278.733C275.542 279.719 284.312 278.604 291.056 275.984L291.539 277.001C292.092 278.165 293.005 278.959 294.235 279.346C295.465 279.732 296.669 279.604 297.789 278.967C317.582 267.706 326.508 242.065 296.304 239.711L295.708 246.398L245.954 245.246V245.246Z" fill="#D90324"/>
<path id="Vector_55" fill-rule="evenodd" clip-rule="evenodd" d="M241.825 250.864C240.429 252.934 239.662 255.187 239.662 257.544C239.662 267.687 253.857 275.909 271.368 275.909C288.878 275.909 303.073 267.687 303.073 257.544C303.073 255.187 302.306 252.935 300.91 250.864H241.826H241.825Z" fill="#AD041E"/>
<path id="Vector_56" fill-rule="evenodd" clip-rule="evenodd" d="M297.629 224.848L294.916 255.266C293.705 268.857 281.98 274.537 268.378 273.326H268.377C254.775 272.116 244.241 264.454 245.452 250.864L248.214 219.9C251.436 223.305 255.348 226.167 259.866 228.253C272.602 234.133 286.917 232.362 297.629 224.848V224.848Z" fill="#EBA884"/>
<g id="Group_2">
<path id="Vector_57" d="M273.434 294.95C273.397 294.208 273.97 293.575 274.714 293.538C275.458 293.501 276.091 294.072 276.128 294.814L273.434 294.95ZM277.53 354.883L274.965 355.713L274.345 353.719L273.803 351.804L273.335 349.961L272.938 348.183L272.609 346.462L272.341 344.792L272.132 343.164L271.978 341.573L271.873 340.011L271.815 338.471L271.798 336.948L271.818 335.432L271.871 333.918L271.953 332.397L272.059 330.863L272.183 329.306L272.324 327.722L272.475 326.1L272.633 324.433L272.794 322.712L272.953 320.93L273.106 319.078L273.25 317.148L273.38 315.133L273.493 313.024L273.583 310.812L273.648 308.491L273.682 306.051L273.681 303.485L273.643 300.785L273.562 297.942L273.433 294.95L276.127 294.814L276.257 297.844L276.339 300.725L276.378 303.464L276.379 306.068L276.344 308.545L276.279 310.903L276.186 313.148L276.073 315.29L275.94 317.334L275.795 319.287L275.639 321.159L275.478 322.955L275.317 324.683L275.16 326.35L275.009 327.964L274.87 329.532L274.747 331.062L274.645 332.56L274.565 334.036L274.514 335.496L274.494 336.95L274.51 338.404L274.565 339.869L274.665 341.352L274.811 342.861L275.009 344.405L275.263 345.994L275.578 347.634L275.958 349.336L276.406 351.105L276.928 352.951L277.529 354.882L277.53 354.883ZM281.985 390.677L279.289 390.759L279.273 389.945V389.147L279.287 388.363L279.312 387.59L279.345 386.824L279.385 386.063L279.428 385.303L279.473 384.541L279.516 383.773L279.556 382.995L279.59 382.203L279.617 381.394L279.634 380.564L279.638 379.709L279.627 378.825L279.6 377.907L279.555 376.954L279.487 375.959L279.397 374.919L279.279 373.832L279.133 372.693L278.957 371.498L278.746 370.244L278.501 368.927L278.217 367.544L277.893 366.091L277.526 364.564L277.114 362.961L276.653 361.278L276.143 359.511L275.581 357.657L274.964 355.712L277.529 354.882L278.157 356.858L278.73 358.746L279.25 360.549L279.721 362.271L280.143 363.914L280.52 365.482L280.854 366.979L281.148 368.409L281.402 369.774L281.621 371.079L281.805 372.324L281.957 373.516L282.08 374.656L282.176 375.748L282.247 376.796L282.295 377.801L282.324 378.767L282.335 379.698L282.33 380.596L282.313 381.464L282.285 382.304L282.25 383.121L282.208 383.916L282.165 384.693L282.12 385.457L282.077 386.208L282.038 386.952L282.007 387.69L281.983 388.429L281.97 389.169V389.917L281.984 390.676L281.985 390.677ZM281.985 390.677C282.007 391.42 281.422 392.041 280.678 392.064C279.933 392.086 279.312 391.502 279.289 390.759L281.985 390.677Z" fill="#FF5E04"/>
</g>
<g id="Group_3">
<path id="Vector_58" d="M253.395 292.625C253.651 291.928 254.426 291.569 255.126 291.825C255.825 292.08 256.184 292.854 255.927 293.552L253.395 292.626V292.625ZM249.954 345.994L247.257 346.022L247.224 344.626L247.157 343.306L247.06 342.051L246.939 340.85L246.796 339.694L246.639 338.573L246.47 337.477L246.294 336.394L246.117 335.317L245.943 334.237L245.778 333.143L245.626 332.028L245.492 330.883L245.384 329.701L245.306 328.473L245.263 327.192L245.26 325.85L245.304 324.439L245.397 322.951L245.546 321.378L245.756 319.711L246.03 317.941L246.373 316.06L246.792 314.059L247.289 311.929L247.87 309.661L248.54 307.244L249.304 304.671L250.167 301.932L251.133 299.017L252.207 295.918L253.395 292.625L255.928 293.551L254.751 296.813L253.688 299.879L252.733 302.757L251.883 305.456L251.133 307.985L250.476 310.352L249.909 312.567L249.426 314.639L249.02 316.577L248.689 318.389L248.427 320.084L248.228 321.672L248.086 323.162L247.998 324.565L247.958 325.889L247.96 327.145L248 328.343L248.073 329.493L248.175 330.606L248.301 331.691L248.447 332.76L248.608 333.822L248.779 334.886L248.956 335.961L249.133 337.056L249.307 338.182L249.47 339.344L249.618 340.552L249.746 341.812L249.848 343.135L249.919 344.526L249.954 345.994V345.994ZM237.243 381.081L234.558 380.831L234.678 379.932L234.864 379.031L235.11 378.129L235.41 377.224L235.757 376.314L236.148 375.396L236.576 374.471L237.038 373.536L237.529 372.59L238.044 371.631L238.581 370.659L239.133 369.672L239.697 368.671L240.27 367.653L240.846 366.619L241.421 365.569L241.993 364.499L242.555 363.413L243.105 362.307L243.638 361.183L244.149 360.039L244.636 358.874L245.093 357.69L245.518 356.485L245.906 355.258L246.253 354.01L246.555 352.738L246.808 351.444L247.009 350.127L247.153 348.784L247.237 347.416L247.257 346.021L249.954 345.994L249.933 347.516L249.84 349.009L249.684 350.471L249.465 351.904L249.191 353.306L248.865 354.678L248.492 356.021L248.077 357.335L247.624 358.62L247.139 359.876L246.625 361.105L246.088 362.306L245.532 363.481L244.961 364.628L244.381 365.75L243.794 366.847L243.208 367.919L242.624 368.966L242.049 369.989L241.485 370.989L240.939 371.964L240.414 372.916L239.915 373.845L239.445 374.749L239.01 375.63L238.614 376.487L238.259 377.318L237.951 378.125L237.692 378.905L237.488 379.657L237.337 380.382L237.244 381.08L237.243 381.081ZM237.243 381.081C237.174 381.821 236.517 382.365 235.775 382.296C235.034 382.228 234.488 381.571 234.558 380.831L237.243 381.081V381.081Z" fill="#FF5E04"/>
</g>
<path id="Vector_59" d="M296.986 291.49C312.639 285.011 323.398 273.062 325.839 261.174" stroke="#D90324" stroke-width="0.882784" stroke-miterlimit="22.9256" stroke-linecap="round" stroke-linejoin="round"/>
<path id="Vector_60" fill-rule="evenodd" clip-rule="evenodd" d="M356.332 479.877C336.242 482.687 297.959 484.107 272.119 484.135C246.28 484.107 216.937 482.688 196.847 479.877C191.377 479.111 186.959 475.606 186.959 470.014C199.458 476.469 216.773 481.859 276.589 479.877C336.406 477.895 355.908 471.901 361.014 469.948C360.935 471.484 361.525 477.179 356.332 479.877V479.877Z" fill="#2B0087"/>
<path id="Vector_61" fill-rule="evenodd" clip-rule="evenodd" d="M297.623 224.905L296.588 236.535C288.85 248.931 253.633 251.601 248.236 219.923C251.455 223.317 255.359 226.171 259.866 228.251C263.82 230.077 267.928 231.163 272.031 231.571C272.218 231.59 272.404 231.608 272.59 231.624L272.76 231.637C281.697 232.375 290.479 229.89 297.623 224.904V224.905Z" fill="#C98560"/>
<path id="Vector_62" fill-rule="evenodd" clip-rule="evenodd" d="M328.403 186.307C329.147 187.81 329.248 189.83 328.421 191.618L324.727 199.603C322.436 204.556 317.073 207.097 311.947 206.056L310.238 209.738C301.445 228.748 278.892 237.036 259.866 228.252C240.838 219.467 232.542 196.935 241.336 177.924L250.655 157.775L251.991 154.888L259.544 138.558L262.968 131.154C262.968 131.154 273.139 119.934 280.613 125.405C284.428 130.093 290.848 134.391 296.872 136.438C301.347 137.96 305.548 138.379 307.915 138.041C312.966 137.318 320.734 158.284 323.124 162.212L315.421 186.347C315.403 186.387 315.387 186.427 315.374 186.467L315.369 186.479L315.367 186.486C315.355 186.526 315.344 186.566 315.336 186.606L315.334 186.617C315.326 186.658 315.321 186.698 315.318 186.739L315.317 186.744V186.747V186.747C315.314 186.79 315.314 186.831 315.316 186.874L315.317 186.881C315.32 186.923 315.324 186.965 315.331 187.007L315.332 187.01C315.34 187.053 315.35 187.097 315.363 187.139V187.14L315.365 187.146C315.377 187.185 315.39 187.226 315.406 187.265L315.409 187.271L315.412 187.278C315.429 187.318 315.447 187.358 315.467 187.398L315.471 187.405C315.493 187.446 315.516 187.488 315.542 187.528L315.544 187.531L315.55 187.54C315.574 187.579 315.602 187.618 315.629 187.657L315.632 187.66L315.636 187.666C315.666 187.706 315.698 187.746 315.731 187.785L315.736 187.791C315.771 187.831 315.807 187.871 315.845 187.911L315.847 187.914L315.858 187.925C315.894 187.963 315.932 188.001 315.972 188.038C316.011 188.075 316.051 188.11 316.093 188.146L316.132 188.179L316.242 188.269L316.292 188.307L316.374 188.369L316.419 188.402L316.422 188.404L316.435 188.413L316.564 188.503L316.576 188.511L316.588 188.519L316.629 188.546L316.732 188.612L316.791 188.649L316.943 188.739L316.956 188.747L316.965 188.751L316.97 188.754L317.024 188.785L317.024 188.785C319.946 190.426 325.708 191.197 327.022 188.815L328.401 186.309L328.403 186.307Z" fill="#EBA884"/>
<path id="Vector_63" d="M277.582 94.746C278.18 94.1784 278.541 94.0371 279.174 94.293C279.719 94.5341 279.794 95.0749 279.552 95.6191C279.538 95.6521 273.716 106.388 277.596 111.609C278.324 109.656 278.496 96.4798 290.171 92.1721C302.032 87.7946 306.16 103.123 305.637 103.581C305.113 104.038 323.701 112.707 333.014 125.369C342.326 138.031 345.362 149.413 338.529 164.746C331.696 180.079 333.58 176.927 327.024 188.815C325.141 192.229 314.119 189.166 315.422 186.349L323.124 162.214C320.734 158.285 312.966 137.319 307.915 138.043C305.548 138.381 301.347 137.961 296.872 136.44C290.848 134.392 284.428 130.094 280.614 125.407C273.139 119.935 262.968 131.156 262.968 131.156L255.346 147.635L254.011 150.522C254.011 150.522 244.751 148.167 250.011 138.704C255.27 129.24 252.226 126.458 260.284 119.667C265.789 115.027 268.986 112.936 272.405 112.124C269.78 105.831 276.016 96.2492 277.582 94.746Z" fill="#241813"/>
<path id="Vector_64" d="M274.929 170.895C272.617 175.485 269.892 179.848 267.618 184.465C266.379 186.989 263.797 188.902 263.168 191.651C262.787 193.288 263.748 196.251 265.274 197.42C265.8 197.822 264.923 198.077 264.652 198.094C264 198.135 263.31 197.977 262.792 197.58C261.28 196.421 259.973 193.738 260.237 192.017C260.667 189.245 263.297 187.282 264.487 184.766C266.807 179.851 269.723 175.278 272.162 170.433C272.579 169.611 275.205 170.353 274.928 170.895L274.929 170.895Z" fill="black"/>
<path id="Vector_65" d="M321.394 194.293C321.483 193.942 321.84 193.728 322.192 193.817C322.543 193.906 322.758 194.263 322.669 194.614C322.663 194.638 320.54 203.001 315.275 202.811C314.912 202.798 314.628 202.492 314.641 202.129C314.654 201.766 314.96 201.482 315.324 201.495C319.528 201.647 321.389 194.314 321.394 194.293V194.293Z" fill="#C98560"/>
<path id="Vector_66" d="M257.563 159.936C256.771 162.105 257.892 164.507 260.064 165.297C262.239 166.09 264.64 164.97 265.431 162.8C266.223 160.629 265.106 158.229 262.93 157.437C260.76 156.647 258.354 157.765 257.563 159.936V159.936Z" fill="black"/>
<path id="Vector_67" d="M288.828 170.407C288.036 172.578 289.153 174.978 291.327 175.77C293.503 176.561 295.904 175.443 296.695 173.273C297.488 171.101 296.37 168.702 294.194 167.91C292.019 167.118 289.619 168.236 288.827 170.408L288.828 170.407Z" fill="black"/>
<path id="Vector_68" d="M261.768 149.251C268.914 151.994 271.886 155.12 272.871 158.136C273.283 159.394 273.35 160.604 273.229 161.744C274.708 161.713 276.14 161.895 277.494 162.366C278.875 162.846 280.162 163.619 281.318 164.762C282.067 163.477 283.084 162.26 284.612 161.383C287.374 159.797 291.686 159.46 298.846 162.208C306.006 164.957 308.983 168.088 309.972 171.111C310.015 171.244 310.054 171.377 310.09 171.508L329.373 184.771C329.881 185.118 330.011 185.811 329.664 186.318C329.316 186.826 328.623 186.956 328.115 186.609L310.359 174.396C310.228 176.206 309.594 177.853 309.049 179.269C308.206 181.463 306.947 184.736 303.991 186.85C301.036 188.962 296.508 189.818 289.293 187.049C274.687 181.443 278.108 172.542 279.833 168.054L279.875 167.946C280.003 167.613 280.137 167.268 280.281 166.916C279.237 165.697 278.047 164.916 276.76 164.469C275.52 164.037 274.171 163.907 272.762 163.988C272.518 164.803 272.224 165.57 271.952 166.278C271.11 168.468 269.855 171.731 266.906 173.837C263.959 175.941 259.442 176.79 252.241 174.027C237.665 168.432 241.072 159.567 242.794 155.086L242.835 154.979C243.685 152.769 244.774 150.032 247.564 148.429C250.321 146.845 254.625 146.51 261.769 149.252L261.768 149.251ZM307.85 171.806C307.049 169.356 304.448 166.747 298.042 164.288C291.636 161.829 287.957 162.026 285.724 163.309C283.571 164.546 282.648 166.947 281.914 168.854L281.873 168.962C280.404 172.785 277.686 180.206 290.093 184.968C296.444 187.405 300.279 186.76 302.692 185.035C305.103 183.312 306.219 180.41 306.966 178.467C307.699 176.562 308.62 174.164 307.85 171.805L307.85 171.806ZM251.838 155.345C252.385 155.629 252.598 156.302 252.314 156.849C252.03 157.395 251.356 157.609 250.809 157.325L245.407 154.551C245.213 155.009 245.039 155.46 244.876 155.886L244.834 155.994C243.369 159.808 240.664 167.194 253.043 171.946C259.38 174.378 263.204 173.738 265.609 172.022C268.012 170.306 269.124 167.416 269.869 165.476C270.601 163.575 271.52 161.184 270.751 158.831C269.953 156.387 267.358 153.783 260.966 151.331C254.574 148.877 250.903 149.074 248.676 150.354C247.711 150.908 246.994 151.696 246.431 152.569L251.838 155.344V155.345Z" fill="#160045"/>
<path id="Vector_69" fill-rule="evenodd" clip-rule="evenodd" d="M126.874 259.219L89.0896 268.763L86.6758 259.544L124.448 249.715L126.874 259.219Z" fill="#D90324"/>
<path id="Vector_70" d="M283.213 374.273C283.145 372.717 281.827 371.51 280.269 371.578C278.712 371.646 277.504 372.963 277.572 374.519L277.987 384.028C278.055 385.584 279.373 386.79 280.93 386.722C282.488 386.655 283.695 385.338 283.628 383.782L283.213 374.273Z" fill="#FF5E04"/>
<path id="Vector_71" d="M246.214 365.159C246.946 363.783 246.423 362.075 245.046 361.344C243.67 360.613 241.96 361.135 241.229 362.511L236.757 370.915C236.026 372.291 236.548 373.998 237.925 374.729C239.302 375.46 241.011 374.938 241.743 373.563L246.214 365.159Z" fill="#FF5E04"/>
<path id="Vector_72" d="M220.99 261.487C220.93 267.703 224.619 277.178 231.592 283.45" stroke="#D90324" stroke-width="0.882784" stroke-miterlimit="22.9256" stroke-linecap="round" stroke-linejoin="round"/>
<path id="Vector_73" d="M151.607 283.966L156.99 312.458" stroke="#D90324" stroke-width="0.882784" stroke-miterlimit="22.9256" stroke-linecap="round" stroke-linejoin="round"/>
<path id="Vector_74" d="M513.607 937.998C528.475 937.998 540.528 934.93 540.528 931.145C540.528 927.359 528.475 924.291 513.607 924.291C498.739 924.291 486.686 927.359 486.686 931.145C486.686 934.93 498.739 937.998 513.607 937.998Z" fill="#F2D091"/>
<path id="Vector_75" d="M457.894 953.788C467.212 953.788 474.766 952.406 474.766 950.7C474.766 948.995 467.212 947.612 457.894 947.612C448.576 947.612 441.022 948.995 441.022 950.7C441.022 952.406 448.576 953.788 457.894 953.788Z" fill="#F2D091"/>
<path id="Vector_76" d="M316.764 413.583C285.452 412.19 237.105 406.576 204.123 412.824" stroke="#D90324" stroke-width="0.882784" stroke-miterlimit="22.9256" stroke-linecap="round" stroke-linejoin="round"/>
<path id="Vector_77" d="M316.765 413.582L319.162 406.602" stroke="#D90324" stroke-width="0.882784" stroke-miterlimit="22.9256" stroke-linecap="round" stroke-linejoin="round"/>
<path id="Vector_78" d="M204.123 412.824C203.415 420.451 204.251 433.64 203.037 442.545C202.833 446.536 197.288 451.798 192.396 454.296" stroke="#D90324" stroke-width="0.882784" stroke-miterlimit="22.9256" stroke-linecap="round" stroke-linejoin="round"/>
<path id="Vector_79" d="M204.123 412.824L202.075 405.733" stroke="#D90324" stroke-width="0.882784" stroke-miterlimit="22.9256" stroke-linecap="round" stroke-linejoin="round"/>
<path id="Vector_80" d="M316.765 413.583L333.297 447.926C338.69 458.827 345.027 459.099 349.996 459.766" stroke="#D90324" stroke-width="0.882784" stroke-miterlimit="22.9256" stroke-linecap="round" stroke-linejoin="round"/>
<path id="Vector_81" d="M509.143 896.165C513.802 896.165 517.579 895.156 517.579 893.912C517.579 892.668 513.802 891.659 509.143 891.659C504.484 891.659 500.707 892.668 500.707 893.912C500.707 895.156 504.484 896.165 509.143 896.165Z" fill="#F2D091"/>
<path id="Vector_82" d="M259.685 208.039C260.997 208.643 262.31 209.248 263.621 209.851C264.297 210.162 262.482 211.839 261.816 211.533C260.503 210.928 259.191 210.324 257.884 209.723C257.204 209.41 259.024 207.735 259.685 208.04V208.039Z" fill="black"/>
<path id="Vector_83" d="M253.487 200.083C253.195 200.411 253.106 200.561 253.456 201.097C255.396 204.075 256.499 201.375 259.719 202.438C265.639 204.391 269.602 209.741 274.851 209.631C275.678 209.614 276.848 209.683 277.019 208.8" stroke="black" stroke-width="2" stroke-miterlimit="22.9256" stroke-linecap="round" stroke-linejoin="round"/>
<path id="Vector_84" d="M308.35 160.375C307.779 159.589 307.754 158.485 306.903 157.649C305.005 155.786 301.799 154.223 299.125 153.193C295.252 151.7 294.425 149.016 294.163 146.299C293.901 143.583 295.979 143.567 298.404 145.637C300.828 147.706 304.102 149.403 308.546 152.168C312.989 154.932 313.819 158.484 312.827 160.989C311.837 163.495 310.194 162.913 308.349 160.375H308.35Z" fill="#241813"/>
<path id="Vector_85" d="M262.419 141.536C263.365 141.091 264.206 140.361 266.692 140.4C269.178 140.439 274.467 143.564 275.619 145.936C277.459 149.727 284.156 149.831 282.656 145.659C281.249 141.745 274.688 135.354 267.595 135.992C260.501 136.629 257.956 143.63 262.419 141.535V141.536Z" fill="#241813"/>
<path id="Vector_86" fill-rule="evenodd" clip-rule="evenodd" d="M136.549 388.802L137.058 388.806L137.162 388.807L137.622 388.817L137.666 388.818L137.679 388.818C137.845 388.823 138.011 388.829 138.176 388.836L138.264 388.839L138.682 388.86L138.774 388.864L138.801 388.866L138.859 388.869L139.255 388.894L139.414 388.905L139.774 388.933L139.875 388.941L139.914 388.944L140.366 388.986L140.52 389.001L140.912 389.042L140.967 389.048L141.019 389.054L141.385 389.098L141.436 389.104L141.592 389.124L141.968 389.175L142.049 389.185L142.114 389.195L142.477 389.248L142.507 389.253L142.702 389.283L143.107 389.349L143.127 389.353C143.303 389.383 143.479 389.413 143.654 389.446L143.657 389.447C144.002 389.51 144.345 389.578 144.687 389.651L144.769 389.668L145.174 389.757L145.239 389.771L145.34 389.795L145.692 389.877L145.761 389.894L145.852 389.917L146.212 390.007L146.311 390.031L146.792 390.158L146.816 390.165L147.304 390.301L147.316 390.305C147.818 390.448 148.315 390.601 148.808 390.764L148.837 390.774L148.846 390.777C149.004 390.829 149.162 390.883 149.318 390.937L149.36 390.951L149.822 391.115L149.839 391.121L149.876 391.135L150.328 391.302L150.34 391.306L150.823 391.492L150.828 391.494C153.478 392.536 155.986 393.858 158.318 395.426L158.316 395.427C161.314 397.443 164.017 399.864 166.345 402.612C158.752 408.215 149.364 411.527 139.201 411.527C127.633 411.527 117.07 407.235 109.016 400.161C112.611 396.586 116.899 393.706 121.662 391.741L121.693 391.728C122.088 391.565 122.486 391.41 122.886 391.26L122.925 391.246C123.989 390.85 125.075 390.498 126.181 390.195L126.28 390.168C126.549 390.094 126.819 390.025 127.09 389.957L127.141 389.944L127.452 389.869L127.634 389.825L127.91 389.762L128.073 389.725L128.34 389.667L128.548 389.623L128.82 389.567L128.93 389.545L129.285 389.477L129.38 389.46L129.706 389.4L129.74 389.394L130.142 389.326L130.184 389.319L130.624 389.249L130.629 389.249L131.075 389.183L131.315 389.151L131.569 389.117L131.594 389.114L131.972 389.068L131.998 389.065L132.258 389.036L132.501 389.01L132.723 388.988L132.968 388.965L133.192 388.945L133.431 388.925L133.703 388.905L133.887 388.892L134.155 388.875L134.415 388.86L134.61 388.85L134.959 388.835L135.078 388.83L135.395 388.819L135.592 388.814L135.624 388.813L136.048 388.805L136.086 388.805L136.55 388.802L136.549 388.802Z" fill="#FF6600"/>
<path id="Vector_87" fill-rule="evenodd" clip-rule="evenodd" d="M82.8721 250.709L54.9356 234.454L42.6697 221.446L29.615 199.855C25.5733 194.15 33.9046 187.902 38.4713 194.609L40.3275 197.429L38.2764 191.685C36.2448 185.419 45.3157 181.875 48.3277 189.545L57.2686 211.393L54.4802 200.083C51.6111 191.726 61.2515 188.381 63.6562 195.24L68.6057 212.212C70.6186 209.475 75.1744 209.52 76.4606 214.234L76.8987 215.872L87.1913 220.237C88.8512 220.846 91.9181 220.691 90.6687 218.725C71.7457 195.712 85.6562 191.281 90.9998 197.89C108.892 216.366 112.191 216.463 119.416 231.231L124.45 249.716L86.6777 259.544L82.8735 250.709H82.8721Z" fill="#EBA884"/>
<path id="Vector_88" d="M78.3408 221.138L80.4197 228.919L89.621 233.266M71.6135 231.714C70.1338 226.18 68.9747 221.069 67.8576 216.908C67.3927 214.978 67.753 213.38 68.5466 212.238L71.6135 231.714Z" stroke="#C98560" stroke-width="0.441471" stroke-miterlimit="22.9256" stroke-linecap="round" stroke-linejoin="round"/>
<g id="Group_4">
<path id="Vector_89" d="M99.316 229.263L99.7432 227.993C100.094 228.111 100.283 228.491 100.166 228.842C100.048 229.192 99.6667 229.381 99.3155 229.263H99.316ZM91.937 223.251L92.1462 223.473L92.3598 223.688L92.5777 223.899L92.7989 224.105L93.0239 224.305L93.2528 224.5L93.485 224.69L93.7196 224.875L93.9576 225.056L94.1979 225.232L94.4406 225.403L94.6857 225.568L94.9327 225.73L95.1817 225.887L95.432 226.039L95.6843 226.187L95.938 226.33L96.1922 226.469L96.4473 226.604L96.703 226.735L96.9591 226.861L97.2156 226.983L97.4722 227.101L97.7283 227.216L97.9834 227.326L98.2381 227.433L98.4923 227.535L98.7455 227.634L98.9973 227.729L99.2482 227.82L99.4961 227.908L99.7427 227.993L99.3155 229.263L99.0561 229.174L98.7947 229.082L98.5315 228.986L98.2653 228.885L97.9987 228.781L97.7302 228.672L97.4603 228.56L97.1898 228.443L96.9184 228.323L96.6466 228.197L96.3738 228.067L96.1014 227.933L95.8286 227.794L95.5563 227.65L95.2849 227.501L95.014 227.348L94.744 227.189L94.475 227.027L94.2074 226.858L93.9413 226.684L93.6776 226.505L93.4153 226.32L93.1549 226.13L92.8973 225.935L92.6422 225.733L92.3904 225.527L92.1419 225.315L91.8954 225.096L91.6536 224.871L91.4152 224.641L91.1811 224.404L90.9513 224.16L91.9355 223.251L91.937 223.251ZM91.937 223.251L90.9527 224.161C90.7014 223.889 90.7176 223.464 90.9895 223.214C91.2614 222.963 91.6861 222.98 91.937 223.252V223.251Z" fill="#C98560"/>
</g>
<path id="Vector_90" d="M60.1004 218.831L57.2686 211.393" stroke="#C98560" stroke-width="0.441471" stroke-miterlimit="22.9256" stroke-linecap="round" stroke-linejoin="round"/>
<path id="Vector_91" fill-rule="evenodd" clip-rule="evenodd" d="M376.735 402.953C381.168 406.926 386.58 409.929 392.724 411.526C407.482 415.364 422.631 410.1 431.996 399.244C425.448 392.331 416.179 388.018 405.901 388.018C393.89 388.018 383.258 393.907 376.735 402.953Z" fill="#FF6600"/>
<path id="Vector_92" fill-rule="evenodd" clip-rule="evenodd" d="M408.138 266.712L445.921 276.256L448.335 267.036L410.563 257.208L408.138 266.712Z" fill="#D90324"/>
<path id="Vector_93" d="M383.404 291.459L378.021 319.951" stroke="#D90324" stroke-width="0.882784" stroke-miterlimit="22.9256" stroke-linecap="round" stroke-linejoin="round"/>
<path id="Vector_94" fill-rule="evenodd" clip-rule="evenodd" d="M452.14 258.202L480.077 241.946L492.342 228.938L505.397 207.347C509.439 201.642 501.108 195.394 496.541 202.102L494.685 204.921L496.736 199.177C498.767 192.911 489.696 189.367 486.684 197.037L477.743 218.885L480.532 207.576C483.401 199.218 473.761 195.873 471.356 202.732L466.406 219.704C464.393 216.967 459.838 217.013 458.551 221.727L458.113 223.364L447.821 227.729C446.161 228.339 443.094 228.183 444.343 226.218C463.266 203.204 449.356 198.773 444.012 205.382C426.12 223.859 422.821 223.955 415.596 238.723L410.562 257.208L448.334 267.036L452.139 258.202H452.14Z" fill="#EBA884"/>
<path id="Vector_95" d="M456.672 228.631L454.593 236.412L445.392 240.759M463.399 239.207C464.879 233.673 466.038 228.562 467.155 224.401C467.62 222.472 467.26 220.873 466.466 219.731L463.399 239.207Z" stroke="#C98560" stroke-width="0.441471" stroke-miterlimit="22.9256" stroke-linecap="round" stroke-linejoin="round"/>
<g id="Group_5">
<path id="Vector_96" d="M435.697 236.756C435.347 236.874 434.965 236.686 434.847 236.335C434.73 235.985 434.919 235.604 435.27 235.486L435.697 236.756H435.697ZM443.076 230.745L444.061 231.654L443.831 231.898L443.597 232.135L443.358 232.365L443.117 232.59L442.87 232.809L442.622 233.021L442.37 233.227L442.115 233.429L441.857 233.624L441.597 233.814L441.334 233.999L441.071 234.178L440.805 234.351L440.537 234.52L440.268 234.683L439.998 234.842L439.727 234.995L439.456 235.144L439.183 235.288L438.911 235.426L438.638 235.561L438.365 235.691L438.094 235.816L437.822 235.937L437.552 236.054L437.282 236.166L437.013 236.275L436.747 236.379L436.481 236.48L436.217 236.575L435.956 236.668L435.696 236.757L435.269 235.487L435.516 235.402L435.764 235.314L436.015 235.223L436.266 235.128L436.52 235.029L436.774 234.927L437.029 234.82L437.284 234.71L437.54 234.595L437.796 234.477L438.053 234.355L438.309 234.229L438.565 234.098L438.82 233.963L439.074 233.824L439.328 233.681L439.58 233.533L439.83 233.38L440.079 233.223L440.326 233.062L440.571 232.896L440.814 232.726L441.054 232.55L441.292 232.369L441.527 232.184L441.759 231.994L441.988 231.799L442.213 231.598L442.434 231.393L442.652 231.182L442.866 230.966L443.075 230.745L443.076 230.745ZM443.076 230.745C443.328 230.473 443.753 230.456 444.024 230.707C444.296 230.958 444.312 231.382 444.061 231.654L443.076 230.744V230.745Z" fill="#C98560"/>
</g>
<path id="Vector_97" d="M474.912 226.323L477.745 218.885" stroke="#C98560" stroke-width="0.441471" stroke-miterlimit="22.9256" stroke-linecap="round" stroke-linejoin="round"/>
</g>
</g>
</g>
<defs>
<linearGradient id="paint0_linear_1531_7308" x1="434.423" y1="89.8519" x2="451.416" y2="118.759" gradientUnits="userSpaceOnUse">
<stop stop-color="#6934DD"/>
<stop offset="1" stop-color="#FF0431"/>
</linearGradient>
<linearGradient id="paint1_linear_1531_7308" x1="411.451" y1="72.4272" x2="480.492" y2="189.618" gradientUnits="userSpaceOnUse">
<stop stop-color="#6934DD"/>
<stop offset="1" stop-color="#FF0431"/>
</linearGradient>
<linearGradient id="paint2_linear_1531_7308" x1="394.689" y1="75.5237" x2="491.187" y2="236.526" gradientUnits="userSpaceOnUse">
<stop stop-color="#6934DD"/>
<stop offset="1" stop-color="#FF0431"/>
</linearGradient>
<linearGradient id="paint3_linear_1531_7308" x1="375.632" y1="87.556" x2="491.113" y2="279.23" gradientUnits="userSpaceOnUse">
<stop stop-color="#6934DD"/>
<stop offset="1" stop-color="#FF0431"/>
</linearGradient>
<linearGradient id="paint4_linear_1531_7308" x1="352.274" y1="102.287" x2="485.613" y2="323.85" gradientUnits="userSpaceOnUse">
<stop stop-color="#6934DD"/>
<stop offset="1" stop-color="#FF0431"/>
</linearGradient>
<linearGradient id="paint5_linear_1531_7308" x1="305.205" y1="111.076" x2="472.837" y2="391.465" gradientUnits="userSpaceOnUse">
<stop stop-color="#6934DD"/>
<stop offset="1" stop-color="#FF0431"/>
</linearGradient>
<linearGradient id="paint6_linear_1531_7308" x1="261.02" y1="119.338" x2="462.356" y2="457.23" gradientUnits="userSpaceOnUse">
<stop stop-color="#6934DD"/>
<stop offset="1" stop-color="#FF0431"/>
</linearGradient>
<linearGradient id="paint7_linear_1531_7308" x1="243.063" y1="133.624" x2="460.208" y2="498.576" gradientUnits="userSpaceOnUse">
<stop stop-color="#6934DD"/>
<stop offset="1" stop-color="#FF0431"/>
</linearGradient>
<linearGradient id="paint8_linear_1531_7308" x1="235.201" y1="150.058" x2="461.569" y2="530.809" gradientUnits="userSpaceOnUse">
<stop stop-color="#6934DD"/>
<stop offset="1" stop-color="#FF0431"/>
</linearGradient>
<linearGradient id="paint9_linear_1531_7308" x1="231.988" y1="167.452" x2="464.436" y2="558.654" gradientUnits="userSpaceOnUse">
<stop stop-color="#6934DD"/>
<stop offset="1" stop-color="#FF0431"/>
</linearGradient>
<linearGradient id="paint10_linear_1531_7308" x1="231.011" y1="185.471" x2="467.654" y2="584.249" gradientUnits="userSpaceOnUse">
<stop stop-color="#6934DD"/>
<stop offset="1" stop-color="#FF0431"/>
</linearGradient>
<linearGradient id="paint11_linear_1531_7308" x1="231.501" y1="204.153" x2="471.118" y2="608.178" gradientUnits="userSpaceOnUse">
<stop stop-color="#6934DD"/>
<stop offset="1" stop-color="#FF0431"/>
</linearGradient>
<linearGradient id="paint12_linear_1531_7308" x1="232.714" y1="223.584" x2="474.288" y2="630.934" gradientUnits="userSpaceOnUse">
<stop stop-color="#6934DD"/>
<stop offset="1" stop-color="#FF0431"/>
</linearGradient>
<linearGradient id="paint13_linear_1531_7308" x1="234.068" y1="243.828" x2="476.756" y2="652.824" gradientUnits="userSpaceOnUse">
<stop stop-color="#6934DD"/>
<stop offset="1" stop-color="#FF0431"/>
</linearGradient>
<linearGradient id="paint14_linear_1531_7308" x1="235.288" y1="264.805" x2="478.289" y2="674.307" gradientUnits="userSpaceOnUse">
<stop stop-color="#6934DD"/>
<stop offset="1" stop-color="#FF0431"/>
</linearGradient>
<linearGradient id="paint15_linear_1531_7308" x1="236.506" y1="286.439" x2="479.12" y2="695.248" gradientUnits="userSpaceOnUse">
<stop stop-color="#6934DD"/>
<stop offset="1" stop-color="#FF0431"/>
</linearGradient>
<linearGradient id="paint16_linear_1531_7308" x1="237.895" y1="308.97" x2="479.057" y2="715.264" gradientUnits="userSpaceOnUse">
<stop stop-color="#6934DD"/>
<stop offset="1" stop-color="#FF0431"/>
</linearGradient>
<linearGradient id="paint17_linear_1531_7308" x1="239.596" y1="332.583" x2="477.922" y2="734.063" gradientUnits="userSpaceOnUse">
<stop stop-color="#6934DD"/>
<stop offset="1" stop-color="#FF0431"/>
</linearGradient>
<linearGradient id="paint18_linear_1531_7308" x1="241.952" y1="357.632" x2="475.671" y2="751.147" gradientUnits="userSpaceOnUse">
<stop stop-color="#6934DD"/>
<stop offset="1" stop-color="#FF0431"/>
</linearGradient>
<linearGradient id="paint19_linear_1531_7308" x1="244.969" y1="384.556" x2="471.685" y2="766.451" gradientUnits="userSpaceOnUse">
<stop stop-color="#6934DD"/>
<stop offset="1" stop-color="#FF0431"/>
</linearGradient>
<linearGradient id="paint20_linear_1531_7308" x1="248.867" y1="414.017" x2="465.264" y2="779.046" gradientUnits="userSpaceOnUse">
<stop stop-color="#6934DD"/>
<stop offset="1" stop-color="#FF0431"/>
</linearGradient>
<linearGradient id="paint21_linear_1531_7308" x1="253.668" y1="447.276" x2="455.226" y2="787.837" gradientUnits="userSpaceOnUse">
<stop stop-color="#6934DD"/>
<stop offset="1" stop-color="#FF0431"/>
</linearGradient>
<linearGradient id="paint22_linear_1531_7308" x1="259.299" y1="486.636" x2="438.853" y2="791.048" gradientUnits="userSpaceOnUse">
<stop stop-color="#6934DD"/>
<stop offset="1" stop-color="#FF0431"/>
</linearGradient>
<linearGradient id="paint23_linear_1531_7308" x1="265.16" y1="537.241" x2="410.502" y2="784.602" gradientUnits="userSpaceOnUse">
<stop stop-color="#6934DD"/>
<stop offset="1" stop-color="#FF0431"/>
</linearGradient>
<linearGradient id="paint24_linear_1531_7308" x1="266.983" y1="620.564" x2="345.668" y2="754.463" gradientUnits="userSpaceOnUse">
<stop stop-color="#6934DD"/>
<stop offset="1" stop-color="#FF0431"/>
</linearGradient>
<linearGradient id="paint25_linear_1531_7308" x1="453.297" y1="730.586" x2="195.048" y2="1155.61" gradientUnits="userSpaceOnUse">
<stop stop-color="#FFEDB2"/>
<stop offset="0.341176" stop-color="#FFF6D8"/>
<stop offset="1" stop-color="white"/>
</linearGradient>
<clipPath id="clip0_1531_7308">
<rect width="568" height="881" fill="white" transform="translate(28.54 91.3838)"/>
</clipPath>
</defs>
</svg>
