<svg width="404" height="615" viewBox="0 0 404 615" fill="none" xmlns="http://www.w3.org/2000/svg">
<g id="Group 1000006121">
<g id="Group" opacity="0.2">
<path id="Vector" opacity="0.55" d="M259.04 59.1804L280.777 56.5697C273.497 56.588 266.184 57.4662 259.04 59.1804Z" fill="url(#paint0_linear_1524_7307)"/>
<path id="Vector_2" opacity="0.55" d="M308.992 64.3565L227.625 74.1257C226.165 74.7832 224.706 75.4567 223.251 76.1463L311.346 65.5652C310.609 65.1551 309.829 64.7511 308.992 64.3565Z" fill="url(#paint1_linear_1524_7307)"/>
<path id="Vector_3" opacity="0.55" d="M322.034 75.8534L205.434 89.9385L201.842 91.8367L322.64 77.2282C322.442 76.8021 322.25 76.3245 322.034 75.8534Z" fill="url(#paint2_linear_1524_7307)"/>
<path id="Vector_4" opacity="0.55" d="M326.407 89.2137L185.961 106.233L182.409 108.15L326.144 90.7268C326.238 90.2225 326.325 89.7147 326.407 89.2137Z" fill="url(#paint3_linear_1524_7307)"/>
<path id="Vector_5" opacity="0.55" d="M327.333 103.686L165.05 123.343C163.554 124.051 162.095 124.734 160.672 125.392L326.843 105.254C327.02 104.716 327.175 104.196 327.333 103.686Z" fill="url(#paint4_linear_1524_7307)"/>
<path id="Vector_6" opacity="0.55" d="M328.105 120.816L126.676 145.141C123.59 146.019 120.499 146.892 117.405 147.76L327.822 122.355C327.887 121.837 327.991 121.32 328.105 120.816Z" fill="url(#paint5_linear_1524_7307)"/>
<path id="Vector_7" opacity="0.55" d="M330.045 137.415L80.9723 167.463C79.3631 168.128 77.7697 168.819 76.1922 169.536L329.867 138.93C329.922 138.426 329.977 137.922 330.045 137.415Z" fill="url(#paint6_linear_1524_7307)"/>
<path id="Vector_8" opacity="0.55" d="M332.706 150.964L61.0431 183.698C60.2016 184.289 59.3675 184.883 58.5514 185.495L332.586 152.453C332.639 151.966 332.67 151.469 332.706 150.964Z" fill="url(#paint7_linear_1524_7307)"/>
<path id="Vector_9" opacity="0.55" d="M335.819 163.317L51.3998 197.594C50.8769 198.155 50.3661 198.714 49.8629 199.275L335.78 164.817L335.819 163.317Z" fill="url(#paint8_linear_1524_7307)"/>
<path id="Vector_10" opacity="0.55" d="M339.138 175.104L46.4359 210.376C46.074 210.906 45.7075 211.442 45.3862 212L339.107 176.607C339.111 176.106 339.122 175.608 339.138 175.104Z" fill="url(#paint9_linear_1524_7307)"/>
<path id="Vector_11" opacity="0.55" d="M342.415 186.648L43.9508 222.592C43.6874 223.123 43.4287 223.648 43.1728 224.183L342.357 188.147L342.415 186.648Z" fill="url(#paint10_linear_1524_7307)"/>
<path id="Vector_12" opacity="0.55" d="M345.421 198.075L42.9397 234.496C42.7325 235.018 42.5328 235.544 42.3332 236.069L345.302 199.59L345.421 198.075Z" fill="url(#paint11_linear_1524_7307)"/>
<path id="Vector_13" opacity="0.55" d="M347.918 209.527L42.8359 246.266C42.6728 246.782 42.4975 247.301 42.3297 247.823L347.699 211.058C347.771 210.544 347.839 210.037 347.918 209.527Z" fill="url(#paint12_linear_1524_7307)"/>
<path id="Vector_14" opacity="0.55" d="M349.667 221.084L43.2332 257.999L42.7572 259.571L349.301 222.655C349.434 222.125 349.538 221.608 349.667 221.084Z" fill="url(#paint13_linear_1524_7307)"/>
<path id="Vector_15" opacity="0.55" d="M350.752 232.805L43.8303 269.768L43.4001 271.316L350.304 234.336L350.752 232.805Z" fill="url(#paint14_linear_1524_7307)"/>
<path id="Vector_16" opacity="0.55" d="M351.208 244.626L44.7212 281.541L44.3593 283.077L350.658 246.189C350.846 245.667 351.033 245.145 351.208 244.626Z" fill="url(#paint15_linear_1524_7307)"/>
<path id="Vector_17" opacity="0.55" d="M350.877 256.572L46.1586 293.272C46.0668 293.785 45.9796 294.292 45.9 294.802L350.199 258.148C350.426 257.626 350.657 257.098 350.877 256.572Z" fill="url(#paint16_linear_1524_7307)"/>
<path id="Vector_18" opacity="0.55" d="M349.602 268.647L48.3374 304.92L48.2231 306.429L348.753 270.241C349.036 269.71 349.327 269.182 349.602 268.647Z" fill="url(#paint17_linear_1524_7307)"/>
<path id="Vector_19" opacity="0.55" d="M347.145 280.86L51.6563 316.481C51.677 316.976 51.7097 317.467 51.7425 317.959L346.09 282.491C346.449 281.951 346.796 281.414 347.145 280.86Z" fill="url(#paint18_linear_1524_7307)"/>
<path id="Vector_20" opacity="0.55" d="M343.163 293.298L56.32 327.874C56.424 328.363 56.5263 328.87 56.6611 329.329L341.826 294.948C342.276 294.406 342.724 293.854 343.163 293.298Z" fill="url(#paint19_linear_1524_7307)"/>
<path id="Vector_21" opacity="0.55" d="M337.034 306.011L62.8348 339.019L63.5042 340.43L335.281 307.716C335.876 307.152 336.493 306.599 337.034 306.011Z" fill="url(#paint20_linear_1524_7307)"/>
<path id="Vector_22" opacity="0.55" d="M327.615 319.223L71.7495 350C72.1134 350.459 72.4894 350.915 72.8701 351.364L325.202 321.003C326.012 320.415 326.823 319.828 327.615 319.223Z" fill="url(#paint21_linear_1524_7307)"/>
<path id="Vector_23" opacity="0.55" d="M312.804 333.35L84.0365 360.793C84.6162 361.228 85.2006 361.657 85.8018 362.075L309.251 335.264C310.467 334.608 311.65 333.972 312.804 333.35Z" fill="url(#paint22_linear_1524_7307)"/>
<path id="Vector_24" opacity="0.55" d="M287.536 349.293L101.537 371.6C102.488 372.004 103.445 372.383 104.419 372.752L281.344 351.533C283.418 350.806 285.482 350.059 287.536 349.293Z" fill="url(#paint23_linear_1524_7307)"/>
<path id="Vector_25" opacity="0.55" d="M231.154 371.446L130.469 383.526C132.74 383.812 135.021 384.035 137.313 384.194L215.311 374.843C220.566 373.743 225.847 372.611 231.154 371.446Z" fill="url(#paint24_linear_1524_7307)"/>
</g>
<g id="&#208;&#191;&#208;&#176;&#208;&#178;&#208;&#181;&#208;&#187;5 2" clip-path="url(#clip0_1524_7307)">
<g id="&#208;&#161;&#208;&#187;&#208;&#190;&#208;&#185;_x0020_1">
<path id="Vector_26" fill-rule="evenodd" clip-rule="evenodd" d="M281.113 186.46L260.293 181.046C256.734 180.12 253.107 180.766 250.176 182.548C243.178 175.031 234.944 171.03 224.658 169.519C221.311 169.027 214.187 169.136 210.378 169.135C206.097 164.278 198.989 159.854 189.821 159.854L173.324 159.842H159.323C155.411 160.311 147.401 164.166 143.12 169.023C141.141 169.023 139.337 169.11 138.757 169.169C120.742 170.98 110.096 179.3 100.562 191.261L99.1746 185.799C97.404 178.832 90.1841 174.634 83.2227 176.445L62.4028 181.859C55.4417 183.669 51.2277 190.841 53.0397 197.796L65.132 245.377C67.01 259.056 78.7523 269.595 92.9597 269.595C101.187 269.595 108.588 266.061 113.726 260.429L113.75 260.431C117.63 256.127 115.165 258.862 119.045 254.558C118.926 260.289 118.776 285.954 118.739 288.383C118.725 289.369 118.716 290.318 118.716 291.218C119.046 301.369 114.665 302.628 122.289 305.514C128.313 312.451 149.31 312.678 174.333 312.16C221.438 311.572 226.502 309.032 229.184 305.474C236.606 303.825 234.499 289.925 233.187 279.294L233.332 257.058C236.287 263.055 241.71 267.788 248.658 269.595C261.345 272.894 274.504 265.242 277.73 252.547L290.475 202.397C292.288 195.442 288.074 188.27 281.112 186.459L281.113 186.46Z" fill="#FF0028"/>
<path id="Vector_27" d="M237.532 614.04C312.808 614.04 373.832 597.724 373.832 577.596C373.832 557.469 312.808 541.152 237.532 541.152C162.256 541.152 101.232 557.469 101.232 577.596C101.232 597.724 162.256 614.04 237.532 614.04Z" fill="url(#paint25_linear_1524_7307)"/>
<g id="_1522594048">
<path id="Vector_28" fill-rule="evenodd" clip-rule="evenodd" d="M148.534 537.593L147.733 546.181L146.793 551.309L140.178 551.541L120.934 546.796L121.484 534.503C129.403 537.647 140.385 539.209 148.534 537.593H148.534Z" fill="#DAD9FF"/>
<path id="Vector_29" fill-rule="evenodd" clip-rule="evenodd" d="M85.1364 580.299C81.7243 598.093 121.913 600.24 134.562 589.075C147.212 577.909 154.939 584.858 153.825 566.184C153.606 564.107 153.164 561.69 152.591 559.245C151.456 552.306 149.533 548.169 148.377 545.683L148.165 545.225C148.135 545.16 148.089 545.101 148.027 545.053C147.84 544.909 147.585 544.936 147.456 545.111L146.626 546.246C146.573 546.307 146.541 546.386 146.537 546.476L146.531 546.621C146.439 548.153 145.783 549.283 144.706 549.973C143.604 550.679 142.053 550.941 140.203 550.722L140.043 550.702L139.921 550.615C139.963 547.424 139.856 543.926 137.313 541.772C134.409 539.312 123.805 538.579 119.979 539.272C114.808 540.207 115.182 539.208 115.543 547.397C115.462 547.445 115.386 547.493 115.316 547.542C113.884 548.447 112.334 549.392 110.731 550.369C98.5336 557.804 83.2702 567.109 85.139 580.322L85.1376 580.369C85.1378 580.346 85.1346 580.323 85.1358 580.299H85.1364ZM111.201 551.083C99.1762 558.412 84.1258 567.587 85.9577 580.312L85.9606 580.392C85.9331 580.87 86.137 581.373 86.539 581.885C87.5745 583.203 89.8433 584.532 92.8897 585.683C95.9837 586.852 99.8579 587.825 104.049 588.413C114.03 589.811 125.794 589.027 133.094 583.51C137.783 579.966 141.535 577.697 144.448 575.933C150.685 572.16 152.984 570.769 152.363 563.939C151.501 554.466 149.12 549.171 147.731 546.181L147.353 546.697L147.35 546.732C147.245 548.527 146.467 549.857 145.188 550.677C143.936 551.48 142.21 551.782 140.177 551.541L139.901 551.505C139.83 551.496 139.759 551.469 139.695 551.423C135.979 548.741 131.755 547.404 127.873 546.893C122.267 546.154 117.41 547.121 115.823 548.232L115.808 548.241C114.344 549.167 112.799 550.109 111.2 551.083L111.201 551.083V551.083Z" fill="#868CB5"/>
<path id="Vector_30" fill-rule="evenodd" clip-rule="evenodd" d="M111.202 551.083C99.1776 558.412 84.1272 567.587 85.9591 580.312L85.962 580.392C85.9344 580.87 86.1384 581.373 86.5401 581.885C87.5759 583.203 89.8447 584.532 92.8911 585.683C95.9851 586.852 99.8593 587.825 104.051 588.413C114.031 589.811 125.795 589.027 133.096 583.51C137.785 579.966 141.537 577.696 144.45 575.933C150.686 572.16 152.985 570.769 152.364 563.939C151.502 554.466 149.121 549.171 147.732 546.181L147.355 546.697L147.352 546.732C147.246 548.527 146.468 549.857 145.189 550.677C143.937 551.48 142.212 551.782 140.178 551.541L139.902 551.505C139.831 551.496 139.76 551.469 139.696 551.423C135.98 548.741 131.756 547.404 127.874 546.893C122.268 546.154 117.412 547.121 115.824 548.232L115.81 548.241C114.346 549.167 112.8 550.109 111.202 551.083L111.202 551.083V551.083Z" fill="#E5EEFF"/>
<path id="Vector_31" fill-rule="evenodd" clip-rule="evenodd" d="M146.887 574.435C148.707 565.058 146.9 554.157 149.941 551.672C150.93 554.68 151.882 558.66 152.362 563.938C152.894 569.79 151.282 571.65 146.887 574.435Z" fill="#C5D2EB"/>
<path id="Vector_32" d="M116.701 563.756L113.656 566.669C113.499 566.819 113.239 566.803 113.075 566.633C112.911 566.463 112.906 566.203 113.062 566.052L115.898 563.34C115.613 563.121 115.404 562.851 115.312 562.549C115.144 561.999 115.404 561.478 115.935 561.142C115.588 560.752 115.163 560.384 114.682 560.045C113.477 559.194 111.949 558.543 110.412 558.181C108.887 557.822 107.371 557.749 106.178 558.048C105.977 558.099 105.785 558.161 105.606 558.233C105.758 558.368 105.871 558.519 105.931 558.681C106.189 559.373 105.391 559.998 104.148 560.078C103.662 560.109 103.179 560.052 102.757 559.93C101.172 561.056 99.7302 562.151 98.4491 563.247C98.2842 563.388 98.0242 563.359 97.8689 563.181C97.7137 563.003 97.7219 562.744 97.8868 562.603C99.0864 561.577 100.42 560.555 101.873 559.511C101.66 559.353 101.506 559.169 101.431 558.968C101.173 558.276 101.971 557.651 103.213 557.571C103.308 557.565 103.402 557.562 103.495 557.563C104.061 557.024 104.803 556.657 105.657 556.442C105.959 556.366 106.276 556.309 106.605 556.271C107.559 555.639 108.547 554.991 109.568 554.323C109.374 554.171 109.233 553.997 109.163 553.809C108.905 553.117 109.702 552.491 110.945 552.411C111.097 552.401 111.247 552.401 111.395 552.407C112.055 551.954 112.88 551.674 113.804 551.538C114.6 551.01 115.413 550.467 116.243 549.907C116.424 549.785 116.682 549.842 116.819 550.034C116.956 550.226 116.92 550.481 116.74 550.602C116.319 550.887 115.9 551.168 115.486 551.445C116.886 551.477 118.402 551.754 119.826 552.204C121.78 552.822 123.599 553.777 124.757 554.881C125.006 555.118 125.227 555.364 125.415 555.618C126.427 555.709 127.319 556.252 127.54 556.976C127.804 557.84 127.012 558.633 125.771 558.748C124.529 558.862 123.309 558.254 123.044 557.39C122.879 556.85 123.126 556.337 123.639 556.001C122.687 555.109 121.144 554.317 119.451 553.782C117.721 553.236 115.867 552.97 114.353 553.15C114.069 553.184 113.798 553.233 113.545 553.299C113.595 553.37 113.635 553.444 113.664 553.521C113.922 554.213 113.124 554.838 111.881 554.918C111.383 554.95 110.888 554.889 110.459 554.76L110.394 554.803C109.656 555.286 108.934 555.758 108.229 556.221C109.02 556.259 109.841 556.379 110.657 556.571C112.411 556.984 114.164 557.734 115.556 558.716C116.406 559.316 117.131 560.009 117.655 560.775C118.679 560.858 119.584 561.405 119.808 562.135C120.072 562.999 119.28 563.793 118.039 563.907C117.574 563.95 117.111 563.891 116.701 563.756V563.756ZM124.464 584.561C124.68 584.507 124.913 584.643 124.984 584.864C125.056 585.084 124.94 585.307 124.724 585.361C119.055 586.8 111.956 587.207 105.362 586.613C100.596 586.184 96.0834 585.229 92.5546 583.76C88.9471 582.26 86.3458 580.21 85.4961 577.618C85.2965 577.01 85.1941 576.371 85.1994 575.705C85.2009 575.478 85.3857 575.311 85.6126 575.331C85.8394 575.352 86.0216 575.552 86.0201 575.778C86.0157 576.35 86.1041 576.899 86.2757 577.423C87.0342 579.737 89.4468 581.604 92.8128 583.004C96.2574 584.437 100.681 585.371 105.368 585.794C111.876 586.38 118.878 585.979 124.465 584.561L124.465 584.561L124.464 584.561ZM151.979 562.66C152.028 562.885 151.888 563.092 151.667 563.123C151.446 563.154 151.226 562.996 151.177 562.771C150.844 561.237 150.4 560.333 149.919 559.967C149.683 559.788 149.427 559.765 149.17 559.883C148.838 560.034 148.494 560.389 148.162 560.924C146.976 562.833 146.09 566.807 146.44 571.881C146.566 573.71 141.065 576.897 136.13 579.754C133.674 581.177 131.36 582.516 130.001 583.52C129.826 583.649 129.567 583.603 129.423 583.416C129.279 583.229 129.304 582.972 129.479 582.843C130.87 581.815 133.202 580.465 135.677 579.032C140.423 576.284 145.715 573.219 145.621 571.869C145.259 566.618 146.2 562.466 147.455 560.447C147.862 559.791 148.315 559.341 148.78 559.128C149.321 558.881 149.867 558.935 150.381 559.326C151.028 559.82 151.597 560.901 151.979 562.661V562.66ZM143.697 568.309C143.674 568.082 143.838 567.893 144.064 567.889C144.29 567.884 144.492 568.065 144.515 568.292L144.882 571.803C144.905 572.031 144.741 572.219 144.515 572.224C144.289 572.228 144.087 572.047 144.064 571.82L143.697 568.309ZM142.01 569.61C141.986 569.382 142.151 569.194 142.376 569.19C142.602 569.185 142.804 569.366 142.827 569.593L143.194 573.104C143.217 573.331 143.053 573.519 142.827 573.524C142.602 573.529 142.399 573.348 142.376 573.121L142.01 569.61Z" fill="#868CB5"/>
</g>
<path id="Vector_33" fill-rule="evenodd" clip-rule="evenodd" d="M209.102 536.137L211.077 541.575L212.065 546.771L219.232 550.029L240.041 545.753L235.579 531.306C228.197 534.357 217.12 536.728 209.102 536.137H209.102Z" fill="#DAD9FF"/>
<path id="Vector_34" fill-rule="evenodd" clip-rule="evenodd" d="M278.048 576.264C283.446 593.907 243.168 596.086 229.187 585.027C215.206 573.969 208.181 580.87 207.248 562.347C207.241 560.287 207.42 557.889 207.729 555.463C208.109 548.579 209.593 544.474 210.484 542.007L210.648 541.553C210.671 541.488 210.711 541.429 210.767 541.382C210.94 541.239 211.201 541.265 211.349 541.439L212.311 542.562C212.371 542.624 212.412 542.702 212.426 542.791L212.448 542.935C212.709 544.454 213.495 545.574 214.657 546.257C215.845 546.956 220.706 547.698 222.548 547.478L222.706 547.458L222.82 547.372C222.308 543.26 221.836 539.604 226.17 537.591C227.641 536.907 235.659 536.127 237.985 536.266C242.248 536.523 243.85 538.048 243.772 543.667C243.86 543.715 243.941 543.763 244.017 543.811C245.56 544.707 247.227 545.642 248.95 546.609C262.065 553.969 278.477 563.179 278.047 576.286L278.054 576.333C278.051 576.31 278.051 576.287 278.047 576.264H278.047H278.048ZM248.556 547.317C261.485 554.572 277.666 563.654 277.221 576.277L277.227 576.357C277.307 576.831 277.157 577.33 276.808 577.838C275.909 579.147 273.769 580.467 270.824 581.613C267.834 582.776 264.035 583.746 259.875 584.334C249.968 585.733 238.022 584.97 230.054 579.506C224.937 575.997 220.905 573.75 217.774 572.005C211.072 568.271 208.602 566.893 208.475 560.119C208.301 550.722 210.119 545.468 211.19 542.5L211.628 543.012L211.634 543.046C211.939 544.827 212.869 546.145 214.249 546.956C215.599 547.75 220.641 548.532 222.664 548.291L222.938 548.254C223.009 548.246 223.078 548.219 223.137 548.174C226.587 545.508 231.2 543.884 235.057 543.373C240.894 543.062 241.86 543.395 243.583 544.496L243.598 544.505C245.176 545.421 246.837 546.354 248.556 547.318L248.555 547.317H248.556Z" fill="#868CB5"/>
<path id="Vector_35" fill-rule="evenodd" clip-rule="evenodd" d="M276.808 577.837C275.909 579.146 273.768 580.467 270.823 581.612C267.833 582.775 264.034 583.745 259.874 584.333C249.967 585.732 238.021 584.969 230.054 579.505C224.936 575.996 220.904 573.749 217.773 572.004C211.071 568.27 208.601 566.892 208.475 560.118C208.3 550.721 210.118 545.467 211.189 542.499L211.627 543.011L211.633 543.045C211.938 544.826 212.868 546.144 214.248 546.955C214.62 547.174 215.272 547.392 216.063 547.588C216.473 547.695 216.896 547.785 217.328 547.86L217.418 547.877L217.424 547.878L217.508 547.893L217.578 547.906L217.599 547.91L217.691 547.926L217.733 547.933L217.782 547.941L217.874 547.957L217.889 547.96L217.966 547.972L218.046 547.985L218.058 547.987L218.151 548.002L218.203 548.011L218.243 548.017L218.336 548.032L218.361 548.036L218.429 548.046L218.52 548.059L218.522 548.06L218.615 548.073L218.678 548.082L218.708 548.087L218.801 548.099L218.836 548.104L218.894 548.112L218.987 548.124L218.994 548.126L219.08 548.136L219.152 548.146L219.173 548.148L219.266 548.16L219.31 548.165L219.359 548.171L219.451 548.182L219.467 548.184L219.543 548.192L219.623 548.201L219.634 548.202L219.726 548.212L219.779 548.218L219.817 548.222L219.908 548.231L219.933 548.233L219.999 548.24L220.087 548.248L220.088 548.248L220.178 548.256L220.239 548.262L220.267 548.264L220.355 548.271L220.389 548.274L220.443 548.278L220.53 548.284L220.537 548.285L220.617 548.291L220.684 548.295L220.702 548.296L220.788 548.302L220.829 548.304L220.872 548.307L220.956 548.311L220.972 548.312L221.039 548.316L221.112 548.319L221.122 548.32L221.203 548.323L221.25 548.325L221.283 548.326L221.363 548.328L221.386 548.329L221.442 548.331L221.519 548.333H221.519L221.596 548.334L221.649 548.335L221.672 548.335L221.747 548.335H221.776L221.893 548.335L221.899 548.334L221.964 548.333L222.019 548.332L222.034 548.332L222.103 548.33L222.136 548.329L222.171 548.327L222.237 548.324L222.249 548.324L222.302 548.321L222.359 548.318L222.366 548.317L222.428 548.313L222.465 548.31L222.489 548.308L222.566 548.301L222.606 548.297L222.663 548.291L222.938 548.254C223.008 548.246 223.077 548.219 223.136 548.174C226.586 545.508 231.199 543.884 235.056 543.372L235.161 543.367L235.268 543.362C236.308 543.312 237.72 543.28 239.043 543.267C241.517 543.319 242.359 543.714 243.582 544.496L243.597 544.505C245.175 545.421 246.837 546.353 248.555 547.318L248.555 547.317C261.483 554.572 277.665 563.654 277.22 576.277L277.226 576.357C277.257 576.543 277.254 576.732 277.216 576.925C277.117 577.274 276.982 577.583 276.807 577.838L276.808 577.837Z" fill="#E5EEFF"/>
<path id="Vector_36" fill-rule="evenodd" clip-rule="evenodd" d="M215.15 570.523C212.282 561.224 212.904 550.411 209.565 547.949C208.899 550.934 208.377 554.883 208.475 560.118C208.583 565.923 210.412 567.765 215.15 570.523H215.15Z" fill="#C5D2EB"/>
<path id="Vector_37" d="M244.406 559.89L247.796 562.775C247.971 562.925 248.231 562.909 248.378 562.74C248.524 562.571 248.502 562.313 248.327 562.163L245.17 559.476C245.433 559.259 245.613 558.99 245.673 558.691C245.782 558.145 245.463 557.629 244.891 557.296C245.198 556.909 245.585 556.544 246.033 556.206C247.154 555.361 248.623 554.714 250.132 554.353C251.63 553.995 253.15 553.92 254.385 554.216C254.594 554.266 254.794 554.327 254.983 554.398C254.844 554.532 254.748 554.682 254.704 554.843C254.52 555.53 255.394 556.149 256.655 556.227C257.149 556.257 257.629 556.2 258.042 556.077C259.763 557.193 261.337 558.277 262.749 559.362C262.931 559.502 263.19 559.473 263.327 559.296C263.464 559.12 263.427 558.863 263.245 558.723C261.923 557.707 260.467 556.695 258.886 555.661C259.084 555.504 259.219 555.322 259.273 555.123C259.457 554.436 258.583 553.816 257.322 553.739C257.226 553.733 257.131 553.73 257.037 553.731C256.408 553.197 255.619 552.834 254.735 552.622C254.422 552.547 254.096 552.491 253.76 552.454C252.728 551.828 251.661 551.187 250.559 550.525C250.737 550.374 250.86 550.202 250.91 550.015C251.094 549.328 250.221 548.708 248.96 548.631C248.806 548.621 248.654 548.62 248.505 548.627C247.791 548.179 246.927 547.901 245.982 547.769C245.121 547.246 244.241 546.708 243.344 546.153C243.148 546.033 242.894 546.089 242.777 546.28C242.66 546.47 242.724 546.723 242.92 546.844C243.375 547.125 243.828 547.403 244.276 547.677C242.868 547.712 241.371 547.989 239.985 548.437C238.082 549.051 236.354 550.001 235.308 551.097C235.083 551.332 234.888 551.577 234.726 551.828C233.716 551.92 232.877 552.46 232.734 553.178C232.562 554.035 233.448 554.821 234.712 554.933C235.976 555.045 237.14 554.441 237.311 553.583C237.419 553.047 237.113 552.539 236.559 552.206C237.42 551.32 238.889 550.533 240.536 550.001C242.221 549.457 244.06 549.191 245.606 549.368C245.896 549.401 246.175 549.449 246.438 549.514C246.395 549.585 246.363 549.658 246.342 549.734C246.158 550.421 247.031 551.04 248.293 551.118C248.799 551.149 249.29 551.088 249.709 550.96L249.779 551.001C250.577 551.48 251.357 551.948 252.118 552.406C251.325 552.444 250.511 552.564 249.708 552.756C247.986 553.168 246.301 553.913 245.006 554.889C244.215 555.486 243.561 556.174 243.116 556.934C242.093 557.018 241.241 557.561 241.096 558.286C240.924 559.143 241.81 559.929 243.075 560.041C243.548 560.083 244.008 560.024 244.406 559.89L244.406 559.89ZM238.87 580.535C238.647 580.481 238.427 580.616 238.379 580.836C238.331 581.055 238.473 581.276 238.696 581.329C244.57 582.749 251.771 583.145 258.353 582.547C263.111 582.115 267.555 581.162 270.951 579.702C274.422 578.209 276.819 576.174 277.39 573.602C277.524 572.997 277.558 572.364 277.479 571.703C277.452 571.479 277.247 571.313 277.021 571.334C276.795 571.354 276.633 571.553 276.659 571.777C276.727 572.345 276.698 572.889 276.583 573.409C276.073 575.705 273.846 577.559 270.607 578.952C267.292 580.378 262.935 581.31 258.257 581.734C251.761 582.324 244.658 581.935 238.87 580.535H238.87V580.535ZM208.721 558.846C208.697 559.07 208.86 559.275 209.087 559.306C209.313 559.335 209.517 559.179 209.541 558.955C209.709 557.433 210.057 556.537 210.502 556.173C210.719 555.995 210.975 555.972 211.247 556.088C211.599 556.238 211.984 556.59 212.378 557.12C213.783 559.011 215.115 562.953 215.32 567.985C215.394 569.8 221.291 572.953 226.58 575.781C229.213 577.189 231.693 578.515 233.174 579.509C233.365 579.637 233.62 579.59 233.745 579.405C233.87 579.219 233.816 578.964 233.625 578.836C232.11 577.819 229.611 576.483 226.957 575.064C221.87 572.344 216.199 569.311 216.144 567.971C215.932 562.763 214.525 558.646 213.038 556.645C212.555 555.995 212.05 555.549 211.557 555.339C210.985 555.094 210.44 555.149 209.966 555.537C209.367 556.028 208.913 557.1 208.721 558.846V558.846ZM217.692 564.439C217.691 564.214 217.504 564.027 217.276 564.023C217.048 564.019 216.865 564.198 216.866 564.424L216.883 567.906C216.885 568.132 217.071 568.318 217.299 568.323C217.527 568.327 217.711 568.147 217.709 567.922L217.692 564.439ZM219.537 565.727C219.535 565.502 219.349 565.315 219.121 565.311C218.893 565.307 218.709 565.486 218.711 565.712L218.727 569.194C218.729 569.42 218.915 569.607 219.143 569.611C219.371 569.615 219.555 569.435 219.554 569.21L219.537 565.727Z" fill="#868CB5"/>
<path id="Vector_38" fill-rule="evenodd" clip-rule="evenodd" d="M205.144 547.452C210.721 557.637 244.855 548.768 244.319 542.714L231.297 364.832L226.308 311.573H128.362L127.828 321.127L119.084 401.568L111.367 544.837C107.455 552.709 152.737 558.886 152.565 545.333L165.45 434.703L175.41 362.277L205.145 547.452L205.144 547.452Z" fill="#6934D9"/>
<path id="Vector_39" fill-rule="evenodd" clip-rule="evenodd" d="M147.639 551.381C150.675 550.107 152.602 548.146 152.567 545.332L165.451 434.702L175.411 362.277L171.282 353.5L160.79 426.893L147.639 551.382V551.381Z" fill="#2B0087"/>
<path id="Vector_40" d="M176.152 342.222L175.996 313.172" stroke="#2B0087" stroke-width="0.542155" stroke-miterlimit="22.9256" stroke-linecap="round" stroke-linejoin="round"/>
<path id="Vector_41" d="M241.948 545.903L222.313 321.663L221.449 309.383" stroke="#2B0087" stroke-width="0.542155" stroke-miterlimit="22.9256" stroke-linecap="round" stroke-linejoin="round"/>
<path id="Vector_42" d="M225.14 352.846L218.548 350.466L212.471 311.573" stroke="#2B0087" stroke-width="0.542155" stroke-miterlimit="22.9256" stroke-linecap="round" stroke-linejoin="round"/>
<path id="Vector_43" d="M162.91 431.378L156.557 417.941" stroke="#2B0087" stroke-width="0.542155" stroke-miterlimit="22.9256" stroke-linecap="round" stroke-linejoin="round"/>
<path id="Vector_44" d="M119.084 401.568L131.055 325.482L131.886 312.025" stroke="#2B0087" stroke-width="0.542155" stroke-miterlimit="22.9256" stroke-linecap="round" stroke-linejoin="round"/>
<path id="Vector_45" d="M175.471 362.276L169.059 348.839L168.92 313.021" stroke="#2B0087" stroke-width="0.542155" stroke-miterlimit="22.9256" stroke-linecap="round" stroke-linejoin="round"/>
<path id="Vector_46" d="M331.182 560.625C329.635 560.193 330.907 550.818 334.023 539.687C337.14 528.555 340.92 519.882 342.468 520.315C344.015 520.747 342.743 530.121 339.627 541.253C336.51 552.384 332.73 561.058 331.182 560.625Z" fill="#33CC66" stroke="#259E4D" stroke-width="0.325795" stroke-miterlimit="22.9256"/>
<path id="Vector_47" d="M331.18 560.627C326.64 561.674 320.03 549.842 316.417 534.199C312.804 518.557 313.555 505.027 318.096 503.981C322.636 502.934 329.246 514.766 332.859 530.408C336.472 546.05 335.721 559.58 331.18 560.627Z" fill="#48F080" stroke="#259E4D" stroke-width="0.325795" stroke-miterlimit="22.9256"/>
<path id="Vector_48" d="M302.874 574.119C301.835 573.828 302.689 567.533 304.782 560.058C306.875 552.583 309.413 546.759 310.453 547.049C311.492 547.34 310.637 553.635 308.545 561.11C306.452 568.585 303.913 574.409 302.874 574.119Z" fill="#33CC66" stroke="#259E4D" stroke-width="0.218779" stroke-miterlimit="22.9256"/>
<path id="Vector_49" d="M302.874 574.119C299.825 574.822 295.386 566.876 292.96 556.372C290.533 545.868 291.038 536.783 294.087 536.08C297.136 535.377 301.574 543.322 304.001 553.826C306.427 564.331 305.923 573.416 302.874 574.119Z" fill="#48F080" stroke="#259E4D" stroke-width="0.218779" stroke-miterlimit="22.9256"/>
<path id="Vector_50" d="M286.58 551.957C285.508 552.018 283.939 548.892 283.077 544.975C282.214 541.058 282.385 537.834 283.457 537.773C284.529 537.712 286.098 540.838 286.96 544.755C287.822 548.672 287.652 551.896 286.58 551.957Z" fill="#33CC66" stroke="#259E4D" stroke-width="0.1569" stroke-miterlimit="22.9256"/>
<path id="Vector_51" d="M128.555 310.166L128.362 311.573L127.828 321.127L119.084 401.568L111.367 544.836C107.455 552.708 152.737 558.885 152.565 545.332L165.45 434.702L175.41 362.277L205.145 547.452C210.721 557.637 244.856 548.768 244.32 542.714L231.297 364.832L226.308 311.573L226.143 309.759" stroke="#2B0087" stroke-width="0.542155" stroke-miterlimit="22.9256" stroke-linecap="round" stroke-linejoin="round"/>
<path id="Vector_52" d="M124.844 348.82L127.619 346.222" stroke="#2B0087" stroke-width="0.542155" stroke-miterlimit="22.9256" stroke-linecap="round" stroke-linejoin="round"/>
<path id="Vector_53" fill-rule="evenodd" clip-rule="evenodd" d="M118.957 261.567C118.876 269.825 118.797 282.033 118.758 286.679C120.54 284.565 126.007 281.413 126.047 278.173L126.101 246.738L119.046 254.559L118.957 261.568V261.567Z" fill="#D90324"/>
<path id="Vector_54" fill-rule="evenodd" clip-rule="evenodd" d="M158.521 167.476L158.812 164.208C148.211 166.502 145.037 175.757 151.866 184.153C152.458 184.678 153.165 184.909 153.954 184.833C154.742 184.757 155.392 184.396 155.873 183.767L156.291 183.218L156.164 183.134C159.891 185.609 165.071 187.43 170.915 188.041C176.692 188.647 182.078 187.962 186.22 186.353L186.516 186.978C186.856 187.692 187.417 188.18 188.172 188.418C188.928 188.655 189.667 188.576 190.355 188.185C202.511 181.269 207.992 165.522 189.443 164.076L189.077 168.183L158.521 167.476Z" fill="#D90324"/>
<path id="Vector_55" fill-rule="evenodd" clip-rule="evenodd" d="M155.985 170.926C155.127 172.197 154.656 173.58 154.656 175.028C154.656 181.257 163.374 186.307 174.128 186.307C184.882 186.307 193.6 181.257 193.6 175.028C193.6 173.581 193.129 172.197 192.271 170.926H155.985H155.985Z" fill="#AD041E"/>
<path id="Vector_56" fill-rule="evenodd" clip-rule="evenodd" d="M190.258 154.949L188.592 173.63C187.848 181.976 180.648 185.465 172.294 184.721H172.294C163.94 183.978 157.47 179.273 158.215 170.926L159.91 151.91C161.89 154.001 164.292 155.759 167.067 157.04C174.888 160.651 183.68 159.564 190.258 154.949Z" fill="#EBA884"/>
<g id="Group_2">
<path id="Vector_57" d="M175.399 198.001C175.377 197.545 175.728 197.156 176.185 197.134C176.642 197.111 177.031 197.462 177.054 197.918L175.399 198.001ZM177.915 234.808L176.339 235.318L175.959 234.093L175.626 232.918L175.339 231.786L175.095 230.694L174.892 229.637L174.728 228.611L174.6 227.612L174.505 226.634L174.441 225.675L174.405 224.729L174.395 223.794L174.407 222.863L174.44 221.933L174.49 220.999L174.555 220.057L174.631 219.101L174.718 218.128L174.81 217.132L174.907 216.108L175.006 215.051L175.104 213.957L175.198 212.819L175.286 211.634L175.366 210.397L175.436 209.101L175.491 207.743L175.531 206.317L175.552 204.818L175.551 203.243L175.528 201.584L175.478 199.839L175.399 198.001L177.053 197.918L177.133 199.779L177.184 201.548L177.208 203.23L177.208 204.829L177.187 206.35L177.146 207.798L177.09 209.178L177.02 210.493L176.939 211.748L176.849 212.948L176.754 214.097L176.655 215.2L176.556 216.261L176.459 217.285L176.367 218.277L176.281 219.239L176.206 220.179L176.143 221.099L176.094 222.006L176.062 222.902L176.05 223.795L176.06 224.688L176.094 225.588L176.155 226.498L176.245 227.425L176.367 228.374L176.523 229.349L176.716 230.357L176.949 231.402L177.225 232.488L177.545 233.622L177.914 234.808L177.915 234.808ZM180.651 256.791L178.995 256.842L178.985 256.342V255.852L178.994 255.37L179.009 254.895L179.03 254.425L179.054 253.958L179.08 253.491L179.108 253.023L179.135 252.551L179.159 252.073L179.18 251.587L179.197 251.09L179.207 250.58L179.209 250.055L179.203 249.512L179.186 248.948L179.158 248.363L179.117 247.752L179.061 247.114L178.989 246.446L178.899 245.746L178.791 245.012L178.662 244.242L178.511 243.433L178.337 242.584L178.138 241.692L177.913 240.754L177.659 239.77L177.376 238.736L177.063 237.651L176.718 236.512L176.339 235.318L177.915 234.808L178.3 236.021L178.652 237.181L178.971 238.288L179.26 239.346L179.52 240.355L179.751 241.318L179.957 242.237L180.137 243.115L180.293 243.954L180.427 244.755L180.54 245.52L180.634 246.252L180.709 246.952L180.768 247.623L180.812 248.266L180.842 248.884L180.859 249.477L180.866 250.048L180.863 250.6L180.852 251.133L180.835 251.649L180.813 252.15L180.788 252.639L180.761 253.116L180.734 253.585L180.707 254.047L180.684 254.503L180.664 254.957L180.649 255.41L180.641 255.865V256.325L180.65 256.791L180.651 256.791ZM180.651 256.791C180.665 257.247 180.305 257.629 179.848 257.643C179.391 257.656 179.009 257.298 178.995 256.842L180.651 256.791Z" fill="#FF5E04"/>
</g>
<g id="Group_3">
<path id="Vector_58" d="M163.092 196.574C163.249 196.145 163.725 195.925 164.155 196.082C164.584 196.239 164.805 196.714 164.647 197.143L163.092 196.574V196.574ZM160.979 229.35L159.322 229.367L159.302 228.509L159.261 227.699L159.201 226.928L159.127 226.19L159.039 225.481L158.943 224.792L158.839 224.119L158.731 223.454L158.622 222.793L158.515 222.129L158.414 221.457L158.321 220.772L158.239 220.069L158.172 219.344L158.124 218.589L158.098 217.803L158.096 216.979L158.123 216.112L158.18 215.198L158.272 214.232L158.4 213.208L158.569 212.121L158.78 210.966L159.037 209.737L159.342 208.429L159.699 207.036L160.11 205.552L160.58 203.971L161.109 202.289L161.703 200.499L162.363 198.596L163.092 196.573L164.648 197.142L163.925 199.146L163.272 201.029L162.686 202.796L162.164 204.454L161.703 206.007L161.299 207.46L160.951 208.821L160.654 210.093L160.405 211.283L160.202 212.396L160.041 213.437L159.919 214.412L159.832 215.328L159.778 216.189L159.753 217.003L159.754 217.774L159.779 218.509L159.824 219.216L159.886 219.899L159.964 220.566L160.053 221.222L160.152 221.874L160.257 222.528L160.366 223.188L160.475 223.861L160.581 224.552L160.681 225.266L160.772 226.007L160.851 226.781L160.914 227.594L160.957 228.448L160.979 229.35ZM153.173 250.898L151.523 250.744L151.597 250.192L151.711 249.639L151.863 249.085L152.047 248.529L152.26 247.97L152.5 247.407L152.763 246.838L153.046 246.264L153.348 245.683L153.664 245.094L153.994 244.497L154.333 243.891L154.68 243.276L155.031 242.651L155.385 242.016L155.738 241.371L156.09 240.714L156.435 240.047L156.772 239.368L157.1 238.678L157.414 237.975L157.713 237.26L157.994 236.533L158.255 235.792L158.492 235.039L158.706 234.272L158.891 233.492L159.047 232.697L159.17 231.888L159.259 231.063L159.31 230.223L159.322 229.366L160.979 229.349L160.966 230.284L160.909 231.201L160.813 232.099L160.679 232.979L160.51 233.84L160.31 234.683L160.081 235.508L159.826 236.315L159.548 237.104L159.25 237.875L158.934 238.63L158.604 239.368L158.263 240.089L157.912 240.794L157.556 241.483L157.196 242.157L156.835 242.814L156.477 243.458L156.124 244.086L155.778 244.7L155.442 245.299L155.12 245.884L154.813 246.454L154.525 247.009L154.258 247.55L154.014 248.076L153.796 248.587L153.607 249.083L153.448 249.562L153.323 250.024L153.23 250.469L153.173 250.897L153.173 250.898ZM153.173 250.898C153.13 251.352 152.726 251.687 152.271 251.644C151.815 251.602 151.481 251.199 151.523 250.744L153.173 250.898Z" fill="#FF5E04"/>
</g>
<path id="Vector_59" d="M189.863 195.876C199.476 191.897 206.084 184.559 207.583 177.258" stroke="#D90324" stroke-width="0.542155" stroke-miterlimit="22.9256" stroke-linecap="round" stroke-linejoin="round"/>
<path id="Vector_60" fill-rule="evenodd" clip-rule="evenodd" d="M226.308 311.572C213.97 313.298 190.459 314.17 174.59 314.188C158.72 314.17 140.7 313.298 128.362 311.572C125.002 311.102 122.289 308.949 122.289 305.515C129.965 309.479 140.599 312.789 177.335 311.572C214.071 310.355 226.048 306.674 229.184 305.475C229.135 306.418 229.497 309.915 226.308 311.572Z" fill="#2B0087"/>
<path id="Vector_61" fill-rule="evenodd" clip-rule="evenodd" d="M190.254 154.983L189.619 162.126C184.866 169.739 163.238 171.379 159.924 151.924C161.9 154.008 164.298 155.761 167.066 157.039C169.495 158.16 172.017 158.827 174.537 159.077C174.652 159.089 174.766 159.1 174.88 159.11L174.985 159.118C180.473 159.571 185.867 158.045 190.254 154.983V154.983Z" fill="#C98560"/>
<path id="Vector_62" fill-rule="evenodd" clip-rule="evenodd" d="M209.155 131.279C209.612 132.202 209.674 133.443 209.166 134.541L206.898 139.445C205.491 142.487 202.197 144.047 199.049 143.408L197.999 145.669C192.599 157.344 178.748 162.434 167.063 157.039C155.378 151.644 150.283 137.806 155.683 126.131L161.407 113.756L162.227 111.983L166.866 101.955L168.969 97.4073C168.969 97.4073 175.215 90.5163 179.805 93.8766C182.148 96.7556 186.091 99.395 189.791 100.653C192.539 101.587 195.119 101.845 196.572 101.637C199.674 101.193 204.445 114.069 205.913 116.481L201.182 131.304C201.171 131.328 201.161 131.353 201.153 131.377L201.151 131.385L201.149 131.389C201.142 131.414 201.135 131.438 201.13 131.463L201.129 131.47C201.124 131.495 201.121 131.519 201.119 131.545L201.119 131.547V131.549V131.55C201.117 131.576 201.116 131.601 201.118 131.627L201.118 131.631C201.12 131.657 201.123 131.683 201.127 131.709L201.128 131.711C201.132 131.737 201.138 131.764 201.146 131.79V131.791L201.148 131.794C201.155 131.818 201.163 131.843 201.173 131.867L201.175 131.871L201.177 131.876C201.187 131.9 201.198 131.925 201.211 131.949L201.213 131.954C201.226 131.979 201.241 132.004 201.256 132.029L201.258 132.031L201.261 132.037C201.276 132.061 201.293 132.084 201.31 132.108L201.312 132.11L201.314 132.114C201.333 132.138 201.352 132.163 201.373 132.187L201.376 132.19C201.397 132.215 201.419 132.239 201.442 132.264L201.444 132.266L201.45 132.273C201.473 132.296 201.496 132.319 201.521 132.342C201.544 132.365 201.569 132.387 201.595 132.408L201.619 132.429L201.687 132.484L201.717 132.507L201.767 132.545L201.795 132.566L201.797 132.567L201.805 132.573L201.884 132.628L201.892 132.633L201.899 132.638L201.924 132.654L201.987 132.694L202.024 132.717L202.117 132.772L202.125 132.777L202.131 132.78L202.134 132.782L202.167 132.801L202.167 132.801C203.961 133.809 207.5 134.282 208.307 132.819L209.154 131.28L209.155 131.279Z" fill="#EBA884"/>
<path id="Vector_63" d="M177.945 75.0475C178.312 74.6989 178.534 74.6121 178.923 74.7692C179.257 74.9173 179.303 75.2495 179.155 75.5837C179.146 75.6039 175.571 82.1976 177.954 85.4037C178.4 84.204 178.506 76.1123 185.676 73.4667C192.961 70.7783 195.496 80.1923 195.175 80.4732C194.853 80.7543 206.269 86.078 211.988 93.8543C217.707 101.631 219.571 108.621 215.375 118.038C211.178 127.454 212.335 125.518 208.309 132.819C207.153 134.916 200.384 133.035 201.184 131.304L205.914 116.482C204.446 114.07 199.675 101.194 196.574 101.638C195.12 101.846 192.54 101.588 189.792 100.654C186.092 99.3955 182.149 96.7561 179.807 93.8775C175.216 90.5169 168.97 97.4081 168.97 97.4081L164.289 107.529L163.469 109.302C163.469 109.302 157.782 107.856 161.012 102.044C164.242 96.2316 162.373 94.5233 167.322 90.3524C170.702 87.5028 172.665 86.2184 174.765 85.72C173.153 81.8555 176.983 75.971 177.944 75.0478L177.945 75.0475Z" fill="#241813"/>
<path id="Vector_64" d="M176.315 121.815C174.895 124.634 173.222 127.313 171.825 130.149C171.064 131.698 169.479 132.873 169.092 134.562C168.858 135.567 169.448 137.387 170.385 138.105C170.709 138.352 170.17 138.508 170.004 138.519C169.603 138.544 169.179 138.447 168.862 138.203C167.933 137.491 167.13 135.844 167.292 134.786C167.556 133.084 169.172 131.879 169.902 130.333C171.327 127.315 173.118 124.507 174.616 121.531C174.872 121.026 176.485 121.482 176.315 121.814L176.315 121.815Z" fill="black"/>
<path id="Vector_65" d="M204.855 136.184C204.909 135.968 205.129 135.837 205.345 135.891C205.56 135.946 205.692 136.165 205.638 136.381C205.634 136.395 204.33 141.531 201.097 141.415C200.873 141.407 200.699 141.219 200.707 140.996C200.716 140.773 200.903 140.599 201.127 140.607C203.709 140.7 204.851 136.197 204.855 136.184Z" fill="#C98560"/>
<path id="Vector_66" d="M165.65 115.084C165.164 116.416 165.853 117.891 167.186 118.377C168.522 118.863 169.996 118.176 170.482 116.843C170.969 115.509 170.283 114.036 168.947 113.549C167.614 113.064 166.136 113.75 165.65 115.084V115.084Z" fill="black"/>
<path id="Vector_67" d="M184.852 121.514C184.365 122.848 185.051 124.321 186.387 124.808C187.723 125.294 189.197 124.607 189.684 123.274C190.17 121.941 189.483 120.467 188.147 119.98C186.812 119.494 185.338 120.181 184.851 121.515L184.852 121.514Z" fill="black"/>
<path id="Vector_68" d="M168.234 108.521C172.623 110.206 174.448 112.125 175.053 113.978C175.306 114.751 175.347 115.493 175.272 116.194C176.181 116.175 177.061 116.286 177.892 116.576C178.74 116.871 179.53 117.345 180.24 118.047C180.7 117.258 181.325 116.511 182.263 115.972C183.959 114.998 186.608 114.791 191.005 116.479C195.402 118.167 197.231 120.09 197.838 121.946C197.864 122.028 197.888 122.11 197.911 122.19L209.753 130.336C210.065 130.549 210.145 130.974 209.931 131.286C209.718 131.597 209.292 131.677 208.98 131.464L198.076 123.964C197.995 125.075 197.606 126.087 197.271 126.957C196.753 128.304 195.98 130.314 194.165 131.612C192.35 132.909 189.569 133.435 185.138 131.734C176.168 128.292 178.269 122.825 179.329 120.069L179.354 120.003C179.433 119.798 179.515 119.586 179.603 119.37C178.962 118.622 178.231 118.142 177.441 117.867C176.679 117.602 175.851 117.522 174.985 117.572C174.836 118.073 174.655 118.543 174.488 118.978C173.971 120.323 173.2 122.327 171.389 123.62C169.579 124.913 166.805 125.434 162.383 123.737C153.431 120.301 155.524 114.857 156.581 112.105L156.607 112.039C157.129 110.682 157.797 109.001 159.51 108.016C161.204 107.044 163.847 106.838 168.235 108.522L168.234 108.521ZM196.535 122.373C196.043 120.869 194.446 119.266 190.512 117.756C186.577 116.246 184.318 116.367 182.947 117.155C181.624 117.915 181.057 119.389 180.606 120.56L180.581 120.627C179.679 122.975 178.01 127.532 185.63 130.456C189.53 131.953 191.885 131.557 193.367 130.498C194.848 129.439 195.533 127.657 195.992 126.464C196.442 125.294 197.008 123.821 196.535 122.373L196.535 122.373ZM162.135 112.264C162.471 112.438 162.602 112.852 162.428 113.187C162.253 113.523 161.839 113.654 161.503 113.48L158.186 111.776C158.067 112.057 157.96 112.334 157.86 112.596L157.834 112.662C156.934 115.005 155.273 119.541 162.875 122.459C166.767 123.953 169.116 123.56 170.592 122.506C172.069 121.452 172.751 119.677 173.209 118.486C173.659 117.318 174.223 115.85 173.751 114.405C173.26 112.904 171.667 111.305 167.741 109.798C163.816 108.292 161.561 108.413 160.193 109.198C159.601 109.539 159.161 110.023 158.815 110.559L162.135 112.263V112.264Z" fill="#160045"/>
<path id="Vector_69" fill-rule="evenodd" clip-rule="evenodd" d="M85.3885 176.057L62.1836 181.918L60.7012 176.256L83.8985 170.22L85.3885 176.057Z" fill="#D90324"/>
<path id="Vector_70" d="M181.403 246.717C181.361 245.762 180.552 245.021 179.595 245.062C178.639 245.104 177.897 245.912 177.939 246.868L178.194 252.708C178.235 253.664 179.045 254.405 180.001 254.363C180.958 254.321 181.699 253.513 181.658 252.557L181.403 246.717Z" fill="#FF5E04"/>
<path id="Vector_71" d="M158.682 241.119C159.131 240.275 158.81 239.226 157.964 238.777C157.119 238.328 156.069 238.649 155.62 239.493L152.874 244.655C152.424 245.499 152.745 246.548 153.591 246.997C154.436 247.446 155.486 247.125 155.935 246.281L158.682 241.119Z" fill="#FF5E04"/>
<path id="Vector_72" d="M143.19 177.45C143.153 181.267 145.419 187.087 149.701 190.939" stroke="#D90324" stroke-width="0.542155" stroke-miterlimit="22.9256" stroke-linecap="round" stroke-linejoin="round"/>
<path id="Vector_73" d="M100.58 191.256L103.886 208.754" stroke="#D90324" stroke-width="0.542155" stroke-miterlimit="22.9256" stroke-linecap="round" stroke-linejoin="round"/>
<path id="Vector_74" d="M322.899 592.924C332.03 592.924 339.432 591.039 339.432 588.715C339.432 586.39 332.03 584.506 322.899 584.506C313.768 584.506 306.365 586.39 306.365 588.715C306.365 591.039 313.768 592.924 322.899 592.924Z" fill="#F2D091"/>
<path id="Vector_75" d="M288.684 602.622C294.407 602.622 299.046 601.773 299.046 600.726C299.046 599.678 294.407 598.829 288.684 598.829C282.961 598.829 278.322 599.678 278.322 600.726C278.322 601.773 282.961 602.622 288.684 602.622Z" fill="#F2D091"/>
<path id="Vector_76" d="M202.01 270.859C182.78 270.003 153.088 266.556 132.832 270.393" stroke="#D90324" stroke-width="0.542155" stroke-miterlimit="22.9256" stroke-linecap="round" stroke-linejoin="round"/>
<path id="Vector_77" d="M202.01 270.857L203.482 266.57" stroke="#D90324" stroke-width="0.542155" stroke-miterlimit="22.9256" stroke-linecap="round" stroke-linejoin="round"/>
<path id="Vector_78" d="M132.829 270.393C132.394 275.076 132.907 283.177 132.162 288.645C132.037 291.097 128.631 294.328 125.627 295.862" stroke="#D90324" stroke-width="0.542155" stroke-miterlimit="22.9256" stroke-linecap="round" stroke-linejoin="round"/>
<path id="Vector_79" d="M132.832 270.393L131.574 266.038" stroke="#D90324" stroke-width="0.542155" stroke-miterlimit="22.9256" stroke-linecap="round" stroke-linejoin="round"/>
<path id="Vector_80" d="M202.01 270.859L212.163 291.951C215.475 298.645 219.367 298.813 222.418 299.222" stroke="#D90324" stroke-width="0.542155" stroke-miterlimit="22.9256" stroke-linecap="round" stroke-linejoin="round"/>
<path id="Vector_81" d="M320.157 567.232C323.019 567.232 325.338 566.612 325.338 565.848C325.338 565.084 323.019 564.465 320.157 564.465C317.296 564.465 314.977 565.084 314.977 565.848C314.977 566.612 317.296 567.232 320.157 567.232Z" fill="#F2D091"/>
<path id="Vector_82" d="M166.954 144.625C167.76 144.996 168.566 145.367 169.371 145.738C169.786 145.928 168.671 146.958 168.263 146.77C167.456 146.399 166.65 146.028 165.848 145.659C165.43 145.467 166.548 144.438 166.954 144.625V144.625Z" fill="black"/>
<path id="Vector_83" d="M163.147 139.739C162.968 139.941 162.913 140.033 163.128 140.362C164.319 142.191 164.997 140.533 166.974 141.185C170.61 142.385 173.044 145.671 176.267 145.603C176.775 145.592 177.494 145.635 177.599 145.093" stroke="black" stroke-width="1.22828" stroke-miterlimit="22.9256" stroke-linecap="round" stroke-linejoin="round"/>
<path id="Vector_84" d="M196.842 115.354C196.491 114.871 196.476 114.193 195.953 113.679C194.788 112.535 192.819 111.575 191.177 110.943C188.798 110.025 188.29 108.377 188.129 106.709C187.968 105.04 189.244 105.031 190.733 106.302C192.222 107.573 194.233 108.615 196.962 110.313C199.691 112.011 200.201 114.192 199.592 115.73C198.983 117.269 197.975 116.912 196.841 115.354H196.842Z" fill="#241813"/>
<path id="Vector_85" d="M168.632 103.783C169.213 103.51 169.73 103.061 171.256 103.085C172.783 103.109 176.031 105.028 176.739 106.485C177.869 108.813 181.982 108.877 181.061 106.315C180.196 103.911 176.167 99.9861 171.811 100.378C167.454 100.769 165.891 105.069 168.632 103.782V103.783Z" fill="#241813"/>
<path id="Vector_86" fill-rule="evenodd" clip-rule="evenodd" d="M91.3315 255.64L91.644 255.642L91.708 255.643L91.9906 255.649L92.0173 255.65L92.0255 255.65C92.1273 255.653 92.2291 255.656 92.3306 255.66L92.3843 255.663L92.6411 255.675L92.698 255.678L92.7142 255.679L92.7503 255.681L92.9932 255.696L93.0909 255.703L93.3122 255.72L93.3738 255.725L93.3982 255.727L93.6757 255.753L93.7702 255.762L94.0105 255.787L94.0443 255.791L94.0763 255.794L94.3011 255.821L94.3325 255.826L94.4287 255.838L94.6596 255.869L94.7089 255.875L94.7488 255.881L94.9718 255.914L94.9906 255.917L95.11 255.935L95.3589 255.976L95.3709 255.978C95.4792 255.996 95.5872 256.015 95.6949 256.035L95.6969 256.036C95.9085 256.075 96.1192 256.117 96.329 256.161L96.3794 256.171L96.628 256.226L96.6682 256.235L96.7301 256.249L96.9466 256.3L96.9889 256.31L97.0444 256.325L97.2659 256.38L97.3266 256.395L97.6218 256.473L97.6368 256.477L97.9364 256.56L97.9437 256.563C98.2518 256.65 98.557 256.745 98.8598 256.845L98.878 256.851L98.8836 256.853C98.9804 256.885 99.0775 256.918 99.1735 256.951L99.1993 256.96L99.4828 257.06L99.4933 257.064L99.5162 257.072L99.7938 257.175L99.8009 257.178L100.098 257.292L100.1 257.293C101.728 257.933 103.269 258.745 104.7 259.708L104.699 259.709C106.54 260.947 108.201 262.434 109.631 264.121C104.967 267.562 99.2014 269.596 92.9598 269.596C85.8558 269.596 79.3686 266.96 74.4219 262.616C76.6297 260.42 79.2635 258.652 82.1884 257.445L82.2075 257.437C82.4499 257.337 82.6943 257.241 82.9405 257.149L82.9643 257.141C83.6178 256.897 84.2847 256.682 84.9637 256.495L85.0245 256.478C85.1897 256.434 85.3555 256.391 85.5221 256.349L85.5532 256.341L85.7446 256.295L85.8564 256.268L86.026 256.229L86.126 256.207L86.29 256.171L86.4177 256.144L86.5844 256.11L86.6524 256.096L86.8702 256.054L86.9286 256.044L87.1287 256.007L87.1498 256.003L87.3963 255.962L87.4221 255.957L87.6924 255.914L87.6953 255.914L87.9694 255.874L88.117 255.854L88.2731 255.833L88.288 255.831L88.5204 255.803L88.5363 255.801L88.6962 255.783L88.845 255.767L88.9817 255.754L89.1319 255.74L89.2696 255.728L89.4166 255.716L89.5835 255.703L89.6962 255.695L89.8611 255.685L90.0207 255.676L90.1405 255.669L90.3547 255.66L90.428 255.657L90.6226 255.65L90.7435 255.647L90.7631 255.646L91.0234 255.642L91.0472 255.641L91.3321 255.64L91.3315 255.64Z" fill="#FF6600"/>
<path id="Vector_87" fill-rule="evenodd" clip-rule="evenodd" d="M58.3656 170.831L41.2087 160.848L33.6757 152.86L25.6582 139.599C23.1761 136.096 28.2926 132.259 31.0973 136.378L32.2372 138.11L30.9775 134.582C29.7299 130.734 35.3007 128.557 37.1505 133.268L42.6415 146.686L40.929 139.74C39.1669 134.607 45.0875 132.553 46.5644 136.765L49.604 147.188C50.8403 145.508 53.6382 145.536 54.4281 148.431L54.6972 149.437L61.0183 152.117C62.0377 152.491 63.9212 152.396 63.1539 151.189C51.5325 137.055 60.0755 134.334 63.3572 138.393C74.3457 149.74 76.3718 149.799 80.8088 158.869L83.9001 170.221L60.7028 176.257L58.3665 170.831H58.3656Z" fill="#EBA884"/>
<path id="Vector_88" d="M55.5824 152.671L56.8591 157.45L62.5101 160.119M51.4509 159.166C50.5421 155.767 49.8303 152.628 49.1442 150.073C48.8587 148.888 49.08 147.906 49.5674 147.205L51.4509 159.166Z" stroke="#C98560" stroke-width="0.271126" stroke-miterlimit="22.9256" stroke-linecap="round" stroke-linejoin="round"/>
<g id="Group_4">
<path id="Vector_89" d="M68.4645 157.66L68.7268 156.88C68.9422 156.952 69.0584 157.186 68.9862 157.402C68.914 157.617 68.6799 157.733 68.4642 157.66H68.4645ZM63.9327 153.968L64.0612 154.104L64.1924 154.236L64.3262 154.366L64.4621 154.492L64.6003 154.615L64.7408 154.735L64.8834 154.852L65.0275 154.966L65.1737 155.076L65.3213 155.184L65.4703 155.289L65.6208 155.391L65.7726 155.49L65.9254 155.587L66.0792 155.68L66.2341 155.771L66.3899 155.859L66.546 155.944L66.7027 156.027L66.8597 156.107L67.017 156.185L67.1746 156.26L67.3321 156.333L67.4894 156.403L67.6461 156.471L67.8025 156.536L67.9586 156.599L68.1141 156.66L68.2688 156.718L68.4228 156.774L68.5751 156.828L68.7265 156.88L68.4642 157.66L68.3049 157.606L68.1444 157.549L67.9827 157.49L67.8192 157.428L67.6555 157.364L67.4906 157.297L67.3248 157.228L67.1587 157.157L66.9921 157.083L66.8251 157.005L66.6575 156.926L66.4903 156.843L66.3227 156.758L66.1555 156.669L65.9888 156.578L65.8224 156.484L65.6566 156.387L65.4914 156.287L65.3271 156.183L65.1637 156.076L65.0017 155.966L64.8406 155.853L64.6807 155.736L64.5225 155.616L64.3658 155.492L64.2112 155.365L64.0586 155.235L63.9072 155.101L63.7587 154.963L63.6123 154.821L63.4685 154.676L63.3274 154.526L63.9318 153.968L63.9327 153.968ZM63.9327 153.968L63.3283 154.527C63.1739 154.36 63.1839 154.099 63.3508 153.945C63.5178 153.791 63.7787 153.801 63.9327 153.968V153.968Z" fill="#C98560"/>
</g>
<path id="Vector_90" d="M44.3798 151.253L42.6406 146.685" stroke="#C98560" stroke-width="0.271126" stroke-miterlimit="22.9256" stroke-linecap="round" stroke-linejoin="round"/>
<path id="Vector_91" fill-rule="evenodd" clip-rule="evenodd" d="M238.84 264.33C241.562 266.77 244.886 268.614 248.659 269.595C257.722 271.952 267.026 268.719 272.778 262.052C268.756 257.806 263.064 255.157 256.752 255.157C249.376 255.157 242.845 258.774 238.84 264.33Z" fill="#FF6600"/>
<path id="Vector_92" fill-rule="evenodd" clip-rule="evenodd" d="M258.125 180.659L281.33 186.52L282.812 180.858L259.615 174.822L258.125 180.659Z" fill="#D90324"/>
<path id="Vector_93" d="M242.934 195.857L239.629 213.356" stroke="#D90324" stroke-width="0.542155" stroke-miterlimit="22.9256" stroke-linecap="round" stroke-linejoin="round"/>
<path id="Vector_94" fill-rule="evenodd" clip-rule="evenodd" d="M285.15 175.432L302.307 165.449L309.84 157.46L317.857 144.2C320.339 140.697 315.223 136.859 312.418 140.979L311.278 142.71L312.538 139.183C313.786 135.334 308.215 133.158 306.365 137.868L300.874 151.286L302.586 144.341C304.348 139.208 298.428 137.153 296.951 141.366L293.911 151.789C292.675 150.108 289.877 150.136 289.087 153.031L288.818 154.037L282.497 156.718C281.478 157.092 279.594 156.996 280.361 155.789C291.983 141.656 283.44 138.934 280.158 142.993C269.17 154.341 267.144 154.4 262.707 163.469L259.615 174.822L282.813 180.858L285.149 175.432H285.15Z" fill="#EBA884"/>
<path id="Vector_95" d="M287.932 157.272L286.655 162.051L281.004 164.721M292.063 163.767C292.972 160.369 293.684 157.23 294.37 154.674C294.655 153.489 294.434 152.508 293.947 151.807L292.063 163.767Z" stroke="#C98560" stroke-width="0.271126" stroke-miterlimit="22.9256" stroke-linecap="round" stroke-linejoin="round"/>
<g id="Group_5">
<path id="Vector_96" d="M275.049 162.262C274.834 162.334 274.6 162.218 274.527 162.003C274.455 161.788 274.571 161.554 274.787 161.482L275.049 162.262H275.049ZM279.581 158.57L280.186 159.128L280.044 159.278L279.901 159.423L279.754 159.565L279.606 159.703L279.454 159.837L279.302 159.967L279.147 160.094L278.99 160.218L278.832 160.338L278.672 160.455L278.511 160.568L278.349 160.678L278.186 160.785L278.021 160.889L277.856 160.989L277.691 161.086L277.524 161.18L277.357 161.272L277.19 161.36L277.023 161.445L276.855 161.528L276.688 161.607L276.521 161.685L276.354 161.759L276.188 161.83L276.022 161.899L275.857 161.966L275.694 162.03L275.53 162.092L275.369 162.151L275.208 162.208L275.049 162.262L274.786 161.482L274.938 161.43L275.09 161.376L275.244 161.32L275.399 161.262L275.554 161.201L275.71 161.138L275.867 161.073L276.023 161.005L276.181 160.935L276.338 160.862L276.496 160.787L276.653 160.71L276.81 160.629L276.967 160.546L277.123 160.461L277.279 160.373L277.434 160.282L277.587 160.189L277.74 160.092L277.892 159.993L278.043 159.891L278.192 159.786L278.339 159.678L278.485 159.568L278.629 159.454L278.772 159.337L278.913 159.217L279.051 159.094L279.187 158.968L279.321 158.838L279.452 158.706L279.58 158.57L279.581 158.57ZM279.581 158.57C279.735 158.403 279.996 158.393 280.163 158.546C280.33 158.701 280.34 158.961 280.186 159.128L279.581 158.57V158.57Z" fill="#C98560"/>
</g>
<path id="Vector_97" d="M299.133 155.855L300.872 151.287" stroke="#C98560" stroke-width="0.271126" stroke-miterlimit="22.9256" stroke-linecap="round" stroke-linejoin="round"/>
</g>
</g>
</g>
<defs>
<linearGradient id="paint0_linear_1524_7307" x1="266.317" y1="50.4984" x2="275.357" y2="66.9454" gradientUnits="userSpaceOnUse">
<stop stop-color="#6934DD"/>
<stop offset="1" stop-color="#FF0431"/>
</linearGradient>
<linearGradient id="paint1_linear_1524_7307" x1="252.783" y1="40.8768" x2="289.511" y2="107.561" gradientUnits="userSpaceOnUse">
<stop stop-color="#6934DD"/>
<stop offset="1" stop-color="#FF0431"/>
</linearGradient>
<linearGradient id="paint2_linear_1524_7307" x1="242.789" y1="42.5827" x2="294.12" y2="134.277" gradientUnits="userSpaceOnUse">
<stop stop-color="#6934DD"/>
<stop offset="1" stop-color="#FF0431"/>
</linearGradient>
<linearGradient id="paint3_linear_1524_7307" x1="231.294" y1="49.2186" x2="292.722" y2="158.41" gradientUnits="userSpaceOnUse">
<stop stop-color="#6934DD"/>
<stop offset="1" stop-color="#FF0431"/>
</linearGradient>
<linearGradient id="paint4_linear_1524_7307" x1="217.145" y1="57.3445" x2="288.072" y2="183.556" gradientUnits="userSpaceOnUse">
<stop stop-color="#6934DD"/>
<stop offset="1" stop-color="#FF0431"/>
</linearGradient>
<linearGradient id="paint5_linear_1524_7307" x1="188.618" y1="62.1901" x2="277.789" y2="221.856" gradientUnits="userSpaceOnUse">
<stop stop-color="#6934DD"/>
<stop offset="1" stop-color="#FF0431"/>
</linearGradient>
<linearGradient id="paint6_linear_1524_7307" x1="161.856" y1="66.7447" x2="268.957" y2="259.123" gradientUnits="userSpaceOnUse">
<stop stop-color="#6934DD"/>
<stop offset="1" stop-color="#FF0431"/>
</linearGradient>
<linearGradient id="paint7_linear_1524_7307" x1="151.004" y1="74.6257" x2="266.515" y2="282.395" gradientUnits="userSpaceOnUse">
<stop stop-color="#6934DD"/>
<stop offset="1" stop-color="#FF0431"/>
</linearGradient>
<linearGradient id="paint8_linear_1524_7307" x1="146.278" y1="83.6925" x2="266.695" y2="300.448" gradientUnits="userSpaceOnUse">
<stop stop-color="#6934DD"/>
<stop offset="1" stop-color="#FF0431"/>
</linearGradient>
<linearGradient id="paint9_linear_1524_7307" x1="144.372" y1="93.2882" x2="268.024" y2="315.986" gradientUnits="userSpaceOnUse">
<stop stop-color="#6934DD"/>
<stop offset="1" stop-color="#FF0431"/>
</linearGradient>
<linearGradient id="paint10_linear_1524_7307" x1="143.819" y1="103.231" x2="269.703" y2="330.227" gradientUnits="userSpaceOnUse">
<stop stop-color="#6934DD"/>
<stop offset="1" stop-color="#FF0431"/>
</linearGradient>
<linearGradient id="paint11_linear_1524_7307" x1="144.154" y1="113.539" x2="271.621" y2="343.515" gradientUnits="userSpaceOnUse">
<stop stop-color="#6934DD"/>
<stop offset="1" stop-color="#FF0431"/>
</linearGradient>
<linearGradient id="paint12_linear_1524_7307" x1="144.921" y1="124.261" x2="273.429" y2="356.129" gradientUnits="userSpaceOnUse">
<stop stop-color="#6934DD"/>
<stop offset="1" stop-color="#FF0431"/>
</linearGradient>
<linearGradient id="paint13_linear_1524_7307" x1="145.765" y1="135.429" x2="274.866" y2="368.241" gradientUnits="userSpaceOnUse">
<stop stop-color="#6934DD"/>
<stop offset="1" stop-color="#FF0431"/>
</linearGradient>
<linearGradient id="paint14_linear_1524_7307" x1="146.516" y1="147.005" x2="275.783" y2="380.105" gradientUnits="userSpaceOnUse">
<stop stop-color="#6934DD"/>
<stop offset="1" stop-color="#FF0431"/>
</linearGradient>
<linearGradient id="paint15_linear_1524_7307" x1="147.261" y1="158.942" x2="276.322" y2="391.649" gradientUnits="userSpaceOnUse">
<stop stop-color="#6934DD"/>
<stop offset="1" stop-color="#FF0431"/>
</linearGradient>
<linearGradient id="paint16_linear_1524_7307" x1="148.099" y1="171.375" x2="276.387" y2="402.651" gradientUnits="userSpaceOnUse">
<stop stop-color="#6934DD"/>
<stop offset="1" stop-color="#FF0431"/>
</linearGradient>
<linearGradient id="paint17_linear_1524_7307" x1="149.111" y1="184.404" x2="275.891" y2="412.942" gradientUnits="userSpaceOnUse">
<stop stop-color="#6934DD"/>
<stop offset="1" stop-color="#FF0431"/>
</linearGradient>
<linearGradient id="paint18_linear_1524_7307" x1="150.507" y1="198.225" x2="274.836" y2="422.235" gradientUnits="userSpaceOnUse">
<stop stop-color="#6934DD"/>
<stop offset="1" stop-color="#FF0431"/>
</linearGradient>
<linearGradient id="paint19_linear_1524_7307" x1="152.281" y1="213.082" x2="272.885" y2="430.473" gradientUnits="userSpaceOnUse">
<stop stop-color="#6934DD"/>
<stop offset="1" stop-color="#FF0431"/>
</linearGradient>
<linearGradient id="paint20_linear_1524_7307" x1="154.561" y1="229.339" x2="269.676" y2="437.114" gradientUnits="userSpaceOnUse">
<stop stop-color="#6934DD"/>
<stop offset="1" stop-color="#FF0431"/>
</linearGradient>
<linearGradient id="paint21_linear_1524_7307" x1="157.349" y1="247.692" x2="264.571" y2="441.524" gradientUnits="userSpaceOnUse">
<stop stop-color="#6934DD"/>
<stop offset="1" stop-color="#FF0431"/>
</linearGradient>
<linearGradient id="paint22_linear_1524_7307" x1="160.566" y1="269.414" x2="256.085" y2="442.642" gradientUnits="userSpaceOnUse">
<stop stop-color="#6934DD"/>
<stop offset="1" stop-color="#FF0431"/>
</linearGradient>
<linearGradient id="paint23_linear_1524_7307" x1="163.788" y1="297.341" x2="241.108" y2="438.076" gradientUnits="userSpaceOnUse">
<stop stop-color="#6934DD"/>
<stop offset="1" stop-color="#FF0431"/>
</linearGradient>
<linearGradient id="paint24_linear_1524_7307" x1="164.168" y1="343.323" x2="206.028" y2="419.506" gradientUnits="userSpaceOnUse">
<stop stop-color="#6934DD"/>
<stop offset="1" stop-color="#FF0431"/>
</linearGradient>
<linearGradient id="paint25_linear_1524_7307" x1="285.86" y1="465.545" x2="127.259" y2="726.568" gradientUnits="userSpaceOnUse">
<stop stop-color="#FFEDB2"/>
<stop offset="0.341176" stop-color="#FFF6D8"/>
<stop offset="1" stop-color="white"/>
</linearGradient>
<clipPath id="clip0_1524_7307">
<rect width="348.833" height="541.059" fill="white" transform="translate(25 72.9824)"/>
</clipPath>
</defs>
</svg>
