<svg width="31" height="29" viewBox="0 0 31 29" fill="none" xmlns="http://www.w3.org/2000/svg">
<path id="Vector" d="M27.9635 14.6471C27.6693 15.1946 27.3618 15.7263 27.052 16.2423C24.5784 20.3676 21.9019 24.3532 19.455 28.4966C19.4005 28.6167 19.308 28.715 19.192 28.776C19.0473 28.8088 18.8956 28.7838 18.7686 28.7061C11.6374 25.4888 -6.61863 11.1323 3.21358 2.34543C5.36187 0.428085 8.86287 0.898971 11.1315 2.66762C13.4001 4.43626 14.6971 7.17372 15.7913 9.84584C16.4613 7.37885 17.5404 5.04463 18.9826 2.94249C20.5425 0.662401 23.6134 -0.166724 26.2453 0.448359C32.7169 1.96692 30.1073 10.6727 27.9635 14.6471Z" fill="#FFB7D5" fill-opacity="0.5"/>
</svg>
