<svg width="50" height="43" viewBox="0 0 50 43" fill="none" xmlns="http://www.w3.org/2000/svg">
<path id="Vector" d="M33.3729 35.9685C26.4606 39.1708 18.9839 39.7016 11.8408 42.4572C11.5367 35.3414 8.03643 31.02 4.42323 25.3072C-0.416098 17.6495 -2.37217 -0.232746 11.0587 0.81535C14.6425 1.09503 17.5817 3.8723 19.6226 6.92799C21.5423 9.80109 22.9306 13.0202 23.7174 16.4227C27.1098 9.59803 35.2067 5.66691 42.4145 7.34443C43.7045 7.59671 44.9197 8.15372 45.9661 8.9723C46.8877 9.79237 47.6062 10.8296 48.0618 11.9976C50.0683 16.7938 48.7337 22.6238 45.6073 26.7589C42.4809 30.894 38.115 33.8077 33.3729 35.9685Z" fill="#FFB7D5" fill-opacity="0.5"/>
</svg>
