<svg width="19" height="20" viewBox="0 0 19 20" fill="none" xmlns="http://www.w3.org/2000/svg">
<path id="Vector" d="M13.3726 15.4346C16.6122 13.1082 19.1705 9.99114 18.8926 6.1809C18.8274 5.29775 18.5638 4.39511 17.9937 3.73437C17.2521 2.86582 16.0738 2.48593 14.9479 2.50704C13.1392 2.54113 11.4432 3.50384 10.1395 4.77987C8.8357 6.0559 7.8702 7.65175 6.91739 9.22324C7.12661 6.88107 6.74783 4.52305 5.81689 2.37229C5.38019 1.36738 4.69417 0.318626 3.63497 0.128683C2.26135 -0.119705 1.09416 1.21478 0.587585 2.54276C-0.111611 4.39449 -0.140889 6.44064 0.505015 8.31249C1.85323 12.1763 4.11297 15.4346 5.17693 19.5045C7.57006 18.7269 10.7032 17.347 13.3726 15.4346Z" fill="#FFB7D5" fill-opacity="0.5"/>
</svg>
