<svg width="19" height="17" viewBox="0 0 19 17" fill="none" xmlns="http://www.w3.org/2000/svg">
<path id="Vector" d="M1.29457 8.78409C0.479184 7.25814 -0.0302849 5.20017 1.09102 3.89912C2.1982 2.61984 4.26784 2.88706 5.688 3.77821C7.10816 4.66935 8.18239 5.98612 9.23545 7.29442C9.65261 5.82127 10.2173 4.39653 10.9203 3.04305C11.4004 2.12046 11.9946 1.18579 12.9206 0.745659C14.5113 -0.0100604 16.4504 1.06608 17.3764 2.59445C17.9158 3.48916 18.2158 4.51444 18.2459 5.56654C18.3012 7.65112 17.2963 9.60632 16.1527 11.3294C15.1473 12.8435 14.0154 14.2648 12.77 15.5771C12.3499 16.0184 11.8993 16.4598 11.3345 16.675C9.88847 17.2264 6.89872 14.8867 5.75271 14.0149C3.91895 12.6199 2.39853 10.836 1.29457 8.78409Z" fill="#FFB7D5" fill-opacity="0.5"/>
</svg>
