<svg width="35" height="35" viewBox="0 0 35 35" fill="none" xmlns="http://www.w3.org/2000/svg">
<path id="Vector" d="M31.7241 32.4965C31.5757 33.1383 31.4137 33.7889 31.2633 34.4319L31.0929 34.4204C21.833 33.7462 10.4713 34.9986 3.57537 27.0526C1.19678 24.3126 -0.448479 20.2115 1.22135 17.0599C2.85481 13.9728 6.87214 13.2681 10.2971 13.6854C13.2615 14.0603 16.1183 14.9937 18.7221 16.4382C18.5854 13.8299 18.4515 11.1952 18.8829 8.63877C19.3143 6.08231 20.3842 3.57265 22.2693 1.91267C23.5484 0.792312 25.2481 0.0978989 26.93 0.34965C28.0131 0.547733 29.0245 1.01714 29.8735 1.71582C32.0305 3.39064 33.4338 5.96568 34.1338 8.65342C34.8338 11.3412 34.8881 14.1557 34.7429 16.907C34.4673 22.1955 32.9981 27.3797 31.7241 32.4965Z" fill="#FFB7D5" fill-opacity="0.5"/>
</svg>
