<svg width="580" height="664" viewBox="0 0 580 664" fill="none" xmlns="http://www.w3.org/2000/svg">
<g id="Frame 83" clip-path="url(#clip0_1318_8381)">
<g id="Group" opacity="0.2">
<path id="Vector" opacity="0.55" d="M378.856 103.185L412.692 91.2851C400.824 93.73 389.44 97.7334 378.856 103.185Z" fill="url(#paint0_linear_1318_8381)"/>
<path id="Vector_2" opacity="0.55" d="M455.723 92.9528L329.028 137.487C327.055 139.154 325.095 140.849 323.15 142.572L460.319 94.3478C458.861 93.8538 457.335 93.3855 455.723 92.9528Z" fill="url(#paint1_linear_1318_8381)"/>
<path id="Vector_3" opacity="0.55" d="M476.472 105.552L294.516 169.481L289.823 174.08L478.319 107.82C477.731 107.12 477.12 106.326 476.472 105.552Z" fill="url(#paint2_linear_1318_8381)"/>
<path id="Vector_4" opacity="0.55" d="M483.497 123.134L264.194 200.216L259.573 204.835L484.006 125.937C483.847 125.001 483.674 124.061 483.497 123.134Z" fill="url(#paint3_linear_1318_8381)"/>
<path id="Vector_5" opacity="0.55" d="M484.992 142.782L231.629 231.84C229.621 233.605 227.658 235.314 225.74 236.967L485.166 145.758C485.121 144.735 485.051 143.75 484.992 142.782Z" fill="url(#paint4_linear_1318_8381)"/>
<path id="Vector_6" opacity="0.55" d="M486.142 163.054L171.922 273.489C167.421 276.089 162.912 278.682 158.394 281.267L486.638 165.912C486.421 164.96 486.268 163.996 486.142 163.054Z" fill="url(#paint5_linear_1318_8381)"/>
<path id="Vector_7" opacity="0.55" d="M489.137 182.603L100.764 319.124C98.5489 320.853 96.3753 322.622 94.2434 324.432L489.791 185.385C489.567 184.461 489.343 183.537 489.137 182.603Z" fill="url(#paint6_linear_1318_8381)"/>
<path id="Vector_8" opacity="0.55" d="M493.266 201.18L69.7355 350.021C68.7287 351.362 67.7364 352.706 66.7843 354.076L493.999 203.896C493.782 203.003 493.523 202.098 493.266 201.18Z" fill="url(#paint7_linear_1318_8381)"/>
<path id="Vector_9" opacity="0.55" d="M498.088 219.297L54.7231 375.141C54.2189 376.324 53.7325 377.497 53.2607 378.674L498.961 222.006L498.088 219.297Z" fill="url(#paint8_linear_1318_8381)"/>
<path id="Vector_10" opacity="0.55" d="M503.252 237.183L47.0115 397.565C46.7507 398.637 46.4866 399.723 46.3097 400.833L504.14 239.896C503.833 238.994 503.541 238.095 503.252 237.183Z" fill="url(#paint9_linear_1318_8381)"/>
<path id="Vector_11" opacity="0.55" d="M508.363 255.048L43.2146 418.555C43.1158 419.598 43.0203 420.627 42.936 421.673L509.204 257.763L508.363 255.048Z" fill="url(#paint10_linear_1318_8381)"/>
<path id="Vector_12" opacity="0.55" d="M513.055 273.023L41.6821 438.724C41.6693 439.731 41.671 440.742 41.6727 441.753L513.806 275.788L513.055 273.023Z" fill="url(#paint11_linear_1318_8381)"/>
<path id="Vector_13" opacity="0.55" d="M516.966 291.277L41.5466 458.41C41.6019 459.392 41.6393 460.383 41.6913 461.378L517.563 294.103C517.36 293.155 517.154 292.221 516.966 291.277Z" fill="url(#paint12_linear_1318_8381)"/>
<path id="Vector_14" opacity="0.55" d="M519.72 309.915L42.1633 477.809L42.3663 480.792L520.102 312.859C519.989 311.862 519.836 310.898 519.72 309.915Z" fill="url(#paint13_linear_1318_8381)"/>
<path id="Vector_15" opacity="0.55" d="M521.443 328.976L43.1143 497.117L43.3775 500.043L521.666 331.877L521.443 328.976Z" fill="url(#paint14_linear_1318_8381)"/>
<path id="Vector_16" opacity="0.55" d="M522.176 348.364L44.5213 516.275L44.8883 519.157L522.252 351.357C522.233 350.356 522.213 349.355 522.176 348.364Z" fill="url(#paint15_linear_1318_8381)"/>
<path id="Vector_17" opacity="0.55" d="M521.689 368.191L46.7781 535.127C46.9484 536.08 47.1222 537.02 47.3104 537.964L521.565 371.248C521.61 370.235 521.659 369.208 521.689 368.191Z" fill="url(#paint16_linear_1318_8381)"/>
<path id="Vector_18" opacity="0.55" d="M519.752 388.526L50.21 553.55L50.9646 556.301L519.358 391.672C519.49 390.623 519.635 389.579 519.752 388.526Z" fill="url(#paint17_linear_1318_8381)"/>
<path id="Vector_19" opacity="0.55" d="M515.975 409.495L55.429 571.429C55.7714 572.312 56.1315 573.184 56.4918 574.057L515.27 412.776C515.519 411.686 515.751 410.606 515.975 409.495Z" fill="url(#paint18_linear_1318_8381)"/>
<path id="Vector_20" opacity="0.55" d="M509.799 431.348L62.7542 588.543C63.2294 589.388 63.7125 590.265 64.219 591.045L508.644 434.758C509.041 433.634 509.427 432.493 509.799 431.348Z" fill="url(#paint19_linear_1318_8381)"/>
<path id="Vector_21" opacity="0.55" d="M500.26 454.368L72.9803 604.564L74.9544 606.88L498.46 458.015C499.08 456.805 499.742 455.606 500.26 454.368Z" fill="url(#paint20_linear_1318_8381)"/>
<path id="Vector_22" opacity="0.55" d="M485.595 479.21L86.9676 619.328C87.8482 620.033 88.7468 620.728 89.6487 621.41L482.766 483.21C483.722 481.885 484.679 480.56 485.595 479.21Z" fill="url(#paint21_linear_1318_8381)"/>
<path id="Vector_23" opacity="0.55" d="M462.541 507.103L106.258 632.265C107.476 632.855 108.697 633.432 109.94 633.985L457.936 511.724C459.512 510.141 461.046 508.605 462.541 507.103Z" fill="url(#paint22_linear_1318_8381)"/>
<path id="Vector_24" opacity="0.55" d="M423.213 540.718L133.696 642.486C135.499 642.897 137.298 643.263 139.117 643.605L414.509 546.801C417.438 544.805 420.34 542.778 423.213 540.718Z" fill="url(#paint23_linear_1318_8381)"/>
<path id="Vector_25" opacity="0.55" d="M335.45 591.895L178.729 646.991C182.613 646.755 186.474 646.401 190.313 645.928L311.724 603.258C319.611 599.538 327.52 595.75 335.45 591.895Z" fill="url(#paint24_linear_1318_8381)"/>
</g>
<g id="&#208;&#159;&#208;&#176;&#208;&#178;&#208;&#181;&#208;&#187;3 (2) 1" clip-path="url(#clip1_1318_8381)">
<g id="&#208;&#161;&#208;&#187;&#208;&#190;&#208;&#185;_x0020_1">
<g id="_1701061536">
<path id="Vector_26" d="M326.506 442.583H305.759C304.209 442.583 302.952 444.464 302.952 446.784V504.705C302.952 507.025 304.209 508.906 305.759 508.906H326.506C328.056 508.906 329.313 507.025 329.313 504.705V446.784C329.313 444.464 328.056 442.583 326.506 442.583Z" stroke="#868CB5" stroke-width="2.04875" stroke-miterlimit="22.9256" stroke-linecap="round" stroke-linejoin="round"/>
<path id="Vector_27" d="M320.062 508.903H312.203C311.616 508.903 311.141 510.438 311.141 512.331V559.585C311.141 561.478 311.616 563.013 312.203 563.013H320.062C320.649 563.013 321.125 561.478 321.125 559.585V512.331C321.125 510.438 320.649 508.903 320.062 508.903Z" stroke="#868CB5" stroke-width="2.04875" stroke-miterlimit="22.9256" stroke-linecap="round" stroke-linejoin="round"/>
<path id="Vector_28" d="M237.827 564.077L237.827 571.935C237.827 572.522 242.269 572.998 247.749 572.998L384.518 572.998C389.998 572.998 394.44 572.522 394.44 571.935L394.44 564.077C394.44 563.49 389.998 563.014 384.518 563.014L247.749 563.014C242.269 563.014 237.827 563.49 237.827 564.077Z" stroke="#868CB5" stroke-width="2.26665" stroke-miterlimit="22.9256" stroke-linecap="round" stroke-linejoin="round"/>
<path id="Vector_29" d="M385.488 573.338V575.855C385.488 576.043 385.567 576.195 385.666 576.195L388.118 576.195C388.216 576.195 388.296 576.043 388.296 575.855V573.338C388.296 573.15 388.216 572.997 388.118 572.997L385.666 572.997C385.567 572.997 385.488 573.15 385.488 573.338Z" stroke="#868CB5" stroke-width="0.171773" stroke-miterlimit="22.9256" stroke-linecap="round" stroke-linejoin="round"/>
<path id="Vector_30" d="M389.733 599.907C396.281 599.907 401.589 594.599 401.589 588.051C401.589 581.503 396.281 576.195 389.733 576.195C383.185 576.195 377.877 581.503 377.877 588.051C377.877 594.599 383.185 599.907 389.733 599.907Z" stroke="#868CB5" stroke-width="2.04875" stroke-miterlimit="22.9256" stroke-linecap="round" stroke-linejoin="round"/>
<path id="Vector_31" d="M314.729 573.338V575.855C314.729 576.043 314.808 576.195 314.906 576.195L317.359 576.195C317.457 576.195 317.536 576.043 317.536 575.855V573.338C317.536 573.15 317.457 572.997 317.359 572.997L314.906 572.997C314.808 572.997 314.729 573.15 314.729 573.338Z" stroke="#868CB5" stroke-width="0.171773" stroke-miterlimit="22.9256" stroke-linecap="round" stroke-linejoin="round"/>
<path id="Vector_32" d="M316.133 599.907C322.681 599.907 327.989 594.599 327.989 588.051C327.989 581.503 322.681 576.195 316.133 576.195C309.585 576.195 304.277 581.503 304.277 588.051C304.277 594.599 309.585 599.907 316.133 599.907Z" stroke="#868CB5" stroke-width="2.04875" stroke-miterlimit="22.9256" stroke-linecap="round" stroke-linejoin="round"/>
<path id="Vector_33" d="M245.932 573.338V575.855C245.932 576.043 245.852 576.195 245.754 576.195L243.302 576.195C243.204 576.195 243.124 576.043 243.124 575.855V573.338C243.124 573.15 243.204 572.997 243.302 572.997L245.754 572.997C245.852 572.997 245.932 573.15 245.932 573.338Z" stroke="#868CB5" stroke-width="0.171773" stroke-miterlimit="22.9256" stroke-linecap="round" stroke-linejoin="round"/>
<path id="Vector_34" d="M241.685 599.907C248.233 599.907 253.541 594.599 253.541 588.051C253.541 581.503 248.233 576.195 241.685 576.195C235.138 576.195 229.83 581.503 229.83 588.051C229.83 594.599 235.138 599.907 241.685 599.907Z" stroke="#868CB5" stroke-width="2.04875" stroke-miterlimit="22.9256" stroke-linecap="round" stroke-linejoin="round"/>
</g>
<g id="_1701073056">
<g id="Group_2">
<path id="Vector_35" fill-rule="evenodd" clip-rule="evenodd" d="M136.674 523.683L122.749 554.088L153.751 571.517L165.955 537.927L136.674 523.683Z" fill="#DAD9FF"/>
<path id="Vector_36" fill-rule="evenodd" clip-rule="evenodd" d="M139.652 598.146C139.652 598.146 148.3 589.576 155.985 571.989C158.763 568.916 154.965 566.668 153.782 567.56C147.031 570.149 128.285 553.322 128.285 553.322C128.285 553.322 118.642 546.438 113.692 543.154C94.6176 530.385 62.2225 526.023 54.2217 547.508L139.65 598.147L139.652 598.146Z" fill="#E5EEFF"/>
<path id="Vector_37" fill-rule="evenodd" clip-rule="evenodd" d="M122.612 587.825C128.608 588.896 139.469 572.297 151.474 581.205L151.461 581.229C151.059 581.93 150.664 582.638 150.269 583.356C144.561 593.277 139.652 598.144 139.652 598.144L122.614 587.825H122.612Z" fill="#C5D2EB"/>
<path id="Vector_38" fill-rule="evenodd" clip-rule="evenodd" d="M129.716 605.226L50.4908 557.242C48.9659 556.319 49.2354 554.728 50.1945 552.671C51.5737 549.712 52.9195 545.389 56.2939 547.66C83.7897 566.169 111.647 582.582 139.65 598.146L136.748 602.936C135.152 605.571 131.987 606.602 129.714 605.224L129.716 605.226Z" fill="#868CB5"/>
<path id="Vector_39" d="M144.292 585.309C147.564 580.855 136.467 569.475 126.747 584.89C119.279 584.582 92.521 566.823 92.521 566.823" stroke="#868CB5" stroke-width="1.02438" stroke-miterlimit="22.9256" stroke-linecap="round" stroke-linejoin="round"/>
<path id="Vector_40" fill-rule="evenodd" clip-rule="evenodd" d="M139.652 598.146C139.652 598.146 148.3 589.576 155.985 571.989C158.763 568.916 154.965 566.668 153.782 567.56C147.031 570.149 128.285 553.322 128.285 553.322C128.285 553.322 133.894 539.398 118.416 534.601C116.263 535.413 115.786 539.559 113.692 543.154C94.6176 530.385 62.2225 526.023 54.2217 547.508C69.2124 556.625 84.9563 566.418 99.1955 574.858C113.435 583.299 126.166 590.384 139.65 598.146H139.652Z" stroke="#868CB5" stroke-width="1.02438" stroke-miterlimit="22.9256" stroke-linecap="round" stroke-linejoin="round"/>
<path id="Vector_41" d="M127.499 578.771L125.298 582.486" stroke="#868CB5" stroke-width="1.02438" stroke-miterlimit="22.9256" stroke-linecap="round" stroke-linejoin="round"/>
<path id="Vector_42" d="M125.861 577.777L123.659 581.492" stroke="#868CB5" stroke-width="1.02438" stroke-miterlimit="22.9256" stroke-linecap="round" stroke-linejoin="round"/>
<path id="Vector_43" fill-rule="evenodd" clip-rule="evenodd" d="M128.285 553.322C131.56 536.1 118.622 534.453 118.416 534.6C116.978 535.631 115.535 541.369 113.692 543.153C118.486 546.375 123.628 549.587 128.285 553.322Z" fill="#868CB5" stroke="#868CB5" stroke-width="1.02438" stroke-miterlimit="22.9256" stroke-linecap="round" stroke-linejoin="round"/>
<path id="Vector_44" d="M84.3445 561.914L55.5884 544.498" stroke="#868CB5" stroke-width="1.02438" stroke-miterlimit="22.9256" stroke-linecap="round" stroke-linejoin="round"/>
<path id="Vector_45" d="M96.1525 539.855L91.4541 538.342C90.875 538.158 91.0825 537.381 91.6617 537.565L96.0387 538.975C96.0655 538.633 96.1893 538.338 96.417 538.134C96.8321 537.761 97.4916 537.779 98.1477 538.114C98.834 538.574 99.0214 538.884 99.5889 539.488C100.16 540.429 100.218 541.453 99.6675 541.949C99.0147 542.535 97.7594 542.155 96.8605 541.102C96.5241 540.707 96.2864 540.273 96.1542 539.857L96.1525 539.855ZM109.414 544.264C109.972 545.198 110.022 546.209 109.476 546.699C108.825 547.285 107.568 546.905 106.671 545.852C105.774 544.799 105.574 543.47 106.226 542.885C106.632 542.518 107.277 542.53 107.921 542.846C108.557 543.219 109.054 543.845 109.414 544.264Z" fill="#868CB5"/>
<path id="Vector_46" d="M98.4287 539.719C98.4287 539.719 103.062 531.042 99.3426 535.446" stroke="#868CB5" stroke-width="2.04875" stroke-miterlimit="22.9256" stroke-linecap="round" stroke-linejoin="round"/>
<path id="Vector_47" d="M108.589 544.038C108.589 544.038 113.222 535.361 109.503 539.764" stroke="#868CB5" stroke-width="2.04875" stroke-miterlimit="22.9256" stroke-linecap="round" stroke-linejoin="round"/>
</g>
<path id="Vector_48" fill-rule="evenodd" clip-rule="evenodd" d="M378.967 360.73L379.407 388.973C379.908 408.489 364.494 424.742 344.977 425.231H218.179L166.834 560.485C163.972 562.943 120.824 535.156 123.764 527.248L164.978 385.123C171.275 367.476 178.874 360.951 211.152 360.916L378.967 360.73Z" fill="#6934D9"/>
<path id="Vector_49" fill-rule="evenodd" clip-rule="evenodd" d="M367.773 416.116C367.629 416.246 367.484 416.375 367.338 416.502L367.142 416.671C366.997 416.797 366.851 416.921 366.705 417.043L366.516 417.2C366.359 417.331 366.198 417.46 366.038 417.587L365.882 417.709C365.716 417.84 365.549 417.969 365.38 418.096L365.139 418.277C364.975 418.399 364.811 418.519 364.645 418.638L364.461 418.769C364.294 418.888 364.124 419.005 363.955 419.12L363.783 419.237C363.611 419.353 363.436 419.468 363.262 419.582L363.1 419.688C362.916 419.807 362.728 419.922 362.543 420.038L362.392 420.13C362.195 420.25 361.995 420.367 361.796 420.483L361.627 420.58C361.426 420.695 361.224 420.809 361.021 420.92L360.862 421.005C360.671 421.109 360.479 421.211 360.286 421.31L360.116 421.397C359.923 421.495 359.729 421.591 359.533 421.686L359.361 421.77C359.155 421.869 358.949 421.966 358.741 422.059L358.619 422.116C358.387 422.222 358.154 422.324 357.92 422.423L357.821 422.465C357.593 422.56 357.366 422.654 357.136 422.746L356.966 422.813C356.755 422.895 356.544 422.977 356.329 423.055L356.184 423.109C355.965 423.189 355.745 423.266 355.524 423.342L355.38 423.39C355.139 423.472 354.898 423.551 354.656 423.626L354.595 423.645C354.331 423.727 354.066 423.807 353.8 423.882L353.782 423.887L353.76 423.892C353.494 423.968 353.226 424.041 352.957 424.11L352.901 424.123C352.65 424.189 352.396 424.251 352.142 424.309L352.013 424.339C351.77 424.394 351.527 424.448 351.281 424.498L351.172 424.52C350.915 424.572 350.657 424.622 350.397 424.669L350.322 424.682C350.054 424.731 349.783 424.774 349.514 424.816L349.472 424.823L349.433 424.828C349.157 424.87 348.879 424.908 348.6 424.943L348.561 424.948C348.29 424.984 348.017 425.014 347.744 425.042L347.637 425.054C347.375 425.081 347.112 425.102 346.847 425.124L346.75 425.131C346.476 425.151 346.201 425.168 345.925 425.183L345.868 425.186C345.572 425.201 345.276 425.213 344.978 425.22H218.179L166.835 560.474C166.274 560.954 164.169 560.273 161.171 558.815L211.548 415.955H367.937L367.77 416.107L367.773 416.116Z" fill="#2B0087"/>
<path id="Vector_50" d="M204.919 406.699L218.179 425.23" stroke="#2B0087" stroke-width="2.04875" stroke-miterlimit="22.9256" stroke-linecap="round" stroke-linejoin="round"/>
<path id="Vector_51" fill-rule="evenodd" clip-rule="evenodd" d="M378.967 360.73L379.407 388.973C379.908 408.489 364.494 424.742 344.977 425.231H218.179L166.834 560.485C163.972 562.943 120.824 535.155 123.764 527.248L164.978 385.123C171.275 367.476 178.874 360.951 211.152 360.916L378.967 360.73V360.73Z" stroke="#2B0087" stroke-width="2.04875" stroke-miterlimit="22.9256" stroke-linecap="round" stroke-linejoin="round"/>
</g>
<path id="Vector_52" fill-rule="evenodd" clip-rule="evenodd" d="M273.24 251.384L428.459 251.473C434.373 251.477 440.502 256.366 439.212 262.135L406.177 409.764C402.237 427.375 391.409 442.576 373.364 442.576H240.205L273.24 251.383V251.384Z" stroke="#868CB5" stroke-width="2.04875" stroke-miterlimit="22.9256" stroke-linecap="round" stroke-linejoin="round"/>
<path id="Vector_53" d="M379.293 426.776H252.524" stroke="#868CB5" stroke-width="2.04875" stroke-miterlimit="22.9256" stroke-linecap="round" stroke-linejoin="round"/>
<path id="Vector_54" fill-rule="evenodd" clip-rule="evenodd" d="M355.014 204.486C349.687 198.437 343.424 196.094 332.015 196.094H313.041H294.067C289.199 196.678 280.991 198.286 275.663 204.336C275.358 204.336 270.459 204.488 270.158 204.49C241.326 204.736 226.195 216.541 212.512 234.287L186.099 263.612C185.772 263.917 185.456 264.236 185.151 264.573L172.685 278.328C171.269 279.656 169.965 281.099 168.786 282.643C168.306 283.201 167.849 283.772 167.417 284.354L167.414 284.357V284.359C163.306 289.903 161.403 296.539 161.643 303.094C161.638 303.338 161.633 303.583 161.633 303.829C161.633 323.135 177.283 338.785 196.587 338.785C206.824 338.785 216.033 334.383 222.427 327.369L222.457 327.371C227.285 322.012 232.112 316.652 236.939 311.291C239.957 319.501 236.178 334.537 236.939 339.187C238.164 346.667 242.58 341.582 241.684 345.313H247.496H378.966V329.651C382.536 331.253 385.564 332.63 389.144 334.202C411.599 344.238 438.122 327.083 438.122 302.224C438.122 285.988 420.838 250.53 406.386 229.503C393.774 211.151 377.977 204.485 355.01 204.483L355.014 204.486Z" fill="#FF0028"/>
<path id="Vector_55" fill-rule="evenodd" clip-rule="evenodd" d="M378.967 340.131V329.658L379.407 329.856L360.433 319.624L345.893 311.64C346.735 315.859 347.988 322.705 353.016 326.222C357.896 329.635 369.02 335.533 378.966 340.131H378.967Z" fill="#D90324"/>
<path id="Vector_56" fill-rule="evenodd" clip-rule="evenodd" d="M332.015 201.444C340.237 202.367 347.687 204.292 347.371 212.949C346.36 226.361 318.429 236.514 316.626 228.962L316.427 228.127L316.614 228.095C306.222 229.866 294.58 226.908 289.802 218.465L289.147 219.028C288.399 219.669 287.515 219.942 286.536 219.831C285.557 219.719 284.757 219.257 284.172 218.464C281.632 208.22 286.442 202.226 294.065 201.322C308.227 199.642 316.601 200.428 332.015 201.446V201.444Z" fill="#D90324"/>
<path id="Vector_57" fill-rule="evenodd" clip-rule="evenodd" d="M338.178 208.844C338.067 222.326 318.033 229.972 301.079 223.794C292.595 220.703 288.547 214.283 291.58 207.496L338.178 208.842V208.844Z" fill="#AD041E"/>
<path id="Vector_58" d="M331.322 328.38C306.043 333.339 239.572 317.673 245.481 323.415" stroke="#D90324" stroke-width="2.04875" stroke-miterlimit="22.9256" stroke-linecap="round" stroke-linejoin="round"/>
<path id="Vector_59" d="M331.324 328.381L333.155 323.042" stroke="#D90324" stroke-width="2.04875" stroke-miterlimit="22.9256" stroke-linecap="round" stroke-linejoin="round"/>
<path id="Vector_60" fill-rule="evenodd" clip-rule="evenodd" d="M294.066 184.758H332.015V208.647C332.015 219.083 323.477 224.205 313.041 224.205C302.605 224.205 294.066 219.083 294.066 208.647V184.758Z" fill="#EBA884"/>
<g id="Group_3">
<path id="Vector_61" d="M302.975 239.095C303.025 238.53 303.525 238.111 304.093 238.161C304.66 238.212 305.079 238.712 305.028 239.278L302.975 239.095ZM298.199 293.965L296.169 294.321L295.913 292.709L295.719 291.118L295.581 289.544L295.498 287.986L295.466 286.441L295.483 284.906L295.545 283.379L295.648 281.858L295.791 280.338L295.97 278.818L296.181 277.295L296.422 275.765L296.689 274.225L296.981 272.674L297.294 271.105L297.623 269.52L297.968 267.913L298.325 266.281L298.691 264.621L299.063 262.93L299.438 261.206L299.813 259.444L300.186 257.641L300.554 255.795L300.914 253.904L301.264 251.962L301.6 249.967L301.918 247.916L302.218 245.807L302.494 243.636L302.747 241.4L302.971 239.095L305.025 239.278L304.797 241.614L304.541 243.881L304.26 246.082L303.957 248.219L303.634 250.296L303.294 252.315L302.941 254.278L302.576 256.19L302.205 258.053L301.828 259.869L301.45 261.642L301.073 263.372L300.7 265.066L300.333 266.725L299.977 268.352L299.634 269.949L299.306 271.52L298.998 273.069L298.711 274.595L298.449 276.105L298.213 277.6L298.007 279.083L297.833 280.557L297.695 282.027L297.597 283.493L297.538 284.961L297.523 286.432L297.555 287.912L297.635 289.402L297.767 290.905L297.953 292.425L298.197 293.966L298.199 293.965ZM297.593 322.903L295.545 322.681L295.618 322.058L295.705 321.442L295.801 320.831L295.904 320.224L296.015 319.618L296.13 319.01L296.249 318.397L296.37 317.78L296.49 317.154L296.611 316.516L296.728 315.863L296.842 315.194L296.95 314.506L297.053 313.796L297.148 313.061L297.233 312.298L297.309 311.506L297.372 310.683L297.421 309.824L297.456 308.927L297.474 307.99V307.009L297.456 305.984L297.416 304.911L297.354 303.788L297.269 302.613L297.158 301.383L297.019 300.096L296.853 298.748L296.658 297.339L296.43 295.864L296.169 294.325L298.199 293.968L298.465 295.536L298.698 297.039L298.899 298.481L299.07 299.86L299.212 301.18L299.326 302.446L299.414 303.656L299.478 304.816L299.518 305.926L299.538 306.99V308.01L299.52 308.985L299.485 309.921L299.433 310.82L299.367 311.682L299.289 312.511L299.2 313.307L299.101 314.076L298.994 314.815L298.88 315.53L298.763 316.221L298.643 316.891L298.521 317.542L298.398 318.176L298.278 318.796L298.161 319.402L298.047 319.998L297.94 320.585L297.839 321.168L297.749 321.747L297.669 322.326L297.598 322.907L297.593 322.903ZM297.593 322.903C297.531 323.469 297.022 323.877 296.457 323.816C295.891 323.754 295.483 323.246 295.545 322.681L297.593 322.903Z" fill="#FF5E04"/>
</g>
<path id="Vector_62" d="M300.39 310.896C300.529 309.712 299.683 308.641 298.499 308.502C297.316 308.363 296.244 309.209 296.105 310.392L295.256 317.623C295.117 318.806 295.964 319.878 297.147 320.017C298.33 320.156 299.402 319.309 299.541 318.126L300.39 310.896Z" fill="#FF5E04"/>
<path id="Vector_63" fill-rule="evenodd" clip-rule="evenodd" d="M345.566 157.619L341.483 173.943C337.615 189.488 321.881 198.953 306.336 195.085C290.792 191.219 281.326 175.483 285.194 159.938L289.293 143.463L289.881 141.103L293.202 127.751L291.356 135.171L290.768 137.533C290.768 137.533 283.48 137.094 286.068 129.229C288.656 121.364 285.971 119.712 291.043 113.452C294.507 109.175 296.606 107.145 299.055 106.045C296.181 101.695 299.484 93.6001 300.443 92.2477C300.809 91.7355 301.06 91.5765 301.573 91.6786C302.016 91.7807 302.15 92.1774 302.046 92.6209C302.04 92.6477 299.214 101.549 302.877 104.915C303.143 103.343 301.377 93.421 309.52 88.5067C317.794 83.5154 323.095 94.437 322.768 94.8555C322.442 95.2739 337.638 99.117 346.448 107.292C355.257 115.467 359.172 123.582 356.248 136.082C353.324 148.582 354.284 145.942 351.072 155.814C350.582 157.321 347.892 157.824 345.564 157.619H345.566Z" fill="#EBA884"/>
<path id="Vector_64" fill-rule="evenodd" clip-rule="evenodd" d="M350.037 152.535C351.843 152.985 353.102 155.402 352.524 157.718L350.901 164.248C349.723 168.983 344.917 171.844 340.188 170.669L345.056 151.296L350.039 152.535H350.037Z" fill="#EBA884"/>
<path id="Vector_65" d="M334.604 140.62C331.057 138.545 327.596 136.245 323.544 135.308C321.994 134.95 320.494 133.279 320.054 131.798C319.617 130.328 320.558 129.603 321.94 129.925C326.488 130.976 330.433 133.495 334.413 135.825C335.753 136.608 337.241 138.023 337.311 139.697C337.373 141.285 335.602 141.205 334.603 140.62H334.604Z" fill="#241813"/>
<path id="Vector_66" d="M309.694 131.265C306.838 129.489 305.628 128.907 302.127 127.377C300.598 126.68 297.939 126.535 296.193 127.464C294.295 128.476 296.164 129.672 297.062 130.08C300.277 130.647 301.487 131.232 304.343 133.006C305.804 133.913 308.03 134.718 309.985 134.085C311.922 133.456 310.559 131.802 309.692 131.265H309.694Z" fill="#241813"/>
<path id="Vector_67" d="M300.441 92.2477C300.808 91.7355 301.059 91.5765 301.571 91.6786C302.015 91.7807 302.149 92.1774 302.045 92.6209C302.038 92.6477 299.213 101.549 302.875 104.915C303.141 103.343 301.375 93.421 309.518 88.5067C317.792 83.5154 323.093 94.437 322.767 94.8555C322.44 95.2739 337.637 99.117 346.448 107.292C355.257 115.467 359.172 123.582 356.248 136.082C353.324 148.582 354.285 145.942 351.073 155.814C350.15 158.65 341.436 157.932 342.011 155.628L344.322 136.391C341.964 133.783 333.119 119.149 329.432 120.416C327.704 121.011 324.491 121.298 320.914 120.798C316.098 120.125 310.662 117.819 307.125 114.844C300.728 111.808 294.707 121.697 294.707 121.697L291.354 135.171L290.767 137.533C290.767 137.533 283.479 137.094 286.067 129.229C288.654 121.364 285.969 119.712 291.041 113.452C294.506 109.175 296.603 107.145 299.054 106.045C296.178 101.695 299.482 93.6001 300.441 92.2477Z" fill="#241813"/>
<path id="Vector_68" d="M309.397 149.835C308.321 153.616 306.903 157.283 305.861 161.08C305.293 163.153 303.631 164.961 303.554 167.117C303.504 168.401 304.65 170.49 305.964 171.149C306.418 171.375 305.795 171.693 305.596 171.745C305.112 171.869 304.572 171.851 304.126 171.626C302.824 170.974 301.458 169.146 301.408 167.813C301.333 165.669 303.025 163.816 303.556 161.756C304.59 157.73 306.122 153.875 307.257 149.887C307.451 149.209 309.528 149.39 309.399 149.837L309.397 149.835Z" fill="black"/>
<path id="Vector_69" d="M347.636 160.74C347.653 160.463 347.889 160.251 348.166 160.268C348.443 160.284 348.655 160.52 348.638 160.798C348.637 160.817 348.247 167.405 344.266 168.017C343.992 168.059 343.734 167.87 343.692 167.595C343.65 167.321 343.84 167.063 344.114 167.021C347.291 166.531 347.634 160.756 347.636 160.74Z" fill="#C98560"/>
<path id="Vector_70" d="M294.802 146.184C294.519 147.928 295.707 149.57 297.45 149.853C299.196 150.136 300.838 148.951 301.119 147.206C301.402 145.462 300.218 143.819 298.471 143.537C296.728 143.256 295.083 144.44 294.802 146.185V146.184Z" fill="black"/>
<path id="Vector_71" d="M317.253 150.643C316.97 152.387 318.154 154.029 319.9 154.312C321.645 154.595 323.287 153.41 323.57 151.666C323.853 149.921 322.668 148.278 320.922 147.995C319.176 147.712 317.536 148.897 317.253 150.643Z" fill="black"/>
<path id="Vector_72" d="M296.407 135.466C302.165 136.5 304.845 138.422 306.018 140.546C306.507 141.433 306.733 142.33 306.805 143.205C307.909 142.969 309.012 142.901 310.095 143.06C311.202 143.222 312.278 143.617 313.311 144.312C313.687 143.239 314.277 142.179 315.298 141.301C317.142 139.712 320.331 138.84 326.099 139.876C331.868 140.912 334.553 142.837 335.728 144.966C335.78 145.06 335.829 145.154 335.874 145.247L352.254 152.441C352.686 152.629 352.881 153.131 352.694 153.561C352.506 153.993 352.004 154.191 351.574 154.001L336.491 147.376C336.652 148.754 336.414 150.083 336.209 151.225C335.891 152.994 335.417 155.633 333.502 157.647C331.589 159.657 328.311 160.951 322.498 159.907C310.731 157.793 312.019 150.615 312.668 146.997L312.683 146.909C312.732 146.64 312.782 146.362 312.839 146.078C311.88 145.313 310.875 144.896 309.844 144.745C308.852 144.6 307.821 144.695 306.774 144.958C306.709 145.606 306.599 146.223 306.495 146.794C306.179 148.56 305.705 151.191 303.795 153.196C301.885 155.2 298.616 156.487 292.815 155.446C281.07 153.337 282.354 146.188 283.001 142.574L283.016 142.487C283.336 140.705 283.76 138.492 285.624 136.888C287.465 135.302 290.649 134.433 296.405 135.466H296.407ZM334.237 145.791C333.284 144.066 330.956 142.479 325.796 141.552C320.634 140.624 317.9 141.301 316.411 142.586C314.971 143.825 314.625 145.761 314.349 147.299L314.333 147.387C313.781 150.47 312.807 156.435 322.805 158.23C327.921 159.148 330.708 158.112 332.27 156.47C333.832 154.83 334.252 152.49 334.533 150.922C334.809 149.385 335.156 147.452 334.238 145.79L334.237 145.791ZM289.83 141.47C290.282 141.605 290.538 142.079 290.405 142.531C290.271 142.983 289.795 143.239 289.343 143.105L284.891 141.798C284.811 142.169 284.745 142.532 284.683 142.876L284.668 142.963C284.118 146.039 283.149 151.974 293.123 153.767C298.228 154.684 301.008 153.653 302.565 152.02C304.121 150.386 304.542 148.054 304.823 146.491C305.099 144.958 305.444 143.03 304.528 141.373C303.577 139.652 301.256 138.068 296.106 137.143C290.955 136.217 288.229 136.893 286.741 138.174C286.096 138.73 285.671 139.424 285.373 140.161L289.83 141.47Z" fill="#160045"/>
<g id="Group_4">
<path id="Vector_73" d="M288.436 234.714C288.707 234.214 289.333 234.028 289.832 234.297C290.332 234.567 290.518 235.193 290.248 235.692L288.436 234.712V234.714ZM279.839 288.44L277.783 288.29L277.847 287.19L277.882 286.074L277.892 284.937L277.881 283.779L277.852 282.595L277.814 281.387L277.767 280.15L277.718 278.883L277.673 277.584L277.634 276.252L277.608 274.884L277.599 273.48L277.613 272.037L277.653 270.552L277.725 269.026L277.834 267.454L277.984 265.835L278.18 264.168L278.428 262.453L278.731 260.683L279.094 258.861L279.523 256.983L280.021 255.048L280.595 253.052L281.248 250.995L281.986 248.876L282.812 246.69L283.731 244.437L284.748 242.114L285.868 239.721L287.095 237.253L288.436 234.709L290.248 235.688L288.929 238.191L287.723 240.614L286.623 242.963L285.627 245.237L284.728 247.442L283.921 249.576L283.202 251.643L282.566 253.645L282.008 255.585L281.523 257.465L281.106 259.286L280.753 261.053L280.46 262.767L280.221 264.429L280.03 266.043L279.884 267.611L279.779 269.136L279.708 270.621L279.67 272.065L279.656 273.475L279.665 274.851L279.69 276.195L279.727 277.51L279.772 278.799L279.82 280.063L279.867 281.305L279.908 282.528L279.936 283.734L279.948 284.925L279.938 286.104L279.903 287.272L279.836 288.432L279.839 288.44ZM267.926 314.376L265.898 314.015L266.047 313.337L266.246 312.662L266.49 311.991L266.776 311.32L267.099 310.649L267.456 309.974L267.841 309.296L268.253 308.613L268.686 307.924L269.14 307.226L269.61 306.519L270.094 305.803L270.588 305.075L271.088 304.337L271.592 303.585L272.097 302.82L272.601 302.042L273.098 301.25L273.587 300.442L274.064 299.618L274.528 298.778L274.973 297.922L275.397 297.049L275.797 296.157L276.17 295.246L276.513 294.317L276.824 293.368L277.101 292.397L277.338 291.406L277.534 290.392L277.685 289.354L277.788 288.293L279.844 288.444L279.73 289.602L279.566 290.733L279.353 291.838L279.096 292.916L278.798 293.967L278.463 294.993L278.093 295.993L277.693 296.967L277.266 297.917L276.816 298.845L276.347 299.749L275.862 300.631L275.363 301.491L274.856 302.33L274.342 303.148L273.827 303.947L273.311 304.727L272.799 305.488L272.295 306.231L271.803 306.958L271.324 307.666L270.864 308.357L270.424 309.033L270.009 309.693L269.622 310.336L269.265 310.963L268.942 311.574L268.656 312.168L268.41 312.747L268.206 313.308L268.045 313.851L267.93 314.376H267.926ZM267.926 314.376C267.826 314.935 267.292 315.308 266.731 315.21C266.171 315.109 265.797 314.575 265.898 314.016L267.926 314.378V314.376Z" fill="#FF5E04"/>
</g>
<path id="Vector_74" d="M275.489 303.438C276.108 302.421 275.786 301.094 274.769 300.474C273.751 299.854 272.424 300.176 271.804 301.194L268.016 307.411C267.396 308.428 267.719 309.755 268.736 310.375C269.753 310.995 271.081 310.673 271.7 309.656L275.489 303.438Z" fill="#FF5E04"/>
<path id="Vector_75" d="M317.801 241.199C338.809 239.995 355.325 227.599 355.325 212.486" stroke="#D90324" stroke-width="2.04875" stroke-miterlimit="22.9256" stroke-linecap="round" stroke-linejoin="round"/>
<path id="Vector_76" fill-rule="evenodd" clip-rule="evenodd" d="M335.827 289.662L329.134 286.117C319.173 288.119 318.214 287.747 303.769 281.353C302.431 280.963 300.907 280.311 299.547 279.909L295.331 279.496L294.191 279.475C289.572 279.393 289.546 271.811 293.751 271.245L291.178 271.2C286.229 271.115 286.251 262.911 290.844 262.454L286.867 262.391C281.748 262.309 281.931 253.538 287.006 253.625H287.007L301.266 252.808L301.959 252.192L294.616 246.806L284.5 244.006C278.754 243.651 277.056 236.634 283.194 236.263C288.176 237.118 293.157 237.971 298.138 238.827L315.472 246.712C314.23 245.11 312.975 242.929 312.851 242.655C307.342 230.337 315.787 229.35 318.813 234.02C330.935 249.502 334.773 245.835 339.085 257.646L349.564 263.196C344.971 272.065 340.368 280.814 335.842 289.629C335.836 289.641 335.832 289.652 335.827 289.666V289.662Z" fill="#EBA884"/>
<path id="Vector_77" fill-rule="evenodd" clip-rule="evenodd" d="M341.314 292.726L355.779 266.693L349.437 263.1L335.827 289.663L341.314 292.726Z" fill="#D90324"/>
<path id="Vector_78" fill-rule="evenodd" clip-rule="evenodd" d="M355.045 267.806L342.064 291.218C337.724 299.046 340.561 309.036 348.406 313.342L377.147 328.737C391.427 336.577 409.551 331.458 417.468 317.179C434.594 286.287 397.862 272.548 377.169 261.464C369.324 257.156 359.385 259.98 355.045 267.806Z" fill="#FF0028"/>
<path id="Vector_79" d="M377.168 261.465V248.357" stroke="#D90324" stroke-width="2.04875" stroke-miterlimit="22.9256" stroke-linecap="round" stroke-linejoin="round"/>
<g id="Group_5">
<path id="Vector_80" d="M302.949 277.417C303.114 277.641 303.066 277.958 302.842 278.122C302.617 278.287 302.301 278.239 302.135 278.015L302.949 277.417ZM301.648 273.08L302.514 273.601L302.455 273.703L302.401 273.807L302.353 273.912L302.308 274.021L302.269 274.13L302.234 274.24L302.204 274.354L302.177 274.468L302.157 274.583L302.14 274.7L302.129 274.819L302.122 274.94L302.12 275.06L302.122 275.183L302.129 275.306L302.14 275.43L302.155 275.554L302.175 275.68L302.201 275.805L302.231 275.931L302.266 276.056L302.304 276.183L302.348 276.309L302.396 276.435L302.45 276.56L302.509 276.686L302.57 276.809L302.637 276.933L302.708 277.056L302.785 277.178L302.865 277.298L302.95 277.417L302.137 278.015L302.035 277.869L301.938 277.723L301.846 277.574L301.759 277.424L301.677 277.271L301.6 277.119L301.529 276.965L301.464 276.809L301.404 276.652L301.349 276.495L301.3 276.336L301.257 276.177L301.22 276.016L301.188 275.855L301.161 275.695L301.141 275.534L301.126 275.373L301.118 275.213L301.114 275.052L301.118 274.891L301.128 274.732L301.143 274.575L301.164 274.418L301.193 274.262L301.228 274.108L301.268 273.954L301.317 273.802L301.37 273.651L301.431 273.504L301.498 273.358L301.571 273.214L301.652 273.074L301.648 273.08ZM301.648 273.08C301.792 272.843 302.102 272.766 302.341 272.909C302.581 273.053 302.658 273.363 302.514 273.602L301.648 273.082V273.08Z" fill="#C98560"/>
</g>
<g id="Group_6">
<path id="Vector_81" d="M303.113 268.508C303.32 268.693 303.337 269.013 303.151 269.221C302.965 269.428 302.646 269.445 302.438 269.259L303.111 268.508H303.113ZM302.192 262.241L302.94 262.917L302.853 263.023L302.768 263.141L302.686 263.274L302.609 263.418L302.537 263.572L302.47 263.737L302.41 263.911L302.354 264.095L302.306 264.286L302.264 264.484L302.229 264.686L302.2 264.894L302.18 265.105L302.167 265.319L302.16 265.533L302.162 265.749L302.17 265.965L302.185 266.179L302.209 266.392L302.239 266.6L302.276 266.804L302.321 267.003L302.373 267.195L302.431 267.381L302.497 267.559L302.569 267.728L302.646 267.887L302.729 268.036L302.818 268.173L302.912 268.298L303.009 268.411L303.111 268.509L302.438 269.261L302.276 269.104L302.127 268.933L301.989 268.75L301.864 268.558L301.75 268.357L301.648 268.148L301.556 267.93L301.474 267.708L301.402 267.478L301.338 267.244L301.285 267.005L301.24 266.764L301.204 266.518L301.178 266.27L301.159 266.02L301.149 265.771L301.147 265.522L301.154 265.272L301.169 265.024L301.193 264.778L301.226 264.536L301.268 264.296L301.318 264.06L301.377 263.829L301.444 263.605L301.519 263.386L301.604 263.173L301.7 262.969L301.805 262.773L301.921 262.586L302.048 262.408L302.187 262.243L302.192 262.241ZM302.192 262.241C302.379 262.035 302.697 262.018 302.905 262.206C303.111 262.393 303.128 262.711 302.94 262.919L302.192 262.243V262.241Z" fill="#C98560"/>
</g>
<path id="Vector_82" d="M244.419 324.34C244.469 323.778 244.966 323.365 245.529 323.417C246.091 323.467 246.505 323.964 246.453 324.526L245.084 339.271H243.033L244.419 324.342V324.34Z" fill="#D90324"/>
<path id="Vector_83" d="M245.53 323.414L243.965 317.991" stroke="#D90324" stroke-width="2.04875" stroke-miterlimit="22.9256" stroke-linecap="round" stroke-linejoin="round"/>
<path id="Vector_84" fill-rule="evenodd" clip-rule="evenodd" d="M194.518 338.723C177.619 337.735 163.945 324.745 161.9 308.15C178.081 310.623 191.034 322.897 194.518 338.723Z" fill="#FF5E04"/>
<path id="Vector_85" fill-rule="evenodd" clip-rule="evenodd" d="M270.408 240.95L261.887 249.95C258.487 254.076 252.204 249.187 256.239 244.474L263.345 236.772L270.41 240.95H270.408Z" fill="#C98560"/>
<path id="Vector_86" fill-rule="evenodd" clip-rule="evenodd" d="M262.548 249.251C263.156 251.229 266.123 258.315 263.36 261.384L233.186 294.076L233.04 291.121L232.416 288.545L231.353 285.839L230.257 284.207L229.353 281.395L239.977 268.068L262.548 249.253V249.251Z" fill="#D90324"/>
<path id="Vector_87" fill-rule="evenodd" clip-rule="evenodd" d="M260.335 258.614L243.374 259.813C238.985 260.122 234.438 257.186 233.232 253.291L218.878 206.885C217.673 202.988 220.307 199.545 224.698 199.236L241.658 198.037C246.049 197.727 250.595 200.663 251.8 204.558L266.155 250.965C267.36 254.861 264.724 258.304 260.335 258.614Z" fill="#E5EEFF" stroke="#C6D6F7" stroke-width="1.02438" stroke-miterlimit="22.9256"/>
<path id="Vector_88" fill-rule="evenodd" clip-rule="evenodd" d="M233.838 277.041L240.028 268.042C245.242 265.202 253.218 259.442 257.597 253.48L259.838 248.445L268.967 242.218C272.539 240.397 271.441 234.514 265.838 235.227L267.367 234.181C270.939 232.36 269.841 226.475 264.238 227.189C267.81 225.368 266.712 219.485 261.11 220.196L266.041 217.243C270.473 214.845 267.325 208.099 261.612 210.759L240.167 220.057L227.826 233.526C227.796 233.67 227.081 233.808 227.11 233.635C226.947 231.004 227.555 230.142 225.535 223.43C223.514 216.718 216.817 219.572 217.49 224.821C218.237 244.47 210.018 241.052 213.371 253.934L211.08 257.733L233.84 277.042L233.838 277.041Z" fill="#EBA884"/>
<g id="Group_7">
<path id="Vector_89" d="M247.886 227.417C247.635 227.539 247.334 227.434 247.212 227.183C247.089 226.931 247.195 226.63 247.444 226.508L247.884 227.417H247.886ZM259.209 221.922L247.886 227.417L247.446 226.508L258.769 221.013L259.209 221.922ZM258.769 221.013C259.02 220.891 259.322 220.996 259.444 221.247C259.566 221.498 259.461 221.8 259.211 221.922L258.771 221.013H258.769Z" fill="#C98560"/>
</g>
<g id="Group_8">
<path id="Vector_90" d="M251.383 234.188C251.134 234.312 250.831 234.211 250.707 233.962C250.583 233.712 250.683 233.409 250.931 233.286L251.383 234.188ZM262.559 228.594L251.383 234.188L250.931 233.286L262.107 227.692L262.559 228.594ZM262.107 227.692C262.357 227.568 262.66 227.668 262.783 227.918C262.907 228.167 262.807 228.47 262.559 228.594L262.107 227.692Z" fill="#C98560"/>
</g>
<g id="Group_9">
<path id="Vector_91" d="M252.984 242.222C252.735 242.346 252.432 242.246 252.308 241.996C252.184 241.747 252.284 241.444 252.532 241.32L252.984 242.222ZM264.2 236.607L252.984 242.222L252.532 241.32L263.748 235.704L264.2 236.607ZM263.748 235.704C263.998 235.581 264.301 235.681 264.425 235.93C264.549 236.18 264.448 236.483 264.2 236.607L263.748 235.704Z" fill="#C98560"/>
</g>
<path id="Vector_92" fill-rule="evenodd" clip-rule="evenodd" d="M206.845 262.372L228.894 282.392L233.838 277.038L211.078 257.729L206.845 262.372Z" fill="#D90324"/>
<path id="Vector_93" d="M222.229 311.794L229.005 304.319C234.714 298.019 234.542 288.371 228.825 282.266L206.847 262.371C204.219 260.41 201.137 259.353 198.024 259.183" stroke="#D90324" stroke-width="2.04875" stroke-miterlimit="22.9256" stroke-linecap="round" stroke-linejoin="round"/>
<path id="Vector_94" d="M330.403 328.818C330.16 328.309 330.374 327.7 330.883 327.457C331.392 327.215 332.001 327.429 332.244 327.938L339.312 342.634H337.046L330.403 328.818Z" fill="#D90324"/>
<path id="Vector_95" d="M228.087 201.204L240.045 200.358C244.436 200.049 248.982 202.985 250.187 206.88" stroke="#C6D6F7" stroke-width="1.02438" stroke-miterlimit="22.9256" stroke-linecap="round" stroke-linejoin="round"/>
<path id="Vector_96" d="M302.317 180.241C303.394 180.478 304.474 180.716 305.55 180.954C306.104 181.076 305.023 182.624 304.476 182.504C303.398 182.266 302.318 182.028 301.245 181.791C300.688 181.667 301.773 180.12 302.317 180.239V180.241Z" fill="black"/>
<path id="Vector_97" d="M313.772 176.52C312.431 180.758 305.461 179.619 302.291 179.001C300.629 178.594 296.694 177.324 295.939 174.056C295.693 173.002 297.522 172.366 297.78 173.487C298.275 175.64 300.781 176.74 301.717 177.019C303.797 177.53 305.951 177.839 308.094 177.786C309.343 177.756 311.522 177.638 311.981 176.192C312.31 175.149 314.145 175.335 313.772 176.52Z" fill="black"/>
<g id="Group_10">
<path id="Vector_98" fill-rule="evenodd" clip-rule="evenodd" d="M96.1167 284.188H129.396C131.269 284.188 132.805 285.707 132.812 287.58L132.921 318.081C132.921 329.186 123.917 338.19 112.811 338.19C101.706 338.19 92.7021 329.186 92.7021 318.081V287.604C92.7021 285.722 94.237 284.188 96.1184 284.188H96.1167Z" fill="#6934D9" stroke="#2B0087" stroke-width="1.70729" stroke-miterlimit="22.9256" stroke-linecap="round" stroke-linejoin="round"/>
<path id="Vector_99" fill-rule="evenodd" clip-rule="evenodd" d="M141.704 261.813L130.179 246.222L126.838 252.726C126.239 253.894 125.113 254.582 123.8 254.582H116.988C115.107 254.582 113.572 256.117 113.572 257.999V259.753C113.572 261.634 112.037 263.169 110.155 263.169H106.48C104.598 263.169 103.063 264.704 103.063 266.585V275.344C103.063 277.226 104.598 278.761 106.48 278.761H121.678C123.559 278.761 125.094 277.226 125.094 275.344V273.59C125.094 271.709 126.629 270.174 128.511 270.174H135.323C136.635 270.174 137.762 269.486 138.361 268.318L141.702 261.813H141.704Z" fill="#EBE9FF"/>
<path id="Vector_100" d="M127.159 242.298L123.818 248.802C123.219 249.971 122.092 250.659 120.78 250.659H113.967C112.086 250.659 110.551 252.193 110.551 254.075V255.829C110.551 257.71 109.016 259.245 107.135 259.245H103.459C101.578 259.245 100.043 260.78 100.043 262.662V271.421C100.043 273.302 101.578 274.837 103.459 274.837H118.657C120.539 274.837 122.074 273.302 122.074 271.421V269.666C122.074 267.785 123.609 266.25 125.49 266.25H132.302C133.615 266.25 134.741 265.562 135.34 264.394L138.681 257.889" stroke="#C2BFFF" stroke-width="2.04875" stroke-miterlimit="22.9256" stroke-linecap="round" stroke-linejoin="round"/>
<path id="Vector_101" d="M132.828 319.756C137.508 319.756 141.303 313.816 141.303 306.488C141.303 299.16 137.508 293.22 132.828 293.22" stroke="#2B0087" stroke-width="5.12355" stroke-miterlimit="22.9256" stroke-linecap="round" stroke-linejoin="round"/>
<path id="Vector_102" d="M101.034 315.875C101.034 316.817 100.269 317.582 99.3269 317.582C98.3846 317.582 97.6196 316.817 97.6196 315.875V289.336C97.6196 288.394 98.3846 287.629 99.3269 287.629C100.269 287.629 101.034 288.394 101.034 289.336V315.875Z" fill="#9E99FF"/>
</g>
<path id="Vector_103" fill-rule="evenodd" clip-rule="evenodd" d="M332.015 189.132L332.017 198.852C326.964 208.83 300.29 212.47 294.066 188.625L294.13 188.679C297.513 191.673 301.647 193.921 306.335 195.086C315.379 197.336 324.488 195.071 331.285 189.723C331.533 189.536 331.777 189.338 332.015 189.132Z" fill="#C98560"/>
<path id="Vector_104" d="M391.146 269.14L377.167 261.464C369.321 257.156 359.382 259.98 355.042 267.806L342.062 291.218C337.722 299.046 340.559 309.036 348.404 313.342L375.135 328.02C376.243 328.628 377.374 329.158 378.521 329.612" stroke="#D90324" stroke-width="2.04875" stroke-miterlimit="22.9256" stroke-linecap="round" stroke-linejoin="round"/>
<path id="Vector_105" d="M486.7 337.803H45.1074C36.2495 337.803 29.0688 341.264 29.0688 345.534V345.536C29.0688 349.806 36.2495 353.267 45.1074 353.267H486.7C495.558 353.267 502.739 349.806 502.739 345.536V345.534C502.739 341.264 495.558 337.803 486.7 337.803Z" fill="#F2C88C"/>
<path id="Vector_106" d="M273.577 212.617C273.518 218.678 276.266 224.321 280.99 228.965" stroke="#D90324" stroke-width="2.04875" stroke-miterlimit="22.9256" stroke-linecap="round" stroke-linejoin="round"/>
<path id="Vector_107" fill-rule="evenodd" clip-rule="evenodd" d="M408.046 336.708C424.233 334.174 438.126 320.221 438.126 302.229C438.126 298.827 437.364 294.577 436.03 289.793C419.083 292.715 406.189 307.485 406.189 325.268C406.189 329.267 406.842 333.113 408.046 336.707V336.708Z" fill="#FF5E04"/>
<g id="Group_11">
<path id="Vector_108" fill-rule="evenodd" clip-rule="evenodd" d="M225.312 530.957L225.995 570.493L258.164 572.744L257.999 533.444L225.312 530.957Z" fill="#DAD9FF"/>
<path id="Vector_109" fill-rule="evenodd" clip-rule="evenodd" d="M213.783 543.707C214.243 552.9 267.442 556.599 267.507 551.628L272.44 425.194L344.965 425.231C364.481 424.744 379.895 408.489 379.395 388.973L378.955 360.73L253.335 361.238C225.302 362.605 215.644 380.297 212.994 397.446C208.304 427.802 212.027 508.565 213.781 543.705L213.783 543.707Z" fill="#6934D9"/>
<path id="Vector_110" d="M259.783 408.471L272.441 425.194" stroke="#2B0087" stroke-width="2.04875" stroke-miterlimit="22.9256" stroke-linecap="round" stroke-linejoin="round"/>
<path id="Vector_111" d="M368.42 361.929V385.161C368.42 400.207 356.143 412.198 341.1 412.49L263.422 413.994L261.263 553.539" stroke="#2B0087" stroke-width="2.04875" stroke-miterlimit="22.9256" stroke-linecap="round" stroke-linejoin="round"/>
<path id="Vector_112" d="M353.677 370.607L328.779 404.054L331.817 412.491" stroke="#2B0087" stroke-width="2.04875" stroke-miterlimit="22.9256" stroke-linecap="round" stroke-linejoin="round"/>
<g id="Group_12">
<path id="Vector_113" fill-rule="evenodd" clip-rule="evenodd" d="M178.922 608.43C173.869 630.774 223.896 631.115 240.172 616.485C256.45 601.854 265.775 610.054 265.223 586.876C265.042 584.305 264.6 581.321 263.994 578.312C262.889 569.742 260.676 564.703 259.347 561.677L259.103 561.12C259.068 561.041 259.014 560.969 258.939 560.914C258.713 560.746 258.392 560.793 258.224 561.019L257.138 562.479C257.069 562.558 257.026 562.658 257.016 562.77L257.002 562.951C256.82 564.862 255.951 566.307 254.577 567.229C253.171 568.172 251.224 568.588 248.926 568.423L248.729 568.406L248.58 568.305C248.915 561.511 249.857 556.065 241.195 555.054C226.502 554.286 218.21 552.198 218.32 565.714C218.217 565.78 218.12 565.845 218.031 565.909C216.205 567.117 214.228 568.384 212.186 569.693C196.64 579.654 177.185 592.12 178.924 608.457L178.921 608.516C178.922 608.487 178.919 608.459 178.922 608.428V608.43ZM212.74 570.555C197.415 580.375 178.233 592.666 179.947 608.398V608.499C179.891 609.095 180.122 609.709 180.601 610.323C181.835 611.905 184.603 613.427 188.353 614.682C192.159 615.957 196.948 616.943 202.148 617.432C214.533 618.594 229.24 616.935 238.594 609.644C244.601 604.962 249.382 601.917 253.094 599.556C261.041 594.499 263.97 592.633 263.502 584.17C262.852 572.428 260.119 565.977 258.521 562.337L258.025 563.001L258.02 563.045C257.808 565.286 256.778 566.985 255.146 568.081C253.549 569.152 251.383 569.628 248.858 569.447L248.514 569.417C248.427 569.41 248.339 569.382 248.262 569.328C243.747 566.205 238.539 564.787 233.721 564.375C226.763 563.781 220.662 565.266 218.632 566.742L218.613 566.754C216.745 567.991 214.777 569.253 212.738 570.558L212.74 570.555Z" fill="#868CB5"/>
<path id="Vector_114" fill-rule="evenodd" clip-rule="evenodd" d="M212.739 570.553C197.413 580.374 178.231 592.665 179.945 608.397V608.497C179.89 609.093 180.121 609.707 180.6 610.322C181.833 611.903 184.602 613.425 188.351 614.68C192.157 615.956 196.946 616.942 202.147 617.43C214.531 618.592 229.239 616.933 238.592 609.642C244.6 604.96 249.38 601.916 253.093 599.554C261.04 594.497 263.969 592.631 263.5 584.168C262.851 572.426 260.118 565.976 258.519 562.335L258.024 563L258.019 563.043C257.806 565.284 256.777 566.983 255.145 568.08C253.548 569.151 251.382 569.626 248.856 569.445L248.513 569.415C248.426 569.409 248.337 569.38 248.26 569.326C243.746 566.203 238.537 564.785 233.72 564.374C226.762 563.779 220.661 565.264 218.63 566.74L218.612 566.752C216.744 567.989 214.776 569.251 212.737 570.557L212.739 570.553Z" fill="#E5EEFF"/>
<path id="Vector_115" fill-rule="evenodd" clip-rule="evenodd" d="M256.2 597.549C258.892 585.772 257.126 572.31 261.031 569.041C262.131 572.727 263.138 577.626 263.5 584.167C263.901 591.42 261.807 593.827 256.2 597.549Z" fill="#C5D2EB"/>
<path id="Vector_116" d="M219.031 586.008L215.102 589.809C214.9 590.007 214.577 590.002 214.379 589.799C214.182 589.597 214.187 589.273 214.389 589.076L218.048 585.536C217.702 585.28 217.454 584.955 217.354 584.585C217.168 583.911 217.516 583.246 218.194 582.797C217.779 582.332 217.265 581.899 216.681 581.504C215.216 580.514 213.338 579.793 211.438 579.431C209.552 579.073 207.666 579.07 206.164 579.512C205.911 579.587 205.669 579.674 205.441 579.775C205.625 579.934 205.759 580.114 205.826 580.312C206.117 581.159 205.093 581.984 203.54 582.155C202.932 582.222 202.333 582.178 201.811 582.051C199.784 583.546 197.936 584.992 196.289 586.43C196.076 586.615 195.753 586.594 195.569 586.381C195.383 586.169 195.405 585.846 195.617 585.661C197.159 584.316 198.868 582.967 200.728 581.582C200.47 581.398 200.284 581.177 200.2 580.933C199.909 580.086 200.933 579.261 202.487 579.09C202.604 579.077 202.723 579.068 202.838 579.063C203.568 578.36 204.51 577.86 205.585 577.543C205.965 577.431 206.363 577.342 206.775 577.276C207.994 576.434 209.254 575.57 210.558 574.679C210.324 574.502 210.155 574.294 210.076 574.064C209.785 573.217 210.809 572.391 212.362 572.221C212.551 572.201 212.739 572.191 212.925 572.189C213.768 571.586 214.809 571.19 215.968 570.967C216.985 570.264 218.023 569.541 219.083 568.794C219.314 568.632 219.633 568.687 219.796 568.918C219.958 569.149 219.903 569.469 219.672 569.631C219.135 570.01 218.601 570.383 218.07 570.753C219.816 570.713 221.692 570.969 223.448 571.446C225.858 572.1 228.083 573.183 229.479 574.49C229.778 574.772 230.043 575.064 230.265 575.369C231.524 575.424 232.612 576.049 232.855 576.936C233.146 577.995 232.122 579.03 230.568 579.244C229.015 579.458 227.52 578.772 227.229 577.712C227.047 577.05 227.378 576.397 228.033 575.95C226.886 574.895 224.996 573.998 222.909 573.431C220.775 572.852 218.475 572.627 216.579 572.94C216.222 572.999 215.882 573.076 215.563 573.173C215.623 573.258 215.668 573.349 215.702 573.441C215.993 574.288 214.968 575.113 213.415 575.284C212.792 575.352 212.178 575.305 211.648 575.17L211.566 575.227C210.623 575.871 209.701 576.501 208.802 577.118C209.786 577.118 210.804 577.22 211.815 577.413C213.984 577.825 216.137 578.656 217.829 579.798C218.862 580.496 219.735 581.316 220.355 582.238C221.629 582.284 222.733 582.911 222.979 583.807C223.271 584.866 222.246 585.901 220.693 586.115C220.11 586.195 219.536 586.148 219.031 586.005V586.008ZM227.782 611.452C228.053 611.371 228.337 611.527 228.416 611.798C228.496 612.069 228.341 612.354 228.069 612.432C220.934 614.553 212.063 615.472 203.864 615.114C197.939 614.856 192.354 613.929 188.018 612.307C183.586 610.648 180.434 608.25 179.49 605.073C179.269 604.326 179.169 603.538 179.206 602.708C179.217 602.426 179.457 602.207 179.738 602.219C180.019 602.23 180.238 602.47 180.227 602.751C180.195 603.464 180.28 604.142 180.471 604.783C181.313 607.618 184.239 609.803 188.373 611.349C192.605 612.933 198.081 613.838 203.906 614.093C211.996 614.446 220.746 613.54 227.778 611.452H227.782ZM263.081 582.597C263.131 582.874 262.948 583.141 262.671 583.191C262.393 583.241 262.127 583.059 262.076 582.781C261.73 580.891 261.216 579.791 260.632 579.365C260.346 579.155 260.028 579.142 259.701 579.303C259.281 579.51 258.836 579.972 258.397 580.657C256.832 583.102 255.548 588.1 255.758 594.394C255.833 596.663 248.828 600.948 242.546 604.791C239.418 606.705 236.474 608.506 234.733 609.833C234.509 610.004 234.187 609.962 234.016 609.738C233.846 609.513 233.888 609.192 234.112 609.021C235.893 607.662 238.862 605.846 242.014 603.919C248.056 600.224 254.794 596.103 254.737 594.427C254.519 587.914 255.88 582.692 257.535 580.106C258.073 579.266 258.657 578.68 259.248 578.387C259.932 578.049 260.612 578.084 261.234 578.541C262.019 579.117 262.681 580.429 263.079 582.598L263.081 582.597ZM252.499 590.109C252.48 589.828 252.693 589.583 252.974 589.565C253.255 589.546 253.5 589.759 253.518 590.04L253.818 594.389C253.836 594.67 253.624 594.914 253.342 594.933C253.061 594.951 252.817 594.738 252.798 594.457L252.499 590.109ZM250.336 591.826C250.318 591.545 250.53 591.3 250.812 591.282C251.093 591.264 251.337 591.476 251.356 591.757L251.655 596.106C251.674 596.387 251.461 596.632 251.18 596.65C250.899 596.668 250.654 596.456 250.636 596.175L250.336 591.826Z" fill="#868CB5"/>
</g>
<path id="Vector_117" fill-rule="evenodd" clip-rule="evenodd" d="M213.783 543.707C214.243 552.9 267.442 556.599 267.507 551.628L272.44 425.194L344.965 425.231C364.481 424.744 379.895 408.489 379.395 388.973L378.955 360.73L253.335 361.238C225.302 362.605 215.644 380.297 212.994 397.446C208.304 427.802 212.027 508.565 213.781 543.705L213.783 543.707Z" stroke="#2B0087" stroke-width="2.04875" stroke-miterlimit="22.9256" stroke-linecap="round" stroke-linejoin="round"/>
</g>
<path id="Vector_118" fill-rule="evenodd" clip-rule="evenodd" d="M236.636 353.264C236.726 355.741 239.801 359.216 242.094 360.789L281.663 360.664L334.311 361.301L356.925 364.274L379.543 373.284C386.508 371.267 384.63 361.611 382.166 353.265H236.636V353.264Z" fill="#2B0087"/>
<path id="Vector_119" d="M82.6054 352.868L26.8154 607.184" stroke="#F2C88C" stroke-width="13.6634" stroke-miterlimit="22.9256" stroke-linecap="round" stroke-linejoin="round"/>
<path id="Vector_120" d="M100.571 352.868L156.361 607.184" stroke="#F2C88C" stroke-width="13.6634" stroke-miterlimit="22.9256" stroke-linecap="round" stroke-linejoin="round"/>
<path id="Vector_121" d="M449.684 352.868L505.474 607.184" stroke="#F2C88C" stroke-width="13.6634" stroke-miterlimit="22.9256" stroke-linecap="round" stroke-linejoin="round"/>
<path id="Vector_122" d="M431.718 352.868L375.928 607.184" stroke="#F2C88C" stroke-width="13.6634" stroke-miterlimit="22.9256" stroke-linecap="round" stroke-linejoin="round"/>
</g>
</g>
</g>
<defs>
<linearGradient id="paint0_linear_1318_8381" x1="385.305" y1="85.1493" x2="411.424" y2="110.631" gradientUnits="userSpaceOnUse">
<stop stop-color="#6934DD"/>
<stop offset="1" stop-color="#FF0431"/>
</linearGradient>
<linearGradient id="paint1_linear_1318_8381" x1="349.324" y1="69.3286" x2="455.336" y2="172.6" gradientUnits="userSpaceOnUse">
<stop stop-color="#6934DD"/>
<stop offset="1" stop-color="#FF0431"/>
</linearGradient>
<linearGradient id="paint2_linear_1318_8381" x1="326.122" y1="72.064" x2="473.1" y2="213.591" gradientUnits="userSpaceOnUse">
<stop stop-color="#6934DD"/>
<stop offset="1" stop-color="#FF0431"/>
</linearGradient>
<linearGradient id="paint3_linear_1318_8381" x1="302.913" y1="82.8722" x2="478.377" y2="251.236" gradientUnits="userSpaceOnUse">
<stop stop-color="#6934DD"/>
<stop offset="1" stop-color="#FF0431"/>
</linearGradient>
<linearGradient id="paint4_linear_1318_8381" x1="275.806" y1="96.1144" x2="478.51" y2="290.764" gradientUnits="userSpaceOnUse">
<stop stop-color="#6934DD"/>
<stop offset="1" stop-color="#FF0431"/>
</linearGradient>
<linearGradient id="paint5_linear_1318_8381" x1="221.521" y1="103.964" x2="477.143" y2="350.523" gradientUnits="userSpaceOnUse">
<stop stop-color="#6934DD"/>
<stop offset="1" stop-color="#FF0431"/>
</linearGradient>
<linearGradient id="paint6_linear_1318_8381" x1="170.177" y1="111.339" x2="477.677" y2="408.604" gradientUnits="userSpaceOnUse">
<stop stop-color="#6934DD"/>
<stop offset="1" stop-color="#FF0431"/>
</linearGradient>
<linearGradient id="paint7_linear_1318_8381" x1="148.733" y1="124.184" x2="480.604" y2="445.323" gradientUnits="userSpaceOnUse">
<stop stop-color="#6934DD"/>
<stop offset="1" stop-color="#FF0431"/>
</linearGradient>
<linearGradient id="paint8_linear_1318_8381" x1="138.72" y1="138.98" x2="484.815" y2="474.059" gradientUnits="userSpaceOnUse">
<stop stop-color="#6934DD"/>
<stop offset="1" stop-color="#FF0431"/>
</linearGradient>
<linearGradient id="paint9_linear_1318_8381" x1="134" y1="154.649" x2="489.487" y2="498.953" gradientUnits="userSpaceOnUse">
<stop stop-color="#6934DD"/>
<stop offset="1" stop-color="#FF0431"/>
</linearGradient>
<linearGradient id="paint10_linear_1318_8381" x1="131.9" y1="170.883" x2="494.023" y2="521.921" gradientUnits="userSpaceOnUse">
<stop stop-color="#6934DD"/>
<stop offset="1" stop-color="#FF0431"/>
</linearGradient>
<linearGradient id="paint11_linear_1318_8381" x1="131.552" y1="187.72" x2="498.326" y2="543.407" gradientUnits="userSpaceOnUse">
<stop stop-color="#6934DD"/>
<stop offset="1" stop-color="#FF0431"/>
</linearGradient>
<linearGradient id="paint12_linear_1318_8381" x1="132.182" y1="205.233" x2="501.963" y2="563.851" gradientUnits="userSpaceOnUse">
<stop stop-color="#6934DD"/>
<stop offset="1" stop-color="#FF0431"/>
</linearGradient>
<linearGradient id="paint13_linear_1318_8381" x1="133.197" y1="223.481" x2="504.584" y2="583.519" gradientUnits="userSpaceOnUse">
<stop stop-color="#6934DD"/>
<stop offset="1" stop-color="#FF0431"/>
</linearGradient>
<linearGradient id="paint14_linear_1318_8381" x1="134.28" y1="242.393" x2="506.136" y2="602.873" gradientUnits="userSpaceOnUse">
<stop stop-color="#6934DD"/>
<stop offset="1" stop-color="#FF0431"/>
</linearGradient>
<linearGradient id="paint15_linear_1318_8381" x1="135.554" y1="261.897" x2="506.8" y2="621.761" gradientUnits="userSpaceOnUse">
<stop stop-color="#6934DD"/>
<stop offset="1" stop-color="#FF0431"/>
</linearGradient>
<linearGradient id="paint16_linear_1318_8381" x1="137.275" y1="282.213" x2="506.27" y2="639.854" gradientUnits="userSpaceOnUse">
<stop stop-color="#6934DD"/>
<stop offset="1" stop-color="#FF0431"/>
</linearGradient>
<linearGradient id="paint17_linear_1318_8381" x1="139.665" y1="303.507" x2="504.306" y2="656.907" gradientUnits="userSpaceOnUse">
<stop stop-color="#6934DD"/>
<stop offset="1" stop-color="#FF0431"/>
</linearGradient>
<linearGradient id="paint18_linear_1318_8381" x1="143.17" y1="326.099" x2="500.675" y2="672.462" gradientUnits="userSpaceOnUse">
<stop stop-color="#6934DD"/>
<stop offset="1" stop-color="#FF0431"/>
</linearGradient>
<linearGradient id="paint19_linear_1318_8381" x1="147.921" y1="350.388" x2="494.787" y2="686.545" gradientUnits="userSpaceOnUse">
<stop stop-color="#6934DD"/>
<stop offset="1" stop-color="#FF0431"/>
</linearGradient>
<linearGradient id="paint20_linear_1318_8381" x1="154.375" y1="376.97" x2="485.674" y2="698.347" gradientUnits="userSpaceOnUse">
<stop stop-color="#6934DD"/>
<stop offset="1" stop-color="#FF0431"/>
</linearGradient>
<linearGradient id="paint21_linear_1318_8381" x1="162.907" y1="406.985" x2="471.729" y2="706.891" gradientUnits="userSpaceOnUse">
<stop stop-color="#6934DD"/>
<stop offset="1" stop-color="#FF0431"/>
</linearGradient>
<linearGradient id="paint22_linear_1318_8381" x1="174.123" y1="442.517" x2="449.672" y2="710.722" gradientUnits="userSpaceOnUse">
<stop stop-color="#6934DD"/>
<stop offset="1" stop-color="#FF0431"/>
</linearGradient>
<linearGradient id="paint23_linear_1318_8381" x1="188.863" y1="488.21" x2="412.317" y2="706.274" gradientUnits="userSpaceOnUse">
<stop stop-color="#6934DD"/>
<stop offset="1" stop-color="#FF0431"/>
</linearGradient>
<linearGradient id="paint24_linear_1318_8381" x1="208.594" y1="563.472" x2="329.56" y2="681.511" gradientUnits="userSpaceOnUse">
<stop stop-color="#6934DD"/>
<stop offset="1" stop-color="#FF0431"/>
</linearGradient>
<clipPath id="clip0_1318_8381">
<rect width="580.439" height="732.091" fill="white" transform="translate(-0.180176 0.259766)"/>
</clipPath>
<clipPath id="clip1_1318_8381">
<rect width="492.323" height="539.303" fill="white" transform="translate(19.9829 87.2012)"/>
</clipPath>
</defs>
</svg>
