<svg width="617" height="758" viewBox="0 0 617 758" fill="none" xmlns="http://www.w3.org/2000/svg">
<g clip-path="url(#clip0_2060_7550)">
<g opacity="0.2">
<path opacity="0.55" d="M393.085 140.763L430.335 127.329C417.28 130.126 404.748 134.646 393.085 140.763Z" fill="url(#paint0_linear_2060_7550)"/>
<path opacity="0.55" d="M477.725 128.683L338.247 178.959C336.069 180.819 333.905 182.711 331.757 184.634L482.766 130.194C481.167 129.658 479.493 129.15 477.725 128.683Z" fill="url(#paint1_linear_2060_7550)"/>
<path opacity="0.55" d="M500.559 142.283L300.252 214.449L295.068 219.577L502.575 144.781C501.933 144.01 501.266 143.135 500.559 142.283Z" fill="url(#paint2_linear_2060_7550)"/>
<path opacity="0.55" d="M508.288 161.454L266.87 248.466L261.766 253.615L508.831 164.554C508.661 163.519 508.477 162.479 508.288 161.454Z" fill="url(#paint3_linear_2060_7550)"/>
<path opacity="0.55" d="M509.933 182.91L231.02 283.44C228.803 285.41 226.636 287.317 224.518 289.162L510.106 186.205C510.062 185.072 509.992 183.981 509.933 182.91Z" fill="url(#paint4_linear_2060_7550)"/>
<path opacity="0.55" d="M511.2 204.89L165.287 329.555C160.327 332.468 155.356 335.373 150.377 338.27L511.728 208.051C511.495 206.999 511.333 205.933 511.2 204.89Z" fill="url(#paint5_linear_2060_7550)"/>
<path opacity="0.55" d="M514.498 226.082L86.9509 380.196C84.5062 382.127 82.1072 384.103 79.7537 386.124L515.199 229.159C514.959 228.137 514.719 227.115 514.498 226.082Z" fill="url(#paint6_linear_2060_7550)"/>
<path opacity="0.55" d="M519.044 246.378L52.7914 414.401C51.6769 415.893 50.5784 417.39 49.5239 418.914L519.832 249.38C519.6 248.393 519.32 247.393 519.044 246.378Z" fill="url(#paint7_linear_2060_7550)"/>
<path opacity="0.55" d="M524.353 266.232L36.2638 442.162C35.7026 443.475 35.161 444.778 34.6353 446.085L525.295 269.227L524.353 266.232Z" fill="url(#paint8_linear_2060_7550)"/>
<path opacity="0.55" d="M530.038 285.863L27.7737 466.914C27.4807 468.104 27.1838 469.309 26.9826 470.539L530.997 288.861C530.665 287.864 530.35 286.871 530.038 285.863Z" fill="url(#paint9_linear_2060_7550)"/>
<path opacity="0.55" d="M535.665 305.488L23.5924 490.068C23.4775 491.224 23.3663 492.364 23.2673 493.523L536.572 308.489L535.665 305.488Z" fill="url(#paint10_linear_2060_7550)"/>
<path opacity="0.55" d="M540.83 325.246L21.9046 512.303C21.8843 513.418 21.88 514.538 21.8756 515.657L541.638 328.302L540.83 325.246Z" fill="url(#paint11_linear_2060_7550)"/>
<path opacity="0.55" d="M545.135 345.322L21.7549 533.996C21.8097 535.083 21.8447 536.18 21.8957 537.282L545.773 348.447C545.556 347.399 545.336 346.366 545.135 345.322Z" fill="url(#paint12_linear_2060_7550)"/>
<path opacity="0.55" d="M548.165 365.83L22.4336 555.362L22.6382 558.665L548.568 369.088C548.449 367.984 548.288 366.918 548.165 365.83Z" fill="url(#paint13_linear_2060_7550)"/>
<path opacity="0.55" d="M550.062 386.81L23.4801 576.621L23.7513 579.86L550.289 390.021L550.062 386.81Z" fill="url(#paint14_linear_2060_7550)"/>
<path opacity="0.55" d="M550.868 408.157L25.0286 597.71L25.4142 600.898L550.934 411.472C550.919 410.363 550.903 409.255 550.868 408.157Z" fill="url(#paint15_linear_2060_7550)"/>
<path opacity="0.55" d="M550.333 429.999L27.5131 618.45C27.6944 619.505 27.8796 620.544 28.0806 621.588L550.177 433.385C550.233 432.263 550.293 431.126 550.333 429.999Z" fill="url(#paint16_linear_2060_7550)"/>
<path opacity="0.55" d="M548.199 452.413L31.2905 638.706L32.1026 641.746L547.747 455.899C547.898 454.737 548.064 453.579 548.199 452.413Z" fill="url(#paint17_linear_2060_7550)"/>
<path opacity="0.55" d="M544.04 475.542L37.035 658.345C37.4057 659.32 37.7961 660.284 38.1865 661.248L543.245 479.181C543.526 477.972 543.787 476.775 544.04 475.542Z" fill="url(#paint18_linear_2060_7550)"/>
<path opacity="0.55" d="M537.24 499.666L45.0978 677.12C45.6148 678.052 46.1401 679.019 46.6918 679.88L535.95 503.452C536.394 502.204 536.825 500.937 537.24 499.666Z" fill="url(#paint19_linear_2060_7550)"/>
<path opacity="0.55" d="M526.738 525.107L56.3541 694.66L58.5089 697.211L524.739 529.159C525.427 527.814 526.162 526.482 526.738 525.107Z" fill="url(#paint20_linear_2060_7550)"/>
<path opacity="0.55" d="M510.594 552.598L71.7504 710.777C72.7136 711.551 73.6967 712.314 74.6834 713.062L507.461 557.049C508.52 555.575 509.579 554.1 510.594 552.598Z" fill="url(#paint21_linear_2060_7550)"/>
<path opacity="0.55" d="M485.213 583.514L92.9837 724.813C94.3182 725.457 95.6565 726.087 97.0182 726.69L480.125 588.667C481.866 586.902 483.561 585.19 485.213 583.514Z" fill="url(#paint22_linear_2060_7550)"/>
<path opacity="0.55" d="M441.917 620.852L123.187 735.741C125.165 736.182 127.139 736.574 129.137 736.939L432.316 627.655C435.547 625.422 438.747 623.155 441.917 620.852Z" fill="url(#paint23_linear_2060_7550)"/>
<path opacity="0.55" d="M345.299 677.848L172.764 740.048C177.033 739.757 181.277 739.335 185.498 738.783L319.16 690.611C327.849 686.431 336.562 682.177 345.299 677.848Z" fill="url(#paint24_linear_2060_7550)"/>
</g>
<g clip-path="url(#clip1_2060_7550)">
<path fill-rule="evenodd" clip-rule="evenodd" d="M367.474 376.095L374.747 372.869L409.987 451.998C407.561 453.287 405.217 454.575 402.992 455.847L367.474 376.095H367.474Z" fill="#C5D2EB"/>
<path fill-rule="evenodd" clip-rule="evenodd" d="M370.25 374.852L371.9 374.138L407.295 453.444C406.762 453.734 406.237 454.024 405.714 454.313L370.25 374.852Z" fill="white"/>
<path fill-rule="evenodd" clip-rule="evenodd" d="M412.991 355.765L420.264 352.539L455.639 431.972C453.211 432.802 450.701 433.71 448.137 434.682L412.991 355.764V355.765Z" fill="#C5D2EB"/>
<path fill-rule="evenodd" clip-rule="evenodd" d="M415.77 354.527L417.419 353.812L452.754 432.984C452.192 433.185 451.628 433.389 451.059 433.596L415.77 354.527V354.527Z" fill="white"/>
<path fill-rule="evenodd" clip-rule="evenodd" d="M487.323 694.427C489.618 699.59 487.151 705.698 481.813 708.072C476.474 710.445 470.286 708.185 467.991 703.023L464.808 695.866C469.914 696.342 476.304 695.212 482.68 692.377C483.737 691.907 484.76 691.405 485.744 690.877L487.322 694.427L487.323 694.427Z" fill="black"/>
<path fill-rule="evenodd" clip-rule="evenodd" d="M592.455 647.685C594.75 652.847 592.283 658.956 586.945 661.33C581.606 663.703 575.418 661.443 573.123 656.281L571.417 652.446C573.369 651.891 575.358 651.173 577.347 650.289C582.451 648.019 586.75 645.011 589.835 641.792L592.455 647.685H592.455Z" fill="black"/>
<path fill-rule="evenodd" clip-rule="evenodd" d="M454.265 687.971C454.34 688.779 454.538 689.558 454.867 690.297C457.829 696.959 470.281 697.891 482.679 692.378C490.22 689.025 496.004 684.059 498.712 679.185C486.099 683.33 475.931 685.397 472.046 683.675C465.263 685.701 459.22 687.184 454.265 687.971V687.971Z" fill="#FFB700"/>
<path fill-rule="evenodd" clip-rule="evenodd" d="M557.029 653.401C562.446 654.581 569.905 653.595 577.346 650.287C589.743 644.774 597.393 634.905 594.431 628.242C594.153 627.618 593.792 627.045 593.356 626.521C589.61 629.433 584.875 632.611 579.398 635.944C578.028 640.117 569.163 646.563 557.029 653.401Z" fill="#FFB700"/>
<path fill-rule="evenodd" clip-rule="evenodd" d="M361.916 491.287C358.143 510.782 429.063 690.743 451.186 688.384C482.85 685.007 573.15 644.858 596.868 623.61C613.44 608.764 527.331 435.556 510.33 425.299C494.765 415.909 365.371 473.441 361.916 491.287V491.287Z" fill="#FFCC00"/>
<path fill-rule="evenodd" clip-rule="evenodd" d="M466.84 685.156C499.869 676.195 555.251 651.57 584.022 633.052C587.889 621.86 497.7 440.868 492.011 432.801C490.307 430.385 487.165 429.037 482.99 428.564C453.825 437.112 409.463 456.804 383.295 472.789C380.449 476.428 379.106 479.81 379.793 482.696C382.457 493.88 455.948 680.554 466.84 685.156Z" fill="#FFB700"/>
<path fill-rule="evenodd" clip-rule="evenodd" d="M381.422 473.852C382.706 485.762 461.809 679.104 472.034 683.671C485.493 689.682 574.85 649.951 579.403 635.932C582.862 625.281 491.171 435.771 484.317 428.102C475.205 417.907 380.138 461.942 381.422 473.852V473.852Z" fill="#FFD30F"/>
<path fill-rule="evenodd" clip-rule="evenodd" d="M391.224 475.072C398.694 472.128 471.425 439.79 478.615 436.216C492.049 429.537 472.772 428.335 430.991 446.926C389.165 465.537 377.441 480.503 391.224 475.072H391.224Z" fill="white"/>
<path fill-rule="evenodd" clip-rule="evenodd" d="M364.723 377.272L422.881 351.397C424.017 350.891 424.533 349.548 424.028 348.412L421.352 342.39C419.376 337.941 414.121 335.921 409.674 337.9L363.556 358.418C359.109 360.396 357.087 365.654 359.064 370.102L361.74 376.124C362.244 377.261 363.586 377.777 364.723 377.272V377.272Z" fill="#FFD30F"/>
<path fill-rule="evenodd" clip-rule="evenodd" d="M365.258 362.877C369.206 361.236 407.964 344.014 411.827 342.183C419.047 338.761 409.608 339.997 387.342 349.895C365.052 359.804 357.972 365.903 365.258 362.877Z" fill="white"/>
<path fill-rule="evenodd" clip-rule="evenodd" d="M211.668 642.091L211.717 647.428C216.311 651.084 217.237 656.939 217.405 658.488C220.491 659.388 242.884 665.7 247.765 660.778C248.088 660.263 248.757 659.942 249.515 659.872L247.928 642.335C238.289 643.657 222.619 643.295 211.667 642.091L211.668 642.091Z" fill="#DAD9FF"/>
<path fill-rule="evenodd" clip-rule="evenodd" d="M248.416 697.332C248.416 697.332 252.917 685.045 252.365 664.423C253.665 660.166 248.943 659.712 248.2 661.119C242.815 666.72 216.89 658.908 216.89 658.908C216.89 658.908 204.365 656.613 198.049 655.676C173.659 651.962 140.147 662.509 142.172 687.067L248.416 697.332L248.416 697.332Z" fill="#E5EEFF"/>
<path fill-rule="evenodd" clip-rule="evenodd" d="M227.127 695.071C233.451 693.376 236.438 672.266 252.186 675.452L252.185 675.482C252.113 676.347 252.054 677.217 251.996 678.096C250.972 690.356 248.417 697.332 248.417 697.332L227.127 695.071Z" fill="#C5D2EB"/>
<path fill-rule="evenodd" clip-rule="evenodd" d="M241.982 708.758L142.988 698.244C141.083 698.042 140.619 696.371 140.612 693.932C140.603 690.424 139.938 685.601 144.259 686.271C179.464 691.725 214.063 694.977 248.417 697.333L247.781 703.32C247.431 706.612 244.822 709.059 241.982 708.758V708.758Z" fill="#868CB5"/>
<path d="M247.07 682.723C248.22 676.896 232.226 670.889 229.808 690.327C222.4 693.438 188.257 688.376 188.257 688.376" stroke="#868CB5" stroke-width="1.10156" stroke-miterlimit="22.9256" stroke-linecap="round" stroke-linejoin="round"/>
<path d="M248.037 696.748C248.782 694.5 252.311 682.824 251.819 664.436C251.817 664.373 251.826 664.313 251.844 664.257C252.214 663.039 252.03 662.212 251.598 661.699C251.389 661.45 251.116 661.267 250.82 661.144C250.512 661.017 250.18 660.955 249.865 660.952C249.312 660.945 248.834 661.099 248.689 661.375C248.655 661.439 248.61 661.494 248.557 661.538C242.858 667.307 216.81 659.457 216.735 659.435C216.499 659.365 216.346 659.151 216.342 658.917C216.299 658.263 215.139 643.597 199.017 645.717C198.254 646.683 198.381 648.545 198.533 650.758C198.637 652.287 198.753 653.975 198.598 655.723C198.572 656.024 198.305 656.248 198.004 656.222L197.97 656.218C192.975 655.459 187.592 655.302 182.213 655.745C172.929 656.511 163.664 659.064 156.429 663.392C149.254 667.686 144.08 673.728 142.896 681.5C142.65 683.114 142.576 684.804 142.69 686.57C148.85 687.236 155.021 687.925 161.192 688.613C173.957 690.038 186.724 691.462 198.474 692.597C210.203 693.73 221.128 694.595 232.054 695.459C237.363 695.879 242.673 696.299 248.037 696.747V696.748ZM252.918 664.497C253.451 684.909 249.064 697.165 248.94 697.508C248.861 697.742 248.631 697.901 248.373 697.881C242.79 697.413 237.378 696.985 231.968 696.557C221.12 695.699 210.272 694.84 198.371 693.691C186.495 692.543 173.783 691.125 161.072 689.707C154.692 688.995 148.31 688.283 142.148 687.617C141.876 687.604 141.649 687.391 141.627 687.113C141.461 685.097 141.528 683.171 141.808 681.337C143.046 673.204 148.42 666.906 155.866 662.451C163.252 658.032 172.686 655.428 182.123 654.649C187.376 654.216 192.635 654.348 197.547 655.046C197.625 653.594 197.527 652.153 197.437 650.832C197.26 648.254 197.114 646.104 198.336 644.83C198.42 644.738 198.535 644.673 198.668 644.655C214.913 642.395 217.137 656 217.407 658.487C220.493 659.387 242.887 665.699 247.768 660.777C248.141 660.18 248.977 659.845 249.88 659.856C250.328 659.861 250.799 659.949 251.238 660.13C251.687 660.316 252.107 660.6 252.439 660.994C253.08 661.757 253.382 662.904 252.918 664.498L252.918 664.497Z" fill="#868CB5"/>
<path d="M227.748 684.032L227.302 688.652" stroke="#868CB5" stroke-width="1.10156" stroke-miterlimit="22.9256" stroke-linecap="round" stroke-linejoin="round"/>
<path d="M225.699 683.814L225.253 688.434" stroke="#868CB5" stroke-width="1.10156" stroke-miterlimit="22.9256" stroke-linecap="round" stroke-linejoin="round"/>
<path fill-rule="evenodd" clip-rule="evenodd" d="M208.862 645.691C212.188 647.553 215.512 651.342 217.414 658.746C217.443 658.838 217.448 658.939 217.424 659.039C217.352 659.333 217.055 659.514 216.761 659.443C211.939 658.277 206.946 657.546 202.08 656.834C200.675 656.628 199.277 656.424 197.967 656.222C197.93 656.215 197.892 656.206 197.855 656.192C197.572 656.085 197.428 655.768 197.535 655.484C197.996 654.272 197.926 652.063 197.861 649.991C197.794 647.866 197.731 645.876 198.26 644.931C198.328 644.814 198.737 644.563 199.337 644.41C200.148 644.203 201.542 643.97 203.225 644.065C204.909 644.161 206.885 644.585 208.862 645.691V645.691Z" fill="#868CB5"/>
<path d="M178.062 687.335L142.13 683.52" stroke="#868CB5" stroke-width="1.10156" stroke-miterlimit="22.9256" stroke-linecap="round" stroke-linejoin="round"/>
<path d="M179.476 660.476L174.213 661.15C173.565 661.234 173.413 660.384 174.06 660.3L178.962 659.672C178.832 659.327 178.818 658.985 178.946 658.682C179.179 658.13 179.829 657.846 180.62 657.872C181.498 658.006 181.822 658.222 182.651 658.55C183.637 659.205 184.16 660.176 183.85 660.909C183.483 661.777 182.088 661.981 180.733 661.366C180.226 661.136 179.796 660.823 179.476 660.476V660.476ZM194.393 658.712C195.361 659.366 195.872 660.326 195.565 661.052C195.198 661.92 193.803 662.125 192.448 661.509C191.094 660.895 190.294 659.693 190.66 658.825C190.89 658.283 191.521 658 192.293 658.014C193.082 658.086 193.852 658.469 194.393 658.711V658.712Z" fill="#868CB5"/>
<path d="M181.632 659.307C181.632 659.307 182.178 648.748 180.57 654.731" stroke="#868CB5" stroke-width="2.2028" stroke-miterlimit="22.9256" stroke-linecap="round" stroke-linejoin="round"/>
<path d="M193.489 658.866C193.489 658.866 194.035 648.307 192.427 654.291" stroke="#868CB5" stroke-width="2.2028" stroke-miterlimit="22.9256" stroke-linecap="round" stroke-linejoin="round"/>
<path fill-rule="evenodd" clip-rule="evenodd" d="M335.16 592.977L338.016 597.011C343.879 597.395 347.98 601.685 348.996 602.855C352.039 601.837 374.033 594.253 375.243 587.429C375.211 586.821 375.578 586.174 376.163 585.681L365.272 572.673C357.874 580.006 344.133 589.833 335.16 592.977H335.16Z" fill="#DAD9FF"/>
<path fill-rule="evenodd" clip-rule="evenodd" d="M396.623 617.084C396.623 617.084 393.315 604.423 381.102 587.797C379.742 583.558 375.605 585.877 375.797 587.457C374.567 595.13 348.815 603.494 348.815 603.494C348.815 603.494 337.217 608.75 331.494 611.582C309.339 622.437 287.823 650.211 303.49 669.231L396.622 617.084H396.623Z" fill="#E5EEFF"/>
<path fill-rule="evenodd" clip-rule="evenodd" d="M377.842 627.369C382.071 622.371 372.488 603.325 387.242 596.963L387.258 596.988C387.692 597.74 388.139 598.487 388.593 599.243C394.743 609.899 396.622 617.087 396.622 617.087L377.842 627.369V627.369Z" fill="#C5D2EB"/>
<path fill-rule="evenodd" clip-rule="evenodd" d="M397.85 630.139L310.532 677.949C308.851 678.868 307.517 677.761 306.121 675.76C304.113 672.884 300.818 669.301 304.749 667.387C336.78 651.794 367.057 634.737 396.623 617.084L399.514 622.365C401.104 625.269 400.356 628.767 397.851 630.139L397.85 630.139Z" fill="#868CB5"/>
<path d="M387.689 605.631C387.81 605.909 387.683 606.232 387.405 606.354C387.127 606.475 386.803 606.348 386.682 606.07C386.071 604.673 384.307 604.021 382.346 604.195C381.331 604.284 380.268 604.596 379.281 605.14C378.295 605.683 377.385 606.46 376.677 607.479C374.728 610.279 374.282 614.929 377.826 621.686C377.919 621.866 377.904 622.074 377.803 622.234C373.411 629.143 342.425 644.478 342.336 644.522C342.064 644.656 341.734 644.544 341.6 644.272C341.466 644 341.578 643.671 341.85 643.537C341.937 643.493 371.88 628.674 376.701 621.899C373.094 614.858 373.649 609.904 375.773 606.851C376.584 605.685 377.625 604.797 378.751 604.176C379.876 603.555 381.091 603.2 382.251 603.098C384.666 602.885 386.874 603.767 387.688 605.631L387.689 605.631Z" fill="#868CB5"/>
<path d="M395.976 616.825C395.31 614.561 391.554 602.958 380.658 588.123C380.618 588.069 380.59 588.01 380.572 587.948C380.182 586.746 379.562 586.176 378.917 586.001C378.601 585.916 378.272 585.921 377.958 585.99C377.634 586.06 377.328 586.199 377.067 586.375C376.609 586.684 376.305 587.085 376.342 587.395C376.351 587.47 376.344 587.544 376.324 587.614C374.904 595.602 349.058 603.994 348.984 604.018C348.752 604.094 348.506 604.007 348.37 603.82C347.955 603.301 338.639 591.921 326.607 602.852C326.533 604.084 327.698 605.54 329.083 607.27C330.045 608.472 331.108 609.799 331.971 611.313C332.12 611.576 332.028 611.912 331.764 612.061L331.71 612.088C327.182 614.309 322.679 617.245 318.519 620.671C311.332 626.591 305.177 633.972 301.701 641.656C298.254 649.276 297.447 657.191 300.906 664.25C301.624 665.715 302.526 667.146 303.628 668.531C309.141 665.527 314.562 662.596 319.983 659.665C331.244 653.577 342.508 647.488 352.894 641.672C363.274 635.86 372.693 630.369 382.111 624.879C386.601 622.261 391.093 619.643 395.976 616.825H395.976ZM381.595 587.544C393.827 604.219 397.143 616.906 397.153 616.943C397.214 617.177 397.115 617.434 396.894 617.56C392.28 620.222 387.47 623.026 382.661 625.83C373.212 631.338 363.763 636.847 353.43 642.632C343.098 648.417 331.8 654.525 320.503 660.633C314.81 663.711 309.116 666.789 303.751 669.714C303.525 669.837 303.235 669.787 303.065 669.58C301.778 668.019 300.736 666.397 299.921 664.732C296.3 657.343 297.123 649.106 300.699 641.204C304.245 633.364 310.511 625.846 317.822 619.823C321.89 616.473 326.285 613.582 330.719 611.355C329.951 610.108 329.051 608.984 328.227 607.954C326.613 605.938 325.267 604.257 325.539 602.519C325.554 602.392 325.612 602.27 325.713 602.177C337.777 591.051 347.364 600.976 348.995 602.856C352.038 601.837 374.032 594.253 375.241 587.43C375.205 586.725 375.702 585.97 376.451 585.463C376.822 585.212 377.26 585.015 377.726 584.914C378.2 584.81 378.706 584.805 379.201 584.939C380.164 585.199 381.067 585.969 381.595 587.543L381.595 587.544Z" fill="#868CB5"/>
<path d="M371.577 618.212C371.429 617.947 371.524 617.612 371.789 617.464C372.053 617.315 372.389 617.41 372.537 617.675L374.804 621.725C374.952 621.989 374.858 622.325 374.593 622.473C374.328 622.621 373.993 622.527 373.844 622.262L371.577 618.212Z" fill="#868CB5"/>
<path d="M369.77 619.202C369.622 618.937 369.717 618.601 369.981 618.453C370.246 618.305 370.582 618.399 370.73 618.664L372.997 622.714C373.145 622.979 373.051 623.314 372.786 623.462C372.521 623.611 372.186 623.516 372.037 623.251L369.77 619.202Z" fill="#868CB5"/>
<path fill-rule="evenodd" clip-rule="evenodd" d="M334.686 597.213C338.485 596.846 343.384 598.067 349.175 603.078C349.241 603.135 349.294 603.208 349.327 603.295C349.437 603.578 349.296 603.896 349.013 604.005C344.389 605.796 339.881 608.037 335.488 610.221L335.459 610.236C334.207 610.859 332.965 611.477 331.735 612.076C331.7 612.092 331.664 612.105 331.626 612.115C331.331 612.187 331.033 612.007 330.961 611.712C330.649 610.457 329.332 608.682 328.097 607.017C326.841 605.324 325.664 603.737 325.544 602.656L325.541 602.633C325.527 602.501 325.722 602.062 326.128 601.592C326.676 600.958 327.69 599.97 329.127 599.089C330.563 598.209 332.429 597.431 334.686 597.213V597.213Z" fill="#868CB5"/>
<path d="M332.86 648.506C333.126 648.362 333.46 648.46 333.605 648.726C333.75 648.992 333.651 649.326 333.385 649.471L301.691 666.824C301.425 666.969 301.091 666.87 300.946 666.604C300.801 666.338 300.9 666.004 301.166 665.86L332.86 648.506Z" fill="#868CB5"/>
<path d="M318.971 626.115L315.031 629.669C314.547 630.108 313.938 629.497 314.421 629.058L318.09 625.748C317.787 625.539 317.58 625.265 317.513 624.944C317.389 624.356 317.762 623.753 318.426 623.323C319.224 622.933 319.613 622.926 320.481 622.722C321.665 622.698 322.648 623.197 322.811 623.976C323.005 624.898 321.975 625.861 320.512 626.129C319.964 626.229 319.432 626.217 318.972 626.115H318.971ZM330.219 616.159C331.388 616.145 332.355 616.642 332.518 617.414C332.711 618.336 331.681 619.299 330.218 619.567C328.755 619.834 327.412 619.303 327.219 618.381C327.098 617.805 327.455 617.213 328.097 616.784C328.786 616.394 329.637 616.269 330.219 616.16V616.159Z" fill="#868CB5"/>
<path d="M320.074 623.926C320.074 623.926 314.502 614.941 316.592 620.774" stroke="#868CB5" stroke-width="2.2028" stroke-miterlimit="22.9256" stroke-linecap="round" stroke-linejoin="round"/>
<path d="M329.564 616.807C329.564 616.807 323.992 607.822 326.083 613.654" stroke="#868CB5" stroke-width="2.2028" stroke-miterlimit="22.9256" stroke-linecap="round" stroke-linejoin="round"/>
<path fill-rule="evenodd" clip-rule="evenodd" d="M185.548 344.431L188.824 456.41L327.28 592.825C333.384 600.376 374.295 568.961 370.117 564.557L271.078 447.599L269.042 343.583C229.51 337.682 224.689 336.798 185.548 344.431V344.431Z" fill="#6934D9"/>
<path fill-rule="evenodd" clip-rule="evenodd" d="M193.545 342.904L199.261 638.751C198.448 643.056 255.759 646.049 256.566 638.751L277.2 344.794C233.204 338.306 227.807 336.536 193.545 342.904V342.904Z" fill="#6934D9"/>
<path fill-rule="evenodd" clip-rule="evenodd" d="M277.199 344.797C229.987 337.835 227.23 336.305 185.547 344.434C181.097 344.223 177.458 340.795 177.452 336.337C188.941 336.324 201.307 334.34 234.721 336.329C267.598 338.287 263.878 339.132 285.301 337.251C285.017 341.514 281.495 344.106 277.199 344.798H277.199V344.797Z" fill="#2B0087"/>
<path d="M239.972 643.013L253.203 353.899L252.306 341.131" stroke="#2B0087" stroke-width="2.2028" stroke-miterlimit="22.9256" stroke-linecap="round" stroke-linejoin="round"/>
<path d="M250.509 392.355L241.693 389.168L233.883 339.138" stroke="#2B0087" stroke-width="2.2028" stroke-miterlimit="22.9256" stroke-linecap="round" stroke-linejoin="round"/>
<path fill-rule="evenodd" clip-rule="evenodd" d="M276.68 337.918L265.326 338.261C268.873 338.362 272.045 338.274 276.683 337.949L276.68 337.918V337.918ZM265.03 342.984L246.465 642.517C252.314 641.854 256.356 640.651 256.566 638.751L277.2 344.794C272.776 344.142 268.742 343.537 265.03 342.984V342.984Z" fill="#2B0087"/>
<path fill-rule="evenodd" clip-rule="evenodd" d="M264.155 530.632L327.28 592.825C327.857 593.538 329.982 594.351 331.794 593.869L335.251 592.948L265.189 518.236L264.155 530.632Z" fill="#2B0087"/>
<path fill-rule="evenodd" clip-rule="evenodd" d="M286.372 337.153L286.371 337.152C263.747 339.155 268.135 338.316 234.722 336.325C201.308 334.337 188.942 336.32 177.453 336.334V336.334C174.004 333.631 169.704 332.749 169.077 325.182C167.47 309.06 160.666 263.852 159.472 220.686L150.936 226.422V226.422L150.919 226.433C136.524 236.425 116.482 232.89 106.566 218.439L71.8464 167.842C66.3558 159.943 68.3273 148.986 76.2272 143.496L99.8534 127.076C107.753 121.585 118.756 123.524 124.2 131.456L141.164 156.178L172.552 135.089C175.046 133.391 177.833 132.43 180.652 132.157L180.654 132.156C182.742 131.53 185.051 131.545 187.38 131.327C192.483 124.327 198.489 121.115 210.699 119.989L234.714 115.259C249.807 113.865 256.344 120.469 257.598 126.428C315.828 125.293 331.847 186.168 352.047 223.969C352.801 225.145 353.486 226.384 354.091 227.685L354.092 227.687V227.687L387.127 298.772C391.228 307.475 387.46 317.952 378.759 322.051L352.733 334.316C344.031 338.417 333.508 334.675 329.454 325.95L296.419 254.865H296.419L290.584 258.333C291.038 266.979 296.005 334.833 286.372 337.152V337.153Z" fill="#FF0028"/>
<path fill-rule="evenodd" clip-rule="evenodd" d="M286.37 337.155L286.37 337.155C283.548 337.405 281.147 337.61 279.04 337.775C287.517 306.333 282.069 267.121 281.642 245.393L281.643 245.395L270.621 221.834C268.804 217.897 273.588 210.941 274.521 207.361C281.901 223.18 289.234 238.968 296.46 254.849L296.417 254.868L290.583 258.336C290.648 259.584 290.808 262.068 291.004 265.406L290.831 265.035L292.259 303.931C292.173 320.816 290.852 336.077 286.37 337.156V337.155Z" fill="#D90324"/>
<path fill-rule="evenodd" clip-rule="evenodd" d="M194.198 133.786L194.153 130.785C187.078 134.604 186.278 141.411 187.727 144.736C188.187 145.856 191.895 145.771 191.532 144.1C193.498 146.793 195.356 153.33 212.096 151.768L212.492 152.604C219.258 155.007 244.294 141.704 246.867 132.514C247.96 128.609 242.892 123.827 234.853 124.546L234.994 134.017L194.198 133.786H194.198Z" fill="#D90324"/>
<path fill-rule="evenodd" clip-rule="evenodd" d="M194.167 131.698C193.021 133.33 192.391 135.105 192.391 136.962C192.391 144.956 196.491 151.356 210.598 149.98C216.959 149.359 241.719 141.396 238.586 131.698H194.167V131.698Z" fill="#AD041E"/>
<path d="M214.683 161.617C214.077 161.581 213.615 161.061 213.651 160.455C213.686 159.85 214.207 159.387 214.812 159.423C221.489 159.839 227.769 158.887 233.129 156.897C238.624 154.857 243.146 151.73 246.119 147.878C246.489 147.398 247.179 147.31 247.659 147.68C248.139 148.05 248.227 148.74 247.857 149.22C244.633 153.397 239.773 156.771 233.895 158.954C228.253 161.048 221.664 162.051 214.683 161.617L214.683 161.617Z" fill="#D90324"/>
<path d="M182.695 137.739C182.821 137.145 183.405 136.766 183.999 136.891C184.593 137.017 184.972 137.601 184.846 138.195C184.702 138.872 184.571 139.384 184.452 139.847C183.935 141.865 183.666 142.919 184.656 148.778C184.755 149.377 184.351 149.944 183.752 150.043C183.154 150.143 182.587 149.738 182.487 149.14C181.419 142.818 181.728 141.612 182.318 139.305C182.439 138.834 182.573 138.312 182.695 137.739H182.695Z" fill="#D90324"/>
<path d="M188.645 158.053C188.657 157.444 189.161 156.96 189.77 156.972C190.379 156.984 190.863 157.488 190.851 158.097C190.598 169.625 189.346 177.083 188.316 183.218C186.932 191.463 185.956 197.274 188.46 207.436C190.065 213.949 190.753 218.711 190.963 222.467C191.173 226.243 190.898 228.997 190.583 231.489C190.507 232.094 189.954 232.522 189.35 232.446C188.745 232.37 188.317 231.817 188.393 231.213C188.694 228.831 188.957 226.198 188.756 222.589C188.554 218.958 187.881 214.331 186.313 207.964C183.7 197.357 184.707 191.361 186.134 182.855C187.154 176.777 188.395 169.389 188.644 158.053H188.645ZM200.797 160.739C201.071 160.194 201.736 159.975 202.281 160.25C202.825 160.524 203.045 161.189 202.77 161.734C202.006 163.241 201.768 164.578 201.795 165.808C201.822 167.063 202.134 168.281 202.449 169.459C204.521 177.193 204.505 182.362 204.49 187.34C204.479 191.425 204.467 195.379 205.68 200.572C207.652 209.014 212.369 213.96 216.738 218.541C221.638 223.678 226.124 228.382 226.317 236.903C226.329 237.512 225.845 238.017 225.236 238.028C224.627 238.04 224.123 237.556 224.111 236.947C223.937 229.29 219.731 224.88 215.137 220.063C210.567 215.272 205.633 210.098 203.525 201.074C202.26 195.658 202.272 191.567 202.284 187.34C202.298 182.514 202.313 177.502 200.312 170.029C199.965 168.734 199.622 167.387 199.588 165.851C199.554 164.29 199.849 162.609 200.797 160.738V160.739Z" fill="#FF5E04"/>
<path d="M191.42 217.616C191.359 216.336 190.27 215.269 188.988 215.232C187.705 215.196 186.714 216.205 186.775 217.485L187.147 225.306C187.208 226.586 188.297 227.653 189.579 227.689C190.862 227.725 191.853 226.717 191.792 225.437L191.42 217.616Z" fill="#FF5E04"/>
<path d="M221.36 221.823C220.723 220.712 219.306 220.328 218.195 220.965C217.084 221.602 216.7 223.019 217.337 224.13L221.229 230.917C221.866 232.028 223.283 232.412 224.394 231.775C225.505 231.138 225.889 229.721 225.252 228.61L221.36 221.823Z" fill="#FF5E04"/>
<path d="M228.745 282.493C219.719 282.07 209.264 281.141 199.421 280.267C185.879 279.065 173.503 277.967 167.702 278.437L165.735 288.139C165.616 288.733 165.038 289.118 164.444 288.999C163.85 288.881 163.465 288.302 163.583 287.709L165.652 277.504L163.778 272.041C163.581 271.466 163.887 270.84 164.462 270.643C165.037 270.446 165.663 270.752 165.86 271.327L167.547 276.242C173.554 275.768 185.999 276.873 199.61 278.081C209.352 278.946 219.696 279.865 228.674 280.291L230.377 275.331C230.574 274.756 231.2 274.449 231.775 274.647C232.35 274.844 232.656 275.47 232.459 276.045L230.635 281.361L244.011 309.173C247.959 317.156 252.541 317.745 256.257 318.222L256.885 318.303C257.486 318.381 257.91 318.933 257.832 319.534C257.754 320.135 257.202 320.559 256.601 320.481L255.977 320.399C251.736 319.854 246.507 319.179 242.042 310.145L228.745 282.493L228.745 282.493Z" fill="#D90324"/>
<path d="M159.471 220.689C158.917 209.793 159.288 197.526 160.426 184.475" stroke="#D90324" stroke-width="2.2028" stroke-miterlimit="22.9256" stroke-linecap="round" stroke-linejoin="round"/>
<path fill-rule="evenodd" clip-rule="evenodd" d="M150.647 226.616C136.272 236.379 116.418 232.801 106.564 218.44L106.465 218.295C111.567 214.959 117.664 213.019 124.215 213.019C135.112 213.019 144.754 218.384 150.647 226.617V226.616Z" fill="#FF6600"/>
<path fill-rule="evenodd" clip-rule="evenodd" d="M102.393 125.592L102.288 125.663C101.452 126.063 100.636 126.534 99.8524 127.079L76.2261 143.499C76.1431 143.557 76.0618 143.616 75.98 143.675L71.5015 137.248L97.824 118.947L102.393 125.592H102.393Z" fill="#D90324"/>
<path d="M142.232 164.042C142.232 164.648 141.741 165.139 141.135 165.139C140.529 165.139 140.038 164.648 140.038 164.042L140.067 156.183C140.067 155.577 140.559 155.086 141.165 155.086C141.77 155.086 142.262 155.577 142.262 156.183L142.232 164.042Z" fill="#D90324"/>
<path d="M160.569 220.638C160.597 221.244 160.129 221.759 159.523 221.787C158.918 221.816 158.403 221.348 158.375 220.742C158.101 215.353 158.053 209.622 158.211 203.623C158.375 197.418 158.755 190.978 159.33 184.381C159.382 183.775 159.916 183.326 160.522 183.378C161.128 183.43 161.576 183.964 161.524 184.57C160.945 191.207 160.565 197.603 160.405 203.674C160.249 209.607 160.297 215.285 160.569 220.638V220.638Z" fill="#D90324"/>
<path fill-rule="evenodd" clip-rule="evenodd" d="M387.491 378.524C387.769 382.279 379.133 384.37 377.896 377.778L377.878 373.106L370.249 360.073C369.744 358.657 368.406 358.038 367.069 358.07L367.069 358.069C365.898 357.991 364.726 358.133 363.555 358.42C359.109 360.398 357.087 365.656 359.063 370.104L359.878 371.938C356.915 373.784 353.229 372 352.538 367.549C349.126 350.937 354.351 351.345 355.305 347.258L353.381 342.676L382.379 329.006L386.076 334.943C393.95 334.752 400.384 331.74 410.655 354.144C414.302 359.704 406.77 363.636 404.058 358.973L397.927 349.383L404.692 360.408C406.191 362.851 405.832 365.866 405.908 368.061C406.121 373.611 398.38 374.488 398.149 370.991C397.81 369.159 398.033 366.677 397.167 365.337L390.428 354.923L395.256 364.425C395.323 368.056 395.497 370.257 395.315 373.153C395.547 380.054 388.746 380.921 387.491 378.524H387.491Z" fill="#EBA884"/>
<path d="M378.016 351.986C375.454 347.07 384.223 343.319 386.276 347.373" stroke="#C98560" stroke-width="1.09058" stroke-miterlimit="22.9256" stroke-linecap="round" stroke-linejoin="round"/>
<path d="M387.42 370.042L387.365 367.198L383.437 360.506" stroke="#C98560" stroke-width="1.09058" stroke-miterlimit="22.9256" stroke-linecap="round" stroke-linejoin="round"/>
<path d="M386.274 347.371C384.121 342.917 392.016 339.266 394.293 342.33L396.315 346.41" stroke="#C98560" stroke-width="1.09058" stroke-miterlimit="22.9256" stroke-linecap="round" stroke-linejoin="round"/>
<path fill-rule="evenodd" clip-rule="evenodd" d="M349.981 335.364L350.098 335.31C350.989 335.055 351.871 334.726 352.734 334.32L378.76 322.055C378.851 322.012 378.942 321.967 379.032 321.923L382.38 329.005L353.381 342.676L349.98 335.364L349.981 335.364Z" fill="#D90324"/>
<path fill-rule="evenodd" clip-rule="evenodd" d="M234.604 107.837L235.003 134.583C235.678 139.773 194.6 160.177 194.22 135.216L193.831 109.09C198.45 112.853 204.197 115.335 210.575 115.935C219.73 116.797 228.331 113.607 234.605 107.837H234.604Z" fill="#EBA884"/>
<path fill-rule="evenodd" clip-rule="evenodd" d="M193.831 109.088L193.986 119.551H193.987L194.22 135.213C194.321 141.828 197.281 145.256 201.563 146.626V123.228C212.911 126.114 229.739 122.175 235.08 107.388L235.074 107.394C228.763 113.441 219.96 116.815 210.575 115.932C204.197 115.331 198.451 112.849 193.831 109.086L193.831 109.088V109.088Z" fill="#C98560"/>
<path fill-rule="evenodd" clip-rule="evenodd" d="M246.247 69.8154L244.53 87.8202C242.916 104.961 227.714 117.547 210.574 115.934C193.433 114.321 180.847 99.1187 182.46 81.9781L184.17 63.8109L184.415 61.2077L185.8 46.4843L186.429 39.8084C186.429 39.8084 191.239 28.331 198.525 30.5312C202.761 33.1232 208.909 34.7014 214.135 34.6439C218.017 34.601 221.385 33.7784 223.126 32.8693C226.841 30.9294 238.591 45.0614 241.516 47.4548L242.149 68.2701C242.036 69.4605 244.036 69.9536 246.247 69.8154H246.247Z" fill="#EBA884"/>
<path fill-rule="evenodd" clip-rule="evenodd" d="M250.183 63.697C252.175 63.8847 253.9 66.2522 253.66 68.807L252.982 76.0067C252.49 81.2287 247.843 85.0407 242.628 84.5502L244.689 63.1797L250.183 63.6967L250.183 63.697Z" fill="#EBA884"/>
<path d="M187.793 7.58927C188.101 6.98569 188.343 6.77706 188.903 6.8029C189.391 6.84101 189.597 7.24016 189.558 7.72781C189.556 7.7572 187.982 17.6709 192.415 20.6588C192.445 18.9453 188.976 8.68372 196.841 2.15444C204.831 -4.47915 212.22 6.27715 211.939 6.7748C211.659 7.27311 228.427 8.91527 239.103 16.1886C249.778 23.462 255.242 31.4561 254.141 45.2103C253.04 58.9645 253.638 56.0057 251.811 67.0129C251.286 70.1742 241.91 70.8107 242.149 68.2704L241.516 47.4551C238.591 45.0617 226.842 30.9297 223.127 32.8696C221.386 33.7787 218.017 34.6013 214.135 34.6442C208.91 34.7014 202.761 33.1235 198.525 30.5315C191.239 28.3313 186.429 39.8087 186.429 39.8087L185.03 54.6664L184.785 57.27C184.785 57.27 176.969 57.9743 178.456 49.2003C179.942 40.4265 176.824 39.1015 181.208 31.6347C184.204 26.5338 186.108 24.0391 188.534 22.4757C184.78 18.3146 186.991 9.18235 187.793 7.58959L187.793 7.58927Z" fill="#241813"/>
<path d="M202.157 63.9472C201.621 68.1374 200.704 72.264 200.204 76.4651C199.934 78.76 198.458 80.9486 198.722 83.2521C198.874 84.625 200.429 86.6595 201.93 87.1491C202.448 87.3174 201.838 87.7537 201.634 87.8408C201.14 88.0508 200.562 88.1173 200.052 87.9506C198.563 87.4653 196.819 85.7427 196.552 84.3356C196.127 82.0695 197.628 79.8293 197.861 77.5531C198.314 73.1091 199.323 68.7671 199.888 64.3444C199.985 63.5929 202.222 63.4515 202.157 63.9469L202.157 63.9472Z" fill="black"/>
<path d="M248.947 72.7967C248.92 72.5 249.138 72.2364 249.434 72.2093C249.731 72.1822 249.995 72.4002 250.022 72.697C250.024 72.7167 250.666 79.7804 246.536 81.0715C246.251 81.1603 245.947 81.0011 245.858 80.716C245.769 80.4308 245.928 80.1269 246.214 80.0381C249.512 79.0076 248.948 72.8142 248.947 72.7964V72.7967Z" fill="#C98560"/>
<path d="M187.952 62.3627C187.932 64.2613 189.457 65.8169 191.355 65.8363C193.257 65.856 194.81 64.3326 194.83 62.4344C194.849 60.5348 193.328 58.9792 191.426 58.9592C189.529 58.9398 187.972 60.4628 187.952 62.3627V62.3627Z" fill="black"/>
<path d="M214.859 63.4206C214.839 65.3199 216.361 66.8752 218.262 66.8949C220.163 66.9146 221.717 65.3912 221.737 63.493C221.757 61.5931 220.235 60.0381 218.334 60.0178C216.432 59.9981 214.879 61.5207 214.859 63.4206H214.859Z" fill="black"/>
<path d="M202.301 101.046C203.484 101.156 204.665 101.266 205.846 101.376C206.454 101.432 205.507 103.228 204.907 103.172C203.725 103.062 202.544 102.953 201.367 102.843C200.755 102.786 201.706 100.991 202.301 101.046V101.046Z" fill="black"/>
<path d="M194.198 93.837C194.061 94.1716 194.034 94.3124 194.451 94.6321C199.676 98.6327 210.37 96.6037 213.403 94.3928C213.951 93.9933 214.965 93.8884 214.856 93.1562" stroke="black" stroke-width="2.2028" stroke-miterlimit="22.9256" stroke-linecap="round" stroke-linejoin="round"/>
<path d="M229.572 50.067C228.915 49.6136 228.593 48.7642 227.706 48.3486C225.726 47.4224 222.816 47.0869 220.463 47.0184C217.055 46.9189 215.681 45.0636 214.735 43.0294C213.789 40.9952 215.394 40.4152 217.838 41.3575C220.281 42.2999 223.282 42.721 227.48 43.6504C231.678 44.5795 233.292 47.1066 233.209 49.3197C233.126 51.5335 231.695 51.5315 229.572 50.0673V50.067Z" fill="#241813"/>
<path d="M190.221 45.9437C194.349 45.106 195.404 44.2909 199.592 43.8052C201.657 43.5669 204.459 42.1714 205.536 40.3113C206.705 38.2867 203.925 38.2593 202.712 38.4004C198.524 38.8855 197.468 39.7012 193.341 40.5389C191.23 40.9681 188.54 42.059 187.397 44.0322C186.267 45.9883 188.972 46.1979 190.221 45.9437Z" fill="#241813"/>
<path d="M253.357 63.0671L228.778 57.1514" stroke="#160045" stroke-width="1.83561" stroke-miterlimit="22.9256" stroke-linecap="round" stroke-linejoin="round"/>
<path d="M205.709 60.8708C203.525 59.1269 198.855 58.8828 197.265 60.6338" stroke="#160045" stroke-width="1.83561" stroke-miterlimit="22.9256"/>
<path fill-rule="evenodd" clip-rule="evenodd" d="M217.87 53.1125C229.803 53.4155 229.663 58.9388 229.571 62.5825C229.478 66.2266 229.294 73.4532 217.361 73.1499C205.428 72.847 205.612 65.6205 205.704 61.9767C205.797 58.3326 205.937 52.8096 217.87 53.1125Z" stroke="#160045" stroke-width="1.83561" stroke-miterlimit="22.9256"/>
<path fill-rule="evenodd" clip-rule="evenodd" d="M186.661 53.3704C197.687 53.6733 197.558 59.1963 197.473 62.8404C197.387 66.4845 197.218 73.6958 186.191 73.3929C175.165 73.09 175.334 65.878 175.42 62.2342C175.505 58.5901 175.635 53.0671 186.661 53.3704Z" stroke="#160045" stroke-width="1.83561" stroke-miterlimit="22.9256"/>
<path d="M175.546 60.0127L183.889 61.205" stroke="#160045" stroke-width="1.83561" stroke-miterlimit="22.9256" stroke-linecap="round" stroke-linejoin="round"/>
<path fill-rule="evenodd" clip-rule="evenodd" d="M338.803 196.53C343.342 206.185 347.589 215.631 352.038 223.958C352.796 225.138 353.483 226.383 354.09 227.689L354.091 227.691V227.691L362.732 246.285C359.099 248.046 355.021 249.034 350.712 249.034C341.31 249.034 333.007 244.331 328.024 237.151L327.985 237.095C327.886 236.952 327.789 236.808 327.693 236.664L327.611 236.539C327.523 236.404 327.435 236.268 327.349 236.132L327.192 235.88L327.038 235.627L326.887 235.373L326.88 235.361C326.797 235.219 326.716 235.077 326.635 234.933L326.56 234.799C326.49 234.672 326.42 234.544 326.351 234.414L326.216 234.159L326.067 233.868L325.889 233.51L325.779 233.281L325.622 232.945L325.473 232.616L325.355 232.345L325.215 232.014L325.078 231.679L324.982 231.435L324.832 231.039L324.753 230.826C324.702 230.684 324.652 230.541 324.603 230.398L324.54 230.213C324.484 230.046 324.43 229.879 324.377 229.71L324.333 229.572C324.279 229.396 324.226 229.22 324.176 229.042L324.141 228.92C324.091 228.742 324.043 228.562 323.996 228.383L323.969 228.276C323.922 228.094 323.877 227.911 323.835 227.727L323.811 227.629C323.767 227.435 323.725 227.24 323.684 227.044L323.675 227L323.674 226.996L323.666 226.95C323.626 226.757 323.59 226.564 323.555 226.371L323.532 226.242C323.5 226.063 323.471 225.883 323.443 225.703L323.423 225.574C323.395 225.384 323.368 225.193 323.343 225.001L323.332 224.918C323.305 224.704 323.281 224.489 323.259 224.273L323.257 224.258L323.257 224.256L323.255 224.233C323.233 224.018 323.214 223.802 323.197 223.586L323.192 223.512C323.176 223.306 323.163 223.1 323.153 222.893L323.148 222.814C323.137 222.595 323.129 222.375 323.124 222.155L323.123 222.142C323.117 221.907 323.114 221.67 323.114 221.434C323.114 221.269 323.116 221.105 323.119 220.941L323.12 220.9C323.123 220.742 323.127 220.585 323.132 220.429L323.133 220.409L323.133 220.405C323.139 220.249 323.146 220.094 323.154 219.939L323.158 219.871C323.166 219.725 323.176 219.579 323.186 219.433L323.188 219.394L323.192 219.351C323.202 219.214 323.213 219.077 323.226 218.941L323.23 218.89L323.235 218.841C323.248 218.699 323.262 218.557 323.278 218.416L323.286 218.34C323.301 218.204 323.318 218.069 323.334 217.935L323.34 217.891L323.344 217.861C323.362 217.719 323.381 217.576 323.402 217.434L323.416 217.346C323.436 217.209 323.457 217.072 323.479 216.936L323.485 216.902L323.487 216.892L323.489 216.883C323.513 216.735 323.539 216.587 323.566 216.439L323.577 216.381C323.602 216.246 323.627 216.112 323.655 215.978L323.663 215.933L323.665 215.925L323.678 215.865L323.758 215.486L323.777 215.401L323.868 215.007L323.894 214.898L323.982 214.549L324.009 214.441L324.113 214.054L324.126 214.008L324.139 213.964C324.174 213.837 324.211 213.71 324.249 213.583L324.262 213.537L324.273 213.5L324.386 213.133L324.406 213.07L324.423 213.017L324.529 212.692L324.59 212.512L324.692 212.22L324.743 212.076L324.852 211.78L324.927 211.58L325.03 211.317L325.088 211.171L325.202 210.891L325.289 210.684L325.311 210.63L325.386 210.456L325.393 210.44L325.462 210.282L325.54 210.109L325.618 209.937L325.661 209.844L325.8 209.549C328.517 203.864 333.124 199.254 338.805 196.531L338.803 196.53ZM327.612 236.539C327.524 236.404 327.436 236.268 327.35 236.132L327.612 236.539Z" fill="#FF6600"/>
<path fill-rule="evenodd" clip-rule="evenodd" d="M71.5983 137.384L66.5113 130.551C55.9416 127.596 53.3096 123.498 42.5398 110.261C35.7127 103.849 31.9714 101.335 25.6873 94.6422C21.3201 90.3809 26.3874 84.5072 30.08 87.954L47.2302 103.122L47.5864 101.76L28.0583 75.4296C23.0411 69.8524 29.9052 64.415 33.7499 69.0273L52.6828 93.1738L53.1656 92.6748L40.8705 66.6287C38.3463 60.9931 45.362 57.3367 47.9733 61.9625L57.2518 77.7516C57.7563 73.1506 59.9197 58.9653 75.7953 66.7114C81.8014 69.5059 78.7428 78.536 73.027 75.9324C66.6647 72.6413 64.8833 77.7509 67.1662 83.2762C70.5742 90.9393 81.9987 94.3554 84.2293 87.9669C84.8251 86.1249 84.6475 82.5683 79.7539 79.8288C76.8539 77.9841 79.4465 71.1041 84.1605 71.6731C99.79 73.5607 97.346 102.269 93.4219 112.683L97.8252 118.945C89.0537 124.951 80.2742 131.225 71.5986 137.384L71.5983 137.384Z" fill="#EBA884"/>
<path d="M67.7311 129.468C67.4521 129.579 67.1356 129.443 67.0248 129.163C66.914 128.884 67.0506 128.567 67.3297 128.456L67.7314 129.468L67.7311 129.468ZM75.6975 119.617L76.7719 119.79L76.6518 120.398L76.4929 120.987L76.2975 121.555L76.0698 122.103L75.8121 122.63L75.5276 123.136L75.2192 123.622L74.8898 124.087L74.5426 124.532L74.1799 124.956L73.8047 125.36L73.4194 125.746L73.0274 126.111L72.6305 126.456L72.2326 126.782L71.8354 127.09L71.4411 127.378L71.0532 127.647L70.6741 127.897L70.3066 128.129L69.9526 128.342L69.6155 128.536L69.298 128.712L69.0012 128.869L68.7296 129.008L68.4852 129.129L68.2701 129.231L68.0879 129.315L67.9397 129.381L67.8299 129.428L67.7608 129.457L67.7314 129.469L67.3297 128.457L67.3442 128.451L67.4043 128.426L67.5037 128.383L67.6387 128.323L67.8099 128.245L68.0111 128.149L68.2417 128.036L68.4987 127.904L68.7794 127.755L69.0807 127.588L69.4007 127.404L69.7362 127.202L70.0847 126.983L70.4435 126.746L70.81 126.491L71.1817 126.22L71.5554 125.931L71.929 125.625L72.2994 125.302L72.6644 124.962L73.0215 124.606L73.3674 124.233L73.7 123.843L74.0172 123.438L74.3156 123.016L74.594 122.578L74.8484 122.125L75.0784 121.656L75.2802 121.171L75.452 120.669L75.5919 120.152L75.6971 119.618L75.6975 119.617ZM75.6975 119.617C75.7453 119.32 76.0249 119.119 76.3214 119.166C76.6175 119.214 76.8197 119.493 76.7719 119.79L75.6975 119.618V119.617Z" fill="#C98560"/>
<path d="M59.4552 88.7628L60.3475 88.1363C60.5196 88.3827 60.4602 88.7227 60.2138 88.8955C59.9674 89.0683 59.6273 89.0089 59.4552 88.7625V88.7628ZM58.2047 80.9359L58.1876 81.1791L58.1767 81.42L58.1715 81.6606V81.8989L58.1776 82.136L58.1889 82.372L58.206 82.6059L58.2293 82.8393L58.2577 83.0719L58.291 83.3024L58.3307 83.5321L58.3753 83.7604L58.4253 83.9877L58.4809 84.2148L58.5416 84.4399L58.6075 84.6643L58.6788 84.8878L58.7547 85.1103L58.8361 85.3312L58.9227 85.5527L59.014 85.772L59.1106 85.9913L59.2123 86.2093L59.3189 86.4266L59.4306 86.643L59.5469 86.8584L59.6687 87.0738L59.7946 87.2879L59.926 87.5014L60.062 87.7139L60.2025 87.9257L60.3478 88.1372L59.4555 88.7637L59.2998 88.5377L59.149 88.3103L59.0031 88.0817L58.8613 87.8514L58.725 87.6199L58.5936 87.3874L58.467 87.1535L58.3459 86.9181L58.229 86.6811L58.1185 86.4431L58.0123 86.2035L57.9122 85.9622L57.8175 85.7203L57.7281 85.4765L57.6441 85.2314L57.5656 84.985L57.4927 84.7363L57.4261 84.487L57.3648 84.2367L57.3089 83.9839L57.2595 83.7307L57.2162 83.4755L57.1784 83.2185L57.1471 82.9611L57.1219 82.7018L57.1025 82.4408L57.0896 82.1789L57.0825 81.9154V81.6506L57.0883 81.3851L57.1009 81.1177L57.1197 80.849L58.2057 80.9372L58.2047 80.9359ZM58.2047 80.9359L57.1187 80.8477C57.1429 80.5477 57.4064 80.3243 57.7061 80.3485C58.0058 80.3727 58.229 80.6359 58.2047 80.9359Z" fill="#C98560"/>
<path d="M79.1141 101.016L80.1973 100.89C80.2315 101.189 80.0171 101.461 79.718 101.495C79.4193 101.53 79.1483 101.316 79.1141 101.017V101.016ZM80.9975 93.3877L80.9058 93.6218L80.8193 93.8576L80.7385 94.0943L80.6629 94.3323L80.5922 94.5713L80.5263 94.8109L80.4653 95.0505L80.4094 95.2911L80.3581 95.5327L80.3116 95.7739L80.2693 96.0155L80.2312 96.2573L80.1969 96.4989L80.1675 96.7398L80.1417 96.9811L80.1198 97.2217L80.1017 97.4613L80.0871 97.7003L80.0762 97.9386L80.0687 98.1756L80.0639 98.4117L80.0629 98.6458L80.0649 98.8793L80.0697 99.1109L80.0771 99.3405L80.0875 99.5685L80.1001 99.7946L80.1156 100.018L80.1333 100.24L80.1527 100.459L80.1743 100.676L80.1979 100.89L79.1148 101.016L79.0899 100.791L79.0666 100.563L79.0463 100.332L79.0279 100.099L79.0117 99.863L78.9985 99.6244L78.9875 99.3838L78.9794 99.1403L78.9746 98.8955L78.9727 98.6487L78.9736 98.3991L78.9785 98.1485L78.9865 97.8966L78.9982 97.6428L79.0137 97.3877L79.033 97.1319L79.0566 96.8745L79.0838 96.6165L79.116 96.3571L79.1525 96.0972L79.1936 95.8375L79.2388 95.5769L79.2898 95.316L79.345 95.0554L79.406 94.7934L79.4723 94.5325L79.5439 94.2722L79.6208 94.0119L79.7038 93.7526L79.792 93.4936L79.8866 93.2352L79.9873 92.9782L80.9985 93.387L80.9975 93.3877ZM80.9975 93.3877L79.9864 92.9788C80.0994 92.6995 80.4178 92.5648 80.6969 92.6775C80.9759 92.7902 81.1105 93.1086 80.9975 93.388V93.3877Z" fill="#C98560"/>
<path d="M193.545 342.906L199.261 638.753C198.448 643.058 255.759 646.051 256.566 638.753L277.2 344.796" stroke="#2B0087" stroke-width="2.2028" stroke-miterlimit="22.9256" stroke-linecap="round" stroke-linejoin="round"/>
<path d="M185.548 344.432L188.824 456.411L196.005 463.486M264.51 530.98L327.28 592.825C333.384 600.376 374.295 568.961 370.117 564.557L271.078 447.599L264.51 530.98Z" stroke="#2B0087" stroke-width="2.2028" stroke-miterlimit="22.9256" stroke-linecap="round" stroke-linejoin="round"/>
</g>
</g>
<defs>
<linearGradient id="paint0_linear_2060_7550" x1="400.281" y1="120.739" x2="429.036" y2="148.545" gradientUnits="userSpaceOnUse">
<stop stop-color="#6934DD"/>
<stop offset="1" stop-color="#FF0431"/>
</linearGradient>
<linearGradient id="paint1_linear_2060_7550" x1="360.965" y1="103.319" x2="477.67" y2="216.006" gradientUnits="userSpaceOnUse">
<stop stop-color="#6934DD"/>
<stop offset="1" stop-color="#FF0431"/>
</linearGradient>
<linearGradient id="paint2_linear_2060_7550" x1="335.576" y1="106.327" x2="497.341" y2="260.749" gradientUnits="userSpaceOnUse">
<stop stop-color="#6934DD"/>
<stop offset="1" stop-color="#FF0431"/>
</linearGradient>
<linearGradient id="paint3_linear_2060_7550" x1="310.132" y1="118.225" x2="503.235" y2="301.926" gradientUnits="userSpaceOnUse">
<stop stop-color="#6934DD"/>
<stop offset="1" stop-color="#FF0431"/>
</linearGradient>
<linearGradient id="paint4_linear_2060_7550" x1="280.391" y1="132.802" x2="503.475" y2="345.184" gradientUnits="userSpaceOnUse">
<stop stop-color="#6934DD"/>
<stop offset="1" stop-color="#FF0431"/>
</linearGradient>
<linearGradient id="paint5_linear_2060_7550" x1="220.824" y1="141.44" x2="502.173" y2="410.467" gradientUnits="userSpaceOnUse">
<stop stop-color="#6934DD"/>
<stop offset="1" stop-color="#FF0431"/>
</linearGradient>
<linearGradient id="paint6_linear_2060_7550" x1="164.492" y1="149.557" x2="502.956" y2="473.915" gradientUnits="userSpaceOnUse">
<stop stop-color="#6934DD"/>
<stop offset="1" stop-color="#FF0431"/>
</linearGradient>
<linearGradient id="paint7_linear_2060_7550" x1="140.975" y1="163.697" x2="506.271" y2="514.106" gradientUnits="userSpaceOnUse">
<stop stop-color="#6934DD"/>
<stop offset="1" stop-color="#FF0431"/>
</linearGradient>
<linearGradient id="paint8_linear_2060_7550" x1="130.004" y1="179.985" x2="510.96" y2="545.605" gradientUnits="userSpaceOnUse">
<stop stop-color="#6934DD"/>
<stop offset="1" stop-color="#FF0431"/>
</linearGradient>
<linearGradient id="paint9_linear_2060_7550" x1="124.843" y1="197.234" x2="516.139" y2="572.922" gradientUnits="userSpaceOnUse">
<stop stop-color="#6934DD"/>
<stop offset="1" stop-color="#FF0431"/>
</linearGradient>
<linearGradient id="paint10_linear_2060_7550" x1="122.555" y1="215.106" x2="521.163" y2="598.143" gradientUnits="userSpaceOnUse">
<stop stop-color="#6934DD"/>
<stop offset="1" stop-color="#FF0431"/>
</linearGradient>
<linearGradient id="paint11_linear_2060_7550" x1="122.19" y1="233.642" x2="525.921" y2="621.752" gradientUnits="userSpaceOnUse">
<stop stop-color="#6934DD"/>
<stop offset="1" stop-color="#FF0431"/>
</linearGradient>
<linearGradient id="paint12_linear_2060_7550" x1="122.895" y1="252.922" x2="529.936" y2="644.23" gradientUnits="userSpaceOnUse">
<stop stop-color="#6934DD"/>
<stop offset="1" stop-color="#FF0431"/>
</linearGradient>
<linearGradient id="paint13_linear_2060_7550" x1="124.017" y1="273.011" x2="532.823" y2="665.868" gradientUnits="userSpaceOnUse">
<stop stop-color="#6934DD"/>
<stop offset="1" stop-color="#FF0431"/>
</linearGradient>
<linearGradient id="paint14_linear_2060_7550" x1="125.212" y1="293.83" x2="534.533" y2="687.17" gradientUnits="userSpaceOnUse">
<stop stop-color="#6934DD"/>
<stop offset="1" stop-color="#FF0431"/>
</linearGradient>
<linearGradient id="paint15_linear_2060_7550" x1="126.611" y1="315.303" x2="535.262" y2="707.97" gradientUnits="userSpaceOnUse">
<stop stop-color="#6934DD"/>
<stop offset="1" stop-color="#FF0431"/>
</linearGradient>
<linearGradient id="paint16_linear_2060_7550" x1="128.498" y1="337.669" x2="534.669" y2="727.911" gradientUnits="userSpaceOnUse">
<stop stop-color="#6934DD"/>
<stop offset="1" stop-color="#FF0431"/>
</linearGradient>
<linearGradient id="paint17_linear_2060_7550" x1="131.113" y1="361.113" x2="532.491" y2="746.726" gradientUnits="userSpaceOnUse">
<stop stop-color="#6934DD"/>
<stop offset="1" stop-color="#FF0431"/>
</linearGradient>
<linearGradient id="paint18_linear_2060_7550" x1="134.945" y1="385.985" x2="528.466" y2="763.92" gradientUnits="userSpaceOnUse">
<stop stop-color="#6934DD"/>
<stop offset="1" stop-color="#FF0431"/>
</linearGradient>
<linearGradient id="paint19_linear_2060_7550" x1="140.136" y1="412.725" x2="521.948" y2="779.523" gradientUnits="userSpaceOnUse">
<stop stop-color="#6934DD"/>
<stop offset="1" stop-color="#FF0431"/>
</linearGradient>
<linearGradient id="paint20_linear_2060_7550" x1="147.183" y1="441.989" x2="511.867" y2="792.663" gradientUnits="userSpaceOnUse">
<stop stop-color="#6934DD"/>
<stop offset="1" stop-color="#FF0431"/>
</linearGradient>
<linearGradient id="paint21_linear_2060_7550" x1="156.492" y1="475.035" x2="496.441" y2="802.281" gradientUnits="userSpaceOnUse">
<stop stop-color="#6934DD"/>
<stop offset="1" stop-color="#FF0431"/>
</linearGradient>
<linearGradient id="paint22_linear_2060_7550" x1="168.715" y1="514.152" x2="472.052" y2="806.812" gradientUnits="userSpaceOnUse">
<stop stop-color="#6934DD"/>
<stop offset="1" stop-color="#FF0431"/>
</linearGradient>
<linearGradient id="paint23_linear_2060_7550" x1="184.75" y1="564.46" x2="430.751" y2="802.409" gradientUnits="userSpaceOnUse">
<stop stop-color="#6934DD"/>
<stop offset="1" stop-color="#FF0431"/>
</linearGradient>
<linearGradient id="paint24_linear_2060_7550" x1="206.091" y1="647.322" x2="339.262" y2="776.125" gradientUnits="userSpaceOnUse">
<stop stop-color="#6934DD"/>
<stop offset="1" stop-color="#FF0431"/>
</linearGradient>
<clipPath id="clip0_2060_7550">
<rect width="617" height="758" fill="white"/>
</clipPath>
<clipPath id="clip1_2060_7550">
<rect width="574.975" height="709.018" fill="white" transform="translate(24)"/>
</clipPath>
</defs>
</svg>
