<svg width="622" height="420" viewBox="0 0 622 420" fill="none" xmlns="http://www.w3.org/2000/svg">
<g id="Frame 84">
<g id="&#208;&#184;&#208;&#183;&#208;&#190;&#208;&#177;&#209;&#128;&#208;&#176;&#208;&#182;&#208;&#181;&#208;&#189;&#208;&#184;&#208;&#181;" filter="url(#filter0_d_1372_9785)">
<rect x="10" y="20" width="602" height="380" rx="9.40966" fill="white"/>
<rect id="Rectangle 79" x="36.3472" y="51.0527" width="248.415" height="6.58676" fill="#C7ADFF"/>
<g id="Frame 988">
<rect id="Rectangle 80" x="160" y="329.58" width="318.987" height="2.8229" fill="#C5D2EB"/>
<rect id="Rectangle 82" x="160" y="341.812" width="318.987" height="2.8229" fill="#C5D2EB"/>
<rect id="Rectangle 83" x="160" y="354.045" width="318.987" height="2.8229" fill="#C5D2EB"/>
<rect id="Rectangle 84" x="160" y="366.277" width="318.987" height="2.8229" fill="#C5D2EB"/>
</g>
<path id="Ellipse 177" d="M117.597 350.659C116.056 356.494 112.696 361.687 108.004 365.483C103.312 369.278 97.532 371.48 91.5035 371.768C85.4751 372.057 79.5117 370.416 74.4789 367.085C69.4461 363.754 65.6058 358.906 63.5154 353.244C61.425 347.582 61.1933 341.402 62.8539 335.599C64.5145 329.797 67.9811 324.675 72.7504 320.976C77.5197 317.278 83.3435 315.195 89.3766 315.031C95.4097 314.867 101.338 316.63 106.301 320.064L100.035 329.121C96.9972 327.019 93.3686 325.94 89.6759 326.04C85.9832 326.141 82.4186 327.415 79.4994 329.679C76.5802 331.943 74.4585 335.078 73.442 338.63C72.4256 342.181 72.5674 345.964 73.8469 349.429C75.1264 352.895 77.4769 355.862 80.5574 357.901C83.6378 359.94 87.2879 360.944 90.9777 360.768C94.6676 360.591 98.2052 359.244 101.077 356.92C103.949 354.597 106.006 351.419 106.949 347.847L117.597 350.659Z" fill="#56C5FF" fill-opacity="0.5"/>
<path id="%" d="M90.8398 347.289C90.8465 348.933 91.8957 350.33 93.8538 350.33C95.7919 350.33 96.8745 348.933 96.8678 347.289V346.567C96.8745 344.91 95.8186 343.527 93.8538 343.527C91.9224 343.527 90.8465 344.923 90.8398 346.567V347.289ZM83.816 339.457C83.8226 341.101 84.8719 342.484 86.8233 342.484C88.7681 342.484 89.8507 341.114 89.844 339.457V338.735C89.8507 337.078 88.7948 335.694 86.8233 335.694C84.912 335.694 83.8226 337.078 83.816 338.735V339.457ZM84.4709 349.855H86.2152L95.6248 336.169H93.8805L84.4709 349.855ZM92.7845 346.567C92.7912 345.913 93.0519 345.238 93.8538 345.238C94.6959 345.238 94.9164 345.913 94.9097 346.567V347.289C94.9164 347.944 94.6691 348.606 93.8538 348.606C93.0385 348.606 92.7912 347.924 92.7845 347.289V346.567ZM85.7741 338.735C85.7808 338.1 86.028 337.405 86.8233 337.405C87.6654 337.405 87.8926 338.08 87.8859 338.735V339.457C87.8926 340.112 87.6386 340.773 86.8233 340.773C86.0347 340.773 85.7808 340.112 85.7741 339.457V338.735Z" fill="#E5EEFF"/>
<g id="Line chart">
<path id="Grid" d="M163.211 309.766V83.0449" stroke="#F0F0F0" stroke-width="0.940966"/>
<path id="Grid_2" d="M232.579 309.766V83.0449" stroke="#F0F0F0" stroke-width="0.940966"/>
<path id="Grid_3" d="M301.945 309.766V83.0449" stroke="#F0F0F0" stroke-width="0.940966"/>
<path id="Grid_4" d="M372.148 309.766V83.0449" stroke="#F0F0F0" stroke-width="0.940966"/>
<path id="Grid_5" d="M441.515 309.766V83.0449" stroke="#F0F0F0" stroke-width="0.940966"/>
<path id="Grid_6" d="M510.882 309.766V83.0449" stroke="#F0F0F0" stroke-width="0.940966"/>
<path id="Grid_7" d="M581.084 309.766V83.0449" stroke="#F0F0F0" stroke-width="0.940966"/>
<path id="Grid_8" d="M163.211 83.0449H581.084" stroke="#F0F0F0" stroke-width="0.940966"/>
<path id="Grid_9" d="M163.211 108.74H581.084" stroke="#F0F0F0" stroke-width="0.940966"/>
<path id="Grid_10" d="M163.211 133.678H581.084" stroke="#F0F0F0" stroke-width="0.940966"/>
<path id="Grid_11" d="M163.211 158.619H581.084" stroke="#F0F0F0" stroke-width="0.940966"/>
<path id="Grid_12" d="M163.211 184.312H581.084" stroke="#F0F0F0" stroke-width="0.940966"/>
<path id="Grid_13" d="M163.211 209.252H581.084" stroke="#F0F0F0" stroke-width="0.940966"/>
<path id="Grid_14" d="M163.211 234.193H581.084" stroke="#F0F0F0" stroke-width="0.940966"/>
<path id="Grid_15" d="M163.212 259.889H581.085" stroke="#F0F0F0" stroke-width="0.940966"/>
<path id="Grid_16" d="M163.211 284.826H581.084" stroke="#F0F0F0" stroke-width="0.940966"/>
<path id="Grid_17" d="M163.211 309.766H581.084" stroke="#F0F0F0" stroke-width="0.940966"/>
<path id="Random data" d="M163.211 191.87C163.211 191.87 197.477 211.519 232.578 211.519C267.68 211.519 267.68 90.6016 301.945 90.6016C337.047 90.6016 337.047 292.383 372.148 292.383C406.414 292.383 406.414 226.634 441.515 226.634C476.616 226.634 476.616 290.116 510.882 290.116C545.983 290.116 581.084 279.536 581.084 279.536" stroke="#A6CEE3" stroke-width="1.88193"/>
<path id="Dot (47)" d="M160 191.931C160 192.733 160.352 193.502 160.979 194.068C161.606 194.635 162.456 194.954 163.343 194.954C164.23 194.954 165.08 194.635 165.707 194.068C166.334 193.502 166.686 192.733 166.686 191.931C166.686 191.129 166.334 190.361 165.707 189.794C165.08 189.227 164.23 188.908 163.343 188.908C162.456 188.908 161.606 189.227 160.979 189.794C160.352 190.361 160 191.129 160 191.931Z" fill="#A6CEE3"/>
<path id="Dot (39)" d="M229.646 212.083C229.646 212.885 229.998 213.654 230.624 214.221C231.251 214.788 232.102 215.106 232.988 215.106C233.875 215.106 234.725 214.788 235.352 214.221C235.979 213.654 236.331 212.885 236.331 212.083C236.331 211.282 235.979 210.513 235.352 209.946C234.725 209.379 233.875 209.061 232.988 209.061C232.102 209.061 231.251 209.379 230.624 209.946C229.998 210.513 229.646 211.282 229.646 212.083Z" fill="#A6CEE3"/>
<path id="Dot (87)" d="M299.291 91.1655C299.291 91.9673 299.643 92.7359 300.27 93.3028C300.897 93.8698 301.747 94.1885 302.634 94.1885C303.52 94.1885 304.371 93.8698 304.998 93.3028C305.624 92.7359 305.976 91.9673 305.976 91.1655C305.976 90.3638 305.624 89.5951 304.998 89.0282C304.371 88.4613 303.52 88.1426 302.634 88.1426C301.747 88.1426 300.897 88.4613 300.27 89.0282C299.643 89.5951 299.291 90.3638 299.291 91.1655Z" fill="#A6CEE3"/>
<path id="Dot (7)" d="M368.937 292.697C368.937 293.499 369.289 294.267 369.916 294.834C370.543 295.401 371.393 295.72 372.28 295.72C373.167 295.72 374.017 295.401 374.644 294.834C375.271 294.267 375.623 293.499 375.623 292.697C375.623 291.895 375.271 291.126 374.644 290.559C374.017 289.993 373.167 289.674 372.28 289.674C371.393 289.674 370.543 289.993 369.916 290.559C369.289 291.126 368.937 291.895 368.937 292.697Z" fill="#A6CEE3"/>
<path id="Dot (33)" d="M438.583 227.199C438.583 228 438.935 228.769 439.562 229.336C440.188 229.903 441.039 230.222 441.926 230.222C442.812 230.222 443.662 229.903 444.289 229.336C444.916 228.769 445.268 228 445.268 227.199C445.268 226.397 444.916 225.628 444.289 225.061C443.662 224.494 442.812 224.176 441.926 224.176C441.039 224.176 440.188 224.494 439.562 225.061C438.935 225.628 438.583 226.397 438.583 227.199Z" fill="#A6CEE3"/>
<path id="Dot (8)" d="M508.228 290.177C508.228 290.979 508.58 291.748 509.207 292.315C509.834 292.881 510.684 293.2 511.571 293.2C512.457 293.2 513.308 292.881 513.935 292.315C514.561 291.748 514.914 290.979 514.914 290.177C514.914 289.376 514.561 288.607 513.935 288.04C513.308 287.473 512.457 287.154 511.571 287.154C510.684 287.154 509.834 287.473 509.207 288.04C508.58 288.607 508.228 289.376 508.228 290.177Z" fill="#A6CEE3"/>
<path id="Dot (12)" d="M577.874 280.101C577.874 280.903 578.226 281.671 578.853 282.238C579.48 282.805 580.33 283.124 581.217 283.124C582.104 283.124 582.954 282.805 583.581 282.238C584.208 281.671 584.56 280.903 584.56 280.101C584.56 279.299 584.208 278.531 583.581 277.964C582.954 277.397 582.104 277.078 581.217 277.078C580.33 277.078 579.48 277.397 578.853 277.964C578.226 278.531 577.874 279.299 577.874 280.101Z" fill="#A6CEE3"/>
</g>
<g id="Vector 27">
<path d="M450.237 213.11L439.994 219.405V213.11H436.311C433.713 213.11 431.606 211.003 431.606 208.405V191.189C431.606 188.591 433.713 186.484 436.311 186.484H467.104C469.702 186.484 471.809 188.591 471.809 191.189V208.405C471.809 211.003 469.702 213.11 467.104 213.11H450.237Z" fill="white"/>
<path d="M439.994 193.042V206.42H445.037M463.947 206.42H461.11M461.11 206.42V193.042H452.601V200.125M461.11 206.42H452.601M452.601 206.42H445.037M452.601 206.42V200.125M445.037 206.42V200.125H452.601M439.994 219.405L450.237 213.11H467.104C469.702 213.11 471.809 211.003 471.809 208.405V191.189C471.809 188.591 469.702 186.484 467.104 186.484H436.311C433.713 186.484 431.606 188.591 431.606 191.189V208.405C431.606 211.003 433.713 213.11 436.311 213.11H439.994V219.405Z" stroke="#4B0BBF" stroke-opacity="0.5" stroke-width="1.41145" stroke-linecap="round" stroke-linejoin="round"/>
</g>
<circle id="Ellipse 5087" cx="48.1211" cy="106.478" r="1.75589" stroke="#C5D2EB" stroke-width="0.877945"/>
<rect id="Rectangle 97" x="52.9497" y="181.545" width="37.6386" height="2.8229" fill="#C5D2EB"/>
<rect id="Rectangle 98" x="52.9497" y="190.512" width="37.6386" height="2.8229" fill="#C5D2EB"/>
<rect id="Rectangle 99" x="52.9497" y="199.479" width="37.6386" height="2.8229" fill="#C5D2EB"/>
<rect id="Rectangle 95" x="52.9497" y="215.783" width="37.6386" height="2.8229" fill="#C5D2EB"/>
<rect id="Rectangle 100" x="52.9497" y="232.465" width="37.6386" height="2.8229" fill="#C5D2EB"/>
<rect id="Rectangle 89" x="128.453" y="156.961" width="65.8459" height="2.63383" transform="rotate(-90 128.453 156.961)" fill="#FFD4BE"/>
<rect id="Rectangle 90" x="123.186" y="156.961" width="65.8459" height="2.63383" transform="rotate(-90 123.186 156.961)" fill="#FFD4BE"/>
<rect id="Rectangle 91" x="127.575" y="249.297" width="80.923" height="2.8229" transform="rotate(-90 127.575 249.297)" fill="#FFD4BE"/>
<path id="Line" d="M163.28 245.167C163.28 245.167 278 130.442 359 117.001C451 101.734 537.443 130.442 537.443 130.442" stroke="#F2C88C" stroke-width="1.75589"/>
<g id="Group 67">
<circle id="Ellipse 5086" cx="48.2539" cy="115.697" r="2.19486" fill="#DAD9FF"/>
<circle id="Ellipse 5088" cx="46.6792" cy="184.177" r="2.19486" fill="#DAD9FF"/>
<circle id="Ellipse 5090" cx="46.6792" cy="200.857" r="2.19486" fill="#DAD9FF"/>
<circle id="Ellipse 5091" cx="46.6792" cy="234.218" r="2.19486" fill="#DAD9FF"/>
<circle id="Ellipse 5089" cx="46.6792" cy="217.539" r="1.75589" stroke="#C5D2EB" stroke-width="0.877945"/>
<path id="Vector 32" d="M138.11 81.459H41.5362C40.5664 81.459 39.7803 82.2451 39.7803 83.2149V295.239C39.7803 296.208 40.5664 296.994 41.5362 296.994H138.11C139.08 296.994 139.866 296.208 139.866 295.239V83.2149C139.866 82.2451 139.08 81.459 138.11 81.459Z" stroke="#FFD4BE" stroke-width="1.31692"/>
<rect id="Rectangle 85" x="44.5811" y="92.4316" width="31.7615" height="4.38972" fill="#C5D2EB"/>
<rect id="Rectangle 88" x="44.5811" y="135.453" width="31.7615" height="4.38972" fill="#C5D2EB"/>
<rect id="Rectangle 90_2" x="44.5811" y="167.934" width="31.7615" height="4.38972" fill="#C5D2EB"/>
<rect id="Rectangle 89_2" x="44.5811" y="147.742" width="59.0912" height="2.63383" fill="#C5D2EB"/>
<rect id="Rectangle 86" x="51.9683" y="104.723" width="31.6664" height="2.8229" fill="#C5D2EB"/>
<rect id="Rectangle 87" x="51.9683" y="114.381" width="31.6664" height="2.8229" fill="#C5D2EB"/>
</g>
<rect x="10.4705" y="20.4705" width="601.059" height="379.059" rx="8.93917" stroke="#EBEBEB" stroke-width="0.940966"/>
</g>
</g>
<defs>
<filter id="filter0_d_1372_9785" x="0.590343" y="12.4723" width="620.819" height="398.819" filterUnits="userSpaceOnUse" color-interpolation-filters="sRGB">
<feFlood flood-opacity="0" result="BackgroundImageFix"/>
<feColorMatrix in="SourceAlpha" type="matrix" values="0 0 0 0 0 0 0 0 0 0 0 0 0 0 0 0 0 0 127 0" result="hardAlpha"/>
<feOffset dy="1.88193"/>
<feGaussianBlur stdDeviation="4.70483"/>
<feComposite in2="hardAlpha" operator="out"/>
<feColorMatrix type="matrix" values="0 0 0 0 0 0 0 0 0 0 0 0 0 0 0 0 0 0 0.1 0"/>
<feBlend mode="normal" in2="BackgroundImageFix" result="effect1_dropShadow_1372_9785"/>
<feBlend mode="normal" in="SourceGraphic" in2="effect1_dropShadow_1372_9785" result="shape"/>
</filter>
</defs>
</svg>
