<svg width="660" height="729" viewBox="0 0 660 729" fill="none" xmlns="http://www.w3.org/2000/svg">
<g id="Group 1000006125">
<g id="Group" opacity="0.2">
<path id="Vector" opacity="0.55" d="M422.631 102.667L458.025 98.7218C446.144 98.5418 434.237 99.869 422.631 102.667Z" fill="url(#paint0_linear_1532_7309)"/>
<path id="Vector_2" opacity="0.55" d="M503.928 113.46L371.437 128.221C369.073 129.332 366.713 130.47 364.358 131.637L507.805 115.648C506.591 114.907 505.305 114.176 503.928 113.46Z" fill="url(#paint1_linear_1532_7309)"/>
<path id="Vector_3" opacity="0.55" d="M525.182 134.33L335.301 155.637L329.496 158.861L526.211 136.758C525.876 136.005 525.549 135.162 525.182 134.33Z" fill="url(#paint2_linear_1532_7309)"/>
<path id="Vector_4" opacity="0.55" d="M532.311 158.325L303.591 184.085L297.851 187.345L531.925 160.971C532.064 160.09 532.191 159.202 532.311 158.325Z" fill="url(#paint3_linear_1532_7309)"/>
<path id="Vector_5" opacity="0.55" d="M533.822 184.263L269.541 214.014C267.121 215.211 264.76 216.366 262.458 217.479L533.069 186.998C533.341 186.061 533.579 185.153 533.822 184.263Z" fill="url(#paint4_linear_1532_7309)"/>
<path id="Vector_6" opacity="0.55" d="M535.077 215.224L207.061 252.019C202.049 253.468 197.031 254.91 192.008 256.343L534.662 217.914C534.752 217.008 534.906 216.104 535.077 215.224Z" fill="url(#paint5_linear_1532_7309)"/>
<path id="Vector_7" opacity="0.55" d="M538.235 245.236L132.641 290.679C130.035 291.799 127.455 292.964 124.902 294.175L537.99 247.888C538.065 247.006 538.14 246.123 538.235 245.236Z" fill="url(#paint6_linear_1532_7309)"/>
<path id="Vector_8" opacity="0.55" d="M542.567 269.502L100.19 318.997C98.8347 320.009 97.4913 321.027 96.1777 322.076L542.416 272.109C542.489 271.257 542.525 270.385 542.567 269.502Z" fill="url(#paint7_linear_1532_7309)"/>
<path id="Vector_9" opacity="0.55" d="M547.635 291.523L84.4883 343.351C83.6516 344.321 82.8347 345.285 82.0303 346.256L547.617 294.153L547.635 291.523Z" fill="url(#paint8_linear_1532_7309)"/>
<path id="Vector_10" opacity="0.55" d="M553.04 312.485L76.407 365.818C75.8323 366.737 75.2502 367.667 74.7426 368.637L553.035 315.122C553.026 314.242 553.029 313.37 553.04 312.485Z" fill="url(#paint9_linear_1532_7309)"/>
<path id="Vector_11" opacity="0.55" d="M558.378 332.978L72.3645 387.32C71.9505 388.244 71.5439 389.157 71.1423 390.087L558.328 335.606L558.378 332.978Z" fill="url(#paint10_linear_1532_7309)"/>
<path id="Vector_12" opacity="0.55" d="M563.27 353.243L70.7185 408.306C70.396 409.215 70.0858 410.131 69.7757 411.047L563.121 355.898L563.27 353.243Z" fill="url(#paint11_linear_1532_7309)"/>
<path id="Vector_13" opacity="0.55" d="M567.339 373.529L70.5509 429.073C70.3001 429.973 70.0295 430.878 69.7713 431.789L567.027 376.208C567.129 375.309 567.224 374.422 567.339 373.529Z" fill="url(#paint12_linear_1532_7309)"/>
<path id="Vector_14" opacity="0.55" d="M570.185 393.987L71.1952 449.8L70.4654 452.543L569.635 396.73C569.836 395.804 569.991 394.901 570.185 393.987Z" fill="url(#paint13_linear_1532_7309)"/>
<path id="Vector_15" opacity="0.55" d="M571.957 414.714L72.1721 470.597L71.5162 473.3L571.271 417.386L571.957 414.714Z" fill="url(#paint14_linear_1532_7309)"/>
<path id="Vector_16" opacity="0.55" d="M572.7 435.606L73.6224 491.419L73.0778 494.102L571.849 438.332C572.139 437.422 572.429 436.511 572.7 435.606Z" fill="url(#paint15_linear_1532_7309)"/>
<path id="Vector_17" opacity="0.55" d="M572.16 456.702L75.9625 512.187C75.828 513.085 75.7009 513.971 75.5861 514.864L571.101 459.444C571.456 458.536 571.818 457.616 572.16 456.702Z" fill="url(#paint16_linear_1532_7309)"/>
<path id="Vector_18" opacity="0.55" d="M570.088 477.996L79.513 532.833L79.3715 535.476L568.75 480.765C569.196 479.842 569.654 478.925 570.088 477.996Z" fill="url(#paint17_linear_1532_7309)"/>
<path id="Vector_19" opacity="0.55" d="M566.086 499.5L84.9174 553.362C84.9658 554.23 85.034 555.093 85.1022 555.957L564.414 502.329C564.984 501.393 565.534 500.461 566.086 499.5Z" fill="url(#paint18_linear_1532_7309)"/>
<path id="Vector_20" opacity="0.55" d="M559.608 521.353L92.5182 573.636C92.7027 574.497 92.8848 575.388 93.1185 576.197L557.476 524.209C558.194 523.271 558.907 522.316 559.608 521.353Z" fill="url(#paint19_linear_1532_7309)"/>
<path id="Vector_21" opacity="0.55" d="M549.63 543.633L103.132 593.533L104.266 596.028L546.82 546.572C547.773 545.601 548.764 544.649 549.63 543.633Z" fill="url(#paint20_linear_1532_7309)"/>
<path id="Vector_22" opacity="0.55" d="M534.29 566.705L117.65 613.226C118.258 614.042 118.885 614.852 119.52 615.651L530.406 569.756C531.71 568.749 533.015 567.743 534.29 566.705Z" fill="url(#paint21_linear_1532_7309)"/>
<path id="Vector_23" opacity="0.55" d="M510.172 591.257L137.663 632.719C138.622 633.499 139.589 634.267 140.583 635.018L504.431 594.511C506.396 593.396 508.308 592.315 510.172 591.257Z" fill="url(#paint22_linear_1532_7309)"/>
<path id="Vector_24" opacity="0.55" d="M469.032 618.778L166.173 652.479C167.736 653.213 169.309 653.906 170.91 654.582L458.993 622.525C462.356 621.311 465.703 620.062 469.032 618.778Z" fill="url(#paint23_linear_1532_7309)"/>
<path id="Vector_25" opacity="0.55" d="M377.225 656.631L213.281 674.881C216.995 675.45 220.725 675.907 224.469 676.253L351.472 662.126C360.015 660.351 368.599 658.519 377.225 656.631Z" fill="url(#paint24_linear_1532_7309)"/>
</g>
<g id="&#208;&#159;&#208;&#176;&#208;&#178;&#208;&#181;&#208;&#187;7 1" clip-path="url(#clip0_1532_7309)">
<g id="&#208;&#161;&#208;&#187;&#208;&#190;&#208;&#185;_x0020_1">
<path id="Vector_26" fill-rule="evenodd" clip-rule="evenodd" d="M249.466 393.2C250.03 410.578 247.512 418.982 260.556 423.922C260.556 429.801 265.196 433.49 270.942 434.293C292.045 437.246 328.351 438.739 355.497 438.768C382.639 438.739 418.655 437.246 439.761 434.293C445.507 433.49 450.148 429.801 450.148 423.922C463.191 418.982 460.96 410.578 461.528 393.2L461.534 357.381C499.885 350.177 528.898 308.81 504.919 256.964C471.998 185.785 464.949 178.807 413.196 178.807C404.809 166.634 400.968 155.006 381.584 155.006H329.419C310.035 155.006 306.191 166.634 297.804 178.807C246.051 178.807 232.849 190.074 200.615 261.569C181.989 302.883 193.45 361.769 249.472 357.377V393.197L249.466 393.2Z" fill="#FF0028"/>
<path id="Vector_27" fill-rule="evenodd" clip-rule="evenodd" d="M381.578 176.017V167.752C394.989 170.461 403.877 176.291 403.877 185.539C403.877 193.636 397.998 202.382 388.592 209.128C387.492 209.918 386.247 210.182 384.919 209.915C383.59 209.644 382.552 208.915 381.846 207.757L381.23 206.748L381.462 206.626C374.68 210.176 365.545 212.353 355.494 212.353C345.558 212.353 336.516 210.224 329.757 206.748L329.141 207.761C328.435 208.918 327.394 209.647 326.068 209.918C324.74 210.189 323.498 209.921 322.395 209.131C312.989 202.385 307.11 193.636 307.11 185.543C307.11 176.294 315.998 170.461 329.409 167.755V176.02H381.575L381.578 176.017Z" fill="#D90324"/>
<path id="Vector_28" fill-rule="evenodd" clip-rule="evenodd" d="M386.529 184.564C387.997 186.651 388.803 188.921 388.803 191.298C388.803 201.523 373.892 209.81 355.495 209.81C337.101 209.81 322.19 201.523 322.19 191.298C322.19 188.921 322.997 186.651 324.464 184.564H386.529Z" fill="#AD041E"/>
<path id="Vector_29" d="M303.572 353.994H409.184" stroke="#D90324" stroke-width="2.81837" stroke-miterlimit="22.9256" stroke-linecap="round" stroke-linejoin="round"/>
<path id="Vector_30" d="M409.185 353.995L413.032 343.621" stroke="#D90324" stroke-width="2.81837" stroke-miterlimit="22.9256" stroke-linecap="round" stroke-linejoin="round"/>
<path id="Vector_31" d="M409.185 353.994L426.553 390.101C432.218 401.561 438.874 401.848 444.095 402.548" stroke="#D90324" stroke-width="2.81837" stroke-miterlimit="22.9256" stroke-linecap="round" stroke-linejoin="round"/>
<path id="Vector_32" d="M303.573 353.994L286.204 390.101C280.539 401.561 273.883 401.848 268.662 402.548" stroke="#D90324" stroke-width="2.81837" stroke-miterlimit="22.9256" stroke-linecap="round" stroke-linejoin="round"/>
<path id="Vector_33" fill-rule="evenodd" clip-rule="evenodd" d="M329.41 151.656H381.576V184.493C381.576 198.84 369.838 205.879 355.495 205.879C341.148 205.879 329.413 198.837 329.413 184.493V151.656H329.41Z" fill="#EBA884"/>
<path id="Vector_34" fill-rule="evenodd" clip-rule="evenodd" d="M268.977 445.539L246.553 732.794H326.625L355.495 523.631L384.366 732.794H466.676L444.152 445.539L443.239 429.454L394.482 429.109L355.618 433.263L317.199 432.702L269.89 429.18L268.977 445.539Z" fill="#6934D9"/>
<path id="Vector_35" fill-rule="evenodd" clip-rule="evenodd" d="M388.89 731.957L355.666 523.178L384.366 731.85L388.89 731.957Z" fill="#2B0087"/>
<path id="Vector_36" d="M387.239 730.512L375.159 654.603L385.594 730.477L387.239 730.515V730.512ZM390.012 732.798H383.327C383.14 732.595 383.011 732.334 382.973 732.037L354.273 523.365C354.173 522.614 354.692 521.911 355.444 521.791C356.208 521.669 356.93 522.191 357.05 522.959C367.836 592.573 379.203 662.162 390.273 731.734C390.286 731.815 390.293 731.899 390.29 731.983C390.283 732.289 390.18 732.569 390.009 732.798H390.012Z" fill="#2B0087"/>
<path id="Vector_37" d="M462.689 732.68C462.693 732.722 462.696 732.76 462.696 732.802H459.884L435.363 458.649L435.357 458.527H435.351V432.655C435.351 431.878 435.983 431.246 436.76 431.246C437.537 431.246 438.169 431.878 438.169 432.655V458.527L462.689 732.68Z" fill="#2B0087"/>
<path id="Vector_38" d="M439.706 492.313L434.066 490.001L424.705 433.043" stroke="#2B0087" stroke-width="2.81837" stroke-miterlimit="22.9256" stroke-linecap="round" stroke-linejoin="round"/>
<path id="Vector_39" d="M362.195 497.551L362.463 435.656" stroke="#2B0087" stroke-width="2.81837" stroke-miterlimit="22.9256" stroke-linecap="round" stroke-linejoin="round"/>
<path id="Vector_40" d="M349.441 471.724L349.709 435.656" stroke="#2B0087" stroke-width="2.81837" stroke-miterlimit="22.9256" stroke-linecap="round" stroke-linejoin="round"/>
<path id="Vector_41" d="M250.182 732.793C250.182 732.754 250.185 732.712 250.188 732.67L274.709 458.517V432.646C274.709 431.868 275.341 431.236 276.118 431.236C276.895 431.236 277.527 431.868 277.527 432.646V458.517H277.521L277.514 458.64L252.994 732.793H250.182Z" fill="#2B0087"/>
<path id="Vector_42" d="M273.167 492.313L278.807 490.001L288.168 433.043" stroke="#2B0087" stroke-width="2.81837" stroke-miterlimit="22.9256" stroke-linecap="round" stroke-linejoin="round"/>
<path id="Vector_43" fill-rule="evenodd" clip-rule="evenodd" d="M450.079 425.087C449.509 430.288 445.113 433.542 439.754 434.29C418.652 437.244 387.827 438.737 360.681 438.766C333.539 438.737 290.599 438.64 269.497 435.683C263.751 434.88 260.552 429.927 260.552 424.045C289.368 427.724 316.045 428.26 358.847 427.373C401.648 426.486 435.459 423.329 450.141 423.916C450.089 424.313 450.07 424.703 450.076 425.083L450.079 425.087Z" fill="#2B0087"/>
<path id="Vector_44" d="M364.504 219.977C364.346 219.213 364.836 218.465 365.601 218.307C366.365 218.149 367.113 218.639 367.271 219.403C373.211 247.703 372.173 261.66 370.873 279.105L370.87 279.137C370.599 282.765 370.318 286.548 370.093 290.504C369.654 298.24 369.883 304.135 370.457 308.866C371.486 309.133 372.337 309.946 372.601 311.046L374.93 320.781C375.194 321.893 374.791 323.016 373.978 323.715C374.562 325.541 375.107 327.285 375.529 329.12C375.704 329.881 375.226 330.639 374.465 330.813C373.704 330.987 372.946 330.51 372.772 329.749C372.35 327.911 371.795 326.157 371.199 324.306C370.218 324.012 369.412 323.219 369.161 322.155L366.832 312.419C366.578 311.352 366.942 310.275 367.69 309.569C367.068 304.635 366.81 298.476 367.271 290.343C367.506 286.196 367.784 282.485 368.048 278.918L368.051 278.886C369.335 261.653 370.36 247.868 364.504 219.971V219.977Z" fill="#FF5E04"/>
<path id="Vector_45" d="M344.313 313.174C344.694 311.58 343.712 309.979 342.119 309.598C340.527 309.217 338.926 310.2 338.545 311.795L336.218 321.525C335.837 323.119 336.819 324.72 338.412 325.101C340.005 325.482 341.605 324.498 341.986 322.904L344.313 313.174Z" fill="#FF5E04"/>
<g id="Group_2">
<path id="Vector_46" d="M343.876 220.145C344.037 219.381 344.788 218.891 345.552 219.052C346.317 219.213 346.81 219.962 346.649 220.726L343.876 220.145ZM343.882 291.095L341.054 291.256L340.925 289.079L340.786 286.958L340.644 284.884L340.499 282.853L340.351 280.856L340.206 278.893L340.064 276.951L339.925 275.033L339.796 273.127L339.677 271.228L339.567 269.331L339.474 267.432L339.397 265.523L339.335 263.598L339.297 261.653L339.28 259.683L339.29 257.684L339.326 255.646L339.39 253.566L339.487 251.438L339.616 249.258L339.78 247.017L339.983 244.711L340.228 242.338L340.515 239.887L340.848 237.355L341.225 234.737L341.651 232.025L342.128 229.216L342.657 226.304L343.24 223.283L343.882 220.145L346.655 220.726L346.02 223.834L345.443 226.827L344.92 229.707L344.45 232.483L344.03 235.159L343.66 237.739L343.334 240.232L343.053 242.644L342.811 244.979L342.612 247.242L342.447 249.442L342.318 251.583L342.225 253.669L342.16 255.71L342.125 257.71L342.115 259.674L342.131 261.608L342.17 263.521L342.228 265.413L342.305 267.297L342.399 269.173L342.505 271.05L342.624 272.933L342.753 274.83L342.889 276.742L343.031 278.677L343.176 280.64L343.324 282.64L343.469 284.678L343.611 286.761L343.75 288.896L343.879 291.088L343.882 291.095ZM338.378 330.5L335.617 329.865L335.82 329.027L336.036 328.201L336.265 327.382L336.504 326.57L336.752 325.76L337.007 324.948L337.268 324.132L337.533 323.306L337.8 322.471L338.068 321.62L338.336 320.749L338.6 319.853L338.861 318.93L339.116 317.976L339.364 316.986L339.603 315.96L339.832 314.89L340.051 313.774L340.258 312.607L340.451 311.388L340.628 310.111L340.786 308.773L340.925 307.37L341.044 305.899L341.141 304.358L341.215 302.739L341.264 301.04L341.283 299.26L341.273 297.393L341.231 295.438L341.16 293.391L341.054 291.246L343.882 291.085L343.992 293.268L344.066 295.358L344.108 297.357L344.117 299.266L344.098 301.091L344.05 302.836L343.976 304.503L343.876 306.096L343.753 307.618L343.608 309.072L343.444 310.462L343.26 311.794L343.06 313.068L342.844 314.287L342.615 315.454L342.373 316.573L342.121 317.647L341.863 318.679L341.599 319.672L341.328 320.63L341.057 321.555L340.783 322.452L340.512 323.319L340.241 324.164L339.977 324.989L339.719 325.799L339.467 326.595L339.226 327.379L338.997 328.156L338.781 328.93L338.577 329.707L338.387 330.488L338.378 330.5ZM338.378 330.5C338.203 331.261 337.442 331.739 336.678 331.561C335.917 331.387 335.44 330.626 335.614 329.865L338.374 330.5H338.378Z" fill="#FF5E04"/>
</g>
<path id="Vector_47" fill-rule="evenodd" clip-rule="evenodd" d="M322 731.957L355.224 523.178L326.527 731.85L322 731.957Z" fill="#2B0087"/>
<path id="Vector_48" d="M323.651 730.512L335.731 654.603L325.296 730.477L323.651 730.515V730.512ZM320.878 732.798H327.563C327.75 732.595 327.879 732.334 327.917 732.037L356.617 523.365C356.717 522.614 356.198 521.911 355.446 521.791C354.682 521.669 353.96 522.191 353.84 522.959C343.054 592.573 331.687 662.162 320.617 731.734C320.604 731.815 320.597 731.899 320.6 731.983C320.607 732.289 320.71 732.569 320.881 732.798H320.878Z" fill="#2B0087"/>
<path id="Vector_49" fill-rule="evenodd" clip-rule="evenodd" d="M395.358 96.7212V96.7277L395.325 121.538C395.325 143.557 377.477 161.405 355.459 161.405C333.44 161.405 315.592 143.557 315.592 121.538V98.2014V94.8574V67.367C315.592 67.367 329.116 49.9279 338.655 51.8562C344.359 54.6488 352.376 55.9225 359.025 55.2228C363.962 54.7036 368.154 53.2525 370.263 51.8852C374.762 48.9701 391.417 65.5579 395.429 68.2537C395.516 74.4226 395.47 84.8673 395.329 96.3601C395.329 96.4891 395.338 96.6084 395.358 96.7212Z" fill="#EBA884"/>
<path id="Vector_50" fill-rule="evenodd" clip-rule="evenodd" d="M306.514 90.1367C304.647 91.5201 303.435 93.7355 303.435 96.2281V105.477C303.435 112.181 308.894 117.595 315.588 117.595V90.1367H306.511H306.514Z" fill="#EBA884"/>
<path id="Vector_51" fill-rule="evenodd" clip-rule="evenodd" d="M402.452 90.1367C405.009 90.1367 407.492 92.9454 407.492 96.2281V105.477C407.492 112.184 402.03 117.595 395.332 117.595L395.397 90.1367H402.455H402.452Z" fill="#EBA884"/>
<path id="Vector_52" fill-rule="evenodd" clip-rule="evenodd" d="M315.592 67.3631V94.8535V98.1975C315.592 98.1975 305.725 100.032 306.566 88.6815C307.408 77.3306 303.277 67.6146 307.966 57.5826C312.655 47.5506 315.034 44.9064 320.923 42.3621C320.936 40.4854 314.957 27.5769 324.338 18.1738C333.718 8.77059 344.415 21.579 344.118 22.2465C343.821 22.9141 365.369 22.9947 379.834 30.979C394.297 38.9601 402.217 48.4858 402.462 66.1313C402.707 83.7767 403.113 79.9361 402.107 94.1731C401.817 98.262 395.329 99.6261 395.329 96.3627C395.471 84.8667 395.513 74.4251 395.429 68.2563C391.418 65.5605 374.762 48.9727 370.264 51.8878C368.155 53.2551 363.966 54.7062 359.026 55.2254C352.376 55.9251 344.36 54.6514 338.655 51.8588C329.113 49.9305 315.592 67.3695 315.592 67.3695V67.3631Z" fill="#241813"/>
<path id="Vector_53" d="M307.979 101.746C307.979 101.746 306.411 110.137 311.003 112.062" stroke="#C98560" stroke-width="1.38661" stroke-miterlimit="22.9256" stroke-linecap="round" stroke-linejoin="round"/>
<path id="Vector_54" d="M356.97 139.734C355.451 139.734 353.933 139.734 352.417 139.734C351.637 139.734 352.63 142.134 353.4 142.134C354.919 142.134 356.438 142.134 357.947 142.134C358.734 142.134 357.734 139.734 356.97 139.734Z" fill="black"/>
<path id="Vector_55" fill-rule="evenodd" clip-rule="evenodd" d="M381.576 151.659V165.019C374.656 178.676 338.162 184.629 329.41 152.314V151.714C336.398 157.751 345.485 161.401 355.459 161.401C365.433 161.401 374.582 157.725 381.576 151.656V151.659Z" fill="#C98560"/>
<path id="Vector_56" d="M313.466 26.1743C313.785 25.3681 314.069 25.0747 314.785 25.0392C315.41 25.0295 315.72 25.5132 315.729 26.1388C315.729 26.1807 314.768 41.2852 322.621 42.8814C323.233 43.0039 323.63 43.6005 323.507 44.2132C323.385 44.8259 320.518 47.0283 319.905 46.9058C310.247 44.9452 312.482 28.6928 313.466 26.1743Z" fill="#241813"/>
<path id="Vector_57" d="M354.756 93.7901C354.772 99.1914 355.285 104.573 355.253 109.988C355.23 112.941 356.759 115.953 356.059 118.836C355.646 120.555 353.353 122.89 351.37 123.273C350.687 123.406 351.393 124.054 351.638 124.199C352.231 124.544 352.954 124.721 353.628 124.589C355.595 124.209 358.081 122.3 358.642 120.555C359.538 117.746 357.991 114.667 358.055 111.739C358.184 106.028 357.591 100.356 357.575 94.6543C357.568 93.6837 354.753 93.1516 354.756 93.7901Z" fill="black"/>
<path id="Vector_58" d="M402.649 101.746C402.649 101.746 404.216 110.137 399.624 112.062" stroke="#C98560" stroke-width="1.38661" stroke-miterlimit="22.9256" stroke-linecap="round" stroke-linejoin="round"/>
<path id="Vector_59" d="M356.97 139.734C355.451 139.734 353.933 139.734 352.417 139.734C351.637 139.734 352.63 142.134 353.4 142.134C354.919 142.134 356.438 142.134 357.947 142.134C358.734 142.134 357.734 139.734 356.97 139.734Z" fill="black"/>
<path id="Vector_60" d="M403.364 86.7709C403.983 86.9515 404.341 87.5996 404.164 88.2188C403.983 88.8379 403.335 89.1959 402.716 89.0185L392.748 86.1292C393.271 87.9189 393.271 89.7279 393.271 91.2887C393.271 93.7556 393.271 97.4414 391.165 100.634C389.063 103.823 384.945 106.371 376.828 106.371C368.715 106.371 364.597 103.823 362.494 100.634C360.389 97.4414 360.389 93.7588 360.389 91.2887L360.392 90.5631C358.696 89.6054 357.051 89.1636 355.452 89.1862C353.888 89.2055 352.333 89.6731 350.792 90.5309L350.795 91.2887C350.795 93.7588 350.795 97.4414 348.689 100.627C346.587 103.81 342.469 106.351 334.356 106.351C326.239 106.351 322.121 103.81 320.022 100.627C317.916 97.4414 317.916 93.7588 317.916 91.2887C317.916 89.686 317.916 87.8286 318.416 86.026L306.053 89.0314C305.424 89.183 304.792 88.796 304.64 88.1704C304.489 87.5416 304.876 86.9096 305.501 86.758L319.674 83.314C321.618 80.5344 325.717 78.3867 334.356 78.3867C342.411 78.3867 346.513 80.3409 348.622 82.9367C349.912 84.5233 350.437 86.2807 350.65 87.9737C352.208 87.2546 353.801 86.8676 355.426 86.8451C357.106 86.8225 358.805 87.1933 360.521 87.9931C361.043 83.3721 363.662 78.3867 376.831 78.3867C384.887 78.3867 388.988 80.3409 391.097 82.9367C391.191 83.0528 391.284 83.1722 391.368 83.2882L403.367 86.7677L403.364 86.7709ZM389.275 84.4137C387.569 82.3144 384.035 80.7343 376.825 80.7343C362.733 80.7343 362.733 87.0934 362.733 91.2887C362.733 93.4815 362.733 96.7545 364.445 99.3472C366.158 101.946 369.676 104.02 376.828 104.02C383.98 104.02 387.495 101.943 389.211 99.3472C390.92 96.7513 390.923 93.4815 390.923 91.2887C390.923 89.141 390.923 86.4355 389.282 84.4137H389.275ZM346.8 84.4137C345.094 82.3144 341.56 80.7343 334.349 80.7343C320.257 80.7343 320.257 87.0934 320.257 91.2887C320.257 93.4782 320.257 96.7448 321.97 99.3343C323.685 101.93 327.2 104.004 334.353 104.004C341.502 104.004 345.02 101.93 346.735 99.3343C348.448 96.7448 348.448 93.4782 348.448 91.2887C348.448 89.141 348.448 86.4355 346.803 84.4137H346.8Z" fill="#160045"/>
<path id="Vector_61" d="M348.853 67.5105C345.912 68.1522 341.571 68.1458 338.266 66.685C334.961 65.2242 332.484 66.6431 330.304 68.4586C328.124 70.2741 329.285 71.6542 332.204 71.7381C335.122 71.8219 338.24 72.7377 342.822 73.6439C347.401 74.55 350.529 72.4991 351.842 70.0129C353.158 67.5266 351.793 66.8688 348.853 67.5105Z" fill="#241813"/>
<path id="Vector_62" fill-rule="evenodd" clip-rule="evenodd" d="M398.536 244.457L412.383 278.551C417.014 289.95 411.525 303.194 400.074 307.696L280.819 354.612C259.994 362.925 236.141 352.957 227.702 332.181C219.263 311.404 229.266 287.274 250.13 279.064L369.385 232.148C380.784 227.517 393.899 233.057 398.53 244.457H398.536Z" fill="#FF0028"/>
<path id="Vector_63" fill-rule="evenodd" clip-rule="evenodd" d="M413.526 282.134L398.386 244.099L407.666 240.316L423.1 278.303L413.526 282.134Z" fill="#D90324"/>
<g id="Group_3">
<path id="Vector_64" fill-rule="evenodd" clip-rule="evenodd" d="M419.324 235.567L446.333 209.373L461.254 191.398L459.709 222.085C465.994 221.388 468.939 228.763 465.411 234.383L461.725 240.739C455.553 259.549 453.147 267.517 438.894 272.531L423.1 278.307L407.663 240.323L419.324 235.57V235.567Z" fill="#EBA884"/>
<path id="Vector_65" fill-rule="evenodd" clip-rule="evenodd" d="M436.486 232.441L472.419 189.479C477.437 182.688 487.756 189.872 481.787 197.647L446.731 242.541L436.486 232.441Z" fill="#EBA884"/>
<path id="Vector_66" fill-rule="evenodd" clip-rule="evenodd" d="M431.364 227.388L474.643 174.942C479.66 168.151 489.979 175.335 484.01 183.11L441.609 237.488L431.364 227.388Z" fill="#EBA884"/>
<path id="Vector_67" fill-rule="evenodd" clip-rule="evenodd" d="M438.313 234.24L458.932 210.723C463.95 203.928 474.269 211.116 468.3 218.891L448.558 244.34L438.313 234.24Z" fill="#EBA884"/>
<path id="Vector_68" d="M438.313 234.24L458.932 210.723C463.95 203.928 474.269 211.116 468.3 218.891L448.558 244.34" stroke="#C98560" stroke-width="1.40919" stroke-miterlimit="22.9256" stroke-linecap="round" stroke-linejoin="round"/>
<path id="Vector_69" d="M444.64 266.847C448.787 261.569 449.406 250.679 448.474 247.986" stroke="#C98560" stroke-width="1.39306" stroke-miterlimit="22.9256" stroke-linecap="round" stroke-linejoin="round"/>
<path id="Vector_70" d="M452.875 211.76L473.494 188.242" stroke="#C98560" stroke-width="1.40919" stroke-miterlimit="22.9256" stroke-linecap="round" stroke-linejoin="round"/>
</g>
<path id="Vector_71" d="M246.506 271.644C254.548 269.312 261.991 269.387 268.875 271.692L369.392 232.148C380.791 227.517 393.906 233.057 398.537 244.457L412.384 278.551C417.014 289.95 411.526 303.194 400.075 307.696L331.038 334.857" stroke="#D90324" stroke-width="2.81837" stroke-miterlimit="22.9256" stroke-linecap="round" stroke-linejoin="round"/>
<path id="Vector_72" fill-rule="evenodd" clip-rule="evenodd" d="M311.994 244.457L298.147 278.551C293.516 289.95 299.005 303.194 310.455 307.696L429.711 354.612C450.536 362.925 474.389 352.957 482.828 332.181C491.267 311.404 481.264 287.274 460.4 279.064L341.145 232.148C329.746 227.517 316.631 233.057 312 244.457H311.994Z" fill="#FF0028"/>
<path id="Vector_73" fill-rule="evenodd" clip-rule="evenodd" d="M297.001 282.134L312.141 244.099L302.863 240.316L287.427 278.303L297.001 282.134Z" fill="#D90324"/>
<g id="Group_4">
<path id="Vector_74" fill-rule="evenodd" clip-rule="evenodd" d="M291.204 235.567L264.194 209.373L249.273 191.398L250.818 222.085C244.533 221.388 241.589 228.763 245.116 234.383L248.802 240.739C254.974 259.549 257.38 267.517 271.633 272.531L287.427 278.307L302.864 240.323L291.204 235.57V235.567Z" fill="#EBA884"/>
<path id="Vector_75" fill-rule="evenodd" clip-rule="evenodd" d="M274.043 232.441L238.11 189.479C233.092 182.688 222.773 189.872 228.742 197.647L263.798 242.541L274.043 232.441Z" fill="#EBA884"/>
<path id="Vector_76" fill-rule="evenodd" clip-rule="evenodd" d="M279.165 227.388L235.886 174.942C230.869 168.151 220.55 175.335 226.519 183.11L268.92 237.488L279.165 227.388Z" fill="#EBA884"/>
<path id="Vector_77" fill-rule="evenodd" clip-rule="evenodd" d="M272.216 234.24L251.597 210.723C246.58 203.928 236.261 211.116 242.23 218.891L261.971 244.34L272.216 234.24Z" fill="#EBA884"/>
<path id="Vector_78" d="M272.216 234.24L251.597 210.723C246.58 203.928 236.261 211.116 242.23 218.891L261.971 244.34" stroke="#C98560" stroke-width="1.40919" stroke-miterlimit="22.9256" stroke-linecap="round" stroke-linejoin="round"/>
<path id="Vector_79" d="M265.89 266.847C261.744 261.569 261.124 250.679 262.056 247.986" stroke="#C98560" stroke-width="1.39306" stroke-miterlimit="22.9256" stroke-linecap="round" stroke-linejoin="round"/>
<path id="Vector_80" d="M257.654 211.762L237.035 188.244" stroke="#C98560" stroke-width="1.40919" stroke-miterlimit="22.9256" stroke-linecap="round" stroke-linejoin="round"/>
</g>
<path id="Vector_81" d="M463.699 271.644C456.456 270.054 449.143 270.131 441.761 271.734L341.138 232.148C329.739 227.517 316.624 233.057 311.994 244.457L298.147 278.551C293.516 289.95 299.005 303.194 310.455 307.696L429.711 354.612" stroke="#D90324" stroke-width="2.81837" stroke-miterlimit="22.9256" stroke-linecap="round" stroke-linejoin="round"/>
<path id="Vector_82" d="M269.89 429.182L268.977 445.54L246.553 732.795H326.625L355.495 523.633L384.366 732.795H466.676L444.152 445.54L443.239 429.456" stroke="#2B0087" stroke-width="2.81837" stroke-miterlimit="22.9256" stroke-linecap="round" stroke-linejoin="round"/>
<path id="Vector_83" d="M386.663 223.496C402.164 216.873 412.754 204.293 412.754 193.826" stroke="#D90324" stroke-width="2.81837" stroke-miterlimit="22.9256" stroke-linecap="round" stroke-linejoin="round"/>
<path id="Vector_84" d="M324.084 223.435C308.661 216.796 298.139 204.261 298.139 193.826" stroke="#D90324" stroke-width="2.81837" stroke-miterlimit="22.9256" stroke-linecap="round" stroke-linejoin="round"/>
<path id="Vector_85" d="M303.573 353.994L299.604 343.162" stroke="#D90324" stroke-width="2.81837" stroke-miterlimit="22.9256" stroke-linecap="round" stroke-linejoin="round"/>
<path id="Vector_86" d="M369.003 90.5567C369.003 90.5567 372.295 86.471 377.174 89.5731" stroke="black" stroke-width="2.81837" stroke-miterlimit="22.9256" stroke-linecap="round" stroke-linejoin="round"/>
<path id="Vector_87" d="M342.014 90.5567C342.014 90.5567 338.722 86.471 333.843 89.5731" stroke="black" stroke-width="2.81837" stroke-miterlimit="22.9256" stroke-linecap="round" stroke-linejoin="round"/>
<path id="Vector_88" fill-rule="evenodd" clip-rule="evenodd" d="M192.36 298.514C191.854 330.826 209.08 360.538 249.463 357.375C249.628 355.659 249.715 353.918 249.715 352.157C249.715 322.461 225.642 298.389 195.946 298.389C194.74 298.389 193.544 298.434 192.36 298.511V298.514Z" fill="#FF6600"/>
<path id="Vector_89" fill-rule="evenodd" clip-rule="evenodd" d="M461.528 357.401V357.368C488.88 352.231 511.479 329.71 513.491 298.408C484.511 299.227 461.273 322.974 461.273 352.151C461.273 353.921 461.36 355.672 461.528 357.401Z" fill="#FF6600"/>
<path id="Vector_90" fill-rule="evenodd" clip-rule="evenodd" d="M461.528 357.392V357.376C461.967 357.296 462.402 357.208 462.837 357.115C463.012 357.08 463.186 357.038 463.36 356.999C463.615 356.944 463.873 356.889 464.127 356.831C464.34 356.783 464.556 356.728 464.769 356.676C464.988 356.625 465.208 356.573 465.424 356.515C465.633 356.464 465.843 356.406 466.056 356.351C466.275 356.293 466.494 356.235 466.714 356.177C466.91 356.122 467.107 356.067 467.304 356.009C467.539 355.941 467.771 355.877 468.003 355.806L468.587 355.628C468.813 355.561 469.035 355.49 469.258 355.419C469.458 355.354 469.654 355.29 469.854 355.225C470.08 355.151 470.306 355.077 470.528 355L471.109 354.796C471.331 354.719 471.557 354.638 471.78 354.558L472.357 354.342C472.576 354.261 472.795 354.177 473.011 354.093C473.211 354.016 473.414 353.935 473.614 353.855C473.814 353.774 474.014 353.694 474.214 353.61L474.853 353.342L475.446 353.087L476.033 352.826L476.678 352.533L477.232 352.275L477.848 351.978L478.438 351.688L478.993 351.407C479.203 351.301 479.416 351.191 479.625 351.082L480.135 350.811C480.354 350.695 480.57 350.575 480.786 350.456C480.947 350.366 481.109 350.275 481.27 350.185C481.495 350.059 481.718 349.934 481.94 349.805C482.082 349.724 482.221 349.64 482.363 349.556C482.598 349.418 482.831 349.282 483.063 349.14L483.508 348.866C483.73 348.728 483.953 348.592 484.175 348.45L484.533 348.221C486.155 347.177 487.732 346.058 489.254 344.871L489.477 344.697C489.751 344.481 490.022 344.261 490.292 344.042L490.483 343.891C490.75 343.671 491.015 343.449 491.276 343.226L491.486 343.049C491.74 342.83 491.995 342.607 492.247 342.385L492.469 342.188C492.714 341.972 492.953 341.749 493.195 341.53L493.446 341.298C493.669 341.092 493.888 340.882 494.11 340.669L494.41 340.382C494.633 340.166 494.855 339.947 495.078 339.724L495.32 339.482C495.549 339.253 495.774 339.021 495.997 338.786L496.229 338.541C496.455 338.302 496.681 338.06 496.903 337.818L497.109 337.593C497.335 337.344 497.561 337.093 497.783 336.841L497.977 336.622C498.199 336.364 498.422 336.109 498.644 335.848L498.825 335.632C499.051 335.361 499.276 335.09 499.499 334.816L499.634 334.649C499.867 334.362 500.095 334.071 500.321 333.778L500.421 333.649C500.66 333.339 500.898 333.027 501.131 332.711L501.16 332.669C505.29 327.087 508.551 320.731 510.705 313.737L510.708 313.73C512.614 307.529 513.652 300.828 513.639 293.714C513.017 293.692 512.391 293.676 511.762 293.676C483.234 293.676 460.109 316.803 460.109 345.332C460.109 349.482 460.603 353.513 461.525 357.379L461.528 357.405V357.389V357.392Z" fill="#FF6600"/>
<path id="Vector_91" d="M362.237 69.3914C365.177 70.0331 369.518 70.0266 372.823 68.5658C376.128 67.1051 378.605 68.5239 380.785 70.3394C382.965 72.1549 381.804 73.5351 378.886 73.6189C375.967 73.7028 372.849 74.6186 368.267 75.5247C363.688 76.4308 360.56 74.3799 359.247 71.8937C357.932 69.4075 359.296 68.7497 362.237 69.3914Z" fill="#241813"/>
<path id="Vector_92" d="M339.313 133.408C344.315 136.755 366.981 136.681 368.539 135.945C370.096 135.21 370.148 133.588 369.945 133.056C369.587 132.131 368.806 131.966 368.116 132.563C364.347 133.433 346.85 131.415 342.316 129.786C339.813 129.693 339.317 131.711 339.313 133.408Z" fill="black"/>
<path id="Vector_93" d="M368.558 132.287C368.409 132.345 368.261 132.435 368.116 132.561C364.52 133.393 348.436 131.594 343.025 130.014C342.883 130.388 342.844 130.936 342.963 131.391C346.033 134.66 365.965 135.138 368.958 133.761C368.903 133.161 368.806 132.645 368.558 132.287Z" fill="white"/>
</g>
</g>
</g>
<defs>
<linearGradient id="paint0_linear_1532_7309" x1="434.246" y1="87.6555" x2="450.683" y2="116.066" gradientUnits="userSpaceOnUse">
<stop stop-color="#6934DD"/>
<stop offset="1" stop-color="#FF0431"/>
</linearGradient>
<linearGradient id="paint1_linear_1532_7309" x1="411.499" y1="70.6537" x2="478.282" y2="185.835" gradientUnits="userSpaceOnUse">
<stop stop-color="#6934DD"/>
<stop offset="1" stop-color="#FF0431"/>
</linearGradient>
<linearGradient id="paint2_linear_1532_7309" x1="394.852" y1="73.6745" x2="488.195" y2="231.951" gradientUnits="userSpaceOnUse">
<stop stop-color="#6934DD"/>
<stop offset="1" stop-color="#FF0431"/>
</linearGradient>
<linearGradient id="paint3_linear_1532_7309" x1="375.877" y1="85.4115" x2="487.582" y2="273.852" gradientUnits="userSpaceOnUse">
<stop stop-color="#6934DD"/>
<stop offset="1" stop-color="#FF0431"/>
</linearGradient>
<linearGradient id="paint4_linear_1532_7309" x1="352.596" y1="99.7806" x2="481.575" y2="317.604" gradientUnits="userSpaceOnUse">
<stop stop-color="#6934DD"/>
<stop offset="1" stop-color="#FF0431"/>
</linearGradient>
<linearGradient id="paint5_linear_1532_7309" x1="305.675" y1="108.351" x2="467.824" y2="383.984" gradientUnits="userSpaceOnUse">
<stop stop-color="#6934DD"/>
<stop offset="1" stop-color="#FF0431"/>
</linearGradient>
<linearGradient id="paint6_linear_1532_7309" x1="261.636" y1="116.41" x2="456.388" y2="448.555" gradientUnits="userSpaceOnUse">
<stop stop-color="#6934DD"/>
<stop offset="1" stop-color="#FF0431"/>
</linearGradient>
<linearGradient id="paint7_linear_1532_7309" x1="243.749" y1="130.345" x2="453.792" y2="489.083" gradientUnits="userSpaceOnUse">
<stop stop-color="#6934DD"/>
<stop offset="1" stop-color="#FF0431"/>
</linearGradient>
<linearGradient id="paint8_linear_1532_7309" x1="235.925" y1="146.376" x2="454.89" y2="520.641" gradientUnits="userSpaceOnUse">
<stop stop-color="#6934DD"/>
<stop offset="1" stop-color="#FF0431"/>
</linearGradient>
<linearGradient id="paint9_linear_1532_7309" x1="232.74" y1="163.345" x2="457.586" y2="547.88" gradientUnits="userSpaceOnUse">
<stop stop-color="#6934DD"/>
<stop offset="1" stop-color="#FF0431"/>
</linearGradient>
<linearGradient id="paint10_linear_1532_7309" x1="231.781" y1="180.921" x2="460.685" y2="572.897" gradientUnits="userSpaceOnUse">
<stop stop-color="#6934DD"/>
<stop offset="1" stop-color="#FF0431"/>
</linearGradient>
<linearGradient id="paint11_linear_1532_7309" x1="232.284" y1="199.147" x2="464.065" y2="596.277" gradientUnits="userSpaceOnUse">
<stop stop-color="#6934DD"/>
<stop offset="1" stop-color="#FF0431"/>
</linearGradient>
<linearGradient id="paint12_linear_1532_7309" x1="233.505" y1="218.103" x2="467.179" y2="618.5" gradientUnits="userSpaceOnUse">
<stop stop-color="#6934DD"/>
<stop offset="1" stop-color="#FF0431"/>
</linearGradient>
<linearGradient id="paint13_linear_1532_7309" x1="234.863" y1="237.85" x2="469.615" y2="639.869" gradientUnits="userSpaceOnUse">
<stop stop-color="#6934DD"/>
<stop offset="1" stop-color="#FF0431"/>
</linearGradient>
<linearGradient id="paint14_linear_1532_7309" x1="236.085" y1="258.313" x2="471.139" y2="660.829" gradientUnits="userSpaceOnUse">
<stop stop-color="#6934DD"/>
<stop offset="1" stop-color="#FF0431"/>
</linearGradient>
<linearGradient id="paint15_linear_1532_7309" x1="237.302" y1="279.419" x2="471.982" y2="681.254" gradientUnits="userSpaceOnUse">
<stop stop-color="#6934DD"/>
<stop offset="1" stop-color="#FF0431"/>
</linearGradient>
<linearGradient id="paint16_linear_1532_7309" x1="238.685" y1="301.399" x2="471.96" y2="700.762" gradientUnits="userSpaceOnUse">
<stop stop-color="#6934DD"/>
<stop offset="1" stop-color="#FF0431"/>
</linearGradient>
<linearGradient id="paint17_linear_1532_7309" x1="240.373" y1="324.433" x2="470.906" y2="719.065" gradientUnits="userSpaceOnUse">
<stop stop-color="#6934DD"/>
<stop offset="1" stop-color="#FF0431"/>
</linearGradient>
<linearGradient id="paint18_linear_1532_7309" x1="242.708" y1="348.868" x2="468.784" y2="735.675" gradientUnits="userSpaceOnUse">
<stop stop-color="#6934DD"/>
<stop offset="1" stop-color="#FF0431"/>
</linearGradient>
<linearGradient id="paint19_linear_1532_7309" x1="245.696" y1="375.134" x2="464.999" y2="750.516" gradientUnits="userSpaceOnUse">
<stop stop-color="#6934DD"/>
<stop offset="1" stop-color="#FF0431"/>
</linearGradient>
<linearGradient id="paint20_linear_1532_7309" x1="249.549" y1="403.874" x2="458.87" y2="762.672" gradientUnits="userSpaceOnUse">
<stop stop-color="#6934DD"/>
<stop offset="1" stop-color="#FF0431"/>
</linearGradient>
<linearGradient id="paint21_linear_1532_7309" x1="254.287" y1="436.319" x2="449.254" y2="771.059" gradientUnits="userSpaceOnUse">
<stop stop-color="#6934DD"/>
<stop offset="1" stop-color="#FF0431"/>
</linearGradient>
<linearGradient id="paint22_linear_1532_7309" x1="259.823" y1="474.717" x2="433.506" y2="773.913" gradientUnits="userSpaceOnUse">
<stop stop-color="#6934DD"/>
<stop offset="1" stop-color="#FF0431"/>
</linearGradient>
<linearGradient id="paint23_linear_1532_7309" x1="265.538" y1="524.084" x2="406.128" y2="767.195" gradientUnits="userSpaceOnUse">
<stop stop-color="#6934DD"/>
<stop offset="1" stop-color="#FF0431"/>
</linearGradient>
<linearGradient id="paint24_linear_1532_7309" x1="267.072" y1="605.371" x2="343.184" y2="736.971" gradientUnits="userSpaceOnUse">
<stop stop-color="#6934DD"/>
<stop offset="1" stop-color="#FF0431"/>
</linearGradient>
<clipPath id="clip0_1532_7309">
<rect width="321.298" height="719.474" fill="white" transform="translate(192.348 14.7305)"/>
</clipPath>
</defs>
</svg>
