<svg width="630" height="434" viewBox="0 0 630 434" fill="none" xmlns="http://www.w3.org/2000/svg">
<g clip-path="url(#clip0_2052_7234)">
<path d="M594.814 333.676C577.08 376.028 555.898 417.859 482.223 434L163.789 431.217C92.0316 403.238 52.8207 348.015 46.2828 288.436C44.1298 268.48 45.5645 248.37 50.5402 228.76C51.847 223.542 53.4066 218.355 55.2192 213.2C71.659 166.395 106.49 122.268 158.284 97.3611C191.564 81.3594 234.223 86.6469 269.568 94.8565C301.436 102.259 332.566 112.625 365.467 115.746C391.678 118.226 418.339 116.024 444.63 116.876C454.034 117.124 463.403 117.937 472.662 119.311C512.383 125.469 547.589 145.568 571.756 172.441C580.081 181.669 587.056 191.675 592.537 202.253C613.825 243.499 612.552 291.323 594.814 333.676Z" fill="#FFEEC7" fill-opacity="0.1"/>
<path d="M334.794 336H431.077L439.727 416.412H343.444L334.794 336Z" fill="#6934D9"/>
<path d="M431.077 336H334.794L336.298 352.861H432.58L431.077 336Z" fill="#4400D2"/>
<rect x="292.197" y="402.146" width="171.46" height="14.2667" fill="#4400D2"/>
<path d="M189.038 336H547.962C551.849 336 555 332.849 555 328.962V327.038C555 323.151 551.849 320 547.962 320H189.038C185.151 320 182 323.151 182 327.038V328.962C182 332.849 185.151 336 189.038 336Z" fill="white"/>
<mask id="path-6-inside-1_2052_7234" fill="white">
<rect x="182" y="59" width="373" height="277" rx="7.03801"/>
</mask>
<rect x="182" y="59" width="373" height="277" rx="7.03801" fill="#DDEEFF" stroke="#6934D9" stroke-width="21.114" mask="url(#path-6-inside-1_2052_7234)"/>
<rect x="192.046" y="82.3613" width="355.127" height="135.221" fill="#6941C6"/>
<rect x="231.652" y="175.241" width="79.2207" height="20.4881" rx="1.36587" fill="#57CD44"/>
<rect x="317.107" y="175.846" width="81.13" height="18.9756" rx="0.682937" stroke="white" stroke-opacity="0.4" stroke-width="1.36587"/>
<rect x="231.67" y="101.708" width="110.748" height="10.1707" rx="1.36587" fill="#E8E7FF" fill-opacity="0.2"/>
<rect x="231.67" y="121.971" width="110.636" height="5.6504" rx="1.36587" fill="#E8E7FF" fill-opacity="0.2"/>
<rect x="233.039" y="141.33" width="109.27" height="5.6504" rx="1.36587" fill="#E8E7FF" fill-opacity="0.2"/>
<rect x="353.719" y="141.26" width="45.2032" height="5.6504" rx="1.36587" fill="#E8E7FF" fill-opacity="0.2"/>
<rect x="207.071" y="243.534" width="181.661" height="8.19524" rx="1.36587" fill="#A7A7A7" fill-opacity="0.2"/>
<rect x="207.071" y="264.022" width="181.661" height="6.82937" rx="1.36587" fill="#A7A7A7" fill-opacity="0.2"/>
<rect x="208.435" y="281.778" width="109.27" height="6.82937" rx="1.36587" fill="#A7A7A7" fill-opacity="0.2"/>
<rect x="327.269" y="281.778" width="40.9762" height="6.82937" rx="1.36587" fill="#A7A7A7" fill-opacity="0.2"/>
<line x1="3.69488" y1="414.268" x2="627.268" y2="414.268" stroke="#6934D9" stroke-width="5.4635" stroke-linecap="round"/>
<rect x="192.048" y="68.7021" width="270.443" height="13.6587" fill="black"/>
<g clip-path="url(#clip1_2052_7234)">
<path d="M213.875 113.562C218.088 113.562 221.503 110.147 221.503 105.935C221.5 101.726 218.088 98.3105 213.875 98.3105C209.663 98.3105 206.248 101.726 206.248 105.938C206.248 110.147 209.663 113.562 213.875 113.562Z" fill="#D6101F"/>
<path d="M210.588 102.496V105.09C210.982 104.62 211.456 104.382 212.006 104.382C212.288 104.382 212.541 104.435 212.771 104.543C213 104.649 213.168 104.788 213.282 104.952C213.397 105.12 213.477 105.302 213.518 105.505C213.559 105.705 213.579 106.02 213.579 106.444V109.217H212.353V106.72C212.353 106.223 212.329 105.911 212.285 105.776C212.238 105.641 212.156 105.535 212.038 105.458C211.92 105.379 211.773 105.338 211.594 105.338C211.391 105.338 211.209 105.388 211.05 105.491C210.888 105.593 210.77 105.744 210.697 105.946C210.62 106.149 210.585 106.449 210.585 106.847L210.582 109.214H209.355V102.496H210.588ZM215.418 102.496V105.09C215.812 104.62 216.286 104.382 216.836 104.382C217.118 104.382 217.371 104.435 217.6 104.543C217.827 104.649 217.998 104.788 218.112 104.952C218.227 105.12 218.306 105.302 218.348 105.505C218.389 105.705 218.409 106.02 218.409 106.444V109.217H217.183V106.72C217.183 106.223 217.159 105.911 217.112 105.776C217.07 105.644 216.982 105.532 216.865 105.458C216.747 105.379 216.6 105.338 216.424 105.338C216.221 105.338 216.039 105.388 215.88 105.491C215.721 105.593 215.603 105.744 215.527 105.946C215.453 106.149 215.415 106.449 215.415 106.847V109.214H214.188V102.496H215.418Z" fill="white"/>
</g>
<path d="M314.538 243.099L302.727 194.458C302.655 194.157 302.671 193.841 302.773 193.548C302.876 193.256 303.06 192.999 303.305 192.809C303.55 192.619 303.844 192.504 304.153 192.477C304.462 192.45 304.772 192.513 305.045 192.658L349.678 216.294L333.469 221.378L344.753 235.877C344.969 236.153 345.127 236.469 345.22 236.807C345.312 237.146 345.336 237.499 345.291 237.846C345.245 238.194 345.131 238.529 344.955 238.832C344.779 239.135 344.544 239.4 344.265 239.611L338.538 243.956C337.987 244.376 337.293 244.563 336.605 244.476C335.917 244.39 335.291 244.036 334.861 243.493L323.629 229.338L314.538 243.099Z" fill="#FFC700"/>
<line x1="279.064" y1="171.417" x2="294.821" y2="185.31" stroke="#FFC311" stroke-width="1.36587" stroke-linecap="round"/>
<line x1="312.043" y1="161.511" x2="309.383" y2="182.349" stroke="#FFC311" stroke-width="1.36587" stroke-linecap="round"/>
<line x1="275.464" y1="206.586" x2="295.164" y2="199.292" stroke="#FFC311" stroke-width="1.36587" stroke-linecap="round"/>
<path d="M353.719 112.692H360.599V110.928H355.991V102.568H353.719V112.692Z" fill="white" fill-opacity="0.9"/>
<path d="M373.038 107.63C373.038 104.318 370.855 102.429 368.006 102.429C365.141 102.429 362.973 104.318 362.973 107.63C362.973 110.928 365.141 112.831 368.006 112.831C370.855 112.831 373.038 110.942 373.038 107.63ZM370.734 107.63C370.734 109.776 369.653 110.937 368.006 110.937C366.353 110.937 365.277 109.776 365.277 107.63C365.277 105.484 366.353 104.323 368.006 104.323C369.653 104.323 370.734 105.484 370.734 107.63Z" fill="white" fill-opacity="0.9"/>
<path d="M383.325 105.84H385.633C385.34 103.838 383.466 102.429 381.037 102.429C378.198 102.429 376.01 104.357 376.01 107.64C376.01 110.843 378.056 112.831 381.084 112.831C383.797 112.831 385.733 111.214 385.733 108.55V107.274H381.236V108.886H383.545C383.514 110.141 382.606 110.937 381.094 110.937C379.389 110.937 378.313 109.736 378.313 107.62C378.313 105.514 379.431 104.323 381.074 104.323C382.244 104.323 383.036 104.891 383.325 105.84Z" fill="white" fill-opacity="0.9"/>
<path d="M398.793 107.63C398.793 104.318 396.61 102.429 393.761 102.429C390.896 102.429 388.729 104.318 388.729 107.63C388.729 110.928 390.896 112.831 393.761 112.831C396.61 112.831 398.793 110.942 398.793 107.63ZM396.489 107.63C396.489 109.776 395.409 110.937 393.761 110.937C392.108 110.937 391.032 109.776 391.032 107.63C391.032 105.484 392.108 104.323 393.761 104.323C395.409 104.323 396.489 105.484 396.489 107.63Z" fill="white" fill-opacity="0.9"/>
<path d="M109.488 104.679C109.488 104.679 102.321 96.0915 96.6255 96.0915C90.137 95.3621 83.5892 100.82 82.9914 102.806C82.3935 104.792 94.5251 100.82 95.2023 102.806C95.8796 104.792 93.8597 108.826 97.3039 108.979C99.5871 109.167 103.955 110.642 105.904 111.846L109.488 104.679Z" fill="#FFA988"/>
<path fill-rule="evenodd" clip-rule="evenodd" d="M78.3912 391.684C80.2638 392.601 78.7079 392.857 79.5759 394.03C79.0552 393.67 78.4782 393.34 77.8401 393.046C77.9685 392.781 78.2024 392.268 78.3912 391.684Z" fill="#E5EEFF"/>
<path fill-rule="evenodd" clip-rule="evenodd" d="M55.8853 407.054H84.3023V409.399C84.3023 410.627 83.2978 411.632 82.0699 411.632H58.1176C56.8898 411.632 55.8853 410.627 55.8853 409.399V407.054Z" fill="#868CB5"/>
<path fill-rule="evenodd" clip-rule="evenodd" d="M84.0031 407.054C84.0031 407.054 87.3563 391.595 70.0821 391.586C58.7936 391.586 54.4395 399.118 56.1607 407.054C65.4415 407.054 74.7223 407.054 84.0031 407.054Z" fill="#E5EEFF"/>
<path fill-rule="evenodd" clip-rule="evenodd" d="M70.0856 387.085C66.0732 387.085 62.2997 388.074 61.6543 389.32C61.009 390.566 62.4232 393.237 62.4232 393.237L62.8121 393.163C64.7989 392.28 67.2181 391.778 70.0855 391.778H70.0859C73.3025 391.78 75.8029 392.335 77.744 393.236L77.7482 393.237C77.7482 393.237 79.1625 390.566 78.5171 389.32C77.8717 388.074 73.922 387.085 70.0856 387.085Z" fill="#868CB5"/>
<path d="M65.4898 394.538C65.4444 394.676 65.3391 394.777 65.2124 394.821L65.2105 396.864C65.9353 396.229 67.1865 395.834 68.5743 395.667C69.4389 395.563 70.3642 395.544 71.2435 395.606C72.1266 395.669 72.9697 395.816 73.6661 396.047C74.7401 396.403 75.4849 396.974 75.5803 397.768C75.6056 397.983 75.4761 398.18 75.28 398.248L75.2711 400.232C75.2708 400.315 75.2033 400.382 75.1204 400.381C75.0375 400.381 74.9707 400.314 74.9711 400.231L74.9801 398.246C74.8238 398.191 74.7045 398.05 74.6836 397.874C74.636 397.478 74.1278 397.148 73.3836 396.901C72.7655 396.696 71.9977 396.564 71.18 396.506C70.3585 396.447 69.4918 396.467 68.6804 396.564C67.087 396.755 65.7372 397.224 65.49 397.97C65.4443 398.108 65.3373 398.21 65.2093 398.254L65.2074 400.231C65.2074 400.314 65.1402 400.381 65.0573 400.381C64.9744 400.381 64.9073 400.314 64.9073 400.231L64.9092 398.251C64.6812 398.169 64.5591 397.919 64.6357 397.687C64.6956 397.507 64.7885 397.338 64.9101 397.181L64.9123 394.821C64.6823 394.74 64.5587 394.489 64.6357 394.256C65.0094 393.128 66.6625 392.465 68.5742 392.236C69.4388 392.132 70.3641 392.112 71.2434 392.175C72.1265 392.237 72.9696 392.385 73.6659 392.616C74.7399 392.971 75.4847 393.543 75.5801 394.337C75.6094 394.585 75.4324 394.809 75.1848 394.838C74.9372 394.867 74.7127 394.691 74.6835 394.443C74.6359 394.047 74.1277 393.716 73.3834 393.47C72.7653 393.265 71.9976 393.132 71.1799 393.074C70.3583 393.016 69.4917 393.035 68.6803 393.132C67.0869 393.323 65.737 393.793 65.4898 394.538V394.538Z" fill="#868CB5"/>
<path fill-rule="evenodd" clip-rule="evenodd" d="M75.3642 393.464C74.6427 393.271 73.9473 393.53 73.8108 394.042C73.6743 394.553 74.1484 395.124 74.8698 395.317C75.5913 395.509 76.2868 395.251 76.4232 394.739C76.5598 394.228 76.0856 393.657 75.3642 393.464Z" fill="#868CB5"/>
<path fill-rule="evenodd" clip-rule="evenodd" d="M64.8058 393.464C65.5273 393.271 66.2228 393.53 66.3594 394.042C66.4957 394.553 66.0218 395.124 65.3003 395.317C64.5789 395.509 63.8833 395.251 63.7468 394.739C63.6104 394.228 64.0844 393.657 64.8058 393.464Z" fill="#868CB5"/>
<path fill-rule="evenodd" clip-rule="evenodd" d="M75.3642 396.895C74.6427 396.703 73.9473 396.961 73.8108 397.473C73.6743 397.985 74.1484 398.555 74.8698 398.748C75.5913 398.941 76.2868 398.682 76.4232 398.17C76.5598 397.659 76.0856 397.088 75.3642 396.895Z" fill="#868CB5"/>
<path fill-rule="evenodd" clip-rule="evenodd" d="M64.8058 396.895C65.5273 396.703 66.2228 396.961 66.3594 397.473C66.4957 397.985 66.0218 398.555 65.3003 398.748C64.5789 398.941 63.8833 398.682 63.7468 398.17C63.6104 397.659 64.0844 397.088 64.8058 396.895Z" fill="#868CB5"/>
<path d="M55.9626 405.834C55.8384 405.834 55.7375 405.733 55.7375 405.609C55.7375 405.485 55.8384 405.384 55.9626 405.384L84.1623 405.432C84.2864 405.432 84.3873 405.533 84.3873 405.657C84.3873 405.781 84.2864 405.882 84.1623 405.882L55.9626 405.834Z" fill="#868CB5"/>
<path fill-rule="evenodd" clip-rule="evenodd" d="M84.0031 407.054C84.0031 407.054 87.3563 391.595 70.0821 391.586C58.7936 391.586 54.4395 399.118 56.1607 407.054C65.4415 407.054 74.7223 407.054 84.0031 407.054V407.054Z" stroke="#868CB5" stroke-width="0.451769" stroke-miterlimit="22.9256" stroke-linecap="round" stroke-linejoin="round"/>
<path fill-rule="evenodd" clip-rule="evenodd" d="M61.8446 391.684C59.972 392.601 61.5279 392.857 60.6599 394.03C61.1806 393.67 61.7576 393.34 62.3957 393.046C62.2673 392.781 62.0334 392.268 61.8446 391.684Z" fill="#E5EEFF"/>
<path d="M61.7051 392.005C61.0175 392.383 61.0608 392.601 61.1148 392.872C61.1486 393.041 61.1847 393.224 61.1559 393.439L61.3736 393.312C61.6022 393.183 61.8397 393.058 62.0856 392.94C62.0217 392.801 61.9475 392.632 61.8719 392.445L61.8675 392.433C61.8139 392.3 61.7588 392.156 61.7051 392.005ZM78.5018 391.488C79.7271 392.091 79.6508 392.475 79.554 392.96C79.5058 393.202 79.4502 393.483 79.7568 393.897C79.8308 393.997 79.81 394.138 79.71 394.212C79.6289 394.272 79.5205 394.27 79.4429 394.213C79.1865 394.036 78.9157 393.866 78.6298 393.704C78.3506 393.546 78.0558 393.395 77.7456 393.252C77.6327 393.2 77.5832 393.066 77.6353 392.953L77.6381 392.947C77.711 392.796 77.8193 392.562 77.9354 392.275L77.9403 392.264C78.0204 392.065 78.1028 391.845 78.1768 391.616C78.2147 391.498 78.3416 391.432 78.46 391.47C78.4746 391.475 78.4888 391.481 78.5017 391.488H78.5018ZM79.111 392.872C79.1649 392.601 79.2083 392.383 78.5207 392.005C78.467 392.156 78.4119 392.3 78.3583 392.433L78.3538 392.445C78.2783 392.632 78.2041 392.801 78.1402 392.94C78.3859 393.058 78.6234 393.183 78.8522 393.312L79.0699 393.439C79.0409 393.224 79.0772 393.041 79.111 392.872ZM60.6718 392.96C60.575 392.474 60.4988 392.091 61.7239 391.488C61.7369 391.481 61.7508 391.475 61.7657 391.47C61.884 391.432 62.0109 391.497 62.0489 391.616C62.1228 391.845 62.2052 392.066 62.2853 392.264L62.2902 392.275C62.4063 392.562 62.5146 392.796 62.5875 392.947L62.5903 392.953C62.6425 393.066 62.5929 393.2 62.4801 393.252C62.1698 393.395 61.875 393.546 61.5958 393.704C61.3099 393.866 61.0391 394.036 60.7828 394.213C60.7052 394.27 60.5969 394.272 60.5156 394.212C60.4158 394.138 60.3948 393.997 60.4689 393.897C60.7754 393.482 60.7199 393.202 60.6717 392.96H60.6718Z" fill="#868CB5"/>
<path fill-rule="evenodd" clip-rule="evenodd" d="M105.322 406.583C105.322 406.583 104.032 401.373 105.172 392.989C104.831 391.196 106.776 391.22 107.017 391.827C108.964 394.35 119.881 392.315 119.881 392.315C119.881 392.315 125.09 391.934 127.707 391.833C137.817 391.4 151.014 397.187 149.099 407.111L105.322 406.584V406.583Z" fill="#E5EEFF"/>
<path fill-rule="evenodd" clip-rule="evenodd" d="M114.104 406.606C111.6 405.635 111.319 396.894 104.756 397.495L104.756 397.507C104.746 397.863 104.732 398.22 104.716 398.581C104.59 403.626 105.322 406.584 105.322 406.584L114.104 406.606V406.606Z" fill="#C5D2EB"/>
<path fill-rule="evenodd" clip-rule="evenodd" d="M107.443 411.527L148.275 411.632C149.06 411.634 149.324 410.973 149.434 409.979C149.594 408.549 150.079 406.612 148.287 406.693C133.69 407.355 119.438 407.146 105.326 406.583L105.32 409.052C105.316 410.41 106.272 411.524 107.443 411.527V411.527Z" fill="#868CB5"/>
<path d="M106.749 400.667C106.76 400.791 106.668 400.901 106.543 400.912C106.419 400.922 106.31 400.83 106.299 400.706C106.227 399.875 106.85 399.125 107.762 398.728C108.2 398.537 108.707 398.427 109.234 398.43C109.762 398.433 110.31 398.549 110.831 398.81C112.195 399.494 113.366 401.169 113.448 404.413C116.512 405.908 130.207 405.377 130.246 405.375C130.371 405.371 130.475 405.468 130.479 405.593C130.484 405.717 130.387 405.821 130.262 405.826C130.222 405.827 116.055 406.378 113.116 404.75C113.048 404.711 113.001 404.639 113 404.555C112.952 401.427 111.881 399.839 110.63 399.213C110.175 398.984 109.694 398.883 109.233 398.88C108.77 398.878 108.326 398.974 107.943 399.141C107.203 399.463 106.695 400.044 106.749 400.667L106.749 400.667Z" fill="#868CB5"/>
<path d="M105.109 406.636C105.105 406.621 103.813 401.402 104.95 392.996C104.832 392.325 105.006 391.87 105.302 391.587L105.316 391.575C105.466 391.436 105.644 391.343 105.829 391.289C106.016 391.235 106.213 391.22 106.395 391.237C106.763 391.273 107.09 391.447 107.215 391.706C108.985 393.93 118.396 392.351 119.696 392.12C119.916 391.121 121.425 385.668 127.951 387.311C128.008 387.325 128.054 387.359 128.084 387.404C128.52 387.979 128.365 388.846 128.18 389.885L128.178 389.893C128.083 390.426 127.98 391.007 127.948 391.598C129.982 391.532 132.132 391.711 134.254 392.12C138.068 392.856 141.799 394.337 144.614 396.466C147.452 398.612 149.364 401.419 149.508 404.791C149.541 405.552 149.483 406.34 149.326 407.153C149.305 407.267 149.202 407.344 149.089 407.336C146.521 407.334 143.904 407.342 141.287 407.349C136.027 407.363 130.767 407.378 125.897 407.319C121.026 407.26 116.552 407.128 112.078 406.997C109.84 406.931 107.602 406.865 105.323 406.808C105.219 406.806 105.133 406.733 105.109 406.636L105.109 406.636ZM105.401 393.02C104.385 400.497 105.306 405.414 105.51 406.363C107.739 406.419 109.915 406.483 112.091 406.547C116.567 406.679 121.043 406.811 125.903 406.869C130.771 406.928 136.03 406.913 141.287 406.899C143.845 406.892 146.404 406.885 148.917 406.886C149.042 406.17 149.087 405.477 149.058 404.809C148.921 401.588 147.078 398.895 144.343 396.826C141.584 394.74 137.92 393.287 134.169 392.564C131.994 392.144 129.792 391.969 127.723 392.058H127.709C127.585 392.055 127.486 391.953 127.489 391.828C127.503 391.109 127.624 390.43 127.734 389.814L127.735 389.806C127.895 388.91 128.029 388.157 127.762 387.73C121.144 386.116 120.113 392.336 120.11 392.354C120.094 392.444 120.024 392.519 119.928 392.536C119.897 392.542 108.914 394.591 106.855 391.977L106.845 391.965C106.832 391.948 106.822 391.93 106.814 391.91C106.767 391.792 106.579 391.707 106.353 391.685C106.224 391.673 106.086 391.683 105.955 391.721C105.833 391.757 105.718 391.817 105.623 391.903L105.612 391.914C105.413 392.104 105.302 392.434 105.4 392.948C105.404 392.971 105.405 392.995 105.401 393.02Z" fill="#868CB5"/>
<path d="M114.118 402.074C114.12 401.95 114.222 401.85 114.346 401.852C114.47 401.853 114.57 401.955 114.568 402.079L114.545 403.983C114.544 404.107 114.442 404.206 114.318 404.205C114.194 404.204 114.094 404.101 114.095 403.977L114.118 402.074Z" fill="#868CB5"/>
<path d="M114.968 402.076C114.969 401.952 115.071 401.852 115.196 401.854C115.32 401.855 115.419 401.957 115.418 402.081L115.395 403.985C115.394 404.109 115.291 404.208 115.167 404.207C115.043 404.206 114.944 404.103 114.945 403.979L114.968 402.076Z" fill="#868CB5"/>
<path fill-rule="evenodd" clip-rule="evenodd" d="M119.891 392.314C122.608 385.079 127.857 387.427 127.9 387.529C128.206 388.247 127.433 390.739 127.717 391.832C125.173 391.946 122.501 391.976 119.891 392.314Z" fill="#868CB5" stroke="#868CB5" stroke-width="0.451769" stroke-miterlimit="22.9256" stroke-linecap="round" stroke-linejoin="round"/>
<path d="M134.461 405.852C134.336 405.852 134.236 405.752 134.236 405.627C134.236 405.503 134.336 405.402 134.461 405.402L149.281 405.44C149.405 405.44 149.506 405.541 149.506 405.665C149.506 405.789 149.405 405.89 149.281 405.89L134.461 405.852Z" fill="#868CB5"/>
<path d="M135.069 394.613L137.185 395.121C137.446 395.184 137.545 394.845 137.285 394.781L135.314 394.308C135.382 394.173 135.403 394.034 135.365 393.905C135.294 393.669 135.041 393.525 134.718 393.5C134.354 393.516 134.212 393.59 133.86 393.687C133.428 393.91 133.172 394.283 133.266 394.595C133.377 394.966 133.937 395.111 134.517 394.92C134.734 394.849 134.923 394.74 135.069 394.613H135.069ZM129.065 393.232C128.641 393.456 128.39 393.825 128.483 394.134C128.594 394.504 129.154 394.65 129.734 394.459C130.313 394.268 130.693 393.814 130.582 393.444C130.512 393.213 130.267 393.069 129.952 393.041C129.627 393.035 129.296 393.157 129.065 393.232H129.065Z" fill="#868CB5"/>
<path d="M134.248 394.041C134.248 394.041 134.493 389.712 134.884 392.223" stroke="#868CB5" stroke-width="0.903538" stroke-miterlimit="22.9256" stroke-linecap="round" stroke-linejoin="round"/>
<path d="M129.433 393.336C129.433 393.336 129.678 389.007 130.069 391.518" stroke="#868CB5" stroke-width="0.903538" stroke-miterlimit="22.9256" stroke-linecap="round" stroke-linejoin="round"/>
<path fill-rule="evenodd" clip-rule="evenodd" d="M56.5123 267.038L56.1621 318.114L56.8922 389.425C57.0223 392.19 80.4738 394.836 82.9781 392.815L84.7031 329.586L88.1921 281.304L104.479 393.531C104.334 396.581 128.686 393.287 128.847 391.381L121.003 267.038L120.691 248.074C120.284 248.235 120.691 245.099 118.095 245.099C110.326 246.187 100.268 250.051 90.2754 250.062C80.3262 250.051 64.6138 250.016 56.8089 248.942L56.5123 267.038Z" fill="#6934D9"/>
<path fill-rule="evenodd" clip-rule="evenodd" d="M79.2317 393.532C80.7538 393.263 82.2644 395.488 82.2644 392.098L84.7057 329.588L88.1947 281.305L88.03 273.947L82.7922 320.821L79.2317 390.383V393.532Z" fill="#2B0087"/>
<path d="M119.567 269.298C119.831 269.406 119.957 269.709 119.849 269.973C119.74 270.237 119.438 270.363 119.174 270.254L117.098 269.402C116.926 269.331 116.812 269.178 116.784 269.007L113.509 249.081C113.856 249.049 114.2 249.017 114.541 248.983L117.758 268.555L119.567 269.298Z" fill="#2B0087"/>
<path d="M93.3526 267.107C93.3515 267.392 93.1191 267.622 92.8339 267.621C92.5486 267.62 92.3184 267.388 92.3193 267.102L92.4113 250.054C92.7546 250.051 93.099 250.048 93.4443 250.043L93.3524 267.107H93.3526Z" fill="#2B0087"/>
<path d="M88.5457 273.946C88.5457 274.232 88.3145 274.463 88.0292 274.463C87.744 274.463 87.5127 274.232 87.5127 273.946L87.6028 250.059L88.6359 250.061L88.5457 273.946Z" fill="#2B0087"/>
<path d="M58.2536 270.254C57.9896 270.362 57.6873 270.236 57.5789 269.972C57.4705 269.708 57.5965 269.406 57.8605 269.297L59.67 268.555L62.8017 249.501C63.1427 249.523 63.4888 249.544 63.8397 249.564L60.6439 269.006C60.6155 269.178 60.5022 269.331 60.3299 269.402L58.2535 270.254L58.2536 270.254Z" fill="#2B0087"/>
<path d="M126.761 391.487C126.78 391.772 126.564 392.018 126.279 392.036C125.995 392.055 125.749 391.839 125.73 391.554L118.684 266.97L116.294 245.873C116.617 245.801 116.934 245.727 117.246 245.654L117.305 245.64C122.428 291.771 123.754 345.174 126.761 391.487Z" fill="#2B0087"/>
<path d="M59.182 390.13C59.184 390.415 58.9547 390.649 58.6695 390.651C58.3842 390.653 58.151 390.423 58.149 390.138C57.7392 343.128 56.4866 296.105 58.4469 249.14C58.7799 249.175 59.1219 249.21 59.4743 249.242L58.5694 269.796L58.3636 317.912L59.1822 390.13H59.182Z" fill="#2B0087"/>
<path d="M56.8499 246.532L56.514 267.038L56.1638 318.114L56.8939 389.425C57.024 392.191 79.7589 395.552 82.2631 393.531L84.7048 329.586L88.0291 273.946L104.481 393.531C104.336 396.58 128.688 393.287 128.849 391.381L121.005 267.038L119.53 243.666" stroke="#2B0087" stroke-width="1.03721" stroke-miterlimit="22.9256" stroke-linecap="round" stroke-linejoin="round"/>
<path fill-rule="evenodd" clip-rule="evenodd" d="M75.5279 140.052C71.9685 140.052 69.367 140.769 67.2169 141.486C50.8537 142.796 63.2713 162.732 55.7551 176.604C53.7937 180.224 43.1386 179.82 46.7562 181.786C47.0747 181.959 47.4007 182.106 47.7316 182.228L47.77 182.243L60.6977 187.028C61.0715 187.166 61.4532 187.246 61.8329 187.272C62.003 190.436 62.6057 192.683 64.1841 192.912C69.5181 192.892 74.41 192.252 82.1808 191.066C89.9518 189.879 96.0313 188.494 98.7184 188.25C99.4665 187.543 100.453 187.244 100.436 185.461C100.42 183.678 99.1282 176.431 99.4899 168.608L99.4984 168.409L101.928 171.568C104.439 174.832 109.163 175.448 112.426 172.937C112.556 172.837 112.682 172.734 112.803 172.627C113.777 171.801 114.552 170.718 115.006 169.434L120.945 152.665C121.7 150.535 120.574 148.175 118.445 147.421L112.075 145.165C109.946 144.411 107.586 145.536 106.832 147.666L105.692 150.884C102.202 146.357 98.3389 143.362 90.9116 143.361C89.5671 141.834 87.9863 140.052 85.1067 140.052L75.5279 140.052ZM61.0263 171.184L62.1034 169.196C62.1513 169.957 62.1735 170.767 62.1781 171.611L61.0263 171.184Z" fill="#FF0028"/>
<path fill-rule="evenodd" clip-rule="evenodd" d="M95.8729 136.199V147.46C95.8729 153.06 91.6802 155.809 86.556 155.809H86.5559C81.4316 155.809 77.239 153.061 77.239 147.46V136.16C79.2968 138.117 81.8899 139.45 84.7995 139.85C88.9603 140.422 92.9271 138.971 95.873 136.199H95.8729Z" fill="#EBA884"/>
<path fill-rule="evenodd" clip-rule="evenodd" d="M95.8732 136.2V141.385C93.3912 146.739 80.2935 148.988 77.239 136.191C79.6632 138.48 82.801 139.891 86.2385 139.97L86.3012 139.971L86.4664 139.973C90.0093 140.008 93.3236 138.599 95.8732 136.2Z" fill="#C98560"/>
<path d="M120.254 243.681C120.254 243.681 113.299 251.441 96.0252 251.308C85.1686 251.239 70.7784 256.623 64.2073 255.262C55.3718 253.43 56.8003 250.232 57.4934 243.681C58.414 235.293 53.2978 221.027 48.5784 195.238C47.873 191.433 52.5483 186.447 51.6313 182.176C47.6632 163.97 70.5244 153.427 73.4713 149.133C90.2641 164.547 94.957 150.245 94.957 150.245C95.1263 150.245 102.584 147.115 110.036 147.115C116.834 143.043 124.538 169.628 124.548 178.037C124.548 187.039 124.21 196.816 124.548 209.572C124.887 222.329 120.254 243.681 120.254 243.681Z" fill="#FF0028"/>
<path d="M110.151 212.385C98.986 212.412 94.9514 213.804 90.9617 215.182C86.9794 216.558 83.0372 217.918 72.4405 217.946L66.415 234.104C65.6404 236.181 64.0892 237.757 62.2123 238.62C60.3376 239.482 58.1381 239.633 56.0623 238.865C55.8152 238.774 55.6882 238.5 55.7787 238.253C55.8693 238.006 56.1434 237.879 56.3905 237.97C58.2229 238.648 60.1638 238.514 61.817 237.755C63.4726 236.994 64.8406 235.604 65.5234 233.772L71.6504 217.342C71.6555 217.324 71.6616 217.306 71.6686 217.289L73.0971 213.301C73.1856 213.053 73.4588 212.924 73.707 213.012C73.955 213.101 74.0846 213.374 73.9961 213.622L72.7895 216.99C82.976 216.934 86.7948 215.616 90.6521 214.284C94.7215 212.878 98.8364 211.457 110.144 211.43L111.467 207.739C111.555 207.491 111.829 207.361 112.077 207.45C112.325 207.538 112.454 207.811 112.366 208.06L110.988 211.906L116.142 225.727C116.715 227.264 117.863 228.43 119.252 229.069C119.854 229.346 120.501 229.523 121.167 229.589C121.429 229.566 121.66 229.76 121.683 230.022C121.72 230.442 121.313 230.557 121.266 230.554C120.428 230.494 119.612 230.281 118.857 229.934C117.246 229.194 115.915 227.842 115.25 226.059L110.151 212.385L110.151 212.385Z" fill="#D90324"/>
<path d="M73.4635 149.149C73.4635 149.149 63.3582 149.149 48.5733 160.12C40.6922 165.969 21.3604 194.001 22.8418 204.83C24.3444 215.817 43.5455 232.198 43.5455 232.198C43.5455 232.198 56.2715 226.73 56.4461 218.58C56.4461 218.58 45.6716 205.164 46.4123 202.813C46.8673 201.33 63.3582 185.957 63.3582 185.957L73.4635 149.149Z" fill="#FF0028"/>
<path d="M70.5089 149.461C70.456 148.344 75.8367 146.56 75.8367 146.56C75.8367 146.56 79.8841 155.636 89.8518 155.784C89.8518 155.784 87.0107 161.312 83.6617 162.748C83.6617 162.748 70.8422 156.091 70.5089 149.461Z" fill="#FF0028"/>
<path d="M92.998 153.408C92.998 153.408 96.3418 148.155 96.3629 144.761C98.8076 145.494 101.115 146.625 103.193 148.107C103.193 148.107 102.781 154.631 100.23 157.914C98.0681 156.046 95.628 154.525 92.998 153.408Z" fill="#FF0028"/>
<path d="M95.8829 136.951C95.6268 137.299 95.2602 137.544 94.845 137.646C94.432 137.752 93.9944 137.715 93.6003 137.54C93.9967 137.523 94.3903 137.469 94.7761 137.379C95.1609 137.282 95.5324 137.138 95.8829 136.951Z" fill="#0E161F"/>
<path d="M85.1412 157.739C85.2105 157.408 85.535 157.197 85.8658 157.266C86.1965 157.335 86.4084 157.659 86.339 157.99L85.1412 157.739V157.739ZM84.9577 196.776C85.2839 197.081 85.4416 197.548 85.3303 198.013L84.3222 202.226C84.2121 202.688 83.8641 203.032 83.4391 203.159L83.3354 203.483L83.2269 203.827L83.1223 204.167L83.0225 204.504L82.9285 204.84L82.8402 205.176L82.7582 205.514L81.5657 205.24L81.6533 204.878L81.7472 204.52L81.8466 204.166L81.9506 203.815L82.0583 203.465L82.1688 203.113L82.2366 202.902C81.8841 202.598 81.7095 202.112 81.8252 201.629L82.8324 197.416C82.9471 196.937 83.3159 196.586 83.7614 196.471L83.804 196.112L83.8645 195.505L83.9161 194.868L83.958 194.2L83.9895 193.499L84.0098 192.764L84.0183 191.994L84.0139 191.186L83.9965 190.339L83.9651 189.452L83.9187 188.523L85.1404 188.454L85.1877 189.4L85.2198 190.304L85.2377 191.17L85.242 191.997L85.2331 192.788L85.2123 193.543L85.1799 194.266L85.1365 194.955L85.0833 195.615L85.0202 196.245L84.9571 196.776H84.9577ZM85.1408 188.454L83.9191 188.523L83.8629 187.581L83.8036 186.662L83.7419 185.764L83.6786 184.884L83.6149 184.021L83.5516 183.17L83.4895 182.331L83.43 181.5L83.3737 180.674L83.3217 179.852L83.2743 179.031L83.2332 178.208L83.1993 177.382L83.1733 176.549L83.1562 175.707L83.1489 174.854L83.1525 173.988L83.1679 173.106L83.1959 172.205L83.2376 171.284L83.2941 170.339L83.3659 169.369L83.4544 168.372L83.5602 167.344L83.6842 166.283L83.8272 165.187L83.9907 164.054L84.1748 162.881L84.3814 161.665L84.6105 160.404L84.8635 159.096L85.1412 157.738L86.339 157.989L86.0638 159.334L85.8134 160.629L85.5866 161.876L85.3829 163.077L85.2007 164.236L85.0397 165.353L84.8986 166.433L84.7766 167.477L84.6724 168.488L84.5855 169.468L84.5149 170.421L84.4595 171.348L84.4187 172.252L84.3911 173.135L84.376 174.001L84.3724 174.851L84.3798 175.69L84.3964 176.517L84.422 177.337L84.4556 178.153L84.4962 178.965L84.5429 179.779L84.5944 180.594L84.6508 181.414L84.7099 182.242L84.772 183.08L84.8353 183.93L84.899 184.796L84.9623 185.678L85.0246 186.581L85.0843 187.505L85.1408 188.454V188.454ZM82.758 205.514C82.6825 205.843 82.3537 206.048 82.0246 205.973C81.6954 205.897 81.4899 205.569 81.5655 205.24L82.758 205.514Z" fill="#FF5E04"/>
<path d="M92.3094 153.438C92.3787 153.108 92.7033 152.897 93.034 152.966C93.3647 153.035 93.5766 153.359 93.5072 153.689L92.3094 153.439V153.438ZM92.1259 192.475C92.4521 192.781 92.6098 193.247 92.4985 193.712L91.4904 197.926C91.3803 198.388 91.0323 198.732 90.6074 198.858L90.5036 199.182L90.3951 199.527L90.2905 199.867L90.1907 200.204L90.0967 200.54L90.0084 200.876L89.9265 201.214L88.7339 200.94L88.8216 200.577L88.9154 200.22L89.0148 199.866L89.1188 199.514L89.2265 199.164L89.337 198.813L89.4049 198.601C89.0523 198.297 88.8777 197.812 88.9934 197.329L90.0007 193.115C90.1153 192.637 90.4842 192.286 90.9296 192.17L90.9722 191.812L91.0327 191.204L91.0843 190.567L91.1262 189.9L91.1577 189.199L91.178 188.464L91.1865 187.693L91.1821 186.885L91.1647 186.039L91.1333 185.151L91.0869 184.223L92.3086 184.154L92.3559 185.099L92.388 186.004L92.4059 186.87L92.4102 187.697L92.4013 188.487L92.3805 189.243L92.3481 189.965L92.3047 190.655L92.2515 191.314L92.1884 191.944L92.1253 192.475H92.1259ZM92.309 184.154L91.0873 184.223L91.0311 183.28L90.9718 182.362L90.9101 181.464L90.8468 180.584L90.7831 179.72L90.7199 178.87L90.6578 178.03L90.5982 177.199L90.5419 176.374L90.4899 175.552L90.4425 174.731L90.4014 173.908L90.3675 173.082L90.3415 172.248L90.3244 171.407L90.3171 170.554L90.3207 169.688L90.3361 168.805L90.3641 167.905L90.4058 166.984L90.4623 166.039L90.5342 165.069L90.6226 164.071L90.7284 163.044L90.8524 161.983L90.9954 160.887L91.1589 159.754L91.343 158.58L91.5496 157.364L91.7787 156.104L92.0317 154.796L92.3094 153.438L93.5072 153.688L93.232 155.034L92.9816 156.329L92.7548 157.576L92.5511 158.777L92.369 159.936L92.2079 161.053L92.0668 162.133L91.9448 163.177L91.8406 164.188L91.7537 165.168L91.6831 166.121L91.6277 167.047L91.5869 167.951L91.5593 168.835L91.5442 169.701L91.5406 170.551L91.548 171.389L91.5646 172.217L91.5902 173.037L91.6238 173.852L91.6644 174.665L91.7111 175.478L91.7626 176.294L91.819 177.114L91.8781 177.942L91.9402 178.78L92.0035 179.63L92.0672 180.495L92.1305 181.378L92.1928 182.28L92.2525 183.205L92.309 184.154V184.154ZM89.9263 201.214C89.8507 201.543 89.5219 201.748 89.1928 201.672C88.8636 201.597 88.6581 201.269 88.7337 200.94L89.9263 201.214Z" fill="#FF5E04"/>
<path d="M146.74 128.277C151.041 135.444 144.914 142.553 141.5 147.5C131.776 161.589 133 159.5 128.5 165.5C124 171.5 125 188 125 188L102.311 153C102.311 153 117.967 134.957 118.888 132.622C120.096 129.551 106.709 117.731 103.161 114.67C102.612 114.197 102.26 113.545 102.219 112.821C102.13 111.215 102.117 108.216 103.027 106.059C103.482 104.242 105.376 102.137 106.702 100.839C107.497 100.061 108.674 99.9045 109.672 100.395C116.463 103.735 142.388 117.085 146.74 128.277Z" fill="#FF0028"/>
<path d="M59.3132 255.132C54.153 254.559 55.4931 252.266 56.4487 250.115C56.4487 250.115 67.202 253.699 87.2695 248.682C95.0754 246.731 101.905 248.959 107.337 247.965C117.371 245.815 120.954 240.798 120.954 240.798C122.389 241.515 120.954 245.576 120.238 245.815C113.072 251.549 108.77 252.266 100.17 252.982C94.4563 253.458 87.0493 251.765 78.6692 253.699C69.3521 255.849 65.7635 255.849 59.3132 255.132Z" fill="#2B0087"/>
<path fill-rule="evenodd" clip-rule="evenodd" d="M51.6614 242.186L52.3082 235.633C52.4757 233.938 53.8925 232.393 55.4577 232.187L74.1067 229.728C75.6726 229.522 76.8154 230.752 76.6477 232.448L76.001 239C75.8334 240.696 74.4167 242.241 72.8514 242.447L54.2024 244.905C52.6365 245.112 51.4939 243.881 51.6614 242.186Z" fill="#E5EEFF" stroke="#C6D6F7" stroke-width="0.396674" stroke-miterlimit="22.9256"/>
<path fill-rule="evenodd" clip-rule="evenodd" d="M46.3516 230.873L49.3835 233.821C50.1283 235.997 51.8076 239.416 53.7984 241.476L55.5744 242.659L57.3569 246.549C57.8195 248.031 60.1369 247.995 60.2294 245.81L60.5293 246.462C60.9919 247.944 63.3098 247.908 63.4018 245.723C63.8644 247.205 66.1817 247.169 66.2749 244.984L67.0809 247.058C67.708 248.906 70.4878 248.144 69.8445 245.79L67.6914 236.999L63.3534 231.411C63.3004 231.39 63.2945 231.108 63.3585 231.13C64.3735 231.24 64.663 231.528 67.3566 231.193C70.0503 230.859 69.3969 228.117 67.3494 228.032C59.8004 227.038 61.6401 224.123 56.5046 224.564L53.7974 222.965C53.7974 222.965 53.0154 225.261 50.9686 227.656C48.9218 230.051 46.3516 230.873 46.3516 230.873Z" fill="#EBA884"/>
<path d="M64.3831 239.465C64.3528 239.361 64.4126 239.253 64.5164 239.222C64.6202 239.192 64.7284 239.252 64.7588 239.355L64.3832 239.464L64.3831 239.465ZM65.7435 244.145L64.3831 239.465L64.7587 239.356L66.1191 244.036L65.7435 244.145ZM66.1191 244.036C66.1494 244.14 66.0895 244.248 65.9857 244.278C65.8819 244.308 65.7738 244.249 65.7434 244.145L66.119 244.037L66.1191 244.036Z" fill="#C98560"/>
<path d="M61.5595 240.363C61.5285 240.259 61.5865 240.15 61.6898 240.119C61.7931 240.088 61.9022 240.146 61.9333 240.249L61.5595 240.363ZM62.9672 244.993L61.5595 240.363L61.9333 240.249L63.341 244.879L62.9672 244.993ZM63.341 244.879C63.3721 244.983 63.314 245.092 63.2107 245.123C63.1075 245.154 62.9984 245.096 62.9672 244.993L63.341 244.879Z" fill="#C98560"/>
<path d="M58.3859 240.448C58.3549 240.345 58.4129 240.236 58.5162 240.205C58.6195 240.174 58.7286 240.232 58.7597 240.334L58.3859 240.448ZM59.7993 245.095L58.3859 240.448L58.7597 240.334L60.1731 244.982L59.7993 245.095ZM60.1731 244.982C60.2042 245.085 60.1461 245.194 60.0428 245.225C59.9396 245.256 59.8305 245.198 59.7993 245.095L60.1731 244.982Z" fill="#C98560"/>
<path d="M75.6727 233.618L75.2168 238.237C75.0492 239.933 73.6325 241.478 72.0673 241.684" stroke="#C6D6F7" stroke-width="0.396674" stroke-miterlimit="22.9256" stroke-linecap="round" stroke-linejoin="round"/>
<path fill-rule="evenodd" clip-rule="evenodd" d="M71.7157 122.175L73.3863 129.955C74.9676 137.364 82.3088 142.076 89.7836 140.481C97.2587 138.886 102.036 131.588 100.455 124.18L99.4593 116.093L99.2192 114.968L98.0305 109.643L96.5657 105.953C96.5657 105.953 93.8626 101.186 90.762 102.526C89.026 103.879 86.3953 104.888 84.0885 105.134C82.3748 105.317 80.8479 105.132 80.0342 104.825C78.2978 104.17 73.8347 110.957 72.6666 112.155L73.4437 121.286C73.5536 121.801 72.6974 122.12 71.7157 122.175Z" fill="#EBA884"/>
<path fill-rule="evenodd" clip-rule="evenodd" d="M69.6621 119.704C68.7933 119.89 68.1529 121.014 68.3884 122.118L69.0527 125.23C69.5347 127.487 71.7768 128.912 74.0508 128.427L72.0579 119.193L69.6621 119.704Z" fill="#EBA884"/>
<path d="M94.3218 91.9403C94.1556 91.6923 94.0383 91.614 93.7924 91.6541C93.5796 91.6961 93.5088 91.8813 93.5505 92.0923C93.5528 92.1051 94.7498 96.3568 92.947 97.8927C92.847 97.1452 93.8557 92.48 90.0567 90.0343C86.1971 87.5495 83.4859 92.6345 83.6346 92.8375C83.7835 93.0409 76.474 94.629 72.1364 98.3623C67.7991 102.096 65.7956 105.874 66.9786 111.828C68.162 117.783 67.7483 116.521 69.1126 121.237C69.5044 122.592 73.6705 122.383 73.4361 121.285L72.6589 112.154C73.827 110.956 78.2901 104.169 80.0265 104.824C80.84 105.131 82.367 105.316 84.0808 105.133C86.3878 104.887 89.0183 103.878 90.7543 102.525C93.8549 101.185 96.558 105.952 96.558 105.952L98.0172 111.793L98.7339 113.226C98.7339 113.226 101.65 113.401 100.55 109.643C99.4494 105.886 100.757 105.145 98.4449 102.108C96.8656 100.034 95.8996 99.0428 94.7503 98.4852C96.1941 96.4714 94.7561 92.5947 94.3218 91.9403Z" fill="#241813"/>
<path d="M90.8552 117.318C91.3041 119.122 91.9182 120.878 92.3515 122.689C92.587 123.678 93.3491 124.558 93.3493 125.579C93.3517 126.186 92.7696 127.156 92.1326 127.448C91.9127 127.549 92.2037 127.708 92.2983 127.735C92.5268 127.801 92.7848 127.8 93.0011 127.701C93.6328 127.412 94.3145 126.568 94.3609 125.939C94.4331 124.927 93.658 124.025 93.4393 123.043C93.0141 121.124 92.349 119.278 91.8758 117.374C91.7946 117.051 90.8011 117.105 90.8552 117.318L90.8552 117.318Z" fill="black"/>
<path d="M70.6696 123.616C70.6666 123.485 70.5571 123.381 70.4249 123.385C70.2925 123.388 70.1874 123.497 70.1906 123.628C70.1907 123.637 70.2662 126.758 72.1524 127.108C72.2827 127.132 72.4086 127.047 72.4332 126.918C72.4578 126.788 72.3723 126.664 72.2418 126.64C70.7357 126.361 70.6699 123.624 70.6694 123.616L70.6696 123.616Z" fill="#C98560"/>
<path d="M97.7527 116.261C97.8577 117.09 97.264 117.849 96.4287 117.956C95.5913 118.064 94.8293 117.478 94.7241 116.649C94.6189 115.82 95.2106 115.061 96.0481 114.954C96.8834 114.847 97.6477 115.432 97.7527 116.261Z" fill="black"/>
<path d="M85.2034 117.589C85.3084 118.417 84.7166 119.176 83.8796 119.284C83.0426 119.391 82.2796 118.806 82.1747 117.977C82.0696 117.148 82.6618 116.389 83.499 116.282C84.336 116.174 85.0984 116.759 85.2036 117.589L85.2034 117.589Z" fill="black"/>
<path d="M92.6705 133.546C92.1548 133.655 91.6393 133.764 91.1243 133.874C90.8591 133.93 91.3677 134.666 91.6294 134.61C92.1448 134.501 92.6602 134.392 93.1734 134.283C93.4404 134.226 92.93 133.491 92.6705 133.546Z" fill="black"/>
<path d="M95.871 109.814C94.3098 109.814 93.8636 109.554 92.3079 109.711C91.5408 109.788 90.4164 109.431 89.8805 108.722C89.298 107.95 90.3033 107.695 90.7541 107.65C92.3097 107.493 92.7561 107.753 94.3172 107.754C95.1157 107.755 96.1757 107.99 96.745 108.742C97.3074 109.488 96.3439 109.815 95.871 109.814L95.871 109.814Z" fill="#241813"/>
<path d="M72.8515 162.354C73.1368 162.366 73.3585 162.608 73.3464 162.893C73.3342 163.178 73.0927 163.4 72.8073 163.388C69.6659 163.25 66.752 162.437 64.4378 161.203C62.0202 159.914 60.2407 158.156 59.509 156.21C59.4082 155.942 59.5439 155.643 59.8119 155.542C60.0799 155.441 60.3792 155.577 60.48 155.845C61.1215 157.551 62.727 159.116 64.9251 160.288C67.1121 161.454 69.8717 162.223 72.8517 162.354L72.8515 162.354Z" fill="#D90324"/>
<path d="M68.2319 119.594L78.7683 115.732" stroke="#160045" stroke-width="0.807645" stroke-miterlimit="22.9256" stroke-linecap="round" stroke-linejoin="round"/>
<path d="M89.129 116.16C90.0034 115.285 92.0497 114.936 92.8398 115.619" stroke="#160045" stroke-width="0.807645" stroke-miterlimit="22.9256"/>
<path fill-rule="evenodd" clip-rule="evenodd" d="M83.5598 113.202C78.3142 113.953 78.6561 116.36 78.8819 117.948C79.1075 119.536 79.5554 122.685 84.8008 121.933C90.0466 121.181 89.5992 118.032 89.3734 116.445C89.1477 114.857 88.8054 112.45 83.5598 113.202V113.202Z" stroke="#160045" stroke-width="0.807645" stroke-miterlimit="22.9256"/>
<path fill-rule="evenodd" clip-rule="evenodd" d="M97.1429 111.892C92.2971 112.597 92.6343 115.005 92.8568 116.593C93.0794 118.181 93.5202 121.325 98.3661 120.62C103.212 119.915 102.771 116.772 102.549 115.183C102.326 113.595 101.989 111.188 97.1429 111.892V111.892Z" stroke="#160045" stroke-width="0.807645" stroke-miterlimit="22.9256"/>
<path d="M102.387 114.221L99.456 114.66" stroke="#160045" stroke-width="0.807645" stroke-miterlimit="22.9256" stroke-linecap="round" stroke-linejoin="round"/>
<path d="M87.7984 130.766C87.7898 130.664 87.822 130.464 88.0053 130.5C89.8782 130.867 93.6213 130.711 95.4715 130.189C95.6525 130.138 95.6952 130.335 95.6917 130.438C95.8045 131.033 93.8062 132.314 91.7905 132.4C89.7629 132.486 87.7151 131.373 87.7984 130.766Z" fill="black"/>
<path d="M87.7984 130.766C87.7898 130.664 87.822 130.464 88.0053 130.5C89.8782 130.867 93.6213 130.711 95.4715 130.189C95.6525 130.138 95.6952 130.335 95.6917 130.438C95.8045 131.033 93.8062 132.314 91.7905 132.4C89.7629 132.486 87.7151 131.373 87.7984 130.766Z" stroke="black" stroke-width="0.123012" stroke-miterlimit="22.9256"/>
<path d="M88.3243 131.058C88.3226 131.01 88.3922 130.687 88.5276 130.73C89.296 130.976 90.604 130.918 91.7599 130.886C92.9157 130.855 94.2077 130.841 94.9689 130.533C95.0957 130.481 95.1822 130.8 95.1822 130.848C95.2924 131.111 93.5481 132.024 91.7844 132.08C90.0208 132.136 88.2221 131.329 88.3241 131.058L88.3243 131.058Z" fill="white"/>
<path d="M77.7162 112.222C79.5775 111.606 81.4215 110.877 83.4046 110.837C84.1635 110.822 85.0296 110.193 85.382 109.551C85.732 108.912 85.3653 108.486 84.6887 108.5C82.4621 108.545 80.3711 109.329 78.2823 110.02C77.5797 110.253 76.7442 110.763 76.5446 111.531C76.3574 112.26 77.1912 112.395 77.7162 112.222L77.7162 112.222Z" fill="#241813"/>
<path fill-rule="evenodd" clip-rule="evenodd" d="M28.5413 187.779C20.8057 195.966 18.2263 207.505 28.8769 216.783C28.9251 216.852 28.9739 216.922 29.0233 216.991L29.1564 216.862L29.1583 216.86L29.1656 216.853L29.175 216.844L29.1753 216.843L29.1778 216.841L29.178 216.841L29.1801 216.838L29.1872 216.832L29.1874 216.831L29.1898 216.829L29.1903 216.829L29.1921 216.827L29.1934 216.825L29.1947 216.824L29.1965 216.822L29.197 216.822L29.1994 216.819L29.1997 216.819L29.2018 216.817L29.2027 216.816L29.2043 216.815L29.2057 216.813L29.2066 216.813L29.2088 216.81L29.209 216.81L29.2114 216.808L29.2118 216.807L29.2138 216.805L29.2149 216.804L29.2163 216.803L29.218 216.801L29.2186 216.8L29.2211 216.798C29.3317 216.688 29.4407 216.576 29.5481 216.463L29.637 216.369C29.7174 216.284 29.7971 216.198 29.8757 216.112L29.9656 216.013C30.0673 215.901 30.1675 215.787 30.2658 215.673L30.2711 215.667L30.2982 215.634C30.3891 215.528 30.4787 215.421 30.5671 215.313L30.6436 215.219C30.7177 215.128 30.7911 215.036 30.8635 214.943L30.9424 214.842C31.0328 214.725 31.1218 214.607 31.2092 214.489L31.264 214.413C31.334 214.317 31.4037 214.22 31.4721 214.123L31.5633 213.991C31.6211 213.907 31.6782 213.823 31.7346 213.739L31.8201 213.611C31.9006 213.489 31.9795 213.366 32.0567 213.243L32.0857 213.196C32.1535 213.087 32.2199 212.977 32.2857 212.867L32.3638 212.735C32.4172 212.643 32.4696 212.552 32.5215 212.46L32.5869 212.344C32.6567 212.218 32.7254 212.092 32.7921 211.966L32.8417 211.87C32.8936 211.77 32.9448 211.67 32.9948 211.57L33.0652 211.427C33.1067 211.342 33.1475 211.257 33.1878 211.172L33.2602 211.018C33.3185 210.892 33.3753 210.766 33.4305 210.639L33.4769 210.53C33.5171 210.436 33.557 210.342 33.5958 210.247L33.6643 210.078C33.6989 209.992 33.7327 209.905 33.7662 209.818L33.8224 209.672C33.87 209.546 33.916 209.419 33.9606 209.292L34.0142 209.136C34.0435 209.051 34.0723 208.966 34.1003 208.88L34.159 208.699C34.1839 208.62 34.2081 208.542 34.2319 208.463L34.2863 208.283C34.3231 208.158 34.3588 208.033 34.3929 207.907C34.4094 207.847 34.4248 207.786 34.4409 207.726C34.4604 207.65 34.4801 207.575 34.4991 207.5L34.5515 207.286L34.596 207.094C34.6131 207.019 34.6304 206.944 34.6467 206.869L34.6472 206.867C34.6726 206.749 34.6969 206.632 34.7201 206.514L34.7209 206.51C34.7362 206.433 34.7501 206.355 34.7644 206.278L34.7965 206.102C34.8105 206.022 34.8241 205.943 34.837 205.863L34.8668 205.674C34.8783 205.599 34.8898 205.525 34.9006 205.45C34.9174 205.331 34.9333 205.213 34.948 205.094L34.948 205.093C34.9579 205.011 34.9672 204.93 34.9762 204.849L34.9956 204.669C35.0037 204.59 35.0113 204.511 35.0183 204.432L35.033 204.258C35.0394 204.179 35.0463 204.1 35.0517 204.021C35.0601 203.902 35.0672 203.782 35.0734 203.663L35.0735 203.661C35.078 203.574 35.0817 203.487 35.0848 203.399L35.0905 203.246C35.0931 203.159 35.0953 203.073 35.0969 202.987L35.0988 202.842C35.1008 202.66 35.1005 202.478 35.0977 202.296L35.097 202.222C35.0952 202.131 35.0923 202.04 35.0891 201.949L35.0844 201.818C35.0806 201.722 35.0763 201.627 35.0713 201.531L35.0666 201.453C35.0543 201.237 35.0387 201.022 35.0193 200.806L35.0183 200.793C35.009 200.691 34.9984 200.588 34.9875 200.486L34.9788 200.405C34.9671 200.299 34.9548 200.193 34.9414 200.087L34.9372 200.055C34.8945 199.72 34.8432 199.387 34.7835 199.055L34.7702 198.981C34.7508 198.876 34.7311 198.77 34.71 198.665L34.705 198.641C34.6373 198.304 34.5603 197.968 34.4752 197.634L34.4614 197.58C34.4343 197.475 34.4068 197.371 34.378 197.266L34.3644 197.217C34.2757 196.899 34.1788 196.582 34.0741 196.267L34.0415 196.17C34.0085 196.073 33.9752 195.976 33.9406 195.878L33.9342 195.86C33.8547 195.637 33.7709 195.416 33.6834 195.195L33.6831 195.194C32.706 192.737 31.2251 190.434 29.238 188.444C29.0097 188.215 28.777 187.994 28.5405 187.779L28.5413 187.779Z" fill="#FF5E04"/>
<path fill-rule="evenodd" clip-rule="evenodd" d="M140.82 147.924C147.962 143.262 151.769 133.934 144.708 124.574C144.681 124.507 144.657 124.64 144.628 124.574L144.507 124.645L144.505 124.646L144.499 124.649L144.49 124.654L144.488 124.656L144.486 124.657L144.479 124.661L144.477 124.662L144.475 124.664L144.472 124.665L144.471 124.666L144.468 124.668L144.466 124.669L144.464 124.67L144.462 124.671L144.459 124.673L144.457 124.674L144.455 124.676L144.453 124.677L144.451 124.678L144.448 124.68C144.347 124.741 144.247 124.804 144.148 124.868L144.066 124.921C143.991 124.97 143.918 125.019 143.845 125.069L143.761 125.126C143.667 125.191 143.573 125.257 143.481 125.325L143.476 125.328L143.45 125.348C143.365 125.411 143.28 125.474 143.197 125.539L143.124 125.595C143.054 125.65 142.984 125.706 142.915 125.762L142.84 125.824C142.753 125.895 142.668 125.968 142.583 126.041L142.53 126.088C142.462 126.148 142.395 126.208 142.328 126.269L142.239 126.352C142.182 126.405 142.126 126.458 142.07 126.512L141.986 126.593C141.907 126.671 141.828 126.75 141.751 126.829L141.722 126.86C141.654 126.93 141.587 127.001 141.52 127.073L141.441 127.16C141.387 127.22 141.333 127.28 141.28 127.341L141.213 127.417C141.141 127.501 141.07 127.584 141 127.669L140.948 127.733C140.894 127.8 140.84 127.868 140.787 127.935L140.713 128.032C140.668 128.09 140.625 128.148 140.581 128.206L140.504 128.311C140.441 128.397 140.379 128.484 140.318 128.572L140.266 128.647C140.222 128.713 140.178 128.778 140.134 128.844L140.057 128.962C140.018 129.022 139.98 129.083 139.941 129.144L139.877 129.247C139.822 129.336 139.769 129.426 139.716 129.516L139.652 129.627C139.618 129.688 139.583 129.749 139.549 129.81L139.478 129.941C139.448 129.997 139.418 130.054 139.388 130.111L139.32 130.241C139.274 130.331 139.229 130.422 139.184 130.514C139.163 130.558 139.142 130.603 139.121 130.647C139.095 130.702 139.069 130.758 139.044 130.813L138.973 130.971L138.911 131.113C138.887 131.168 138.863 131.224 138.84 131.28L138.839 131.281C138.803 131.368 138.767 131.456 138.732 131.544L138.731 131.547C138.708 131.605 138.686 131.663 138.664 131.721L138.614 131.854C138.592 131.914 138.57 131.974 138.549 132.034L138.499 132.178C138.479 132.234 138.46 132.291 138.441 132.347C138.411 132.438 138.381 132.528 138.353 132.62C138.334 132.682 138.315 132.745 138.296 132.807L138.256 132.946C138.238 133.007 138.221 133.068 138.204 133.129L138.168 133.264C138.152 133.325 138.135 133.386 138.12 133.448C138.096 133.541 138.073 133.634 138.052 133.727C138.036 133.796 138.02 133.866 138.005 133.934L137.979 134.055C137.964 134.123 137.95 134.191 137.937 134.26L137.915 134.374C137.887 134.519 137.861 134.663 137.837 134.809L137.827 134.868C137.816 134.94 137.805 135.014 137.794 135.087L137.779 135.192C137.768 135.269 137.758 135.346 137.748 135.423L137.741 135.487C137.719 135.662 137.7 135.837 137.685 136.012L137.684 136.023C137.676 136.107 137.67 136.191 137.663 136.275L137.658 136.341C137.652 136.428 137.647 136.516 137.642 136.604L137.64 136.63C137.625 136.906 137.617 137.183 137.616 137.462L137.616 137.524C137.616 137.612 137.616 137.701 137.617 137.789L137.617 137.81C137.621 138.094 137.633 138.379 137.651 138.666L137.653 138.712C137.659 138.802 137.666 138.892 137.673 138.982L137.676 139.024C137.699 139.298 137.729 139.574 137.765 139.849L137.776 139.934C137.787 140.019 137.799 140.105 137.812 140.19L137.814 140.206C137.844 140.402 137.877 140.599 137.913 140.795C138.315 142.983 139.129 145.17 140.378 147.228C140.521 147.464 140.669 147.696 140.82 147.924Z" fill="#FF5E04"/>
<circle cx="516.05" cy="112.54" r="73.6398" fill="white" stroke="#6430FB" stroke-width="3.71293"/>
<mask id="mask0_2052_7234" style="mask-type:alpha" maskUnits="userSpaceOnUse" x="378" y="0" width="212" height="185">
<path d="M589.926 110.683C589.926 151.354 556.956 184.323 516.286 184.323C488.144 184.323 463.986 168.537 451.772 145.337C446.335 135.009 406.755 121.203 378.908 67.9846C378.908 27.3144 370.243 -18.0316 509.479 7.34023C550.149 7.34023 589.926 70.0133 589.926 110.683Z" fill="#C4C4C4"/>
</mask>
<g mask="url(#mask0_2052_7234)">
<path d="M440.998 110.209C440.998 110.209 442.383 103.202 440.175 101.323C437.966 99.4441 431.238 92.9317 430 93.6739C428.762 94.4161 426.694 98.8423 427.332 101.43C427.97 104.018 436.453 113.385 436.453 113.385L440.998 110.209Z" fill="#FFA988"/>
<path d="M491.409 43.3862C489.941 30.8093 493.713 10.6704 517.669 13.8865C541.624 17.1025 549.201 41.7882 544.363 52.7603C539.524 63.7324 551.326 66.3868 555.028 78.168C558.22 88.3043 559.318 100.901 564.469 106.544C581.065 124.758 548.511 152.766 528.922 146.862C493.177 136.104 488.594 134.493 489.865 105.093C490.503 90.0294 501.705 84.1923 494.601 79.8329C477.437 69.3288 494.741 71.8629 491.409 43.3862Z" fill="#3C1C16"/>
<path d="M498.665 83.785L505.776 94.951L520.042 94.2222L526.642 76.3365C526.642 76.3365 525.417 76.0958 524.408 65.4714C524.165 62.6765 523.917 59.1796 523.693 54.7734C523.693 54.7734 523.693 54.7734 523.693 54.7266C523.693 54.3655 523.693 53.9978 523.648 53.6367L521.804 54.2117L505.84 59.3267C505.84 59.3267 505.917 59.8884 506.025 60.8512C506.332 64.3838 506.167 67.9441 505.534 71.4288C504.672 75.8417 502.744 80.5622 498.665 83.785Z" fill="#FFA988"/>
<path d="M498.615 74.4568C499.534 74.4568 515.102 71.1137 541.381 78.1877C541.381 78.1877 526.981 147.297 531.87 160.328C534.847 168.285 537.108 176.516 538.624 184.914L485.555 185.582C485.555 185.582 486.296 140.871 483.851 125.045C481.407 109.219 498.615 74.4568 498.615 74.4568Z" fill="#FFA988"/>
<path d="M441.733 102.158C441.733 102.158 458.687 126.229 461.68 126.008C464.872 125.727 472.972 95.7997 479.08 84.7607C483.363 77.0582 498.114 74.7313 499.078 74.6177H499.129L499.091 74.7715C499.219 76.1956 503.29 79.4722 509.334 80.5152C520.473 82.4409 526.576 79.9065 529.2 75.6072C529.2 75.6072 541.966 78.9905 545.744 83.4703C549.3 87.716 544.468 119.168 543.357 122.184C542.419 124.771 541.538 127.299 540.804 129.839C538.768 136.526 537.523 143.339 538.251 151.717C539.029 160.864 547.187 181.771 545.425 186.224C543.574 190.905 541.18 192.409 535.557 193.759C531.682 194.695 526.18 196.006 518.642 196.401C502.653 197.23 485.521 195.131 483.191 187.167C482.068 183.343 484.607 167.143 485.2 160.343C485.296 150.3 481.487 141.779 482.368 130.816H479.08C477.363 133.584 478.557 136.72 476.521 139.494C473.45 143.633 470.253 147.264 467.527 148.942C466.929 149.313 466.285 149.594 465.612 149.778C462.591 150.359 459.47 149.788 456.816 148.166C456.229 147.817 455.668 147.421 455.138 146.983C445.027 138.612 436.091 112.529 436.091 112.529C435.133 106.451 441.733 102.158 441.733 102.158Z" fill="#FFD4BE"/>
<path d="M549.329 185.561C547.285 190.478 537.591 193.424 531.382 194.843C523.086 193.249 521.09 179.889 518.271 172.393C515.022 163.759 528.392 123.274 533.072 123.682C536.547 123.984 539.859 128.782 539.972 131.676C537.731 138.701 537.259 142.818 538.048 151.62C538.894 161.23 551.288 180.882 549.329 185.561Z" fill="#F3C8B2"/>
<path d="M457.123 148.16C459.777 149.781 462.897 150.353 465.919 149.771C466.591 149.588 467.236 149.307 467.834 148.936C470.559 147.257 473.757 143.627 476.828 139.488C478.857 136.713 480.849 133.751 482.572 130.983C482.183 129.479 480.271 126.802 475.688 131.723C467.996 139.987 467.094 147.491 462.211 147.919C460.525 148.073 458.796 148.16 457.123 148.16Z" fill="#FFD4BE"/>
<path d="M505.539 71.4287C510.601 72.8796 522.958 55.8096 523.718 54.7799V54.7131L521.803 54.1982L505.846 59.3266C505.846 59.3266 505.922 59.8882 506.031 60.8511C506.338 64.3837 506.172 67.9439 505.539 71.4287Z" fill="#ED9074"/>
<path d="M501.673 60.559C501.673 60.559 513.635 69.3765 525.191 51.2766C527.668 37.3024 531.861 28.3225 518.329 24.8591C504.798 21.3956 499.249 28.2322 497.341 32.712C495.432 37.1918 493.628 52.9791 501.673 60.559Z" fill="#FFA988"/>
<path d="M501.07 40.5569C501.032 41.6494 500.413 42.5162 499.684 42.4886C498.955 42.461 498.396 41.5552 498.434 40.4611C498.471 39.367 499.091 38.5034 499.818 38.5294C500.546 38.5554 501.107 39.4628 501.07 40.5569Z" fill="#3C1C16"/>
<path d="M512.953 40.5561C512.915 41.6498 512.296 42.5147 511.567 42.4887C510.838 42.4627 510.28 41.5557 510.316 40.462C510.353 39.3683 510.974 38.5034 511.703 38.5294C512.432 38.5553 512.991 39.464 512.953 40.5561Z" fill="#3C1C16"/>
<path d="M501.077 52.0438C501.631 52.844 502.342 53.4999 503.159 53.9636C504.053 54.4111 505.066 54.4926 506.01 54.1932C506.899 53.894 507.724 53.4072 508.439 52.7609C509.138 52.1582 509.769 51.4676 510.318 50.7038L510.056 50.4102C509.336 50.9484 508.668 51.5262 507.945 52.0118C507.27 52.516 506.532 52.9134 505.753 53.1919C505.012 53.4373 504.219 53.4228 503.486 53.1505C502.746 52.8512 502.049 52.3186 501.351 51.7615L501.077 52.0438Z" fill="#3C1C16"/>
<path d="M497.31 37.1418C497.792 36.7571 498.304 36.419 498.842 36.1315C499.309 35.8939 499.825 35.7931 500.34 35.8394C500.877 35.9152 501.4 36.0803 501.889 36.3287C502.426 36.5786 502.951 36.9147 503.553 37.2087L503.717 37.0327C503.388 36.4021 502.941 35.8514 502.404 35.4152C501.832 34.9408 501.146 34.6504 500.425 34.5774C499.672 34.5168 498.924 34.7617 498.33 35.2639C497.786 35.713 497.366 36.313 497.116 36.9992L497.31 37.1418Z" fill="#3C1C16"/>
<path d="M509.194 36.9404C509.752 36.5407 510.37 36.2266 511.027 36.0091C511.634 35.8228 512.274 35.7602 512.907 35.8252C513.557 35.9001 514.194 36.0631 514.797 36.3094C515.431 36.5625 516.05 36.8898 516.741 37.2087L516.916 37.04C516.513 36.3859 515.968 35.824 515.319 35.3933C514.639 34.9388 513.85 34.6611 513.027 34.5869C512.182 34.5075 511.333 34.6844 510.597 35.093C509.887 35.4755 509.324 36.0713 508.995 36.7903L509.194 36.9404Z" fill="#3C1C16"/>
<path d="M505.906 39.8491C505.611 40.7791 505.116 41.6606 504.444 42.4539C503.789 43.2609 503.023 44.0082 502.249 44.7969C502.043 44.9941 501.865 45.1979 501.679 45.4166C501.47 45.6509 501.298 45.9053 501.167 46.1739C501.075 46.364 501.05 46.5711 501.095 46.772C501.157 46.964 501.278 47.1406 501.446 47.2857C501.683 47.4955 501.952 47.6803 502.247 47.8358C503.325 48.3875 504.498 48.8101 505.728 49.0902L505.899 48.7588C505.373 48.5069 504.832 48.2617 504.322 48.0015C503.81 47.7545 503.318 47.4822 502.848 47.1863C502.638 47.0525 502.445 46.9026 502.272 46.7389C502.212 46.6726 502.144 46.5732 502.175 46.6097C502.182 46.5644 502.198 46.5203 502.222 46.4788C502.383 46.1474 502.796 45.7431 503.153 45.3586C503.901 44.5798 504.687 43.7679 505.288 42.8549C505.934 41.9491 506.3 40.9318 506.354 39.8889L505.906 39.8491Z" fill="#3C1C16"/>
<path d="M499.028 22.3583C509.56 11.4797 518.777 17.8584 516.492 20.7669C520.322 20.7001 525.498 21.5292 529.111 25.7883C535.43 33.2301 523.951 59.3211 523.951 59.3211C523.951 59.3211 523.951 41.3753 518.241 34.1528C514.896 30.3216 513.027 26.228 512.197 24.0483C510.924 25.1549 507.558 25.9173 506.009 26.5236C495.217 27.2565 495.129 41.5946 495.129 41.5946C492.697 36.2523 494.49 27.0453 499.028 22.3583Z" fill="#3C1C16"/>
<path d="M387.422 75.0198C387.422 75.0198 420.843 68.0225 460.812 68.5876L463.105 57.1658L465.639 44.65C465.639 44.65 423.905 34.0157 396.533 13.7271L387.422 75.0198Z" fill="#00A3FE"/>
<path d="M387.422 75.0199C386.728 74.9427 386.056 74.7167 385.448 74.3561C384.841 73.9954 384.31 73.5077 383.89 72.9232C383.469 72.3387 383.168 71.6698 383.004 70.9582C382.841 70.2465 382.818 69.5072 382.938 68.786L391.929 16.4503C392.364 13.9135 394.119 13.1079 396.515 13.7271L387.422 75.0199Z" fill="#364154"/>
<path d="M426.228 69.8139C403.294 71.6955 387.406 75.0199 387.406 75.0199C387.406 75.0199 425.448 55.8613 463.146 57.1598L460.853 68.5816C453.766 68.4794 446.886 68.6177 440.361 68.9122C440.361 69.1226 440.361 69.333 440.361 69.5494L439.375 105.582C439.315 107.541 438.518 109.396 437.158 110.741C435.798 112.086 433.985 112.812 432.116 112.76C430.248 112.7 428.479 111.867 427.195 110.443C425.911 109.019 425.217 107.12 425.265 105.161L426.228 69.8139Z" fill="#016EB9"/>
<path d="M449.816 68.6179L460.636 68.7081C460.475 68.7441 470.721 69.0147 472.453 59.1318C472.646 58.4426 472.747 57.7283 472.751 57.0098C473.387 44.9869 467.017 43.8928 467.017 43.8928L452.597 40.7188L450.923 57.5508V57.6109L449.816 68.6179Z" fill="#364154"/>
<path d="M449.816 68.6177L460.636 68.7079C460.475 68.7439 470.721 69.0144 472.452 59.1316C465.773 55.6089 450.934 57.5746 450.934 57.5746V57.6348L449.816 68.6177Z" fill="#131F2D"/>
<path d="M520.854 196.7C529.518 188.243 540.049 175.66 543.757 146.994C544.171 144.842 542.469 140.583 540.049 134.525C535.069 122.062 527.808 100.426 528.899 75.4106C528.899 75.4106 542.913 75.3444 546.226 82.2178C552.845 88.67 563.553 122.422 563.553 146.994C563.553 146.994 564.195 168.018 548.658 188.243C540.404 192.979 530.762 195.604 520.854 196.7Z" fill="#FFD4BE"/>
<circle cx="503.914" cy="126.773" r="0.618822" fill="black"/>
<circle cx="507.623" cy="105.733" r="0.618822" fill="black"/>
<circle cx="501.445" cy="145.338" r="0.618822" fill="black"/>
<circle cx="501.445" cy="166.378" r="0.618822" fill="black"/>
<path d="M421.42 99.4872C421.42 99.4872 420.87 91.4583 424.032 90.2285C427.03 89.0623 430.092 87.051 430.651 89.2757C430.848 90.0607 429.15 89.8892 426.87 91.1712C425.562 91.7971 425.745 93.467 425.42 94.6985C425.095 95.9301 425.99 105.339 423.979 104.074C421.968 102.809 421.42 99.4872 421.42 99.4872Z" fill="#FFA988"/>
<path d="M441.247 101.358C441.247 101.358 442.967 96.5709 441.446 94.0037C440.003 91.5692 438.697 88.9223 437.974 89.6587C437.877 90.1489 438.594 91.3868 439.173 92.4149C439.781 93.5512 439.932 95.0918 439.893 96.0571C439.854 97.0225 438.845 102.306 440.174 102.639C441.503 102.972 441.247 101.358 441.247 101.358Z" fill="#FFA988"/>
<path d="M421.612 100.782C421.612 100.782 420.203 94.4416 423.364 93.2118C426.526 91.982 432.102 89.3851 432.661 91.6098C433.275 93.1113 428.686 93.4931 427.379 94.119C426.071 94.7449 425.85 95.8851 425.525 97.1166C425.2 98.3481 425.329 105.114 425.326 105.114C422.952 105.032 421.612 100.782 421.612 100.782Z" fill="#FFA988"/>
<path d="M422.692 100.486C422.692 100.486 420.298 97.4251 423.459 96.1953C426.621 94.9655 431.829 93.0016 431.525 95.3522C431.318 96.9608 430.219 95.5398 426.02 97.5494C424.712 98.1753 423.892 99.8728 423.568 101.104C423.243 102.336 426.456 104.066 424.445 102.801C422.435 101.536 422.692 100.486 422.692 100.486Z" fill="#FFA988"/>
<path d="M423.638 101.774C423.638 101.774 421.61 99.2432 423.708 98.4275C425.786 97.4004 429.843 96.2732 430.329 97.4747C430.613 99.4566 428.498 98.5687 426.218 99.8507C425.44 100.519 424.434 101.368 424.219 102.185C424.003 103.001 426.134 104.149 424.801 103.31C423.467 102.471 423.638 101.774 423.638 101.774Z" fill="#FFA988"/>
</g>
</g>
<defs>
<clipPath id="clip0_2052_7234">
<rect width="629.037" height="434" fill="white" transform="translate(0.963135)"/>
</clipPath>
<clipPath id="clip1_2052_7234">
<rect width="15.2517" height="15.2517" fill="white" transform="translate(206.249 98.3105)"/>
</clipPath>
</defs>
</svg>
