<svg width="135" height="262" viewBox="0 0 135 262" fill="none" xmlns="http://www.w3.org/2000/svg">
<g clip-path="url(#clip0_2207_7598)">
<g opacity="0.2">
<path opacity="0.55" d="M90.5344 31.3302L98.4343 28.9722C95.6506 29.41 92.9928 30.2034 90.5344 31.3302V31.3302Z" fill="url(#paint0_linear_2207_7598)"/>
<path opacity="0.55" d="M108.46 29.9702L78.8789 38.7948C78.4254 39.1513 77.9754 39.5143 77.5288 39.8838L109.556 30.3278C109.208 30.2028 108.844 30.0829 108.46 29.9702Z" fill="url(#paint1_linear_2207_7598)"/>
<path opacity="0.55" d="M113.315 33.2526L70.8214 45.9248L69.7473 46.916L113.768 33.7809C113.624 33.6177 113.474 33.4331 113.315 33.2526Z" fill="url(#paint2_linear_2207_7598)"/>
<path opacity="0.55" d="M114.962 37.5925L63.7426 52.8748L62.6856 53.8713L115.103 38.2287C115.058 38.0163 115.01 37.8029 114.962 37.5925Z" fill="url(#paint3_linear_2207_7598)"/>
<path opacity="0.55" d="M115.311 42.4005L56.1378 60.0566C55.6767 60.4352 55.2257 60.8016 54.7849 61.1557L115.374 43.0726C115.356 42.8418 115.332 42.6191 115.311 42.4005Z" fill="url(#paint4_linear_2207_7598)"/>
<path opacity="0.55" d="M115.578 47.5575L42.1981 69.448C41.1546 69.9907 40.109 70.5318 39.0614 71.0712L115.717 48.2057C115.658 47.9893 115.615 47.7709 115.578 47.5575Z" fill="url(#paint5_linear_2207_7598)"/>
<path opacity="0.55" d="M116.278 52.5383L25.5854 79.5981C25.0751 79.9664 24.5749 80.3443 24.0849 80.7317L116.453 53.1711C116.394 52.9609 116.334 52.7506 116.278 52.5383Z" fill="url(#paint6_linear_2207_7598)"/>
<path opacity="0.55" d="M117.242 57.0713L18.34 86.5709C18.1122 86.8632 17.8879 87.1566 17.6732 87.4561L117.435 57.6898C117.377 57.4867 117.309 57.2806 117.242 57.0713Z" fill="url(#paint7_linear_2207_7598)"/>
<path opacity="0.55" d="M118.368 61.4159L14.8358 92.3038C14.7255 92.5654 14.6194 92.8249 14.5167 93.0854L118.594 62.0343L118.368 61.4159Z" fill="url(#paint8_linear_2207_7598)"/>
<path opacity="0.55" d="M119.572 65.6673L13.0347 97.4544C12.981 97.6934 12.9267 97.9355 12.8931 98.1836L119.802 66.2867C119.723 66.0805 119.647 65.8754 119.572 65.6673Z" fill="url(#paint9_linear_2207_7598)"/>
<path opacity="0.55" d="M120.767 69.8926L12.1509 102.298C12.1353 102.532 12.1203 102.762 12.1082 102.997L120.986 70.5119L120.767 69.8926Z" fill="url(#paint10_linear_2207_7598)"/>
<path opacity="0.55" d="M121.861 74.128L11.7918 106.968C11.7962 107.194 11.8041 107.422 11.812 107.65L122.058 74.7576L121.861 74.128Z" fill="url(#paint11_linear_2207_7598)"/>
<path opacity="0.55" d="M122.775 78.4156L11.7615 111.539C11.7818 111.761 11.798 111.985 11.8176 112.209L122.937 79.0575C122.882 78.8422 122.826 78.63 122.775 78.4156Z" fill="url(#paint12_linear_2207_7598)"/>
<path opacity="0.55" d="M123.419 82.7806L11.9057 116.056L11.9757 116.73L123.531 83.4471C123.497 83.2215 123.454 83.0031 123.419 82.7806Z" fill="url(#paint13_linear_2207_7598)"/>
<path opacity="0.55" d="M123.822 87.2356L12.1285 120.559L12.2123 121.221L123.896 87.8909L123.822 87.2356Z" fill="url(#paint14_linear_2207_7598)"/>
<path opacity="0.55" d="M123.993 91.7576L12.4563 125.036L12.5643 125.688L124.033 92.4323C124.021 92.2067 124.009 91.9811 123.993 91.7576Z" fill="url(#paint15_linear_2207_7598)"/>
<path opacity="0.55" d="M123.882 96.3706L12.986 129.455C13.0332 129.672 13.0812 129.885 13.1326 130.099L123.875 97.0576C123.879 96.83 123.882 96.5992 123.882 96.3706Z" fill="url(#paint16_linear_2207_7598)"/>
<path opacity="0.55" d="M123.431 101.085L13.7879 133.79L13.9864 134.417L123.361 101.789C123.384 101.554 123.411 101.321 123.431 101.085Z" fill="url(#paint17_linear_2207_7598)"/>
<path opacity="0.55" d="M122.549 105.926L15.0072 138.021C15.0946 138.223 15.1861 138.423 15.2776 138.623L122.407 106.658C122.458 106.415 122.505 106.174 122.549 105.926Z" fill="url(#paint18_linear_2207_7598)"/>
<path opacity="0.55" d="M121.105 110.943L16.7164 142.099C16.8349 142.294 16.9554 142.496 17.0808 142.676L120.858 111.7C120.943 111.45 121.026 111.197 121.105 110.943Z" fill="url(#paint19_linear_2207_7598)"/>
<path opacity="0.55" d="M118.881 116.194L19.1089 145.961L19.5922 146.501L118.483 116.998C118.62 116.732 118.768 116.468 118.881 116.194Z" fill="url(#paint20_linear_2207_7598)"/>
<path opacity="0.55" d="M115.457 121.815L22.377 149.583C22.5902 149.75 22.8075 149.915 23.0255 150.077L114.818 122.689C115.034 122.4 115.251 122.11 115.457 121.815Z" fill="url(#paint21_linear_2207_7598)"/>
<path opacity="0.55" d="M110.074 128.062L26.885 152.862C27.1769 153.006 27.4695 153.148 27.7669 153.284L109.021 129.059C109.382 128.717 109.732 128.386 110.074 128.062Z" fill="url(#paint22_linear_2207_7598)"/>
<path opacity="0.55" d="M100.892 135.493L33.296 155.658C33.7247 155.767 34.152 155.867 34.5841 155.961L98.8822 136.78C99.5591 136.359 100.229 135.93 100.892 135.493Z" fill="url(#paint23_linear_2207_7598)"/>
<path opacity="0.55" d="M80.4002 146.616L43.8092 157.534C44.7244 157.517 45.6333 157.474 46.5359 157.404L74.883 148.949C76.7175 148.187 78.5566 147.409 80.4002 146.616Z" fill="url(#paint24_linear_2207_7598)"/>
</g>
<g clip-path="url(#clip1_2207_7598)">
<path fill-rule="evenodd" clip-rule="evenodd" d="M79.7618 130.973C79.8679 134.235 79.3951 135.812 81.8431 136.74L81.8434 136.765H81.8431C81.8431 137.869 82.4436 138.798 83.5222 138.949L83.527 138.95L83.4241 140.798L79.2148 194.979H94.2437L99.6625 155.456L105.081 194.715H120.53L116.303 140.798L116.173 138.503C116.816 138.239 117.295 137.741 117.404 137.048L117.41 137.011L117.414 136.981L117.415 136.971L117.416 136.96V136.959C117.424 136.888 117.428 136.816 117.428 136.741V136.741V136.74C119.876 135.812 119.458 134.235 119.564 130.973L119.565 125.424C126.763 124.072 132.209 116.278 127.708 106.547C121.528 93.1865 120.206 90.7328 110.492 90.7328C108.917 88.4482 108.197 86.2653 104.558 86.2653H104.558V85.6383H104.558C106.139 84.2662 107.139 82.242 107.139 79.9845L107.14 79.2452C108.397 79.2452 109.422 78.2294 109.422 76.9703V75.2343C109.422 74.6182 108.957 74.0913 108.476 74.0913H108.464C108.584 72.2845 108.519 72.5386 108.478 69.5845C108.432 66.2724 106.946 64.4848 104.231 62.9867C100.047 60.678 92.5692 61.9533 92.2865 65.6266C91.7415 66.0549 91.3428 66.694 90.7416 67.9804C89.8615 69.8635 90.6368 71.6873 90.4789 73.8177C90.4717 73.9139 90.4688 74.005 90.4695 74.0914C90.1194 74.3508 89.8917 74.767 89.8917 75.2344V76.9704C89.8917 78.2289 90.9162 79.2453 92.1732 79.2453V79.9846C92.1732 82.2483 93.1784 84.2772 94.767 85.6494V86.2654C91.1288 86.2655 90.4077 88.4483 88.833 90.7329C79.1196 90.7329 76.6414 92.8474 70.5915 106.267C67.0955 114.022 69.2467 125.074 79.7617 124.25V130.973L79.7618 130.973Z" fill="url(#paint25_linear_2207_7598)"/>
<path d="M96.7877 68.2959C97.3415 68.3374 97.7673 68.4644 98.0653 68.6767C98.3631 68.8893 98.5121 69.182 98.5121 69.5552C98.5121 69.7676 98.4628 69.9672 98.3642 70.1537C98.2655 70.3402 98.1241 70.4983 97.9394 70.6278L97.4863 70.962L97.4737 71.0009L97.5114 71.6617L96.9262 71.7549L96.8694 71.6849L96.8065 70.7522L96.838 70.6745L97.4043 70.3169C97.6393 70.1614 97.7568 69.962 97.7568 69.7184C97.7568 69.5112 97.6664 69.3517 97.4861 69.2403C97.3057 69.129 97.0141 69.0577 96.6114 69.0266L96.5547 68.9255L96.7057 68.3504L96.7875 68.2959H96.7877ZM97.2535 72.4468C97.3836 72.4468 97.4853 72.4934 97.5586 72.5866C97.6321 72.6799 97.6688 72.8095 97.6688 72.9753C97.6688 73.1514 97.6289 73.2914 97.5492 73.395C97.4696 73.4987 97.3604 73.5505 97.2219 73.5505C97.0834 73.5505 96.9775 73.5038 96.9042 73.4106C96.8306 73.3172 96.7939 73.1851 96.7939 73.0141C96.7939 72.8431 96.8348 72.7057 96.9167 72.602C96.9985 72.4984 97.1107 72.4467 97.2534 72.4467L97.2535 72.4468Z" fill="#C2BFFF"/>
<path d="M116.163 167.005L114.751 149.002L114.108 140.799L113.978 138.503C114.621 138.24 115.1 137.741 115.21 137.049L115.215 137.012L115.219 136.982L115.22 136.971L115.221 136.961V136.96C115.229 136.889 115.233 136.816 115.233 136.742V136.742V136.741C117.681 135.813 117.263 134.236 117.369 130.974L117.37 125.425C124.569 124.073 130.014 116.278 125.513 106.548C119.334 93.1876 118.781 92.6162 109.067 92.6162C107.666 90.3698 107.11 87.3153 102.364 87.4321L102.363 85.6391H102.363C103.944 84.267 104.944 82.2429 104.944 79.9853L104.945 79.246C106.203 79.246 107.228 78.2302 107.228 76.9711V75.2351C107.228 74.6191 106.762 74.0921 106.282 74.0921H106.269C106.389 72.2853 106.324 72.5394 106.283 69.5853C106.237 66.2732 104.751 64.4856 102.036 62.9875C97.8522 60.6788 90.7054 62.1857 90.0918 65.6274C89.5468 66.0557 89.1481 66.6948 88.5468 67.9812C87.6668 69.8643 88.4421 71.6881 88.2842 73.8186C88.2771 73.9147 88.2741 74.0058 88.2749 74.0922C87.9246 74.3516 87.697 74.7678 87.697 75.2352V76.9712C87.697 78.2298 88.7215 79.2461 89.9784 79.2461V79.9854C89.9784 82.2491 91.0771 83.8816 92.6655 85.2537V85.8698C89.8902 85.8699 89.3693 87.3098 87.7947 89.5945C86.2652 89.5945 84.8862 89.6751 83.625 89.8635M94.317 178.284L97.4678 155.456L98.2872 161.393L94.317 178.284Z" stroke="#C2BFFF" stroke-width="0.528745" stroke-miterlimit="22.9256" stroke-linecap="round" stroke-linejoin="round"/>
<path d="M117.369 123.294C123.189 121.558 127.098 114.935 123.327 106.783" stroke="#C2BFFF" stroke-width="0.469867" stroke-miterlimit="22.9256" stroke-linecap="round" stroke-linejoin="round"/>
<path fill-rule="evenodd" clip-rule="evenodd" d="M59.8085 130.973C59.7024 134.235 60.1752 135.812 57.7273 136.74L57.7269 136.765H57.7273C57.7273 137.869 57.1267 138.798 56.0481 138.949L56.0433 138.95L56.1463 140.798L60.3555 194.979H45.3266L39.9078 155.456L34.489 194.715H19.0398L23.2674 140.798L23.3975 138.503C22.7543 138.239 22.2753 137.741 22.166 137.048L22.1604 137.011L22.1568 136.981L22.1555 136.971L22.1542 136.96V136.959C22.1465 136.888 22.1424 136.816 22.1423 136.741V136.741V136.74C19.6944 135.812 20.1127 134.235 20.0065 130.973L20.0053 125.424C12.8071 124.072 7.36154 116.278 11.8624 106.547C18.0418 93.1865 19.3648 90.7328 29.0783 90.7328C30.6529 88.4482 31.3735 86.2653 35.012 86.2653H35.0122V85.6383H35.0123C33.4312 84.2662 32.4312 82.242 32.4312 79.9845L32.4304 79.2452C31.1731 79.2452 30.1481 78.2294 30.1481 76.9703V75.2343C30.1481 74.6182 30.6137 74.0913 31.0939 74.0913H31.1068C30.9863 72.2845 31.0514 72.5386 31.0925 69.5845C31.1386 66.2724 32.6247 64.4848 35.3396 62.9867C39.5233 60.678 47.0011 61.9533 47.2838 65.6266C47.8288 66.0549 48.2276 66.694 48.8287 67.9804C49.7088 69.8635 48.9336 71.6873 49.0914 73.8177C49.0986 73.9139 49.1015 74.005 49.1008 74.0914C49.4509 74.3508 49.6786 74.767 49.6786 75.2344V76.9704C49.6786 78.2289 48.6542 79.2453 47.3971 79.2453V79.9846C47.3971 82.2483 46.3919 84.2772 44.8033 85.6494V86.2654C48.4415 86.2655 49.1626 88.4483 50.7373 90.7329C60.4507 90.7329 62.9289 92.8474 68.9788 106.267C72.4748 114.022 70.3236 125.074 59.8086 124.25V130.973L59.8085 130.973Z" fill="url(#paint26_linear_2207_7598)"/>
<path d="M37.0064 68.2959C37.5602 68.3374 37.9861 68.4644 38.284 68.6767C38.5819 68.8893 38.7309 69.182 38.7309 69.5552C38.7309 69.7676 38.6815 69.9672 38.5829 70.1537C38.4842 70.3402 38.3428 70.4983 38.1581 70.6278L37.705 70.962L37.6924 71.0009L37.7301 71.6617L37.1449 71.7549L37.0881 71.6849L37.0253 70.7522L37.0567 70.6745L37.6231 70.3169C37.8581 70.1614 37.9755 69.962 37.9755 69.7184C37.9755 69.5112 37.8852 69.3517 37.7049 69.2403C37.5245 69.129 37.2328 69.0577 36.8301 69.0266L36.7734 68.9255L36.9244 68.3504L37.0062 68.2959H37.0064ZM37.4722 72.4468C37.6023 72.4468 37.7041 72.4934 37.7774 72.5866C37.8508 72.6799 37.8875 72.8095 37.8875 72.9753C37.8875 73.1514 37.8477 73.2914 37.768 73.395C37.6884 73.4987 37.5792 73.5505 37.4407 73.5505C37.3022 73.5505 37.1963 73.5038 37.1229 73.4106C37.0494 73.3172 37.0126 73.1851 37.0126 73.0141C37.0126 72.8431 37.0536 72.7057 37.1354 72.602C37.2172 72.4984 37.3294 72.4467 37.4721 72.4467L37.4722 72.4468Z" fill="#C2BFFF"/>
<path d="M19.1241 167.005L20.5358 149.002L21.179 140.799L21.3092 138.503C20.6659 138.24 20.1868 137.741 20.0776 137.049L20.072 137.012L20.0684 136.982L20.067 136.971L20.0657 136.961V136.96C20.0581 136.889 20.0539 136.816 20.0538 136.742V136.742V136.741C17.6059 135.813 18.0242 134.236 17.918 130.974L17.9168 125.425C10.7186 124.073 5.27335 116.278 9.77392 106.548C15.953 93.1876 16.5063 92.6162 26.2198 92.6162C27.6214 90.3698 28.1774 87.3153 32.9235 87.4321L32.9237 85.6391H32.9238C31.3427 84.267 30.3427 82.2429 30.3427 79.9853L30.3419 79.246C29.0846 79.246 28.0596 78.2302 28.0596 76.9711V75.2351C28.0596 74.6191 28.5251 74.0921 29.0054 74.0921H29.0183C28.8978 72.2853 28.9629 72.5394 29.004 69.5853C29.0502 66.2732 30.5362 64.4856 33.2511 62.9875C37.4349 60.6788 44.5817 62.1857 45.1953 65.6274C45.7403 66.0557 46.139 66.6948 46.7403 67.9812C47.6203 69.8643 46.8451 71.6881 47.0029 73.8186C47.0101 73.9147 47.013 74.0058 47.0123 74.0922C47.3625 74.3516 47.5901 74.7678 47.5901 75.2352V76.9712C47.5901 78.2298 46.5656 79.2461 45.3087 79.2461V79.9854C45.3087 82.2491 44.21 83.8816 42.6216 85.2537V85.8698C45.3969 85.8699 45.9178 87.3098 47.4924 89.5945C49.0219 89.5945 50.401 89.6751 51.6621 89.8635M40.9701 178.284L37.8193 155.456L36.9999 161.393L40.9701 178.284Z" stroke="#C2BFFF" stroke-width="0.528745" stroke-miterlimit="22.9256" stroke-linecap="round" stroke-linejoin="round"/>
<path d="M17.916 123.294C12.0959 121.558 8.18739 114.935 11.9579 106.783" stroke="#C2BFFF" stroke-width="0.469867" stroke-miterlimit="22.9256" stroke-linecap="round" stroke-linejoin="round"/>
<path fill-rule="evenodd" clip-rule="evenodd" d="M63.825 230.219L63.9522 233.406C63.9197 233.413 63.8901 233.43 63.8694 233.459L63.5668 233.872C63.5476 233.895 63.5356 233.924 63.5342 233.956L63.5321 234.009C63.4989 234.568 63.2596 234.98 62.867 235.232C62.4654 235.49 61.9002 235.585 61.2255 235.506L61.1671 235.498L61.1225 235.466C61.1379 234.302 61.0989 233.026 60.1721 232.24C59.1667 231.388 55.629 231.104 54.0814 231.294L54.0547 230.674C57.1118 230.884 61.4683 230.675 63.8251 230.219H63.825Z" fill="#DAD9FF"/>
<path fill-rule="evenodd" clip-rule="evenodd" d="M41.1528 246.296C39.909 252.788 54.5585 253.571 59.1695 249.497C63.7805 245.424 66.5972 247.959 66.1911 241.146C66.1113 240.388 65.9501 239.506 65.741 238.614C65.3273 236.082 64.6263 234.573 64.2052 233.666L64.1278 233.499C64.1168 233.475 64.0999 233.454 64.0775 233.436C64.0094 233.384 63.9162 233.394 63.8694 233.458L63.5667 233.871C63.5476 233.894 63.5356 233.923 63.5342 233.955L63.5321 234.008C63.4989 234.567 63.2596 234.979 62.867 235.231C62.4654 235.489 61.9002 235.584 61.2255 235.505L61.1671 235.497L61.1225 235.465C61.1379 234.301 61.0989 233.025 60.1721 232.239C59.1136 231.342 55.2479 231.074 53.8533 231.327C51.9685 231.668 52.1051 231.303 52.2366 234.291C52.207 234.309 52.1794 234.327 52.1538 234.344C51.6319 234.674 51.0668 235.019 50.4825 235.376C46.0362 238.088 40.4724 241.483 41.1536 246.304L41.1531 246.321C41.1532 246.313 41.1519 246.304 41.1524 246.296H41.1527H41.1528V246.296ZM50.6536 235.636C46.2705 238.31 40.7843 241.658 41.4521 246.3L41.4532 246.33C41.4432 246.504 41.5174 246.687 41.6641 246.874C42.0416 247.355 42.8686 247.84 43.9791 248.26C45.1069 248.686 46.5191 249.042 48.047 249.256C51.6849 249.766 55.9732 249.48 58.6345 247.467C60.3437 246.174 61.7114 245.346 62.7732 244.703C65.0462 243.326 65.8843 242.818 65.6581 240.327C65.344 236.87 64.4758 234.939 63.9697 233.848L63.8319 234.036L63.8308 234.049C63.7923 234.704 63.5087 235.189 63.0425 235.488C62.5862 235.781 61.9572 235.891 61.2159 235.803L61.1153 235.79C61.0895 235.787 61.0636 235.777 61.0404 235.76C59.6858 234.782 58.1461 234.294 56.7311 234.107C54.6876 233.838 52.9172 234.191 52.3384 234.596L52.3332 234.6C51.7995 234.937 51.2362 235.281 50.6535 235.636L50.6536 235.636V235.637V235.636Z" fill="#868CB5"/>
<path fill-rule="evenodd" clip-rule="evenodd" d="M50.6536 235.636C46.2705 238.31 40.7843 241.658 41.452 246.3L41.4532 246.33C41.4431 246.504 41.5174 246.687 41.664 246.874C42.0416 247.355 42.8686 247.84 43.9791 248.26C45.1069 248.686 46.5191 249.042 48.047 249.256C51.6849 249.766 55.9732 249.48 58.6344 247.467C60.3437 246.174 61.7114 245.346 62.7731 244.703C65.0462 243.326 65.8843 242.818 65.658 240.327C65.3439 236.87 64.4758 234.939 63.9696 233.848L63.8319 234.036L63.8307 234.049C63.7923 234.704 63.5087 235.189 63.0425 235.488C62.5861 235.781 61.9571 235.891 61.2159 235.803L61.1152 235.79C61.0895 235.787 61.0636 235.777 61.0403 235.76C59.6857 234.782 58.1461 234.294 56.7311 234.107C54.6875 233.838 52.9171 234.191 52.3384 234.596L52.3332 234.6C51.7995 234.937 51.2362 235.281 50.6535 235.636L50.6536 235.636V235.637V235.636Z" fill="#E5EEFF"/>
<path fill-rule="evenodd" clip-rule="evenodd" d="M63.6621 244.157C64.3258 240.735 63.6669 236.758 64.7755 235.852C65.1361 236.949 65.483 238.401 65.658 240.327C65.8519 242.462 65.2643 243.14 63.6621 244.157V244.157Z" fill="#C5D2EB"/>
<path d="M52.6588 240.26L51.5489 241.322C51.4918 241.377 51.397 241.372 51.3372 241.31C51.2775 241.248 51.2754 241.153 51.3325 241.098L52.3661 240.108C52.2623 240.028 52.1863 239.93 52.1525 239.82C52.0911 239.619 52.1858 239.429 52.3794 239.306C52.2531 239.164 52.098 239.03 51.9229 238.906C51.4836 238.596 50.9265 238.358 50.3662 238.226C49.8104 238.095 49.2578 238.068 48.8231 238.177C48.7497 238.196 48.6798 238.218 48.6143 238.245C48.67 238.294 48.7109 238.349 48.7329 238.408C48.8271 238.661 48.5361 238.889 48.0831 238.918C47.9058 238.929 47.73 238.909 47.576 238.864C46.9983 239.275 46.4727 239.674 46.0057 240.074C45.9456 240.125 45.8507 240.115 45.7943 240.05C45.7377 239.985 45.7407 239.891 45.8008 239.839C46.238 239.465 46.7241 239.092 47.2538 238.711C47.1763 238.653 47.12 238.586 47.0926 238.513C46.9984 238.261 47.2894 238.032 47.7423 238.003C47.7767 238.001 47.811 238 47.845 238C48.0513 237.804 48.3218 237.67 48.6329 237.591C48.7432 237.564 48.8587 237.543 48.9786 237.529C49.3263 237.298 49.6865 237.062 50.0586 236.818C49.9881 236.763 49.9368 236.699 49.911 236.631C49.8168 236.378 50.1077 236.15 50.5606 236.121C50.6158 236.117 50.6707 236.117 50.7248 236.119C50.9652 235.954 51.2661 235.852 51.6027 235.802C51.8931 235.609 52.1894 235.411 52.4917 235.207C52.5576 235.163 52.6517 235.183 52.7017 235.253C52.7517 235.323 52.7386 235.416 52.6728 235.461C52.5193 235.565 52.3669 235.667 52.2159 235.768C52.7263 235.78 53.2786 235.881 53.7978 236.045C54.5101 236.27 55.1731 236.619 55.5953 237.022C55.6859 237.108 55.7664 237.198 55.8351 237.291C56.204 237.324 56.529 237.522 56.6097 237.786C56.7061 238.101 56.4174 238.391 55.9648 238.433C55.5124 238.474 55.0675 238.252 54.971 237.937C54.9108 237.74 55.001 237.553 55.1877 237.431C54.8409 237.105 54.2782 236.816 53.6612 236.621C53.0304 236.422 52.3547 236.325 51.803 236.39C51.6993 236.403 51.6007 236.42 51.5082 236.445C51.5267 236.471 51.5411 236.498 51.5516 236.526C51.6458 236.778 51.3548 237.006 50.9018 237.035C50.7202 237.047 50.54 237.025 50.3834 236.978L50.3599 236.993C50.0908 237.17 49.8275 237.342 49.5708 237.511C49.8588 237.525 50.1581 237.568 50.4559 237.639C51.095 237.789 51.7342 238.063 52.2417 238.421C52.5515 238.64 52.8156 238.893 53.0068 239.172C53.38 239.203 53.71 239.402 53.7916 239.669C53.8879 239.984 53.5992 240.273 53.1466 240.315C52.9771 240.331 52.8085 240.309 52.659 240.26H52.6591L52.6588 240.26ZM55.4888 247.85C55.5672 247.831 55.6522 247.88 55.6783 247.961C55.7044 248.041 55.662 248.123 55.5836 248.142C53.517 248.667 50.9294 248.816 48.5257 248.599C46.7881 248.442 45.1434 248.094 43.857 247.558C42.542 247.011 41.5938 246.263 41.2841 245.317C41.2114 245.095 41.174 244.862 41.1758 244.619C41.1764 244.537 41.2438 244.476 41.3265 244.483C41.4092 244.49 41.4756 244.563 41.4751 244.646C41.4735 244.855 41.5056 245.055 41.5682 245.246C41.8447 246.09 42.7242 246.771 43.9511 247.282C45.2067 247.805 46.8194 248.146 48.5277 248.3C50.9 248.514 53.452 248.368 55.4887 247.85L55.4888 247.85H55.4887H55.4888ZM65.5186 239.86C65.5364 239.942 65.4853 240.018 65.4047 240.029C65.324 240.04 65.2441 239.982 65.2263 239.9C65.1047 239.341 64.9429 239.011 64.7675 238.877C64.6815 238.812 64.5881 238.804 64.4945 238.846C64.3735 238.902 64.248 239.031 64.1272 239.226C63.6949 239.923 63.3716 241.373 63.4994 243.224C63.5453 243.892 61.54 245.054 59.7412 246.096C58.8458 246.616 58.0023 247.104 57.5069 247.47C57.4432 247.518 57.3487 247.501 57.2961 247.432C57.2436 247.364 57.2529 247.271 57.3168 247.223C57.8238 246.849 58.6738 246.356 59.5761 245.833C61.3062 244.831 63.2348 243.712 63.2007 243.219C63.0685 241.304 63.4118 239.789 63.8691 239.052C64.0177 238.813 64.1827 238.649 64.3523 238.571C64.5494 238.481 64.7485 238.501 64.9357 238.644C65.1716 238.824 65.3791 239.218 65.5184 239.86V239.86H65.5186ZM62.4996 241.921C62.4912 241.838 62.551 241.769 62.6332 241.768C62.7156 241.766 62.7892 241.832 62.7976 241.915L62.9313 243.196C62.9399 243.279 62.88 243.347 62.7976 243.349C62.7154 243.351 62.6417 243.285 62.6332 243.202L62.4996 241.921ZM61.8844 242.396C61.8758 242.312 61.9357 242.244 62.018 242.242C62.1003 242.241 62.174 242.306 62.1823 242.39L62.316 243.67C62.3246 243.754 62.2647 243.822 62.1823 243.824C62.1001 243.825 62.0264 243.76 62.018 243.677L61.8844 242.396Z" fill="#868CB5"/>
<path fill-rule="evenodd" clip-rule="evenodd" d="M73.8989 229.125L73.8574 231.793C73.8941 231.798 73.9279 231.816 73.9509 231.847L74.2535 232.261C74.2727 232.283 74.2846 232.312 74.2861 232.345L74.2882 232.398C74.3214 232.957 74.5607 233.369 74.9533 233.621C75.3549 233.879 75.9201 233.974 76.5948 233.894L76.6532 233.887L76.6978 233.855C76.6824 232.691 76.7214 231.415 77.6482 230.629C78.6411 229.787 82.104 229.5 83.6804 229.676L83.6976 228.892C81.105 229.293 76.5998 229.458 73.8988 229.125H73.8989Z" fill="#DAD9FF"/>
<path fill-rule="evenodd" clip-rule="evenodd" d="M96.6669 244.686C97.9107 251.178 83.2612 251.962 78.6502 247.888C74.0392 243.814 71.2225 246.35 71.6286 239.536C71.7084 238.779 71.8695 237.897 72.0787 237.005C72.4924 234.473 73.1933 232.964 73.6145 232.057L73.6919 231.89C73.7029 231.866 73.7198 231.844 73.7422 231.827C73.8103 231.775 73.9034 231.784 73.9503 231.848L74.2529 232.262C74.2721 232.284 74.284 232.313 74.2855 232.346L74.2876 232.399C74.3208 232.958 74.5601 233.37 74.9526 233.622C75.3543 233.879 75.9195 233.975 76.5942 233.895L76.6526 233.888L76.6972 233.856C76.6818 232.692 76.7208 231.416 77.6476 230.63C78.706 229.732 82.5717 229.465 83.9664 229.717C85.8512 230.059 85.7146 229.694 85.5831 232.682C85.6127 232.699 85.6403 232.717 85.6658 232.735C86.1878 233.065 86.7529 233.41 87.3371 233.766C91.7834 236.479 97.3473 239.874 96.6661 244.694L96.6666 244.712C96.6665 244.703 96.6678 244.695 96.6672 244.686H96.667H96.6669V244.686ZM87.1661 234.027C91.5492 236.701 97.0354 240.048 96.3676 244.691L96.3665 244.72C96.3765 244.895 96.3022 245.078 96.1556 245.265C95.7781 245.746 94.9511 246.231 93.8406 246.651C92.7128 247.077 91.3006 247.432 89.7727 247.646C86.1348 248.157 81.8465 247.871 79.1852 245.858C77.476 244.565 76.1083 243.737 75.0465 243.093C72.7734 241.717 71.9353 241.209 72.1616 238.717C72.4757 235.261 73.3439 233.329 73.85 232.238L73.9878 232.427L73.9889 232.439C74.0274 233.095 74.311 233.58 74.7772 233.879C75.2335 234.172 75.8625 234.282 76.6037 234.194L76.7044 234.181C76.7302 234.178 76.7561 234.168 76.7793 234.151C78.1339 233.172 79.6735 232.685 81.0886 232.498C83.1321 232.229 84.9025 232.581 85.4812 232.987L85.4865 232.99C86.0202 233.328 86.5835 233.671 87.1662 234.027L87.1661 234.027V234.027V234.027Z" fill="#868CB5"/>
<path fill-rule="evenodd" clip-rule="evenodd" d="M87.169 234.026C91.5521 236.7 97.0383 240.047 96.3705 244.69L96.3694 244.719C96.3794 244.894 96.3052 245.077 96.1586 245.264C95.781 245.745 94.954 246.23 93.8435 246.65C92.7157 247.076 91.3035 247.431 89.7756 247.645C86.1377 248.156 81.8494 247.87 79.1882 245.857C77.4789 244.564 76.1112 243.735 75.0494 243.092C72.7764 241.716 71.9383 241.208 72.1646 238.716C72.4786 235.26 73.3468 233.328 73.8529 232.237L73.9907 232.426L73.9919 232.438C74.0303 233.094 74.3139 233.579 74.7801 233.878C75.2365 234.171 75.8655 234.281 76.6067 234.193L76.7073 234.18C76.7331 234.177 76.759 234.167 76.7822 234.15C78.1368 233.171 79.6765 232.684 81.0915 232.497C83.135 232.228 84.9055 232.58 85.4842 232.986L85.4894 232.989C86.0231 233.327 86.5864 233.67 87.1691 234.026L87.169 234.026V234.026V234.026Z" fill="#E5EEFF"/>
<path fill-rule="evenodd" clip-rule="evenodd" d="M74.1604 242.545C73.4967 239.124 74.1556 235.147 73.047 234.24C72.6864 235.338 72.3395 236.79 72.1646 238.716C71.9706 240.85 72.5583 241.529 74.1604 242.545V242.545Z" fill="#C5D2EB"/>
<path d="M85.1621 238.647L86.2721 239.71C86.3291 239.765 86.424 239.759 86.4837 239.697C86.5434 239.635 86.5455 239.54 86.4884 239.485L85.4548 238.496C85.5586 238.416 85.6347 238.317 85.6684 238.207C85.7298 238.007 85.6351 237.816 85.4415 237.694C85.5678 237.552 85.7229 237.417 85.898 237.293C86.3373 236.983 86.8945 236.746 87.4547 236.614C88.0105 236.483 88.5631 236.456 88.9978 236.565C89.0712 236.584 89.1411 236.606 89.2066 236.633C89.151 236.682 89.11 236.737 89.088 236.796C88.9938 237.048 89.2849 237.277 89.7379 237.306C89.9151 237.317 90.0909 237.296 90.2449 237.251C90.8226 237.662 91.3482 238.062 91.8152 238.462C91.8754 238.513 91.9702 238.502 92.0266 238.438C92.0832 238.373 92.0802 238.278 92.0201 238.227C91.583 237.852 91.0969 237.48 90.5671 237.099C90.6446 237.041 90.701 236.974 90.7283 236.901C90.8225 236.648 90.5316 236.42 90.0787 236.391C90.0442 236.389 90.0099 236.388 89.9759 236.388C89.7696 236.191 89.4991 236.057 89.1881 235.979C89.0777 235.951 88.9622 235.931 88.8423 235.917C88.4946 235.686 88.1344 235.45 87.7623 235.206C87.8328 235.151 87.8842 235.087 87.9099 235.018C88.0041 234.766 87.7132 234.537 87.2603 234.508C87.2051 234.505 87.1502 234.505 87.0961 234.507C86.8557 234.342 86.5548 234.239 86.2182 234.19C85.9278 233.997 85.6315 233.799 85.3292 233.595C85.2633 233.55 85.1692 233.571 85.1192 233.641C85.0693 233.711 85.0823 233.804 85.1481 233.848C85.3016 233.952 85.4541 234.055 85.605 234.156C85.0946 234.168 84.5423 234.269 84.0231 234.433C83.3108 234.658 82.6478 235.007 82.2256 235.409C82.135 235.496 82.0546 235.586 81.9858 235.678C81.617 235.712 81.2919 235.91 81.2112 236.174C81.1148 236.489 81.4036 236.778 81.8561 236.82C82.3085 236.862 82.7534 236.64 82.8499 236.325C82.9102 236.128 82.82 235.941 82.6332 235.818C82.98 235.493 83.5427 235.204 84.1597 235.009C84.7905 234.809 85.4662 234.712 86.0179 234.778C86.1216 234.79 86.2202 234.808 86.3127 234.832C86.2943 234.858 86.2798 234.885 86.2693 234.913C86.1751 235.166 86.4661 235.394 86.9191 235.423C87.1007 235.435 87.2809 235.413 87.4376 235.366L87.461 235.381C87.7302 235.557 87.9934 235.73 88.2501 235.899C87.9621 235.912 87.6628 235.956 87.3651 236.026C86.7259 236.177 86.0867 236.45 85.5792 236.809C85.2695 237.028 85.0053 237.281 84.8142 237.56C84.4409 237.59 84.1109 237.79 84.0294 238.056C83.933 238.372 84.2217 238.661 84.6743 238.703C84.8438 238.718 85.0125 238.697 85.162 238.648H85.1619L85.1621 238.647ZM82.3321 246.238C82.2537 246.218 82.1688 246.268 82.1427 246.348C82.1165 246.429 82.1589 246.51 82.2374 246.53C84.304 247.055 86.8915 247.204 89.2952 246.987C91.0329 246.83 92.6775 246.482 93.9639 245.946C95.2789 245.399 96.2272 244.651 96.5369 243.705C96.6096 243.483 96.647 243.25 96.6451 243.007C96.6445 242.924 96.5771 242.863 96.4944 242.871C96.4118 242.878 96.3453 242.951 96.3459 243.034C96.3474 243.242 96.3153 243.443 96.2527 243.634C95.9763 244.478 95.0968 245.159 93.8699 245.67C92.6143 246.193 91.0015 246.533 89.2932 246.688C86.921 246.902 84.3689 246.755 82.3322 246.238L82.3321 246.238H82.3322H82.3321ZM72.3024 238.248C72.2846 238.33 72.3356 238.405 72.4162 238.417C72.4969 238.428 72.5769 238.37 72.5947 238.288C72.7162 237.728 72.8781 237.399 73.0534 237.265C73.1394 237.2 73.2328 237.191 73.3264 237.234C73.4474 237.29 73.573 237.419 73.6937 237.614C74.126 238.311 74.4493 239.761 74.3215 241.612C74.2756 242.279 76.2809 243.442 78.0797 244.484C78.9751 245.003 79.8186 245.492 80.314 245.858C80.3777 245.905 80.4722 245.888 80.5248 245.82C80.5773 245.752 80.5681 245.658 80.5042 245.611C79.9971 245.236 79.1471 244.744 78.2448 244.221C76.5147 243.218 74.5861 242.1 74.6202 241.607C74.7524 239.692 74.4091 238.177 73.9518 237.44C73.8032 237.201 73.6382 237.037 73.4686 236.959C73.2715 236.869 73.0724 236.888 72.8852 237.031C72.6494 237.211 72.4418 237.606 72.3025 238.248V238.248H72.3024ZM75.3214 240.309C75.3297 240.226 75.2699 240.157 75.1877 240.155C75.1053 240.154 75.0317 240.22 75.0233 240.303L74.8896 241.583C74.881 241.666 74.941 241.735 75.0233 241.737C75.1055 241.738 75.1792 241.673 75.1877 241.59L75.3214 240.309ZM75.9365 240.783C75.9451 240.7 75.8852 240.632 75.803 240.63C75.7206 240.628 75.647 240.694 75.6386 240.777L75.5049 242.058C75.4963 242.141 75.5562 242.21 75.6386 242.211C75.7208 242.213 75.7945 242.147 75.803 242.064L75.9365 240.783Z" fill="#868CB5"/>
<path d="M80.5961 60.2466C82.215 60.3003 83.4603 60.8888 84.3312 62.0117C84.7628 62.5682 85.0742 63.2234 85.2651 63.9764C85.4518 64.7134 85.5228 65.5463 85.4777 66.4752C85.4298 67.461 85.2667 68.3425 84.9886 69.1191H84.9872C84.7036 69.9107 84.3022 70.595 83.7833 71.1718C83.2579 71.7558 82.6461 72.1877 81.9487 72.4669C81.2575 72.7435 80.4859 72.8679 79.6343 72.8397C77.9184 72.7828 76.6248 72.1928 75.7539 71.0698C75.3222 70.5131 75.0111 69.8507 74.821 69.0828C74.635 68.3313 74.5653 67.4778 74.6115 66.5226C74.6579 65.5659 74.824 64.7038 75.1096 63.9372C75.399 63.1604 75.8096 62.4838 76.3411 61.9078C76.8793 61.3245 77.5066 60.8938 78.2227 60.6156C78.9309 60.3405 79.7223 60.2174 80.5962 60.2463L80.5961 60.2466ZM83.7389 62.469C83.012 61.5318 81.9565 61.04 80.5727 60.9941C79.8 60.9685 79.1064 61.075 78.4922 61.3135C77.886 61.5491 77.3523 61.9163 76.8921 62.4151C76.4252 62.921 76.0644 63.5156 75.8101 64.1983C75.552 64.8912 75.4015 65.6779 75.3587 66.558C75.316 67.4397 75.3792 68.222 75.5478 68.904C75.7126 69.5697 75.9788 70.1393 76.3459 70.6127C77.0729 71.55 78.1768 72.0433 79.6574 72.0924C80.404 72.1172 81.0749 72.0104 81.6698 71.7722C82.2584 71.5365 82.7774 71.1691 83.2259 70.6706C83.6811 70.1647 84.0335 69.5635 84.283 68.8675L84.2818 68.867C84.5365 68.156 84.686 67.3469 84.7299 66.4401C84.7712 65.5877 84.7072 64.8267 84.5378 64.1583C84.3723 63.5058 84.1058 62.9425 83.7387 62.4691L83.7389 62.469Z" fill="#C2BFFF"/>
<path d="M78.3696 19.2105C79.8405 19.3726 81.2333 19.5864 82.5476 19.8516C83.8611 20.1165 85.0872 20.4318 86.2248 20.7969C87.3811 21.168 88.4498 21.5914 89.4304 22.0668C90.4144 22.5439 91.3128 23.0751 92.1248 23.6598C92.9736 24.271 93.7115 24.9357 94.3375 25.653C94.9664 26.3733 95.4839 27.1482 95.889 27.9765C96.2948 28.8063 96.5864 29.6839 96.7631 30.6087C96.9395 31.5313 97.0028 32.5038 96.9532 33.5258C96.9251 34.1062 96.8615 34.6731 96.763 35.2257C96.6635 35.7848 96.5281 36.3338 96.3576 36.8722C96.1865 37.4123 95.9799 37.9419 95.7383 38.46C95.4987 38.9736 95.2214 39.4811 94.9067 39.982C94.5954 40.4772 94.2496 40.9517 93.8715 41.4068C93.4933 41.8619 93.0863 42.2938 92.6524 42.7042C92.2254 43.108 91.7708 43.493 91.2903 43.8608C90.8109 44.2278 90.3085 44.5763 89.7854 44.9083L85.3006 48.3485L84.9562 57.2685L84.952 57.3129C84.9471 57.4183 84.9308 57.5198 84.9039 57.6162C84.8708 57.7349 84.8228 57.8461 84.7616 57.9477C84.7002 58.0494 84.624 58.1447 84.5341 58.2314C84.4485 58.3141 84.3508 58.3878 84.2427 58.4507C84.1361 58.5124 84.0235 58.561 83.9076 58.5955C83.7924 58.6302 83.6717 58.6507 83.548 58.6568C83.4284 58.6628 83.3086 58.655 83.1906 58.6329C83.0766 58.6116 82.9621 58.5759 82.8491 58.5258L77.0457 56.0001C76.8887 55.9319 76.746 55.8455 76.6198 55.7444C76.4914 55.6412 76.379 55.5211 76.2854 55.3873C76.1911 55.2524 76.1179 55.1068 76.0681 54.9535C76.0192 54.803 75.9914 54.642 75.9873 54.4734L75.7613 45.3034C75.7575 45.1509 75.7735 45.0021 75.8084 44.86C75.8447 44.712 75.8999 44.5721 75.9723 44.4428C76.0444 44.3138 76.135 44.1927 76.2423 44.082C76.3465 43.9745 76.4655 43.8783 76.5975 43.796L82.9622 39.8267L82.9927 39.8097C83.5648 39.5007 84.0649 39.1636 84.4938 38.8007C84.9244 38.4363 85.2843 38.0445 85.5745 37.6274C85.8634 37.2124 86.0844 36.772 86.2384 36.3089C86.3955 35.8372 86.4862 35.3366 86.5116 34.8102C86.5323 34.3838 86.5026 33.9817 86.4227 33.6046C86.3439 33.233 86.2157 32.8852 86.0382 32.5618C85.8586 32.2344 85.6276 31.9284 85.3452 31.6441C85.0586 31.3555 84.7168 31.0871 84.3209 30.8395C83.9199 30.5886 83.4499 30.3537 82.9119 30.1354C82.3622 29.9123 81.7496 29.7081 81.0746 29.5235C80.372 29.3312 79.6013 29.1586 78.7629 29.0062C77.9306 28.8547 77.0207 28.7214 76.0336 28.6072C75.8534 28.5863 75.6792 28.5461 75.5139 28.4881C75.3437 28.4284 75.1863 28.3511 75.0437 28.2579C74.8988 28.1631 74.7663 28.051 74.6486 27.9227C74.5334 27.7975 74.4326 27.6561 74.3479 27.5001L74.2497 27.3194C74.1828 27.1959 74.1296 27.0705 74.0906 26.9435C74.05 26.8111 74.0237 26.6789 74.0122 26.5473L74.0109 26.5128C74.002 26.3878 74.005 26.266 74.0196 26.1474C74.0356 26.0189 74.0665 25.8863 74.112 25.7498C74.7262 24.1528 75.1808 22.3979 75.7721 20.7785C75.813 20.6595 75.8626 20.5475 75.9209 20.4425C75.9846 20.3281 76.0579 20.2216 76.1399 20.1236C76.2214 20.0264 76.3139 19.935 76.417 19.8501C76.5176 19.7672 76.6263 19.6925 76.7426 19.6264L76.9654 19.4999C77.0764 19.4368 77.1866 19.3841 77.2961 19.3423C77.4055 19.3005 77.5206 19.2671 77.6412 19.2425C77.76 19.2183 77.8807 19.2034 78.0031 19.1983C78.1258 19.1933 78.2483 19.1975 78.3701 19.2109L78.3696 19.2105ZM82.401 20.5845C81.121 20.3262 79.7497 20.1165 78.2875 19.9553C78.1982 19.9454 78.1129 19.9422 78.0318 19.9454C77.9503 19.9488 77.8697 19.9587 77.7901 19.975C77.7172 19.9898 77.641 20.0126 77.5624 20.0426C77.4837 20.0727 77.4076 20.1087 77.3344 20.1504L77.1116 20.277C77.0309 20.3228 76.9574 20.3732 76.8915 20.4274C76.8282 20.4796 76.7689 20.5386 76.714 20.6041C76.6595 20.669 76.6128 20.7365 76.5743 20.8057C76.5364 20.8739 76.5046 20.945 76.4793 21.0182L74.821 25.9856C74.7937 26.0664 74.7747 26.1506 74.7639 26.238C74.7545 26.3138 74.7518 26.3862 74.7559 26.4545L74.7594 26.4827C74.7668 26.567 74.7823 26.6473 74.8055 26.7232C74.8304 26.8048 74.8642 26.8844 74.906 26.9614L75.0041 27.1421C75.058 27.2413 75.1236 27.3328 75.1994 27.4152C75.2739 27.4963 75.3592 27.5683 75.4539 27.6302C75.5495 27.6927 75.6521 27.7434 75.7598 27.7813C75.8701 27.82 75.9903 27.8473 76.1184 27.8621C77.1026 27.9761 78.0281 28.1122 78.8944 28.2699C79.7549 28.4264 80.5471 28.6039 81.2706 28.8019C81.9866 28.9977 82.6276 29.2106 83.193 29.4402C83.7703 29.6745 84.2784 29.9289 84.7165 30.203C85.1599 30.4803 85.5465 30.7848 85.8755 31.116C86.2091 31.4518 86.4822 31.8135 86.6946 32.2007C86.9075 32.589 87.0612 33.0053 87.1553 33.4489C87.2481 33.887 87.2827 34.3526 87.2589 34.8451C87.2303 35.4378 87.1268 36.0048 86.9477 36.5431C86.7688 37.0808 86.5167 37.5858 86.1899 38.0552C85.864 38.5235 85.4601 38.9633 84.9773 39.372C84.5094 39.7678 83.9677 40.1337 83.351 40.4669L76.9931 44.4321C76.9116 44.4829 76.8397 44.5405 76.7786 44.6036C76.7191 44.665 76.6679 44.734 76.6258 44.809C76.5846 44.8826 76.554 44.9587 76.5353 45.0357C76.5156 45.1162 76.5065 45.2 76.5085 45.2856L76.7346 54.4556C76.7368 54.5468 76.7525 54.6363 76.7804 54.7218C76.8084 54.8077 76.8481 54.8875 76.898 54.959C76.9493 55.0325 77.0134 55.1004 77.0887 55.1609C77.1635 55.2207 77.2493 55.2724 77.3445 55.3139L83.149 57.8418C83.2051 57.8666 83.2652 57.8852 83.3281 57.8968C83.389 57.9082 83.4509 57.9123 83.5125 57.9091C83.5716 57.9062 83.6325 57.8954 83.6935 57.8773H83.6948C83.7534 57.8599 83.8113 57.8348 83.8671 57.8025C83.9226 57.7702 83.9722 57.7329 84.0149 57.6918C84.0548 57.6531 84.0899 57.6089 84.1192 57.5604C84.1474 57.5136 84.1689 57.4653 84.1824 57.4166C84.1972 57.3634 84.2054 57.3083 84.2059 57.253C84.2061 57.2351 84.2075 57.2174 84.2102 57.1999L84.559 48.1619C84.5579 48.0479 84.6087 47.9348 84.7062 47.8602L89.3315 44.3122C89.3448 44.3009 89.359 44.2904 89.3741 44.2808C89.8888 43.9546 90.3767 43.6165 90.8357 43.2653C91.2963 42.9127 91.7315 42.5442 92.1394 42.1585C92.5561 41.7642 92.9427 41.3548 93.2969 40.9285C93.651 40.5023 93.9771 40.0542 94.2734 39.5829C94.5659 39.1174 94.8277 38.6372 95.0582 38.1431C95.2864 37.6536 95.4812 37.1545 95.6423 36.6461C95.8034 36.1376 95.9308 35.6208 96.0242 35.0963C96.1188 34.5655 96.1794 34.0298 96.2056 33.4903C96.2523 32.5295 96.1928 31.6155 96.0272 30.7491C95.8621 29.885 95.5921 29.07 95.2177 28.3047C94.8422 27.5372 94.361 26.817 93.7744 26.1453C93.1851 25.4702 92.4893 24.8437 91.6877 24.2664C90.9137 23.7091 90.0526 23.2003 89.1048 22.7408C88.1536 22.2797 87.1172 21.869 85.9959 21.5092C84.8796 21.1509 83.681 20.8425 82.4009 20.5843L82.401 20.5845Z" fill="#C2BFFF"/>
<path fill-rule="evenodd" clip-rule="evenodd" d="M46.2681 139.325C46.3886 143.028 45.8518 144.819 48.6313 145.872L48.6316 145.901C54.7724 146.685 60.458 146.799 69.5792 146.61C78.7007 146.421 85.9061 145.748 89.0351 145.873V145.872C91.8146 144.819 91.3396 143.028 91.4601 139.325L91.4613 133.024C99.6342 131.489 105.817 122.639 100.707 111.59C93.6907 96.421 92.1885 93.6349 81.1596 93.6349C79.3718 91.0408 78.5537 88.5625 74.4226 88.5625H63.3055C59.1744 88.5625 58.3556 91.0408 56.5678 93.6349C45.5389 93.6349 42.7252 96.0358 35.8561 111.273C31.8867 120.077 34.3293 132.626 46.268 131.691V139.325H46.2681ZM89.0216 146.12C89.0304 146.04 89.035 145.958 89.0351 145.873C89.0239 145.957 89.02 146.04 89.0216 146.12Z" fill="#FF0028"/>
<path fill-rule="evenodd" clip-rule="evenodd" d="M74.422 93.0418V91.2803C77.28 91.8574 79.174 93.1 79.174 95.0713C79.174 96.7966 77.9214 98.6607 75.9169 100.098C75.6823 100.267 75.4173 100.323 75.1343 100.266C74.8514 100.208 74.6295 100.052 74.4792 99.806L74.3482 99.5911L74.3976 99.5652C72.9523 100.322 71.0053 100.785 68.8634 100.785C66.746 100.785 64.8192 100.332 63.379 99.591L63.2476 99.8065C63.0973 100.053 62.8755 100.209 62.5925 100.266C62.3097 100.323 62.0446 100.267 61.8101 100.099C59.8053 98.661 58.5527 96.7966 58.5527 95.0714C58.5527 93.1001 60.4468 91.8576 63.3048 91.2804V93.0419H74.4219H74.422V93.0418Z" fill="#D90324"/>
<path fill-rule="evenodd" clip-rule="evenodd" d="M75.477 94.8633C75.7895 95.308 75.9612 95.7918 75.9612 96.298C75.9612 98.4769 72.7834 100.243 68.8633 100.243C64.9434 100.243 61.7656 98.4769 61.7656 96.298C61.7656 95.7919 61.9373 95.308 62.2498 94.8633H75.477Z" fill="#AD041E"/>
<path d="M62.329 102.896C62.4811 102.961 62.552 103.137 62.4873 103.289C62.4225 103.441 62.2465 103.512 62.0944 103.448C60.4205 102.733 59.0073 101.698 58.0048 100.558C56.9576 99.3674 56.3516 98.0525 56.3516 96.8491C56.3516 96.6833 56.4861 96.5488 56.6518 96.5488C56.8176 96.5488 56.9521 96.6833 56.9521 96.8491C56.9521 97.9042 57.503 99.0793 58.4552 100.162C59.4026 101.24 60.7412 102.218 62.3291 102.896H62.329Z" fill="#D90324"/>
<path d="M71.5195 130.974H80.3054" stroke="#D90324" stroke-width="0.600404" stroke-miterlimit="22.9256" stroke-linecap="round" stroke-linejoin="round"/>
<path d="M80.3047 130.972L81.1247 128.761" stroke="#D90324" stroke-width="0.600404" stroke-miterlimit="22.9256" stroke-linecap="round" stroke-linejoin="round"/>
<path d="M80.3047 130.974L84.0057 138.669C85.213 141.111 86.6316 141.172 87.744 141.322" stroke="#D90324" stroke-width="0.600404" stroke-miterlimit="22.9256" stroke-linecap="round" stroke-linejoin="round"/>
<path d="M55.8827 134.269C55.9539 134.12 56.1325 134.057 56.2815 134.128C56.4303 134.199 56.4933 134.378 56.4222 134.527L54.3663 138.801C53.1497 141.264 51.7245 141.448 50.5687 141.596L50.3985 141.618C50.2347 141.64 50.0844 141.524 50.0631 141.36C50.0418 141.196 50.1573 141.046 50.3211 141.025L50.4924 141.003C51.505 140.873 52.754 140.712 53.8296 138.536L55.8827 134.268V134.269Z" fill="#D90324"/>
<path fill-rule="evenodd" clip-rule="evenodd" d="M63.3048 87.8506H74.422V94.8487C74.422 97.9059 71.9206 99.4066 68.8634 99.4066H68.8633C65.8061 99.4066 63.3047 97.9061 63.3047 94.8487V87.8506H63.3048Z" fill="#EBA884"/>
<path fill-rule="evenodd" clip-rule="evenodd" d="M50.4273 158.865L50.2246 188.431L50.6472 229.71C50.7226 231.311 63.9161 230.88 65.3658 229.71L66.7459 195.072L68.7656 167.123L71.6672 228.214C71.5835 229.979 85.6089 229.317 85.7019 228.214L87.7586 158.865L87.5779 147.888C87.3423 147.981 87.0879 148.047 86.8224 148.084C82.325 148.714 75.7561 149.032 69.9715 149.039C64.2123 149.032 55.117 149.012 50.599 148.39L50.4274 158.865L50.4273 158.865Z" fill="#6934D9"/>
<path fill-rule="evenodd" clip-rule="evenodd" d="M63.5762 230.264C64.4572 230.109 65.103 229.922 65.3647 229.711L66.7449 195.073L68.7645 167.124L68.6692 162.864L65.6372 189.998L63.5762 230.265V230.264Z" fill="#2B0087"/>
<path d="M86.9231 160.174C87.076 160.236 87.1489 160.411 87.0861 160.564C87.0234 160.717 86.8483 160.79 86.6956 160.727L85.4936 160.234C85.394 160.193 85.3283 160.104 85.3119 160.005L83.416 148.471C83.6173 148.453 83.8164 148.434 84.0135 148.414L85.8757 159.744L86.9231 160.174V160.174Z" fill="#2B0087"/>
<path d="M71.7543 158.905C71.7537 159.071 71.6192 159.204 71.4541 159.203C71.289 159.203 71.1557 159.068 71.1563 158.903L71.2095 149.034C71.4082 149.033 71.6076 149.031 71.8075 149.028L71.7542 158.905H71.7543Z" fill="#2B0087"/>
<path d="M68.9671 162.864C68.9671 163.029 68.8332 163.163 68.6681 163.163C68.503 163.163 68.3691 163.029 68.3691 162.864L68.4213 149.036L69.0193 149.037L68.9671 162.864Z" fill="#2B0087"/>
<path d="M51.4326 160.726C51.2798 160.789 51.1048 160.716 51.042 160.563C50.9793 160.41 51.0522 160.235 51.2051 160.172L52.2525 159.742L54.0653 148.713C54.2627 148.725 54.463 148.738 54.6662 148.749L52.8162 160.004C52.7998 160.103 52.7342 160.192 52.6345 160.233L51.4325 160.726L51.4326 160.726Z" fill="#2B0087"/>
<path fill-rule="evenodd" clip-rule="evenodd" d="M89.023 146.122C88.9012 147.231 87.9645 147.924 86.8228 148.084C82.3254 148.714 75.7565 149.032 69.9719 149.038C64.1874 149.032 55.0365 149.011 50.5393 148.381C49.3146 148.21 48.6328 147.154 48.6328 145.901C54.7737 146.686 60.4593 146.799 69.5807 146.611C78.7022 146.422 85.9076 145.749 89.0366 145.874C89.0253 145.959 89.0214 146.041 89.0231 146.122L89.023 146.122Z" fill="#2B0087"/>
<path d="M70.7857 102.411C70.7518 102.249 70.8563 102.089 71.0191 102.055C71.1819 102.021 71.3414 102.126 71.3753 102.289C71.612 103.417 71.7967 104.438 71.9388 105.377C71.7476 105.568 71.5739 105.773 71.4181 105.989C71.27 104.919 71.0645 103.74 70.7857 102.411V102.411ZM72.2601 113.354C72.2256 113.898 72.1849 114.447 72.1429 115.012L72.1423 115.019C72.1211 115.303 72.0997 115.592 72.0786 115.885C72.0114 115.81 71.9422 115.736 71.8707 115.665C71.7569 115.551 71.6378 115.442 71.5139 115.34L71.541 114.974L71.5414 114.967C71.6057 114.104 71.667 113.281 71.7069 112.45L72.2601 113.354V113.354Z" fill="#FF5E04"/>
<path fill-rule="evenodd" clip-rule="evenodd" d="M76.9394 127.706C78.8749 129.705 79.2574 129.896 83.0152 130.614C82.8739 130.461 82.7373 130.301 82.6062 130.137C82.3777 129.85 82.1639 129.546 81.967 129.224L75.5837 118.789L74.875 118.759L75.1554 127.498C75.1527 127.532 76.742 127.683 76.9393 127.706L76.9394 127.706Z" fill="#EBA884"/>
<path fill-rule="evenodd" clip-rule="evenodd" d="M73.3345 127.479L75.156 127.497L74.8756 118.757L73.332 118.752C73.3477 118.914 73.3556 119.078 73.3555 119.243L73.3501 127.086C73.3499 127.218 73.3446 127.349 73.3345 127.479V127.479Z" fill="#D90324"/>
<path d="M52.2695 114.461V108.032" stroke="#D90324" stroke-width="0.600404" stroke-miterlimit="22.9256" stroke-linecap="round" stroke-linejoin="round"/>
<path fill-rule="evenodd" clip-rule="evenodd" d="M72.3463 105.012L71.375 103.457L78.9792 99.1406L79.7722 100.428C79.7012 100.467 79.6307 100.508 79.5611 100.551L72.8715 104.643C72.6864 104.756 72.5114 104.88 72.3463 105.012V105.012Z" fill="#D90324"/>
<path fill-rule="evenodd" clip-rule="evenodd" d="M34.1058 119.974C34.2947 126.492 37.9656 132.268 46.1224 131.701C46.1705 131.71 46.2189 131.718 46.2673 131.726L46.2689 131.619V131.617L46.269 131.612L46.2691 131.604V131.604V131.602V131.602V131.6L46.2692 131.594V131.594V131.592V131.592V131.59V131.589V131.588V131.587V131.586V131.584L46.2693 131.584V131.582V131.581V131.58V131.579V131.578V131.577V131.576V131.574V131.574V131.572V131.572V131.57V131.569V131.568V131.567C46.2693 131.476 46.2682 131.386 46.266 131.296L46.2638 131.221C46.2617 131.153 46.2592 131.085 46.256 131.018L46.2525 130.941C46.248 130.853 46.2425 130.765 46.2358 130.678L46.2355 130.674L46.2333 130.649C46.2269 130.569 46.2198 130.488 46.2119 130.408L46.2046 130.338C46.1974 130.27 46.1897 130.202 46.1813 130.135L46.1722 130.061C46.1613 129.976 46.1496 129.892 46.1368 129.808L46.1282 129.754C46.1174 129.686 46.1063 129.618 46.0944 129.55L46.0778 129.459C46.0671 129.401 46.0561 129.343 46.0446 129.286L46.0271 129.198C46.01 129.115 45.9921 129.033 45.9732 128.951L45.9657 128.92C45.9487 128.847 45.9311 128.775 45.913 128.703L45.8906 128.617C45.8751 128.558 45.8592 128.499 45.8427 128.44L45.8219 128.366C45.799 128.286 45.7755 128.206 45.751 128.127L45.732 128.068C45.7124 128.006 45.6924 127.944 45.6718 127.882L45.6421 127.795C45.6243 127.743 45.6061 127.692 45.5875 127.64L45.5542 127.548C45.5264 127.472 45.4979 127.397 45.4686 127.323L45.4429 127.259C45.4209 127.204 45.3986 127.15 45.3758 127.095L45.3347 126.998C45.3135 126.948 45.2918 126.899 45.2699 126.85L45.233 126.767C45.2007 126.696 45.1676 126.625 45.1339 126.555L45.092 126.469C45.069 126.422 45.0459 126.376 45.0223 126.329L44.9719 126.231C44.95 126.189 44.9277 126.147 44.9053 126.105L44.854 126.009C44.8178 125.943 44.781 125.877 44.7435 125.811C44.7255 125.78 44.707 125.749 44.6888 125.717C44.6659 125.679 44.6432 125.64 44.6201 125.601L44.5538 125.492L44.4934 125.395C44.4697 125.358 44.446 125.32 44.4219 125.283L44.4214 125.282C44.3837 125.223 44.3454 125.165 44.3067 125.107L44.3055 125.106C44.2801 125.068 44.2541 125.03 44.2282 124.993L44.1691 124.907C44.1423 124.869 44.1154 124.831 44.088 124.793L44.0226 124.704C43.9968 124.668 43.9709 124.633 43.9447 124.598C43.903 124.543 43.8609 124.488 43.8182 124.433L43.8178 124.433C43.7886 124.395 43.7591 124.358 43.7295 124.321L43.6636 124.24C43.6346 124.204 43.6054 124.169 43.5759 124.134L43.5107 124.056C43.481 124.021 43.4515 123.986 43.4214 123.952C43.376 123.9 43.33 123.848 43.2835 123.796L43.2829 123.796C43.249 123.758 43.2147 123.721 43.1803 123.684L43.1197 123.619C43.0853 123.582 43.051 123.546 43.0162 123.51L42.9576 123.45C42.884 123.375 42.8093 123.301 42.7336 123.227L42.7032 123.198C42.6651 123.161 42.6267 123.125 42.5881 123.089L42.5325 123.037C42.4917 123 42.4509 122.962 42.4096 122.925L42.3755 122.895C42.2821 122.812 42.1875 122.73 42.0914 122.65L42.0856 122.645C42.0398 122.607 41.9936 122.569 41.9472 122.532L41.9106 122.503C41.8623 122.464 41.8137 122.426 41.7648 122.388L41.7499 122.376C41.5956 122.257 41.4381 122.142 41.2776 122.03L41.2419 122.005C41.1909 121.97 41.1397 121.935 41.088 121.901L41.0762 121.893C40.9102 121.783 40.7413 121.677 40.5696 121.575L40.5417 121.559C40.4877 121.527 40.4336 121.496 40.3792 121.465L40.3534 121.45C40.1867 121.356 40.0173 121.266 39.8456 121.18L39.7926 121.154C39.7393 121.128 39.6857 121.102 39.6318 121.076L39.6218 121.071C39.498 121.013 39.3729 120.956 39.2468 120.902L39.2464 120.902C37.8402 120.297 36.291 119.961 34.6632 119.961C34.4762 119.961 34.2904 119.966 34.1055 119.975L34.1058 119.974Z" fill="#FF5E04"/>
<path d="M66.4826 122.272C66.5638 121.932 66.3544 121.591 66.015 121.51C65.6756 121.429 65.3346 121.638 65.2534 121.978L64.7573 124.052C64.6762 124.392 64.8855 124.733 65.225 124.814C65.5644 124.895 65.9054 124.686 65.9866 124.346L66.4826 122.272Z" fill="#FF5E04"/>
<path fill-rule="evenodd" clip-rule="evenodd" d="M67.5234 131.825C66.7524 132.423 65.7211 134.373 64.511 134.388L46.2695 134.407V131.836L67.5234 131.825V131.825Z" fill="#D90324"/>
<path d="M46.2696 132.134C46.1045 132.134 45.9706 132.001 45.9706 131.835C45.9706 131.67 46.1045 131.536 46.2696 131.536L68.2805 131.551C69.5088 131.552 70.6267 131.049 71.4376 130.239C72.2479 129.43 72.7516 128.314 72.7523 127.086L72.7578 119.244C72.7586 118.015 72.2563 116.898 71.4464 116.087C70.6371 115.276 69.5204 114.772 68.2925 114.772L47.645 114.757C46.8753 114.757 46.1279 114.862 45.4172 115.058C44.6834 115.261 43.9888 115.562 43.3493 115.945C43.2074 116.03 43.0237 115.984 42.9389 115.842C42.8542 115.7 42.9003 115.517 43.0421 115.432C43.7275 115.021 44.4716 114.699 45.2578 114.481C46.0181 114.271 46.8189 114.159 47.645 114.159L68.2925 114.174C69.6864 114.175 70.9532 114.746 71.8709 115.665C72.7879 116.583 73.3567 117.85 73.3558 119.244L73.3503 127.086C73.3494 128.48 72.7784 129.747 71.8596 130.664C70.9414 131.581 69.674 132.15 68.2804 132.149L46.2695 132.135L46.2696 132.134Z" fill="#D90324"/>
<path d="M66.3891 102.448C66.4232 102.285 66.5834 102.18 66.7465 102.214C66.9096 102.249 67.0142 102.408 66.98 102.571L66.3891 102.448V102.448ZM66.3902 117.568L65.7874 117.602V117.602L65.7597 117.138L65.7305 116.685L65.7 116.243L65.669 115.81L65.6377 115.385L65.6066 114.967L65.5761 114.553L65.5468 114.144L65.5189 113.738L65.4932 113.333L65.47 112.929L65.4497 112.524L65.433 112.117L65.4202 111.707L65.4118 111.293L65.4083 110.873L65.41 110.447L65.4177 110.012L65.4315 109.569L65.4521 109.115L65.4799 108.651L65.5152 108.173L65.5588 107.682L65.6109 107.176L65.672 106.654L65.7424 106.115L65.8228 105.557L65.9134 104.979L66.0151 104.381L66.1279 103.76L66.2523 103.116L66.3891 102.448L66.98 102.571L66.8446 103.234L66.7213 103.871L66.6098 104.485L66.5094 105.076L66.4198 105.647L66.3405 106.197L66.271 106.728L66.211 107.242L66.1597 107.74L66.117 108.222L66.0823 108.691L66.0551 109.147L66.035 109.592L66.0213 110.027L66.0139 110.453L66.0121 110.872L66.0157 111.284L66.0239 111.692L66.0364 112.096L66.053 112.497L66.073 112.897L66.096 113.297L66.1215 113.698L66.1492 114.102L66.1783 114.51L66.2088 114.922L66.2399 115.341L66.2712 115.767L66.3024 116.201L66.3329 116.645L66.3623 117.1L66.3902 117.567V117.567V117.568ZM65.2173 125.966L64.6288 125.83L64.672 125.652L64.7182 125.476L64.7671 125.302L64.8182 125.129L64.8712 124.956L64.9257 124.783L64.9814 124.609L65.0378 124.434L65.0947 124.256L65.1516 124.074L65.2085 123.888L65.2647 123.697L65.3202 123.501L65.3745 123.298L65.4274 123.087L65.4786 122.868L65.5277 122.64L65.5743 122.402L65.6183 122.154L65.6594 121.894L65.6969 121.622L65.7308 121.337L65.7607 121.038L65.7861 120.725L65.8068 120.396L65.8223 120.051L65.8323 119.689L65.8365 119.31L65.8344 118.912L65.8258 118.495L65.8105 118.059L65.7876 117.601L66.3904 117.567L66.4137 118.033L66.4295 118.478L66.4383 118.904L66.4404 119.311L66.436 119.701L66.4258 120.073L66.4099 120.428L66.3885 120.768L66.3623 121.092L66.3313 121.402L66.2962 121.699L66.2572 121.982L66.2143 122.254L66.1683 122.513L66.1195 122.762L66.0682 123L66.0146 123.229L65.9595 123.449L65.903 123.66L65.8453 123.864L65.7873 124.061L65.729 124.252L65.671 124.437L65.6136 124.617L65.557 124.793L65.5019 124.966L65.4485 125.135L65.3971 125.303L65.3479 125.469L65.3016 125.634L65.2581 125.799L65.2178 125.966L65.2173 125.966ZM65.2173 125.966C65.18 126.128 65.0177 126.229 64.8553 126.192C64.6929 126.155 64.5915 125.993 64.6288 125.83L65.2173 125.966Z" fill="#FF5E04"/>
<path fill-rule="evenodd" clip-rule="evenodd" d="M98.9145 119.96C100.176 119.96 101.391 120.162 102.528 120.534C102.056 127.162 97.2604 131.935 91.461 133.024C89.4234 133.43 88.0075 133.077 87.3871 132.914C87.3359 132.472 87.3086 132.022 87.3086 131.566C87.3086 125.156 92.5048 119.96 98.9144 119.96L98.9145 119.96Z" fill="#FF5E04"/>
<path d="M91.391 132.733C91.5529 132.7 91.7115 132.804 91.7451 132.966C91.7787 133.127 91.6747 133.286 91.5128 133.32C90.0515 133.629 88.5453 133.563 87.1349 133.155C85.7332 132.75 84.4261 132.007 83.3519 130.96C83.0878 130.703 82.8381 130.428 82.6052 130.136C82.3767 129.849 82.1629 129.544 81.9661 129.223L71.1913 111.609C70.4644 110.421 70.2897 109.043 70.5937 107.781C70.898 106.518 71.6814 105.37 72.87 104.643L79.5596 100.551C80.7479 99.8237 82.1257 99.6491 83.3879 99.9531C84.6512 100.257 85.7992 101.041 86.5262 102.229L93.8812 114.252C93.9673 114.393 93.9227 114.578 93.7816 114.664C93.6404 114.75 93.4561 114.705 93.3699 114.564L86.0149 102.541C85.3737 101.493 84.3623 100.803 83.2496 100.535C82.136 100.266 80.92 100.421 79.8716 101.062L73.182 105.154C72.1338 105.796 71.4432 106.807 71.1752 107.92C70.9069 109.033 71.0613 110.249 71.7026 111.297L82.4774 128.911C82.6603 129.21 82.8601 129.494 83.0744 129.763C83.2925 130.036 83.525 130.293 83.7694 130.531C84.7727 131.509 85.993 132.202 87.3015 132.581C88.6177 132.961 90.0246 133.022 91.391 132.733V132.733Z" fill="#D90324"/>
<path d="M80.6524 99.1923C80.5669 99.3341 80.3826 99.3797 80.2408 99.2942C80.0989 99.2087 80.0533 99.0244 80.1388 98.8826C80.3713 98.4968 80.5509 98.1086 80.6707 97.727C80.7863 97.3592 80.8469 96.996 80.8469 96.646C80.8469 96.4802 80.9814 96.3457 81.1472 96.3457C81.3129 96.3457 81.4474 96.4802 81.4474 96.646C81.4474 97.0556 81.377 97.4784 81.243 97.9053C81.1082 98.3343 80.909 98.7665 80.6525 99.1921L80.6524 99.1923Z" fill="#D90324"/>
<path fill-rule="evenodd" clip-rule="evenodd" d="M58.4257 74.7405C58.0281 75.035 57.7695 75.5076 57.7695 76.0383V78.0095C57.7695 79.4384 58.9328 80.5923 60.3599 80.5923V81.4317C60.3599 86.1241 64.1638 89.928 68.8562 89.928C73.5485 89.928 77.3525 86.1241 77.3525 81.4317L77.3535 80.5923C78.781 80.5923 79.9449 79.439 79.9449 78.0095V76.0383C79.9449 75.3388 79.4163 74.7405 78.871 74.7405H77.367C77.3851 72.8278 77.3886 71.1486 77.3736 70.0759C76.5188 69.5011 72.9696 65.9661 72.011 66.5877C71.5616 66.8789 70.6686 67.1879 69.6163 67.2988C68.1994 67.448 66.4908 67.1768 65.2752 66.5814C63.2418 66.1704 60.3598 69.8868 60.3598 69.8868V74.7405H58.4256H58.4257Z" fill="#EBA884"/>
<path fill-rule="evenodd" clip-rule="evenodd" d="M75.3795 86.8765C75.3256 86.941 75.2707 87.0047 75.2148 87.0676C74.5921 86.6853 73.7143 86.9727 73.323 88.6605L73.2726 88.6915C73.6802 88.4433 74.0652 88.1619 74.4237 87.8509V90.6982C72.9492 93.6088 65.1716 94.8771 63.3065 87.9907L63.3064 87.8633C63.1664 87.742 63.029 87.6152 62.8984 87.4866L68.3152 88.4903L70.2158 89.8193C70.0368 89.8481 69.8559 89.8713 69.6733 89.8887L68.0983 88.8483L63.4584 87.9915C64.926 89.2011 66.8038 89.9279 68.8578 89.9279C70.3705 89.9279 71.7939 89.5311 73.0262 88.8362C73.419 86.744 74.6208 86.4025 75.3796 86.8765H75.3795ZM73.2541 88.7027C73.2094 88.7296 73.1646 88.7563 73.1197 88.7825C73.1647 88.7563 73.2095 88.7296 73.2541 88.7027Z" fill="#C98560"/>
<path fill-rule="evenodd" clip-rule="evenodd" d="M60.3596 69.8877V75.7462V76.4589C60.3596 76.4589 58.2566 76.8498 58.4359 74.4308C58.6153 72.0118 57.7351 69.9411 58.7342 67.803C59.7335 65.6649 60.2403 65.1014 61.4958 64.5591C61.4984 64.159 60.2245 61.4082 62.2234 59.4041C64.2223 57.3999 66.502 60.1301 66.4387 60.2722C66.3753 60.4144 70.9675 60.4319 74.0501 62.133C77.1326 63.8339 78.8198 65.8637 78.8722 69.6242C78.9247 73.3847 79.0112 72.5663 78.7967 75.6002C78.7351 76.4714 77.3523 76.7622 77.3523 76.0667C77.3823 73.617 77.3917 71.3913 77.3734 70.0768C76.5186 69.502 72.9694 65.967 72.0108 66.5885C71.5614 66.8798 70.6684 67.1888 69.6161 67.2997C68.1992 67.4489 66.4907 67.1777 65.275 66.5823C63.2416 66.1713 60.3596 69.8877 60.3596 69.8877V69.8877Z" fill="#241813"/>
<path d="M58.7386 77.2148C58.7386 77.2148 58.4046 79.0032 59.383 79.4132" stroke="#C98560" stroke-width="0.295226" stroke-miterlimit="22.9256" stroke-linecap="round" stroke-linejoin="round"/>
<path d="M69.1774 85.3096C68.8539 85.3096 68.5304 85.3096 68.2071 85.3096C68.0407 85.3096 68.2524 85.8208 68.4165 85.8208C68.74 85.8208 69.0635 85.8208 69.3857 85.8208C69.5532 85.8208 69.3402 85.3096 69.1773 85.3096H69.1774Z" fill="black"/>
<path d="M59.9081 61.11C59.9761 60.9383 60.0364 60.8756 60.1892 60.8682C60.3223 60.8662 60.3884 60.9692 60.3904 61.1023C60.3906 61.1111 60.1854 64.3305 61.8591 64.6705C61.9896 64.6966 62.0744 64.8237 62.0482 64.9543C62.0221 65.0848 61.4109 65.554 61.2804 65.5278C59.222 65.1097 59.6981 61.6467 59.908 61.11H59.9081Z" fill="#241813"/>
<path d="M68.7079 75.5192C68.7114 76.6706 68.8203 77.8175 68.8135 78.9708C68.809 79.6006 69.1345 80.2424 68.9852 80.8564C68.8975 81.2227 68.4085 81.7204 67.9858 81.8022C67.84 81.8302 67.9903 81.9688 68.0427 81.9993C68.1691 82.0728 68.3231 82.1103 68.4665 82.0824C68.8856 82.0014 69.4157 81.5944 69.5353 81.223C69.7266 80.6243 69.3965 79.9678 69.4101 79.3443C69.4377 78.1271 69.3114 76.9187 69.3081 75.7035C69.3069 75.4969 68.7066 75.3831 68.7078 75.5193L68.7079 75.5192Z" fill="black"/>
<path d="M78.9139 77.2148C78.9139 77.2148 79.2479 79.0032 78.2695 79.4132" stroke="#C98560" stroke-width="0.295226" stroke-miterlimit="22.9256" stroke-linecap="round" stroke-linejoin="round"/>
<path d="M71.1152 70.286C72.3191 70.2886 73.5349 70.2217 74.697 70.5867C75.1417 70.7265 75.7686 70.5271 76.0993 70.2187C76.4278 69.9123 76.2977 69.5897 75.9011 69.4656C74.5963 69.0554 73.2261 69.1062 71.8751 69.1031C71.4205 69.1021 70.8346 69.2382 70.5684 69.6505C70.3169 70.0423 70.7758 70.2849 71.1152 70.286V70.286Z" fill="#241813"/>
<path d="M62.5949 71.5433C63.7418 71.4944 64.8888 71.4516 66.0369 71.5C66.6029 71.5241 67.4169 71.2685 67.7865 70.8139C68.1878 70.3189 67.4405 70.1926 67.1079 70.1785C65.9598 70.13 64.8127 70.1729 63.6659 70.2217C63.0794 70.247 62.3087 70.4256 61.9163 70.9079C61.5287 71.3861 62.2477 71.5583 62.5949 71.5433Z" fill="#241813"/>
<path d="M64.1836 74.6014C64.1836 75.1189 64.6038 75.5385 65.1209 75.5385C65.6392 75.5385 66.0582 75.1189 66.0582 74.6014C66.0582 74.0835 65.6392 73.6641 65.1209 73.6641C64.6038 73.6641 64.1836 74.0835 64.1836 74.6014Z" fill="black"/>
<path d="M71.6777 74.6014C71.6777 75.1189 72.0968 75.5385 72.6149 75.5385C73.1331 75.5385 73.5524 75.1189 73.5524 74.6014C73.5524 74.0836 73.1331 73.6641 72.6149 73.6641C72.0968 73.6641 71.6777 74.0836 71.6777 74.6014Z" fill="black"/>
<path d="M69.1774 85.3096C68.8539 85.3096 68.5304 85.3096 68.2071 85.3096C68.0407 85.3096 68.2524 85.8208 68.4165 85.8208C68.74 85.8208 69.0635 85.8208 69.3857 85.8208C69.5532 85.8208 69.3402 85.3096 69.1773 85.3096H69.1774Z" fill="black"/>
<path d="M66.1672 84.2092C67.557 85.3355 71.6327 84.7904 71.6731 83.7877C71.6772 83.6864 71.5813 83.1542 71.5112 83.0411C71.3892 82.8445 71.1641 82.8135 70.9807 82.9442C70.3901 83.3008 68.2435 83.2665 66.9196 82.9397C66.2056 82.9318 66.1322 83.8471 66.1672 84.2092V84.2092Z" fill="black"/>
<path d="M71.2943 83.4124C71.2325 83.1796 71.2238 82.9763 70.834 83.1812C70.3063 83.534 68.1256 83.4369 66.921 83.1355C66.6621 83.1479 66.5697 83.3074 66.5059 83.5243C67.5958 84.0244 70.4011 84.1492 71.2943 83.4123V83.4124Z" fill="white"/>
<path d="M79.0646 74.023C79.1968 74.0612 79.273 74.1996 79.2348 74.3318C79.1965 74.464 79.0581 74.5402 78.9259 74.502L76.8018 73.8859C76.9129 74.2673 76.9129 74.6532 76.9129 74.9859C76.9129 75.5119 76.9128 76.2968 76.4642 76.9771C76.0159 77.6569 75.1384 78.1999 73.4091 78.1999C71.6798 78.1999 70.8023 77.6569 70.3542 76.9771C69.9056 76.2969 69.9055 75.5119 69.9055 74.9859L69.9059 74.8311C69.5445 74.6269 69.1938 74.5331 68.8533 74.5376C68.5198 74.542 68.1888 74.6414 67.8604 74.8244L67.8609 74.9859C67.8609 75.5124 67.8608 76.2969 67.4121 76.9761C66.9643 77.6543 66.0868 78.1958 64.3572 78.1958C62.6275 78.1958 61.7501 77.6543 61.3023 76.9761C60.8537 76.2968 60.8536 75.5124 60.8536 74.9859C60.8536 74.6447 60.8534 74.2483 60.9602 73.8647L58.3256 74.5049C58.1918 74.5373 58.0569 74.4549 58.0246 74.3211C57.9922 74.1874 58.0746 74.0524 58.2084 74.0201L61.2284 73.2863C61.6431 72.6937 62.5165 72.2363 64.3572 72.2363C66.0739 72.2363 66.9478 72.6528 67.3976 73.2063C67.6725 73.5447 67.7845 73.9193 67.8298 74.2799C68.1617 74.1267 68.5009 74.0439 68.8475 74.0393C69.2059 74.0345 69.5679 74.1133 69.9333 74.2838C70.0444 73.2993 70.6029 72.2364 73.4092 72.2364C75.1259 72.2364 76 72.6529 76.4497 73.2064C76.4699 73.2313 76.4892 73.2564 76.5077 73.2816L79.0647 74.0232L79.0646 74.023ZM76.0625 73.5208C75.6989 73.0733 74.9458 72.7366 73.4091 72.7366C70.4059 72.7366 70.4059 74.0917 70.4059 74.9858C70.4059 75.4532 70.406 76.1505 70.7706 76.7034C71.1357 77.2571 71.8851 77.6994 73.4092 77.6994C74.9334 77.6994 75.6828 77.2571 76.048 76.7034C76.4126 76.1505 76.4127 75.4532 76.4127 74.9858C76.4127 74.5278 76.4127 73.9517 76.0627 73.5208H76.0625ZM67.0102 73.5208C66.6467 73.0732 65.8936 72.7366 64.357 72.7366C61.3537 72.7366 61.3537 74.0917 61.3537 74.9858C61.3537 75.4527 61.3538 76.1484 61.7184 76.7003C62.0837 77.2536 62.8334 77.6954 64.3571 77.6954C65.8808 77.6954 66.6304 77.2537 66.9958 76.7003C67.3605 76.1483 67.3606 75.4527 67.3606 74.9858C67.3606 74.5278 67.3606 73.9517 67.0105 73.5208H67.0102Z" fill="#160045"/>
<path fill-rule="evenodd" clip-rule="evenodd" d="M60.6504 96.8609L61.839 98.0325C62.8671 99.1831 64.6552 97.6334 63.437 96.3212L62.673 95.5059L60.6504 96.8609V96.8609Z" fill="#C98560"/>
<path fill-rule="evenodd" clip-rule="evenodd" d="M71.3737 103.457L70.8949 102.595C69.2406 102.13 66.6288 101.012 65.0339 99.5957L64.1037 98.3027L61.1349 97.1285L61.1351 97.1281C60.0087 96.8453 59.9845 95.085 61.6275 94.9148L61.1304 94.7174L61.1307 94.7169C60.0042 94.434 59.98 92.6738 61.6232 92.5034C60.4968 92.2206 60.4725 90.4602 62.1157 90.29L63.4733 90.7341L60.5357 89.773C59.1306 89.382 59.6429 87.2378 61.4298 87.6177L68.0969 88.8489L72.9784 92.0734C73.1224 92.1717 73.3189 92.0771 73.2852 91.9077C73.0918 90.8325 73.1059 90.1412 73.1927 89.4137C73.6204 85.8398 75.7859 86.7097 75.8976 88.2908C76.8139 93.9733 77.9256 92.8506 77.7078 96.7674L78.9991 99.1785L71.3738 103.457H71.3737Z" fill="#EBA884"/>
<path d="M66.3109 91.4738L66.3848 91.1841C66.4634 91.2021 66.5106 91.2817 66.4903 91.3616C66.47 91.4416 66.3895 91.4919 66.3109 91.4738ZM62.7567 90.6557L62.8306 90.366L66.3848 91.1841L66.3109 91.4738L62.7567 90.6557ZM62.8306 90.366L62.7567 90.6557C62.6781 90.6377 62.6309 90.5581 62.6512 90.4782C62.6715 90.3982 62.752 90.3479 62.8306 90.366Z" fill="#C98560"/>
<path d="M65.702 93.6503L65.7792 93.3613C65.8576 93.3802 65.9038 93.4606 65.8825 93.5403C65.8612 93.62 65.7804 93.6693 65.702 93.6503ZM62.1846 92.7941L62.2619 92.505L65.7792 93.3613L65.702 93.6503L62.1846 92.7941ZM62.2619 92.505L62.1846 92.7941C62.1063 92.7751 62.0601 92.6948 62.0813 92.615C62.1026 92.5353 62.1835 92.4861 62.2619 92.505Z" fill="#C98560"/>
<path d="M65.7074 96.0607L65.7846 95.7716C65.863 95.7906 65.9092 95.871 65.8879 95.9507C65.8666 96.0304 65.7857 96.0796 65.7074 96.0607ZM62.1768 95.2013L62.254 94.9123L65.7846 95.7716L65.7074 96.0607L62.1768 95.2013ZM62.254 94.9123L62.1768 95.2013C62.0985 95.1823 62.0523 95.102 62.0735 95.0223C62.0948 94.9425 62.1757 94.8933 62.254 94.9123Z" fill="#C98560"/>
<path d="M71.4772 18.3746C71.7314 18.7 71.6737 19.1701 71.3483 19.4243C71.0229 19.6784 70.5528 19.6207 70.2986 19.2953C70.01 18.9262 68.6665 18.4882 67.6187 18.1469C67.1158 17.983 66.6725 17.8385 66.3773 17.7081C65.9986 17.5414 65.8267 17.0989 65.9933 16.7201C66.16 16.3414 66.6026 16.1694 66.9814 16.3361C67.217 16.4402 67.6222 16.5723 68.0818 16.722C69.3185 17.1249 70.9042 17.6416 71.4773 18.3745L71.4772 18.3746Z" fill="#C2BFFF"/>
<path d="M68.7554 27.4654C69.0295 27.433 69.2782 27.6292 69.3105 27.9032C69.3428 28.1773 69.1467 28.426 68.8726 28.4583C68.4683 28.5065 67.9282 28.6131 67.3694 28.7231C66.6538 28.8641 65.908 29.0112 65.3224 29.0616C65.0472 29.0842 64.8056 28.8795 64.783 28.6043C64.7603 28.3291 64.965 28.0875 65.2403 28.0649C65.772 28.0191 66.4895 27.8777 67.1778 27.742C67.7557 27.6281 68.3145 27.5178 68.7553 27.4653L68.7554 27.4654Z" fill="#C2BFFF"/>
<path d="M85.9866 14.4753C85.9244 14.6728 85.7135 14.7823 85.5161 14.72C85.3186 14.6578 85.2091 14.4469 85.2714 14.2495C85.423 13.7711 85.6718 13.3973 85.9143 13.0328C86.1688 12.6504 86.4158 12.2794 86.4774 11.8436C86.5057 11.6389 86.6949 11.4958 86.8996 11.5241C87.1043 11.5524 87.2475 11.7416 87.2192 11.9463C87.1334 12.5528 86.8406 12.9927 86.5388 13.4461C86.3258 13.766 86.1074 14.0943 85.9867 14.4753H85.9866Z" fill="#C2BFFF"/>
<path d="M78.4621 12.991C78.5836 13.386 78.3617 13.8048 77.9667 13.9261C77.5717 14.0476 77.1529 13.8257 77.0316 13.4307C76.8489 12.8419 76.8083 12.3016 76.7696 11.7825C76.7402 11.389 76.7118 11.0095 76.6204 10.7001C76.5039 10.3035 76.7309 9.88727 77.1276 9.77077C77.5243 9.65427 77.9405 9.8813 78.057 10.278C78.1959 10.7479 78.2299 11.2012 78.2649 11.671C78.2979 12.1127 78.3323 12.5723 78.4622 12.991H78.4621Z" fill="#C2BFFF"/>
<path d="M91.346 17.5062C91.2286 17.6761 90.9955 17.7188 90.8256 17.6014C90.6557 17.4841 90.6129 17.251 90.7304 17.081C90.9426 16.7734 91.1491 16.6483 91.3616 16.5196L91.388 16.505C91.5501 16.4064 91.7175 16.2964 91.8817 16.027C91.9893 15.8506 92.2198 15.7949 92.3962 15.9024C92.5726 16.01 92.6284 16.2405 92.5208 16.4169C92.2636 16.8385 92.0152 16.9985 91.7752 17.1441L91.7487 17.1616C91.6048 17.2486 91.4651 17.3333 91.346 17.5061V17.5062Z" fill="#C2BFFF"/>
<path d="M73.4536 34.2094C73.371 34.3988 73.1505 34.4855 72.9611 34.4029C72.7717 34.3204 72.685 34.0998 72.7676 33.9104C72.9161 33.5705 73.0959 33.4073 73.2809 33.2395C73.4289 33.1055 73.5819 32.9666 73.6976 32.6556C73.7697 32.4622 73.9849 32.3637 74.1784 32.4357C74.3718 32.5077 74.4703 32.723 74.3983 32.9165C74.2195 33.3975 73.9972 33.599 73.7823 33.7936C73.6588 33.9055 73.5387 34.0145 73.4537 34.2093L73.4536 34.2094Z" fill="#C2BFFF"/>
<path d="M84.8989 228.519C84.8944 228.684 84.7568 228.814 84.5917 228.809C84.4266 228.805 84.2964 228.667 84.3009 228.502L86.5131 160.447L86.2625 148.16C86.4524 148.135 86.6394 148.11 86.8228 148.084L86.8576 148.079C87.3461 174.943 85.6398 201.664 84.8989 228.519V228.519Z" fill="#2B0087"/>
<path d="M51.9729 230.119C51.9741 230.284 51.8413 230.419 51.6762 230.42C51.5111 230.421 51.3761 230.289 51.3749 230.124C51.1377 202.911 50.4127 175.691 51.5474 148.505C51.7401 148.526 51.9381 148.545 52.1421 148.564L51.6183 160.462L51.4992 188.315L51.973 230.119H51.9729Z" fill="#2B0087"/>
<path d="M50.6218 146.994L50.4273 158.864L50.2246 188.43L50.6472 229.709C50.7226 231.31 63.9161 230.879 65.3658 229.709L66.7459 195.071L68.6702 162.863L71.6672 228.213C71.5835 229.978 85.6089 229.316 85.7019 228.213L87.7586 158.864L87.5642 147.052" stroke="#2B0087" stroke-width="0.600404" stroke-miterlimit="22.9256" stroke-linecap="round" stroke-linejoin="round"/>
</g>
</g>
<defs>
<linearGradient id="paint0_linear_2207_7598" x1="91.9234" y1="27.3313" x2="97.9892" y2="33.5952" gradientUnits="userSpaceOnUse">
<stop stop-color="#6934DD"/>
<stop offset="1" stop-color="#FF0431"/>
</linearGradient>
<linearGradient id="paint1_linear_2207_7598" x1="83.1663" y1="23.6429" x2="107.79" y2="49.0302" gradientUnits="userSpaceOnUse">
<stop stop-color="#6934DD"/>
<stop offset="1" stop-color="#FF0431"/>
</linearGradient>
<linearGradient id="paint2_linear_2207_7598" x1="77.5642" y1="24.284" x2="111.754" y2="59.09" gradientUnits="userSpaceOnUse">
<stop stop-color="#6934DD"/>
<stop offset="1" stop-color="#FF0431"/>
</linearGradient>
<linearGradient id="paint3_linear_2207_7598" x1="72.0184" y1="26.8101" x2="112.853" y2="68.2212" gradientUnits="userSpaceOnUse">
<stop stop-color="#6934DD"/>
<stop offset="1" stop-color="#FF0431"/>
</linearGradient>
<linearGradient id="paint4_linear_2207_7598" x1="65.5662" y1="29.9042" x2="112.735" y2="77.7794" gradientUnits="userSpaceOnUse">
<stop stop-color="#6934DD"/>
<stop offset="1" stop-color="#FF0431"/>
</linearGradient>
<linearGradient id="paint5_linear_2207_7598" x1="52.6561" y1="31.7398" x2="112.106" y2="92.3731" gradientUnits="userSpaceOnUse">
<stop stop-color="#6934DD"/>
<stop offset="1" stop-color="#FF0431"/>
</linearGradient>
<linearGradient id="paint6_linear_2207_7598" x1="40.4381" y1="33.4652" x2="111.932" y2="106.562" gradientUnits="userSpaceOnUse">
<stop stop-color="#6934DD"/>
<stop offset="1" stop-color="#FF0431"/>
</linearGradient>
<linearGradient id="paint7_linear_2207_7598" x1="35.3221" y1="36.4656" x2="112.473" y2="115.43" gradientUnits="userSpaceOnUse">
<stop stop-color="#6934DD"/>
<stop offset="1" stop-color="#FF0431"/>
</linearGradient>
<linearGradient id="paint8_linear_2207_7598" x1="32.9219" y1="39.922" x2="113.374" y2="122.313" gradientUnits="userSpaceOnUse">
<stop stop-color="#6934DD"/>
<stop offset="1" stop-color="#FF0431"/>
</linearGradient>
<linearGradient id="paint9_linear_2207_7598" x1="31.777" y1="43.5808" x2="114.408" y2="128.239" gradientUnits="userSpaceOnUse">
<stop stop-color="#6934DD"/>
<stop offset="1" stop-color="#FF0431"/>
</linearGradient>
<linearGradient id="paint10_linear_2207_7598" x1="31.2583" y1="47.3712" x2="115.423" y2="133.683" gradientUnits="userSpaceOnUse">
<stop stop-color="#6934DD"/>
<stop offset="1" stop-color="#FF0431"/>
</linearGradient>
<linearGradient id="paint11_linear_2207_7598" x1="31.1541" y1="51.3029" x2="116.395" y2="138.756" gradientUnits="userSpaceOnUse">
<stop stop-color="#6934DD"/>
<stop offset="1" stop-color="#FF0431"/>
</linearGradient>
<linearGradient id="paint12_linear_2207_7598" x1="31.2884" y1="55.3927" x2="117.228" y2="143.566" gradientUnits="userSpaceOnUse">
<stop stop-color="#6934DD"/>
<stop offset="1" stop-color="#FF0431"/>
</linearGradient>
<linearGradient id="paint13_linear_2207_7598" x1="31.5182" y1="59.653" x2="117.835" y2="148.177" gradientUnits="userSpaceOnUse">
<stop stop-color="#6934DD"/>
<stop offset="1" stop-color="#FF0431"/>
</linearGradient>
<linearGradient id="paint14_linear_2207_7598" x1="31.7694" y1="64.0682" x2="118.196" y2="152.701" gradientUnits="userSpaceOnUse">
<stop stop-color="#6934DD"/>
<stop offset="1" stop-color="#FF0431"/>
</linearGradient>
<linearGradient id="paint15_linear_2207_7598" x1="32.0682" y1="68.6216" x2="118.354" y2="157.103" gradientUnits="userSpaceOnUse">
<stop stop-color="#6934DD"/>
<stop offset="1" stop-color="#FF0431"/>
</linearGradient>
<linearGradient id="paint16_linear_2207_7598" x1="32.4823" y1="73.3653" x2="118.246" y2="161.301" gradientUnits="userSpaceOnUse">
<stop stop-color="#6934DD"/>
<stop offset="1" stop-color="#FF0431"/>
</linearGradient>
<linearGradient id="paint17_linear_2207_7598" x1="33.0596" y1="78.3365" x2="117.812" y2="165.229" gradientUnits="userSpaceOnUse">
<stop stop-color="#6934DD"/>
<stop offset="1" stop-color="#FF0431"/>
</linearGradient>
<linearGradient id="paint18_linear_2207_7598" x1="33.9091" y1="83.6118" x2="117.006" y2="168.775" gradientUnits="userSpaceOnUse">
<stop stop-color="#6934DD"/>
<stop offset="1" stop-color="#FF0431"/>
</linearGradient>
<linearGradient id="paint19_linear_2207_7598" x1="35.0635" y1="89.2811" x2="115.685" y2="171.934" gradientUnits="userSpaceOnUse">
<stop stop-color="#6934DD"/>
<stop offset="1" stop-color="#FF0431"/>
</linearGradient>
<linearGradient id="paint20_linear_2207_7598" x1="36.6431" y1="95.4872" x2="113.637" y2="174.504" gradientUnits="userSpaceOnUse">
<stop stop-color="#6934DD"/>
<stop offset="1" stop-color="#FF0431"/>
</linearGradient>
<linearGradient id="paint21_linear_2207_7598" x1="38.7357" y1="102.493" x2="110.495" y2="176.228" gradientUnits="userSpaceOnUse">
<stop stop-color="#6934DD"/>
<stop offset="1" stop-color="#FF0431"/>
</linearGradient>
<linearGradient id="paint22_linear_2207_7598" x1="41.5037" y1="110.787" x2="105.513" y2="176.722" gradientUnits="userSpaceOnUse">
<stop stop-color="#6934DD"/>
<stop offset="1" stop-color="#FF0431"/>
</linearGradient>
<linearGradient id="paint23_linear_2207_7598" x1="45.1787" y1="121.451" x2="97.0691" y2="175.055" gradientUnits="userSpaceOnUse">
<stop stop-color="#6934DD"/>
<stop offset="1" stop-color="#FF0431"/>
</linearGradient>
<linearGradient id="paint24_linear_2207_7598" x1="50.2419" y1="139.015" x2="78.3328" y2="168.031" gradientUnits="userSpaceOnUse">
<stop stop-color="#6934DD"/>
<stop offset="1" stop-color="#FF0431"/>
</linearGradient>
<linearGradient id="paint25_linear_2207_7598" x1="58.1772" y1="82.7366" x2="87.2604" y2="194.963" gradientUnits="userSpaceOnUse">
<stop stop-color="#EAE8FF"/>
<stop offset="1" stop-color="white"/>
</linearGradient>
<linearGradient id="paint26_linear_2207_7598" x1="81.3931" y1="82.7366" x2="52.3099" y2="194.963" gradientUnits="userSpaceOnUse">
<stop stop-color="#EAE8FF"/>
<stop offset="1" stop-color="white"/>
</linearGradient>
<clipPath id="clip0_2207_7598">
<rect width="134.283" height="261.951" fill="white"/>
</clipPath>
<clipPath id="clip1_2207_7598">
<rect width="124.224" height="242.261" fill="white" transform="translate(5.12305 9.73926)"/>
</clipPath>
</defs>
</svg>
