<svg width="593" height="577" viewBox="0 0 593 577" fill="none" xmlns="http://www.w3.org/2000/svg">
<g id="&#208;&#159;&#208;&#176;&#208;&#178;&#208;&#181;&#208;&#187;8 (2) 1" clip-path="url(#clip0_1106_6272)">
<g id="&#208;&#161;&#208;&#187;&#208;&#190;&#208;&#185;_x0020_1">
<path id="Vector" fill-rule="evenodd" clip-rule="evenodd" d="M298.107 364.557C295.636 368.186 292.087 370.818 288.103 372.211L288.1 372.212C287.658 372.366 287.21 372.506 286.758 372.629H286.757C286.423 372.721 286.088 372.804 285.75 372.878L285.724 372.884L285.4 372.952L285.364 372.959C285.044 373.023 284.722 373.079 284.399 373.127L284.302 373.141L284.006 373.182L283.964 373.187C283.288 373.273 282.606 373.325 281.921 373.342L281.864 373.343L281.534 373.348H281.507C281.184 373.349 280.86 373.342 280.536 373.328L280.397 373.321L280.133 373.306L280.004 373.296C279.692 373.274 279.38 373.244 279.067 373.207L278.99 373.198L278.684 373.158L278.605 373.146C276.708 372.874 274.821 372.323 273 371.469L270.525 370.308C268.745 369.582 266.883 368.771 264.887 367.868C264.722 367.679 263.914 367.403 263.753 367.213L263.645 367.082L222.37 347.729C204.164 339.111 196.137 317.317 204.648 299.06C213.158 280.802 235.08 272.787 253.318 281.337L256.963 283.047C268.584 238.766 271.797 221.946 327.041 210.854C334.576 199.919 340.47 195.057 354.721 194.871L395.196 195.214C421.538 194.47 424.732 205.661 432.268 216.595C473.583 223.061 485.4 250.956 490.369 268.587C498.773 303.288 501.504 369.859 500.773 380.588C500.819 388.879 505.112 397.17 501.645 400.617C499.734 405.128 495.873 409.515 493.665 408.894L480.635 391.861L467.049 393.852L453.277 383.295L453.285 383.3L430.604 365.914C428.199 364.373 425.852 362.951 423.548 361.645C418.371 360.475 413.47 358.198 409.229 354.951C390.282 348.205 372.212 350.975 345.503 365.476L328.089 376.578L323.181 376.585L322.687 376.352L322.685 376.356L306.421 368.646L298.044 364.69L298.107 364.557H298.107Z" fill="#FF0028"/>
<path id="Vector_2" fill-rule="evenodd" clip-rule="evenodd" d="M309.362 388.51L325.992 377.908L322.688 376.344L322.686 376.349L306.422 368.639L298.045 364.683L298.108 364.549C292.67 372.534 282.017 375.687 273.005 371.463L309.362 388.509V388.51Z" fill="#D90324"/>
<path id="Vector_3" fill-rule="evenodd" clip-rule="evenodd" d="M279.525 374.526L309.362 388.515L294.965 397.693L267.668 370.359L272.41 372.583L272.508 372.634C274.782 373.694 277.153 374.312 279.525 374.526H279.525Z" fill="#2B0087"/>
<path id="Vector_4" fill-rule="evenodd" clip-rule="evenodd" d="M433.852 576.626L3.71673 535.041C1.65346 534.842 0.106997 533.132 0.00501018 531.06C-0.0969762 528.989 1.37006 527.473 3.30829 526.734L51.3802 508.408L489.1 545.72L466.37 566.728C457.365 575.051 446.058 577.806 433.852 576.626Z" fill="#DAD9FF"/>
<path id="Vector_5" fill-rule="evenodd" clip-rule="evenodd" d="M51.3174 508.437L116.584 483.559L524.561 512.948L489.099 545.725L51.3174 508.437Z" fill="#C2BFFF"/>
<path id="Vector_6" fill-rule="evenodd" clip-rule="evenodd" d="M116.585 483.561L189.293 455.846L561.471 478.836L524.562 512.95L116.585 483.561Z" fill="#9894FC"/>
<path id="Vector_7" fill-rule="evenodd" clip-rule="evenodd" d="M328.879 517.041L328.866 517.036L328.657 516.947C327.682 516.515 323.583 514.453 318.546 508.419C319.358 506.098 315.515 502.715 318.701 495.939C322.867 487.079 336.739 475.019 347.151 473.108C349.644 472.651 352.01 475.223 353.939 476.576C353.411 476.853 352.878 477.139 352.341 477.434C343.179 482.473 337.313 488.43 334.03 494.638C330.042 502.205 330.226 511.179 333.37 519.155C331.868 518.379 330.339 517.661 328.878 517.041V517.04L328.879 517.041Z" fill="#DAD9FF"/>
<path id="Vector_8" fill-rule="evenodd" clip-rule="evenodd" d="M189.293 455.841L263.588 427.52C263.956 427.38 264.311 427.406 264.704 427.426L588.987 443.638C590.746 443.726 592.198 444.815 592.77 446.481C593.343 448.148 592.823 449.855 591.531 451.049L561.472 478.831L189.293 455.84L189.293 455.841Z" fill="#847FFA"/>
<path id="Vector_9" fill-rule="evenodd" clip-rule="evenodd" d="M226.627 498.036C228.005 498.057 235.266 497.795 246.245 490.672C250.414 487.967 255.058 485.563 259.37 483.568C248.492 475.777 238.605 456.958 236.422 444.619C232.417 444.715 222.009 444.678 211.596 444.605L204.802 444.539C215.624 464.346 213.996 485.774 206.17 498.161C212.997 497.948 219.83 497.808 226.627 498.036Z" fill="#DAD9FF"/>
<path id="Vector_10" d="M375.71 250.157C375.568 249.471 376.008 248.798 376.694 248.656C377.381 248.513 378.053 248.953 378.196 249.64C378.79 252.469 379.305 255.139 379.752 257.671C378.937 258.108 378.162 258.593 377.427 259.12C376.946 256.315 376.378 253.338 375.71 250.157V250.157ZM378.575 330.644C377.903 331.278 377.576 332.246 377.805 333.205L379.896 341.949C380.124 342.903 380.848 343.615 381.728 343.88C381.954 344.585 382.174 345.274 382.381 345.959L383.486 346.203C383.999 346.315 384.581 346.455 385.213 346.614C384.915 345.527 384.576 344.454 384.222 343.348C384.951 342.717 385.316 341.709 385.078 340.71L382.986 331.966C382.75 330.978 381.983 330.249 381.06 330.008C380.545 325.757 380.338 320.464 380.732 313.513C380.841 311.593 380.965 309.719 381.094 307.888L378.887 303.222C378.651 306.39 378.406 309.69 378.197 313.373C377.783 320.679 378.015 326.211 378.575 330.644V330.644Z" fill="#FF5E04"/>
<path id="Vector_11" d="M424.714 237.283C427.856 233.096 429.632 228.677 429.632 224.613" stroke="#D90324" stroke-width="2.53103" stroke-miterlimit="22.9256" stroke-linecap="round" stroke-linejoin="round"/>
<path id="Vector_12" d="M358.197 246.025C358.339 245.338 359.012 244.898 359.698 245.041C360.384 245.183 360.825 245.855 360.682 246.542C355.423 271.604 356.344 283.988 357.496 299.467L357.498 299.496C357.736 302.698 357.984 306.032 358.196 309.759C358.61 317.064 358.378 322.596 357.818 327.029C358.49 327.663 358.817 328.631 358.587 329.59L356.496 338.334C356.268 339.288 355.545 340.001 354.664 340.265C354.363 341.203 354.074 342.114 353.809 343.027C353.48 343.065 353.146 343.106 352.804 343.149L351.056 343.455C351.383 342.211 351.767 340.993 352.17 339.731C351.441 339.1 351.076 338.092 351.315 337.094L353.406 328.35C353.643 327.362 354.409 326.633 355.333 326.392C355.848 322.14 356.054 316.848 355.66 309.897C355.459 306.342 355.206 302.944 354.963 299.685L354.961 299.655C353.795 283.982 352.861 271.445 358.197 246.023V246.025Z" fill="#FF5E04"/>
<path id="Vector_13" fill-rule="evenodd" clip-rule="evenodd" d="M392.151 208.411V204.698C399.943 203.085 416.4 208.656 416.4 216.966C416.4 224.239 411.12 232.096 402.671 238.156C401.682 238.865 400.564 239.105 399.372 238.862C398.179 238.619 397.244 237.963 396.61 236.924L396.058 236.018L396.266 235.909C390.174 239.098 381.966 241.053 372.938 241.053C359.183 241.053 349.376 236.676 343.69 229.776C343.428 232.37 337.171 233.009 335.219 230.793C330.408 219.238 335.576 210.238 349.507 206.555V208.411H392.15H392.151Z" fill="#D90324"/>
<path id="Vector_14" fill-rule="evenodd" clip-rule="evenodd" d="M400.676 216.564C401.991 218.44 402.713 220.48 402.71 222.614C402.7 231.799 389.297 239.23 372.773 239.213C356.249 239.194 344.735 231.737 344.745 222.552C344.747 220.419 345.473 218.379 346.793 216.506L400.676 216.565V216.564Z" fill="#AD041E"/>
<path id="Vector_15" fill-rule="evenodd" clip-rule="evenodd" d="M355.273 477.291C353.161 476.663 350.255 472.541 347.152 473.11C336.74 475.02 322.868 487.08 318.702 495.941C315.102 503.598 320.479 506.923 317.969 509.277C286.131 480.522 233.142 437.748 208.968 406.149C194.266 386.93 207.679 358.59 222.459 349.16L267.787 370.413C296.947 396.398 325.969 433.213 355.273 477.291L355.273 477.291Z" fill="#6934D9"/>
<path id="Vector_16" fill-rule="evenodd" clip-rule="evenodd" d="M396.431 205.764V216.557C396.431 229.443 385.887 235.769 373 235.769H372.999C360.46 235.769 350.141 229.78 349.593 217.586C356.369 221.232 364.366 222.733 372.541 221.344C382.719 219.615 391.157 213.749 396.431 205.764Z" fill="#EBA884"/>
<path id="Vector_17" fill-rule="evenodd" clip-rule="evenodd" d="M396.431 205.764L396.564 217.765C391.777 227.48 370.529 232.98 357.717 220.749C362.421 221.948 367.446 222.206 372.541 221.34C382.715 219.612 391.151 213.749 396.425 205.769L396.431 205.764Z" fill="#C98560"/>
<path id="Vector_18" fill-rule="evenodd" clip-rule="evenodd" d="M398.395 159.546L401.85 180.037C405.163 199.537 392.04 218.031 372.54 221.343C353.04 224.657 334.547 211.534 331.234 192.034L327.722 171.365L327.219 168.403L324.373 151.652L323.083 144.057C323.083 144.057 325.003 129.889 333.743 130.162C339.216 131.777 346.509 131.697 352.29 130.078C356.585 128.875 360.079 126.959 361.74 125.432C365.284 122.173 382.53 134.357 386.489 136.142L393.388 159.051C393.616 160.405 395.983 160.357 398.395 159.546Z" fill="#EBA884"/>
<path id="Vector_19" fill-rule="evenodd" clip-rule="evenodd" d="M400.942 151.578C403.209 151.194 405.828 153.307 406.322 156.214L407.714 164.405C408.723 170.346 404.701 175.96 398.768 176.968L394.692 152.641L400.942 151.578Z" fill="#EBA884"/>
<path id="Vector_20" d="M377.312 144.525C372.26 144.041 367.187 143.26 362.162 144.314C360.239 144.717 357.691 143.623 356.431 142.193C355.179 140.773 355.857 139.473 357.572 139.115C363.214 137.931 368.942 138.707 374.611 139.25C376.518 139.433 378.92 140.245 379.868 142.084C380.762 143.831 378.736 144.66 377.312 144.525Z" fill="#241813"/>
<path id="Vector_21" d="M342.959 144.198C338.533 146.154 336.863 147.088 332.217 149.891C330.156 151.097 327.855 153.861 327.583 156.316C327.29 158.986 330.227 157.728 331.438 157.019C334.693 153.922 336.364 152.987 340.789 151.032C343.052 150.031 345.802 148.145 346.6 145.649C347.386 143.176 344.3 143.605 342.959 144.199L342.959 144.198Z" fill="#241813"/>
<path id="Vector_22" d="M315.005 107.9C315.167 107.139 315.373 106.836 316.003 106.697C316.555 106.595 316.902 106.976 317.005 107.529C317.011 107.562 318.217 119.032 324.025 121.028C323.548 119.118 316.644 108.763 323.427 99.1761C330.319 89.4359 341.72 99.1716 341.558 99.8076C341.395 100.444 360.491 97.2741 374.503 102.167C388.514 107.059 396.957 114.303 399.831 129.894C402.704 145.484 402.486 142.023 403.736 154.781C404.094 158.446 393.88 161.943 393.389 159.053L386.49 136.144C382.531 134.358 365.285 122.174 361.741 125.434C360.08 126.961 356.586 128.876 352.291 130.079C346.509 131.699 339.217 131.778 333.744 130.163C325.004 129.89 323.083 144.059 323.083 144.059L325.955 160.963L326.458 163.925C326.458 163.925 317.994 167.033 317.031 156.854C316.068 146.675 312.214 146.133 314.856 136.542C316.661 129.99 318.032 126.655 320.26 124.198C314.855 120.697 314.589 109.906 315.004 107.899L315.005 107.9Z" fill="#241813"/>
<path id="Vector_23" d="M353.621 168.628C354.551 173.392 355.042 178.223 356.016 182.986C356.551 185.586 355.73 188.507 356.852 190.923C357.514 192.365 359.944 194.023 361.759 194.013C362.384 194.01 361.877 194.706 361.685 194.875C361.222 195.283 360.617 195.564 360 195.566C358.201 195.575 355.676 194.327 354.877 192.889C353.594 190.571 354.422 187.585 353.854 185.019C352.742 180.008 352.273 174.909 351.29 169.881C351.126 169.026 353.514 168.063 353.621 168.628V168.628Z" fill="black"/>
<path id="Vector_24" d="M402.281 162.052C402.162 161.731 402.326 161.374 402.647 161.256C402.968 161.137 403.325 161.3 403.444 161.622C403.451 161.644 406.267 169.291 402.069 171.953C401.778 172.136 401.394 172.05 401.211 171.76C401.028 171.471 401.114 171.086 401.404 170.903C404.757 168.777 402.287 162.072 402.281 162.053V162.052Z" fill="#C98560"/>
<path id="Vector_25" d="M336.451 173.163C336.995 175.276 339.151 176.548 341.262 176.005C343.378 175.461 344.649 173.308 344.105 171.195C343.562 169.081 341.411 167.808 339.294 168.352C337.183 168.895 335.908 171.049 336.451 173.163Z" fill="black"/>
<path id="Vector_26" d="M363.88 165.864C364.423 167.977 366.575 169.25 368.689 168.706C370.805 168.162 372.076 166.009 371.533 163.896C370.989 161.782 368.837 160.51 366.721 161.053C364.606 161.597 363.335 163.75 363.879 165.864H363.88Z" fill="black"/>
<path id="Vector_27" d="M366.7 206.453C367.885 205.778 369.07 205.104 370.255 204.43C370.864 204.083 371.154 206.397 370.553 206.74C369.368 207.414 368.183 208.089 367.003 208.761C366.389 209.11 366.104 206.793 366.7 206.453Z" fill="black"/>
<path id="Vector_28" d="M331.814 158.792C338.84 157.114 342.823 157.962 345.201 159.786C346.193 160.547 346.892 161.453 347.407 162.406C348.541 161.592 349.754 160.969 351.058 160.614C352.39 160.25 353.804 160.165 355.315 160.44C355.211 159.04 355.353 157.548 356.073 156.049C357.375 153.339 360.551 150.775 367.59 149.095C374.631 147.414 378.621 148.263 381.005 150.091C381.11 150.171 381.211 150.254 381.31 150.337L403.4 150.376C403.981 150.375 404.453 150.845 404.453 151.425C404.454 152.006 403.984 152.477 403.403 152.478L383.061 152.442C383.925 153.922 384.313 155.544 384.645 156.937C385.161 159.097 385.93 162.318 384.759 165.542C383.588 168.764 380.521 171.848 373.427 173.542C359.066 176.971 356.973 168.213 355.918 163.796L355.892 163.689C355.814 163.362 355.734 163.021 355.658 162.67C354.194 162.278 352.851 162.305 351.611 162.643C350.415 162.969 349.296 163.587 348.242 164.402C348.489 165.168 348.67 165.922 348.836 166.619C349.351 168.774 350.117 171.986 348.947 175.199C347.777 178.411 344.716 181.484 337.636 183.175C323.303 186.597 321.219 177.873 320.165 173.464L320.14 173.358C319.621 171.183 319.006 168.471 320.32 165.733C321.619 163.027 324.79 160.469 331.814 158.792ZM379.725 151.764C377.794 150.283 374.375 149.639 368.076 151.143C361.777 152.647 359.019 154.765 357.967 156.955C356.953 159.069 357.517 161.431 357.965 163.308L357.991 163.415C358.89 167.177 360.739 174.407 372.939 171.494C379.183 170.003 381.823 167.453 382.779 164.822C383.734 162.193 383.053 159.337 382.596 157.424C382.149 155.55 381.585 153.19 379.725 151.764H379.725ZM327.341 168.839C327.919 168.768 328.445 169.179 328.515 169.756C328.587 170.333 328.176 170.859 327.599 170.93L321.914 171.653C322.007 172.113 322.113 172.557 322.213 172.977L322.238 173.083C323.136 176.836 324.977 184.033 337.149 181.127C343.379 179.64 346.014 177.099 346.968 174.479C347.922 171.86 347.243 169.015 346.787 167.106C346.341 165.235 345.779 162.882 343.923 161.459C341.997 159.982 338.586 159.339 332.301 160.84C326.016 162.341 323.265 164.453 322.215 166.638C321.761 167.585 321.624 168.581 321.651 169.562L327.342 168.839H327.341Z" fill="#160045"/>
<path id="Vector_29" fill-rule="evenodd" clip-rule="evenodd" d="M370.791 235.706L369.166 230.921C362.205 218.036 381.008 205.252 382.021 185.388C381.59 178.547 387.665 176.556 391.084 178.149L391.049 176.743C390.516 170.56 395.658 165.292 401.796 167.695C402.793 163.479 410.796 161.524 412.41 168.089C409.724 162.769 401.828 164.507 402.327 171.184C401.006 165.324 391.819 168.098 392.55 176.747L392.713 183.279C392.095 176.393 383.081 178.379 383.522 185.392C382.509 205.256 363.706 218.04 370.668 230.925L372.311 235.764C371.8 235.755 371.294 235.735 370.792 235.706H370.791Z" fill="#C98560"/>
<path id="Vector_30" fill-rule="evenodd" clip-rule="evenodd" d="M402.327 171.184C401.771 163.746 411.633 162.437 413.106 170.185C413.815 174.131 414.238 178.352 413.982 181.348C415.916 174.652 425.836 177.896 424.392 184.893C422.531 197.053 409.769 219.134 405.428 227.844L409.235 234.597L377.25 250.312L370.667 230.925C363.706 218.041 382.509 205.256 383.521 185.392C383.081 178.379 392.095 176.392 392.713 183.28L392.55 176.747C391.819 168.098 401.006 165.325 402.327 171.184V171.184Z" fill="#EBA884"/>
<g id="Group">
<path id="Vector_31" d="M409.392 209.365L410.586 209.72C410.489 210.05 410.142 210.237 409.812 210.14C409.482 210.042 409.294 209.695 409.391 209.365H409.392ZM413.283 196.193L414.503 196.375L414.478 196.547L410.586 209.72L409.392 209.365L413.283 196.193H413.283ZM414.477 196.547L413.283 196.193C413.38 195.863 413.726 195.675 414.056 195.772C414.386 195.87 414.574 196.217 414.478 196.547H414.477ZM413.352 182.423L414.598 182.433L414.503 196.375L413.257 196.365L413.352 182.423ZM414.598 182.433L413.352 182.423C413.354 182.079 413.636 181.802 413.979 181.805C414.323 181.807 414.6 182.089 414.598 182.433Z" fill="#C98560"/>
</g>
<g id="Group_2">
<path id="Vector_32" d="M398.398 210.474L399.582 210.865C399.474 211.192 399.122 211.369 398.795 211.262C398.469 211.154 398.291 210.801 398.398 210.475V210.474ZM403.35 195.402L404.564 195.57L404.534 195.793L399.582 210.865L398.398 210.474L403.35 195.402ZM404.534 195.793L403.35 195.402C403.458 195.076 403.81 194.898 404.137 195.006C404.463 195.113 404.641 195.466 404.534 195.793V195.793ZM402.295 173.196L403.539 173.14L404.564 195.569L403.32 195.625L402.295 173.196ZM403.539 173.14L402.295 173.196C402.279 172.852 402.546 172.561 402.889 172.546C403.232 172.53 403.524 172.797 403.539 173.14Z" fill="#C98560"/>
</g>
<g id="Group_3">
<path id="Vector_33" d="M387.661 208.598L388.82 209.057C388.694 209.376 388.332 209.533 388.012 209.406C387.693 209.28 387.535 208.918 387.661 208.598ZM391.044 200.029L392.245 200.3L392.203 200.488L388.82 209.057L387.661 208.598L391.044 200.029ZM392.203 200.488L391.044 200.029C391.17 199.71 391.532 199.553 391.852 199.68C392.172 199.806 392.329 200.169 392.203 200.488ZM392.008 184.552L393.251 184.632L392.245 200.299L391.002 200.218L392.008 184.552ZM393.251 184.632L392.008 184.552C392.03 184.208 392.327 183.948 392.67 183.97C393.013 183.993 393.273 184.289 393.251 184.632Z" fill="#C98560"/>
</g>
<path id="Vector_34" fill-rule="evenodd" clip-rule="evenodd" d="M380.652 257.219L377.251 250.314L409.236 234.6L412.834 242.019C412.066 242.279 411.305 242.586 410.555 242.941C400.682 247.268 390.428 252.512 380.656 257.217L380.652 257.219L380.652 257.219Z" fill="#D90324"/>
<path id="Vector_35" fill-rule="evenodd" clip-rule="evenodd" d="M238.92 433.422C227.142 438.51 253.146 494.421 272.885 486.344L388.66 437.974C392.747 441.491 396.835 445.007 400.922 448.523C418.671 472.968 448.832 517.447 474.485 511.804C503.847 498.199 509.197 471.279 501.438 436.28L493.666 408.894L480.637 391.861L467.05 393.853L430.605 365.914C402.236 347.738 381.882 345.724 345.505 365.476L238.92 433.421V433.422Z" fill="#6934D9"/>
<path id="Vector_36" fill-rule="evenodd" clip-rule="evenodd" d="M207.189 294.486C216.776 279.386 246.294 257.979 277.085 232.834L257.989 283.525L207.189 294.486Z" fill="#FF0028"/>
<path id="Vector_37" fill-rule="evenodd" clip-rule="evenodd" d="M217.661 1.26758C249.74 1.26758 275.744 27.2722 275.744 59.3508C275.744 71.2342 272.173 82.2811 266.049 91.4839C265.53 92.263 265.28 93.0612 265.26 93.9973C265.096 101.984 272.762 102.688 268.772 107.414C265.433 111.368 259.799 109.955 256.152 107.245C254.502 106.019 252.352 105.982 250.662 107.152C241.29 113.636 229.919 117.435 217.66 117.435C185.582 117.435 159.577 91.43 159.577 59.3513C159.577 27.2726 185.582 1.26807 217.66 1.26807L217.661 1.26758Z" stroke="#C2BFFF" stroke-width="2.53103" stroke-miterlimit="22.9256" stroke-linecap="round" stroke-linejoin="round"/>
<path id="Vector_38" fill-rule="evenodd" clip-rule="evenodd" d="M485.736 414.547L473.843 392.857L467.05 393.853L469.432 400.563L485.736 414.547Z" fill="#2B0087"/>
<path id="Vector_39" d="M263.761 486.058L392.901 430.758L401.436 431.943C432.182 474.205 459.22 497.377 472.809 492.804C484.63 488.826 499.307 469.546 491.464 437.752L485.305 412.792L474.224 393.516" stroke="#2B0087" stroke-width="2.53103" stroke-miterlimit="22.9256" stroke-linecap="round" stroke-linejoin="round"/>
<path id="Vector_40" d="M491.462 437.752L481.334 434.09L467.169 394.184" stroke="#2B0087" stroke-width="2.53103" stroke-miterlimit="22.9256" stroke-linecap="round" stroke-linejoin="round"/>
<path id="Vector_41" fill-rule="evenodd" clip-rule="evenodd" d="M352.65 474.289L341.813 457.543L384.194 439.837L401.947 415.367L404.626 453.647C422.666 478.663 450.539 517.069 474.484 511.802C463.595 515.778 415.108 511.802 385.42 511.803L352.65 474.29V474.289Z" fill="#2B0087"/>
<path id="Vector_42" d="M291.201 478.763C301.38 487.517 310.42 494.995 316.884 500.28M203.73 377.361C203.344 393.924 219.426 410.197 240.417 431.682L203.73 377.361Z" stroke="#2B0087" stroke-width="2.53103" stroke-miterlimit="22.9256" stroke-linecap="round" stroke-linejoin="round"/>
<path id="Vector_43" d="M242.039 36.8962L221.431 26.5385C218.513 25.0718 214.958 26.2484 213.492 29.1666L189.944 76.017C188.477 78.9351 189.654 82.4897 192.572 83.9565L213.179 94.3141C216.097 95.7809 219.652 94.6042 221.119 91.6861L244.667 44.8357C246.133 41.9176 244.957 38.3629 242.039 36.8962Z" fill="#E5EEFF" stroke="#C6D6F7" stroke-width="0.67055" stroke-miterlimit="22.9256"/>
<path id="Vector_44" d="M238.909 38.3906C241.281 39.5821 242.245 42.497 241.054 44.8687L230.406 66.052" stroke="#C6D6F7" stroke-width="1.26551" stroke-miterlimit="22.9256" stroke-linecap="round" stroke-linejoin="round"/>
<path id="Vector_45" d="M214.759 83.1273C212.556 82.0203 211.668 79.3377 212.775 77.1353C213.882 74.933 216.565 74.045 218.767 75.152C220.97 76.2589 221.858 78.9416 220.751 81.1439C219.644 83.3462 216.961 84.2342 214.759 83.1273Z" fill="#C6D6F7"/>
<path id="Vector_46" d="M215.189 77.8809L216.01 80.5737L219.801 78.4173" stroke="#E5EEFF" stroke-width="1.26551" stroke-miterlimit="22.9256" stroke-linecap="round" stroke-linejoin="round"/>
<path id="Vector_47" d="M200.705 76.0648C198.503 74.9578 197.615 72.2752 198.722 70.0728C199.829 67.8705 202.511 66.9825 204.714 68.0895C206.916 69.1964 207.804 71.8791 206.697 74.0814C205.59 76.2837 202.907 77.1717 200.705 76.0648Z" fill="#C6D6F7"/>
<path id="Vector_48" d="M203.388 74.1247L201.851 69.3926" stroke="#E5EEFF" stroke-width="1.26551" stroke-miterlimit="22.9256" stroke-linecap="round" stroke-linejoin="round"/>
<path id="Vector_49" d="M200.263 72.5589L204.977 70.9688" stroke="#E5EEFF" stroke-width="1.26551" stroke-miterlimit="22.9256" stroke-linecap="round" stroke-linejoin="round"/>
<path id="Vector_50" d="M197.896 49.5154C197.357 48.4308 197.36 47.1555 197.904 46.0738C198.418 45.0491 199.364 44.3077 200.481 44.0508" stroke="#C6D6F7" stroke-width="1.68719" stroke-miterlimit="22.9256" stroke-linecap="round" stroke-linejoin="round"/>
<path id="Vector_51" d="M194.169 50.1534C193.229 48.2622 193.234 46.0386 194.183 44.1514C195.081 42.3651 196.728 41.0717 198.676 40.623" stroke="#C6D6F7" stroke-width="1.68719" stroke-miterlimit="22.9256" stroke-linecap="round" stroke-linejoin="round"/>
<path id="Vector_52" d="M190.47 49.4217C189.351 47.1687 189.357 44.5205 190.486 42.2723C191.556 40.1449 193.518 38.6043 195.839 38.0703" stroke="#C6D6F7" stroke-width="1.68719" stroke-miterlimit="22.9256" stroke-linecap="round" stroke-linejoin="round"/>
<path id="Vector_53" d="M233.446 35.6475L227.558 32.6895" stroke="#C6D6F7" stroke-width="1.26551" stroke-miterlimit="22.9256" stroke-linecap="round" stroke-linejoin="round"/>
<path id="Vector_54" d="M237.228 69.2819C238.42 69.0672 239.441 68.3042 239.986 67.2221C240.5 66.1973 240.532 64.997 240.072 63.9473" stroke="#C6D6F7" stroke-width="1.68719" stroke-miterlimit="22.9256" stroke-linecap="round" stroke-linejoin="round"/>
<path id="Vector_55" d="M238.936 72.6588C241.014 72.2842 242.795 70.9535 243.744 69.0667C244.642 67.2805 244.696 65.1863 243.894 63.3555" stroke="#C6D6F7" stroke-width="1.68719" stroke-miterlimit="22.9256" stroke-linecap="round" stroke-linejoin="round"/>
<path id="Vector_56" d="M241.731 75.1881C244.207 74.7424 246.329 73.1573 247.458 70.9096C248.527 68.7821 248.593 66.2879 247.637 64.1074" stroke="#C6D6F7" stroke-width="1.68719" stroke-miterlimit="22.9256" stroke-linecap="round" stroke-linejoin="round"/>
<path id="Vector_57" fill-rule="evenodd" clip-rule="evenodd" d="M447.375 358.996C447.375 358.996 471.176 379.802 480.624 391.864L467.05 393.854L430.605 365.915C428.451 364.535 426.345 363.25 424.273 362.059C424.45 362.009 424.61 361.955 424.79 361.906C436.365 364.009 441.571 361.186 447.376 358.996H447.375Z" fill="#D90324"/>
<path id="Vector_58" d="M326.029 377.886L238.92 433.417C227.142 438.505 253.146 494.416 272.885 486.339L388.66 437.969C392.747 441.485 396.835 445.001 400.922 448.518C418.671 472.962 448.832 517.442 474.485 511.799C503.847 498.194 509.197 471.274 501.438 436.275L493.666 408.888L480.637 391.856L467.05 393.847L430.605 365.908C419.569 358.837 409.746 354.212 399.721 352.363" stroke="#2B0087" stroke-width="2.53103" stroke-miterlimit="22.9256" stroke-linecap="round" stroke-linejoin="round"/>
<path id="Vector_59" fill-rule="evenodd" clip-rule="evenodd" d="M326.934 378.36C344.083 385.491 340.621 381.57 359.654 387.942L368.78 396.008C373.079 400.553 380.016 396.508 377.884 391.928L382.038 396C389.939 404.674 395.91 396.788 393.574 394.012C398.278 399.474 406.159 393.48 401.847 387.595C397.623 381.957 393.105 376.441 388.44 370.683C388.273 370.486 388.386 369.762 389.332 370.747C395.368 377.031 395.902 379.098 399.166 382.556C403.634 387.022 408.358 380.729 406.11 376.336C403.018 370.229 397.924 361.843 394.427 360.469L393.657 360.132C405.474 357.949 401.864 349.796 395.66 349.175C391.638 348.405 386.424 346.847 383.486 346.204C369.004 343.031 365.612 341.537 352.806 343.149L342.754 344.912L338.478 342.925L322.689 376.35L326.935 378.36L326.934 378.36Z" fill="#EBA884"/>
<path id="Vector_60" fill-rule="evenodd" clip-rule="evenodd" d="M338.477 342.928L321.979 335.262L306.422 368.648L322.686 376.358L338.477 342.928Z" fill="#241813"/>
<path id="Vector_61" d="M374.151 350.271L384.613 354.651" stroke="#C98560" stroke-width="1.25277" stroke-miterlimit="22.9256" stroke-linecap="round" stroke-linejoin="round"/>
<path id="Vector_62" d="M393.574 394.012L387.004 384.768" stroke="#C98560" stroke-width="1.25277" stroke-miterlimit="22.9256" stroke-linecap="round" stroke-linejoin="round"/>
<path id="Vector_63" d="M377.884 391.931L371.045 382.883" stroke="#C98560" stroke-width="1.25277" stroke-miterlimit="22.9256" stroke-linecap="round" stroke-linejoin="round"/>
<path id="Vector_64" fill-rule="evenodd" clip-rule="evenodd" d="M447.374 320.67C455.026 320.67 462.153 322.914 468.136 326.778C467.792 340.142 460.202 352.863 447.374 358.989C434.572 365.103 419.86 363.068 409.265 354.973C411.273 335.697 427.568 320.67 447.374 320.67V320.67Z" fill="#FF6600"/>
<path id="Vector_65" fill-rule="evenodd" clip-rule="evenodd" d="M207.19 294.481C209.758 290.437 213.757 285.939 218.826 281.039C219.204 281.557 219.569 282.084 219.922 282.62H219.922L220.004 282.746L220.098 282.891L220.168 282.999L220.192 283.037L220.284 283.184L220.288 283.189L220.377 283.33L220.468 283.476L220.468 283.477L220.559 283.625L220.645 283.765L220.65 283.773L220.739 283.921C220.828 284.07 220.916 284.219 221.004 284.369L221.09 284.519L221.102 284.539L221.176 284.669L221.262 284.82C224.396 290.374 226.184 296.786 226.184 303.617C226.184 317.268 219.044 329.251 208.297 336.038C200.734 325.598 198.845 311.503 204.65 299.052C205.397 297.448 206.249 295.923 207.192 294.481L207.191 294.482L207.19 294.481Z" fill="#FF6600"/>
<path id="Vector_66" d="M466.888 326.354C466.896 325.658 467.467 325.101 468.164 325.109C468.86 325.117 469.417 325.688 469.409 326.384C469.305 333.495 467.216 340.449 463.424 346.405C459.758 352.164 454.504 356.994 447.92 360.137L447.816 360.184C438.442 364.627 428.086 364.855 418.958 361.634C409.827 358.412 401.919 351.735 397.448 342.372C388.457 323.499 379.54 304.584 370.586 285.693C368.054 280.395 367.921 274.54 369.746 269.379C371.571 264.216 375.355 259.745 380.657 257.214C390.428 252.508 400.682 247.265 410.556 242.938C415.837 240.438 421.671 240.311 426.813 242.125C431.963 243.943 436.423 247.708 438.943 252.988L449.849 276C450.147 276.631 449.877 277.383 449.246 277.68C448.615 277.978 447.863 277.708 447.566 277.077L436.66 254.075C434.44 249.425 430.51 246.109 425.974 244.507C421.438 242.907 416.294 243.017 411.639 245.218C401.929 250.17 391.585 254.808 381.706 259.515C377.054 261.75 373.733 265.68 372.129 270.218C370.524 274.758 370.636 279.906 372.852 284.57C381.424 303.495 390.782 322.496 399.732 341.283C403.903 350.016 411.279 356.244 419.798 359.25C428.322 362.259 437.99 362.046 446.74 357.899L446.833 357.853C452.982 354.917 457.883 350.414 461.298 345.05C464.841 339.487 466.793 332.994 466.889 326.354L466.888 326.354Z" fill="#D90324"/>
<path id="Vector_67" d="M286.642 100.842C291.108 100.842 294.728 97.2215 294.728 92.7558C294.728 88.2901 291.108 84.6699 286.642 84.6699C282.176 84.6699 278.556 88.2901 278.556 92.7558C278.556 97.2215 282.176 100.842 286.642 100.842Z" stroke="#C2BFFF" stroke-width="2.53103" stroke-miterlimit="22.9256"/>
<path id="Vector_68" d="M303.193 109.571C305.35 109.571 307.099 107.822 307.099 105.664C307.099 103.507 305.35 101.758 303.193 101.758C301.036 101.758 299.287 103.507 299.287 105.664C299.287 107.822 301.036 109.571 303.193 109.571Z" stroke="#C2BFFF" stroke-width="2.53103" stroke-miterlimit="22.9256"/>
<path id="Vector_69" fill-rule="evenodd" clip-rule="evenodd" d="M314.964 331.998L321.978 335.258L306.421 368.644L299.178 365.224C299.782 364.332 300.326 363.382 300.8 362.38L300.853 362.277L314.84 332.271L314.964 331.999V331.998Z" fill="#D90324"/>
<path id="Vector_70" d="M237.392 435.393C237.892 435.879 237.903 436.678 237.417 437.178C236.931 437.677 236.132 437.689 235.633 437.203C230.197 431.887 225.071 426.655 220.418 421.594C215.751 416.517 211.547 411.598 207.965 406.916C200.418 397.051 199.99 384.913 203.337 373.99C205.257 367.722 208.419 361.856 212.184 357.061C214.968 353.516 218.094 350.541 221.305 348.402C221.43 348.599 221.61 348.763 221.836 348.869L223.822 349.8C220.455 351.801 217.123 354.863 214.17 358.623C210.581 363.194 207.57 368.774 205.748 374.721C202.618 384.939 202.989 396.255 209.972 405.384C213.5 409.997 217.656 414.858 222.276 419.884C226.91 424.924 232.001 430.121 237.391 435.393H237.392ZM271.701 372.25C279.78 379.659 287.84 387.877 295.89 396.827C296.357 397.345 296.314 398.145 295.796 398.612C295.277 399.078 294.478 399.036 294.011 398.517C284.484 387.925 274.969 378.386 265.454 370.03C264.865 369.513 264.275 368.999 263.686 368.491L271.702 372.25H271.701ZM340.812 458.31C340.414 457.74 340.553 456.953 341.123 456.555C341.693 456.157 342.48 456.296 342.878 456.866C345.204 460.19 347.444 463.434 349.598 466.596C351.825 469.865 354.069 473.199 356.327 476.596C356.711 477.177 356.552 477.961 355.971 478.346C355.637 478.566 355.238 478.608 354.885 478.494C353.881 478.185 352.903 477.402 351.84 476.553C350.404 475.405 348.769 474.098 347.381 474.353C342.594 475.231 336.988 478.396 331.993 482.404C326.575 486.751 321.928 492.048 319.846 496.477C317.979 500.447 318.799 503.152 319.399 505.133H319.404C320.021 507.172 320.473 508.662 318.835 510.199C318.334 510.671 317.546 510.652 317.067 510.161C309.657 503.47 300.735 495.707 291.283 487.482L285.158 482.15C284.631 481.691 284.576 480.892 285.034 480.365C285.493 479.838 286.292 479.783 286.819 480.241L292.944 485.574C301.622 493.124 309.844 500.279 317.291 506.971C317.218 506.643 317.106 506.272 316.982 505.864L316.987 505.863C316.267 503.489 315.286 500.249 317.562 495.408C319.806 490.636 324.72 485.003 330.411 480.437C335.699 476.193 341.704 472.829 346.926 471.871C348.263 471.626 349.488 471.99 350.62 472.607C349.587 471.073 348.552 469.544 347.513 468.02C345.192 464.614 342.958 461.375 340.813 458.31L340.812 458.31Z" fill="#2B0087"/>
<path id="Vector_71" d="M283.9 297.061C283.27 296.766 282.998 296.016 283.292 295.385C283.587 294.755 284.338 294.482 284.968 294.777L304.381 303.879L304.521 303.94C309.824 306.425 313.636 310.852 315.505 315.986C317.373 321.117 317.3 326.954 314.84 332.264L300.853 362.271L300.8 362.374C298.309 367.643 293.896 371.438 288.785 373.301C283.652 375.172 277.814 375.101 272.508 372.627L272.41 372.577L221.836 348.864C221.205 348.569 220.933 347.818 221.228 347.188C221.522 346.557 222.273 346.285 222.904 346.58L273.48 370.294L273.576 370.334C278.253 372.514 283.401 372.577 287.924 370.928C292.434 369.284 296.327 365.939 298.521 361.296C302.742 351.248 308.175 341.282 312.526 331.241C314.714 326.547 314.784 321.383 313.132 316.847C311.482 312.314 308.109 308.405 303.416 306.217L303.417 306.212L283.9 297.061H283.9Z" fill="#D90324"/>
<g id="Group_4">
<path id="Vector_72" fill-rule="evenodd" clip-rule="evenodd" d="M526.138 476.845C527.94 476.541 529.613 475.516 530.577 473.534C532.835 468.893 532.749 457.108 532.004 446.656C519.508 442.438 524.967 461.812 526.138 476.845Z" fill="#E34326"/>
<path id="Vector_73" fill-rule="evenodd" clip-rule="evenodd" d="M501.904 481.047C497.388 488.279 504.116 492.043 509.449 489.271C512.35 487.763 511.755 476.483 511.068 464.965C510.11 462.795 509.16 460.644 508.369 458.618C506.331 453.4 499.816 446.111 491.359 438.295C489.923 436.968 488.672 435.696 487.568 434.469L487.569 434.471C487.843 434.615 506.42 473.814 501.904 481.046V481.047Z" fill="#E34326"/>
<path id="Vector_74" fill-rule="evenodd" clip-rule="evenodd" d="M468.228 404.709C481.356 416.37 476.267 424.351 491.359 438.3C499.815 446.116 506.331 453.404 508.369 458.623C511.899 467.662 518.592 479.197 515.08 483.752C510.06 490.259 516.199 494.91 521.776 492.68C536.799 486.674 506.835 427.184 541.703 452.143C550.299 458.296 547.655 469.629 543.749 475.953C539.843 482.277 551.748 486.927 555.096 480.045C558.443 473.163 559.318 470.034 557.964 438.428C556.611 406.822 536.792 363.708 535.551 361.182C530.697 351.298 528.747 345.089 524.527 332.428C520.307 319.767 522.144 307.891 517.043 307.411C510.082 306.755 512.95 319.565 519.201 338.543C525.452 357.521 543.529 386.183 535.547 389.252C533.132 390.181 516.959 375.134 490.921 381.272C490.126 381.459 482.895 373.056 473.61 370.444L473.666 370.459C472.151 366.656 455.388 361.36 453.608 365.038C451.81 368.756 456.881 373.874 456.881 373.874L457.046 373.878C456.368 374.423 455.692 375.021 455.019 375.691C451.087 379.606 446.463 392.712 453.81 402.385C459.469 407.28 465.452 405.424 468.226 404.71L468.228 404.709Z" fill="#FF5E40"/>
<path id="Vector_75" d="M455.479 387.394C455.002 386.007 454.897 383.981 456.8 381.84" stroke="#C43016" stroke-width="1.26551" stroke-miterlimit="22.9256" stroke-linecap="round" stroke-linejoin="round"/>
<path id="Vector_76" fill-rule="evenodd" clip-rule="evenodd" d="M458.387 372.872C457.114 371.569 454.136 368.019 455.175 366.659C455.78 365.867 460.865 365.194 466.652 369.757L466.653 369.758C463.944 370.025 461.163 370.972 458.394 372.873L458.387 372.872V372.872Z" fill="#E34326"/>
<path id="Vector_77" d="M460.113 398.771C460.113 398.771 459.804 400.239 458.668 400.424C457.532 400.61 460.329 400.656 459.873 402.765" stroke="#E34326" stroke-width="1.26551" stroke-miterlimit="22.9256" stroke-linecap="round" stroke-linejoin="round"/>
<path id="Vector_78" fill-rule="evenodd" clip-rule="evenodd" d="M456.18 400.915L456.11 399.659C456.11 399.659 454.785 398.961 454.506 397.636C454.226 396.311 452.88 397.288 452.692 398.264C452.503 399.241 451.676 402.037 453.978 402.525C455.512 402.699 456.193 400.985 456.18 400.915Z" fill="#C43016"/>
<path id="Vector_79" d="M495.703 380.361C494.149 380.589 492.554 380.891 490.921 381.275C490.127 381.462 482.895 373.059 473.61 370.447L473.666 370.462C472.151 366.659 455.388 361.363 453.608 365.041C451.81 368.759 456.881 373.877 456.881 373.877L457.046 373.881C456.368 374.426 455.692 375.024 455.019 375.694C451.087 379.609 446.463 392.715 453.81 402.388C459.469 407.283 465.452 405.427 468.226 404.713C480.106 415.264 477.07 422.803 487.567 434.477H487.566L487.568 434.479C487.758 434.579 496.822 453.612 500.786 467.606" stroke="#C43016" stroke-width="1.26551" stroke-miterlimit="22.9256" stroke-linecap="round" stroke-linejoin="round"/>
<path id="Vector_80" d="M539.832 392.646C539.085 390.856 537.342 388.541 535.548 389.255C533.134 390.184 516.96 375.137 490.922 381.275M486.85 433.659C488.12 435.136 489.603 436.679 491.36 438.303C499.816 446.118 506.332 453.407 508.37 458.626C509.224 460.814 510.264 463.148 511.299 465.494L486.85 433.659Z" stroke="#C43016" stroke-width="1.26551" stroke-miterlimit="22.9256" stroke-linecap="round" stroke-linejoin="round"/>
<path id="Vector_81" d="M473.666 370.458L470.848 370.297" stroke="#C43016" stroke-width="1.26551" stroke-miterlimit="22.9256" stroke-linecap="round" stroke-linejoin="round"/>
</g>
<path id="Vector_82" d="M323.489 367.272C331.009 367.272 337.105 361.176 337.105 353.656C337.105 346.135 331.009 340.039 323.489 340.039C315.968 340.039 309.872 346.135 309.872 353.656C309.872 361.176 315.968 367.272 323.489 367.272Z" fill="white" stroke="#241813" stroke-width="2.53103" stroke-miterlimit="22.9256"/>
<path id="Vector_83" d="M324.332 354.081L315.855 350.246" stroke="black" stroke-width="2.10935" stroke-miterlimit="22.9256" stroke-linecap="round" stroke-linejoin="round"/>
<path id="Vector_84" d="M324.333 354.083L322.99 347.471" stroke="black" stroke-width="2.10935" stroke-miterlimit="22.9256" stroke-linecap="round" stroke-linejoin="round"/>
<path id="Vector_85" d="M337.163 243.153C330.639 237.481 326.688 230.66 326.673 224.613" stroke="#D90324" stroke-width="2.53103" stroke-miterlimit="22.9256" stroke-linecap="round" stroke-linejoin="round"/>
<path id="Vector_86" fill-rule="evenodd" clip-rule="evenodd" d="M411.768 490.677C405.497 479.488 388.378 457.624 352.344 477.442C343.182 482.48 337.316 488.438 334.032 494.646C323.094 515.401 343.514 546.753 370.447 539.011L370.798 538.91L370.915 538.877V538.877C380.256 536.163 391.481 529.561 399.949 521.333C407.298 514.192 412.56 505.834 412.679 497.754C412.715 495.383 412.214 493.641 411.889 492.51C411.671 491.757 411.526 491.248 411.65 490.902C411.681 490.815 411.72 490.741 411.768 490.677L411.768 490.677Z" fill="#99CC99"/>
<path id="Vector_87" fill-rule="evenodd" clip-rule="evenodd" d="M323.672 519.134C326.619 520.554 330.376 521.979 336.486 525.78L336.487 525.78C336.762 526.065 337.453 526.43 337.943 526.702L338.441 527.026L338.452 527.033L338.462 527.039C338.691 527.195 338.92 527.355 339.148 527.514C337.722 525.547 336.44 523.445 335.329 521.244C335.109 520.773 334.895 520.311 334.689 519.864C331.472 518.104 328.624 516.939 325.729 515.229C321.597 512.786 321.367 517.763 323.672 519.134ZM412.121 498.509C412.156 495.765 412.213 493.466 411.888 492.125C411.671 491.232 411.525 490.628 411.649 490.238L411.652 490.229L411.655 490.22L411.657 490.215L411.658 490.211L411.662 490.203L411.664 490.194L411.666 490.192L411.668 490.186L411.671 490.177L411.674 490.17V490.169L411.677 490.161L411.681 490.153L411.683 490.149L411.684 490.144L411.688 490.136L411.691 490.129L411.692 490.128L411.695 490.12L411.699 490.113L411.701 490.107L411.702 490.105L411.71 490.089L411.711 490.087L411.718 490.075L411.722 490.067V490.067L411.726 490.059L411.73 490.052L411.732 490.048L411.734 490.044L411.738 490.037L411.743 490.031L411.744 490.029L411.748 490.024L411.752 490.016L411.755 490.011L411.756 490.01L411.761 490.003L411.765 489.996L411.767 489.994L411.769 489.99C416.3 489.737 414.47 503.332 413.894 505.969C410.822 520.063 401.259 530.598 387.365 538.705C380.602 542.652 372.834 544.462 364.529 542.753C360.983 542.023 357.341 540.651 353.64 538.528C378.255 547.682 411.889 516.723 412.122 498.509H412.121Z" fill="#669966"/>
<path id="Vector_88" d="M340.474 486.098C337.331 489.21 333.793 494.473 332.358 498.413C325.14 518.42 344.945 546.266 370.798 538.907C386.836 534.376 402.133 522.396 408.643 508.477C411.365 502.657 412.149 495.677 411.029 489.395" stroke="#669966" stroke-width="2.53103" stroke-miterlimit="22.9256" stroke-linecap="round" stroke-linejoin="round"/>
<path id="Vector_89" fill-rule="evenodd" clip-rule="evenodd" d="M160.69 438.708C172.066 429.032 197.444 431.07 204.801 444.536C224.89 481.305 202.092 523.682 176.341 503.375L176.057 503.152L175.962 503.078V503.078C168.434 497.1 161.01 486.402 156.988 474.914C153.497 464.944 152.575 454.391 156.387 445.85C157.506 443.343 158.827 441.678 159.684 440.596C160.256 439.877 160.641 439.39 160.692 438.984C160.704 438.883 160.703 438.792 160.689 438.708H160.69Z" fill="#99CC99"/>
<path id="Vector_90" fill-rule="evenodd" clip-rule="evenodd" d="M228.45 502.106C225.262 502.159 210.01 501.905 202.627 502.714C203.91 501.389 205.093 499.866 206.161 498.177L206.178 498.162C209.836 497.913 224.875 498.038 228.22 497.698C232.996 497.214 231.118 501.828 228.451 502.106H228.45ZM156.389 445.854C157.508 443.348 158.828 441.682 159.686 440.601C160.258 439.881 160.643 439.395 160.693 438.988L160.694 438.978L160.696 438.969L160.696 438.965V438.964L160.697 438.96L160.698 438.95L160.698 438.942V438.94L160.699 438.937L160.699 438.933L160.7 438.923V438.919L160.701 438.916V438.915L160.701 438.906L160.702 438.901V438.897V438.896V438.893L160.702 438.892V438.89V438.888H160.703V438.883V438.879V438.878V438.874V438.869V438.865L160.703 438.861V438.86V438.856V438.851V438.847V438.845V438.843V438.839L160.703 438.834V438.83V438.825L160.702 438.823V438.817V438.813L160.702 438.809V438.808V438.804L160.701 438.8V438.799V438.795L160.701 438.791L160.7 438.783L160.7 438.778V438.774H160.699V438.77L160.699 438.766L160.698 438.758L160.698 438.756V438.753L160.697 438.749H160.697L160.696 438.742L160.694 438.735V438.734L160.694 438.73L160.693 438.725L160.692 438.718L160.691 438.715L160.69 438.71C159.681 438.174 156.163 440.493 154.968 443.516C150.977 450.966 149.482 461.623 150.848 472.151C151.883 480.12 154.556 488.027 159.027 494.423C163.512 500.842 169.805 505.742 178.061 507.672C181.042 508.369 184.279 508.678 187.777 508.53C166.546 506.063 147.435 465.91 156.388 445.852L156.389 445.854Z" fill="#669966"/>
<path id="Vector_91" d="M357.383 201.633C358.514 201.043 360.26 201.042 363.285 199.772C366.31 198.502 371.424 196.163 373.975 198.189C375.023 199.018 373.747 201.04 372.635 200.156C371.423 199.193 367.315 201.501 364.783 202.562C362.251 203.623 360.498 203.556 359.833 203.862C358.374 204.446 355.36 202.689 357.382 201.633H357.383Z" fill="black"/>
<path id="Vector_92" d="M407.17 490.496C406.698 490.654 409.897 506.019 395.873 517.186" stroke="#669966" stroke-width="1.26551" stroke-miterlimit="22.9256" stroke-linecap="round" stroke-linejoin="round"/>
<path id="Vector_93" d="M160.672 470.162C161.078 469.876 153.599 456.078 163.823 441.352" stroke="#669966" stroke-width="1.26551" stroke-miterlimit="22.9256" stroke-linecap="round" stroke-linejoin="round"/>
<path id="Vector_94" d="M204.801 444.54C224.89 481.308 202.092 523.685 176.341 503.378L176.057 503.156L175.962 503.082V503.081C168.434 497.104 161.01 486.405 156.988 474.917C153.497 464.947 152.575 454.394 156.387 445.853C157.506 443.347 159.33 440.497 160.699 438.904" stroke="#669966" stroke-width="2.53103" stroke-miterlimit="22.9256" stroke-linecap="round" stroke-linejoin="round"/>
</g>
</g>
<defs>
<clipPath id="clip0_1106_6272">
<rect width="593" height="576.886" fill="white"/>
</clipPath>
</defs>
</svg>
