<svg width="461" height="475" viewBox="0 0 461 475" fill="none" xmlns="http://www.w3.org/2000/svg">
<g id="Frame 45">
<g id="Frame 1" clip-path="url(#clip0_1324_6827)">
<path id="Rectangle 7" d="M2.86058 6.96489C1.49642 3.64345 3.93879 0 7.52945 0H453.364C457.085 0 459.527 3.88813 457.911 7.23937L433.01 58.8856C431.327 62.3769 427.793 64.5962 423.917 64.5962H33.2974C29.2036 64.5962 25.5151 62.1236 23.9597 58.3367L2.86058 6.96489Z" fill="#CE42FF"/>
<path id="&#208;&#159;&#208;&#190;&#208;&#184;&#209;&#129;&#208;&#186;" d="M215.128 26.4261H206.366V38.1709H207.788V27.6878H213.706V38.1709H215.128V26.4261ZM221.392 38.3544C223.778 38.3544 225.383 36.5422 225.383 33.8125C225.383 31.0598 223.778 29.2476 221.392 29.2476C219.006 29.2476 217.401 31.0598 217.401 33.8125C217.401 36.5422 219.006 38.3544 221.392 38.3544ZM221.392 37.1386C219.58 37.1386 218.754 35.5788 218.754 33.8125C218.754 32.0462 219.58 30.4634 221.392 30.4634C223.204 30.4634 224.03 32.0462 224.03 33.8125C224.03 35.5788 223.204 37.1386 221.392 37.1386ZM228.803 36.1752V29.3623H227.449V38.1709H229.032L233.253 31.358V38.1709H234.606V29.3623H233.046L228.803 36.1752ZM240.664 38.3544C242.613 38.3544 243.898 37.1616 244.127 35.6017H242.774C242.522 36.5652 241.719 37.1386 240.664 37.1386C239.058 37.1386 238.026 35.8082 238.026 33.7666C238.026 31.7709 239.081 30.4634 240.664 30.4634C241.856 30.4634 242.568 31.1974 242.774 32.0003H244.127C243.898 30.3487 242.499 29.2476 240.641 29.2476C238.255 29.2476 236.672 31.1286 236.672 33.8125C236.672 36.4505 238.186 38.3544 240.664 38.3544ZM246.106 38.1709H247.459V34.4548H248.675L251.565 38.1709H253.309L249.707 33.606L253.263 29.3623H251.52L248.354 33.1931H247.459V29.3623H246.106V38.1709Z" fill="white"/>
</g>
<g id="Frame 1_2" clip-path="url(#clip1_1324_6827)">
<path id="Rectangle 8" d="M43.023 95.9934C40.3044 89.1756 45.3264 81.7666 52.6662 81.7666H407.391C414.708 81.7666 419.729 89.1318 417.055 95.942L399.846 139.775C398.286 143.749 394.452 146.363 390.183 146.363H70.1447C65.8956 146.363 62.0754 143.773 60.5016 139.826L43.023 95.9934Z" fill="#2998FF"/>
<path id="&#208;&#159;&#209;&#128;&#208;&#190;&#209;&#129;&#208;&#188;&#208;&#190;&#209;&#130;&#209;&#128;" d="M197.968 108.192H189.205V119.937H190.628V109.453H196.546V119.937H197.968V108.192ZM200.653 123.24H202.007V118.583H202.121C202.42 119.065 202.993 120.12 204.691 120.12C206.893 120.12 208.43 118.354 208.43 115.555C208.43 112.78 206.893 111.013 204.668 111.013C202.947 111.013 202.42 112.068 202.121 112.527H201.961V111.128H200.653V123.24ZM201.984 115.532C201.984 113.559 202.856 112.229 204.507 112.229C206.228 112.229 207.076 113.674 207.076 115.532C207.076 117.413 206.205 118.904 204.507 118.904C202.878 118.904 201.984 117.528 201.984 115.532ZM214.073 120.12C216.458 120.12 218.064 118.308 218.064 115.578C218.064 112.825 216.458 111.013 214.073 111.013C211.687 111.013 210.081 112.825 210.081 115.578C210.081 118.308 211.687 120.12 214.073 120.12ZM214.073 118.904C212.261 118.904 211.435 117.344 211.435 115.578C211.435 113.812 212.261 112.229 214.073 112.229C215.885 112.229 216.711 113.812 216.711 115.578C216.711 117.344 215.885 118.904 214.073 118.904ZM223.708 120.12C225.658 120.12 226.943 118.927 227.172 117.367H225.819C225.567 118.331 224.764 118.904 223.708 118.904C222.103 118.904 221.071 117.574 221.071 115.532C221.071 113.537 222.126 112.229 223.708 112.229C224.901 112.229 225.612 112.963 225.819 113.766H227.172C226.943 112.114 225.544 111.013 223.686 111.013C221.3 111.013 219.717 112.894 219.717 115.578C219.717 118.216 221.231 120.12 223.708 120.12ZM233.968 118.101L230.94 111.128H229.151V119.937H230.504V113.072L233.417 119.937H234.518L237.432 113.198V119.937H238.785V111.128H237.042L233.968 118.101ZM244.841 120.12C247.227 120.12 248.832 118.308 248.832 115.578C248.832 112.825 247.227 111.013 244.841 111.013C242.455 111.013 240.85 112.825 240.85 115.578C240.85 118.308 242.455 120.12 244.841 120.12ZM244.841 118.904C243.029 118.904 242.203 117.344 242.203 115.578C242.203 113.812 243.029 112.229 244.841 112.229C246.653 112.229 247.479 113.812 247.479 115.578C247.479 117.344 246.653 118.904 244.841 118.904ZM249.747 112.39H252.66V119.937H254.014V112.39H256.904V111.128H249.747V112.39ZM258.878 123.24H260.232V118.583H260.346C260.645 119.065 261.218 120.12 262.916 120.12C265.118 120.12 266.655 118.354 266.655 115.555C266.655 112.78 265.118 111.013 262.893 111.013C261.172 111.013 260.645 112.068 260.346 112.527H260.186V111.128H258.878V123.24ZM260.209 115.532C260.209 113.559 261.08 112.229 262.732 112.229C264.452 112.229 265.301 113.674 265.301 115.532C265.301 117.413 264.429 118.904 262.732 118.904C261.103 118.904 260.209 117.528 260.209 115.532Z" fill="white"/>
</g>
<g id="Frame 1_3" clip-path="url(#clip2_1324_6827)">
<path id="Rectangle 9" d="M75.0663 175.865C72.92 169.855 77.3752 163.533 83.7567 163.533H377.523C383.78 163.533 388.223 169.628 386.309 175.585L371.478 221.725C370.251 225.541 366.701 228.129 362.693 228.129H100.235C96.3355 228.129 92.8566 225.678 91.5449 222.005L75.0663 175.865Z" fill="#59CB4B"/>
<path id="&#208;&#158;&#209;&#130;&#208;&#186;&#208;&#187;&#208;&#184;&#208;&#186;" d="M210.197 195.831C210.197 192.115 208.017 189.798 205.012 189.798C202.007 189.798 199.828 192.115 199.828 195.831C199.828 199.547 202.007 201.864 205.012 201.864C208.017 201.864 210.197 199.547 210.197 195.831ZM208.82 195.831C208.82 198.882 207.146 200.533 205.012 200.533C202.879 200.533 201.205 198.882 201.205 195.831C201.205 192.78 202.879 191.128 205.012 191.128C207.146 191.128 208.82 192.78 208.82 195.831ZM211.9 194.156H214.813V201.703H216.166V194.156H219.057V192.895H211.9V194.156ZM221.031 201.703H222.384V197.987H223.6L226.49 201.703H228.234L224.632 197.138L228.188 192.895H226.445L223.279 196.725H222.384V192.895H221.031V201.703ZM228.925 201.703H229.384C231.333 201.703 231.895 200.189 232.022 197.299L232.159 194.156H235.394V201.703H236.747V192.895H230.875L230.714 196.794C230.599 199.753 230.301 200.441 229.246 200.441H228.925V201.703ZM240.584 199.707V192.895H239.23V201.703H240.813L245.034 194.89V201.703H246.387V192.895H244.827L240.584 199.707ZM248.866 201.703H250.219V197.987H251.435L254.325 201.703H256.069L252.467 197.138L256.023 192.895H254.28L251.114 196.725H250.219V192.895H248.866V201.703Z" fill="white"/>
</g>
<g id="Frame 1_4" clip-path="url(#clip3_1324_6827)">
<path id="Rectangle 10" d="M102.618 256.5C100.385 251.179 104.292 245.301 110.063 245.301H351.828C357.703 245.301 361.611 251.375 359.177 256.722L337.116 305.169C335.805 308.049 332.932 309.897 329.767 309.897H130.394C127.141 309.897 124.206 307.946 122.948 304.947L102.618 256.5Z" fill="#FFC311"/>
<path id="&#208;&#159;&#209;&#128;&#208;&#184;&#208;&#179;&#208;&#187;&#208;&#176;&#209;&#136;&#208;&#181;&#208;&#189;&#208;&#184;&#208;&#181;" d="M184.845 270.715H176.082V282.46H177.505V271.977H183.423V282.46H184.845V270.715ZM187.53 285.763H188.884V281.107H188.998C189.297 281.588 189.87 282.643 191.568 282.643C193.77 282.643 195.307 280.877 195.307 278.079C195.307 275.303 193.77 273.537 191.545 273.537C189.824 273.537 189.297 274.592 188.998 275.051H188.838V273.651H187.53V285.763ZM188.861 278.056C188.861 276.083 189.732 274.752 191.384 274.752C193.105 274.752 193.953 276.198 193.953 278.056C193.953 279.937 193.082 281.428 191.384 281.428C189.755 281.428 188.861 280.051 188.861 278.056ZM198.725 280.464V273.651H197.371V282.46H198.954L203.175 275.647V282.46H204.528V273.651H202.968L198.725 280.464ZM212.444 273.651H207.007V282.46H208.36V274.913H212.444V273.651ZM212.898 282.46H213.357C215.307 282.46 215.869 280.946 215.995 278.056L216.132 274.913H219.367V282.46H220.72V273.651H214.848L214.687 277.551C214.573 280.51 214.274 281.198 213.219 281.198H212.898V282.46ZM225.795 282.666C227.332 282.666 228.135 281.841 228.41 281.267H228.479V282.46H229.833V276.656C229.833 273.858 227.699 273.537 226.575 273.537C225.245 273.537 223.731 273.995 223.043 275.601L224.327 276.06C224.626 275.418 225.331 274.73 226.621 274.73C227.866 274.73 228.479 275.389 228.479 276.519V276.565C228.479 277.218 227.814 277.161 226.208 277.368C224.574 277.58 222.79 277.941 222.79 279.96C222.79 281.68 224.121 282.666 225.795 282.666ZM226.002 281.451C224.924 281.451 224.144 280.969 224.144 280.028C224.144 278.996 225.084 278.675 226.14 278.537C226.713 278.469 228.25 278.308 228.479 278.033V279.271C228.479 280.373 227.608 281.451 226.002 281.451ZM232.303 273.651V282.46H243.015V273.651H241.662V281.198H238.336V273.651H236.982V281.198H233.656V273.651H232.303ZM249.18 282.643C250.97 282.643 252.277 281.749 252.69 280.418L251.382 280.051C251.038 280.969 250.241 281.428 249.18 281.428C247.592 281.428 246.496 280.401 246.433 278.514H252.828V277.941C252.828 274.661 250.878 273.537 249.043 273.537C246.657 273.537 245.074 275.418 245.074 278.124C245.074 280.831 246.634 282.643 249.18 282.643ZM246.433 277.345C246.525 275.974 247.494 274.752 249.043 274.752C250.511 274.752 251.451 275.854 251.451 277.345H246.433ZM256.24 273.651H254.886V282.46H256.24V278.698H260.461V282.46H261.814V273.651H260.461V277.436H256.24V273.651ZM265.639 280.464V273.651H264.286V282.46H265.868L270.089 275.647V282.46H271.443V273.651H269.883L265.639 280.464ZM277.615 282.643C279.404 282.643 280.711 281.749 281.124 280.418L279.817 280.051C279.473 280.969 278.676 281.428 277.615 281.428C276.026 281.428 274.931 280.401 274.868 278.514H281.262V277.941C281.262 274.661 279.312 273.537 277.477 273.537C275.091 273.537 273.509 275.418 273.509 278.124C273.509 280.831 275.068 282.643 277.615 282.643ZM274.868 277.345C274.959 275.974 275.929 274.752 277.477 274.752C278.945 274.752 279.886 275.854 279.886 277.345H274.868Z" fill="white"/>
</g>
<g id="Frame 1_5" clip-path="url(#clip4_1324_6827)">
<path id="Rectangle 11" d="M125.448 336.316C123.838 331.809 127.179 327.067 131.965 327.067H328.507C333.476 327.067 336.826 332.148 334.869 336.715L313.117 387.469C312.026 390.014 309.524 391.664 306.755 391.664H150.092C147.167 391.664 144.558 389.825 143.574 387.07L125.448 336.316Z" fill="#F8883C"/>
<path id="&#208;&#161;&#208;&#190;&#208;&#177;&#208;&#181;&#209;&#129;&#208;&#181;&#208;&#180;&#208;&#190;&#208;&#178;&#208;&#176;&#208;&#189;&#208;&#184;&#208;&#181;" d="M176.829 357.162C176.393 354.753 174.466 353.331 172.104 353.331C169.099 353.331 166.919 355.648 166.919 359.364C166.919 363.08 169.099 365.397 172.104 365.397C174.466 365.397 176.393 363.975 176.829 361.566H175.407C175.063 363.195 173.664 364.066 172.104 364.066C169.97 364.066 168.296 362.415 168.296 359.364C168.296 356.313 169.97 354.661 172.104 354.661C173.664 354.661 175.063 355.533 175.407 357.162H176.829ZM182.522 365.42C184.908 365.42 186.514 363.608 186.514 360.878C186.514 358.125 184.908 356.313 182.522 356.313C180.137 356.313 178.531 358.125 178.531 360.878C178.531 363.608 180.137 365.42 182.522 365.42ZM182.522 364.204C180.71 364.204 179.884 362.644 179.884 360.878C179.884 359.112 180.71 357.529 182.522 357.529C184.334 357.529 185.16 359.112 185.16 360.878C185.16 362.644 184.334 364.204 182.522 364.204ZM195.117 353.125C194.687 353.486 194.045 353.486 193.144 353.48C192.852 353.48 192.531 353.48 192.181 353.492C189.497 353.56 188.167 355.602 188.167 359.525V360.465C188.167 363.722 189.75 365.42 192.112 365.42C194.469 365.42 196.035 363.711 196.035 360.947C196.035 358.171 194.446 356.703 192.387 356.703C191.177 356.703 190.048 357.208 189.451 358.309H189.337C189.52 356.038 190.369 354.822 192.204 354.753C193.833 354.684 195.003 354.73 195.805 353.95L195.117 353.125ZM192.112 364.204C190.506 364.204 189.52 362.919 189.52 360.947C189.549 359.02 190.518 357.919 192.089 357.919C193.701 357.919 194.681 359.02 194.681 360.947C194.681 362.931 193.706 364.204 192.112 364.204ZM201.798 365.42C203.587 365.42 204.895 364.525 205.308 363.195L204 362.828C203.656 363.745 202.859 364.204 201.798 364.204C200.21 364.204 199.114 363.178 199.051 361.291H205.446V360.717C205.446 357.437 203.496 356.313 201.661 356.313C199.275 356.313 197.692 358.194 197.692 360.901C197.692 363.608 199.252 365.42 201.798 365.42ZM199.051 360.121C199.143 358.75 200.112 357.529 201.661 357.529C203.129 357.529 204.069 358.63 204.069 360.121H199.051ZM211.083 365.42C213.033 365.42 214.317 364.227 214.547 362.667H213.193C212.941 363.631 212.138 364.204 211.083 364.204C209.477 364.204 208.445 362.874 208.445 360.832C208.445 358.836 209.5 357.529 211.083 357.529C212.276 357.529 212.987 358.263 213.193 359.066H214.547C214.317 357.414 212.918 356.313 211.06 356.313C208.674 356.313 207.091 358.194 207.091 360.878C207.091 363.516 208.605 365.42 211.083 365.42ZM220.218 365.42C222.007 365.42 223.315 364.525 223.728 363.195L222.42 362.828C222.076 363.745 221.279 364.204 220.218 364.204C218.63 364.204 217.534 363.178 217.471 361.291H223.866V360.717C223.866 357.437 221.916 356.313 220.081 356.313C217.695 356.313 216.112 358.194 216.112 360.901C216.112 363.608 217.672 365.42 220.218 365.42ZM217.471 360.121C217.563 358.75 218.532 357.529 220.081 357.529C221.549 357.529 222.489 358.63 222.489 360.121H217.471ZM224.984 367.76H226.337V365.236H232.852V367.76H234.205V363.975H232.852V356.428H227.255L226.957 359.914C226.744 362.38 226.429 363.229 225.718 363.975H224.984V367.76ZM227.255 363.975C227.874 363.16 228.098 361.755 228.287 359.914L228.516 357.689H231.498V363.975H227.255ZM239.58 365.42C241.966 365.42 243.572 363.608 243.572 360.878C243.572 358.125 241.966 356.313 239.58 356.313C237.194 356.313 235.589 358.125 235.589 360.878C235.589 363.608 237.194 365.42 239.58 365.42ZM239.58 364.204C237.768 364.204 236.942 362.644 236.942 360.878C236.942 359.112 237.768 357.529 239.58 357.529C241.392 357.529 242.218 359.112 242.218 360.878C242.218 362.644 241.392 364.204 239.58 364.204ZM245.637 365.236H249.789C251.579 365.236 252.657 364.227 252.657 362.874C252.657 361.492 251.607 360.746 250.638 360.603C251.63 360.396 252.336 359.84 252.336 358.768C252.336 357.363 251.131 356.428 249.239 356.428H245.637V365.236ZM246.922 363.998V361.291H249.789C250.718 361.291 251.28 361.847 251.28 362.759C251.28 363.527 250.718 363.998 249.789 363.998H246.922ZM246.922 360.121V357.666H249.239C250.323 357.666 250.982 358.12 250.982 358.859C250.982 359.645 250.323 360.121 249.239 360.121H246.922ZM257.298 365.443C258.835 365.443 259.637 364.617 259.913 364.044H259.981V365.236H261.335V359.433C261.335 356.634 259.202 356.313 258.078 356.313C256.747 356.313 255.233 356.772 254.545 358.378L255.83 358.836C256.128 358.194 256.833 357.506 258.123 357.506C259.368 357.506 259.981 358.165 259.981 359.295V359.341C259.981 359.995 259.316 359.937 257.711 360.144C256.076 360.356 254.293 360.717 254.293 362.736C254.293 364.456 255.623 365.443 257.298 365.443ZM257.504 364.227C256.426 364.227 255.646 363.745 255.646 362.805C255.646 361.773 256.587 361.451 257.642 361.314C258.215 361.245 259.752 361.084 259.981 360.809V362.048C259.981 363.149 259.11 364.227 257.504 364.227ZM265.159 356.428H263.805V365.236H265.159V361.474H269.379V365.236H270.733V356.428H269.379V360.213H265.159V356.428ZM274.558 363.241V356.428H273.204V365.236H274.787L279.008 358.423V365.236H280.361V356.428H278.801L274.558 363.241ZM286.533 365.42C288.323 365.42 289.63 364.525 290.043 363.195L288.736 362.828C288.391 363.745 287.594 364.204 286.533 364.204C284.945 364.204 283.849 363.178 283.786 361.291H290.181V360.717C290.181 357.437 288.231 356.313 286.396 356.313C284.01 356.313 282.427 358.194 282.427 360.901C282.427 363.608 283.987 365.42 286.533 365.42ZM283.786 360.121C283.878 358.75 284.847 357.529 286.396 357.529C287.864 357.529 288.804 358.63 288.804 360.121H283.786Z" fill="white"/>
</g>
<g id="Frame 1_6" clip-path="url(#clip5_1324_6827)">
<path id="Rectangle 12" d="M152.879 417.286C151.465 413.515 154.252 409.493 158.279 409.493H303.263C307.251 409.493 310.036 413.444 308.694 417.201L289.744 470.262C288.924 472.557 286.75 474.089 284.312 474.089H178.177C175.773 474.089 173.621 472.598 172.777 470.347L152.879 417.286Z" fill="#FF0628"/>
<path id="&#208;&#157;&#208;&#176;&#208;&#181;&#208;&#188;" d="M209.928 447.664H211.35V442.411H217.612V447.664H219.034V435.919H217.612V441.149H211.35V435.919H209.928V447.664ZM224.29 447.871C225.827 447.871 226.63 447.045 226.905 446.471H226.974V447.664H228.328V441.861C228.328 439.062 226.194 438.741 225.07 438.741C223.74 438.741 222.226 439.2 221.538 440.805L222.822 441.264C223.12 440.622 223.826 439.934 225.116 439.934C226.36 439.934 226.974 440.593 226.974 441.723V441.769C226.974 442.423 226.309 442.365 224.703 442.572C223.069 442.784 221.285 443.145 221.285 445.164C221.285 446.884 222.616 447.871 224.29 447.871ZM224.497 446.655C223.419 446.655 222.639 446.173 222.639 445.233C222.639 444.2 223.579 443.879 224.634 443.741C225.208 443.673 226.745 443.512 226.974 443.237V444.476C226.974 445.577 226.102 446.655 224.497 446.655ZM234.491 447.848C236.28 447.848 237.588 446.953 238.001 445.622L236.693 445.255C236.349 446.173 235.552 446.632 234.491 446.632C232.902 446.632 231.807 445.605 231.744 443.719H238.138V443.145C238.138 439.865 236.188 438.741 234.353 438.741C231.968 438.741 230.385 440.622 230.385 443.329C230.385 446.035 231.945 447.848 234.491 447.848ZM231.744 442.549C231.836 441.178 232.805 439.957 234.353 439.957C235.821 439.957 236.762 441.058 236.762 442.549H231.744ZM245.014 445.829L241.986 438.855H240.197V447.664H241.55V440.8L244.464 447.664H245.565L248.478 440.926V447.664H249.831V438.855H248.088L245.014 445.829Z" fill="white"/>
</g>
</g>
<defs>
<clipPath id="clip0_1324_6827">
<rect width="461.325" height="63.5962" fill="white"/>
</clipPath>
<clipPath id="clip1_1324_6827">
<rect width="384.606" height="63.5962" fill="white" transform="translate(37.3501 81.7666)"/>
</clipPath>
<clipPath id="clip2_1324_6827">
<rect width="318.991" height="63.5962" fill="white" transform="translate(70.6621 163.533)"/>
</clipPath>
<clipPath id="clip3_1324_6827">
<rect width="265.489" height="63.5962" fill="white" transform="translate(97.918 245.301)"/>
</clipPath>
<clipPath id="clip4_1324_6827">
<rect width="216.025" height="63.5962" fill="white" transform="translate(122.145 327.067)"/>
</clipPath>
<clipPath id="clip5_1324_6827">
<rect width="161.49" height="64.5962" fill="white" transform="translate(149.957 409.493)"/>
</clipPath>
</defs>
</svg>
