<svg width="535" height="640" viewBox="0 0 535 640" fill="none" xmlns="http://www.w3.org/2000/svg">
<g opacity="0.2">
<path opacity="0.55" d="M372.364 22.8363L409.614 8.36322C396.594 11.489 384.062 16.3582 372.364 22.8363Z" fill="url(#paint0_linear_1324_6801)"/>
<path opacity="0.55" d="M457.062 8.21229L317.587 62.377C315.389 64.3186 313.206 66.2914 311.036 68.2955L462.042 9.6438C460.464 9.13171 458.811 8.65064 457.062 8.21229Z" fill="url(#paint1_linear_1324_6801)"/>
<path opacity="0.55" d="M479.867 20.972L279.591 98.7056L274.347 104.038L481.823 23.473C481.2 22.7019 480.553 21.8253 479.867 20.972Z" fill="url(#paint2_linear_1324_6801)"/>
<path opacity="0.55" d="M487.581 39.5647L246.209 133.281L241.045 138.632L488.063 42.7098C487.914 41.6588 487.75 40.604 487.581 39.5647Z" fill="url(#paint3_linear_1324_6801)"/>
<path opacity="0.55" d="M489.223 60.4762L210.36 168.753C208.122 170.807 205.934 172.795 203.797 174.718L489.334 63.8274C489.312 62.6752 489.261 61.5659 489.223 60.4762Z" fill="url(#paint4_linear_1324_6801)"/>
<path opacity="0.55" d="M490.493 81.4063L144.626 215.691C139.645 218.763 134.655 221.826 129.656 224.882L490.959 84.614C490.748 83.5472 490.607 82.465 490.493 81.4063Z" fill="url(#paint5_linear_1324_6801)"/>
<path opacity="0.55" d="M493.793 101.567L66.2906 267.579C63.8269 269.597 61.4076 271.661 59.0329 273.768L494.433 104.685C494.213 103.65 493.993 102.614 493.793 101.567Z" fill="url(#paint6_linear_1324_6801)"/>
<path opacity="0.55" d="M498.34 121.379L32.1314 302.379C30.997 303.923 29.8783 305.47 28.8029 307.045L499.067 124.419C498.855 123.419 498.596 122.407 498.34 121.379Z" fill="url(#paint7_linear_1324_6801)"/>
<path opacity="0.55" d="M503.651 140.952L15.6045 330.469C15.0229 331.819 14.4609 333.157 13.9148 334.499L504.532 143.981L503.651 140.952Z" fill="url(#paint8_linear_1324_6801)"/>
<path opacity="0.55" d="M509.336 160.396L7.11331 355.432C6.80031 356.649 6.48329 357.883 6.26077 359.14L510.233 163.429C509.922 162.421 509.627 161.416 509.336 160.396Z" fill="url(#paint9_linear_1324_6801)"/>
<path opacity="0.55" d="M514.962 179.886L2.92733 378.727C2.7919 379.906 2.66047 381.069 2.54079 382.252L515.808 182.923L514.962 179.886Z" fill="url(#paint10_linear_1324_6801)"/>
<path opacity="0.55" d="M520.126 199.548L1.23671 401.058C1.19607 402.194 1.17114 403.334 1.14626 404.475L520.873 202.643L520.126 199.548Z" fill="url(#paint11_linear_1324_6801)"/>
<path opacity="0.55" d="M524.429 219.562L1.08504 422.813C1.11944 423.919 1.13409 425.036 1.16448 426.157L525.006 222.731C524.81 221.668 524.61 220.621 524.429 219.562Z" fill="url(#paint12_linear_1324_6801)"/>
<path opacity="0.55" d="M527.458 240.036L1.76428 444.21L1.90678 447.569L527.798 243.345C527.7 242.224 527.56 241.142 527.458 240.036Z" fill="url(#paint13_linear_1324_6801)"/>
<path opacity="0.55" d="M529.352 261.005L2.80927 465.481L3.01903 468.774L529.519 264.27L529.352 261.005Z" fill="url(#paint14_linear_1324_6801)"/>
<path opacity="0.55" d="M530.157 282.363L4.35617 486.559L4.68049 489.798L530.161 285.737C530.166 284.608 530.172 283.48 530.157 282.363Z" fill="url(#paint15_linear_1324_6801)"/>
<path opacity="0.55" d="M529.619 304.246L6.83935 507.256C7.00006 508.326 7.16484 509.381 7.34531 510.44L529.402 307.698C529.479 306.554 529.559 305.394 529.619 304.246Z" fill="url(#paint16_linear_1324_6801)"/>
<path opacity="0.55" d="M527.483 326.741L10.6142 527.428L11.3649 530.508L526.97 330.302C527.141 329.115 527.327 327.932 527.483 326.741Z" fill="url(#paint17_linear_1324_6801)"/>
<path opacity="0.55" d="M523.32 350.009L16.3549 546.93C16.7052 547.915 17.0752 548.888 17.4453 549.862L522.463 353.732C522.765 352.495 523.046 351.269 523.32 350.009Z" fill="url(#paint18_linear_1324_6801)"/>
<path opacity="0.55" d="M516.519 374.341L24.4138 565.5C24.9102 566.439 25.4143 567.413 25.9464 568.277L515.169 378.224C515.632 376.944 516.083 375.645 516.519 374.341Z" fill="url(#paint19_linear_1324_6801)"/>
<path opacity="0.55" d="M506.018 400.088L35.6647 582.743L37.7582 585.295L503.957 404.257C504.665 402.873 505.42 401.5 506.018 400.088Z" fill="url(#paint20_linear_1324_6801)"/>
<path opacity="0.55" d="M489.873 428.021L51.0535 598.427C51.9961 599.195 52.9585 599.952 53.9249 600.693L486.679 432.621C487.758 431.097 488.837 429.573 489.873 428.021Z" fill="url(#paint21_linear_1324_6801)"/>
<path opacity="0.55" d="M464.492 459.592L72.2757 611.824C73.5894 612.452 74.9072 613.065 76.2488 613.651L459.343 464.948C461.106 463.114 462.82 461.334 464.492 459.592Z" fill="url(#paint22_linear_1324_6801)"/>
<path opacity="0.55" d="M421.196 497.961L102.466 621.742C104.423 622.149 106.377 622.506 108.354 622.836L411.534 505.093C414.785 502.751 418.006 500.373 421.196 497.961Z" fill="url(#paint23_linear_1324_6801)"/>
<path opacity="0.55" d="M324.578 556.995L152.043 624.008C156.289 623.621 160.514 623.102 164.716 622.449L298.378 570.549C307.086 566.108 315.819 561.589 324.578 556.995Z" fill="url(#paint24_linear_1324_6801)"/>
</g>
<defs>
<linearGradient id="paint0_linear_1324_6801" x1="379.881" y1="2.28857" x2="408.573" y2="29.3214" gradientUnits="userSpaceOnUse">
<stop stop-color="#6934DD"/>
<stop offset="1" stop-color="#FF0431"/>
</linearGradient>
<linearGradient id="paint1_linear_1324_6801" x1="341.546" y1="-15.1458" x2="457.987" y2="94.4075" gradientUnits="userSpaceOnUse">
<stop stop-color="#6934DD"/>
<stop offset="1" stop-color="#FF0431"/>
</linearGradient>
<linearGradient id="paint2_linear_1324_6801" x1="316.664" y1="-12.1436" x2="477.95" y2="137.959" gradientUnits="userSpaceOnUse">
<stop stop-color="#6934DD"/>
<stop offset="1" stop-color="#FF0431"/>
</linearGradient>
<linearGradient id="paint3_linear_1324_6801" x1="291.571" y1="-0.251601" x2="484.062" y2="178.303" gradientUnits="userSpaceOnUse">
<stop stop-color="#6934DD"/>
<stop offset="1" stop-color="#FF0431"/>
</linearGradient>
<linearGradient id="paint4_linear_1324_6801" x1="262.165" y1="14.3205" x2="484.553" y2="220.755" gradientUnits="userSpaceOnUse">
<stop stop-color="#6934DD"/>
<stop offset="1" stop-color="#FF0431"/>
</linearGradient>
<linearGradient id="paint5_linear_1324_6801" x1="203.248" y1="22.9498" x2="483.791" y2="284.458" gradientUnits="userSpaceOnUse">
<stop stop-color="#6934DD"/>
<stop offset="1" stop-color="#FF0431"/>
</linearGradient>
<linearGradient id="paint6_linear_1324_6801" x1="147.552" y1="31.058" x2="485.092" y2="346.36" gradientUnits="userSpaceOnUse">
<stop stop-color="#6934DD"/>
<stop offset="1" stop-color="#FF0431"/>
</linearGradient>
<linearGradient id="paint7_linear_1324_6801" x1="124.334" y1="45.1939" x2="488.654" y2="385.824" gradientUnits="userSpaceOnUse">
<stop stop-color="#6934DD"/>
<stop offset="1" stop-color="#FF0431"/>
</linearGradient>
<linearGradient id="paint8_linear_1324_6801" x1="113.538" y1="61.4788" x2="493.488" y2="416.899" gradientUnits="userSpaceOnUse">
<stop stop-color="#6934DD"/>
<stop offset="1" stop-color="#FF0431"/>
</linearGradient>
<linearGradient id="paint9_linear_1324_6801" x1="108.491" y1="78.7272" x2="498.765" y2="443.936" gradientUnits="userSpaceOnUse">
<stop stop-color="#6934DD"/>
<stop offset="1" stop-color="#FF0431"/>
</linearGradient>
<linearGradient id="paint10_linear_1324_6801" x1="106.285" y1="96.5984" x2="503.871" y2="468.956" gradientUnits="userSpaceOnUse">
<stop stop-color="#6934DD"/>
<stop offset="1" stop-color="#FF0431"/>
</linearGradient>
<linearGradient id="paint11_linear_1324_6801" x1="105.976" y1="115.132" x2="508.682" y2="492.424" gradientUnits="userSpaceOnUse">
<stop stop-color="#6934DD"/>
<stop offset="1" stop-color="#FF0431"/>
</linearGradient>
<linearGradient id="paint12_linear_1324_6801" x1="106.717" y1="134.412" x2="512.726" y2="514.812" gradientUnits="userSpaceOnUse">
<stop stop-color="#6934DD"/>
<stop offset="1" stop-color="#FF0431"/>
</linearGradient>
<linearGradient id="paint13_linear_1324_6801" x1="107.86" y1="154.501" x2="515.62" y2="536.405" gradientUnits="userSpaceOnUse">
<stop stop-color="#6934DD"/>
<stop offset="1" stop-color="#FF0431"/>
</linearGradient>
<linearGradient id="paint14_linear_1324_6801" x1="109.06" y1="175.321" x2="517.334" y2="557.694" gradientUnits="userSpaceOnUse">
<stop stop-color="#6934DD"/>
<stop offset="1" stop-color="#FF0431"/>
</linearGradient>
<linearGradient id="paint15_linear_1324_6801" x1="110.452" y1="196.794" x2="518.054" y2="578.513" gradientUnits="userSpaceOnUse">
<stop stop-color="#6934DD"/>
<stop offset="1" stop-color="#FF0431"/>
</linearGradient>
<linearGradient id="paint16_linear_1324_6801" x1="112.312" y1="219.16" x2="517.438" y2="598.521" gradientUnits="userSpaceOnUse">
<stop stop-color="#6934DD"/>
<stop offset="1" stop-color="#FF0431"/>
</linearGradient>
<linearGradient id="paint17_linear_1324_6801" x1="114.874" y1="242.603" x2="515.218" y2="617.464" gradientUnits="userSpaceOnUse">
<stop stop-color="#6934DD"/>
<stop offset="1" stop-color="#FF0431"/>
</linearGradient>
<linearGradient id="paint18_linear_1324_6801" x1="118.618" y1="267.477" x2="511.116" y2="634.872" gradientUnits="userSpaceOnUse">
<stop stop-color="#6934DD"/>
<stop offset="1" stop-color="#FF0431"/>
</linearGradient>
<linearGradient id="paint19_linear_1324_6801" x1="123.678" y1="294.219" x2="504.506" y2="650.789" gradientUnits="userSpaceOnUse">
<stop stop-color="#6934DD"/>
<stop offset="1" stop-color="#FF0431"/>
</linearGradient>
<linearGradient id="paint20_linear_1324_6801" x1="130.533" y1="323.486" x2="494.297" y2="664.385" gradientUnits="userSpaceOnUse">
<stop stop-color="#6934DD"/>
<stop offset="1" stop-color="#FF0431"/>
</linearGradient>
<linearGradient id="paint21_linear_1324_6801" x1="139.565" y1="356.535" x2="478.68" y2="674.666" gradientUnits="userSpaceOnUse">
<stop stop-color="#6934DD"/>
<stop offset="1" stop-color="#FF0431"/>
</linearGradient>
<linearGradient id="paint22_linear_1324_6801" x1="151.378" y1="395.659" x2="454.012" y2="680.175" gradientUnits="userSpaceOnUse">
<stop stop-color="#6934DD"/>
<stop offset="1" stop-color="#FF0431"/>
</linearGradient>
<linearGradient id="paint23_linear_1324_6801" x1="166.772" y1="445.976" x2="412.241" y2="677.313" gradientUnits="userSpaceOnUse">
<stop stop-color="#6934DD"/>
<stop offset="1" stop-color="#FF0431"/>
</linearGradient>
<linearGradient id="paint24_linear_1324_6801" x1="186.855" y1="528.855" x2="319.738" y2="654.078" gradientUnits="userSpaceOnUse">
<stop stop-color="#6934DD"/>
<stop offset="1" stop-color="#FF0431"/>
</linearGradient>
</defs>
</svg>
