<svg width="291" height="353" viewBox="0 0 291 353" fill="none" xmlns="http://www.w3.org/2000/svg">
<path d="M1.76812 4.69589C0.913128 2.42515 2.59136 0 5.01773 0H285.669C288.178 0 289.859 2.58062 288.845 4.87611L273.186 40.3022C272.074 42.817 269.584 44.4393 266.834 44.4393H21.5383C18.6468 44.4393 16.0579 42.6477 15.0391 39.9417L1.76812 4.69589Z" fill="#CE42FF"/>
<path d="M133.922 17.1641H126.244V26.501H128.195V18.7689H131.97V26.501H133.922V17.1641ZM138.929 26.6377C141.053 26.6377 142.375 25.1834 142.375 23.027C142.375 20.8569 141.053 19.4071 138.929 19.4071C136.804 19.4071 135.482 20.8569 135.482 23.027C135.482 25.1834 136.804 26.6377 138.929 26.6377ZM138.938 25.1333C137.958 25.1333 137.456 24.2351 137.456 23.0133C137.456 21.7915 137.958 20.8888 138.938 20.8888C139.9 20.8888 140.401 21.7915 140.401 23.0133C140.401 24.2351 139.9 25.1333 138.938 25.1333ZM145.494 23.9388V19.4983H143.638V26.501H145.567L148.079 22.0468V26.501H149.93V19.4983H148.015L145.494 23.9388ZM154.65 26.6377C156.515 26.6377 157.687 25.5436 157.778 23.9342H155.945C155.831 24.6819 155.339 25.1014 154.673 25.1014C153.766 25.1014 153.178 24.34 153.178 22.9996C153.178 21.6775 153.771 20.9207 154.673 20.9207C155.384 20.9207 155.84 21.3903 155.945 22.0878H157.778C157.696 20.4694 156.469 19.4071 154.641 19.4071C152.517 19.4071 151.204 20.8797 151.204 23.027C151.204 25.1561 152.494 26.6377 154.65 26.6377ZM159.021 26.501H160.964V24.0163H161.688L163.416 26.501H165.723L163.22 22.9723L165.696 19.4983H163.416L161.511 22.2155H160.964V19.4983H159.021V26.501Z" fill="white"/>
<path d="M27.0639 71.1508C25.3604 66.4909 28.8103 61.5566 33.7717 61.5566H256.38C261.327 61.5566 264.776 66.4632 263.1 71.1173L252.247 101.273C251.227 104.106 248.539 105.996 245.527 105.996H44.7952C41.7964 105.996 39.117 104.123 38.0873 101.306L27.0639 71.1508Z" fill="#2998FF"/>
<path d="M121.084 78.7197H113.406V88.0566H115.358V80.3245H119.132V88.0566H121.084V78.7197ZM122.927 90.6826H124.869V86.9351H124.928C125.197 87.5187 125.785 88.1706 126.916 88.1706C128.512 88.1706 129.756 86.9078 129.756 84.5644C129.756 82.1573 128.457 80.9628 126.92 80.9628C125.749 80.9628 125.188 81.6603 124.928 82.2302H124.842V81.054H122.927V90.6826ZM124.828 84.5553C124.828 83.3061 125.357 82.5083 126.3 82.5083C127.262 82.5083 127.773 83.3426 127.773 84.5553C127.773 85.7771 127.253 86.6251 126.3 86.6251C125.366 86.6251 124.828 85.8045 124.828 84.5553ZM134.215 88.1934C136.339 88.1934 137.662 86.7391 137.662 84.5827C137.662 82.4126 136.339 80.9628 134.215 80.9628C132.09 80.9628 130.768 82.4126 130.768 84.5827C130.768 86.7391 132.09 88.1934 134.215 88.1934ZM134.224 86.6889C133.244 86.6889 132.742 85.7908 132.742 84.569C132.742 83.3472 133.244 82.4445 134.224 82.4445C135.186 82.4445 135.687 83.3472 135.687 84.569C135.687 85.7908 135.186 86.6889 134.224 86.6889ZM142.088 88.1934C143.953 88.1934 145.125 87.0992 145.216 85.4899H143.383C143.269 86.2376 142.777 86.657 142.111 86.657C141.204 86.657 140.616 85.8957 140.616 84.5553C140.616 83.2332 141.208 82.4764 142.111 82.4764C142.822 82.4764 143.278 82.946 143.383 83.6435H145.216C145.134 82.025 143.907 80.9628 142.079 80.9628C139.955 80.9628 138.642 82.4354 138.642 84.5827C138.642 86.7117 139.932 88.1934 142.088 88.1934ZM150.599 85.9093L148.757 81.054H146.459V88.0566H148.315V83.7575L149.952 88.0566H151.242L152.979 83.6025V88.0566H154.811V81.054H152.495L150.599 85.9093ZM159.478 88.1934C161.602 88.1934 162.924 86.7391 162.924 84.5827C162.924 82.4126 161.602 80.9628 159.478 80.9628C157.353 80.9628 156.031 82.4126 156.031 84.5827C156.031 86.7391 157.353 88.1934 159.478 88.1934ZM159.487 86.6889C158.507 86.6889 158.005 85.7908 158.005 84.569C158.005 83.3472 158.507 82.4445 159.487 82.4445C160.449 82.4445 160.95 83.3472 160.95 84.569C160.95 85.7908 160.449 86.6889 159.487 86.6889ZM163.509 82.5812H165.747V88.0566H167.598V82.5812H169.855V81.054H163.509V82.5812ZM171.033 90.6826H172.975V86.9351H173.034C173.303 87.5187 173.891 88.1706 175.022 88.1706C176.617 88.1706 177.862 86.9078 177.862 84.5644C177.862 82.1573 176.563 80.9628 175.026 80.9628C173.855 80.9628 173.294 81.6603 173.034 82.2302H172.947V81.054H171.033V90.6826ZM172.934 84.5553C172.934 83.3061 173.462 82.5083 174.406 82.5083C175.368 82.5083 175.879 83.3426 175.879 84.5553C175.879 85.7771 175.359 86.6251 174.406 86.6251C173.472 86.6251 172.934 85.8045 172.934 84.5553Z" fill="white"/>
<path d="M47.2917 131.438C45.9479 127.334 49.0061 123.114 53.3251 123.114H237.595C241.834 123.114 244.883 127.19 243.684 131.257L234.331 162.999C233.535 165.7 231.056 167.554 228.241 167.554H63.7179C60.9729 167.554 58.5387 165.789 57.6846 163.18L47.2917 131.438Z" fill="#59CB4B"/>
<path d="M130.285 144.946C130.285 141.891 128.389 140.15 125.913 140.15C123.424 140.15 121.541 141.891 121.541 144.946C121.541 147.987 123.424 149.742 125.913 149.742C128.389 149.742 130.285 148 130.285 144.946ZM128.284 144.946C128.284 146.924 127.345 147.996 125.913 147.996C124.477 147.996 123.542 146.924 123.542 144.946C123.542 142.967 124.477 141.896 125.913 141.896C127.345 141.896 128.284 142.967 128.284 144.946ZM131.346 144.139H133.585V149.614H135.436V144.139H137.692V142.612H131.346V144.139ZM138.87 149.614H140.812V147.13H141.537L143.265 149.614H145.572L143.069 146.086L145.544 142.612H143.265L141.359 145.329H140.812V142.612H138.87V149.614ZM145.982 149.614H146.565C148.052 149.614 148.84 148.63 148.959 146.277L149.068 144.139H150.796V149.614H152.647V142.612H147.322L147.208 145.712C147.14 147.485 146.866 148.073 146.205 148.073H145.973L145.982 149.614ZM156.008 147.052V142.612H154.153V149.614H156.081L158.593 145.16V149.614H160.444V142.612H158.53L156.008 147.052ZM162.001 149.614H163.943V147.13H164.668L166.396 149.614H168.703L166.2 146.086L168.676 142.612H166.396L164.49 145.329H163.943V142.612H162.001V149.614Z" fill="white"/>
<path d="M64.6602 192.221C63.2604 188.583 65.9462 184.672 69.8447 184.672H221.47C225.435 184.672 228.124 188.707 226.596 192.367L212.683 225.696C211.819 227.764 209.798 229.111 207.556 229.111H82.6669C80.3686 229.111 78.3076 227.696 77.4824 225.551L64.6602 192.221Z" fill="#FFC311"/>
<path d="M110.385 201.14H102.707V210.477H104.658V202.744H108.433V210.477H110.385V201.14ZM112.228 213.103H114.17V209.355H114.229C114.498 209.939 115.086 210.591 116.217 210.591C117.812 210.591 119.057 209.328 119.057 206.984C119.057 204.577 117.758 203.383 116.221 203.383C115.05 203.383 114.489 204.08 114.229 204.65H114.142V203.474H112.228V213.103ZM114.129 206.975C114.129 205.726 114.657 204.928 115.601 204.928C116.563 204.928 117.074 205.763 117.074 206.975C117.074 208.197 116.554 209.045 115.601 209.045C114.667 209.045 114.129 208.224 114.129 206.975ZM122.207 207.914V203.474H120.352V210.477H122.28L124.792 206.022V210.477H126.643V203.474H124.728L122.207 207.914ZM132.996 203.474H128.2V210.477H130.088V205.001H132.996V203.474ZM133.206 210.477H133.789C135.276 210.477 136.064 209.492 136.183 207.139L136.292 205.001H138.02V210.477H139.871V203.474H134.546L134.432 206.574C134.364 208.347 134.09 208.936 133.429 208.936H133.197L133.206 210.477ZM143.374 210.609C144.409 210.609 145.079 210.157 145.421 209.505H145.475V210.477H147.317V205.753C147.317 204.085 145.904 203.383 144.345 203.383C142.667 203.383 141.564 204.185 141.295 205.462L143.091 205.608C143.223 205.142 143.638 204.801 144.336 204.801C144.997 204.801 145.375 205.133 145.375 205.708V205.735C145.375 206.187 144.896 206.246 143.679 206.364C142.293 206.492 141.049 206.957 141.049 208.521C141.049 209.907 142.038 210.609 143.374 210.609ZM143.93 209.268C143.333 209.268 142.904 208.99 142.904 208.457C142.904 207.91 143.355 207.641 144.039 207.545C144.463 207.486 145.156 207.386 145.389 207.231V207.974C145.389 208.708 144.782 209.268 143.93 209.268ZM148.824 203.474V210.477H158.339V203.474H156.483V208.936H154.509V203.474H152.654V208.936H150.68V203.474H148.824ZM163.036 210.613C164.768 210.613 165.935 209.77 166.209 208.471L164.412 208.352C164.216 208.885 163.715 209.164 163.068 209.164C162.096 209.164 161.481 208.521 161.481 207.477V207.472H166.25V206.939C166.25 204.559 164.809 203.383 162.958 203.383C160.897 203.383 159.562 204.846 159.562 207.007C159.562 209.227 160.879 210.613 163.036 210.613ZM161.481 206.269C161.522 205.471 162.128 204.832 162.99 204.832C163.833 204.832 164.417 205.434 164.422 206.269H161.481ZM169.373 203.474H167.517V210.477H169.373V207.727H171.766V210.477H173.608V203.474H171.766V206.2H169.373V203.474ZM176.97 207.914V203.474H175.115V210.477H177.043L179.555 206.022V210.477H181.406V203.474H179.491L176.97 207.914ZM186.155 210.613C187.887 210.613 189.054 209.77 189.328 208.471L187.531 208.352C187.335 208.885 186.834 209.164 186.186 209.164C185.215 209.164 184.6 208.521 184.6 207.477V207.472H189.369V206.939C189.369 204.559 187.928 203.383 186.077 203.383C184.016 203.383 182.681 204.846 182.681 207.007C182.681 209.227 183.998 210.613 186.155 210.613ZM184.6 206.269C184.641 205.471 185.247 204.832 186.109 204.832C186.952 204.832 187.536 205.434 187.54 206.269H184.6Z" fill="white"/>
<path d="M79.0801 252.471C78.0722 249.393 80.3659 246.229 83.6051 246.229H206.82C210.176 246.229 212.479 249.607 211.251 252.731L197.533 287.648C196.817 289.47 195.059 290.668 193.101 290.668H95.0373C92.9785 290.668 91.1529 289.345 90.5123 287.388L79.0801 252.471Z" fill="#F8883C"/>
<path d="M102.127 266.66C101.867 264.504 100.235 263.264 98.0738 263.264C95.6074 263.264 93.7245 265.006 93.7245 268.06C93.7245 271.106 95.5755 272.856 98.0738 272.856C100.467 272.856 101.913 271.265 102.127 269.546L100.13 269.537C99.9431 270.536 99.1589 271.11 98.1058 271.11C96.6879 271.11 95.7259 270.057 95.7259 268.06C95.7259 266.118 96.6742 265.01 98.1194 265.01C99.1999 265.01 99.9795 265.635 100.13 266.66H102.127ZM106.67 272.865C108.794 272.865 110.117 271.411 110.117 269.255C110.117 267.084 108.794 265.635 106.67 265.635C104.545 265.635 103.223 267.084 103.223 269.255C103.223 271.411 104.545 272.865 106.67 272.865ZM106.679 271.361C105.699 271.361 105.197 270.463 105.197 269.241C105.197 268.019 105.699 267.116 106.679 267.116C107.641 267.116 108.142 268.019 108.142 269.241C108.142 270.463 107.641 271.361 106.679 271.361ZM117.201 263.155C116.859 263.396 116.312 263.392 115.565 263.392C115.387 263.392 115.2 263.387 114.999 263.392C112.451 263.414 111.12 265.01 111.12 268.384V268.958C111.12 271.502 112.433 272.865 114.552 272.865C116.668 272.865 117.976 271.502 117.976 269.364C117.976 267.312 116.777 266.086 114.99 266.086C113.864 266.086 113.107 266.574 112.688 267.431H112.619C112.784 265.712 113.44 265.006 115.063 264.987C116.499 264.964 117.197 264.914 117.794 264.422L117.201 263.155ZM114.562 271.361C113.645 271.361 113.094 270.622 113.094 269.428C113.103 268.233 113.65 267.559 114.552 267.559C115.451 267.559 116.002 268.233 116.002 269.428C116.002 270.627 115.451 271.361 114.562 271.361ZM122.457 272.865C124.189 272.865 125.356 272.022 125.63 270.723L123.834 270.604C123.637 271.137 123.136 271.416 122.489 271.416C121.518 271.416 120.902 270.773 120.902 269.729V269.724H125.671V269.191C125.671 266.811 124.23 265.635 122.379 265.635C120.319 265.635 118.983 267.098 118.983 269.259C118.983 271.479 120.3 272.865 122.457 272.865ZM120.902 268.521C120.943 267.723 121.549 267.084 122.411 267.084C123.255 267.084 123.838 267.686 123.843 268.521H120.902ZM130.102 272.865C131.967 272.865 133.139 271.771 133.23 270.162H131.397C131.283 270.909 130.791 271.329 130.125 271.329C129.218 271.329 128.63 270.568 128.63 269.227C128.63 267.905 129.222 267.148 130.125 267.148C130.836 267.148 131.292 267.618 131.397 268.315H133.23C133.148 266.697 131.921 265.635 130.093 265.635C127.969 265.635 126.656 267.107 126.656 269.255C126.656 271.384 127.946 272.865 130.102 272.865ZM137.664 272.865C139.397 272.865 140.564 272.022 140.838 270.723L139.041 270.604C138.845 271.137 138.344 271.416 137.696 271.416C136.725 271.416 136.11 270.773 136.11 269.729V269.724H140.879V269.191C140.879 266.811 139.438 265.635 137.587 265.635C135.526 265.635 134.191 267.098 134.191 269.259C134.191 271.479 135.508 272.865 137.664 272.865ZM136.11 268.521C136.151 267.723 136.757 267.084 137.619 267.084C138.462 267.084 139.046 267.686 139.05 268.521H136.11ZM141.599 274.78H143.495V272.729H147.776V274.78H149.627V271.188H148.542V265.726H143.172L142.989 268.014C142.88 269.391 142.748 270.8 142.137 271.188H141.599V274.78ZM144.07 271.188C144.485 270.536 144.644 269.51 144.749 268.014L144.822 267.221H146.71V271.188H144.07ZM153.923 272.865C156.048 272.865 157.37 271.411 157.37 269.255C157.37 267.084 156.048 265.635 153.923 265.635C151.799 265.635 150.477 267.084 150.477 269.255C150.477 271.411 151.799 272.865 153.923 272.865ZM153.932 271.361C152.952 271.361 152.451 270.463 152.451 269.241C152.451 268.019 152.952 267.116 153.932 267.116C154.894 267.116 155.396 268.019 155.396 269.241C155.396 270.463 154.894 271.361 153.932 271.361ZM158.633 272.729H162.079C163.83 272.729 164.806 272.013 164.806 270.818C164.806 269.897 164.076 269.168 162.818 269.077C163.821 268.903 164.418 268.375 164.418 267.618C164.418 266.405 163.347 265.726 161.619 265.726H158.633V272.729ZM160.443 271.274V269.747H162.079C162.617 269.747 162.945 270.052 162.945 270.549C162.945 271.001 162.617 271.274 162.079 271.274H160.443ZM160.443 268.607V267.212H161.619C162.221 267.212 162.59 267.472 162.59 267.901C162.59 268.343 162.239 268.607 161.66 268.607H160.443ZM168.027 272.861C169.061 272.861 169.732 272.409 170.074 271.757H170.128V272.729H171.97V268.005C171.97 266.337 170.557 265.635 168.998 265.635C167.32 265.635 166.217 266.437 165.948 267.714L167.744 267.859C167.876 267.394 168.291 267.053 168.988 267.053C169.65 267.053 170.028 267.385 170.028 267.96V267.987C170.028 268.438 169.549 268.498 168.332 268.616C166.946 268.744 165.701 269.209 165.701 270.773C165.701 272.159 166.691 272.861 168.027 272.861ZM168.583 271.52C167.985 271.52 167.557 271.242 167.557 270.709C167.557 270.162 168.008 269.893 168.692 269.797C169.116 269.738 169.809 269.637 170.042 269.482V270.226C170.042 270.96 169.435 271.52 168.583 271.52ZM175.332 265.726H173.477V272.729H175.332V269.979H177.726V272.729H179.568V265.726H177.726V268.452H175.332V265.726ZM182.93 270.166V265.726H181.074V272.729H183.003L185.515 268.274V272.729H187.366V265.726H185.451L182.93 270.166ZM192.114 272.865C193.847 272.865 195.014 272.022 195.287 270.723L193.491 270.604C193.295 271.137 192.793 271.416 192.146 271.416C191.175 271.416 190.56 270.773 190.56 269.729V269.724H195.328V269.191C195.328 266.811 193.888 265.635 192.037 265.635C189.976 265.635 188.64 267.098 188.64 269.259C188.64 271.479 189.958 272.865 192.114 272.865ZM190.56 268.521C190.601 267.723 191.207 267.084 192.069 267.084C192.912 267.084 193.496 267.686 193.5 268.521H190.56Z" fill="white"/>
<path d="M96.3837 313.044C95.4981 310.468 97.412 307.786 100.136 307.786H190.952C193.651 307.786 195.563 310.423 194.723 312.989L182.771 349.492C182.237 351.123 180.716 352.225 179 352.225H112.685C110.991 352.225 109.484 351.15 108.933 349.548L96.3837 313.044Z" fill="#FF0628"/>
<path d="M129.194 334.287H131.168V330.43H135.176V334.287H137.145V324.95H135.176V328.803H131.168V324.95H129.194V334.287ZM140.733 334.419C141.768 334.419 142.438 333.968 142.78 333.316H142.835V334.287H144.677V329.564C144.677 327.895 143.263 327.193 141.704 327.193C140.027 327.193 138.923 327.996 138.654 329.272L140.451 329.418C140.583 328.953 140.998 328.611 141.695 328.611C142.356 328.611 142.735 328.944 142.735 329.518V329.546C142.735 329.997 142.256 330.056 141.039 330.175C139.653 330.303 138.408 330.768 138.408 332.331C138.408 333.717 139.397 334.419 140.733 334.419ZM141.289 333.079C140.692 333.079 140.264 332.801 140.264 332.267C140.264 331.72 140.715 331.451 141.399 331.356C141.823 331.296 142.516 331.196 142.748 331.041V331.784C142.748 332.518 142.142 333.079 141.289 333.079ZM149.375 334.424C151.107 334.424 152.274 333.58 152.548 332.281L150.752 332.163C150.556 332.696 150.054 332.974 149.407 332.974C148.436 332.974 147.82 332.331 147.82 331.287V331.283H152.589V330.749C152.589 328.369 151.148 327.193 149.297 327.193C147.237 327.193 145.901 328.657 145.901 330.818C145.901 333.038 147.218 334.424 149.375 334.424ZM147.82 330.079C147.861 329.281 148.468 328.643 149.329 328.643C150.173 328.643 150.756 329.245 150.761 330.079H147.82ZM157.996 332.14L156.154 327.284H153.856V334.287H155.712V329.988L157.349 334.287H158.639L160.376 329.833V334.287H162.209V327.284H159.893L157.996 332.14Z" fill="white"/>
</svg>
