<svg width="433" height="445" viewBox="0 0 433 445" fill="none" xmlns="http://www.w3.org/2000/svg">
<path fill-rule="evenodd" clip-rule="evenodd" d="M12.9131 108.482C13.8848 111.415 12.2258 114.596 9.20574 115.591C6.18571 116.586 2.95259 115.016 1.9809 112.084C1.0092 109.152 2.66826 105.971 5.68829 104.976C8.70832 103.981 11.9414 105.55 12.9131 108.482Z" fill="#FEF0C7"/>
<path fill-rule="evenodd" clip-rule="evenodd" d="M12.9131 108.482C13.8848 111.415 12.2258 114.596 9.20574 115.591C6.18571 116.586 2.95259 115.016 1.9809 112.084C1.0092 109.152 2.66826 105.971 5.68829 104.976C8.70832 103.981 11.9414 105.55 12.9131 108.482Z" fill="#FEF0C7"/>
<path fill-rule="evenodd" clip-rule="evenodd" d="M21.6956 135.008C22.6673 137.94 21.0082 141.121 17.9882 142.116C14.9682 143.111 11.7351 141.542 10.7634 138.61C9.79167 135.677 11.4507 132.496 14.4708 131.501C17.4908 130.506 20.7239 132.076 21.6956 135.008Z" fill="#FEF0C7"/>
<path fill-rule="evenodd" clip-rule="evenodd" d="M21.6956 135.008C22.6673 137.94 21.0082 141.121 17.9882 142.116C14.9682 143.111 11.7351 141.542 10.7634 138.61C9.79167 135.677 11.4507 132.496 14.4708 131.501C17.4908 130.506 20.7239 132.076 21.6956 135.008Z" fill="#FEF0C7"/>
<path fill-rule="evenodd" clip-rule="evenodd" d="M50.8604 125.392C51.8321 128.324 50.173 131.505 47.153 132.5C44.133 133.495 40.8999 131.926 39.9282 128.993C38.9565 126.061 40.6155 122.88 43.6356 121.885C46.6556 120.89 49.8887 122.459 50.8604 125.392Z" fill="#FEF0C7"/>
<path fill-rule="evenodd" clip-rule="evenodd" d="M50.8604 125.392C51.8321 128.324 50.173 131.505 47.153 132.5C44.133 133.495 40.8999 131.926 39.9282 128.993C38.9565 126.061 40.6155 122.88 43.6356 121.885C46.6556 120.89 49.8887 122.459 50.8604 125.392Z" fill="#FEF0C7"/>
<path fill-rule="evenodd" clip-rule="evenodd" d="M78.2018 116.376C79.1735 119.308 77.5144 122.489 74.4944 123.484C71.4743 124.479 68.2412 122.91 67.2695 119.978C66.2978 117.045 67.9569 113.865 70.9769 112.87C73.997 111.875 77.2301 113.444 78.2018 116.376Z" fill="#FEF0C7"/>
<path fill-rule="evenodd" clip-rule="evenodd" d="M78.2018 116.376C79.1735 119.308 77.5144 122.489 74.4944 123.484C71.4743 124.479 68.2412 122.91 67.2695 119.978C66.2978 117.045 67.9569 113.865 70.9769 112.87C73.997 111.875 77.2301 113.444 78.2018 116.376Z" fill="#FEF0C7"/>
<path fill-rule="evenodd" clip-rule="evenodd" d="M105.544 107.361C106.515 110.293 104.856 113.474 101.836 114.469C98.8163 115.464 95.5832 113.895 94.6115 110.963C93.6398 108.03 95.2989 104.849 98.3189 103.854C101.339 102.859 104.572 104.429 105.544 107.361Z" fill="#FEF0C7"/>
<path fill-rule="evenodd" clip-rule="evenodd" d="M105.544 107.361C106.515 110.293 104.856 113.474 101.836 114.469C98.8163 115.464 95.5832 113.895 94.6115 110.963C93.6398 108.03 95.2989 104.849 98.3189 103.854C101.339 102.859 104.572 104.429 105.544 107.361Z" fill="#FEF0C7"/>
<path fill-rule="evenodd" clip-rule="evenodd" d="M134.708 97.7442C135.68 100.676 134.021 103.857 131.001 104.852C127.981 105.847 124.748 104.278 123.776 101.346C122.804 98.4136 124.463 95.2327 127.483 94.2377C130.503 93.2428 133.737 94.8119 134.708 97.7442Z" fill="#FEF0C7"/>
<path fill-rule="evenodd" clip-rule="evenodd" d="M134.708 97.7442C135.68 100.676 134.021 103.857 131.001 104.852C127.981 105.847 124.748 104.278 123.776 101.346C122.804 98.4136 124.463 95.2327 127.483 94.2377C130.503 93.2428 133.737 94.8119 134.708 97.7442Z" fill="#FEF0C7"/>
<path fill-rule="evenodd" clip-rule="evenodd" d="M162.05 88.7286C163.021 91.6609 161.362 94.8418 158.342 95.8367C155.322 96.8317 152.089 95.2625 151.117 92.3303C150.146 89.398 151.805 86.2171 154.825 85.2221C157.845 84.2271 161.078 85.7963 162.05 88.7286Z" fill="#FEF0C7"/>
<path fill-rule="evenodd" clip-rule="evenodd" d="M162.05 88.7286C163.021 91.6609 161.362 94.8418 158.342 95.8367C155.322 96.8317 152.089 95.2625 151.117 92.3303C150.146 89.398 151.805 86.2171 154.825 85.2221C157.845 84.2271 161.078 85.7963 162.05 88.7286Z" fill="#FEF0C7"/>
<path fill-rule="evenodd" clip-rule="evenodd" d="M191.214 79.1123C192.186 82.0446 190.527 85.2255 187.507 86.2205C184.487 87.2154 181.253 85.6463 180.282 82.714C179.31 79.7818 180.969 76.6009 183.989 75.6059C187.009 74.6109 190.242 76.18 191.214 79.1123Z" fill="#FEF0C7"/>
<path fill-rule="evenodd" clip-rule="evenodd" d="M191.214 79.1123C192.186 82.0446 190.527 85.2255 187.507 86.2205C184.487 87.2154 181.253 85.6463 180.282 82.714C179.31 79.7818 180.969 76.6009 183.989 75.6059C187.009 74.6109 190.242 76.18 191.214 79.1123Z" fill="#FEF0C7"/>
<path fill-rule="evenodd" clip-rule="evenodd" d="M218.556 70.0967C219.527 73.029 217.868 76.2099 214.848 77.2049C211.828 78.1999 208.595 76.6307 207.623 73.6984C206.652 70.7661 208.311 67.5852 211.331 66.5903C214.351 65.5953 217.584 67.1644 218.556 70.0967Z" fill="#FEF0C7"/>
<path fill-rule="evenodd" clip-rule="evenodd" d="M218.556 70.0967C219.527 73.029 217.868 76.2099 214.848 77.2049C211.828 78.1999 208.595 76.6307 207.623 73.6984C206.652 70.7661 208.311 67.5852 211.331 66.5903C214.351 65.5953 217.584 67.1644 218.556 70.0967Z" fill="#FEF0C7"/>
<path fill-rule="evenodd" clip-rule="evenodd" d="M247.72 60.48C248.692 63.4123 247.033 66.5932 244.013 67.5882C240.993 68.5832 237.76 67.014 236.788 64.0817C235.817 61.1494 237.476 57.9685 240.496 56.9736C243.516 55.9786 246.749 57.5477 247.72 60.48Z" fill="#FEF0C7"/>
<path fill-rule="evenodd" clip-rule="evenodd" d="M247.72 60.48C248.692 63.4123 247.033 66.5932 244.013 67.5882C240.993 68.5832 237.76 67.014 236.788 64.0817C235.817 61.1494 237.476 57.9685 240.496 56.9736C243.516 55.9786 246.749 57.5477 247.72 60.48Z" fill="#FEF0C7"/>
<path fill-rule="evenodd" clip-rule="evenodd" d="M275.062 51.4649C276.034 54.3972 274.375 57.5781 271.355 58.5731C268.335 59.568 265.102 57.9989 264.13 55.0666C263.158 52.1343 264.817 48.9534 267.837 47.9584C270.857 46.9635 274.091 48.5326 275.062 51.4649Z" fill="#FEF0C7"/>
<path fill-rule="evenodd" clip-rule="evenodd" d="M275.062 51.4649C276.034 54.3972 274.375 57.5781 271.355 58.5731C268.335 59.568 265.102 57.9989 264.13 55.0666C263.158 52.1343 264.817 48.9534 267.837 47.9584C270.857 46.9635 274.091 48.5326 275.062 51.4649Z" fill="#FEF0C7"/>
<path fill-rule="evenodd" clip-rule="evenodd" d="M302.404 42.4492C303.376 45.3815 301.716 48.5624 298.696 49.5574C295.676 50.5523 292.443 48.9832 291.471 46.0509C290.5 43.1187 292.159 39.9378 295.179 38.9428C298.199 37.9478 301.432 39.5169 302.404 42.4492Z" fill="#FEF0C7"/>
<path fill-rule="evenodd" clip-rule="evenodd" d="M302.404 42.4492C303.376 45.3815 301.716 48.5624 298.696 49.5574C295.676 50.5523 292.443 48.9832 291.471 46.0509C290.5 43.1187 292.159 39.9378 295.179 38.9428C298.199 37.9478 301.432 39.5169 302.404 42.4492Z" fill="#FEF0C7"/>
<path fill-rule="evenodd" clip-rule="evenodd" d="M331.568 32.8331C332.54 35.7653 330.881 38.9462 327.861 39.9412C324.841 40.9362 321.608 39.367 320.636 36.4347C319.664 33.5025 321.323 30.3216 324.343 29.3266C327.363 28.3316 330.596 29.9008 331.568 32.8331Z" fill="#FEF0C7"/>
<path fill-rule="evenodd" clip-rule="evenodd" d="M331.568 32.8331C332.54 35.7653 330.881 38.9462 327.861 39.9412C324.841 40.9362 321.608 39.367 320.636 36.4347C319.664 33.5025 321.323 30.3216 324.343 29.3266C327.363 28.3316 330.596 29.9008 331.568 32.8331Z" fill="#FEF0C7"/>
<path fill-rule="evenodd" clip-rule="evenodd" d="M31.064 163.302C32.0357 166.234 30.3766 169.415 27.3566 170.41C24.3366 171.405 21.1035 169.836 20.1318 166.904C19.1601 163.971 20.8191 160.79 23.8392 159.795C26.8592 158.8 30.0923 160.37 31.064 163.302Z" fill="#FEF0C7"/>
<path fill-rule="evenodd" clip-rule="evenodd" d="M31.064 163.302C32.0357 166.234 30.3766 169.415 27.3566 170.41C24.3366 171.405 21.1035 169.836 20.1318 166.904C19.1601 163.971 20.8191 160.79 23.8392 159.795C26.8592 158.8 30.0923 160.37 31.064 163.302Z" fill="#FEF0C7"/>
<path fill-rule="evenodd" clip-rule="evenodd" d="M60.2285 153.686C61.2002 156.618 59.5412 159.799 56.5212 160.794C53.5011 161.789 50.268 160.22 49.2963 157.287C48.3246 154.355 49.9837 151.174 53.0037 150.179C56.0237 149.184 59.2569 150.753 60.2285 153.686Z" fill="#FEF0C7"/>
<path fill-rule="evenodd" clip-rule="evenodd" d="M60.2285 153.686C61.2002 156.618 59.5412 159.799 56.5212 160.794C53.5011 161.789 50.268 160.22 49.2963 157.287C48.3246 154.355 49.9837 151.174 53.0037 150.179C56.0237 149.184 59.2569 150.753 60.2285 153.686Z" fill="#FEF0C7"/>
<path fill-rule="evenodd" clip-rule="evenodd" d="M87.5702 144.67C88.5419 147.602 86.8828 150.783 83.8628 151.778C80.8427 152.773 77.6096 151.204 76.6379 148.272C75.6662 145.339 77.3253 142.158 80.3453 141.163C83.3654 140.169 86.5985 141.738 87.5702 144.67Z" fill="#FEF0C7"/>
<path fill-rule="evenodd" clip-rule="evenodd" d="M87.5702 144.67C88.5419 147.602 86.8828 150.783 83.8628 151.778C80.8427 152.773 77.6096 151.204 76.6379 148.272C75.6662 145.339 77.3253 142.158 80.3453 141.163C83.3654 140.169 86.5985 141.738 87.5702 144.67Z" fill="#FEF0C7"/>
<path fill-rule="evenodd" clip-rule="evenodd" d="M114.912 135.655C115.884 138.587 114.225 141.768 111.205 142.763C108.184 143.758 104.951 142.189 103.98 139.257C103.008 136.324 104.667 133.143 107.687 132.148C110.707 131.153 113.94 132.723 114.912 135.655Z" fill="#FEF0C7"/>
<path fill-rule="evenodd" clip-rule="evenodd" d="M114.912 135.655C115.884 138.587 114.225 141.768 111.205 142.763C108.184 143.758 104.951 142.189 103.98 139.257C103.008 136.324 104.667 133.143 107.687 132.148C110.707 131.153 113.94 132.723 114.912 135.655Z" fill="#FEF0C7"/>
<path fill-rule="evenodd" clip-rule="evenodd" d="M144.076 126.038C145.048 128.97 143.389 132.151 140.369 133.146C137.349 134.141 134.116 132.572 133.144 129.64C132.173 126.708 133.832 123.527 136.852 122.532C139.872 121.537 143.105 123.106 144.076 126.038Z" fill="#FEF0C7"/>
<path fill-rule="evenodd" clip-rule="evenodd" d="M144.076 126.038C145.048 128.97 143.389 132.151 140.369 133.146C137.349 134.141 134.116 132.572 133.144 129.64C132.173 126.708 133.832 123.527 136.852 122.532C139.872 121.537 143.105 123.106 144.076 126.038Z" fill="#FEF0C7"/>
<path fill-rule="evenodd" clip-rule="evenodd" d="M171.418 117.023C172.389 119.955 170.73 123.136 167.71 124.131C164.69 125.126 161.457 123.557 160.486 120.625C159.514 117.692 161.173 114.512 164.193 113.517C167.213 112.522 170.446 114.091 171.418 117.023Z" fill="#FEF0C7"/>
<path fill-rule="evenodd" clip-rule="evenodd" d="M171.418 117.023C172.389 119.955 170.73 123.136 167.71 124.131C164.69 125.126 161.457 123.557 160.486 120.625C159.514 117.692 161.173 114.512 164.193 113.517C167.213 112.522 170.446 114.091 171.418 117.023Z" fill="#FEF0C7"/>
<path fill-rule="evenodd" clip-rule="evenodd" d="M200.582 107.407C201.554 110.339 199.895 113.52 196.875 114.515C193.855 115.51 190.622 113.941 189.65 111.008C188.678 108.076 190.337 104.895 193.357 103.9C196.377 102.905 199.611 104.474 200.582 107.407Z" fill="#FEF0C7"/>
<path fill-rule="evenodd" clip-rule="evenodd" d="M200.582 107.407C201.554 110.339 199.895 113.52 196.875 114.515C193.855 115.51 190.622 113.941 189.65 111.008C188.678 108.076 190.337 104.895 193.357 103.9C196.377 102.905 199.611 104.474 200.582 107.407Z" fill="#FEF0C7"/>
<path fill-rule="evenodd" clip-rule="evenodd" d="M227.924 98.3912C228.896 101.323 227.237 104.504 224.217 105.499C221.197 106.494 217.964 104.925 216.992 101.993C216.02 99.0606 217.679 95.8797 220.699 94.8847C223.719 93.8897 226.952 95.4589 227.924 98.3912Z" fill="#FEF0C7"/>
<path fill-rule="evenodd" clip-rule="evenodd" d="M227.924 98.3912C228.896 101.323 227.237 104.504 224.217 105.499C221.197 106.494 217.964 104.925 216.992 101.993C216.02 99.0606 217.679 95.8797 220.699 94.8847C223.719 93.8897 226.952 95.4589 227.924 98.3912Z" fill="#FEF0C7"/>
<path fill-rule="evenodd" clip-rule="evenodd" d="M257.089 88.7745C258.06 91.7067 256.401 94.8876 253.381 95.8826C250.361 96.8775 247.128 95.3084 246.156 92.3761C245.185 89.4439 246.844 86.263 249.864 85.268C252.884 84.273 256.117 85.8422 257.089 88.7745Z" fill="#FEF0C7"/>
<path fill-rule="evenodd" clip-rule="evenodd" d="M257.089 88.7745C258.06 91.7067 256.401 94.8876 253.381 95.8826C250.361 96.8775 247.128 95.3084 246.156 92.3761C245.185 89.4439 246.844 86.263 249.864 85.268C252.884 84.273 256.117 85.8422 257.089 88.7745Z" fill="#FEF0C7"/>
<path fill-rule="evenodd" clip-rule="evenodd" d="M284.431 79.7588C285.402 82.6911 283.743 85.872 280.723 86.867C277.703 87.8619 274.47 86.2928 273.498 83.3605C272.527 80.4282 274.186 77.2474 277.206 76.2524C280.226 75.2574 283.459 76.8266 284.431 79.7588Z" fill="#FEF0C7"/>
<path fill-rule="evenodd" clip-rule="evenodd" d="M284.431 79.7588C285.402 82.6911 283.743 85.872 280.723 86.867C277.703 87.8619 274.47 86.2928 273.498 83.3605C272.527 80.4282 274.186 77.2474 277.206 76.2524C280.226 75.2574 283.459 76.8266 284.431 79.7588Z" fill="#FEF0C7"/>
<path fill-rule="evenodd" clip-rule="evenodd" d="M311.772 70.7436C312.744 73.6759 311.085 76.8568 308.065 77.8518C305.045 78.8468 301.811 77.2777 300.84 74.3454C299.868 71.4131 301.527 68.2322 304.547 67.2372C307.567 66.2422 310.8 67.8114 311.772 70.7436Z" fill="#FEF0C7"/>
<path fill-rule="evenodd" clip-rule="evenodd" d="M311.772 70.7436C312.744 73.6759 311.085 76.8568 308.065 77.8518C305.045 78.8468 301.811 77.2777 300.84 74.3454C299.868 71.4131 301.527 68.2322 304.547 67.2372C307.567 66.2422 310.8 67.8114 311.772 70.7436Z" fill="#FEF0C7"/>
<path fill-rule="evenodd" clip-rule="evenodd" d="M340.937 61.127C341.908 64.0593 340.249 67.2402 337.229 68.2352C334.209 69.2301 330.976 67.661 330.004 64.7287C329.033 61.7964 330.692 58.6155 333.712 57.6205C336.732 56.6256 339.965 58.1947 340.937 61.127Z" fill="#FEF0C7"/>
<path fill-rule="evenodd" clip-rule="evenodd" d="M340.937 61.127C341.908 64.0593 340.249 67.2402 337.229 68.2352C334.209 69.2301 330.976 67.661 330.004 64.7287C329.033 61.7964 330.692 58.6155 333.712 57.6205C336.732 56.6256 339.965 58.1947 340.937 61.127Z" fill="#FEF0C7"/>
<path fill-rule="evenodd" clip-rule="evenodd" d="M39.846 189.826C40.8177 192.759 39.1586 195.939 36.1386 196.934C33.1186 197.929 29.8855 196.36 28.9138 193.428C27.9421 190.496 29.6011 187.315 32.6211 186.32C35.6412 185.325 38.8743 186.894 39.846 189.826Z" fill="#FEF0C7"/>
<path fill-rule="evenodd" clip-rule="evenodd" d="M39.846 189.826C40.8177 192.759 39.1586 195.939 36.1386 196.934C33.1186 197.929 29.8855 196.36 28.9138 193.428C27.9421 190.496 29.6011 187.315 32.6211 186.32C35.6412 185.325 38.8743 186.894 39.846 189.826Z" fill="#FEF0C7"/>
<path fill-rule="evenodd" clip-rule="evenodd" d="M69.011 180.21C69.9827 183.142 68.3237 186.323 65.3036 187.318C62.2836 188.313 59.0505 186.744 58.0788 183.811C57.1071 180.879 58.7662 177.698 61.7862 176.703C64.8062 175.708 68.0393 177.277 69.011 180.21Z" fill="#FEF0C7"/>
<path fill-rule="evenodd" clip-rule="evenodd" d="M69.011 180.21C69.9827 183.142 68.3237 186.323 65.3036 187.318C62.2836 188.313 59.0505 186.744 58.0788 183.811C57.1071 180.879 58.7662 177.698 61.7862 176.703C64.8062 175.708 68.0393 177.277 69.011 180.21Z" fill="#FEF0C7"/>
<path fill-rule="evenodd" clip-rule="evenodd" d="M96.3525 171.195C97.3242 174.127 95.6651 177.308 92.645 178.303C89.6249 179.298 86.3918 177.729 85.4201 174.797C84.4484 171.864 86.1075 168.683 89.1276 167.688C92.1476 166.693 95.3808 168.263 96.3525 171.195Z" fill="#FEF0C7"/>
<path fill-rule="evenodd" clip-rule="evenodd" d="M96.3525 171.195C97.3242 174.127 95.6651 177.308 92.645 178.303C89.6249 179.298 86.3918 177.729 85.4201 174.797C84.4484 171.864 86.1075 168.683 89.1276 167.688C92.1476 166.693 95.3808 168.263 96.3525 171.195Z" fill="#FEF0C7"/>
<path fill-rule="evenodd" clip-rule="evenodd" d="M123.694 162.179C124.666 165.111 123.007 168.292 119.987 169.287C116.967 170.282 113.734 168.713 112.762 165.78C111.79 162.848 113.449 159.667 116.469 158.672C119.489 157.677 122.722 159.246 123.694 162.179Z" fill="#FEF0C7"/>
<path fill-rule="evenodd" clip-rule="evenodd" d="M123.694 162.179C124.666 165.111 123.007 168.292 119.987 169.287C116.967 170.282 113.734 168.713 112.762 165.78C111.79 162.848 113.449 159.667 116.469 158.672C119.489 157.677 122.722 159.246 123.694 162.179Z" fill="#FEF0C7"/>
<path fill-rule="evenodd" clip-rule="evenodd" d="M152.859 152.563C153.831 155.495 152.172 158.676 149.152 159.671C146.132 160.666 142.898 159.097 141.927 156.164C140.955 153.232 142.614 150.051 145.634 149.056C148.654 148.061 151.887 149.63 152.859 152.563Z" fill="#FEF0C7"/>
<path fill-rule="evenodd" clip-rule="evenodd" d="M152.859 152.563C153.831 155.495 152.172 158.676 149.152 159.671C146.132 160.666 142.898 159.097 141.927 156.164C140.955 153.232 142.614 150.051 145.634 149.056C148.654 148.061 151.887 149.63 152.859 152.563Z" fill="#FEF0C7"/>
<path fill-rule="evenodd" clip-rule="evenodd" d="M180.2 143.547C181.172 146.48 179.513 149.661 176.493 150.656C173.473 151.651 170.24 150.081 169.268 147.149C168.296 144.217 169.955 141.036 172.975 140.041C175.995 139.046 179.229 140.615 180.2 143.547Z" fill="#FEF0C7"/>
<path fill-rule="evenodd" clip-rule="evenodd" d="M180.2 143.547C181.172 146.48 179.513 149.661 176.493 150.656C173.473 151.651 170.24 150.081 169.268 147.149C168.296 144.217 169.955 141.036 172.975 140.041C175.995 139.046 179.229 140.615 180.2 143.547Z" fill="#FEF0C7"/>
<path fill-rule="evenodd" clip-rule="evenodd" d="M209.364 133.931C210.336 136.863 208.677 140.044 205.657 141.039C202.637 142.034 199.404 140.465 198.432 137.532C197.46 134.6 199.119 131.419 202.14 130.424C205.16 129.429 208.393 130.998 209.364 133.931Z" fill="#FEF0C7"/>
<path fill-rule="evenodd" clip-rule="evenodd" d="M209.364 133.931C210.336 136.863 208.677 140.044 205.657 141.039C202.637 142.034 199.404 140.465 198.432 137.532C197.46 134.6 199.119 131.419 202.14 130.424C205.16 129.429 208.393 130.998 209.364 133.931Z" fill="#FEF0C7"/>
<path fill-rule="evenodd" clip-rule="evenodd" d="M236.706 124.916C237.678 127.848 236.019 131.029 232.999 132.024C229.979 133.019 226.746 131.45 225.774 128.517C224.802 125.585 226.461 122.404 229.481 121.409C232.501 120.414 235.734 121.983 236.706 124.916Z" fill="#FEF0C7"/>
<path fill-rule="evenodd" clip-rule="evenodd" d="M236.706 124.916C237.678 127.848 236.019 131.029 232.999 132.024C229.979 133.019 226.746 131.45 225.774 128.517C224.802 125.585 226.461 122.404 229.481 121.409C232.501 120.414 235.734 121.983 236.706 124.916Z" fill="#FEF0C7"/>
<path fill-rule="evenodd" clip-rule="evenodd" d="M265.871 115.299C266.843 118.231 265.184 121.412 262.163 122.407C259.143 123.402 255.91 121.833 254.939 118.901C253.967 115.968 255.626 112.787 258.646 111.792C261.666 110.797 264.899 112.367 265.871 115.299Z" fill="#FEF0C7"/>
<path fill-rule="evenodd" clip-rule="evenodd" d="M265.871 115.299C266.843 118.231 265.184 121.412 262.163 122.407C259.143 123.402 255.91 121.833 254.939 118.901C253.967 115.968 255.626 112.787 258.646 111.792C261.666 110.797 264.899 112.367 265.871 115.299Z" fill="#FEF0C7"/>
<path fill-rule="evenodd" clip-rule="evenodd" d="M293.213 106.283C294.184 109.216 292.525 112.396 289.505 113.391C286.485 114.386 283.252 112.817 282.28 109.885C281.309 106.953 282.968 103.772 285.988 102.777C289.008 101.782 292.241 103.351 293.213 106.283Z" fill="#FEF0C7"/>
<path fill-rule="evenodd" clip-rule="evenodd" d="M293.213 106.283C294.184 109.216 292.525 112.396 289.505 113.391C286.485 114.386 283.252 112.817 282.28 109.885C281.309 106.953 282.968 103.772 285.988 102.777C289.008 101.782 292.241 103.351 293.213 106.283Z" fill="#FEF0C7"/>
<path fill-rule="evenodd" clip-rule="evenodd" d="M320.554 97.2681C321.526 100.2 319.867 103.381 316.847 104.376C313.827 105.371 310.593 103.802 309.622 100.87C308.65 97.9375 310.309 94.7566 313.329 93.7616C316.349 92.7666 319.582 94.3358 320.554 97.2681Z" fill="#FEF0C7"/>
<path fill-rule="evenodd" clip-rule="evenodd" d="M320.554 97.2681C321.526 100.2 319.867 103.381 316.847 104.376C313.827 105.371 310.593 103.802 309.622 100.87C308.65 97.9375 310.309 94.7566 313.329 93.7616C316.349 92.7666 319.582 94.3358 320.554 97.2681Z" fill="#FEF0C7"/>
<path fill-rule="evenodd" clip-rule="evenodd" d="M349.719 87.6519C350.69 90.5842 349.031 93.7651 346.011 94.7601C342.991 95.755 339.758 94.1859 338.787 91.2536C337.815 88.3213 339.474 85.1404 342.494 84.1454C345.514 83.1505 348.747 84.7196 349.719 87.6519Z" fill="#FEF0C7"/>
<path fill-rule="evenodd" clip-rule="evenodd" d="M349.719 87.6519C350.69 90.5842 349.031 93.7651 346.011 94.7601C342.991 95.755 339.758 94.1859 338.787 91.2536C337.815 88.3213 339.474 85.1404 342.494 84.1454C345.514 83.1505 348.747 84.7196 349.719 87.6519Z" fill="#FEF0C7"/>
<path fill-rule="evenodd" clip-rule="evenodd" d="M49.2144 218.121C50.1861 221.053 48.5271 224.234 45.507 225.229C42.487 226.224 39.2539 224.655 38.2822 221.722C37.3105 218.79 38.9695 215.609 41.9896 214.614C45.0096 213.619 48.2427 215.188 49.2144 218.121Z" fill="#FEF0C7"/>
<path fill-rule="evenodd" clip-rule="evenodd" d="M49.2144 218.121C50.1861 221.053 48.5271 224.234 45.507 225.229C42.487 226.224 39.2539 224.655 38.2822 221.722C37.3105 218.79 38.9695 215.609 41.9896 214.614C45.0096 213.619 48.2427 215.188 49.2144 218.121Z" fill="#FEF0C7"/>
<path fill-rule="evenodd" clip-rule="evenodd" d="M78.3792 208.504C79.3509 211.436 77.6918 214.617 74.6718 215.612C71.6518 216.607 68.4187 215.038 67.447 212.106C66.4753 209.173 68.1343 205.992 71.1544 204.998C74.1744 204.003 77.4075 205.572 78.3792 208.504Z" fill="#FEF0C7"/>
<path fill-rule="evenodd" clip-rule="evenodd" d="M78.3792 208.504C79.3509 211.436 77.6918 214.617 74.6718 215.612C71.6518 216.607 68.4187 215.038 67.447 212.106C66.4753 209.173 68.1343 205.992 71.1544 204.998C74.1744 204.003 77.4075 205.572 78.3792 208.504Z" fill="#FEF0C7"/>
<path fill-rule="evenodd" clip-rule="evenodd" d="M105.721 199.489C106.692 202.421 105.033 205.602 102.013 206.597C98.9931 207.592 95.76 206.023 94.7883 203.091C93.8166 200.158 95.4757 196.977 98.4957 195.982C101.516 194.987 104.749 196.556 105.721 199.489Z" fill="#FEF0C7"/>
<path fill-rule="evenodd" clip-rule="evenodd" d="M105.721 199.489C106.692 202.421 105.033 205.602 102.013 206.597C98.9931 207.592 95.76 206.023 94.7883 203.091C93.8166 200.158 95.4757 196.977 98.4957 195.982C101.516 194.987 104.749 196.556 105.721 199.489Z" fill="#FEF0C7"/>
<path fill-rule="evenodd" clip-rule="evenodd" d="M133.062 190.473C134.034 193.405 132.375 196.586 129.355 197.581C126.335 198.576 123.102 197.007 122.13 194.075C121.158 191.143 122.817 187.962 125.837 186.967C128.857 185.972 132.091 187.541 133.062 190.473Z" fill="#FEF0C7"/>
<path fill-rule="evenodd" clip-rule="evenodd" d="M133.062 190.473C134.034 193.405 132.375 196.586 129.355 197.581C126.335 198.576 123.102 197.007 122.13 194.075C121.158 191.143 122.817 187.962 125.837 186.967C128.857 185.972 132.091 187.541 133.062 190.473Z" fill="#FEF0C7"/>
<path fill-rule="evenodd" clip-rule="evenodd" d="M162.227 180.857C163.199 183.789 161.54 186.97 158.52 187.965C155.5 188.96 152.267 187.39 151.295 184.458C150.323 181.526 151.982 178.345 155.002 177.35C158.022 176.355 161.255 177.924 162.227 180.857Z" fill="#FEF0C7"/>
<path fill-rule="evenodd" clip-rule="evenodd" d="M162.227 180.857C163.199 183.789 161.54 186.97 158.52 187.965C155.5 188.96 152.267 187.39 151.295 184.458C150.323 181.526 151.982 178.345 155.002 177.35C158.022 176.355 161.255 177.924 162.227 180.857Z" fill="#FEF0C7"/>
<path fill-rule="evenodd" clip-rule="evenodd" d="M189.568 171.841C190.54 174.774 188.881 177.955 185.861 178.95C182.841 179.944 179.608 178.375 178.636 175.443C177.664 172.511 179.324 169.33 182.344 168.335C185.364 167.34 188.597 168.909 189.568 171.841Z" fill="#FEF0C7"/>
<path fill-rule="evenodd" clip-rule="evenodd" d="M189.568 171.841C190.54 174.774 188.881 177.955 185.861 178.95C182.841 179.944 179.608 178.375 178.636 175.443C177.664 172.511 179.324 169.33 182.344 168.335C185.364 167.34 188.597 168.909 189.568 171.841Z" fill="#FEF0C7"/>
<path fill-rule="evenodd" clip-rule="evenodd" d="M218.733 162.225C219.704 165.157 218.045 168.338 215.025 169.333C212.005 170.328 208.772 168.759 207.8 165.826C206.829 162.894 208.488 159.713 211.508 158.718C214.528 157.723 217.761 159.292 218.733 162.225Z" fill="#FEF0C7"/>
<path fill-rule="evenodd" clip-rule="evenodd" d="M218.733 162.225C219.704 165.157 218.045 168.338 215.025 169.333C212.005 170.328 208.772 168.759 207.8 165.826C206.829 162.894 208.488 159.713 211.508 158.718C214.528 157.723 217.761 159.292 218.733 162.225Z" fill="#FEF0C7"/>
<path fill-rule="evenodd" clip-rule="evenodd" d="M246.074 153.21C247.046 156.142 245.387 159.323 242.367 160.318C239.347 161.313 236.114 159.744 235.142 156.811C234.171 153.879 235.83 150.698 238.85 149.703C241.87 148.708 245.103 150.277 246.074 153.21Z" fill="#FEF0C7"/>
<path fill-rule="evenodd" clip-rule="evenodd" d="M246.074 153.21C247.046 156.142 245.387 159.323 242.367 160.318C239.347 161.313 236.114 159.744 235.142 156.811C234.171 153.879 235.83 150.698 238.85 149.703C241.87 148.708 245.103 150.277 246.074 153.21Z" fill="#FEF0C7"/>
<path fill-rule="evenodd" clip-rule="evenodd" d="M275.239 143.593C276.211 146.525 274.552 149.706 271.532 150.701C268.512 151.696 265.279 150.127 264.307 147.195C263.335 144.262 264.994 141.081 268.014 140.086C271.034 139.091 274.268 140.661 275.239 143.593Z" fill="#FEF0C7"/>
<path fill-rule="evenodd" clip-rule="evenodd" d="M275.239 143.593C276.211 146.525 274.552 149.706 271.532 150.701C268.512 151.696 265.279 150.127 264.307 147.195C263.335 144.262 264.994 141.081 268.014 140.086C271.034 139.091 274.268 140.661 275.239 143.593Z" fill="#FEF0C7"/>
<path fill-rule="evenodd" clip-rule="evenodd" d="M302.581 134.578C303.553 137.51 301.894 140.691 298.874 141.686C295.854 142.681 292.621 141.112 291.649 138.179C290.677 135.247 292.336 132.066 295.356 131.071C298.376 130.076 301.609 131.645 302.581 134.578Z" fill="#FEF0C7"/>
<path fill-rule="evenodd" clip-rule="evenodd" d="M302.581 134.578C303.553 137.51 301.894 140.691 298.874 141.686C295.854 142.681 292.621 141.112 291.649 138.179C290.677 135.247 292.336 132.066 295.356 131.071C298.376 130.076 301.609 131.645 302.581 134.578Z" fill="#FEF0C7"/>
<path fill-rule="evenodd" clip-rule="evenodd" d="M329.923 125.562C330.895 128.494 329.235 131.675 326.215 132.67C323.195 133.665 319.962 132.096 318.99 129.164C318.019 126.231 319.678 123.051 322.698 122.056C325.718 121.061 328.951 122.63 329.923 125.562Z" fill="#FEF0C7"/>
<path fill-rule="evenodd" clip-rule="evenodd" d="M329.923 125.562C330.895 128.494 329.235 131.675 326.215 132.67C323.195 133.665 319.962 132.096 318.99 129.164C318.019 126.231 319.678 123.051 322.698 122.056C325.718 121.061 328.951 122.63 329.923 125.562Z" fill="#FEF0C7"/>
<path fill-rule="evenodd" clip-rule="evenodd" d="M359.087 115.946C360.059 118.878 358.4 122.059 355.38 123.054C352.36 124.049 349.127 122.48 348.155 119.548C347.183 116.615 348.842 113.434 351.862 112.439C354.882 111.444 358.115 113.014 359.087 115.946Z" fill="#FEF0C7"/>
<path fill-rule="evenodd" clip-rule="evenodd" d="M359.087 115.946C360.059 118.878 358.4 122.059 355.38 123.054C352.36 124.049 349.127 122.48 348.155 119.548C347.183 116.615 348.842 113.434 351.862 112.439C354.882 111.444 358.115 113.014 359.087 115.946Z" fill="#FEF0C7"/>
<path fill-rule="evenodd" clip-rule="evenodd" d="M57.9969 244.646C58.9686 247.578 57.3095 250.759 54.2895 251.754C51.2694 252.749 48.0363 251.18 47.0646 248.247C46.0929 245.315 47.752 242.134 50.772 241.139C53.792 240.144 57.0252 241.713 57.9969 244.646Z" fill="#FEF0C7"/>
<path fill-rule="evenodd" clip-rule="evenodd" d="M57.9969 244.646C58.9686 247.578 57.3095 250.759 54.2895 251.754C51.2694 252.749 48.0363 251.18 47.0646 248.247C46.0929 245.315 47.752 242.134 50.772 241.139C53.792 240.144 57.0252 241.713 57.9969 244.646Z" fill="#FEF0C7"/>
<path fill-rule="evenodd" clip-rule="evenodd" d="M87.1617 235.029C88.1334 237.962 86.4743 241.143 83.4543 242.138C80.4342 243.132 77.2011 241.563 76.2294 238.631C75.2577 235.699 76.9168 232.518 79.9368 231.523C82.9569 230.528 86.19 232.097 87.1617 235.029Z" fill="#FEF0C7"/>
<path fill-rule="evenodd" clip-rule="evenodd" d="M87.1617 235.029C88.1334 237.962 86.4743 241.143 83.4543 242.138C80.4342 243.132 77.2011 241.563 76.2294 238.631C75.2577 235.699 76.9168 232.518 79.9368 231.523C82.9569 230.528 86.19 232.097 87.1617 235.029Z" fill="#FEF0C7"/>
<path fill-rule="evenodd" clip-rule="evenodd" d="M114.503 226.014C115.475 228.946 113.816 232.127 110.796 233.122C107.776 234.117 104.542 232.548 103.571 229.615C102.599 226.683 104.258 223.502 107.278 222.507C110.298 221.512 113.531 223.081 114.503 226.014Z" fill="#FEF0C7"/>
<path fill-rule="evenodd" clip-rule="evenodd" d="M114.503 226.014C115.475 228.946 113.816 232.127 110.796 233.122C107.776 234.117 104.542 232.548 103.571 229.615C102.599 226.683 104.258 223.502 107.278 222.507C110.298 221.512 113.531 223.081 114.503 226.014Z" fill="#FEF0C7"/>
<path fill-rule="evenodd" clip-rule="evenodd" d="M141.845 216.999C142.817 219.931 141.158 223.112 138.138 224.107C135.118 225.102 131.884 223.533 130.913 220.6C129.941 217.668 131.6 214.487 134.62 213.492C137.64 212.497 140.873 214.066 141.845 216.999Z" fill="#FEF0C7"/>
<path fill-rule="evenodd" clip-rule="evenodd" d="M141.845 216.999C142.817 219.931 141.158 223.112 138.138 224.107C135.118 225.102 131.884 223.533 130.913 220.6C129.941 217.668 131.6 214.487 134.62 213.492C137.64 212.497 140.873 214.066 141.845 216.999Z" fill="#FEF0C7"/>
<path fill-rule="evenodd" clip-rule="evenodd" d="M171.01 207.382C171.981 210.314 170.322 213.495 167.302 214.49C164.282 215.485 161.049 213.916 160.077 210.984C159.106 208.051 160.765 204.87 163.785 203.875C166.805 202.88 170.038 204.45 171.01 207.382Z" fill="#FEF0C7"/>
<path fill-rule="evenodd" clip-rule="evenodd" d="M171.01 207.382C171.981 210.314 170.322 213.495 167.302 214.49C164.282 215.485 161.049 213.916 160.077 210.984C159.106 208.051 160.765 204.87 163.785 203.875C166.805 202.88 170.038 204.45 171.01 207.382Z" fill="#FEF0C7"/>
<path fill-rule="evenodd" clip-rule="evenodd" d="M198.351 198.367C199.323 201.299 197.664 204.48 194.643 205.475C191.623 206.47 188.39 204.901 187.419 201.968C186.447 199.036 188.106 195.855 191.126 194.86C194.146 193.865 197.379 195.434 198.351 198.367Z" fill="#FEF0C7"/>
<path fill-rule="evenodd" clip-rule="evenodd" d="M198.351 198.367C199.323 201.299 197.664 204.48 194.643 205.475C191.623 206.47 188.39 204.901 187.419 201.968C186.447 199.036 188.106 195.855 191.126 194.86C194.146 193.865 197.379 195.434 198.351 198.367Z" fill="#FEF0C7"/>
<path fill-rule="evenodd" clip-rule="evenodd" d="M227.515 188.75C228.487 191.682 226.828 194.863 223.808 195.858C220.788 196.853 217.555 195.284 216.583 192.352C215.611 189.419 217.27 186.239 220.29 185.244C223.31 184.249 226.544 185.818 227.515 188.75Z" fill="#FEF0C7"/>
<path fill-rule="evenodd" clip-rule="evenodd" d="M227.515 188.75C228.487 191.682 226.828 194.863 223.808 195.858C220.788 196.853 217.555 195.284 216.583 192.352C215.611 189.419 217.27 186.239 220.29 185.244C223.31 184.249 226.544 185.818 227.515 188.75Z" fill="#FEF0C7"/>
<path fill-rule="evenodd" clip-rule="evenodd" d="M254.857 179.735C255.829 182.667 254.17 185.848 251.15 186.843C248.13 187.838 244.896 186.269 243.925 183.337C242.953 180.404 244.612 177.223 247.632 176.228C250.652 175.233 253.885 176.803 254.857 179.735Z" fill="#FEF0C7"/>
<path fill-rule="evenodd" clip-rule="evenodd" d="M254.857 179.735C255.829 182.667 254.17 185.848 251.15 186.843C248.13 187.838 244.896 186.269 243.925 183.337C242.953 180.404 244.612 177.223 247.632 176.228C250.652 175.233 253.885 176.803 254.857 179.735Z" fill="#FEF0C7"/>
<path fill-rule="evenodd" clip-rule="evenodd" d="M284.022 170.118C284.993 173.051 283.334 176.231 280.314 177.226C277.294 178.221 274.061 176.652 273.09 173.72C272.118 170.788 273.777 167.607 276.797 166.612C279.817 165.617 283.05 167.186 284.022 170.118Z" fill="#FEF0C7"/>
<path fill-rule="evenodd" clip-rule="evenodd" d="M284.022 170.118C284.993 173.051 283.334 176.231 280.314 177.226C277.294 178.221 274.061 176.652 273.09 173.72C272.118 170.788 273.777 167.607 276.797 166.612C279.817 165.617 283.05 167.186 284.022 170.118Z" fill="#FEF0C7"/>
<path fill-rule="evenodd" clip-rule="evenodd" d="M311.363 161.103C312.335 164.035 310.676 167.216 307.656 168.211C304.636 169.206 301.403 167.637 300.431 164.704C299.46 161.772 301.119 158.591 304.139 157.596C307.159 156.601 310.392 158.17 311.363 161.103Z" fill="#FEF0C7"/>
<path fill-rule="evenodd" clip-rule="evenodd" d="M311.363 161.103C312.335 164.035 310.676 167.216 307.656 168.211C304.636 169.206 301.403 167.637 300.431 164.704C299.46 161.772 301.119 158.591 304.139 157.596C307.159 156.601 310.392 158.17 311.363 161.103Z" fill="#FEF0C7"/>
<path fill-rule="evenodd" clip-rule="evenodd" d="M338.705 152.088C339.677 155.02 338.018 158.201 334.998 159.196C331.977 160.191 328.744 158.622 327.773 155.69C326.801 152.757 328.46 149.576 331.48 148.581C334.5 147.586 337.733 149.156 338.705 152.088Z" fill="#FEF0C7"/>
<path fill-rule="evenodd" clip-rule="evenodd" d="M338.705 152.088C339.677 155.02 338.018 158.201 334.998 159.196C331.977 160.191 328.744 158.622 327.773 155.69C326.801 152.757 328.46 149.576 331.48 148.581C334.5 147.586 337.733 149.156 338.705 152.088Z" fill="#FEF0C7"/>
<path fill-rule="evenodd" clip-rule="evenodd" d="M367.87 142.471C368.841 145.403 367.182 148.584 364.162 149.579C361.142 150.574 357.909 149.005 356.937 146.072C355.966 143.14 357.625 139.959 360.645 138.964C363.665 137.969 366.898 139.538 367.87 142.471Z" fill="#FEF0C7"/>
<path fill-rule="evenodd" clip-rule="evenodd" d="M367.87 142.471C368.841 145.403 367.182 148.584 364.162 149.579C361.142 150.574 357.909 149.005 356.937 146.072C355.966 143.14 357.625 139.959 360.645 138.964C363.665 137.969 366.898 139.538 367.87 142.471Z" fill="#FEF0C7"/>
<path fill-rule="evenodd" clip-rule="evenodd" d="M67.365 272.94C68.3367 275.872 66.6777 279.053 63.6576 280.048C60.6376 281.043 57.4045 279.474 56.4328 276.542C55.4611 273.609 57.1202 270.428 60.1402 269.434C63.1602 268.439 66.3933 270.008 67.365 272.94Z" fill="#FEF0C7"/>
<path fill-rule="evenodd" clip-rule="evenodd" d="M67.365 272.94C68.3367 275.872 66.6777 279.053 63.6576 280.048C60.6376 281.043 57.4045 279.474 56.4328 276.542C55.4611 273.609 57.1202 270.428 60.1402 269.434C63.1602 268.439 66.3933 270.008 67.365 272.94Z" fill="#FEF0C7"/>
<path fill-rule="evenodd" clip-rule="evenodd" d="M96.5301 263.323C97.5018 266.256 95.8427 269.436 92.8227 270.431C89.8027 271.426 86.5695 269.857 85.5978 266.925C84.6261 263.993 86.2852 260.812 89.3052 259.817C92.3253 258.822 95.5584 260.391 96.5301 263.323Z" fill="#FEF0C7"/>
<path fill-rule="evenodd" clip-rule="evenodd" d="M96.5301 263.323C97.5018 266.256 95.8427 269.436 92.8227 270.431C89.8027 271.426 86.5695 269.857 85.5978 266.925C84.6261 263.993 86.2852 260.812 89.3052 259.817C92.3253 258.822 95.5584 260.391 96.5301 263.323Z" fill="#FEF0C7"/>
<path fill-rule="evenodd" clip-rule="evenodd" d="M123.872 254.308C124.843 257.24 123.184 260.421 120.164 261.416C117.144 262.411 113.911 260.842 112.939 257.91C111.967 254.978 113.627 251.797 116.647 250.802C119.667 249.807 122.9 251.376 123.872 254.308Z" fill="#FEF0C7"/>
<path fill-rule="evenodd" clip-rule="evenodd" d="M123.872 254.308C124.843 257.24 123.184 260.421 120.164 261.416C117.144 262.411 113.911 260.842 112.939 257.91C111.967 254.978 113.627 251.797 116.647 250.802C119.667 249.807 122.9 251.376 123.872 254.308Z" fill="#FEF0C7"/>
<path fill-rule="evenodd" clip-rule="evenodd" d="M151.213 245.293C152.185 248.225 150.526 251.406 147.506 252.401C144.486 253.396 141.253 251.827 140.281 248.894C139.309 245.962 140.968 242.781 143.988 241.786C147.008 240.791 150.241 242.36 151.213 245.293Z" fill="#FEF0C7"/>
<path fill-rule="evenodd" clip-rule="evenodd" d="M151.213 245.293C152.185 248.225 150.526 251.406 147.506 252.401C144.486 253.396 141.253 251.827 140.281 248.894C139.309 245.962 140.968 242.781 143.988 241.786C147.008 240.791 150.241 242.36 151.213 245.293Z" fill="#FEF0C7"/>
<path fill-rule="evenodd" clip-rule="evenodd" d="M180.378 235.676C181.349 238.609 179.69 241.79 176.67 242.784C173.65 243.779 170.417 242.21 169.445 239.278C168.474 236.346 170.133 233.165 173.153 232.17C176.173 231.175 179.406 232.744 180.378 235.676Z" fill="#FEF0C7"/>
<path fill-rule="evenodd" clip-rule="evenodd" d="M180.378 235.676C181.349 238.609 179.69 241.79 176.67 242.784C173.65 243.779 170.417 242.21 169.445 239.278C168.474 236.346 170.133 233.165 173.153 232.17C176.173 231.175 179.406 232.744 180.378 235.676Z" fill="#FEF0C7"/>
<path fill-rule="evenodd" clip-rule="evenodd" d="M207.719 226.661C208.691 229.593 207.032 232.774 204.012 233.769C200.992 234.764 197.759 233.195 196.787 230.262C195.815 227.33 197.474 224.149 200.494 223.154C203.514 222.159 206.748 223.728 207.719 226.661Z" fill="#FEF0C7"/>
<path fill-rule="evenodd" clip-rule="evenodd" d="M207.719 226.661C208.691 229.593 207.032 232.774 204.012 233.769C200.992 234.764 197.759 233.195 196.787 230.262C195.815 227.33 197.474 224.149 200.494 223.154C203.514 222.159 206.748 223.728 207.719 226.661Z" fill="#FEF0C7"/>
<path fill-rule="evenodd" clip-rule="evenodd" d="M236.884 217.044C237.855 219.977 236.196 223.158 233.176 224.153C230.156 225.148 226.923 223.578 225.951 220.646C224.979 217.714 226.639 214.533 229.659 213.538C232.679 212.543 235.912 214.112 236.884 217.044Z" fill="#FEF0C7"/>
<path fill-rule="evenodd" clip-rule="evenodd" d="M236.884 217.044C237.855 219.977 236.196 223.158 233.176 224.153C230.156 225.148 226.923 223.578 225.951 220.646C224.979 217.714 226.639 214.533 229.659 213.538C232.679 212.543 235.912 214.112 236.884 217.044Z" fill="#FEF0C7"/>
<path fill-rule="evenodd" clip-rule="evenodd" d="M264.225 208.029C265.197 210.961 263.538 214.142 260.518 215.137C257.498 216.132 254.265 214.563 253.293 211.631C252.321 208.698 253.981 205.517 257.001 204.522C260.021 203.527 263.254 205.097 264.225 208.029Z" fill="#FEF0C7"/>
<path fill-rule="evenodd" clip-rule="evenodd" d="M264.225 208.029C265.197 210.961 263.538 214.142 260.518 215.137C257.498 216.132 254.265 214.563 253.293 211.631C252.321 208.698 253.981 205.517 257.001 204.522C260.021 203.527 263.254 205.097 264.225 208.029Z" fill="#FEF0C7"/>
<path fill-rule="evenodd" clip-rule="evenodd" d="M293.39 198.413C294.362 201.345 292.703 204.526 289.683 205.521C286.663 206.516 283.429 204.947 282.458 202.014C281.486 199.082 283.145 195.901 286.165 194.906C289.185 193.911 292.418 195.48 293.39 198.413Z" fill="#FEF0C7"/>
<path fill-rule="evenodd" clip-rule="evenodd" d="M293.39 198.413C294.362 201.345 292.703 204.526 289.683 205.521C286.663 206.516 283.429 204.947 282.458 202.014C281.486 199.082 283.145 195.901 286.165 194.906C289.185 193.911 292.418 195.48 293.39 198.413Z" fill="#FEF0C7"/>
<path fill-rule="evenodd" clip-rule="evenodd" d="M320.732 189.397C321.703 192.329 320.044 195.51 317.024 196.505C314.004 197.5 310.771 195.931 309.799 192.999C308.828 190.066 310.487 186.886 313.507 185.891C316.527 184.896 319.76 186.465 320.732 189.397Z" fill="#FEF0C7"/>
<path fill-rule="evenodd" clip-rule="evenodd" d="M320.732 189.397C321.703 192.329 320.044 195.51 317.024 196.505C314.004 197.5 310.771 195.931 309.799 192.999C308.828 190.066 310.487 186.886 313.507 185.891C316.527 184.896 319.76 186.465 320.732 189.397Z" fill="#FEF0C7"/>
<path fill-rule="evenodd" clip-rule="evenodd" d="M348.073 180.382C349.045 183.314 347.386 186.495 344.366 187.49C341.346 188.485 338.113 186.916 337.141 183.984C336.169 181.051 337.828 177.87 340.848 176.875C343.868 175.88 347.101 177.45 348.073 180.382Z" fill="#FEF0C7"/>
<path fill-rule="evenodd" clip-rule="evenodd" d="M348.073 180.382C349.045 183.314 347.386 186.495 344.366 187.49C341.346 188.485 338.113 186.916 337.141 183.984C336.169 181.051 337.828 177.87 340.848 176.875C343.868 175.88 347.101 177.45 348.073 180.382Z" fill="#FEF0C7"/>
<path fill-rule="evenodd" clip-rule="evenodd" d="M377.238 170.765C378.21 173.697 376.55 176.878 373.53 177.873C370.51 178.868 367.277 177.299 366.306 174.367C365.334 171.435 366.993 168.254 370.013 167.259C373.033 166.264 376.266 167.833 377.238 170.765Z" fill="#FEF0C7"/>
<path fill-rule="evenodd" clip-rule="evenodd" d="M377.238 170.765C378.21 173.697 376.55 176.878 373.53 177.873C370.51 178.868 367.277 177.299 366.306 174.367C365.334 171.435 366.993 168.254 370.013 167.259C373.033 166.264 376.266 167.833 377.238 170.765Z" fill="#FEF0C7"/>
<path fill-rule="evenodd" clip-rule="evenodd" d="M76.1478 299.465C77.1194 302.398 75.4604 305.579 72.4404 306.574C69.4203 307.569 66.1872 305.999 65.2155 303.067C64.2438 300.135 65.9029 296.954 68.9229 295.959C71.9429 294.964 75.1761 296.533 76.1478 299.465Z" fill="#FEF0C7"/>
<path fill-rule="evenodd" clip-rule="evenodd" d="M76.1478 299.465C77.1194 302.398 75.4604 305.579 72.4404 306.574C69.4203 307.569 66.1872 305.999 65.2155 303.067C64.2438 300.135 65.9029 296.954 68.9229 295.959C71.9429 294.964 75.1761 296.533 76.1478 299.465Z" fill="#FEF0C7"/>
<path fill-rule="evenodd" clip-rule="evenodd" d="M105.312 289.849C106.284 292.781 104.625 295.962 101.605 296.957C98.5849 297.952 95.3518 296.383 94.3801 293.45C93.4084 290.518 95.0674 287.337 98.0875 286.342C101.107 285.347 104.341 286.916 105.312 289.849Z" fill="#FEF0C7"/>
<path fill-rule="evenodd" clip-rule="evenodd" d="M105.312 289.849C106.284 292.781 104.625 295.962 101.605 296.957C98.5849 297.952 95.3518 296.383 94.3801 293.45C93.4084 290.518 95.0674 287.337 98.0875 286.342C101.107 285.347 104.341 286.916 105.312 289.849Z" fill="#FEF0C7"/>
<path fill-rule="evenodd" clip-rule="evenodd" d="M132.654 280.833C133.625 283.765 131.966 286.946 128.946 287.941C125.926 288.936 122.693 287.367 121.721 284.435C120.75 281.502 122.409 278.322 125.429 277.327C128.449 276.332 131.682 277.901 132.654 280.833Z" fill="#FEF0C7"/>
<path fill-rule="evenodd" clip-rule="evenodd" d="M132.654 280.833C133.625 283.765 131.966 286.946 128.946 287.941C125.926 288.936 122.693 287.367 121.721 284.435C120.75 281.502 122.409 278.322 125.429 277.327C128.449 276.332 131.682 277.901 132.654 280.833Z" fill="#FEF0C7"/>
<path fill-rule="evenodd" clip-rule="evenodd" d="M159.996 271.817C160.967 274.75 159.308 277.931 156.288 278.926C153.268 279.921 150.035 278.351 149.063 275.419C148.092 272.487 149.751 269.306 152.771 268.311C155.791 267.316 159.024 268.885 159.996 271.817Z" fill="#FEF0C7"/>
<path fill-rule="evenodd" clip-rule="evenodd" d="M159.996 271.817C160.967 274.75 159.308 277.931 156.288 278.926C153.268 279.921 150.035 278.351 149.063 275.419C148.092 272.487 149.751 269.306 152.771 268.311C155.791 267.316 159.024 268.885 159.996 271.817Z" fill="#FEF0C7"/>
<path fill-rule="evenodd" clip-rule="evenodd" d="M189.16 262.201C190.132 265.133 188.473 268.314 185.453 269.309C182.433 270.304 179.199 268.735 178.228 265.802C177.256 262.87 178.915 259.689 181.935 258.694C184.955 257.699 188.188 259.268 189.16 262.201Z" fill="#FEF0C7"/>
<path fill-rule="evenodd" clip-rule="evenodd" d="M189.16 262.201C190.132 265.133 188.473 268.314 185.453 269.309C182.433 270.304 179.199 268.735 178.228 265.802C177.256 262.87 178.915 259.689 181.935 258.694C184.955 257.699 188.188 259.268 189.16 262.201Z" fill="#FEF0C7"/>
<path fill-rule="evenodd" clip-rule="evenodd" d="M216.502 253.186C217.473 256.118 215.814 259.299 212.794 260.294C209.774 261.289 206.541 259.72 205.57 256.787C204.598 253.855 206.257 250.674 209.277 249.679C212.297 248.684 215.53 250.253 216.502 253.186Z" fill="#FEF0C7"/>
<path fill-rule="evenodd" clip-rule="evenodd" d="M216.502 253.186C217.473 256.118 215.814 259.299 212.794 260.294C209.774 261.289 206.541 259.72 205.57 256.787C204.598 253.855 206.257 250.674 209.277 249.679C212.297 248.684 215.53 250.253 216.502 253.186Z" fill="#FEF0C7"/>
<path fill-rule="evenodd" clip-rule="evenodd" d="M245.666 243.569C246.638 246.502 244.979 249.683 241.959 250.678C238.938 251.673 235.705 250.103 234.734 247.171C233.762 244.239 235.421 241.058 238.441 240.063C241.461 239.068 244.694 240.637 245.666 243.569Z" fill="#FEF0C7"/>
<path fill-rule="evenodd" clip-rule="evenodd" d="M245.666 243.569C246.638 246.502 244.979 249.683 241.959 250.678C238.938 251.673 235.705 250.103 234.734 247.171C233.762 244.239 235.421 241.058 238.441 240.063C241.461 239.068 244.694 240.637 245.666 243.569Z" fill="#FEF0C7"/>
<path fill-rule="evenodd" clip-rule="evenodd" d="M273.008 234.554C273.979 237.486 272.32 240.667 269.3 241.662C266.28 242.657 263.047 241.088 262.075 238.155C261.104 235.223 262.763 232.042 265.783 231.047C268.803 230.052 272.036 231.621 273.008 234.554Z" fill="#FEF0C7"/>
<path fill-rule="evenodd" clip-rule="evenodd" d="M273.008 234.554C273.979 237.486 272.32 240.667 269.3 241.662C266.28 242.657 263.047 241.088 262.075 238.155C261.104 235.223 262.763 232.042 265.783 231.047C268.803 230.052 272.036 231.621 273.008 234.554Z" fill="#FEF0C7"/>
<path fill-rule="evenodd" clip-rule="evenodd" d="M302.172 224.937C303.144 227.869 301.485 231.05 298.465 232.045C295.445 233.04 292.212 231.471 291.24 228.539C290.268 225.606 291.928 222.426 294.948 221.431C297.968 220.436 301.201 222.005 302.172 224.937Z" fill="#FEF0C7"/>
<path fill-rule="evenodd" clip-rule="evenodd" d="M302.172 224.937C303.144 227.869 301.485 231.05 298.465 232.045C295.445 233.04 292.212 231.471 291.24 228.539C290.268 225.606 291.928 222.426 294.948 221.431C297.968 220.436 301.201 222.005 302.172 224.937Z" fill="#FEF0C7"/>
<path fill-rule="evenodd" clip-rule="evenodd" d="M329.514 215.922C330.486 218.854 328.827 222.035 325.807 223.03C322.787 224.025 319.554 222.456 318.582 219.524C317.61 216.591 319.269 213.41 322.289 212.415C325.309 211.421 328.542 212.99 329.514 215.922Z" fill="#FEF0C7"/>
<path fill-rule="evenodd" clip-rule="evenodd" d="M329.514 215.922C330.486 218.854 328.827 222.035 325.807 223.03C322.787 224.025 319.554 222.456 318.582 219.524C317.61 216.591 319.269 213.41 322.289 212.415C325.309 211.421 328.542 212.99 329.514 215.922Z" fill="#FEF0C7"/>
<path fill-rule="evenodd" clip-rule="evenodd" d="M356.856 206.906C357.827 209.839 356.168 213.019 353.148 214.014C350.128 215.009 346.895 213.44 345.923 210.508C344.952 207.576 346.611 204.395 349.631 203.4C352.651 202.405 355.884 203.974 356.856 206.906Z" fill="#FEF0C7"/>
<path fill-rule="evenodd" clip-rule="evenodd" d="M356.856 206.906C357.827 209.839 356.168 213.019 353.148 214.014C350.128 215.009 346.895 213.44 345.923 210.508C344.952 207.576 346.611 204.395 349.631 203.4C352.651 202.405 355.884 203.974 356.856 206.906Z" fill="#FEF0C7"/>
<path fill-rule="evenodd" clip-rule="evenodd" d="M386.02 197.29C386.992 200.222 385.333 203.403 382.313 204.398C379.293 205.393 376.06 203.824 375.088 200.892C374.116 197.959 375.775 194.779 378.795 193.784C381.815 192.789 385.049 194.358 386.02 197.29Z" fill="#FEF0C7"/>
<path fill-rule="evenodd" clip-rule="evenodd" d="M386.02 197.29C386.992 200.222 385.333 203.403 382.313 204.398C379.293 205.393 376.06 203.824 375.088 200.892C374.116 197.959 375.775 194.779 378.795 193.784C381.815 192.789 385.049 194.358 386.02 197.29Z" fill="#FEF0C7"/>
<path fill-rule="evenodd" clip-rule="evenodd" d="M84.9297 325.989C85.9014 328.922 84.2424 332.102 81.2223 333.097C78.2023 334.092 74.9692 332.523 73.9975 329.591C73.0258 326.659 74.6849 323.478 77.7049 322.483C80.7249 321.488 83.958 323.057 84.9297 325.989Z" fill="#FEF0C7"/>
<path fill-rule="evenodd" clip-rule="evenodd" d="M84.9297 325.989C85.9014 328.922 84.2424 332.102 81.2223 333.097C78.2023 334.092 74.9692 332.523 73.9975 329.591C73.0258 326.659 74.6849 323.478 77.7049 322.483C80.7249 321.488 83.958 323.057 84.9297 325.989Z" fill="#FEF0C7"/>
<path fill-rule="evenodd" clip-rule="evenodd" d="M114.095 316.373C115.066 319.305 113.407 322.486 110.387 323.481C107.367 324.476 104.134 322.907 103.162 319.974C102.191 317.042 103.85 313.861 106.87 312.866C109.89 311.871 113.123 313.44 114.095 316.373Z" fill="#FEF0C7"/>
<path fill-rule="evenodd" clip-rule="evenodd" d="M114.095 316.373C115.066 319.305 113.407 322.486 110.387 323.481C107.367 324.476 104.134 322.907 103.162 319.974C102.191 317.042 103.85 313.861 106.87 312.866C109.89 311.871 113.123 313.44 114.095 316.373Z" fill="#FEF0C7"/>
<path fill-rule="evenodd" clip-rule="evenodd" d="M141.436 307.357C142.408 310.29 140.749 313.471 137.728 314.466C134.708 315.461 131.475 313.891 130.504 310.959C129.532 308.027 131.191 304.846 134.211 303.851C137.231 302.856 140.464 304.425 141.436 307.357Z" fill="#FEF0C7"/>
<path fill-rule="evenodd" clip-rule="evenodd" d="M141.436 307.357C142.408 310.29 140.749 313.471 137.728 314.466C134.708 315.461 131.475 313.891 130.504 310.959C129.532 308.027 131.191 304.846 134.211 303.851C137.231 302.856 140.464 304.425 141.436 307.357Z" fill="#FEF0C7"/>
<path fill-rule="evenodd" clip-rule="evenodd" d="M168.778 298.342C169.75 301.274 168.091 304.455 165.07 305.45C162.05 306.445 158.817 304.876 157.846 301.944C156.874 299.011 158.533 295.83 161.553 294.835C164.573 293.84 167.806 295.41 168.778 298.342Z" fill="#FEF0C7"/>
<path fill-rule="evenodd" clip-rule="evenodd" d="M168.778 298.342C169.75 301.274 168.091 304.455 165.07 305.45C162.05 306.445 158.817 304.876 157.846 301.944C156.874 299.011 158.533 295.83 161.553 294.835C164.573 293.84 167.806 295.41 168.778 298.342Z" fill="#FEF0C7"/>
<path fill-rule="evenodd" clip-rule="evenodd" d="M197.942 288.725C198.914 291.657 197.255 294.838 194.235 295.833C191.215 296.828 187.982 295.259 187.01 292.327C186.038 289.395 187.698 286.214 190.718 285.219C193.738 284.224 196.971 285.793 197.942 288.725Z" fill="#FEF0C7"/>
<path fill-rule="evenodd" clip-rule="evenodd" d="M197.942 288.725C198.914 291.657 197.255 294.838 194.235 295.833C191.215 296.828 187.982 295.259 187.01 292.327C186.038 289.395 187.698 286.214 190.718 285.219C193.738 284.224 196.971 285.793 197.942 288.725Z" fill="#FEF0C7"/>
<path fill-rule="evenodd" clip-rule="evenodd" d="M225.284 279.71C226.255 282.642 224.596 285.823 221.576 286.818C218.556 287.813 215.323 286.244 214.351 283.312C213.38 280.379 215.039 277.199 218.059 276.204C221.079 275.209 224.312 276.778 225.284 279.71Z" fill="#FEF0C7"/>
<path fill-rule="evenodd" clip-rule="evenodd" d="M225.284 279.71C226.255 282.642 224.596 285.823 221.576 286.818C218.556 287.813 215.323 286.244 214.351 283.312C213.38 280.379 215.039 277.199 218.059 276.204C221.079 275.209 224.312 276.778 225.284 279.71Z" fill="#FEF0C7"/>
<path fill-rule="evenodd" clip-rule="evenodd" d="M254.448 270.094C255.42 273.026 253.761 276.207 250.741 277.202C247.721 278.197 244.488 276.628 243.516 273.695C242.544 270.763 244.203 267.582 247.223 266.587C250.243 265.592 253.476 267.161 254.448 270.094Z" fill="#FEF0C7"/>
<path fill-rule="evenodd" clip-rule="evenodd" d="M254.448 270.094C255.42 273.026 253.761 276.207 250.741 277.202C247.721 278.197 244.488 276.628 243.516 273.695C242.544 270.763 244.203 267.582 247.223 266.587C250.243 265.592 253.476 267.161 254.448 270.094Z" fill="#FEF0C7"/>
<path fill-rule="evenodd" clip-rule="evenodd" d="M281.79 261.078C282.762 264.01 281.103 267.191 278.083 268.186C275.063 269.181 271.83 267.612 270.858 264.68C269.886 261.748 271.545 258.567 274.565 257.572C277.585 256.577 280.818 258.146 281.79 261.078Z" fill="#FEF0C7"/>
<path fill-rule="evenodd" clip-rule="evenodd" d="M281.79 261.078C282.762 264.01 281.103 267.191 278.083 268.186C275.063 269.181 271.83 267.612 270.858 264.68C269.886 261.748 271.545 258.567 274.565 257.572C277.585 256.577 280.818 258.146 281.79 261.078Z" fill="#FEF0C7"/>
<path fill-rule="evenodd" clip-rule="evenodd" d="M310.955 251.462C311.926 254.394 310.267 257.575 307.247 258.57C304.227 259.565 300.994 257.996 300.022 255.064C299.051 252.131 300.71 248.95 303.73 247.956C306.75 246.961 309.983 248.53 310.955 251.462Z" fill="#FEF0C7"/>
<path fill-rule="evenodd" clip-rule="evenodd" d="M310.955 251.462C311.926 254.394 310.267 257.575 307.247 258.57C304.227 259.565 300.994 257.996 300.022 255.064C299.051 252.131 300.71 248.95 303.73 247.956C306.75 246.961 309.983 248.53 310.955 251.462Z" fill="#FEF0C7"/>
<path fill-rule="evenodd" clip-rule="evenodd" d="M338.297 242.446C339.268 245.378 337.609 248.559 334.589 249.554C331.569 250.549 328.336 248.98 327.364 246.048C326.393 243.115 328.052 239.934 331.072 238.939C334.092 237.944 337.325 239.514 338.297 242.446Z" fill="#FEF0C7"/>
<path fill-rule="evenodd" clip-rule="evenodd" d="M338.297 242.446C339.268 245.378 337.609 248.559 334.589 249.554C331.569 250.549 328.336 248.98 327.364 246.048C326.393 243.115 328.052 239.934 331.072 238.939C334.092 237.944 337.325 239.514 338.297 242.446Z" fill="#FEF0C7"/>
<path fill-rule="evenodd" clip-rule="evenodd" d="M365.638 233.431C366.61 236.363 364.951 239.544 361.931 240.539C358.911 241.534 355.677 239.965 354.706 237.033C353.734 234.101 355.393 230.92 358.413 229.925C361.433 228.93 364.666 230.499 365.638 233.431Z" fill="#FEF0C7"/>
<path fill-rule="evenodd" clip-rule="evenodd" d="M365.638 233.431C366.61 236.363 364.951 239.544 361.931 240.539C358.911 241.534 355.677 239.965 354.706 237.033C353.734 234.101 355.393 230.92 358.413 229.925C361.433 228.93 364.666 230.499 365.638 233.431Z" fill="#FEF0C7"/>
<path fill-rule="evenodd" clip-rule="evenodd" d="M394.802 223.815C395.774 226.747 394.115 229.928 391.095 230.923C388.075 231.918 384.842 230.348 383.87 227.416C382.899 224.484 384.558 221.303 387.578 220.308C390.598 219.313 393.831 220.882 394.802 223.815Z" fill="#FEF0C7"/>
<path fill-rule="evenodd" clip-rule="evenodd" d="M394.802 223.815C395.774 226.747 394.115 229.928 391.095 230.923C388.075 231.918 384.842 230.348 383.87 227.416C382.899 224.484 384.558 221.303 387.578 220.308C390.598 219.313 393.831 220.882 394.802 223.815Z" fill="#FEF0C7"/>
<path fill-rule="evenodd" clip-rule="evenodd" d="M94.2981 354.283C95.2698 357.216 93.6108 360.396 90.5907 361.391C87.5707 362.386 84.3376 360.817 83.3659 357.885C82.3942 354.953 84.0533 351.772 87.0733 350.777C90.0933 349.782 93.3264 351.351 94.2981 354.283Z" fill="#FEF0C7"/>
<path fill-rule="evenodd" clip-rule="evenodd" d="M94.2981 354.283C95.2698 357.216 93.6108 360.396 90.5907 361.391C87.5707 362.386 84.3376 360.817 83.3659 357.885C82.3942 354.953 84.0533 351.772 87.0733 350.777C90.0933 349.782 93.3264 351.351 94.2981 354.283Z" fill="#FEF0C7"/>
<path fill-rule="evenodd" clip-rule="evenodd" d="M123.463 344.667C124.435 347.599 122.776 350.78 119.756 351.775C116.736 352.77 113.502 351.201 112.531 348.269C111.559 345.336 113.218 342.156 116.238 341.161C119.258 340.166 122.491 341.735 123.463 344.667Z" fill="#FEF0C7"/>
<path fill-rule="evenodd" clip-rule="evenodd" d="M123.463 344.667C124.435 347.599 122.776 350.78 119.756 351.775C116.736 352.77 113.502 351.201 112.531 348.269C111.559 345.336 113.218 342.156 116.238 341.161C119.258 340.166 122.491 341.735 123.463 344.667Z" fill="#FEF0C7"/>
<path fill-rule="evenodd" clip-rule="evenodd" d="M150.804 335.652C151.776 338.584 150.117 341.765 147.097 342.76C144.077 343.755 140.844 342.186 139.872 339.254C138.9 336.321 140.559 333.14 143.579 332.145C146.6 331.15 149.833 332.72 150.804 335.652Z" fill="#FEF0C7"/>
<path fill-rule="evenodd" clip-rule="evenodd" d="M150.804 335.652C151.776 338.584 150.117 341.765 147.097 342.76C144.077 343.755 140.844 342.186 139.872 339.254C138.9 336.321 140.559 333.14 143.579 332.145C146.6 331.15 149.833 332.72 150.804 335.652Z" fill="#FEF0C7"/>
<path fill-rule="evenodd" clip-rule="evenodd" d="M178.146 326.636C179.118 329.569 177.459 332.749 174.439 333.744C171.419 334.739 168.186 333.17 167.214 330.238C166.242 327.306 167.901 324.125 170.921 323.13C173.941 322.135 177.175 323.704 178.146 326.636Z" fill="#FEF0C7"/>
<path fill-rule="evenodd" clip-rule="evenodd" d="M178.146 326.636C179.118 329.569 177.459 332.749 174.439 333.744C171.419 334.739 168.186 333.17 167.214 330.238C166.242 327.306 167.901 324.125 170.921 323.13C173.941 322.135 177.175 323.704 178.146 326.636Z" fill="#FEF0C7"/>
<path fill-rule="evenodd" clip-rule="evenodd" d="M207.311 317.02C208.283 319.952 206.623 323.133 203.603 324.128C200.583 325.123 197.35 323.554 196.379 320.622C195.407 317.689 197.066 314.509 200.086 313.514C203.106 312.519 206.339 314.088 207.311 317.02Z" fill="#FEF0C7"/>
<path fill-rule="evenodd" clip-rule="evenodd" d="M207.311 317.02C208.283 319.952 206.623 323.133 203.603 324.128C200.583 325.123 197.35 323.554 196.379 320.622C195.407 317.689 197.066 314.509 200.086 313.514C203.106 312.519 206.339 314.088 207.311 317.02Z" fill="#FEF0C7"/>
<path fill-rule="evenodd" clip-rule="evenodd" d="M234.652 308.005C235.624 310.937 233.965 314.118 230.945 315.113C227.925 316.108 224.692 314.539 223.72 311.607C222.748 308.674 224.408 305.493 227.428 304.498C230.448 303.504 233.681 305.073 234.652 308.005Z" fill="#FEF0C7"/>
<path fill-rule="evenodd" clip-rule="evenodd" d="M234.652 308.005C235.624 310.937 233.965 314.118 230.945 315.113C227.925 316.108 224.692 314.539 223.72 311.607C222.748 308.674 224.408 305.493 227.428 304.498C230.448 303.504 233.681 305.073 234.652 308.005Z" fill="#FEF0C7"/>
<path fill-rule="evenodd" clip-rule="evenodd" d="M263.817 298.388C264.788 301.32 263.129 304.501 260.109 305.496C257.089 306.491 253.856 304.922 252.884 301.99C251.913 299.058 253.572 295.877 256.592 294.882C259.612 293.887 262.845 295.456 263.817 298.388Z" fill="#FEF0C7"/>
<path fill-rule="evenodd" clip-rule="evenodd" d="M263.817 298.388C264.788 301.32 263.129 304.501 260.109 305.496C257.089 306.491 253.856 304.922 252.884 301.99C251.913 299.058 253.572 295.877 256.592 294.882C259.612 293.887 262.845 295.456 263.817 298.388Z" fill="#FEF0C7"/>
<path fill-rule="evenodd" clip-rule="evenodd" d="M291.158 289.373C292.13 292.305 290.471 295.486 287.451 296.481C284.431 297.476 281.198 295.907 280.226 292.974C279.255 290.042 280.914 286.861 283.934 285.866C286.954 284.871 290.187 286.44 291.158 289.373Z" fill="#FEF0C7"/>
<path fill-rule="evenodd" clip-rule="evenodd" d="M291.158 289.373C292.13 292.305 290.471 295.486 287.451 296.481C284.431 297.476 281.198 295.907 280.226 292.974C279.255 290.042 280.914 286.861 283.934 285.866C286.954 284.871 290.187 286.44 291.158 289.373Z" fill="#FEF0C7"/>
<path fill-rule="evenodd" clip-rule="evenodd" d="M320.323 279.756C321.295 282.689 319.636 285.87 316.616 286.865C313.596 287.86 310.362 286.29 309.391 283.358C308.419 280.426 310.078 277.245 313.098 276.25C316.118 275.255 319.351 276.824 320.323 279.756Z" fill="#FEF0C7"/>
<path fill-rule="evenodd" clip-rule="evenodd" d="M320.323 279.756C321.295 282.689 319.636 285.87 316.616 286.865C313.596 287.86 310.362 286.29 309.391 283.358C308.419 280.426 310.078 277.245 313.098 276.25C316.118 275.255 319.351 276.824 320.323 279.756Z" fill="#FEF0C7"/>
<path fill-rule="evenodd" clip-rule="evenodd" d="M347.665 270.741C348.636 273.673 346.977 276.854 343.957 277.849C340.937 278.844 337.704 277.275 336.733 274.342C335.761 271.41 337.42 268.229 340.44 267.234C343.46 266.239 346.693 267.809 347.665 270.741Z" fill="#FEF0C7"/>
<path fill-rule="evenodd" clip-rule="evenodd" d="M347.665 270.741C348.636 273.673 346.977 276.854 343.957 277.849C340.937 278.844 337.704 277.275 336.733 274.342C335.761 271.41 337.42 268.229 340.44 267.234C343.46 266.239 346.693 267.809 347.665 270.741Z" fill="#FEF0C7"/>
<path fill-rule="evenodd" clip-rule="evenodd" d="M375.006 261.726C375.978 264.658 374.319 267.839 371.299 268.834C368.279 269.829 365.046 268.26 364.074 265.327C363.102 262.395 364.761 259.214 367.781 258.219C370.801 257.224 374.035 258.793 375.006 261.726Z" fill="#FEF0C7"/>
<path fill-rule="evenodd" clip-rule="evenodd" d="M375.006 261.726C375.978 264.658 374.319 267.839 371.299 268.834C368.279 269.829 365.046 268.26 364.074 265.327C363.102 262.395 364.761 259.214 367.781 258.219C370.801 257.224 374.035 258.793 375.006 261.726Z" fill="#FEF0C7"/>
<path fill-rule="evenodd" clip-rule="evenodd" d="M404.171 252.109C405.143 255.041 403.484 258.222 400.464 259.217C397.444 260.212 394.21 258.643 393.239 255.711C392.267 252.778 393.926 249.597 396.946 248.602C399.966 247.608 403.199 249.177 404.171 252.109Z" fill="#FEF0C7"/>
<path fill-rule="evenodd" clip-rule="evenodd" d="M404.171 252.109C405.143 255.041 403.484 258.222 400.464 259.217C397.444 260.212 394.21 258.643 393.239 255.711C392.267 252.778 393.926 249.597 396.946 248.602C399.966 247.608 403.199 249.177 404.171 252.109Z" fill="#FEF0C7"/>
<path fill-rule="evenodd" clip-rule="evenodd" d="M103.081 380.809C104.052 383.741 102.393 386.922 99.3732 387.917C96.3532 388.912 93.1201 387.343 92.1484 384.41C91.1767 381.478 92.8357 378.297 95.8558 377.302C98.8758 376.307 102.109 377.876 103.081 380.809Z" fill="#FEF0C7"/>
<path fill-rule="evenodd" clip-rule="evenodd" d="M103.081 380.809C104.052 383.741 102.393 386.922 99.3732 387.917C96.3532 388.912 93.1201 387.343 92.1484 384.41C91.1767 381.478 92.8357 378.297 95.8558 377.302C98.8758 376.307 102.109 377.876 103.081 380.809Z" fill="#FEF0C7"/>
<path fill-rule="evenodd" clip-rule="evenodd" d="M132.245 371.192C133.217 374.125 131.558 377.306 128.538 378.301C125.518 379.296 122.285 377.726 121.313 374.794C120.341 371.862 122.001 368.681 125.021 367.686C128.041 366.691 131.274 368.26 132.245 371.192Z" fill="#FEF0C7"/>
<path fill-rule="evenodd" clip-rule="evenodd" d="M132.245 371.192C133.217 374.125 131.558 377.306 128.538 378.301C125.518 379.296 122.285 377.726 121.313 374.794C120.341 371.862 122.001 368.681 125.021 367.686C128.041 366.691 131.274 368.26 132.245 371.192Z" fill="#FEF0C7"/>
<path fill-rule="evenodd" clip-rule="evenodd" d="M159.587 362.177C160.559 365.109 158.899 368.29 155.879 369.285C152.859 370.28 149.626 368.711 148.654 365.778C147.683 362.846 149.342 359.665 152.362 358.67C155.382 357.675 158.615 359.244 159.587 362.177Z" fill="#FEF0C7"/>
<path fill-rule="evenodd" clip-rule="evenodd" d="M159.587 362.177C160.559 365.109 158.899 368.29 155.879 369.285C152.859 370.28 149.626 368.711 148.654 365.778C147.683 362.846 149.342 359.665 152.362 358.67C155.382 357.675 158.615 359.244 159.587 362.177Z" fill="#FEF0C7"/>
<path fill-rule="evenodd" clip-rule="evenodd" d="M186.928 353.161C187.9 356.093 186.241 359.274 183.221 360.269C180.201 361.264 176.968 359.695 175.996 356.763C175.025 353.831 176.684 350.65 179.704 349.655C182.724 348.66 185.957 350.229 186.928 353.161Z" fill="#FEF0C7"/>
<path fill-rule="evenodd" clip-rule="evenodd" d="M186.928 353.161C187.9 356.093 186.241 359.274 183.221 360.269C180.201 361.264 176.968 359.695 175.996 356.763C175.025 353.831 176.684 350.65 179.704 349.655C182.724 348.66 185.957 350.229 186.928 353.161Z" fill="#FEF0C7"/>
<path fill-rule="evenodd" clip-rule="evenodd" d="M216.093 343.545C217.065 346.477 215.406 349.658 212.386 350.653C209.366 351.648 206.133 350.079 205.161 347.147C204.189 344.214 205.848 341.033 208.868 340.039C211.888 339.044 215.122 340.613 216.093 343.545Z" fill="#FEF0C7"/>
<path fill-rule="evenodd" clip-rule="evenodd" d="M216.093 343.545C217.065 346.477 215.406 349.658 212.386 350.653C209.366 351.648 206.133 350.079 205.161 347.147C204.189 344.214 205.848 341.033 208.868 340.039C211.888 339.044 215.122 340.613 216.093 343.545Z" fill="#FEF0C7"/>
<path fill-rule="evenodd" clip-rule="evenodd" d="M243.435 334.529C244.406 337.462 242.747 340.643 239.727 341.638C236.707 342.632 233.474 341.063 232.502 338.131C231.531 335.199 233.19 332.018 236.21 331.023C239.23 330.028 242.463 331.597 243.435 334.529Z" fill="#FEF0C7"/>
<path fill-rule="evenodd" clip-rule="evenodd" d="M243.435 334.529C244.406 337.462 242.747 340.643 239.727 341.638C236.707 342.632 233.474 341.063 232.502 338.131C231.531 335.199 233.19 332.018 236.21 331.023C239.23 330.028 242.463 331.597 243.435 334.529Z" fill="#FEF0C7"/>
<path fill-rule="evenodd" clip-rule="evenodd" d="M272.599 324.913C273.571 327.845 271.911 331.026 268.891 332.021C265.871 333.016 262.638 331.447 261.666 328.515C260.695 325.583 262.354 322.402 265.374 321.407C268.394 320.412 271.627 321.981 272.599 324.913Z" fill="#FEF0C7"/>
<path fill-rule="evenodd" clip-rule="evenodd" d="M272.599 324.913C273.571 327.845 271.911 331.026 268.891 332.021C265.871 333.016 262.638 331.447 261.666 328.515C260.695 325.583 262.354 322.402 265.374 321.407C268.394 320.412 271.627 321.981 272.599 324.913Z" fill="#FEF0C7"/>
<path fill-rule="evenodd" clip-rule="evenodd" d="M299.941 315.898C300.912 318.83 299.253 322.011 296.233 323.006C293.213 324.001 289.98 322.431 289.008 319.499C288.037 316.567 289.696 313.386 292.716 312.391C295.736 311.396 298.969 312.965 299.941 315.898Z" fill="#FEF0C7"/>
<path fill-rule="evenodd" clip-rule="evenodd" d="M299.941 315.898C300.912 318.83 299.253 322.011 296.233 323.006C293.213 324.001 289.98 322.431 289.008 319.499C288.037 316.567 289.696 313.386 292.716 312.391C295.736 311.396 298.969 312.965 299.941 315.898Z" fill="#FEF0C7"/>
<path fill-rule="evenodd" clip-rule="evenodd" d="M329.105 306.281C330.077 309.213 328.418 312.394 325.398 313.389C322.378 314.384 319.145 312.815 318.173 309.883C317.202 306.95 318.861 303.769 321.881 302.774C324.901 301.779 328.134 303.349 329.105 306.281Z" fill="#FEF0C7"/>
<path fill-rule="evenodd" clip-rule="evenodd" d="M329.105 306.281C330.077 309.213 328.418 312.394 325.398 313.389C322.378 314.384 319.145 312.815 318.173 309.883C317.202 306.95 318.861 303.769 321.881 302.774C324.901 301.779 328.134 303.349 329.105 306.281Z" fill="#FEF0C7"/>
<path fill-rule="evenodd" clip-rule="evenodd" d="M356.448 297.266C357.419 300.198 355.76 303.379 352.74 304.374C349.72 305.369 346.487 303.8 345.515 300.867C344.544 297.935 346.203 294.754 349.223 293.759C352.243 292.764 355.476 294.333 356.448 297.266Z" fill="#FEF0C7"/>
<path fill-rule="evenodd" clip-rule="evenodd" d="M356.448 297.266C357.419 300.198 355.76 303.379 352.74 304.374C349.72 305.369 346.487 303.8 345.515 300.867C344.544 297.935 346.203 294.754 349.223 293.759C352.243 292.764 355.476 294.333 356.448 297.266Z" fill="#FEF0C7"/>
<path fill-rule="evenodd" clip-rule="evenodd" d="M383.789 288.25C384.761 291.182 383.102 294.363 380.082 295.358C377.061 296.353 373.828 294.784 372.857 291.852C371.885 288.919 373.544 285.739 376.564 284.744C379.584 283.749 382.817 285.318 383.789 288.25Z" fill="#FEF0C7"/>
<path fill-rule="evenodd" clip-rule="evenodd" d="M383.789 288.25C384.761 291.182 383.102 294.363 380.082 295.358C377.061 296.353 373.828 294.784 372.857 291.852C371.885 288.919 373.544 285.739 376.564 284.744C379.584 283.749 382.817 285.318 383.789 288.25Z" fill="#FEF0C7"/>
<path fill-rule="evenodd" clip-rule="evenodd" d="M412.953 278.634C413.925 281.566 412.266 284.747 409.246 285.742C406.226 286.737 402.993 285.168 402.021 282.236C401.049 279.303 402.708 276.122 405.728 275.127C408.748 274.132 411.981 275.702 412.953 278.634Z" fill="#FEF0C7"/>
<path fill-rule="evenodd" clip-rule="evenodd" d="M412.953 278.634C413.925 281.566 412.266 284.747 409.246 285.742C406.226 286.737 402.993 285.168 402.021 282.236C401.049 279.303 402.708 276.122 405.728 275.127C408.748 274.132 411.981 275.702 412.953 278.634Z" fill="#FEF0C7"/>
<path fill-rule="evenodd" clip-rule="evenodd" d="M112.449 409.103C113.42 412.035 111.761 415.216 108.741 416.211C105.721 417.206 102.488 415.637 101.517 412.705C100.545 409.772 102.204 406.592 105.224 405.597C108.244 404.602 111.477 406.171 112.449 409.103Z" fill="#FEF0C7"/>
<path fill-rule="evenodd" clip-rule="evenodd" d="M112.449 409.103C113.42 412.035 111.761 415.216 108.741 416.211C105.721 417.206 102.488 415.637 101.517 412.705C100.545 409.772 102.204 406.592 105.224 405.597C108.244 404.602 111.477 406.171 112.449 409.103Z" fill="#FEF0C7"/>
<path fill-rule="evenodd" clip-rule="evenodd" d="M141.614 399.486C142.585 402.419 140.926 405.6 137.906 406.595C134.886 407.59 131.653 406.02 130.681 403.088C129.71 400.156 131.369 396.975 134.389 395.98C137.409 394.985 140.642 396.554 141.614 399.486Z" fill="#FEF0C7"/>
<path fill-rule="evenodd" clip-rule="evenodd" d="M141.614 399.486C142.585 402.419 140.926 405.6 137.906 406.595C134.886 407.59 131.653 406.02 130.681 403.088C129.71 400.156 131.369 396.975 134.389 395.98C137.409 394.985 140.642 396.554 141.614 399.486Z" fill="#FEF0C7"/>
<path fill-rule="evenodd" clip-rule="evenodd" d="M168.955 390.471C169.927 393.403 168.268 396.584 165.248 397.579C162.227 398.574 158.994 397.005 158.023 394.072C157.051 391.14 158.71 387.959 161.73 386.964C164.75 385.969 167.983 387.538 168.955 390.471Z" fill="#FEF0C7"/>
<path fill-rule="evenodd" clip-rule="evenodd" d="M168.955 390.471C169.927 393.403 168.268 396.584 165.248 397.579C162.227 398.574 158.994 397.005 158.023 394.072C157.051 391.14 158.71 387.959 161.73 386.964C164.75 385.969 167.983 387.538 168.955 390.471Z" fill="#FEF0C7"/>
<path fill-rule="evenodd" clip-rule="evenodd" d="M196.297 381.456C197.269 384.388 195.61 387.569 192.59 388.564C189.569 389.559 186.336 387.99 185.365 385.057C184.393 382.125 186.052 378.944 189.072 377.949C192.092 376.954 195.325 378.523 196.297 381.456Z" fill="#FEF0C7"/>
<path fill-rule="evenodd" clip-rule="evenodd" d="M196.297 381.456C197.269 384.388 195.61 387.569 192.59 388.564C189.569 389.559 186.336 387.99 185.365 385.057C184.393 382.125 186.052 378.944 189.072 377.949C192.092 376.954 195.325 378.523 196.297 381.456Z" fill="#FEF0C7"/>
<path fill-rule="evenodd" clip-rule="evenodd" d="M225.461 371.839C226.433 374.771 224.774 377.952 221.754 378.947C218.734 379.942 215.501 378.373 214.529 375.441C213.558 372.508 215.217 369.327 218.237 368.332C221.257 367.337 224.49 368.907 225.461 371.839Z" fill="#FEF0C7"/>
<path fill-rule="evenodd" clip-rule="evenodd" d="M225.461 371.839C226.433 374.771 224.774 377.952 221.754 378.947C218.734 379.942 215.501 378.373 214.529 375.441C213.558 372.508 215.217 369.327 218.237 368.332C221.257 367.337 224.49 368.907 225.461 371.839Z" fill="#FEF0C7"/>
<path fill-rule="evenodd" clip-rule="evenodd" d="M252.803 362.823C253.775 365.756 252.116 368.936 249.096 369.931C246.076 370.926 242.842 369.357 241.871 366.425C240.899 363.493 242.558 360.312 245.578 359.317C248.598 358.322 251.831 359.891 252.803 362.823Z" fill="#FEF0C7"/>
<path fill-rule="evenodd" clip-rule="evenodd" d="M252.803 362.823C253.775 365.756 252.116 368.936 249.096 369.931C246.076 370.926 242.842 369.357 241.871 366.425C240.899 363.493 242.558 360.312 245.578 359.317C248.598 358.322 251.831 359.891 252.803 362.823Z" fill="#FEF0C7"/>
<path fill-rule="evenodd" clip-rule="evenodd" d="M281.967 353.207C282.939 356.139 281.28 359.32 278.26 360.315C275.24 361.31 272.007 359.741 271.035 356.809C270.063 353.876 271.722 350.696 274.742 349.701C277.762 348.706 280.996 350.275 281.967 353.207Z" fill="#FEF0C7"/>
<path fill-rule="evenodd" clip-rule="evenodd" d="M281.967 353.207C282.939 356.139 281.28 359.32 278.26 360.315C275.24 361.31 272.007 359.741 271.035 356.809C270.063 353.876 271.722 350.696 274.742 349.701C277.762 348.706 280.996 350.275 281.967 353.207Z" fill="#FEF0C7"/>
<path fill-rule="evenodd" clip-rule="evenodd" d="M309.309 344.192C310.281 347.124 308.622 350.305 305.602 351.3C302.582 352.295 299.349 350.726 298.377 347.794C297.405 344.861 299.064 341.68 302.084 340.685C305.104 339.691 308.337 341.26 309.309 344.192Z" fill="#FEF0C7"/>
<path fill-rule="evenodd" clip-rule="evenodd" d="M309.309 344.192C310.281 347.124 308.622 350.305 305.602 351.3C302.582 352.295 299.349 350.726 298.377 347.794C297.405 344.861 299.064 341.68 302.084 340.685C305.104 339.691 308.337 341.26 309.309 344.192Z" fill="#FEF0C7"/>
<path fill-rule="evenodd" clip-rule="evenodd" d="M338.474 334.576C339.445 337.508 337.786 340.689 334.766 341.684C331.746 342.679 328.513 341.11 327.541 338.177C326.57 335.245 328.229 332.064 331.249 331.069C334.269 330.074 337.502 331.643 338.474 334.576Z" fill="#FEF0C7"/>
<path fill-rule="evenodd" clip-rule="evenodd" d="M338.474 334.576C339.445 337.508 337.786 340.689 334.766 341.684C331.746 342.679 328.513 341.11 327.541 338.177C326.57 335.245 328.229 332.064 331.249 331.069C334.269 330.074 337.502 331.643 338.474 334.576Z" fill="#FEF0C7"/>
<path fill-rule="evenodd" clip-rule="evenodd" d="M365.816 325.56C366.787 328.492 365.128 331.673 362.108 332.668C359.088 333.663 355.855 332.094 354.883 329.161C353.912 326.229 355.571 323.048 358.591 322.053C361.611 321.058 364.844 322.627 365.816 325.56Z" fill="#FEF0C7"/>
<path fill-rule="evenodd" clip-rule="evenodd" d="M365.816 325.56C366.787 328.492 365.128 331.673 362.108 332.668C359.088 333.663 355.855 332.094 354.883 329.161C353.912 326.229 355.571 323.048 358.591 322.053C361.611 321.058 364.844 322.627 365.816 325.56Z" fill="#FEF0C7"/>
<path fill-rule="evenodd" clip-rule="evenodd" d="M393.157 316.544C394.129 319.476 392.47 322.657 389.45 323.652C386.43 324.647 383.196 323.078 382.225 320.146C381.253 317.213 382.912 314.032 385.932 313.038C388.952 312.043 392.185 313.612 393.157 316.544Z" fill="#FEF0C7"/>
<path fill-rule="evenodd" clip-rule="evenodd" d="M393.157 316.544C394.129 319.476 392.47 322.657 389.45 323.652C386.43 324.647 383.196 323.078 382.225 320.146C381.253 317.213 382.912 314.032 385.932 313.038C388.952 312.043 392.185 313.612 393.157 316.544Z" fill="#FEF0C7"/>
<path fill-rule="evenodd" clip-rule="evenodd" d="M422.321 306.928C423.293 309.86 421.634 313.041 418.614 314.036C415.594 315.031 412.361 313.462 411.389 310.529C410.417 307.597 412.076 304.416 415.096 303.421C418.116 302.426 421.35 303.996 422.321 306.928Z" fill="#FEF0C7"/>
<path fill-rule="evenodd" clip-rule="evenodd" d="M422.321 306.928C423.293 309.86 421.634 313.041 418.614 314.036C415.594 315.031 412.361 313.462 411.389 310.529C410.417 307.597 412.076 304.416 415.096 303.421C418.116 302.426 421.35 303.996 422.321 306.928Z" fill="#FEF0C7"/>
<path fill-rule="evenodd" clip-rule="evenodd" d="M121.232 435.628C122.203 438.561 120.544 441.742 117.524 442.737C114.504 443.732 111.271 442.162 110.299 439.23C109.328 436.298 110.987 433.117 114.007 432.122C117.027 431.127 120.26 432.696 121.232 435.628Z" fill="#FEF0C7"/>
<path fill-rule="evenodd" clip-rule="evenodd" d="M121.232 435.628C122.203 438.561 120.544 441.742 117.524 442.737C114.504 443.732 111.271 442.162 110.299 439.23C109.328 436.298 110.987 433.117 114.007 432.122C117.027 431.127 120.26 432.696 121.232 435.628Z" fill="#FEF0C7"/>
<path fill-rule="evenodd" clip-rule="evenodd" d="M150.396 426.011C151.368 428.944 149.709 432.124 146.689 433.119C143.669 434.114 140.436 432.545 139.464 429.613C138.492 426.681 140.151 423.5 143.171 422.505C146.191 421.51 149.425 423.079 150.396 426.011Z" fill="#FEF0C7"/>
<path fill-rule="evenodd" clip-rule="evenodd" d="M150.396 426.011C151.368 428.944 149.709 432.124 146.689 433.119C143.669 434.114 140.436 432.545 139.464 429.613C138.492 426.681 140.151 423.5 143.171 422.505C146.191 421.51 149.425 423.079 150.396 426.011Z" fill="#FEF0C7"/>
<path fill-rule="evenodd" clip-rule="evenodd" d="M177.738 416.996C178.709 419.928 177.05 423.109 174.03 424.104C171.01 425.099 167.777 423.53 166.805 420.598C165.834 417.666 167.493 414.485 170.513 413.49C173.533 412.495 176.766 414.064 177.738 416.996Z" fill="#FEF0C7"/>
<path fill-rule="evenodd" clip-rule="evenodd" d="M177.738 416.996C178.709 419.928 177.05 423.109 174.03 424.104C171.01 425.099 167.777 423.53 166.805 420.598C165.834 417.666 167.493 414.485 170.513 413.49C173.533 412.495 176.766 414.064 177.738 416.996Z" fill="#FEF0C7"/>
<path fill-rule="evenodd" clip-rule="evenodd" d="M205.079 407.981C206.051 410.913 204.392 414.094 201.372 415.089C198.352 416.084 195.119 414.514 194.147 411.582C193.175 408.65 194.835 405.469 197.855 404.474C200.875 403.479 204.108 405.048 205.079 407.981Z" fill="#FEF0C7"/>
<path fill-rule="evenodd" clip-rule="evenodd" d="M205.079 407.981C206.051 410.913 204.392 414.094 201.372 415.089C198.352 416.084 195.119 414.514 194.147 411.582C193.175 408.65 194.835 405.469 197.855 404.474C200.875 403.479 204.108 405.048 205.079 407.981Z" fill="#FEF0C7"/>
<path fill-rule="evenodd" clip-rule="evenodd" d="M234.244 398.364C235.216 401.296 233.557 404.477 230.537 405.472C227.517 406.467 224.284 404.898 223.312 401.966C222.34 399.033 223.999 395.852 227.019 394.857C230.039 393.862 233.272 395.432 234.244 398.364Z" fill="#FEF0C7"/>
<path fill-rule="evenodd" clip-rule="evenodd" d="M234.244 398.364C235.216 401.296 233.557 404.477 230.537 405.472C227.517 406.467 224.284 404.898 223.312 401.966C222.34 399.033 223.999 395.852 227.019 394.857C230.039 393.862 233.272 395.432 234.244 398.364Z" fill="#FEF0C7"/>
<path fill-rule="evenodd" clip-rule="evenodd" d="M261.585 389.349C262.557 392.281 260.898 395.462 257.878 396.457C254.858 397.452 251.625 395.883 250.653 392.951C249.682 390.019 251.341 386.838 254.361 385.843C257.381 384.848 260.614 386.417 261.585 389.349Z" fill="#FEF0C7"/>
<path fill-rule="evenodd" clip-rule="evenodd" d="M261.585 389.349C262.557 392.281 260.898 395.462 257.878 396.457C254.858 397.452 251.625 395.883 250.653 392.951C249.682 390.019 251.341 386.838 254.361 385.843C257.381 384.848 260.614 386.417 261.585 389.349Z" fill="#FEF0C7"/>
<path fill-rule="evenodd" clip-rule="evenodd" d="M290.75 379.732C291.721 382.665 290.062 385.846 287.042 386.841C284.022 387.836 280.789 386.266 279.817 383.334C278.846 380.402 280.505 377.221 283.525 376.226C286.545 375.231 289.778 376.8 290.75 379.732Z" fill="#FEF0C7"/>
<path fill-rule="evenodd" clip-rule="evenodd" d="M290.75 379.732C291.721 382.665 290.062 385.846 287.042 386.841C284.022 387.836 280.789 386.266 279.817 383.334C278.846 380.402 280.505 377.221 283.525 376.226C286.545 375.231 289.778 376.8 290.75 379.732Z" fill="#FEF0C7"/>
<path fill-rule="evenodd" clip-rule="evenodd" d="M318.092 370.717C319.064 373.649 317.404 376.83 314.384 377.825C311.364 378.82 308.131 377.251 307.16 374.319C306.188 371.386 307.847 368.205 310.867 367.21C313.887 366.215 317.12 367.785 318.092 370.717Z" fill="#FEF0C7"/>
<path fill-rule="evenodd" clip-rule="evenodd" d="M318.092 370.717C319.064 373.649 317.404 376.83 314.384 377.825C311.364 378.82 308.131 377.251 307.16 374.319C306.188 371.386 307.847 368.205 310.867 367.21C313.887 366.215 317.12 367.785 318.092 370.717Z" fill="#FEF0C7"/>
<path fill-rule="evenodd" clip-rule="evenodd" d="M347.256 361.101C348.228 364.033 346.569 367.214 343.549 368.209C340.529 369.204 337.296 367.635 336.324 364.702C335.352 361.77 337.011 358.589 340.031 357.594C343.051 356.599 346.284 358.168 347.256 361.101Z" fill="#FEF0C7"/>
<path fill-rule="evenodd" clip-rule="evenodd" d="M347.256 361.101C348.228 364.033 346.569 367.214 343.549 368.209C340.529 369.204 337.296 367.635 336.324 364.702C335.352 361.77 337.011 358.589 340.031 357.594C343.051 356.599 346.284 358.168 347.256 361.101Z" fill="#FEF0C7"/>
<path fill-rule="evenodd" clip-rule="evenodd" d="M374.598 352.085C375.57 355.017 373.911 358.198 370.891 359.193C367.871 360.188 364.637 358.619 363.666 355.687C362.694 352.754 364.353 349.574 367.373 348.579C370.393 347.584 373.626 349.153 374.598 352.085Z" fill="#FEF0C7"/>
<path fill-rule="evenodd" clip-rule="evenodd" d="M374.598 352.085C375.57 355.017 373.911 358.198 370.891 359.193C367.871 360.188 364.637 358.619 363.666 355.687C362.694 352.754 364.353 349.574 367.373 348.579C370.393 347.584 373.626 349.153 374.598 352.085Z" fill="#FEF0C7"/>
<path fill-rule="evenodd" clip-rule="evenodd" d="M401.94 343.07C402.911 346.002 401.252 349.183 398.232 350.178C395.212 351.173 391.979 349.604 391.007 346.672C390.036 343.739 391.695 340.558 394.715 339.563C397.735 338.568 400.968 340.138 401.94 343.07Z" fill="#FEF0C7"/>
<path fill-rule="evenodd" clip-rule="evenodd" d="M401.94 343.07C402.911 346.002 401.252 349.183 398.232 350.178C395.212 351.173 391.979 349.604 391.007 346.672C390.036 343.739 391.695 340.558 394.715 339.563C397.735 338.568 400.968 340.138 401.94 343.07Z" fill="#FEF0C7"/>
<path fill-rule="evenodd" clip-rule="evenodd" d="M431.104 333.453C432.076 336.385 430.417 339.566 427.397 340.561C424.377 341.556 421.144 339.987 420.172 337.055C419.2 334.123 420.859 330.942 423.879 329.947C426.899 328.952 430.133 330.521 431.104 333.453Z" fill="#FEF0C7"/>
<path fill-rule="evenodd" clip-rule="evenodd" d="M431.104 333.453C432.076 336.385 430.417 339.566 427.397 340.561C424.377 341.556 421.144 339.987 420.172 337.055C419.2 334.123 420.859 330.942 423.879 329.947C426.899 328.952 430.133 330.521 431.104 333.453Z" fill="#FEF0C7"/>
<path fill-rule="evenodd" clip-rule="evenodd" d="M42.0779 98.8658C43.0496 101.798 41.3906 104.979 38.3705 105.974C35.3505 106.969 32.1174 105.4 31.1457 102.467C30.174 99.5352 31.8331 96.3543 34.8531 95.3593C37.8731 94.3644 41.1062 95.9335 42.0779 98.8658Z" fill="#FEF0C7"/>
<path fill-rule="evenodd" clip-rule="evenodd" d="M42.0779 98.8658C43.0496 101.798 41.3906 104.979 38.3705 105.974C35.3505 106.969 32.1174 105.4 31.1457 102.467C30.174 99.5352 31.8331 96.3543 34.8531 95.3593C37.8731 94.3644 41.1062 95.9335 42.0779 98.8658Z" fill="#FEF0C7"/>
<path fill-rule="evenodd" clip-rule="evenodd" d="M69.4193 89.8511C70.391 92.7834 68.732 95.9643 65.7119 96.9592C62.6918 97.9542 59.4587 96.3851 58.487 93.4528C57.5153 90.5205 59.1744 87.3396 62.1944 86.3446C65.2145 85.3497 68.4476 86.9188 69.4193 89.8511Z" fill="#FEF0C7"/>
<path fill-rule="evenodd" clip-rule="evenodd" d="M69.4193 89.8511C70.391 92.7834 68.732 95.9643 65.7119 96.9592C62.6918 97.9542 59.4587 96.3851 58.487 93.4528C57.5153 90.5205 59.1744 87.3396 62.1944 86.3446C65.2145 85.3497 68.4476 86.9188 69.4193 89.8511Z" fill="#FEF0C7"/>
<path fill-rule="evenodd" clip-rule="evenodd" d="M96.761 80.835C97.7327 83.7673 96.0737 86.9482 93.0536 87.9432C90.0336 88.9381 86.8005 87.369 85.8288 84.4367C84.8571 81.5044 86.5162 78.3235 89.5362 77.3285C92.5562 76.3336 95.7893 77.9027 96.761 80.835Z" fill="#FEF0C7"/>
<path fill-rule="evenodd" clip-rule="evenodd" d="M96.761 80.835C97.7327 83.7673 96.0737 86.9482 93.0536 87.9432C90.0336 88.9381 86.8005 87.369 85.8288 84.4367C84.8571 81.5044 86.5162 78.3235 89.5362 77.3285C92.5562 76.3336 95.7893 77.9027 96.761 80.835Z" fill="#FEF0C7"/>
<path fill-rule="evenodd" clip-rule="evenodd" d="M125.925 71.2188C126.897 74.1511 125.238 77.332 122.218 78.327C119.198 79.3219 115.965 77.7528 114.993 74.8205C114.021 71.8882 115.68 68.7073 118.7 67.7123C121.721 66.7174 124.954 68.2865 125.925 71.2188Z" fill="#FEF0C7"/>
<path fill-rule="evenodd" clip-rule="evenodd" d="M125.925 71.2188C126.897 74.1511 125.238 77.332 122.218 78.327C119.198 79.3219 115.965 77.7528 114.993 74.8205C114.021 71.8882 115.68 68.7073 118.7 67.7123C121.721 66.7174 124.954 68.2865 125.925 71.2188Z" fill="#FEF0C7"/>
<path fill-rule="evenodd" clip-rule="evenodd" d="M153.267 62.2032C154.239 65.1355 152.58 68.3164 149.56 69.3113C146.54 70.3063 143.307 68.7372 142.335 65.8049C141.363 62.8726 143.022 59.6917 146.042 58.6967C149.062 57.7017 152.295 59.2709 153.267 62.2032Z" fill="#FEF0C7"/>
<path fill-rule="evenodd" clip-rule="evenodd" d="M153.267 62.2032C154.239 65.1355 152.58 68.3164 149.56 69.3113C146.54 70.3063 143.307 68.7372 142.335 65.8049C141.363 62.8726 143.022 59.6917 146.042 58.6967C149.062 57.7017 152.295 59.2709 153.267 62.2032Z" fill="#FEF0C7"/>
<path fill-rule="evenodd" clip-rule="evenodd" d="M182.432 52.5869C183.404 55.5192 181.744 58.7001 178.724 59.6951C175.704 60.6901 172.471 59.1209 171.499 56.1887C170.528 53.2564 172.187 50.0755 175.207 49.0805C178.227 48.0855 181.46 49.6546 182.432 52.5869Z" fill="#FEF0C7"/>
<path fill-rule="evenodd" clip-rule="evenodd" d="M182.432 52.5869C183.404 55.5192 181.744 58.7001 178.724 59.6951C175.704 60.6901 172.471 59.1209 171.499 56.1887C170.528 53.2564 172.187 50.0755 175.207 49.0805C178.227 48.0855 181.46 49.6546 182.432 52.5869Z" fill="#FEF0C7"/>
<path fill-rule="evenodd" clip-rule="evenodd" d="M209.773 43.5718C210.745 46.5041 209.086 49.685 206.066 50.68C203.046 51.675 199.813 50.1058 198.841 47.1735C197.869 44.2412 199.528 41.0603 202.548 40.0654C205.568 39.0704 208.802 40.6395 209.773 43.5718Z" fill="#FEF0C7"/>
<path fill-rule="evenodd" clip-rule="evenodd" d="M209.773 43.5718C210.745 46.5041 209.086 49.685 206.066 50.68C203.046 51.675 199.813 50.1058 198.841 47.1735C197.869 44.2412 199.528 41.0603 202.548 40.0654C205.568 39.0704 208.802 40.6395 209.773 43.5718Z" fill="#FEF0C7"/>
<path fill-rule="evenodd" clip-rule="evenodd" d="M238.938 33.9551C239.91 36.8874 238.251 40.0683 235.231 41.0633C232.211 42.0583 228.978 40.4891 228.006 37.5568C227.034 34.6245 228.693 31.4436 231.713 30.4487C234.733 29.4537 237.966 31.0228 238.938 33.9551Z" fill="#FEF0C7"/>
<path fill-rule="evenodd" clip-rule="evenodd" d="M238.938 33.9551C239.91 36.8874 238.251 40.0683 235.231 41.0633C232.211 42.0583 228.978 40.4891 228.006 37.5568C227.034 34.6245 228.693 31.4436 231.713 30.4487C234.733 29.4537 237.966 31.0228 238.938 33.9551Z" fill="#FEF0C7"/>
<path fill-rule="evenodd" clip-rule="evenodd" d="M266.28 24.9395C267.251 27.8718 265.592 31.0527 262.572 32.0476C259.552 33.0426 256.319 31.4735 255.348 28.5412C254.376 25.6089 256.035 22.428 259.055 21.4331C262.075 20.4381 265.308 22.0072 266.28 24.9395Z" fill="#FEF0C7"/>
<path fill-rule="evenodd" clip-rule="evenodd" d="M266.28 24.9395C267.251 27.8718 265.592 31.0527 262.572 32.0476C259.552 33.0426 256.319 31.4735 255.348 28.5412C254.376 25.6089 256.035 22.428 259.055 21.4331C262.075 20.4381 265.308 22.0072 266.28 24.9395Z" fill="#FEF0C7"/>
<path fill-rule="evenodd" clip-rule="evenodd" d="M293.621 15.9243C294.593 18.8566 292.934 22.0375 289.914 23.0325C286.894 24.0275 283.661 22.4584 282.689 19.5261C281.717 16.5938 283.376 13.4129 286.396 12.4179C289.416 11.4229 292.65 12.992 293.621 15.9243Z" fill="#FEF0C7"/>
<path fill-rule="evenodd" clip-rule="evenodd" d="M293.621 15.9243C294.593 18.8566 292.934 22.0375 289.914 23.0325C286.894 24.0275 283.661 22.4584 282.689 19.5261C281.717 16.5938 283.376 13.4129 286.396 12.4179C289.416 11.4229 292.65 12.992 293.621 15.9243Z" fill="#FEF0C7"/>
<path fill-rule="evenodd" clip-rule="evenodd" d="M322.786 6.30817C323.757 9.24045 322.098 12.4213 319.078 13.4163C316.058 14.4113 312.825 12.8421 311.853 9.90984C310.882 6.97756 312.541 3.79666 315.561 2.8017C318.581 1.80674 321.814 3.37588 322.786 6.30817Z" fill="#FEF0C7"/>
<path fill-rule="evenodd" clip-rule="evenodd" d="M322.786 6.30817C323.757 9.24045 322.098 12.4213 319.078 13.4163C316.058 14.4113 312.825 12.8421 311.853 9.90984C310.882 6.97756 312.541 3.79666 315.561 2.8017C318.581 1.80674 321.814 3.37588 322.786 6.30817Z" fill="#FEF0C7"/>
</svg>
