<svg width="417" height="533" viewBox="0 0 417 533" fill="none" xmlns="http://www.w3.org/2000/svg">
<g clip-path="url(#clip0_1481:7914)">
<path fill-rule="evenodd" clip-rule="evenodd" d="M161.883 129.526C144.249 129.526 137.687 140.106 130.056 151.179C48.9883 157.669 41.7028 217.26 4.46592 285.986C-5.25175 303.922 1.41846 326.543 19.3413 336.284C20.9192 337.142 22.5338 337.87 24.1735 338.476L24.3636 338.549L88.4105 362.254C90.2623 362.939 92.1537 363.334 94.0347 363.464C94.8773 379.137 97.8635 390.269 105.683 391.405L105.684 391.405C132.11 391.305 156.345 388.138 194.843 382.26C233.342 376.381 263.462 369.52 276.774 368.307C280.48 364.807 285.368 363.326 285.286 354.492C285.203 345.656 278.805 309.754 280.596 270.996L280.639 270.012L292.677 285.662C305.114 301.831 328.519 304.884 344.687 292.446C345.331 291.951 345.951 291.437 346.553 290.908C351.378 286.819 355.216 281.452 357.468 275.092L386.892 192.012C390.629 181.461 385.054 169.77 374.503 166.034L342.948 154.858C332.396 151.122 320.707 156.696 316.97 167.248L311.325 183.187C294.034 160.762 274.894 145.924 238.098 145.92C231.436 138.355 223.605 129.526 209.339 129.526L161.883 129.526ZM90.0385 283.761L95.3751 273.912C95.6123 277.679 95.7223 281.692 95.7448 285.873L90.0385 283.761Z" fill="#FF0028"/>
<path fill-rule="evenodd" clip-rule="evenodd" d="M151.043 319.061C147.371 318.255 144.598 320.283 143.26 321.523L134.85 321.659L121.908 356.641C124.105 360.534 126.303 364.426 128.5 368.318C138.274 364.143 143.529 335.48 151.043 319.061H151.043Z" fill="#EBA884"/>
<path fill-rule="evenodd" clip-rule="evenodd" d="M379.579 157.886C390.384 151.2 390.942 150.041 398.662 131.857C404.192 122.529 410.126 112.371 414.962 102.906C419.539 96.5377 410.924 91.8606 407.926 96.8812L393.732 119.266L392.897 117.867C398.862 106.871 403.374 94.5875 409.338 83.5921C413.708 76.668 403.742 71.9367 400.95 78.3026L384.468 109.957L383.77 109.557L396.012 72.4845C398.494 66.2778 389.358 62.3232 386.612 69.58L372.705 106.867L371.546 106.897L379.078 72.8688C380.785 66.804 371.991 63.7544 369.401 71.1967L358.371 110.236C358.439 112.013 355.741 113.934 355.102 111.801C350.3 83.7213 338.393 90.996 339.829 98.9948C341.995 123.488 340.001 125.932 346.159 140.398C343.653 147.685 338.101 163.83 344.301 145.802L379.056 159.409L379.579 157.886Z" fill="#EBA884"/>
<path d="M364.712 146.612L364.725 146.627L364.773 146.683L364.856 146.778L364.971 146.906L365.116 147.065L365.294 147.253L365.501 147.467L365.736 147.704L366 147.96L366.29 148.233L366.607 148.521L366.948 148.818L367.314 149.125L367.702 149.436L368.112 149.75L368.542 150.062L368.993 150.372L369.462 150.675L369.949 150.968L370.453 151.25L370.972 151.516L371.506 151.765L372.053 151.994L372.612 152.199L373.181 152.378L373.762 152.529L374.352 152.649L374.95 152.736L375.556 152.786L376.168 152.798L376.787 152.769L377.412 152.696C377.761 152.642 378.089 152.882 378.142 153.232C378.196 153.582 377.955 153.909 377.605 153.963L376.892 154.046L376.186 154.08L375.49 154.066L374.804 154.009L374.132 153.912L373.472 153.778L372.827 153.61L372.198 153.412L371.584 153.186L370.987 152.937L370.408 152.667L369.848 152.378L369.306 152.076L368.784 151.761L368.283 151.438L367.803 151.108L367.346 150.776L366.911 150.444L366.501 150.114L366.116 149.792L365.755 149.477L365.421 149.173L365.114 148.885L364.836 148.615L364.586 148.365L364.367 148.138L364.178 147.937L364.02 147.765L363.896 147.625L363.805 147.521L363.749 147.455L363.725 147.426H363.725C363.5 147.154 363.538 146.749 363.812 146.525C364.085 146.3 364.489 146.339 364.714 146.611H364.714L364.712 146.612Z" fill="#C98560"/>
<path d="M360.034 124.693L359.991 124.448L359.946 124.2L359.897 123.951L359.845 123.698L359.79 123.444L359.732 123.189L359.67 122.932L359.604 122.674L359.535 122.416L359.462 122.156L359.385 121.895L359.305 121.634L359.22 121.373L359.131 121.112L359.038 120.852L358.941 120.591L358.839 120.33L358.733 120.07L358.623 119.812L358.507 119.555L358.387 119.298L358.263 119.043L358.133 118.79L357.999 118.537L357.859 118.288L357.714 118.041L357.564 117.796L357.409 117.553L357.248 117.313L357.082 117.076L356.911 116.842L356.733 116.611C356.515 116.333 356.563 115.929 356.841 115.711C357.119 115.492 357.522 115.54 357.741 115.819L357.936 116.073L358.124 116.33L358.306 116.589L358.481 116.852L358.651 117.116L358.814 117.383L358.971 117.652L359.123 117.923L359.268 118.196L359.409 118.47L359.544 118.746L359.672 119.021L359.797 119.299L359.916 119.577L360.029 119.855L360.138 120.134L360.242 120.413L360.342 120.691L360.436 120.97L360.526 121.248L360.612 121.526L360.694 121.802L360.771 122.077L360.844 122.352L360.914 122.625L360.979 122.897L361.041 123.167L361.099 123.434L361.153 123.699L361.205 123.963L361.253 124.224L361.298 124.482L361.298 124.482C361.356 124.831 361.121 125.162 360.772 125.22C360.423 125.278 360.092 125.043 360.034 124.694L360.033 124.693H360.034Z" fill="#C98560"/>
<path fill-rule="evenodd" clip-rule="evenodd" d="M376.455 166.822L376.29 166.764C375.712 166.495 375.117 166.25 374.504 166.033L342.949 154.858H342.949C342.42 154.671 341.889 154.509 341.356 154.368L344.302 145.803L379.057 159.409L376.455 166.823L376.455 166.822Z" fill="#D90324"/>
<path fill-rule="evenodd" clip-rule="evenodd" d="M11.8431 271.773C9.50477 276.457 7.06056 281.198 4.46668 285.985C-4.92998 303.328 0.997336 325.051 17.6037 335.275C23.0453 327.219 26.2224 317.507 26.2224 307.053C26.2224 293.322 20.7382 280.874 11.8435 271.773V271.773H11.8431Z" fill="#FF5E04"/>
<path fill-rule="evenodd" clip-rule="evenodd" d="M362.092 262.042L357.47 275.092C355.225 281.431 351.404 286.783 346.601 290.869C345.985 291.411 345.348 291.938 344.687 292.446C330.427 303.415 310.54 302.333 297.511 290.833C297.774 290.06 298.059 289.296 298.36 288.542L298.367 288.523C298.477 288.249 298.589 287.976 298.703 287.705L298.724 287.655C299.318 286.253 299.973 284.885 300.691 283.554L300.724 283.493C300.862 283.238 301.002 282.984 301.145 282.731L301.159 282.708C301.603 281.922 302.069 281.149 302.556 280.391L302.59 280.338C302.743 280.1 302.899 279.864 303.055 279.628L303.092 279.573C303.25 279.339 303.409 279.106 303.571 278.874L303.611 278.816C303.772 278.587 303.933 278.359 304.098 278.133L304.143 278.07C304.309 277.842 304.477 277.615 304.647 277.39L304.682 277.344C304.851 277.12 305.023 276.897 305.196 276.676L305.249 276.609C305.421 276.39 305.595 276.172 305.771 275.956L305.813 275.905C305.989 275.69 306.166 275.477 306.345 275.265L306.409 275.19C306.588 274.981 306.768 274.772 306.95 274.565L306.995 274.514C307.177 274.307 307.361 274.103 307.546 273.9L307.625 273.814C307.8 273.623 307.977 273.433 308.156 273.245L308.263 273.133C308.442 272.945 308.623 272.758 308.805 272.573L308.877 272.501C309.06 272.316 309.243 272.132 309.429 271.951L309.557 271.826C309.736 271.652 309.917 271.478 310.1 271.306L310.195 271.217C310.383 271.041 310.573 270.865 310.764 270.692L310.882 270.585C311.069 270.417 311.257 270.25 311.447 270.084L311.555 269.99C311.747 269.823 311.94 269.658 312.134 269.494L312.271 269.38C312.457 269.225 312.643 269.071 312.831 268.918L312.985 268.794C313.169 268.648 313.352 268.501 313.538 268.357L313.733 268.206C313.904 268.074 314.076 267.942 314.249 267.812L314.471 267.648C314.648 267.517 314.825 267.386 315.005 267.257L315.183 267.13C315.37 266.996 315.558 266.864 315.747 266.733L315.959 266.587C316.138 266.465 316.318 266.343 316.498 266.223L316.72 266.077C316.901 265.958 317.084 265.839 317.267 265.722L317.51 265.569C317.687 265.458 317.864 265.347 318.043 265.237L318.281 265.094C318.464 264.984 318.647 264.873 318.832 264.765L319.091 264.616C319.266 264.515 319.442 264.413 319.62 264.314L319.908 264.155C320.082 264.059 320.256 263.964 320.431 263.87L320.725 263.715C320.897 263.624 321.069 263.534 321.242 263.445L321.546 263.293C321.724 263.203 321.902 263.114 322.081 263.027L322.334 262.906C322.53 262.812 322.728 262.717 322.927 262.625L323.146 262.525C323.352 262.431 323.559 262.337 323.767 262.246L324.026 262.134C324.218 262.051 324.409 261.968 324.602 261.888L324.929 261.754C325.107 261.681 325.286 261.608 325.466 261.537L325.781 261.415C325.965 261.344 326.149 261.273 326.334 261.204L326.664 261.084C326.846 261.018 327.027 260.951 327.21 260.888L327.568 260.765C327.739 260.707 327.911 260.647 328.084 260.591L328.457 260.472C328.636 260.414 328.816 260.356 328.997 260.301L329.286 260.214C329.489 260.153 329.69 260.093 329.893 260.035C330.023 259.998 330.153 259.963 330.283 259.928C330.446 259.882 330.61 259.836 330.774 259.792C330.935 259.75 331.097 259.71 331.258 259.669C331.405 259.632 331.551 259.593 331.698 259.557L332.139 259.454C332.3 259.416 332.462 259.378 332.624 259.341C332.769 259.308 332.916 259.278 333.061 259.248C333.223 259.213 333.386 259.178 333.549 259.145L334.017 259.054C334.172 259.024 334.327 258.993 334.482 258.965C334.658 258.933 334.836 258.904 335.013 258.874L335.418 258.805C335.598 258.775 335.78 258.749 335.962 258.722C336.098 258.701 336.234 258.68 336.371 258.66L336.842 258.598C337.005 258.577 337.168 258.554 337.331 258.534L337.726 258.49C337.915 258.469 338.103 258.446 338.293 258.428L338.667 258.394C338.863 258.375 339.06 258.357 339.257 258.341L339.27 258.34C339.581 258.315 339.894 258.292 340.207 258.274L340.236 258.272C340.552 258.253 340.87 258.237 341.188 258.224L341.207 258.223C341.528 258.21 341.85 258.201 342.173 258.194H342.183C342.509 258.188 342.836 258.184 343.164 258.184L343.425 258.185H343.479L343.686 258.187L343.793 258.188L343.946 258.19L344.107 258.193L344.206 258.195L344.42 258.2L344.725 258.208L344.733 258.209L344.984 258.217L345.046 258.219L345.243 258.227L345.357 258.232L345.501 258.239L345.668 258.247L345.759 258.251L345.813 258.254L346.017 258.266L346.274 258.282L346.29 258.282L346.531 258.299L346.787 258.317L346.909 258.326L347.044 258.337L347.299 258.358L347.525 258.378L347.555 258.38L347.81 258.404L347.833 258.406L348.064 258.429C352.998 258.927 357.712 260.169 362.093 262.041L362.092 262.042Z" fill="#FF5E04"/>
<path fill-rule="evenodd" clip-rule="evenodd" d="M113.176 353.212L126.298 318.507H126.299C129.95 308.095 124.546 296.533 114.159 292.69L100.193 287.521L100.194 287.518L95.7476 285.873L95.3758 273.912L90.0396 283.761C89.3251 282.79 83.9405 270.944 89.3738 261.165L112.438 219.651V219.65L104.86 287.199L114.821 290.886C120.566 293.012 124.92 297.297 127.306 302.487C129.644 307.574 130.09 313.531 128.102 319.172L134.851 321.661L121.909 356.643L114.73 353.945C113.471 356.3 111.796 358.389 109.807 360.12C105.63 363.755 100.079 365.807 94.1526 365.396C93.4477 365.35 92.9132 364.74 92.9599 364.035C92.9757 363.794 93.0579 363.573 93.1863 363.388L93.1925 363.389C93.3259 363.403 93.4581 363.418 93.5911 363.429L93.634 363.433C94.3277 363.495 95.0197 363.521 95.7093 363.511L95.7397 363.51C96.8578 363.492 97.9663 363.383 99.0548 363.184L99.0882 363.179L99.4629 363.107L99.5201 363.094C100.318 362.93 101.104 362.719 101.874 362.463L101.922 362.447C102.534 362.241 103.135 362.007 103.724 361.745L103.873 361.678L104.126 361.561L104.265 361.495L104.539 361.361L104.65 361.306L104.945 361.154L104.977 361.137C105.326 360.952 105.67 360.759 106.009 360.554L106.043 360.533L106.312 360.366L106.433 360.291L106.666 360.14L106.824 360.035L107.03 359.895L107.186 359.787L107.42 359.621L107.473 359.583L107.762 359.369C107.873 359.285 107.984 359.2 108.093 359.114L108.332 358.922L108.444 358.832L108.649 358.66L108.802 358.529L108.975 358.378L109.161 358.211L109.316 358.071L109.472 357.923L109.667 357.739L109.669 357.737C109.77 357.639 109.87 357.541 109.968 357.441L109.969 357.441L110.079 357.327L110.28 357.12L110.445 356.942L110.581 356.794L110.759 356.595L110.884 356.452L111.052 356.256L111.201 356.078L111.337 355.912L111.504 355.701L111.628 355.543L111.636 355.533C111.722 355.421 111.808 355.307 111.892 355.193L111.907 355.172L111.96 355.097L112.169 354.805L112.276 354.65L112.433 354.418L112.539 354.256L112.698 354.008L112.796 353.851L112.946 353.606L113.041 353.446L113.177 353.211L113.176 353.212Z" fill="#D90324"/>
<path fill-rule="evenodd" clip-rule="evenodd" d="M228.331 68.8385C230.658 68.8385 232.915 71.3923 232.915 74.3785V82.7926C232.915 88.8946 227.947 93.8176 221.854 93.818L221.849 97.4007C221.849 117.431 205.611 133.669 185.581 133.669C165.551 133.669 149.313 117.431 149.313 97.4007V93.818C143.221 93.818 138.256 88.8925 138.256 82.7926V74.3785C138.256 72.1127 139.36 70.0958 141.057 68.8385H149.314V48.1191C149.314 48.1191 161.616 32.2549 170.296 34.0091C175.485 36.5505 182.779 37.7086 188.826 37.0716C193.318 36.5984 197.131 35.2794 199.049 34.0362C203.14 31.3832 218.291 46.4729 221.94 48.9267C222.005 53.5053 221.989 60.6737 221.912 68.8389H228.332L228.331 68.8385Z" fill="#EBA884"/>
<path fill-rule="evenodd" clip-rule="evenodd" d="M149.312 48.1207V73.129V76.1715C149.312 76.1715 140.336 77.8399 141.101 67.514C141.866 57.1881 138.109 48.3488 142.375 39.2219C145.288 32.9869 147.222 29.889 149.863 27.8137C145.062 23.4026 146.626 12.5835 147.381 10.6513C147.672 9.91838 147.929 9.65073 148.581 9.61905C149.15 9.61071 149.432 10.0501 149.44 10.6187C149.441 10.6533 148.699 22.307 154.159 25.2861C154.005 23.2963 148.871 11.7894 157.269 3.36906C165.802 -5.1859 175.533 6.46821 175.262 7.0752C174.992 7.68219 194.594 7.75681 207.753 15.0182C220.911 22.2791 228.113 30.9437 228.337 46.996C228.562 63.0483 228.931 59.5547 228.015 72.5054C227.752 76.2244 221.849 77.4655 221.849 74.4968C221.977 64.0396 222.017 54.5392 221.939 48.9283C218.289 46.4745 203.139 31.3848 199.047 34.0374C197.129 35.281 193.317 36.6 188.825 37.0732C182.777 37.7102 175.484 36.5521 170.294 34.0108C161.615 32.2565 149.312 48.1207 149.312 48.1207V48.1203V48.1207Z" fill="#241813"/>
<path d="M141.755 79.2925C141.816 78.9444 142.148 78.711 142.496 78.7719C142.844 78.8327 143.078 79.165 143.017 79.5131C143.013 79.5331 141.689 86.649 145.382 88.196C145.708 88.3315 145.863 88.7059 145.727 89.0319C145.592 89.3579 145.217 89.513 144.891 89.3775C140.233 87.4252 141.751 79.3155 141.755 79.2925H141.755Z" fill="#C98560"/>
<path d="M195.733 55.2282C200.872 55.2136 206.06 54.9013 211.028 56.4355C212.93 57.0229 215.601 56.1583 217.006 54.8346C218.402 53.5198 217.84 52.1457 216.144 51.6246C210.566 49.9012 204.717 50.1476 198.951 50.1634C197.01 50.1688 194.512 50.7625 193.384 52.528C192.32 54.2056 194.284 55.2315 195.733 55.229V55.2282Z" fill="#241813"/>
<path d="M159.317 54.0359C164.213 53.8341 169.109 53.6591 174.01 53.8733C176.426 53.9801 179.902 52.8932 181.482 50.9555C183.198 48.8452 180.009 48.3016 178.59 48.2395C173.689 48.0252 168.792 48.2007 163.896 48.4021C161.392 48.5059 158.101 49.2634 156.424 51.3195C154.766 53.3585 157.834 54.0976 159.317 54.0359Z" fill="#241813"/>
<path d="M164.189 70.7147C164.189 72.9242 165.983 74.7151 168.19 74.7151C170.402 74.7151 172.191 72.9242 172.191 70.7147C172.191 68.5039 170.402 66.7134 168.19 66.7134C165.983 66.7134 164.189 68.5039 164.189 70.7147Z" fill="black"/>
<path d="M198.976 70.7147C198.976 72.9242 200.764 74.7151 202.976 74.7151C205.188 74.7151 206.978 72.9242 206.978 70.7147C206.978 68.5043 205.188 66.7134 202.976 66.7134C200.764 66.7134 198.976 68.5043 198.976 70.7147Z" fill="black"/>
<path d="M186.956 113.955C185.575 113.955 184.194 113.955 182.814 113.955C182.104 113.955 183.008 116.137 183.709 116.137C185.09 116.137 186.47 116.137 187.846 116.137C188.561 116.137 187.652 113.955 186.957 113.955H186.956ZM171.476 106.39C171.972 111.927 180.791 112.412 184.827 112.511C188.2 112.594 191.653 112.257 194.915 111.391C197.113 110.809 199.826 109.815 200.871 107.618C201.454 106.396 199.393 105.127 198.775 106.427C197.993 108.075 195.712 108.721 194.112 109.179C191.507 109.923 188.759 110.18 186.062 110.246C183.383 110.31 180.669 110.106 178.068 109.466C176.551 109.093 173.921 108.361 173.751 106.472C173.63 105.11 171.339 104.843 171.476 106.39V106.39Z" fill="black"/>
<path fill-rule="evenodd" clip-rule="evenodd" d="M209.34 143.406V135.886C221.539 138.35 229.624 143.655 229.624 152.069C229.624 159.433 224.277 167.391 215.721 173.527C214.719 174.245 213.588 174.488 212.38 174.242C211.173 173.996 210.226 173.332 209.584 172.28L209.025 171.363L209.236 171.252C203.066 174.481 194.755 176.461 185.612 176.461C176.573 176.461 168.349 174.526 162.201 171.362L161.64 172.282C160.998 173.334 160.051 173.998 158.844 174.243C157.636 174.488 156.505 174.247 155.504 173.529C146.946 167.392 141.599 159.434 141.599 152.069C141.599 143.655 149.684 138.35 161.884 135.887V143.406H209.34H209.34V143.406Z" fill="#D90324"/>
<path fill-rule="evenodd" clip-rule="evenodd" d="M213.842 151.177C215.176 153.076 215.909 155.141 215.909 157.302C215.909 166.603 202.344 174.142 185.61 174.142C168.878 174.142 155.312 166.603 155.312 157.302C155.312 155.141 156.045 153.076 157.379 151.177H161.883C161.916 164.188 172.58 170.575 185.61 170.575H185.611C198.641 170.575 209.305 164.188 209.337 151.177H213.842H213.842Z" fill="#AD041E"/>
<path fill-rule="evenodd" clip-rule="evenodd" d="M209.338 124.805V151.12C209.338 164.17 198.661 170.575 185.611 170.575H185.61C172.56 170.575 161.883 164.169 161.883 151.12V124.857C168.239 130.348 176.522 133.67 185.581 133.67C194.668 133.67 202.974 130.327 209.338 124.805Z" fill="#EBA884"/>
<path fill-rule="evenodd" clip-rule="evenodd" d="M209.34 124.805V136.959C203.02 149.437 169.664 154.678 161.885 124.859L161.987 124.945L162.381 125.278L162.646 125.497C162.798 125.621 162.951 125.744 163.106 125.866L163.314 126.03C163.464 126.146 163.612 126.26 163.763 126.374L164.011 126.56C164.156 126.667 164.301 126.772 164.447 126.877L164.677 127.041C164.838 127.156 165.002 127.268 165.166 127.38L165.412 127.547C165.578 127.659 165.744 127.769 165.912 127.877L166.16 128.035C166.34 128.15 166.521 128.263 166.704 128.375L166.87 128.476C167.055 128.587 167.239 128.697 167.426 128.805L167.625 128.919C167.808 129.023 167.99 129.126 168.174 129.226L168.377 129.337C168.568 129.44 168.76 129.542 168.953 129.641L169.183 129.759C169.384 129.861 169.584 129.961 169.787 130.059L169.977 130.15C170.175 130.245 170.374 130.338 170.574 130.429L170.756 130.511C170.959 130.602 171.163 130.691 171.368 130.778L171.55 130.855C171.764 130.945 171.979 131.032 172.194 131.118L172.329 131.172C172.558 131.262 172.788 131.349 173.02 131.434L173.21 131.504C173.437 131.587 173.665 131.667 173.894 131.745L174.035 131.792C174.265 131.87 174.497 131.945 174.73 132.018L174.869 132.062C175.107 132.135 175.347 132.206 175.587 132.275L175.695 132.306C175.942 132.376 176.191 132.443 176.44 132.508L176.553 132.538C176.82 132.606 177.088 132.672 177.357 132.734L177.454 132.755C177.713 132.815 177.974 132.872 178.236 132.926L178.321 132.943C178.578 132.995 178.836 133.045 179.094 133.091L179.227 133.115C179.48 133.16 179.733 133.201 179.987 133.241L180.107 133.259C180.385 133.302 180.665 133.341 180.946 133.377L180.962 133.379L180.985 133.382C181.268 133.417 181.552 133.45 181.837 133.479L181.935 133.489C182.205 133.517 182.475 133.54 182.748 133.561L182.844 133.568C183.115 133.588 183.385 133.605 183.657 133.62L183.763 133.625C184.042 133.639 184.322 133.649 184.603 133.657L184.671 133.659C184.973 133.666 185.276 133.67 185.581 133.67H185.582H185.582C185.888 133.67 186.194 133.667 186.499 133.659L186.549 133.657C186.831 133.65 187.114 133.64 187.394 133.625L187.512 133.619C187.792 133.605 188.069 133.587 188.347 133.566L188.392 133.563C188.669 133.542 188.946 133.517 189.221 133.49L189.329 133.479C189.617 133.45 189.903 133.417 190.189 133.38L190.193 133.38L190.201 133.379L190.221 133.376C190.505 133.34 190.787 133.301 191.068 133.258L191.166 133.242C191.426 133.202 191.686 133.159 191.945 133.114L192.065 133.092C192.325 133.045 192.584 132.996 192.843 132.943L192.935 132.924C193.197 132.87 193.457 132.814 193.717 132.754L193.803 132.734C194.079 132.67 194.354 132.603 194.628 132.533L194.63 132.532L194.646 132.529L194.683 132.518C194.951 132.449 195.218 132.376 195.484 132.301L195.551 132.282C195.809 132.209 196.066 132.133 196.321 132.053L196.416 132.023C196.662 131.947 196.906 131.867 197.15 131.785L197.26 131.748C197.51 131.663 197.761 131.575 198.009 131.484L198.075 131.461C198.328 131.368 198.579 131.273 198.829 131.174L198.956 131.123C199.192 131.03 199.426 130.934 199.659 130.836L199.761 130.792C199.991 130.694 200.221 130.594 200.449 130.491L200.568 130.438C200.79 130.337 201.011 130.233 201.231 130.128L201.358 130.067C201.584 129.958 201.809 129.846 202.033 129.732L202.119 129.688C202.355 129.567 202.589 129.444 202.822 129.318L202.942 129.251C203.163 129.131 203.381 129.009 203.599 128.885L203.685 128.835C203.907 128.707 204.128 128.576 204.347 128.443L204.432 128.391C204.648 128.259 204.862 128.126 205.075 127.99L205.164 127.933C205.383 127.793 205.6 127.649 205.816 127.504L205.859 127.476L205.893 127.453C206.111 127.305 206.328 127.155 206.544 127.002L206.576 126.979L206.62 126.947C206.826 126.801 207.03 126.651 207.232 126.5L207.351 126.412C207.545 126.266 207.738 126.118 207.929 125.968L208.009 125.905C208.211 125.745 208.411 125.585 208.61 125.421L208.678 125.365C208.889 125.191 209.099 125.013 209.307 124.833L209.32 124.822L209.341 124.804H209.34V124.805Z" fill="#C98560"/>
<path d="M184.939 72.1631C184.954 77.0782 185.419 81.9737 185.39 86.8972C185.371 89.5853 186.76 92.3247 186.123 94.946C185.748 96.5094 183.661 98.6343 181.857 98.9832C181.235 99.1024 181.876 99.6944 182.1 99.8245C182.64 100.138 183.297 100.298 183.909 100.179C185.698 99.8332 187.961 98.0956 188.471 96.5102C189.288 93.9547 187.879 91.1524 187.937 88.491C188.055 83.2949 187.516 78.1367 187.501 72.9494C187.496 72.0676 184.934 71.582 184.939 72.1635L184.939 72.1631Z" fill="black"/>
<path d="M227.878 79.5131C227.817 79.165 228.051 78.8327 228.399 78.7719C228.747 78.711 229.079 78.9444 229.14 79.2925C229.144 79.3155 230.662 87.4256 226.004 89.3775C225.678 89.513 225.304 89.3579 225.168 89.0319C225.033 88.7059 225.188 88.3315 225.514 88.196C229.206 86.649 227.882 79.5331 227.879 79.5131H227.878Z" fill="#C98560"/>
<path d="M175.045 183.551C175.191 182.857 175.873 182.412 176.568 182.558C177.263 182.703 177.708 183.385 177.562 184.078L175.045 183.551V183.551ZM174.66 265.577C175.345 266.219 175.676 267.199 175.443 268.177L173.324 277.03C173.093 278.001 172.362 278.724 171.469 278.989L171.251 279.67L171.023 280.394L170.803 281.109L170.593 281.817L170.396 282.522L170.21 283.229L170.038 283.94L167.532 283.363L167.716 282.602L167.914 281.85L168.122 281.106L168.341 280.368L168.567 279.632L168.799 278.894L168.942 278.449C168.201 277.811 167.834 276.791 168.077 275.776L170.194 266.922C170.435 265.917 171.21 265.179 172.146 264.937L172.235 264.182L172.363 262.906L172.471 261.568L172.559 260.165L172.625 258.692L172.668 257.148L172.686 255.529L172.676 253.832L172.64 252.052L172.574 250.188L172.476 248.236L175.044 248.091L175.143 250.079L175.21 251.98L175.248 253.798L175.257 255.536L175.238 257.197L175.194 258.785L175.127 260.303L175.035 261.752L174.924 263.138L174.791 264.461L174.658 265.577H174.66ZM175.044 248.091L172.477 248.236L172.359 246.256L172.235 244.326L172.105 242.439L171.972 240.591L171.838 238.776L171.705 236.989L171.575 235.225L171.45 233.479L171.331 231.744L171.222 230.017L171.122 228.291L171.036 226.563L170.965 224.826L170.91 223.076L170.874 221.307L170.859 219.515L170.866 217.695L170.899 215.841L170.958 213.949L171.045 212.013L171.164 210.028L171.315 207.99L171.501 205.894L171.723 203.734L171.984 201.505L172.284 199.203L172.628 196.821L173.015 194.355L173.449 191.801L173.93 189.152L174.462 186.403L175.045 183.549L177.562 184.076L176.984 186.903L176.458 189.625L175.981 192.244L175.553 194.769L175.17 197.203L174.832 199.551L174.535 201.82L174.279 204.014L174.06 206.138L173.878 208.198L173.729 210.2L173.613 212.147L173.527 214.046L173.469 215.903L173.437 217.722L173.43 219.509L173.445 221.27L173.48 223.009L173.534 224.733L173.604 226.446L173.69 228.154L173.788 229.862L173.896 231.576L174.015 233.299L174.139 235.039L174.269 236.8L174.402 238.586L174.536 240.404L174.669 242.259L174.8 244.155L174.926 246.097L175.044 248.091V248.091ZM170.038 283.939C169.879 284.63 169.188 285.061 168.496 284.903C167.805 284.744 167.373 284.054 167.532 283.363L170.038 283.939Z" fill="#FF5E04"/>
<path d="M196.34 184.304L193.796 184.676C193.693 183.974 194.18 183.322 194.882 183.219C195.585 183.117 196.238 183.602 196.34 184.304ZM210.022 236.182C210.742 236.741 211.161 237.651 211.049 238.623L210.004 247.666C209.899 248.576 209.352 249.328 208.602 249.732L208.512 250.231L208.368 251.049L208.227 251.891L208.091 252.762L207.962 253.67L207.84 254.62L207.728 255.617L207.626 256.669L207.537 257.78L207.461 258.957L204.893 258.812L204.972 257.595L205.065 256.442L205.171 255.35L205.288 254.313L205.414 253.326L205.549 252.384L205.689 251.483L205.834 250.616L205.981 249.779L205.995 249.704C205.082 249.186 204.518 248.156 204.646 247.048L205.69 238.005C205.811 236.958 206.517 236.121 207.443 235.781L207.411 234.778L207.347 233.515L207.258 232.174L207.141 230.748L206.995 229.231L206.818 227.619L206.609 225.906L209.159 225.579L209.372 227.323L209.553 228.967L209.703 230.519L209.823 231.983L209.914 233.366L209.979 234.672L210.019 235.907L210.023 236.183L210.022 236.182ZM206.608 225.905L206.368 224.199L206.102 222.577L205.809 221.034L205.491 219.564L205.151 218.162L204.791 216.821L204.411 215.535L204.014 214.299L203.602 213.106L203.175 211.95L202.736 210.826L202.286 209.728L201.827 208.651L201.359 207.587L200.886 206.531L200.408 205.479L199.928 204.424L199.446 203.36L198.967 202.283L198.489 201.188L198.018 200.067L197.555 198.918L197.1 197.734L196.657 196.51L196.229 195.241L195.817 193.922L195.423 192.549L195.048 191.115L194.697 189.616L194.37 188.046L194.069 186.402L193.795 184.677L196.339 184.305L196.603 185.971L196.893 187.554L197.208 189.061L197.545 190.499L197.903 191.871L198.28 193.185L198.675 194.448L199.085 195.663L199.51 196.838L199.947 197.978L200.396 199.09L200.854 200.178L201.32 201.249L201.792 202.309L202.269 203.363L202.749 204.417L203.23 205.476L203.71 206.546L204.187 207.632L204.659 208.739L205.124 209.873L205.579 211.04L206.024 212.243L206.454 213.488L206.869 214.781L207.266 216.126L207.643 217.528L207.997 218.993L208.328 220.525L208.633 222.13L208.911 223.813L209.158 225.579L206.608 225.905L206.608 225.905ZM204.893 258.812L207.46 258.957C207.42 259.665 206.812 260.207 206.104 260.167C205.395 260.128 204.853 259.52 204.893 258.812Z" fill="#FF5E04"/>
<path d="M157.715 185.463C158.364 185.74 158.667 186.491 158.391 187.14C158.114 187.79 157.363 188.093 156.713 187.816C149.568 184.764 143.536 180.349 139.256 175.483C134.786 170.399 132.199 164.786 132.199 159.649C132.199 158.942 132.773 158.368 133.48 158.368C134.188 158.368 134.762 158.942 134.762 159.649C134.762 164.153 137.114 169.169 141.178 173.792C145.223 178.391 150.936 182.568 157.715 185.464V185.463Z" fill="#D90324"/>
<path d="M214.646 187.76C213.997 188.039 213.243 187.739 212.964 187.089C212.685 186.44 212.985 185.686 213.635 185.407C220.388 182.5 226.072 178.33 230.088 173.747C234.126 169.139 236.461 164.141 236.461 159.649C236.461 158.942 237.035 158.368 237.743 158.368C238.45 158.368 239.024 158.942 239.024 159.649C239.024 164.766 236.454 170.358 232.01 175.429C227.75 180.291 221.749 184.702 214.646 187.76Z" fill="#D90324"/>
<path d="M255.088 300.501C225.121 300.573 214.292 304.311 203.583 308.01C192.895 311.701 182.314 315.354 153.872 315.428L137.699 358.797C135.62 364.372 131.456 368.602 126.419 370.918C121.387 373.231 115.483 373.637 109.912 371.575C109.249 371.332 108.908 370.596 109.151 369.933C109.394 369.27 110.13 368.929 110.793 369.172C115.711 370.992 120.92 370.634 125.358 368.595C129.801 366.552 133.473 362.822 135.306 357.906L151.751 313.807C151.765 313.758 151.781 313.71 151.8 313.664L155.634 302.961C155.872 302.295 156.605 301.947 157.271 302.185C157.937 302.423 158.285 303.156 158.047 303.822L154.808 312.862C182.149 312.711 192.399 309.173 202.752 305.598C213.675 301.825 224.719 298.012 255.07 297.939L258.62 288.031C258.857 287.365 259.591 287.018 260.257 287.255C260.923 287.493 261.27 288.226 261.033 288.893L257.335 299.216L271.168 336.313C272.707 340.438 275.788 343.568 279.516 345.282C281.131 346.025 282.868 346.501 284.654 346.679C285.358 346.616 285.979 347.137 286.042 347.841C286.139 348.968 285.048 349.275 284.922 349.268C282.673 349.107 280.481 348.536 278.455 347.605C274.132 345.618 270.559 341.988 268.775 337.204L255.089 300.502L255.088 300.501Z" fill="#D90324"/>
<path d="M281.916 269.985C281.93 270.69 281.369 271.273 280.665 271.287C279.96 271.3 279.377 270.74 279.363 270.035L278.592 235.34C278.578 234.635 279.139 234.053 279.843 234.039C280.548 234.025 281.131 234.585 281.145 235.29L281.916 269.985Z" fill="#D90324"/>
<path d="M228.694 65.7823C229.259 65.9453 229.584 66.5365 229.421 67.1005C229.258 67.665 228.666 67.9897 228.102 67.8267L219.035 65.197C219.509 66.8249 219.509 68.4721 219.509 69.892C219.509 72.1374 219.509 75.4879 217.594 78.3919C215.68 81.2939 211.934 83.6114 204.552 83.6114C197.171 83.6114 193.424 81.2935 191.512 78.3919C189.597 75.4879 189.596 72.1374 189.596 69.892L189.598 69.2316C188.055 68.3603 186.558 67.9597 185.105 67.9789C183.681 67.9977 182.269 68.4225 180.866 69.2033L180.868 69.8924C180.868 72.1403 180.868 75.4887 178.952 78.3882C177.04 81.2835 173.295 83.5951 165.911 83.5951C158.528 83.5951 154.783 81.2839 152.871 78.3882C150.956 75.4887 150.955 72.1403 150.955 69.8924C150.955 68.4358 150.954 66.7441 151.41 65.1065L140.164 67.8397C139.593 67.9776 139.018 67.6266 138.88 67.0555C138.742 66.4844 139.093 65.9086 139.664 65.7706L152.555 62.6377C154.325 60.1085 158.054 58.1558 165.911 58.1558C173.239 58.1558 176.97 59.9334 178.889 62.2963C180.063 63.7404 180.54 65.3396 180.735 66.8791C182.152 66.225 183.599 65.8719 185.079 65.8524C186.609 65.8319 188.154 66.1679 189.714 66.8958C190.189 62.6928 192.573 58.1558 204.552 58.1558C211.88 58.1558 215.611 59.9334 217.531 62.2963C217.617 62.4022 217.699 62.5093 217.778 62.6173L228.693 65.7831L228.694 65.7823ZM215.88 63.6391C214.327 61.7289 211.113 60.2915 204.553 60.2915C191.733 60.2915 191.733 66.0762 191.733 69.8924C191.733 71.8876 191.734 74.8642 193.29 77.2242C194.848 79.5876 198.048 81.4757 204.553 81.4757C211.059 81.4757 214.258 79.5876 215.817 77.2242C217.373 74.8642 217.374 71.8876 217.374 69.8924C217.374 67.9376 217.374 65.4784 215.88 63.6391ZM177.239 63.6391C175.687 61.7285 172.472 60.2915 165.913 60.2915C153.093 60.2915 153.093 66.0762 153.093 69.8924C153.093 71.8856 153.093 74.8555 154.649 77.2117C156.209 79.5734 159.409 81.459 165.913 81.459C172.417 81.459 175.617 79.5734 177.176 77.2117C178.733 74.8555 178.733 71.8856 178.733 69.8924C178.733 67.9376 178.733 65.4784 177.239 63.6391Z" fill="#160045"/>
<path fill-rule="evenodd" clip-rule="evenodd" d="M112.592 400.209L110.343 434.816L98.4597 554.734L64.0947 747.794C64.2323 753.798 124.744 755.347 130.768 747.794L167.029 591.493L194.156 462.981L198.657 591.764L196.559 749.503C193.657 752.276 255.333 755.407 258.534 749.503L271.208 553.791L269.21 377.473C268.61 377.611 267.991 377.697 267.357 377.727C217.107 380.115 167.691 409.305 115.134 400.838H115.134C114.253 400.696 113.401 400.485 112.592 400.208L112.592 400.209Z" fill="#6934D9"/>
<path fill-rule="evenodd" clip-rule="evenodd" d="M194.156 462.98L198.656 591.763L196.559 749.502C195.882 750.15 199.145 750.817 204.583 751.384L207.61 581.951L199.226 445.053L194.156 462.98Z" fill="#2B0087"/>
<path d="M70.2312 750.714C70.1045 751.408 69.4383 751.867 68.7446 751.74C68.0509 751.613 67.5915 750.947 67.7187 750.253L103.328 557.059L118.726 401.355C119.573 401.465 120.419 401.565 121.265 401.656L105.867 557.356L70.2312 750.714V750.714Z" fill="#2B0087"/>
<path d="M115.949 448.027C115.286 448.268 114.552 447.925 114.311 447.262C114.071 446.598 114.414 445.865 115.077 445.624L124.626 442.173L130.849 402.309C131.709 402.335 132.567 402.352 133.425 402.361L127.042 443.246C126.994 443.719 126.683 444.147 126.206 444.32L115.949 448.027H115.949Z" fill="#2B0087"/>
<path d="M189.425 427.953C189.423 428.658 188.849 429.227 188.144 429.224C187.439 429.222 186.87 428.648 186.873 427.943L187.075 394.638C187.928 394.425 188.78 394.209 189.632 393.992L189.426 427.953H189.425Z" fill="#2B0087"/>
<path d="M195.386 463.326C195.196 464.005 194.489 464.402 193.809 464.211C193.129 464.021 192.733 463.314 192.923 462.634L197.949 444.864L198.117 391.771L200.672 391.088L200.502 444.972C200.51 445.112 200.497 445.255 200.457 445.398L195.386 463.326Z" fill="#2B0087"/>
<path fill-rule="evenodd" clip-rule="evenodd" d="M115.133 400.839C167.69 409.306 217.106 380.116 267.356 377.728C272.533 377.482 276.767 373.493 276.774 368.308L276.138 368.368V368.369L275.477 368.437V368.438L274.792 368.514V368.515L274.083 368.599V368.599L273.35 368.692V368.692L272.594 368.792V368.792L271.814 368.899V368.9L271.011 369.014V369.014L270.184 369.136V369.136L269.335 369.264V369.264L268.463 369.399V369.4L267.569 369.541V369.542L266.652 369.69V369.69L265.713 369.845V369.845L264.753 370.005V370.006L263.77 370.172V370.173L262.766 370.345V370.345L261.741 370.523V370.524L260.695 370.707V370.708L259.627 370.897V370.897L258.539 371.091V371.092L257.43 371.29V371.291L256.301 371.495V371.496L255.152 371.704V371.705L253.983 371.918V371.919L252.793 372.137V372.138L251.585 372.36V372.36L250.357 372.587V372.587L249.109 372.818V372.818L247.843 373.053V373.053L246.558 373.292V373.292L245.254 373.534V373.534L243.932 373.779V373.78L242.592 374.028V374.028L241.233 374.28V374.28L239.857 374.535V374.536L238.462 374.793V374.793L237.051 375.053V375.054L235.622 375.316V375.316L234.175 375.581V375.582L232.713 375.848V375.849L231.233 376.118V376.118L229.738 376.39V376.39L228.225 376.663V376.663L226.696 376.938V376.938L225.152 377.214V377.214L223.592 377.492V377.492L222.016 377.77V377.771L220.425 378.05V378.05L218.819 378.33V378.33L217.197 378.611V378.611L215.561 378.893V378.893L213.91 379.175V379.175L212.245 379.457V379.457L210.566 379.739V379.74L208.872 380.021V380.022L207.165 380.303V380.304L205.444 380.585V380.585L203.71 380.866V380.866L201.963 381.146V381.147L200.202 381.426V381.426L198.429 381.705V381.705L196.643 381.982V381.982L194.845 382.258V382.259L193.05 382.532V382.532L191.276 382.802V382.802L189.523 383.067V383.068L187.789 383.329V383.329L186.075 383.587V383.587L184.379 383.84V383.84L182.703 384.09V384.09L181.044 384.335V384.336L179.403 384.577V384.577L177.78 384.814V384.815L176.174 385.047V385.048L174.585 385.277V385.277L173.011 385.502V385.502L171.455 385.723V385.724L169.913 385.94V385.941L168.387 386.153V386.154L166.876 386.362V386.363L165.38 386.567V386.568L163.897 386.768V386.768L162.428 386.964V386.965L160.973 387.157V387.157L159.53 387.345V387.346L158.1 387.529V387.53L156.683 387.709V387.71L155.277 387.885V387.885L153.882 388.056V388.057L152.499 388.224V388.224L151.127 388.387V388.387L149.765 388.546V388.547L148.412 388.701V388.701L147.07 388.852V388.852L145.737 388.998V388.998L144.413 389.14V389.14L143.097 389.278V389.278L141.788 389.412V389.412L140.488 389.541V389.541L139.195 389.666V389.666L137.909 389.787V389.787L136.63 389.904V389.904L135.357 390.016V390.016L134.089 390.123V390.124L132.827 390.227V390.228L131.571 390.327V390.327L130.319 390.421V390.422L129.071 390.512V390.513L127.827 390.599V390.599L126.587 390.681V390.681L125.35 390.758V390.759L124.116 390.832V390.832L122.884 390.9V390.901L121.654 390.965V390.965L120.426 391.025V391.026L119.199 391.081V391.081L117.973 391.132V391.133L116.748 391.179V391.18L115.523 391.222V391.222L114.298 391.26V391.26L113.072 391.294V391.294L111.845 391.323V391.323L110.617 391.347V391.348L109.387 391.368V391.368L108.155 391.384V391.384L106.921 391.395V391.396L105.684 391.402V391.402C105.684 396.751 109.919 399.997 115.133 400.837H115.133L115.133 400.839Z" fill="#2B0087"/>
<path d="M112.592 400.209L110.343 434.816C106.382 474.789 102.421 514.761 98.4597 554.734L64.0947 747.794C64.2323 753.798 124.744 755.347 130.768 747.794L167.029 591.493L194.156 462.981L198.657 591.764L196.559 749.503C193.657 752.276 255.333 755.407 258.534 749.503L271.208 553.791L269.21 377.473" stroke="#2B0087" stroke-width="2.56303" stroke-miterlimit="22.9256" stroke-linecap="round" stroke-linejoin="round"/>
</g>
<defs>
<clipPath id="clip0_1481:7914">
<rect width="416.277" height="824.756" fill="white" transform="translate(0 0.243652)"/>
</clipPath>
</defs>
</svg>
