<svg width="733" height="437" viewBox="0 0 733 437" fill="none" xmlns="http://www.w3.org/2000/svg">
<g id="Group 1000006130">
<g id="&#208;&#160;&#208;&#181;&#209;&#129;&#209;&#131;&#209;&#128;&#209;&#129; 1 4" clip-path="url(#clip0_1537_7310)">
<g id="Group 81">
<path id="Vector" d="M573.812 64.1709C573.812 64.1709 623.736 60.6416 643.861 111.519C662.282 154.922 640.898 201.15 627.588 214.315" stroke="#274D79" stroke-width="1.37458" stroke-miterlimit="10"/>
<path id="Vector_2" d="M562.282 81.5524C556.872 83.7575 548.356 62.8261 553.766 60.621L561.306 57.5653C564.078 56.4383 567.185 56.4577 569.943 57.6192C572.701 58.7806 574.886 60.9892 576.017 63.76C576.579 65.1341 576.864 66.6056 576.856 68.0901C576.848 69.5746 576.547 71.0429 575.971 72.4108C575.394 73.7788 574.553 75.0194 573.496 76.0615C572.438 77.1037 571.186 77.9268 569.81 78.4839L562.282 81.5524Z" fill="#FFC8D2"/>
<path id="Vector_3" d="M553.765 60.6197C548.277 62.511 556.872 83.7562 562.281 81.5511C566.443 79.8222 557.743 59.2348 553.765 60.6197Z" fill="#FD6580"/>
<path id="Vector_4" d="M556.435 69.4948C555.778 69.8006 554.896 69.2524 554.437 68.2797C553.978 67.307 554.169 66.2776 554.749 66.0445C555.329 65.8113 556.3 66.2748 556.735 67.2468C557.169 68.2188 557.167 69.1662 556.435 69.4948Z" fill="#E2C6CB"/>
<path id="Vector_5" d="M559.648 76.7907C558.991 77.0965 558.096 76.5604 557.65 75.5756C557.204 74.5908 557.369 73.5857 558.026 73.2799C558.682 72.9741 559.565 73.5223 560.012 74.4822C560.458 75.4421 560.292 76.4971 559.648 76.7907Z" fill="#E2C6CB"/>
</g>
<g id="&#209;&#128;&#209;&#131;&#208;&#186;&#208;&#176;">
<path id="Vector_6" fill-rule="evenodd" clip-rule="evenodd" d="M626.519 126.972L626.977 124.523C630.57 122.083 635.937 117.313 638.627 112.641L639.823 108.796L646 103.605L645.999 103.604C648.473 102.025 647.123 97.7851 643.047 98.6921L644.081 97.821L644.08 97.82C646.554 96.2402 645.203 92.0007 641.128 92.9076C643.602 91.3279 642.251 87.0881 638.175 87.9952L635.276 90.1466L641.549 85.4914C644.605 83.4292 641.66 78.6986 637.681 81.0398L622.682 89.3279L613.56 100.965C613.294 101.316 612.747 101.247 612.692 100.814C612.295 98.0813 611.708 96.4352 610.918 94.7606C607.032 86.5347 602.536 90.3537 603.534 94.2337C605.886 108.59 602.322 106.789 605.979 116.004L604.813 122.818L626.519 126.972L626.519 126.972Z" fill="#EBA884"/>
</g>
<g id="Objects">
<path id="Vector_7" d="M729.587 395.466H2.76679C2.03138 395.461 1.32767 395.166 0.809296 394.644C0.290922 394.122 -1.47294e-05 393.417 5.59299e-10 392.681C5.59298e-10 391.948 0.2915 391.244 0.810374 390.725C1.32925 390.206 2.03299 389.915 2.76679 389.915H729.587C730.321 389.915 731.025 390.206 731.544 390.725C732.062 391.244 732.354 391.948 732.354 392.681C732.356 393.046 732.286 393.408 732.148 393.746C732.01 394.083 731.807 394.39 731.55 394.649C731.293 394.908 730.987 395.113 730.65 395.253C730.313 395.394 729.952 395.466 729.587 395.466Z" fill="#638BE2"/>
<path id="Vector_8" d="M364.794 366.299C370.733 371.075 387.704 390.267 452.433 390.267C470.496 390.267 490.004 391.024 505.847 386.742C546.803 375.622 573.607 360.713 573.607 360.713L494.393 333.768L423.372 334.173L364.794 366.299Z" fill="#381386"/>
<path id="Vector_9" d="M419.3 354.985L388.319 360.871L389.447 377.754L424.164 376.891L419.3 354.985Z" fill="#FF9A8D"/>
<path id="Vector_10" d="M419.301 354.986C419.301 354.986 505.15 328.527 528.5 322.5C555.234 315.698 585.044 302.575 598.719 319.669C612.395 336.764 595.008 366.043 558 376C520.992 385.957 420.446 378.512 420.446 378.512L419.301 354.986Z" fill="#6934D9"/>
<path id="Vector_11" d="M359.172 350.562C358.242 354.521 355.249 356.442 355.501 360.5C354.501 377.5 358.501 388 362.944 389.086C366.143 382.896 367.668 375.976 367.367 369.014C367.402 365.531 366.688 362.081 365.275 358.898C363.861 355.714 361.78 352.872 359.172 350.562Z" fill="#8FC9C6"/>
<path id="Vector_12" d="M404.093 378.125C399.247 378.636 391.14 382.425 386.153 385.068C381.166 387.712 378.522 390.461 369.658 390.355C369.658 390.355 369.658 366.881 368.671 359.638C367.684 352.395 366.257 351.126 366.257 351.126C366.257 351.126 374.469 351.655 378.593 353.84C382.717 356.026 383.14 357.03 390.365 357.365C397.59 357.7 400.533 358.035 403.67 357.982C405.52 361 406.534 364.456 406.609 367.996C406.683 371.536 405.815 375.031 404.093 378.125Z" fill="#03AA99"/>
<path id="Vector_13" d="M383.104 380.909C383.104 380.909 385.853 368.714 381.817 360.378" stroke="#AAEEED" stroke-width="1.6213" stroke-miterlimit="10" stroke-linecap="round"/>
<path id="Vector_14" d="M388.197 379.481C389.697 373.455 389.259 367.11 386.946 361.347" stroke="#AAEEED" stroke-width="1.6213" stroke-miterlimit="10" stroke-linecap="round"/>
<path id="Vector_15" d="M393.924 377.173C393.924 377.173 396.338 370.988 393.131 361.841" stroke="#AAEEED" stroke-width="1.6213" stroke-miterlimit="10" stroke-linecap="round"/>
<path id="Vector_16" d="M369.658 390.39C366.838 390.39 363.419 390.267 362.944 389.086C362.468 387.905 365.746 380.909 364.442 367.022C363.737 359.568 358.503 350.809 359.155 350.562C359.807 350.316 363.948 348.8 366.204 351.161C368.46 353.523 380.144 368.767 369.658 390.39Z" fill="#AAEEED"/>
<path id="Vector_17" d="M489.211 134.823C488.376 134.739 487.532 134.855 486.751 135.162C485.969 135.468 485.272 135.956 484.717 136.586C484.364 137.044 485.281 137.573 485.668 137.308C487.783 135.846 490.621 135.017 492.471 137.467C492.577 137.59 492.63 137.467 492.594 137.326C492.324 136.632 491.862 136.029 491.264 135.586C490.665 135.143 489.953 134.879 489.211 134.823Z" fill="#BA5964"/>
<path id="Vector_18" d="M488.153 135.316C487.853 135.316 487.431 136.039 487.519 136.215C488.104 136.341 488.646 136.621 489.087 137.026C489.768 137.696 490.197 138.579 490.303 139.528C490.552 140.609 490.427 141.742 489.946 142.741C489.466 143.741 488.659 144.547 487.66 145.027V145.185C489.774 145.185 491.501 142.559 491.519 140.674C491.537 138.788 490.708 135.739 488.153 135.316Z" fill="#BA5964"/>
<path id="Vector_19" d="M440 188.5C448 190.564 448.396 192.126 460.462 192.688C472.528 193.25 473.854 192.044 475.5 188.5C485.533 189.43 506.847 185.27 511.166 186.064C517.228 187.149 535.169 197.438 533 214.5C530.889 231.079 515 326 515 326C515 326 452.486 338.434 405.5 326C405.5 326 383.057 221.839 380.5 212C377.944 202.162 390.817 196.9 397.499 192.688C404.182 188.476 432 186.436 440 188.5Z" fill="#F32D2D"/>
<path id="Vector_20" d="M505.847 359.814L536.246 368.168L533.779 384.892L499.238 381.262L505.847 359.814Z" fill="#FF9A8D"/>
<path id="Vector_21" d="M505.5 346C505.5 346 437.906 326.481 412 317C386.094 307.519 346.13 297.747 331.133 313.696C316.136 329.645 328.666 353.383 364.722 366.3C400.779 379.218 505.5 389.5 505.5 389.5C508.579 382.127 506.548 353.921 505.5 346Z" fill="#6934D9"/>
<path id="Vector_22" d="M566.118 360.22C569 361 569.672 371.448 569 377.948C568.154 386.125 563.5 399.5 559.245 398.32C556.556 391.889 555.59 384.867 556.443 377.948C556.691 374.473 557.684 371.091 559.353 368.032C561.022 364.973 563.329 362.309 566.118 360.22Z" fill="#8FC9C6"/>
<path id="Vector_23" d="M519.135 384.098C523.946 384.997 531.718 389.385 536.476 392.452C541.234 395.518 543.648 398.426 552.495 399.078C552.495 399.078 554.416 375.692 555.932 368.52C557.447 361.347 559.033 360.237 559.033 360.237C559.033 360.237 550.786 360.114 546.539 361.999C542.291 363.885 541.745 364.819 534.537 364.519C527.33 364.22 524.351 364.378 521.214 364.061C519.131 366.921 517.842 370.281 517.476 373.8C517.111 377.319 517.683 380.872 519.135 384.098Z" fill="#03AA99"/>
<path id="Vector_24" d="M539.859 388.54C539.859 388.54 538.097 376.204 542.767 368.186" stroke="#AAEEED" stroke-width="1.6213" stroke-miterlimit="10" stroke-linecap="round"/>
<path id="Vector_25" d="M539.489 270.484L550.838 275.895" stroke="#274D79" stroke-width="3.7008" stroke-miterlimit="10" stroke-linecap="round"/>
<path id="Vector_26" d="M534.696 279.895L546.045 285.322" stroke="#274D79" stroke-width="3.7008" stroke-miterlimit="10" stroke-linecap="round"/>
<path id="Vector_27" d="M376.16 319.67C391.104 321.837 417.556 322.384 440.942 301.219C459.763 284.177 476.945 251.663 520.668 265.973" stroke="#274D79" stroke-width="1.37458" stroke-miterlimit="10"/>
<path id="Vector_28" d="M541.251 264.386C546.414 267.118 535.841 287.085 530.677 284.353L523.487 280.546C520.84 279.146 518.857 276.752 517.975 273.89C517.093 271.028 517.383 267.933 518.782 265.285C520.186 262.637 522.583 260.654 525.448 259.772C528.313 258.889 531.41 259.18 534.061 260.58L541.251 264.386Z" fill="#FFBFCA"/>
<path id="Vector_29" d="M534.89 386.724C533.872 380.598 534.816 374.307 537.586 368.749" stroke="#AAEEED" stroke-width="1.6213" stroke-miterlimit="10" stroke-linecap="round"/>
<path id="Vector_30" d="M529.375 383.975C529.375 383.975 527.454 377.596 531.384 368.749" stroke="#AAEEED" stroke-width="1.6213" stroke-miterlimit="10" stroke-linecap="round"/>
<path id="Vector_31" d="M552.495 399.078C555.297 399.255 558.734 399.449 559.298 398.321C559.862 397.193 557.148 389.932 559.562 376.204C560.866 368.82 566.77 360.52 566.118 360.22C565.466 359.92 561.501 358.052 559.069 360.22C556.637 362.388 543.772 376.68 552.495 399.078Z" fill="#AAEEED"/>
<path id="Vector_32" fill-rule="evenodd" clip-rule="evenodd" d="M474.404 193.189L474.404 188C482.581 189.7 488 193.361 488 199.167C488 204.25 484.416 209.741 478.681 213.976C478.01 214.471 477.251 214.638 476.442 214.469C475.632 214.299 474.998 213.841 474.568 213.115L474.193 212.482L474.334 212.406C470.199 214.634 464.628 216 458.5 216C452.442 216 446.929 214.665 442.808 212.482L442.433 213.116C442.002 213.842 441.368 214.301 440.558 214.47C439.749 214.639 438.991 214.472 438.32 213.977C432.584 209.742 429 204.25 429 199.168C429 193.361 434.419 189.701 442.596 188L442.596 193.189L474.404 193.189L474.404 193.189L474.404 193.189Z" fill="#D90324"/>
<path id="Vector_33" d="M505.776 372.345H504.19C504.19 372.345 458.653 369.384 409.873 361.348C361.974 353.453 329.583 337.346 325.283 325.485C323.151 339.813 336.949 356.308 364.864 366.3C400.938 379.2 502.816 383.165 502.816 383.165C504.232 379.69 505.226 376.057 505.776 372.345Z" fill="#511FBB"/>
<g id="Group">
<path id="Vector_34" d="M496.788 355.708C496.788 362.017 495.431 376.186 492.664 384.892" stroke="#274D79" stroke-width="1.37458" stroke-miterlimit="10"/>
</g>
<path id="Vector_35" d="M284.2 347.29C288.938 346.326 297.24 345.495 303.126 350.642C306.901 353.942 305.106 354.509 301.806 354.456C296.131 354.351 291.617 359.102 291.617 359.102C291.617 359.102 284.253 359.947 282.445 354.1C279.779 345.614 284.2 347.29 284.2 347.29Z" fill="#E09B36"/>
<path id="Vector_36" d="M266.185 390.434H302.572C310.874 390.619 316.549 389.985 320.614 386.369C325.352 382.185 326.17 374.702 325.418 368.987C324.534 366.677 319.505 368.393 313.315 367.337C307.68 366.387 304.433 363.853 301.213 359.564C297.992 355.274 296.303 353.598 289.981 350.523C288.038 349.521 285.885 348.996 283.699 348.992C285.105 346.022 287.006 343.312 289.321 340.981C293.399 337.206 286.114 335.701 277.799 339.436C272.555 342.052 267.884 345.686 264.06 350.127C261.711 352.767 255.547 352.41 248.869 347.276C242.19 342.142 218.777 320.88 193.133 324.443C167.489 328.007 149.684 349.018 147.071 364.117C144.458 379.216 149.5 387.781 153.855 390.513L266.185 390.434Z" fill="#FABA50"/>
<ellipse id="Ellipse 5085" cx="455" cy="187.5" rx="47" ry="16.5" fill="#F32D2D"/>
<path id="Vector_37" d="M149.275 364.236C142.135 360.369 123.895 360.118 110.143 371.073C96.7465 381.75 91.1637 404.068 102.224 420.843C113.284 437.618 135.114 438.185 137.938 435.81C140.762 433.434 126.284 424.842 122.364 413.888C122.364 413.888 130.191 418.863 134.652 419.338C139.113 419.814 127.841 408.278 126.733 396.07C125.624 383.862 131.577 370.466 146.424 370.994L149.275 364.236Z" fill="#FABA50"/>
<path id="Vector_38" d="M324.406 379.116C323.348 379.328 323.736 373.442 322.449 374.006C321.163 374.57 323.242 377.53 323.242 377.53C319.577 376.614 314.431 371.345 316.458 368.084C318.484 364.824 324.547 366.322 325.956 366.833C328.089 367.767 329.551 374.869 324.406 379.116Z" fill="#001C45"/>
<path id="Vector_39" d="M182.748 350.134C185.394 350.511 187.882 351.623 189.928 353.344C191.974 355.064 193.496 357.324 194.322 359.867C197.521 368.915 193.963 374.348 191.325 377.267C191.325 377.267 203.191 376.144 208.467 379.625C213.743 383.105 213.272 389.896 213.272 389.896H216.145C216.145 389.896 216.269 381.589 210.712 378.109C206.782 375.45 202.091 374.15 197.353 374.404C198.307 371.947 198.757 369.324 198.676 366.689C198.595 364.055 197.985 361.463 196.882 359.07C193.143 350.796 186.048 349.662 182.748 350.134Z" fill="#E09B36"/>
<path id="Vector_40" fill-rule="evenodd" clip-rule="evenodd" d="M484 200.2C484 199.266 484 198.367 484 197.05C484 191.38 471.688 189 456.499 189C441.312 189 429 193.596 429 199.266C429 200.584 429.665 201.843 430.876 203L434.964 203C434.993 195.068 444.673 191.175 456.499 191.175C468.326 191.175 477.971 193.318 478 201.25L484 200.2Z" fill="#AD041E"/>
<path id="Vector_41" d="M443.5 172C443.409 176.42 443.312 183.312 442.703 187.69C441 190 442.703 193.581 431 195.622C431 195.622 435.742 211.025 456.031 213.701C476.32 216.377 484.58 200.224 483.968 200.224C481.164 199.335 478.46 198.154 475.899 196.7C474.082 195.526 475.421 173 475.421 173L443.5 172Z" fill="#EBA884"/>
<path id="Vector_42" d="M240.341 373.511C240.341 373.511 255.769 371.786 262.318 376.723C268.868 381.66 268.083 389.879 268.083 389.879H271.757C271.757 389.879 272.725 381.085 266.147 375.727C259.569 370.37 244.745 372.011 240.341 373.511Z" fill="#E09B36"/>
<path id="Vector_43" d="M288.046 360.343C288.046 360.343 287.236 355.515 292.946 354.246C299.114 352.871 300.77 357.488 300.77 357.488C298.427 356.749 295.924 356.682 293.545 357.295C291.509 357.891 289.631 358.932 288.046 360.343Z" fill="#001C45"/>
<path id="Vector_44" d="M311.343 39.1309L348.792 77.9012L336.244 91.9995L294.742 57.8464L311.343 39.1309ZM361.11 87.7347C362.194 88.6811 363.064 89.8463 363.665 91.1536C364.241 92.4139 364.575 93.7707 364.652 95.154C364.74 96.5323 364.56 97.9147 364.123 99.2249C363.677 100.574 362.957 101.816 362.009 102.873C361.071 103.962 359.911 104.84 358.608 105.446C357.356 106.034 356.005 106.381 354.625 106.468C353.246 106.554 351.864 106.375 350.554 105.939C349.193 105.48 347.94 104.749 346.871 103.789C344.73 101.891 343.426 99.2248 343.24 96.37C343.157 94.9873 343.33 93.601 343.751 92.2815C344.198 90.9232 344.918 89.6707 345.866 88.6009C346.815 87.5311 347.972 86.6666 349.267 86.0606C350.53 85.4879 351.885 85.1476 353.268 85.0561C354.665 84.9767 356.064 85.1621 357.392 85.6024C358.761 86.0568 360.026 86.7819 361.11 87.7347Z" fill="#B692F6"/>
<path id="Vector_45" d="M388.973 52.401L372.231 56.5776C371.221 53.6986 370.679 50.676 370.628 47.6252C370.618 45.4068 370.981 43.2026 371.703 41.1048C372.312 39.3894 373.212 37.7918 374.364 36.3818C375.395 35.1459 376.495 33.9692 377.659 32.8573C378.752 31.8351 379.703 30.8659 380.514 29.9495C381.283 29.1299 381.77 28.0867 381.906 26.9712C381.977 26.2566 381.868 25.5357 381.589 24.8741C381.268 24.0828 380.723 23.4028 380.021 22.9179C379.117 22.3163 378.085 21.9359 377.007 21.8077C375.457 21.6317 373.888 21.7634 372.39 22.1954C370.977 22.5674 369.588 23.0265 368.231 23.57C366.559 24.228 364.929 24.9872 363.349 25.8433C361.672 26.7352 360.048 27.7237 358.485 28.804C357.006 29.7978 355.619 30.9244 354.344 32.17L347.295 13.2959C348.335 12.2561 349.533 11.1635 350.819 10.0004C352.253 8.76888 353.779 7.64946 355.384 6.65203C357.22 5.49314 359.133 4.46267 361.111 3.56803C363.339 2.61604 365.645 1.85551 368.002 1.29468C371.899 0.277469 375.927 -0.144378 379.95 0.043453C383.658 0.227234 387.299 1.106 390.682 2.63402C393.94 4.13892 396.828 6.34075 399.141 9.08399C401.634 12.0962 403.385 15.6515 404.252 19.4639C405.008 22.0242 405.195 24.7189 404.798 27.3589C404.444 29.3385 403.681 31.2229 402.56 32.8925C401.457 34.4756 400.147 35.904 398.666 37.1396C397.15 38.3908 395.705 39.7125 394.313 41.0871C392.899 42.5088 391.683 44.1153 390.7 45.8629C389.608 47.8722 389.016 50.1147 388.973 52.401ZM394.753 64.8604C395.118 66.2588 395.178 67.7191 394.93 69.1428C394.694 70.5057 394.21 71.8138 393.502 73.0022C392.785 74.1817 391.852 75.2159 390.753 76.0509C389.61 76.9078 388.307 77.527 386.921 77.872C385.534 78.2171 384.093 78.281 382.682 78.0599C381.319 77.8441 380.009 77.3717 378.822 76.6677C377.647 75.9452 376.613 75.0135 375.773 73.9185C374.925 72.7682 374.325 71.4539 374.011 70.0591C373.657 68.6655 373.591 67.2144 373.817 65.7944C374.027 64.4133 374.5 63.0852 375.21 61.8821C375.925 60.7017 376.851 59.6624 377.941 58.8157C379.081 57.9272 380.396 57.2905 381.8 56.9477C383.183 56.5967 384.625 56.5426 386.03 56.7891C387.396 57.0233 388.706 57.5136 389.889 58.2342C391.081 58.9561 392.127 59.8945 392.973 61.001C393.822 62.1537 394.427 63.4667 394.753 64.8604Z" fill="#B692F6"/>
<path id="Vector_46" fill-rule="evenodd" clip-rule="evenodd" d="M484 199C484 200.334 484 201.618 484 203.5C484 211.6 471.688 215 456.499 215C441.312 215 429 208.434 429 200.334C429 198.452 429.665 196.653 430.876 195L434.964 195C434.993 206.331 444.673 211.893 456.499 211.893C468.326 211.893 477.971 208.831 478 197.5L484 199Z" fill="#AD041E"/>
<path id="Vector_47" d="M395.185 196.5C383.528 200.193 371.593 208.54 360.52 225.37C349.447 242.2 323.929 300.863 334.521 319.135C345.113 337.407 377.388 284.815 391.334 287.399L395.185 272.012L400 255.377L395.185 196.5Z" fill="#F32D2D"/>
<path id="Vector_48" d="M472.749 177.895C472.749 177.895 470.431 186.08 458.862 186.937C447.293 187.793 443 179.687 443 179.687L443.251 173.474L473 172L472.749 177.895Z" fill="#C98560"/>
<path id="Vector_49" d="M511.129 186.064C531.269 187.161 596.5 123.5 601.5 123.5C606.5 123.5 630.957 119.374 630 133.5C641.178 150.307 567.413 265.029 517.327 237.717L511.129 186.064Z" fill="#F32D2D"/>
</g>
<g id="Group 80">
<path id="Vector_50" fill-rule="evenodd" clip-rule="evenodd" d="M447.716 288.823C458.298 290.217 455.791 288.558 467.305 289.25L473.575 292.362C476.639 294.241 479.884 290.96 478.017 288.737L480.93 290.376C486.611 294.008 488.746 288.739 487.035 287.548C490.461 289.876 493.939 285.372 490.666 282.751C487.48 280.254 484.148 277.868 480.699 275.37C480.577 275.286 480.531 274.867 481.203 275.272C485.492 277.857 486.097 278.924 488.426 280.355C491.572 282.166 493.253 277.967 491.349 275.866C488.721 272.939 484.64 269.047 482.494 268.807L482.017 268.736C488.248 265.758 485.026 261.773 481.491 262.356C479.144 262.53 476.018 262.445 474.291 262.527C465.78 262.931 463.675 262.609 456.81 265.417L451.495 267.898L448.825 267.434L445.06 288.342L447.716 288.823L447.716 288.823Z" fill="#EBA884"/>
<path id="Vector_51" d="M469.719 266.179L476.179 267.046" stroke="#C98560" stroke-width="0.719949" stroke-miterlimit="22.9256" stroke-linecap="round" stroke-linejoin="round"/>
<path id="Vector_52" d="M487.035 287.548L482.008 283.4" stroke="#C98560" stroke-width="0.719949" stroke-miterlimit="22.9256" stroke-linecap="round" stroke-linejoin="round"/>
<path id="Vector_53" d="M478.017 288.738L472.87 284.74" stroke="#C98560" stroke-width="0.719949" stroke-miterlimit="22.9256" stroke-linecap="round" stroke-linejoin="round"/>
</g>
</g>
<g id="Group 66">
<path id="Vector_54" fill-rule="evenodd" clip-rule="evenodd" d="M484.768 161.77L484.101 164.079C480.394 176.991 466.921 184.453 454.009 180.745C441.097 177.038 433.635 163.566 437.342 150.653L438.005 148.343C434.078 147.216 431.789 143.121 432.918 139.189L434.475 133.766C434.894 132.305 435.979 131.209 437.306 130.713L442.628 132.241L446.463 118.885C446.463 118.885 457.33 110.935 462.6 113.673C465.475 116.271 469.963 118.368 473.979 119.076C476.963 119.603 479.664 119.458 481.131 119.012C484.259 118.059 491.233 130.59 493.131 132.848C492.325 135.811 490.989 140.429 489.427 145.678L493.566 146.866C495.066 147.297 496.048 149.361 495.496 151.286L493.938 156.71C492.809 160.643 488.695 162.897 484.767 161.77L484.768 161.77Z" fill="#EBA884"/>
<path id="Vector_55" fill-rule="evenodd" clip-rule="evenodd" d="M446.464 118.888L441.836 135.009L441.273 136.97C441.273 136.97 435.177 136.384 437.582 129.87C439.986 123.355 439.2 116.961 443.639 111.867C446.672 108.387 448.491 106.748 450.577 105.899C448.299 102.167 451.31 95.4825 452.155 94.3764C452.477 93.9578 452.692 93.8331 453.119 93.9334C453.487 94.0331 453.588 94.3687 453.488 94.7368C453.482 94.7591 450.846 102.135 453.815 105.065C454.084 103.754 452.904 95.3858 459.876 91.5126C466.96 87.577 471.076 96.8908 470.79 97.232C470.503 97.5732 483.125 101.249 490.264 108.366C497.402 115.482 500.441 122.401 497.614 132.79C494.788 143.179 495.672 140.995 492.685 149.174C491.827 151.523 487.792 151.231 488.341 149.317C490.359 142.599 492.144 136.483 493.132 132.851C491.234 130.593 484.26 118.062 481.131 119.015C479.665 119.461 476.963 119.606 473.98 119.079C469.964 118.371 465.476 116.274 462.601 113.676C457.331 110.938 446.464 118.888 446.464 118.888L446.464 118.888Z" fill="#241813"/>
<path id="Vector_56" d="M436.209 137.77C436.209 137.77 433.877 142.427 436.246 144.328" stroke="#C98560" stroke-width="0.859594" stroke-miterlimit="22.9256" stroke-linecap="round" stroke-linejoin="round"/>
<path id="Vector_57" d="M378.5 274.5C388.688 282.732 438.5 257.5 445.5 268C452.5 278.5 434 282 441.499 295.5C440.997 308.598 350.492 350.916 334.499 317.5L378.5 274.5Z" fill="#F32D2D"/>
<path id="Vector_58" d="M478.161 127.268C480.706 129.593 483.41 131.793 485.167 134.805C485.839 135.958 487.551 136.744 488.846 136.727C490.132 136.711 490.478 135.778 489.877 134.751C487.904 131.369 484.904 128.836 482.049 126.227C481.089 125.349 479.586 124.509 478.228 124.869C476.94 125.214 477.444 126.612 478.161 127.268L478.161 127.268Z" fill="#241813"/>
<path id="Vector_59" d="M451.82 124.553C455.014 125.329 458.202 126.123 461.322 127.167C462.859 127.683 465.301 127.627 466.679 126.67C468.176 125.627 466.22 124.686 465.317 124.383C462.197 123.338 459.008 122.545 455.815 121.768C454.182 121.372 451.92 121.252 450.458 122.267C449.012 123.274 450.853 124.319 451.82 124.553Z" fill="#241813"/>
<path id="Vector_60" d="M452.925 134.089C452.516 135.513 453.341 137 454.764 137.408C456.19 137.818 457.675 136.994 458.084 135.57C458.493 134.146 457.672 132.66 456.245 132.25C454.822 131.842 453.334 132.664 452.925 134.089L452.925 134.089Z" fill="black"/>
<path id="Vector_61" d="M474.106 140.843C473.697 142.267 474.519 143.753 475.944 144.162C477.37 144.572 478.856 143.749 479.264 142.324C479.673 140.9 478.851 139.414 477.425 139.004C476 138.595 474.515 139.418 474.106 140.843L474.106 140.843Z" fill="black"/>
<path id="Vector_62" d="M464.983 140.977C464.083 144.148 463.476 147.39 462.547 150.558C462.036 152.288 462.425 154.311 461.529 155.883C460.999 156.821 459.26 157.805 458.032 157.696C457.609 157.657 457.913 158.158 458.033 158.283C458.323 158.585 458.717 158.81 459.134 158.846C460.351 158.955 462.132 158.253 462.754 157.326C463.754 155.83 463.364 153.762 463.894 152.058C464.931 148.73 465.539 145.305 466.489 141.958C466.65 141.389 465.088 140.602 464.983 140.977L464.983 140.977Z" fill="black"/>
<path id="Vector_63" d="M491.727 153.71C491.727 153.71 491.233 158.895 488.218 159.251" stroke="#C98560" stroke-width="0.859594" stroke-miterlimit="22.9256" stroke-linecap="round" stroke-linejoin="round"/>
<path id="Vector_64" d="M494.27 145.653L487.746 141.545" stroke="#160045" stroke-width="1.4325" stroke-miterlimit="22.9256" stroke-linecap="round" stroke-linejoin="round"/>
<path id="Vector_65" d="M469.595 139.823C467.596 137.604 465.233 137.062 462.592 137.813" stroke="#160045" stroke-width="1.4325" stroke-miterlimit="22.9256"/>
<path id="Vector_66" fill-rule="evenodd" clip-rule="evenodd" d="M480.303 136.349C489.256 138.919 488.066 143.063 487.282 145.797C486.497 148.531 484.94 153.953 475.987 151.382C467.034 148.812 468.591 143.39 469.376 140.656C470.161 137.922 471.351 133.778 480.303 136.349V136.349Z" stroke="#160045" stroke-width="1.4325" stroke-miterlimit="22.9256"/>
<path id="Vector_67" fill-rule="evenodd" clip-rule="evenodd" d="M455.393 129.196C464.346 131.767 463.156 135.91 462.371 138.644C461.586 141.378 460.032 146.789 451.079 144.218C442.127 141.647 443.68 136.237 444.465 133.503C445.25 130.769 446.44 126.625 455.393 129.196V129.196Z" stroke="#160045" stroke-width="1.4325" stroke-miterlimit="22.9256"/>
<path id="Vector_68" d="M437.231 129.272L446.317 129.647" stroke="#160045" stroke-width="1.4325" stroke-miterlimit="22.9256" stroke-linecap="round" stroke-linejoin="round"/>
<path id="Vector_69" d="M454.36 161.548C457.045 162.287 463.231 164.624 463.712 167.8C463.85 168.698 462.281 169.112 462.136 168.159C461.902 166.612 455.987 164.263 454.548 163.79C453.552 163.405 452.866 161.138 454.36 161.548Z" fill="black"/>
<path id="Vector_70" d="M459.003 168.514C458.078 168.48 457.152 168.446 456.227 168.411C455.751 168.394 456.303 169.879 456.773 169.896C457.698 169.93 458.624 169.964 459.546 169.998C460.025 170.016 459.47 168.531 459.003 168.514L459.003 168.514Z" fill="black"/>
</g>
</g>
<defs>
<clipPath id="clip0_1537_7310">
<rect width="732.354" height="436.833" fill="white"/>
</clipPath>
</defs>
</svg>
