<svg width="658" height="834" viewBox="0 0 658 834" fill="none" xmlns="http://www.w3.org/2000/svg">
<g id="Group 1000006128">
<g id="Group" opacity="0.2">
<path id="Vector" opacity="0.55" d="M422.284 102.268L457.679 98.1283C445.812 98.0767 433.905 99.4695 422.284 102.268Z" fill="url(#paint0_linear_1536_7308)"/>
<path id="Vector_2" opacity="0.55" d="M503.605 111.629L371.115 127.121C368.743 128.209 366.375 129.323 364.011 130.465L507.456 113.686C506.251 112.989 504.973 112.302 503.605 111.629Z" fill="url(#paint1_linear_1536_7308)"/>
<path id="Vector_3" opacity="0.55" d="M524.846 131.215L334.978 153.56L329.148 156.708L525.851 133.531C525.524 132.813 525.205 132.009 524.846 131.215Z" fill="url(#paint2_linear_1536_7308)"/>
<path id="Vector_4" opacity="0.55" d="M531.97 153.878L303.269 180.883L297.504 184.064L531.559 156.417C531.707 155.571 531.842 154.719 531.97 153.878Z" fill="url(#paint3_linear_1536_7308)"/>
<path id="Vector_5" opacity="0.55" d="M533.479 178.404L269.22 209.595C266.791 210.766 264.421 211.897 262.111 212.987L532.701 181.032C532.982 180.132 533.228 179.259 533.479 178.404Z" fill="url(#paint4_linear_1536_7308)"/>
<path id="Vector_6" opacity="0.55" d="M534.736 207.537L206.739 246.125C201.719 247.565 196.693 248.997 191.661 250.421L534.296 210.119C534.394 209.25 534.557 208.382 534.736 207.537Z" fill="url(#paint5_linear_1536_7308)"/>
<path id="Vector_7" opacity="0.55" d="M537.895 235.769L132.319 283.433C129.705 284.533 127.117 285.676 124.555 286.861L537.624 238.313C537.708 237.467 537.792 236.621 537.895 235.769Z" fill="url(#paint6_linear_1536_7308)"/>
<path id="Vector_8" opacity="0.55" d="M542.227 258.725L99.8687 310.646C98.5047 311.629 97.1529 312.618 95.8307 313.637L542.051 261.225C542.132 260.408 542.176 259.572 542.227 258.725Z" fill="url(#paint7_linear_1536_7308)"/>
<path id="Vector_9" opacity="0.55" d="M547.295 279.613L84.1662 333.981C83.3212 334.919 82.4959 335.851 81.6829 336.789L547.252 282.133L547.295 279.613Z" fill="url(#paint8_linear_1536_7308)"/>
<path id="Vector_10" opacity="0.55" d="M552.701 299.527L76.085 355.473C75.502 356.359 74.9116 357.257 74.3951 358.19L552.67 302.052C552.67 301.21 552.682 300.374 552.701 299.527Z" fill="url(#paint9_linear_1536_7308)"/>
<path id="Vector_11" opacity="0.55" d="M558.038 319.013L72.0404 376.023C71.618 376.912 71.203 377.791 70.7929 378.686L557.963 321.531L558.038 319.013Z" fill="url(#paint10_linear_1536_7308)"/>
<path id="Vector_12" opacity="0.55" d="M562.931 338.297L70.3938 396.064C70.0629 396.938 69.7442 397.819 69.4256 398.699L562.756 340.842L562.931 338.297Z" fill="url(#paint11_linear_1536_7308)"/>
<path id="Vector_13" opacity="0.55" d="M566.998 357.612L70.2246 415.882C69.9654 416.746 69.6863 417.616 69.4196 418.492L566.66 360.181C566.771 359.319 566.874 358.468 566.998 357.612Z" fill="url(#paint12_linear_1536_7308)"/>
<path id="Vector_14" opacity="0.55" d="M569.843 377.1L70.8692 435.651L70.1137 438.286L569.268 379.734C569.477 378.845 569.64 377.978 569.843 377.1Z" fill="url(#paint13_linear_1536_7308)"/>
<path id="Vector_15" opacity="0.55" d="M571.614 396.856L71.8457 455.482L71.1645 458.078L570.904 399.423L571.614 396.856Z" fill="url(#paint14_linear_1536_7308)"/>
<path id="Vector_16" opacity="0.55" d="M572.357 416.774L73.2961 475.325L72.7262 477.901L571.481 419.394C571.78 418.519 572.078 417.644 572.357 416.774Z" fill="url(#paint15_linear_1536_7308)"/>
<path id="Vector_17" opacity="0.55" d="M571.816 436.898L75.6349 495.106C75.4918 495.968 75.3563 496.818 75.2331 497.674L570.732 439.537C571.095 438.663 571.465 437.778 571.816 436.898Z" fill="url(#paint16_linear_1536_7308)"/>
<path id="Vector_18" opacity="0.55" d="M569.744 457.228L79.1852 514.758L79.0183 517.292L568.38 459.895C568.834 459.006 569.301 458.123 569.744 457.228Z" fill="url(#paint17_linear_1536_7308)"/>
<path id="Vector_19" opacity="0.55" d="M565.74 477.779L84.5874 534.279C84.6274 535.11 84.6871 535.937 84.7469 536.763L564.042 480.507C564.62 479.603 565.179 478.705 565.74 477.779Z" fill="url(#paint18_linear_1536_7308)"/>
<path id="Vector_20" opacity="0.55" d="M559.26 498.686L92.1859 553.529C92.3618 554.352 92.5351 555.204 92.7607 555.977L557.103 501.443C557.829 500.538 558.551 499.615 559.26 498.686Z" fill="url(#paint19_linear_1536_7308)"/>
<path id="Vector_21" opacity="0.55" d="M549.283 520.036L102.798 572.388L103.907 574.767L546.448 522.881C547.41 521.941 548.408 521.019 549.283 520.036Z" fill="url(#paint20_linear_1536_7308)"/>
<path id="Vector_22" opacity="0.55" d="M533.942 542.192L117.313 591.003C117.912 591.778 118.53 592.548 119.157 593.307L530.033 545.154C531.346 544.177 532.659 543.199 533.942 542.192Z" fill="url(#paint21_linear_1536_7308)"/>
<path id="Vector_23" opacity="0.55" d="M509.825 565.835L137.322 609.351C138.272 610.089 139.23 610.815 140.215 611.524L504.058 569.011C506.033 567.923 507.952 566.868 509.825 565.835Z" fill="url(#paint22_linear_1536_7308)"/>
<path id="Vector_24" opacity="0.55" d="M468.685 592.446L165.826 627.818C167.38 628.506 168.945 629.154 170.537 629.785L458.621 596.138C461.992 594.941 465.347 593.71 468.685 592.446Z" fill="url(#paint23_linear_1536_7308)"/>
<path id="Vector_25" opacity="0.55" d="M376.878 629.273L212.934 648.428C216.639 648.935 220.36 649.335 224.097 649.628L351.1 634.801C359.651 633.013 368.244 631.17 376.878 629.273Z" fill="url(#paint24_linear_1536_7308)"/>
</g>
<g id="&#208;&#159;&#208;&#176;&#208;&#178;&#208;&#181;&#208;&#187;11 (2) 1" clip-path="url(#clip0_1536_7308)">
<g id="&#208;&#161;&#208;&#187;&#208;&#190;&#208;&#185;_x0020_1">
<path id="Vector_26" fill-rule="evenodd" clip-rule="evenodd" d="M253.407 434.583L282.797 443.429C292.624 446.386 303.138 440.782 306.043 430.938L309.073 420.674C320.002 425.467 337.156 429.037 383.78 427.491C436.191 425.753 453.278 420.496 457.752 418.784C468.341 416.429 465.335 392.925 463.463 377.745L463.793 307.067C470.697 312.97 478.693 319.778 486.526 326.452L474.694 338.486C467.136 345.429 466.635 357.293 473.578 364.851L494.344 387.452C501.286 395.008 513.347 395.717 520.709 388.569L544.041 365.916C550.285 358.62 554.497 349.554 556.551 339.914L556.558 339.882C556.641 339.49 556.721 339.096 556.798 338.702L556.821 338.577C556.891 338.212 556.958 337.845 557.022 337.479L557.054 337.29C557.113 336.949 557.169 336.607 557.221 336.265L557.261 336.003C557.311 335.671 557.359 335.338 557.404 335.006L557.435 334.766C557.479 334.433 557.52 334.1 557.559 333.766L557.59 333.493C557.626 333.176 557.659 332.86 557.69 332.543L557.722 332.205C557.749 331.907 557.775 331.609 557.798 331.311L557.826 330.932C557.847 330.649 557.866 330.366 557.882 330.082L557.908 329.652C557.922 329.378 557.934 329.103 557.945 328.83L557.963 328.4C557.972 328.128 557.979 327.857 557.985 327.585L557.995 327.137C557.999 326.861 558.001 326.586 558.002 326.31L558.002 325.886C558.002 325.624 557.998 325.361 557.994 325.099L557.986 324.595C557.981 324.366 557.973 324.137 557.965 323.908C557.959 323.717 557.954 323.525 557.946 323.334C557.936 323.107 557.924 322.88 557.912 322.653C557.902 322.464 557.894 322.275 557.882 322.087C557.867 321.843 557.849 321.6 557.832 321.356C557.82 321.187 557.809 321.017 557.795 320.847C557.775 320.591 557.751 320.335 557.727 320.08C557.713 319.918 557.699 319.756 557.683 319.594C557.662 319.375 557.636 319.157 557.612 318.938C557.59 318.736 557.57 318.534 557.545 318.331C557.529 318.19 557.509 318.05 557.491 317.91C557.457 317.64 557.425 317.371 557.387 317.102C557.331 316.697 557.272 316.293 557.207 315.89C557.029 314.764 556.819 313.645 556.581 312.531L556.52 312.241C556.456 311.948 556.388 311.656 556.319 311.364L556.244 311.04C556.169 310.728 556.091 310.417 556.011 310.106L555.948 309.854C555.869 309.552 555.787 309.252 555.703 308.951L555.619 308.646C555.538 308.36 555.454 308.076 555.369 307.792L555.27 307.458C555.181 307.166 555.089 306.875 554.995 306.584L554.902 306.294C554.808 306.009 554.712 305.724 554.614 305.44L554.497 305.099C554.403 304.831 554.307 304.565 554.209 304.298L554.076 303.938C553.974 303.668 553.871 303.4 553.766 303.131L553.632 302.791C553.524 302.519 553.412 302.247 553.3 301.976L553.165 301.656C553.05 301.385 552.934 301.115 552.815 300.846L552.668 300.518C552.551 300.256 552.432 299.996 552.311 299.737L552.144 299.384C552.021 299.127 551.898 298.87 551.772 298.615L551.607 298.287C551.476 298.025 551.342 297.765 551.207 297.506L551.048 297.205C550.907 296.939 550.764 296.673 550.617 296.408L550.467 296.139C550.317 295.871 550.166 295.603 550.012 295.338L549.844 295.055C549.691 294.795 549.537 294.536 549.379 294.278L549.205 293.999C549.044 293.739 548.882 293.48 548.716 293.222L548.686 293.175L548.685 293.175C546.201 289.329 543.21 285.779 539.696 282.644L497.234 246.655L497.241 246.633L492.443 242.566C471.854 226.787 457.871 220.444 430.921 220.44C424.813 213.504 414.674 207.188 401.593 207.188L378.057 207.17H358.082C352.501 207.839 341.073 213.345 334.965 220.281C334.713 220.352 334.471 220.431 334.222 220.506C312.714 220.86 288.933 236.538 281.533 257.519C274.048 278.741 272.947 285.055 263.073 336.27H263.073L240.917 411.337C237.959 421.164 243.582 431.626 253.408 434.582L253.407 434.583ZM557.491 317.91C557.457 317.641 557.424 317.371 557.387 317.102L557.491 317.91Z" fill="#FF0028"/>
<path id="Vector_27" fill-rule="evenodd" clip-rule="evenodd" d="M464.684 388.467C464.322 384.702 463.864 381.029 463.459 377.746L463.789 307.068L453.724 299.969L453.643 380.568C453.688 382.903 460.576 386.234 464.684 388.467L464.684 388.467Z" fill="#D90324"/>
<path id="Vector_28" fill-rule="evenodd" clip-rule="evenodd" d="M285.865 444.101L253.098 434.49L250.68 442.489L283.427 452.351L285.865 444.101Z" fill="#D90324"/>
<path id="Vector_29" d="M279.385 335.32C279.983 335.569 280.267 336.255 280.019 336.854C279.771 337.452 279.084 337.736 278.486 337.487C276.408 336.619 274.485 336.039 272.757 335.707C270.32 335.239 268.294 335.262 266.788 335.655C265.493 335.992 264.638 336.59 264.32 337.35C264.27 337.468 264.233 337.591 264.209 337.717C264.087 338.353 263.472 338.769 262.836 338.648C262.2 338.527 261.783 337.912 261.905 337.276C261.96 336.989 262.044 336.713 262.153 336.451C262.761 334.997 264.164 333.919 266.201 333.387C268.027 332.911 270.409 332.868 273.197 333.403C275.078 333.765 277.157 334.389 279.385 335.321L279.385 335.32Z" fill="#D90324"/>
<path id="Vector_30" fill-rule="evenodd" clip-rule="evenodd" d="M265.654 511.431L265.804 511.811C267.63 517.662 276.416 515.189 274.171 508.439L267.797 489.598L272.519 479.602C272.946 487.383 274.204 489.393 276.214 490.702C279.813 493.044 284.768 489.448 284.144 486.308C283.139 481.254 284.503 475.659 284.17 472.066C283.812 468.22 282.504 464.89 281.612 459.366L283.72 451.304L250.678 442.482L245.388 462.209L245.077 484.481C244.925 486.932 246.294 488.531 248.009 489.112L250.786 499.847C251.399 502.755 253.825 503.87 255.981 503.457L258.403 509.471C259.669 513.081 263.531 513.355 265.653 511.431H265.654Z" fill="#EBA884"/>
<path id="Vector_31" d="M256.701 477.617L255.9 486.783L259.537 495.973" stroke="#C98560" stroke-width="1.17515" stroke-miterlimit="22.9256" stroke-linecap="round" stroke-linejoin="round"/>
<path id="Vector_32" fill-rule="evenodd" clip-rule="evenodd" d="M357.144 218.079V213.452C342.019 216.728 337.699 229.899 347.442 241.888C348.287 242.638 349.296 242.967 350.42 242.859C351.545 242.75 352.472 242.235 353.158 241.337L353.755 240.554L353.574 240.433C358.891 243.967 366.281 246.567 374.618 247.441C382.86 248.305 390.545 247.327 396.454 245.03L396.877 245.922C397.362 246.942 398.162 247.639 399.24 247.978C400.318 248.317 401.372 248.204 402.354 247.645C419.697 237.769 427.12 215.24 400.655 213.176L400.53 219.083L357.144 218.079Z" fill="#D90324"/>
<path id="Vector_33" fill-rule="evenodd" clip-rule="evenodd" d="M353.319 223.908C352.096 225.649 351.424 227.543 351.424 229.524C351.424 238.051 363.862 244.964 379.204 244.964C394.546 244.964 406.984 238.051 406.984 229.524C406.984 227.543 406.312 225.649 405.089 223.908H353.319Z" fill="#AD041E"/>
<path id="Vector_34" d="M401.65 258.626C415.366 252.943 424.792 242.465 426.931 232.039" stroke="#D90324" stroke-width="2.34998" stroke-miterlimit="22.9256" stroke-linecap="round" stroke-linejoin="round"/>
<path id="Vector_35" d="M335.06 232.316C335.007 237.767 338.24 246.077 344.35 251.578" stroke="#D90324" stroke-width="2.34998" stroke-miterlimit="22.9256" stroke-linecap="round" stroke-linejoin="round"/>
<path id="Vector_36" d="M380.013 321.184C379.386 319.986 379.849 318.507 381.047 317.88C382.245 317.254 383.724 317.717 384.35 318.915L388.178 326.234C388.805 327.432 388.342 328.911 387.144 329.538C385.946 330.164 384.467 329.701 383.841 328.503L380.013 321.184Z" fill="#FF5E04"/>
<g id="Group_2">
<path id="Vector_37" d="M381.649 253.895L379.317 253.718C379.365 253.075 379.927 252.594 380.571 252.642C381.215 252.69 381.697 253.252 381.649 253.895ZM379.513 297.121L379.96 295.971L380.338 294.855L380.653 293.765L380.907 292.698L381.107 291.649L381.254 290.613L381.354 289.583L381.41 288.557L381.427 287.527L381.406 286.49L381.353 285.441L381.269 284.376L381.16 283.29L381.028 282.18L380.877 281.041L380.712 279.869L380.535 278.663L380.351 277.416L380.165 276.125L379.979 274.788L379.798 273.401L379.626 271.958L379.468 270.457L379.327 268.895L379.208 267.267L379.115 265.569L379.051 263.799L379.021 261.952L379.028 260.024L379.078 258.011L379.172 255.911L379.317 253.718L381.649 253.895L381.508 256.04L381.415 258.093L381.367 260.057L381.36 261.938L381.39 263.738L381.452 265.464L381.543 267.118L381.659 268.706L381.797 270.231L381.951 271.698L382.119 273.112L382.297 274.477L382.48 275.798L382.665 277.078L382.849 278.324L383.026 279.537L383.194 280.724L383.348 281.888L383.485 283.035L383.599 284.167L383.687 285.29L383.744 286.407L383.766 287.522L383.748 288.639L383.686 289.761L383.576 290.891L383.413 292.032L383.193 293.188L382.913 294.36L382.569 295.553L382.157 296.769L381.675 298.013L379.513 297.121H379.513ZM388.432 332.436L387.853 331.858L387.268 331.224L386.679 330.535L386.088 329.793L385.496 329.001L384.907 328.161L384.322 327.275L383.745 326.345L383.177 325.374L382.623 324.363L382.084 323.316L381.563 322.235L381.063 321.122L380.587 319.979L380.138 318.809L379.718 317.615L379.331 316.398L378.979 315.161L378.666 313.907L378.394 312.637L378.167 311.355L377.987 310.062L377.858 308.761L377.783 307.454L377.765 306.145L377.807 304.835L377.913 303.528L378.086 302.225L378.329 300.93L378.646 299.645L379.039 298.374L379.512 297.121L381.674 298.012L381.251 299.132L380.899 300.27L380.615 301.425L380.395 302.594L380.238 303.776L380.141 304.968L380.102 306.167L380.12 307.372L380.189 308.579L380.309 309.786L380.476 310.991L380.688 312.189L380.944 313.38L381.238 314.559L381.569 315.725L381.935 316.875L382.332 318.004L382.758 319.112L383.209 320.195L383.683 321.251L384.177 322.275L384.688 323.268L385.213 324.224L385.749 325.141L386.292 326.017L386.841 326.849L387.391 327.634L387.939 328.368L388.482 329.049L389.017 329.675L389.539 330.241L390.045 330.745L388.431 332.436L388.432 332.436ZM388.432 332.436L390.046 330.745C390.513 331.19 390.531 331.93 390.085 332.396C389.64 332.863 388.899 332.881 388.432 332.436Z" fill="#FF5E04"/>
</g>
<g id="Group_3">
<path id="Vector_38" d="M361.313 252.983C361.452 252.353 362.077 251.955 362.707 252.094C363.338 252.233 363.736 252.857 363.597 253.486L361.313 252.983ZM358.548 289.778L356.307 289.11L356.567 288.197L356.799 287.304L357.005 286.425L357.186 285.558L357.346 284.7L357.486 283.846L357.609 282.994L357.717 282.14L357.811 281.28L357.894 280.411L357.968 279.53L358.036 278.634L358.098 277.72L358.158 276.785L358.218 275.825L358.279 274.838L358.345 273.821L358.417 272.771L358.497 271.685L358.588 270.56L358.691 269.394L358.81 268.183L358.946 266.925L359.101 265.617L359.279 264.255L359.48 262.837L359.707 261.36L359.964 259.821L360.249 258.216L360.569 256.544L360.922 254.8L361.313 252.982L363.597 253.486L363.212 255.278L362.863 256.995L362.55 258.64L362.268 260.217L362.017 261.729L361.794 263.179L361.596 264.57L361.423 265.905L361.27 267.188L361.136 268.422L361.02 269.611L360.918 270.757L360.829 271.864L360.749 272.935L360.678 273.974L360.613 274.985L360.552 275.969L360.492 276.931L360.431 277.874L360.368 278.801L360.299 279.715L360.223 280.619L360.137 281.517L360.039 282.412L359.927 283.306L359.797 284.201L359.649 285.102L359.48 286.011L359.287 286.93L359.069 287.862L358.823 288.81L358.547 289.777L358.548 289.778ZM348.777 316.181L346.511 315.603L346.683 314.96L346.876 314.296L347.087 313.611L347.317 312.907L347.564 312.183L347.826 311.44L348.103 310.68L348.393 309.903L348.695 309.111L349.008 308.304L349.332 307.484L349.664 306.651L350.003 305.807L350.348 304.952L350.699 304.088L351.054 303.216L351.411 302.338L351.771 301.452L352.13 300.563L352.489 299.67L352.846 298.775L353.2 297.878L353.549 296.982L353.893 296.086L354.231 295.193L354.56 294.304L354.881 293.419L355.191 292.541L355.49 291.669L355.777 290.806L356.049 289.953L356.307 289.11L358.548 289.777L358.281 290.649L358.001 291.528L357.706 292.416L357.4 293.308L357.084 294.206L356.757 295.107L356.422 296.012L356.079 296.918L355.731 297.824L355.377 298.731L355.02 299.636L354.66 300.537L354.3 301.436L353.938 302.329L353.579 303.216L353.221 304.095L352.866 304.967L352.516 305.829L352.173 306.679L351.836 307.518L351.507 308.343L351.187 309.154L350.879 309.949L350.582 310.727L350.298 311.487L350.028 312.228L349.774 312.947L349.537 313.645L349.317 314.318L349.117 314.966L348.936 315.588L348.777 316.18L348.777 316.181ZM348.086 334.812L345.806 335.331L345.662 334.677L345.532 334.028L345.414 333.384L345.307 332.743L345.213 332.107L345.131 331.474L345.061 330.845L345.002 330.219L344.955 329.597L344.918 328.977L344.893 328.36L344.878 327.745L344.874 327.132L344.881 326.522L344.897 325.914L344.923 325.307L344.959 324.701L345.004 324.096L345.059 323.492L345.123 322.889L345.195 322.286L345.276 321.683L345.366 321.079L345.463 320.476L345.569 319.872L345.682 319.267L345.802 318.661L345.93 318.053L346.066 317.444L346.207 316.832L346.356 316.219L346.51 315.602L348.777 316.18L348.627 316.777L348.483 317.37L348.346 317.96L348.216 318.546L348.093 319.129L347.978 319.71L347.869 320.288L347.769 320.863L347.676 321.437L347.591 322.009L347.515 322.58L347.446 323.15L347.386 323.72L347.334 324.288L347.292 324.856L347.258 325.426L347.233 325.995L347.218 326.565L347.212 327.137L347.216 327.709L347.23 328.283L347.253 328.86L347.287 329.439L347.332 330.021L347.387 330.605L347.452 331.193L347.529 331.785L347.617 332.381L347.717 332.981L347.828 333.586L347.951 334.196L348.086 334.811L348.086 334.812ZM348.086 334.812C348.23 335.44 347.836 336.067 347.206 336.21C346.577 336.353 345.949 335.96 345.806 335.331L348.086 334.812V334.812Z" fill="#FF5E04"/>
</g>
<path id="Vector_39" d="M344.603 319.314C344.743 317.969 345.946 316.993 347.29 317.133C348.635 317.273 349.611 318.477 349.471 319.821L348.615 328.037C348.475 329.381 347.271 330.358 345.927 330.218C344.583 330.078 343.606 328.874 343.747 327.529L344.603 319.314Z" fill="#FF5E04"/>
<g id="Group_4">
<path id="Vector_40" fill-rule="evenodd" clip-rule="evenodd" d="M253.106 1.18001C282.891 1.18001 307.036 25.3256 307.036 55.1104C307.036 66.1442 303.72 76.4009 298.034 84.9459C297.552 85.6693 297.32 86.4103 297.302 87.2796C297.149 94.6953 304.268 95.3489 300.562 99.7368C297.462 103.409 292.231 102.096 288.845 99.5801C287.313 98.4415 285.317 98.4075 283.747 99.4934C275.046 105.513 264.487 109.04 253.105 109.04C223.32 109.04 199.175 84.8949 199.175 55.1101C199.175 25.3249 223.32 1.17969 253.105 1.17969L253.106 1.18001Z" stroke="#C2BFFF" stroke-width="2.34998" stroke-miterlimit="22.9256" stroke-linecap="round" stroke-linejoin="round"/>
<path id="Vector_41" d="M317.152 93.6311C321.299 93.6311 324.66 90.2697 324.66 86.1232C324.66 81.9767 321.299 78.6152 317.152 78.6152C313.006 78.6152 309.645 81.9767 309.645 86.1232C309.645 90.2697 313.006 93.6311 317.152 93.6311Z" stroke="#C2BFFF" stroke-width="2.34998" stroke-miterlimit="22.9256"/>
<path id="Vector_42" d="M332.522 101.737C334.525 101.737 336.149 100.113 336.149 98.1096C336.149 96.1064 334.525 94.4824 332.522 94.4824C330.518 94.4824 328.895 96.1064 328.895 98.1096C328.895 100.113 330.518 101.737 332.522 101.737Z" stroke="#C2BFFF" stroke-width="2.34998" stroke-miterlimit="22.9256"/>
<path id="Vector_43" d="M223.766 46.798C223.507 46.798 223.293 46.7002 223.121 46.5039C222.949 46.305 222.863 46.057 222.863 45.7603C222.863 45.297 222.854 44.4664 222.837 43.2673C222.755 43.2673 222.682 43.2673 222.623 43.2673C221.69 43.2673 220.787 43.3818 219.912 43.6108C219.907 43.8176 219.883 44.1935 219.841 44.7386C219.806 45.2018 219.788 45.5833 219.788 45.8859C219.788 46.1882 219.705 46.4362 219.532 46.6325C219.362 46.8314 219.146 46.9292 218.888 46.9292C218.63 46.9292 218.414 46.8314 218.244 46.6351C218.074 46.4362 217.988 46.1882 217.988 45.8829C217.988 45.703 218.008 45.458 218.05 45.1446C218.09 44.8341 218.112 44.5887 218.112 44.4091C218.112 44.1094 218.105 43.6625 218.092 43.0628C218.079 42.4664 218.072 42.0166 218.072 41.7199C218.072 41.4064 218.072 40.9432 218.072 40.3301C218.076 39.7199 218.079 39.257 218.079 38.9436C218.079 38.6436 218.162 38.3986 218.334 38.2C218.504 38.0037 218.718 37.9055 218.976 37.9055C219.234 37.9055 219.449 38.0037 219.62 38.2C219.793 38.3959 219.879 38.6436 219.879 38.941C219.879 39.2786 219.883 39.7036 219.892 40.213C219.905 40.9187 219.912 41.3355 219.912 41.4689C220.827 41.2563 221.793 41.1637 222.81 41.1908V41.0139C222.81 40.7443 222.819 40.3546 222.836 39.8479C222.854 39.3437 222.861 38.9596 222.861 38.6982C222.861 38.4008 222.947 38.1532 223.119 37.9546C223.291 37.7583 223.507 37.6602 223.766 37.6602C224.024 37.6602 224.237 37.7583 224.407 37.9546C224.577 38.1532 224.661 38.4012 224.661 38.6982C224.661 38.9649 224.654 39.3519 224.637 39.856C224.619 40.3628 224.611 40.7498 224.611 41.0139C224.611 41.5589 224.619 42.349 224.637 43.3871C224.654 44.4251 224.661 45.2182 224.661 45.7603C224.661 46.057 224.577 46.305 224.407 46.5039C224.237 46.7002 224.024 46.798 223.766 46.798Z" fill="#C2BFFF"/>
<path id="1" d="M231.403 46.9424C231.205 46.9424 230.889 46.7055 230.46 46.2311C230.065 46.4657 229.714 46.6427 229.414 46.7628C229.112 46.8825 228.856 46.9427 228.644 46.9427C227.607 46.9427 226.828 46.5992 226.31 45.9125C225.792 45.2264 225.531 44.1962 225.531 42.8284C225.531 41.5452 225.915 40.447 226.681 39.5345C227.448 38.6221 228.366 38.1641 229.434 38.1641C229.844 38.1641 230.318 38.3057 230.856 38.5917C231.507 38.9352 231.832 39.3327 231.832 39.7851C231.832 39.9759 231.783 40.1421 231.686 40.2837C231.644 40.4938 231.611 40.7604 231.589 41.079C231.565 41.398 231.554 41.771 231.554 42.196C231.554 43.2043 231.611 43.9286 231.726 44.3729C231.739 44.419 231.836 44.6945 232.019 45.1931C232.184 45.6481 232.268 45.9069 232.268 45.9697C232.268 46.2501 232.18 46.4817 232.006 46.6643C231.832 46.8495 231.631 46.9424 231.404 46.9424H231.403ZM229.806 41.556C229.806 41.384 229.815 41.188 229.833 40.9675C229.85 40.747 229.877 40.499 229.912 40.2291C229.826 40.1748 229.749 40.1362 229.683 40.112C229.616 40.0874 229.559 40.0763 229.512 40.0763C228.926 40.0763 228.414 40.3599 227.975 40.9266C227.536 41.4962 227.318 42.1498 227.318 42.8964C227.318 43.6103 227.421 44.1471 227.629 44.5067C227.834 44.8662 228.145 45.0462 228.558 45.0462C228.824 45.0462 229.078 44.9919 229.316 44.8829C229.555 44.774 229.779 44.613 229.991 44.3981C229.868 43.131 229.806 42.1829 229.806 41.5564V41.556Z" fill="#C2BFFF"/>
<path id="2" d="M239.427 48.5442C239.019 48.5442 238.748 48.3293 238.616 47.8961C238.53 47.6236 238.494 47.1957 238.512 46.6153H235.187C235.152 46.6153 234.859 46.6428 234.303 46.6945C234.303 46.7815 234.305 46.9176 234.31 47.1083C234.314 47.2964 234.316 47.4437 234.316 47.5441C234.316 47.8493 234.23 48.0999 234.06 48.2962C233.89 48.4951 233.676 48.593 233.418 48.593C232.798 48.593 232.489 48.1219 232.489 47.1819C232.489 46.9886 232.494 46.7324 232.503 46.4056C232.511 46.0814 232.516 45.8278 232.516 45.64C232.516 45.3322 232.602 45.0786 232.772 44.8827C232.931 44.7027 233.136 44.6049 233.383 44.5967C233.765 43.9234 234.027 43.1281 234.168 42.2098C234.267 41.5535 234.316 40.6947 234.316 39.6298C234.316 38.5832 234.777 38.0578 235.699 38.0578C235.807 38.0578 236.008 38.0689 236.303 38.0876C236.599 38.1069 236.833 38.1151 237.005 38.1151C237.17 38.1151 237.413 38.0987 237.737 38.066C238.059 38.0359 238.293 38.0195 238.434 38.0195C238.867 38.0195 239.153 38.2184 239.295 38.6163C239.381 38.8561 239.425 39.2539 239.425 39.8124C239.425 40.0384 239.411 40.3787 239.389 40.8311C239.365 41.2836 239.351 41.6215 239.351 41.8502C239.351 42.0521 239.363 43.0218 239.385 44.757C239.994 44.8333 240.298 45.1794 240.298 45.7977C240.298 46.0078 240.303 46.2881 240.312 46.648C240.32 47.0049 240.325 47.2853 240.325 47.4868C240.325 47.7921 240.239 48.0427 240.069 48.2442C239.899 48.4431 239.685 48.5439 239.427 48.5439L239.427 48.5442ZM235.238 44.67H237.586C237.563 42.924 237.552 41.984 237.552 41.8506C237.552 41.6379 237.563 41.3219 237.586 40.9024C237.612 40.3819 237.625 40.0636 237.625 39.9458C236.86 39.9733 236.352 39.9789 236.103 39.9622C236.063 41.7989 235.777 43.3676 235.239 44.67H235.238Z" fill="#C2BFFF"/>
<path id="3" d="M244.159 46.9902C243.183 46.9902 242.354 46.6578 241.664 45.993C240.927 45.2765 240.559 44.3477 240.559 43.2115C240.559 41.9228 240.899 40.746 241.58 39.6778C242.359 38.449 243.354 37.8359 244.56 37.8359C246.87 37.8359 248.023 39.0948 248.023 41.6153C248.023 42.901 247.71 44.0726 247.086 45.124C246.344 46.3692 245.369 46.9905 244.158 46.9905L244.159 46.9902ZM244.558 39.9284C243.986 39.9284 243.488 40.2661 243.062 40.9443C242.637 41.6228 242.425 42.3772 242.425 43.2056C242.425 43.7068 242.588 44.1128 242.912 44.4259C243.236 44.7393 243.651 44.8973 244.158 44.8973C244.712 44.8973 245.189 44.5564 245.583 43.8756C245.965 43.2219 246.157 42.4672 246.157 41.6117C246.157 40.9466 246.046 40.5 245.824 40.271C245.603 40.0423 245.182 39.9278 244.557 39.9278L244.558 39.9284Z" fill="#C2BFFF"/>
<path id="Vector_44" d="M223.882 64.0767C223.624 64.0767 223.41 63.9786 223.24 63.7849C223.07 63.5916 222.986 63.3436 222.986 63.0465C222.986 62.6408 222.958 62.0438 222.902 61.2511C222.845 60.4584 222.819 59.8613 222.819 59.4612C222.819 59.1694 222.832 58.5268 222.863 57.5378C221.318 57.5215 220.511 57.5133 220.436 57.5133C220.277 57.5133 220.063 57.5352 219.792 57.5787C219.797 57.8185 219.825 58.3825 219.876 59.2708C219.915 59.9627 219.935 60.5241 219.935 60.9547C219.935 61.1945 219.915 61.554 219.876 62.0307C219.838 62.5077 219.818 62.8646 219.818 63.1041C219.818 63.4008 219.732 63.6488 219.56 63.8477C219.386 64.044 219.172 64.1418 218.914 64.1418C218.654 64.1418 218.439 64.044 218.27 63.8477C218.1 63.6488 218.014 63.4034 218.014 63.1041C218.014 62.8643 218.036 62.5077 218.076 62.0307C218.118 61.5566 218.137 61.1971 218.137 60.9602C218.137 60.5025 218.111 59.8158 218.056 58.9004C218.003 57.985 217.977 57.2987 217.977 56.8351C217.977 56.4837 218.076 56.1919 218.272 55.9576C218.471 55.7234 218.724 55.6063 219.035 55.6063C219.19 55.6063 219.421 55.5788 219.732 55.5271C220.042 55.4728 220.275 55.4453 220.434 55.4453C220.805 55.4453 221.363 55.4509 222.106 55.4617C222.849 55.4728 223.407 55.478 223.778 55.478C224.019 55.478 224.228 55.5814 224.407 55.7885C224.585 55.9956 224.673 56.238 224.673 56.5158C224.673 56.84 224.662 57.3222 224.642 57.9654C224.62 58.6109 224.609 59.0905 224.609 59.4095C224.609 59.8207 224.638 60.4253 224.697 61.2291C224.755 62.033 224.783 62.6379 224.783 63.0465C224.783 63.3462 224.699 63.5912 224.529 63.7849C224.36 63.9783 224.143 64.0767 223.881 64.0767H223.882Z" fill="#C2BFFF"/>
<path id="1_2" d="M229.2 64.2929C228.224 64.2929 227.395 63.9605 226.705 63.2957C225.968 62.5792 225.6 61.6504 225.6 60.5142C225.6 59.2255 225.94 58.0487 226.621 56.9806C227.4 55.7518 228.395 55.1387 229.601 55.1387C231.911 55.1387 233.064 56.3976 233.064 58.918C233.064 60.2037 232.751 61.3753 232.127 62.4268C231.385 63.6719 230.41 64.2932 229.199 64.2932L229.2 64.2929ZM229.599 57.2312C229.027 57.2312 228.529 57.5688 228.103 58.247C227.678 58.9255 227.466 59.68 227.466 60.5083C227.466 61.0095 227.629 61.4155 227.953 61.7286C228.277 62.042 228.692 62.2001 229.199 62.2001C229.753 62.2001 230.23 61.8592 230.624 61.1783C231.006 60.5247 231.198 59.7699 231.198 58.9144C231.198 58.2493 231.088 57.8027 230.865 57.5737C230.644 57.345 230.223 57.2305 229.598 57.2305L229.599 57.2312Z" fill="#C2BFFF"/>
<path id="2_2" d="M240.142 65.8411C239.734 65.8411 239.463 65.6261 239.33 65.193C239.244 64.9205 239.209 64.4925 239.227 63.9122H235.902C235.867 63.9122 235.574 63.9396 235.018 63.9913C235.018 64.0784 235.02 64.2145 235.024 64.4052C235.029 64.5933 235.031 64.7405 235.031 64.841C235.031 65.1462 234.945 65.3968 234.775 65.5931C234.605 65.792 234.391 65.8898 234.133 65.8898C233.513 65.8898 233.204 65.4187 233.204 64.4788C233.204 64.2854 233.209 64.0293 233.218 63.7025C233.226 63.3782 233.231 63.1247 233.231 62.9369C233.231 62.629 233.317 62.3755 233.487 62.1795C233.646 61.9996 233.851 61.9018 234.098 61.8936C234.479 61.2203 234.742 60.425 234.883 59.5066C234.982 58.8504 235.031 57.9916 235.031 56.9267C235.031 55.8801 235.492 55.3547 236.414 55.3547C236.522 55.3547 236.723 55.3658 237.018 55.3845C237.314 55.4038 237.547 55.4119 237.72 55.4119C237.885 55.4119 238.128 55.3956 238.452 55.3629C238.774 55.3328 239.008 55.3164 239.149 55.3164C239.582 55.3164 239.868 55.5153 240.01 55.9131C240.095 56.1529 240.14 56.5508 240.14 57.1092C240.14 57.3353 240.126 57.6755 240.104 58.128C240.08 58.5805 240.066 58.9184 240.066 59.1471C240.066 59.349 240.078 60.3187 240.1 62.0539C240.709 62.1301 241.013 62.4763 241.013 63.0946C241.013 63.3046 241.018 63.585 241.026 63.9449C241.035 64.3018 241.04 64.5822 241.04 64.7837C241.04 65.089 240.954 65.3396 240.784 65.5411C240.614 65.74 240.4 65.8408 240.142 65.8408L240.142 65.8411ZM235.953 61.9669H238.301C238.278 60.2208 238.267 59.2809 238.267 59.1474C238.267 58.9348 238.278 58.6187 238.301 58.1993C238.327 57.6788 238.34 57.3605 238.34 57.2427C237.575 57.2702 237.067 57.2758 236.818 57.2591C236.778 59.0957 236.492 60.6645 235.954 61.9669H235.953Z" fill="#C2BFFF"/>
<path id="3_2" d="M248.18 57.0563C247.71 58.2629 246.969 60.1623 245.952 62.7505C245.4 64.1403 244.981 65.2925 244.692 66.2076C244.602 66.5374 244.461 67.0278 244.267 67.6762C244.112 68.1774 243.837 68.4283 243.442 68.4283C243.197 68.4283 242.981 68.3302 242.798 68.1339C242.613 67.9353 242.52 67.687 242.52 67.3902C242.52 66.8943 242.977 65.4289 243.887 62.9903C243.411 61.8354 242.656 60.1322 241.624 57.8873C241.518 57.6828 241.413 57.4787 241.305 57.2716C241.187 57.0265 241.13 56.8031 241.13 56.6016C241.13 56.3123 241.223 56.0595 241.408 55.8412C241.595 55.6233 241.809 55.5141 242.05 55.5141C242.336 55.5141 242.56 55.6449 242.719 55.9067C243.332 56.912 244.046 58.4268 244.86 60.4512C245.321 59.1871 245.601 58.4268 245.701 58.1654C246.005 57.3723 246.303 56.6752 246.596 56.0725C246.782 55.6888 247.035 55.498 247.359 55.498C247.6 55.498 247.816 55.5988 248.006 55.8003C248.196 56.0045 248.29 56.2499 248.29 56.544C248.29 56.699 248.253 56.8682 248.18 57.0563H248.18Z" fill="#C2BFFF"/>
<path id="4" d="M251.032 59.7469C250.881 60.2674 250.672 61.0519 250.4 62.1008C250.319 62.5421 250.24 62.9834 250.162 63.4251C250.008 63.9155 249.719 64.1606 249.297 64.1606C249.033 64.1606 248.823 64.0735 248.667 63.8962C248.51 63.7218 248.431 63.5125 248.431 63.2671C248.431 62.6703 248.559 61.9539 248.817 61.1118C249.2 59.845 249.403 59.1505 249.43 59.0222C249.542 58.4582 249.653 57.8942 249.765 57.3301C249.933 56.5728 250.12 56.0608 250.33 55.7882C250.54 55.5183 250.797 55.3822 251.102 55.3822C251.624 55.3822 251.995 55.892 252.214 56.9137C252.227 56.9791 252.285 57.3033 252.388 57.8863C252.54 58.7664 252.763 59.7037 253.057 60.7035C253.652 59.172 254.062 57.8808 254.285 56.8319C254.506 55.8105 254.894 55.3008 255.455 55.3008C255.874 55.3008 256.185 55.5893 256.392 56.17C256.487 56.4422 256.584 56.933 256.684 57.6413C256.9 59.1671 257.167 60.4696 257.491 61.5453C257.822 62.6622 257.987 63.2808 257.987 63.4032C257.987 63.6757 257.884 63.8913 257.676 64.0519C257.504 64.191 257.314 64.259 257.109 64.259C256.703 64.259 256.398 63.9836 256.198 63.4362C256.077 62.9674 255.955 62.5019 255.836 62.0383C255.664 61.4144 255.485 60.57 255.3 59.4992C255.145 59.935 254.899 60.6135 254.561 61.5345C254.444 61.8754 254.329 62.2104 254.213 62.5454C254.076 62.9406 253.934 63.2622 253.787 63.5128C253.575 63.8697 253.288 64.0467 252.922 64.0467C252.567 64.0467 252.296 63.856 252.106 63.4719C252.077 63.4091 251.958 63.0443 251.751 62.3795C251.488 61.5485 251.248 60.6711 251.032 59.7475L251.032 59.7469Z" fill="#C2BFFF"/>
<path id="5" d="M264.355 64.2392C264.156 64.2392 263.84 64.0024 263.411 63.528C263.016 63.7626 262.665 63.9396 262.365 64.0596C262.063 64.1794 261.807 64.2396 261.595 64.2396C260.558 64.2396 259.78 63.8961 259.261 63.2094C258.743 62.5233 258.482 61.4931 258.482 60.1252C258.482 58.8421 258.866 57.7438 259.632 56.8314C260.4 55.919 261.317 55.4609 262.385 55.4609C262.795 55.4609 263.269 55.6026 263.808 55.8885C264.459 56.2321 264.783 56.6295 264.783 57.082C264.783 57.2727 264.734 57.4389 264.637 57.5806C264.595 57.7906 264.562 58.0573 264.54 58.3759C264.516 58.6949 264.505 59.0679 264.505 59.4928C264.505 60.5011 264.562 61.2255 264.677 61.6697C264.691 61.7159 264.787 61.9913 264.97 62.4899C265.136 62.945 265.22 63.2038 265.22 63.2666C265.22 63.547 265.132 63.7786 264.957 63.9612C264.783 64.1463 264.582 64.2392 264.355 64.2392H264.355ZM262.757 58.8529C262.757 58.6808 262.767 58.4849 262.784 58.2644C262.802 58.0439 262.828 57.7959 262.863 57.526C262.777 57.4717 262.7 57.433 262.634 57.4088C262.568 57.3843 262.51 57.3732 262.464 57.3732C261.877 57.3732 261.366 57.6568 260.926 58.2235C260.488 58.793 260.269 59.4467 260.269 60.1933C260.269 60.9071 260.373 61.444 260.58 61.8036C260.785 62.1631 261.096 62.343 261.509 62.343C261.776 62.343 262.029 62.2887 262.268 62.1798C262.506 62.0708 262.731 61.9099 262.943 61.6949C262.82 60.4279 262.758 59.4798 262.758 58.8532L262.757 58.8529Z" fill="#C2BFFF"/>
<path id="6" d="M270.703 57.4865C270.586 57.4865 270.415 57.4783 270.183 57.4646C269.953 57.4509 269.779 57.4453 269.664 57.4453C269.598 57.4453 269.528 57.4509 269.45 57.4616C269.538 59.8512 269.583 61.5374 269.583 62.5238C269.583 63.714 269.269 64.311 268.641 64.311C268.407 64.311 268.204 64.2237 268.027 64.0467C267.838 63.8615 267.743 63.6243 267.743 63.3381C267.743 63.1506 267.75 62.867 267.763 62.4881C267.776 62.1066 267.783 61.8233 267.783 61.6381C267.783 60.9079 267.743 59.5267 267.664 57.4944C267.586 57.4944 267.394 57.4944 267.088 57.4944C266.649 57.4944 266.327 57.4423 266.124 57.3416C265.8 57.1839 265.639 56.8783 265.639 56.4262C265.639 56.1399 265.72 55.8919 265.881 55.6826C266.042 55.4725 266.252 55.3691 266.512 55.3691H270.333C271.173 55.3691 271.595 55.7231 271.595 56.4344C271.595 56.7311 271.511 56.982 271.345 57.1836C271.18 57.3848 270.966 57.4859 270.703 57.4859V57.4865Z" fill="#C2BFFF"/>
<path id="7" d="M274.712 63.9184C274.556 63.9184 274.344 63.9129 274.077 63.9021C273.761 63.8861 273.55 63.8749 273.441 63.8697C273.364 63.8916 273.285 63.9021 273.203 63.9021C272.59 63.9021 272.283 63.4611 272.283 62.5755C272.283 62.4744 272.307 62.1695 272.354 61.6575C272.413 61.0035 272.444 60.3904 272.444 59.8182C272.444 59.4256 272.425 58.8671 272.383 58.1425C272.343 57.4178 272.321 56.8538 272.321 56.456C272.321 55.7313 272.616 55.3691 273.205 55.3691C273.486 55.3691 273.708 55.4617 273.876 55.6495C274.044 55.8376 274.128 56.0719 274.128 56.3552C274.128 56.7857 274.15 57.4041 274.192 58.2049C274.286 58.1994 274.372 58.1968 274.452 58.1968C275.537 58.1968 276.347 58.3711 276.878 58.7228C277.576 59.1802 277.924 59.9814 277.924 61.1258C277.924 62.1093 277.586 62.8447 276.913 63.3273C276.355 63.7221 275.623 63.9184 274.712 63.9184ZM274.668 60.0606C274.543 60.0606 274.397 60.0662 274.231 60.0769C274.231 60.4993 274.198 61.1533 274.134 62.0383C274.355 62.0383 274.547 62.0383 274.708 62.0383C275.678 62.0383 276.164 61.733 276.164 61.1258C276.164 60.69 276.058 60.4041 275.844 60.2677C275.647 60.1286 275.257 60.0606 274.668 60.0606Z" fill="#C2BFFF"/>
<path id="8" d="M281.075 64.6352C280.785 64.6352 280.537 64.526 280.325 64.3055C280.115 64.0846 280.009 63.8366 280.009 63.5589C280.009 63.2782 280.115 63.0246 280.325 62.7986C280.537 62.5725 280.785 62.4609 281.075 62.4609C281.379 62.4609 281.633 62.5669 281.829 62.7793C282.028 62.9919 282.127 63.2507 282.127 63.5586C282.127 63.8419 282.023 64.0895 281.819 64.3077C281.611 64.5256 281.364 64.6349 281.075 64.6349L281.075 64.6352Z" fill="#C2BFFF"/>
<path id="9" d="M286.816 64.6352C286.527 64.6352 286.278 64.526 286.066 64.3055C285.856 64.0846 285.75 63.8366 285.75 63.5589C285.75 63.2782 285.856 63.0246 286.066 62.7986C286.278 62.5725 286.527 62.4609 286.816 62.4609C287.12 62.4609 287.374 62.5669 287.57 62.7793C287.769 62.9919 287.868 63.2507 287.868 63.5586C287.868 63.8419 287.764 64.0895 287.56 64.3077C287.352 64.5256 287.105 64.6349 286.816 64.6349L286.816 64.6352Z" fill="#C2BFFF"/>
<path id="10" d="M292.553 64.6352C292.264 64.6352 292.015 64.526 291.803 64.3055C291.594 64.0846 291.487 63.8366 291.487 63.5589C291.487 63.2782 291.593 63.0246 291.803 62.7986C292.015 62.5725 292.264 62.4609 292.553 62.4609C292.857 62.4609 293.111 62.5669 293.308 62.7793C293.506 62.9919 293.605 63.2507 293.605 63.5586C293.605 63.8419 293.502 64.0895 293.297 64.3077C293.09 64.5256 292.842 64.6349 292.554 64.6349L292.553 64.6352Z" fill="#C2BFFF"/>
</g>
<path id="Vector_45" fill-rule="evenodd" clip-rule="evenodd" d="M357.141 194.48H400.652V221.87C400.652 233.836 390.862 239.709 378.897 239.709H378.896C366.931 239.709 357.141 233.836 357.141 221.87V194.48H357.141Z" fill="#EBA884"/>
<path id="Vector_46" fill-rule="evenodd" clip-rule="evenodd" d="M400.652 197.738V208.882C394.857 220.323 364.273 225.128 357.141 197.786C362.968 202.821 370.563 205.867 378.868 205.867C387.201 205.867 394.817 202.802 400.652 197.738Z" fill="#C98560"/>
<path id="Vector_47" d="M378.97 188.033C377.712 188.182 376.455 188.331 375.198 188.479C374.551 188.555 375.609 190.445 376.247 190.37C377.505 190.221 378.762 190.073 380.014 189.925C380.665 189.848 379.603 187.959 378.969 188.033H378.97Z" fill="black"/>
<path id="Vector_48" d="M417.239 365.275C406.748 365.255 394.571 364.821 382.395 364.388C358.151 363.525 333.907 362.662 322.192 365.099L313.52 394.557C310.577 404.296 306.996 405.052 304.093 405.661L303.686 405.749C303.052 405.883 302.429 405.479 302.295 404.845C302.161 404.211 302.566 403.588 303.199 403.454L303.612 403.367C305.902 402.887 308.729 402.293 311.274 393.879L320.028 364.148L316.953 355.855C316.727 355.246 317.038 354.57 317.646 354.344C318.254 354.119 318.931 354.43 319.156 355.038L322.013 362.743C334.121 360.326 358.299 361.187 382.477 362.048C394.497 362.475 406.517 362.904 417.153 362.925L420.182 354.66C420.405 354.052 421.08 353.74 421.688 353.963C422.296 354.185 422.609 354.86 422.386 355.468L419.243 364.043L433.507 393.701C437.719 402.216 442.607 402.845 446.571 403.354L447.241 403.441C447.882 403.524 448.334 404.112 448.251 404.754C448.167 405.395 447.579 405.847 446.938 405.763L446.272 405.676C441.749 405.095 436.17 404.375 431.407 394.737L417.239 365.275L417.239 365.275Z" fill="#D90324"/>
<path id="Vector_49" fill-rule="evenodd" clip-rule="evenodd" d="M357.144 218.079V213.452C342.019 216.728 337.699 229.899 347.442 241.888C348.287 242.638 349.296 242.967 350.42 242.859C351.545 242.75 352.472 242.235 353.158 241.337L353.755 240.554L353.574 240.433C358.891 243.967 366.281 246.567 374.618 247.441C382.86 248.305 390.545 247.327 396.454 245.03L396.877 245.922C397.362 246.942 398.162 247.639 399.24 247.978C400.318 248.317 401.372 248.204 402.354 247.645C419.697 237.769 427.12 215.24 400.655 213.176L400.53 219.083L357.144 218.079Z" fill="#D90324"/>
<path id="Vector_50" fill-rule="evenodd" clip-rule="evenodd" d="M353.319 223.908C352.096 225.649 351.424 227.543 351.424 229.524C351.424 238.051 363.862 244.964 379.204 244.964C394.546 244.964 406.984 238.051 406.984 229.524C406.984 227.543 406.312 225.649 405.089 223.908H353.319Z" fill="#AD041E"/>
<path id="Vector_51" d="M401.65 258.626C415.366 252.943 424.792 242.465 426.931 232.039" stroke="#D90324" stroke-width="2.34998" stroke-miterlimit="22.9256" stroke-linecap="round" stroke-linejoin="round"/>
<path id="Vector_52" d="M380.013 321.184C379.386 319.986 379.849 318.507 381.047 317.88C382.245 317.254 383.724 317.717 384.35 318.915L388.178 326.234C388.805 327.432 388.342 328.911 387.144 329.538C385.946 330.164 384.467 329.701 383.841 328.503L380.013 321.184Z" fill="#FF5E04"/>
<g id="Group_5">
<path id="Vector_53" d="M381.649 253.895L379.317 253.718C379.365 253.075 379.927 252.594 380.571 252.642C381.215 252.69 381.697 253.252 381.649 253.895ZM379.513 297.121L379.96 295.971L380.338 294.855L380.653 293.765L380.907 292.698L381.107 291.649L381.254 290.613L381.354 289.583L381.41 288.557L381.427 287.527L381.406 286.49L381.353 285.441L381.269 284.376L381.16 283.29L381.028 282.18L380.877 281.041L380.712 279.869L380.535 278.663L380.351 277.416L380.165 276.125L379.979 274.788L379.798 273.401L379.626 271.958L379.468 270.457L379.327 268.895L379.208 267.267L379.115 265.569L379.051 263.799L379.021 261.952L379.028 260.024L379.078 258.011L379.172 255.911L379.317 253.718L381.649 253.895L381.508 256.04L381.415 258.093L381.367 260.057L381.36 261.938L381.39 263.738L381.452 265.464L381.543 267.118L381.659 268.706L381.797 270.231L381.951 271.698L382.119 273.112L382.297 274.477L382.48 275.798L382.665 277.078L382.849 278.324L383.026 279.537L383.194 280.724L383.348 281.888L383.485 283.035L383.599 284.167L383.687 285.29L383.744 286.407L383.766 287.522L383.748 288.639L383.686 289.761L383.576 290.891L383.413 292.032L383.193 293.188L382.913 294.36L382.569 295.553L382.157 296.769L381.675 298.013L379.513 297.121H379.513ZM388.432 332.436L387.853 331.858L387.268 331.224L386.679 330.535L386.088 329.793L385.496 329.001L384.907 328.161L384.322 327.275L383.745 326.345L383.177 325.374L382.623 324.363L382.084 323.316L381.563 322.235L381.063 321.122L380.587 319.979L380.138 318.809L379.718 317.615L379.331 316.398L378.979 315.161L378.666 313.907L378.394 312.637L378.167 311.355L377.987 310.062L377.858 308.761L377.783 307.454L377.765 306.145L377.807 304.835L377.913 303.528L378.086 302.225L378.329 300.93L378.646 299.645L379.039 298.374L379.512 297.121L381.674 298.012L381.251 299.132L380.899 300.27L380.615 301.425L380.395 302.594L380.238 303.776L380.141 304.968L380.102 306.167L380.12 307.372L380.189 308.579L380.309 309.786L380.476 310.991L380.688 312.189L380.944 313.38L381.238 314.559L381.569 315.725L381.935 316.875L382.332 318.004L382.758 319.112L383.209 320.195L383.683 321.251L384.177 322.275L384.688 323.268L385.213 324.224L385.749 325.141L386.292 326.017L386.841 326.849L387.391 327.634L387.939 328.368L388.482 329.049L389.017 329.675L389.539 330.241L390.045 330.745L388.431 332.436L388.432 332.436ZM388.432 332.436L390.046 330.745C390.513 331.19 390.531 331.93 390.085 332.396C389.64 332.863 388.899 332.881 388.432 332.436Z" fill="#FF5E04"/>
</g>
<g id="Group_6">
<path id="Vector_54" d="M361.313 252.983C361.452 252.353 362.077 251.955 362.707 252.094C363.338 252.233 363.736 252.857 363.597 253.486L361.313 252.983ZM358.548 289.778L356.307 289.11L356.567 288.197L356.799 287.304L357.005 286.425L357.186 285.558L357.346 284.7L357.486 283.846L357.609 282.994L357.717 282.14L357.811 281.28L357.894 280.411L357.968 279.53L358.036 278.634L358.098 277.72L358.158 276.785L358.218 275.825L358.279 274.838L358.345 273.821L358.417 272.771L358.497 271.685L358.588 270.56L358.691 269.394L358.81 268.183L358.946 266.925L359.101 265.617L359.279 264.255L359.48 262.837L359.707 261.36L359.964 259.821L360.249 258.216L360.569 256.544L360.922 254.8L361.313 252.982L363.597 253.486L363.212 255.278L362.863 256.995L362.55 258.64L362.268 260.217L362.017 261.729L361.794 263.179L361.596 264.57L361.423 265.905L361.27 267.188L361.136 268.422L361.02 269.611L360.918 270.757L360.829 271.864L360.749 272.935L360.678 273.974L360.613 274.985L360.552 275.969L360.492 276.931L360.431 277.874L360.368 278.801L360.299 279.715L360.223 280.619L360.137 281.517L360.039 282.412L359.927 283.306L359.797 284.201L359.649 285.102L359.48 286.011L359.287 286.93L359.069 287.862L358.823 288.81L358.547 289.777L358.548 289.778ZM348.777 316.181L346.511 315.603L346.683 314.96L346.876 314.296L347.087 313.611L347.317 312.907L347.564 312.183L347.826 311.44L348.103 310.68L348.393 309.903L348.695 309.111L349.008 308.304L349.332 307.484L349.664 306.651L350.003 305.807L350.348 304.952L350.699 304.088L351.054 303.216L351.411 302.338L351.771 301.452L352.13 300.563L352.489 299.67L352.846 298.775L353.2 297.878L353.549 296.982L353.893 296.086L354.231 295.193L354.56 294.304L354.881 293.419L355.191 292.541L355.49 291.669L355.777 290.806L356.049 289.953L356.307 289.11L358.548 289.777L358.281 290.649L358.001 291.528L357.706 292.416L357.4 293.308L357.084 294.206L356.757 295.107L356.422 296.012L356.079 296.918L355.731 297.824L355.377 298.731L355.02 299.636L354.66 300.537L354.3 301.436L353.938 302.329L353.579 303.216L353.221 304.095L352.866 304.967L352.516 305.829L352.173 306.679L351.836 307.518L351.507 308.343L351.187 309.154L350.879 309.949L350.582 310.727L350.298 311.487L350.028 312.228L349.774 312.947L349.537 313.645L349.317 314.318L349.117 314.966L348.936 315.588L348.777 316.18L348.777 316.181ZM348.086 334.812L345.806 335.331L345.662 334.677L345.532 334.028L345.414 333.384L345.307 332.743L345.213 332.107L345.131 331.474L345.061 330.845L345.002 330.219L344.955 329.597L344.918 328.977L344.893 328.36L344.878 327.745L344.874 327.132L344.881 326.522L344.897 325.914L344.923 325.307L344.959 324.701L345.004 324.096L345.059 323.492L345.123 322.889L345.195 322.286L345.276 321.683L345.366 321.079L345.463 320.476L345.569 319.872L345.682 319.267L345.802 318.661L345.93 318.053L346.066 317.444L346.207 316.832L346.356 316.219L346.51 315.602L348.777 316.18L348.627 316.777L348.483 317.37L348.346 317.96L348.216 318.546L348.093 319.129L347.978 319.71L347.869 320.288L347.769 320.863L347.676 321.437L347.591 322.009L347.515 322.58L347.446 323.15L347.386 323.72L347.334 324.288L347.292 324.856L347.258 325.426L347.233 325.995L347.218 326.565L347.212 327.137L347.216 327.709L347.23 328.283L347.253 328.86L347.287 329.439L347.332 330.021L347.387 330.605L347.452 331.193L347.529 331.785L347.617 332.381L347.717 332.981L347.828 333.586L347.951 334.196L348.086 334.811L348.086 334.812ZM348.086 334.812C348.23 335.44 347.836 336.067 347.206 336.21C346.577 336.353 345.949 335.96 345.806 335.331L348.086 334.812V334.812Z" fill="#FF5E04"/>
</g>
<path id="Vector_55" d="M344.603 319.314C344.743 317.969 345.946 316.993 347.29 317.133C348.635 317.273 349.611 318.477 349.471 319.821L348.615 328.037C348.475 329.381 347.271 330.358 345.927 330.218C344.583 330.078 343.606 328.874 343.747 327.529L344.603 319.314Z" fill="#FF5E04"/>
<g id="Group 65">
<path id="Vector_56" fill-rule="evenodd" clip-rule="evenodd" d="M412.354 173.506L411.94 176.765C409.647 194.987 393.016 207.9 374.795 205.607C356.573 203.314 343.66 186.684 345.953 168.462L346.363 165.202C340.821 164.505 336.867 159.456 337.565 153.906L338.528 146.253C338.788 144.191 340.023 142.483 341.711 141.533L349.222 142.478L351.594 123.63C351.594 123.63 364.601 110.607 372.296 113.196C376.726 116.102 383.229 117.99 388.803 118.103C392.944 118.187 396.563 117.423 398.45 116.512C402.476 114.567 414.531 130.028 417.571 132.678C417.104 136.851 416.271 143.37 415.265 150.789L421.105 151.524C423.223 151.79 424.983 154.372 424.641 157.088L423.678 164.742C422.979 170.293 417.897 174.203 412.354 173.506L412.354 173.506Z" fill="#EBA884"/>
<path id="Vector_57" fill-rule="evenodd" clip-rule="evenodd" d="M351.596 123.634L348.733 146.385L348.385 149.152C348.385 149.152 340.028 149.643 341.906 140.337C343.784 131.03 341.378 122.559 346.303 114.745C349.668 109.406 351.78 106.809 354.42 105.224C350.558 100.661 353.219 90.9985 354.128 89.3267C354.476 88.6933 354.74 88.4797 355.337 88.5255C355.856 88.5827 356.062 89.0149 356.005 89.5331C356.001 89.5645 353.992 100.082 358.619 103.416C358.707 101.589 355.353 90.5326 363.956 83.8343C372.698 77.0285 380.216 88.7443 379.901 89.2655C379.586 89.7867 397.41 92.0984 408.549 100.21C419.688 108.322 425.248 117.029 423.614 131.657C421.98 146.286 422.716 143.15 420.4 154.826C419.735 158.18 414.223 158.634 414.563 155.932C415.876 146.434 417.001 137.796 417.572 132.682C414.533 130.032 402.478 114.571 398.452 116.515C396.565 117.427 392.946 118.191 388.805 118.107C383.231 117.994 376.728 116.106 372.298 113.2C364.603 110.61 351.596 123.634 351.596 123.634V123.634Z" fill="#241813"/>
<path id="Vector_58" d="M341.713 151.297C341.713 151.297 339.543 158.078 343.141 160.148" stroke="#C98560" stroke-width="1.17515" stroke-miterlimit="22.9256" stroke-linecap="round" stroke-linejoin="round"/>
<path id="Vector_59" d="M396.174 128.289C400.099 130.894 404.215 133.298 407.222 136.997C408.373 138.413 410.85 139.115 412.595 138.82C414.329 138.528 414.6 137.194 413.573 135.934C410.196 131.78 405.612 128.989 401.207 126.065C399.725 125.082 397.518 124.262 395.759 125.034C394.092 125.771 395.067 127.553 396.174 128.289V128.289Z" fill="#241813"/>
<path id="Vector_60" d="M360.021 130.161C364.498 130.538 368.972 130.94 373.406 131.695C375.591 132.069 378.878 131.478 380.537 129.896C382.34 128.172 379.501 127.313 378.217 127.094C373.783 126.338 369.308 125.937 364.832 125.56C362.542 125.368 359.462 125.68 357.7 127.359C355.959 129.024 358.665 130.048 360.021 130.161Z" fill="#241813"/>
<path id="Vector_61" d="M363.519 142.81C363.266 144.82 364.693 146.655 366.701 146.908C368.714 147.16 370.547 145.736 370.799 143.727C371.052 141.716 369.63 139.882 367.617 139.629C365.609 139.376 363.772 140.8 363.519 142.811V142.81Z" fill="black"/>
<path id="Vector_62" d="M393.553 147.478C393.3 149.488 394.722 151.322 396.734 151.576C398.746 151.829 400.58 150.405 400.832 148.395C401.085 146.384 399.662 144.55 397.65 144.297C395.638 144.043 393.805 145.468 393.552 147.479L393.553 147.478Z" fill="black"/>
<path id="Vector_63" d="M381.256 149.579C380.706 154.052 380.569 158.559 379.979 163.034C379.654 165.478 380.605 168.129 379.725 170.441C379.205 171.82 377.063 173.514 375.382 173.625C374.802 173.662 375.318 174.275 375.506 174.418C375.962 174.766 376.541 174.986 377.112 174.948C378.779 174.838 381.036 173.516 381.683 172.133C382.718 169.902 381.757 167.191 382.114 164.776C382.816 160.063 382.916 155.309 383.497 150.588C383.594 149.785 381.318 149.05 381.256 149.58V149.579Z" fill="black"/>
<path id="Vector_64" d="M420.06 161.156C420.06 161.156 420.483 168.264 416.483 169.378" stroke="#C98560" stroke-width="1.17515" stroke-miterlimit="22.9256" stroke-linecap="round" stroke-linejoin="round"/>
<path id="Vector_65" d="M421.801 149.737L412.124 145.561" stroke="#160045" stroke-width="1.95837" stroke-miterlimit="22.9256" stroke-linecap="round" stroke-linejoin="round"/>
<path id="Vector_66" d="M387.243 147.051C384.075 144.474 380.77 144.238 377.359 145.807" stroke="#160045" stroke-width="1.95837" stroke-miterlimit="22.9256"/>
<path id="Vector_67" fill-rule="evenodd" clip-rule="evenodd" d="M400.978 140.106C413.613 141.695 412.877 147.543 412.392 151.401C411.906 155.259 410.943 162.91 398.309 161.321C385.675 159.731 386.637 152.08 387.123 148.221C387.608 144.364 388.344 138.516 400.978 140.106V140.106Z" stroke="#160045" stroke-width="1.95837" stroke-miterlimit="22.9256"/>
<path id="Vector_68" fill-rule="evenodd" clip-rule="evenodd" d="M365.824 135.682C378.458 137.272 377.722 143.119 377.237 146.978C376.752 150.836 375.791 158.471 363.156 156.882C350.522 155.291 351.483 147.656 351.968 143.798C352.454 139.94 353.189 134.092 365.824 135.682V135.682Z" stroke="#160045" stroke-width="1.95837" stroke-miterlimit="22.9256"/>
<path id="Vector_69" d="M341.306 139.604L353.659 138.199" stroke="#160045" stroke-width="1.95837" stroke-miterlimit="22.9256" stroke-linecap="round" stroke-linejoin="round"/>
<path id="Vector_70" d="M371.232 179.6C375.015 180.034 383.862 181.891 385.18 186.079C385.555 187.263 383.522 188.153 383.126 186.895C382.486 184.855 374.001 182.926 371.958 182.589C370.532 182.279 369.127 179.36 371.232 179.6Z" fill="black"/>
<g id="Group 1000006107">
<path id="Vector_71" fill-rule="evenodd" clip-rule="evenodd" d="M400.652 197.807V221.869C400.652 233.835 390.861 239.708 378.896 239.708H378.896C366.931 239.708 357.141 233.835 357.141 221.869V197.725C361.946 201.905 368.001 204.754 374.795 205.609C384.51 206.832 393.773 203.731 400.652 197.807H400.652Z" fill="#EBA884"/>
<path id="Vector_72" fill-rule="evenodd" clip-rule="evenodd" d="M400.652 197.809V208.887C394.857 220.328 364.273 225.133 357.141 197.791C362.801 202.681 370.128 205.695 378.155 205.864L378.301 205.866L378.687 205.87C386.96 205.945 394.699 202.936 400.652 197.809Z" fill="#C98560"/>
</g>
<path id="Vector_73" d="M378.97 188.033C377.712 188.182 376.455 188.331 375.198 188.479C374.551 188.555 375.609 190.445 376.247 190.37C377.505 190.221 378.762 190.073 380.014 189.925C380.665 189.848 379.603 187.959 378.969 188.033H378.97Z" fill="black"/>
</g>
<path id="Vector_74" fill-rule="evenodd" clip-rule="evenodd" d="M555.834 342.915C560.827 323.961 557.289 302.23 544.176 287.188C539.295 293.516 536.39 301.446 536.39 310.055C536.39 324.216 544.244 336.541 555.834 342.915Z" fill="#FF6600"/>
<path id="Vector_75" d="M486.536 327.026C488.073 324.537 490.849 321.857 494.343 319.691" stroke="#D90324" stroke-width="2.34998" stroke-miterlimit="22.9256" stroke-linecap="round" stroke-linejoin="round"/>
<path id="Vector_76" fill-rule="evenodd" clip-rule="evenodd" d="M340.923 750.773L341.449 760.784C341.331 760.812 341.223 760.88 341.147 760.984L339.963 762.603C339.888 762.69 339.841 762.804 339.835 762.932L339.827 763.14C339.697 765.327 338.761 766.94 337.224 767.926C335.652 768.933 333.44 769.307 330.8 768.995L330.397 768.842C330.457 764.286 330.303 760.856 326.677 757.781C322.733 754.437 308.826 753.328 302.794 754.083L303.075 750.6C314.802 752.748 331.392 753.207 340.923 750.773H340.923Z" fill="#DAD9FF"/>
<path id="Vector_77" fill-rule="evenodd" clip-rule="evenodd" d="M252.238 811.225C247.37 836.633 304.707 839.699 322.754 823.755C340.801 807.812 351.825 817.734 350.236 791.068C349.923 788.103 349.293 784.651 348.474 781.159C346.855 771.25 344.112 765.343 342.463 761.794L342.16 761.14C342.117 761.046 342.051 760.962 341.963 760.894C341.697 760.689 341.332 760.726 341.149 760.977L339.965 762.597C339.889 762.684 339.843 762.797 339.837 762.925L339.829 763.133C339.699 765.32 338.762 766.933 337.226 767.919C335.654 768.927 333.442 769.301 330.801 768.988L330.573 768.959L330.398 768.835C330.458 764.279 330.305 760.849 326.678 757.774C322.536 754.262 307.405 753.215 301.947 754.203C294.571 755.539 295.105 752.546 295.619 764.24C295.503 764.309 295.395 764.379 295.295 764.448C293.253 765.74 291.041 767.09 288.754 768.485C271.352 779.101 249.576 792.389 252.242 811.256L252.24 811.324C252.24 811.291 252.236 811.257 252.238 811.224H252.238L252.239 811.224L252.238 811.225ZM289.424 769.505C272.269 779.97 250.796 793.071 253.41 811.242L253.414 811.357C253.375 812.039 253.666 812.758 254.239 813.488C255.717 815.371 258.953 817.268 263.3 818.912C267.714 820.582 273.241 821.971 279.221 822.81C293.459 824.807 310.243 823.688 320.659 815.808C327.349 810.748 332.702 807.508 336.858 804.989C345.754 799.602 349.034 797.614 348.149 787.862C346.919 774.335 343.522 766.774 341.541 762.504L341.001 763.241L340.997 763.291C340.846 765.855 339.736 767.754 337.912 768.925C336.126 770.07 333.664 770.502 330.763 770.158L330.369 770.106C330.268 770.094 330.167 770.056 330.075 769.99C324.774 766.159 318.747 764.251 313.209 763.521C305.211 762.465 298.282 763.846 296.017 765.433L295.997 765.447C293.908 766.768 291.704 768.113 289.423 769.504L289.423 769.504V769.505L289.424 769.505Z" fill="#868CB5"/>
<path id="Vector_78" fill-rule="evenodd" clip-rule="evenodd" d="M289.424 769.511C272.27 779.976 250.797 793.077 253.411 811.248L253.415 811.363C253.376 812.045 253.667 812.764 254.24 813.494C255.718 815.377 258.954 817.274 263.301 818.918C267.715 820.588 273.242 821.977 279.222 822.816C293.46 824.813 310.244 823.694 320.66 815.814C327.35 810.754 332.703 807.512 336.858 804.995C345.755 799.608 349.035 797.62 348.15 787.868C346.92 774.34 343.523 766.78 341.541 762.51L341.002 763.247L340.998 763.297C340.847 765.861 339.737 767.76 337.913 768.931C336.127 770.076 333.664 770.508 330.763 770.164L330.37 770.112C330.268 770.1 330.167 770.062 330.076 769.996C324.775 766.165 318.748 764.257 313.21 763.527C305.212 762.471 298.283 763.852 296.018 765.439L295.998 765.453C293.909 766.774 291.704 768.119 289.423 769.51L289.424 769.51V769.511L289.424 769.511Z" fill="#E5EEFF"/>
<path id="Vector_79" fill-rule="evenodd" clip-rule="evenodd" d="M340.339 802.855C342.937 789.464 340.358 773.898 344.697 770.35C346.108 774.645 347.466 780.329 348.15 787.865C348.909 796.221 346.61 798.877 340.339 802.855H340.339Z" fill="#C5D2EB"/>
<path id="Vector_80" d="M297.269 787.602L292.924 791.762C292.701 791.977 292.33 791.954 292.096 791.712C291.862 791.469 291.854 791.097 292.078 790.882L296.123 787.009C295.717 786.695 295.419 786.31 295.287 785.88C295.047 785.094 295.418 784.35 296.175 783.871C295.681 783.314 295.074 782.788 294.389 782.303C292.669 781.089 290.489 780.16 288.296 779.642C286.121 779.13 283.958 779.024 282.257 779.452C281.969 779.525 281.696 779.613 281.44 779.716C281.657 779.909 281.817 780.124 281.904 780.355C282.273 781.344 281.133 782.237 279.361 782.351C278.667 782.395 277.979 782.314 277.376 782.139C275.115 783.748 273.058 785.311 271.23 786.875C270.994 787.077 270.624 787.035 270.402 786.781C270.181 786.528 270.193 786.158 270.428 785.956C272.139 784.491 274.041 783.032 276.115 781.541C275.811 781.315 275.591 781.052 275.484 780.766C275.115 779.778 276.254 778.885 278.026 778.771C278.161 778.762 278.295 778.758 278.428 778.759C279.236 777.99 280.294 777.465 281.512 777.159C281.943 777.05 282.396 776.969 282.865 776.915C284.226 776.011 285.636 775.087 287.092 774.132C286.816 773.916 286.615 773.668 286.514 773.398C286.145 772.41 287.284 771.516 289.057 771.403C289.273 771.388 289.488 771.388 289.699 771.397C290.64 770.75 291.818 770.349 293.135 770.156C294.272 769.401 295.432 768.626 296.615 767.826C296.873 767.652 297.241 767.733 297.437 768.007C297.632 768.281 297.581 768.645 297.323 768.819C296.723 769.226 296.126 769.626 295.535 770.022C297.533 770.069 299.695 770.465 301.727 771.107C304.514 771.989 307.109 773.352 308.762 774.929C309.117 775.268 309.432 775.619 309.7 775.981C311.144 776.111 312.416 776.887 312.732 777.921C313.109 779.155 311.979 780.288 310.208 780.451C308.437 780.614 306.696 779.746 306.318 778.512C306.082 777.741 306.435 777.009 307.166 776.529C305.809 775.255 303.607 774.124 301.192 773.36C298.723 772.58 296.078 772.201 293.919 772.458C293.513 772.506 293.127 772.576 292.765 772.671C292.837 772.772 292.894 772.878 292.935 772.987C293.303 773.976 292.165 774.869 290.392 774.983C289.681 775.028 288.975 774.941 288.362 774.757L288.27 774.818C287.217 775.507 286.187 776.182 285.182 776.844C286.309 776.898 287.481 777.069 288.646 777.343C291.147 777.933 293.649 779.003 295.635 780.406C296.848 781.263 297.882 782.252 298.63 783.345C300.091 783.465 301.383 784.245 301.701 785.288C302.079 786.522 300.949 787.655 299.177 787.818C298.514 787.88 297.854 787.796 297.269 787.602H297.269V787.602ZM308.345 817.311C308.652 817.234 308.984 817.427 309.086 817.743C309.189 818.058 309.023 818.377 308.716 818.454C300.627 820.508 290.5 821.09 281.092 820.241C274.291 819.628 267.854 818.264 262.819 816.168C257.672 814.025 253.961 811.098 252.749 807.397C252.464 806.528 252.318 805.616 252.325 804.664C252.327 804.341 252.591 804.102 252.915 804.131C253.239 804.16 253.499 804.446 253.497 804.769C253.49 805.586 253.616 806.37 253.861 807.118C254.944 810.421 258.386 813.087 263.188 815.087C268.102 817.133 274.414 818.467 281.1 819.07C290.385 819.908 300.374 819.335 308.345 817.31L308.345 817.311H308.345V817.311ZM347.6 786.037C347.67 786.359 347.47 786.655 347.155 786.699C346.839 786.742 346.526 786.517 346.456 786.196C345.981 784.005 345.347 782.715 344.661 782.192C344.324 781.935 343.959 781.903 343.592 782.071C343.119 782.287 342.627 782.795 342.155 783.557C340.463 786.283 339.197 791.959 339.698 799.204C339.878 801.816 332.029 806.367 324.989 810.447C321.484 812.478 318.183 814.391 316.244 815.824C315.994 816.009 315.625 815.942 315.419 815.675C315.214 815.409 315.25 815.042 315.5 814.857C317.485 813.39 320.811 811.462 324.343 809.416C331.114 805.491 338.663 801.115 338.529 799.186C338.012 791.689 339.356 785.76 341.145 782.876C341.727 781.939 342.373 781.297 343.036 780.993C343.807 780.641 344.587 780.717 345.32 781.277C346.243 781.981 347.055 783.525 347.601 786.038V786.037H347.6ZM335.784 794.104C335.751 793.779 335.985 793.51 336.307 793.504C336.629 793.498 336.917 793.756 336.951 794.08L337.474 799.094C337.507 799.418 337.273 799.687 336.951 799.694C336.629 799.7 336.34 799.442 336.307 799.117L335.784 794.104ZM333.376 795.962C333.343 795.636 333.577 795.368 333.899 795.361C334.221 795.355 334.51 795.613 334.543 795.938L335.066 800.951C335.099 801.276 334.865 801.545 334.543 801.551C334.221 801.558 333.932 801.3 333.899 800.975L333.376 795.962Z" fill="#868CB5"/>
<path id="Vector_81" fill-rule="evenodd" clip-rule="evenodd" d="M431.007 750.231L431.85 755.518C432.018 755.52 432.185 755.593 432.304 755.731L433.676 757.335C433.761 757.422 433.821 757.535 433.841 757.662L433.872 757.868C434.244 760.037 435.364 761.636 437.022 762.612C438.718 763.609 445.653 764.669 448.28 764.355L448.507 764.326L448.669 764.203C447.939 758.331 447.266 755.07 453.448 752.195C455.546 751.22 466.988 750.105 470.305 750.304L470.976 750.345L469.995 745.336C460.344 748.762 442.38 750.811 431.008 750.231H431.007L431.007 750.231Z" fill="#DAD9FF"/>
<path id="Vector_82" fill-rule="evenodd" clip-rule="evenodd" d="M527.46 805.464C535.161 830.658 477.697 833.769 457.751 817.978C437.804 802.187 427.782 812.041 426.452 785.591C426.44 782.65 426.696 779.225 427.137 775.761C427.68 765.932 429.796 760.069 431.067 756.547L431.301 755.898C431.334 755.805 431.391 755.721 431.472 755.654C431.718 755.45 432.09 755.487 432.302 755.735L433.674 757.339C433.76 757.426 433.819 757.539 433.839 757.666L433.87 757.872C434.242 760.041 435.363 761.64 437.021 762.616C438.717 763.613 445.651 764.673 448.279 764.36L448.505 764.33L448.668 764.207C447.938 758.336 447.264 755.074 453.447 752.199C455.544 751.224 466.986 750.109 470.303 750.308C476.385 750.674 478.67 750.894 478.56 758.917C478.685 758.985 478.801 759.054 478.909 759.123C481.11 760.402 483.489 761.737 485.947 763.118C504.658 773.627 528.073 786.78 527.459 805.495L527.469 805.562C527.465 805.53 527.466 805.496 527.46 805.464H527.46L527.46 805.464L527.46 805.464ZM485.384 764.13C503.829 774.489 526.915 787.458 526.28 805.484L526.289 805.598C526.403 806.273 526.189 806.986 525.691 807.712C524.409 809.581 521.355 811.467 517.154 813.103C512.887 814.764 507.468 816.149 501.532 816.988C487.398 818.986 470.355 817.896 458.988 810.094C451.688 805.084 445.935 801.874 441.468 799.383C431.907 794.05 428.382 792.083 428.202 782.41C427.953 768.991 430.547 761.488 432.075 757.251L432.699 757.982L432.709 758.031C433.143 760.574 434.47 762.456 436.439 763.614C438.366 764.749 445.558 765.864 448.445 765.52L448.836 765.468C448.937 765.456 449.035 765.418 449.12 765.353C454.042 761.546 460.624 759.228 466.126 758.496C474.453 758.053 475.831 758.529 478.289 760.101L478.311 760.113C480.562 761.421 482.933 762.753 485.384 764.13L485.384 764.13V764.13Z" fill="#868CB5"/>
<path id="Vector_83" fill-rule="evenodd" clip-rule="evenodd" d="M525.695 807.708C524.412 809.577 521.358 811.462 517.157 813.098C512.89 814.759 507.471 816.145 501.536 816.984C487.402 818.982 470.359 817.891 458.992 810.089C451.691 805.079 445.938 801.87 441.471 799.379C431.91 794.046 428.385 792.079 428.205 782.406C427.956 768.987 430.551 761.484 432.078 757.246L432.703 757.977L432.712 758.026C433.146 760.569 434.474 762.451 436.443 763.61C436.973 763.922 437.903 764.233 439.032 764.512C439.616 764.665 440.22 764.794 440.837 764.901L440.965 764.925L440.974 764.927L441.094 764.949L441.194 764.967L441.224 764.972L441.354 764.995L441.414 765.006L441.484 765.018L441.615 765.04L441.637 765.044L441.746 765.062L441.86 765.081L441.878 765.083L442.01 765.105L442.085 765.117L442.142 765.126L442.275 765.147L442.311 765.152L442.407 765.167L442.537 765.186L442.54 765.186L442.673 765.206L442.763 765.218L442.806 765.224L442.939 765.243L442.989 765.25L443.072 765.261L443.205 765.279L443.215 765.28L443.338 765.296L443.44 765.31L443.47 765.313L443.603 765.33L443.666 765.337L443.735 765.345L443.866 765.361L443.89 765.364L443.998 765.376L444.113 765.388L444.129 765.39L444.259 765.404L444.334 765.412L444.389 765.418L444.519 765.431L444.555 765.434L444.648 765.444L444.773 765.455L444.776 765.456L444.903 765.467L444.99 765.475L445.03 765.478L445.156 765.488L445.204 765.492L445.281 765.498L445.406 765.508L445.417 765.509L445.53 765.516L445.626 765.523L445.652 765.524L445.774 765.532L445.833 765.536L445.895 765.54L446.014 765.546L446.037 765.547L446.133 765.553L446.237 765.557L446.251 765.558L446.366 765.562L446.434 765.565L446.481 765.567L446.595 765.57L446.628 765.572L446.707 765.574L446.817 765.576H446.818L446.927 765.578L447.003 765.578L447.036 765.579L447.142 765.579H447.183L447.35 765.578L447.36 765.578L447.452 765.577L447.531 765.575L447.552 765.575L447.649 765.572L447.698 765.571L447.746 765.569L447.84 765.564L447.858 765.564L447.932 765.56L448.014 765.555L448.024 765.554L448.113 765.548L448.165 765.544L448.199 765.542L448.309 765.531L448.367 765.525L448.448 765.516L448.84 765.464C448.94 765.452 449.038 765.414 449.123 765.349C454.046 761.543 460.627 759.224 466.13 758.493L466.279 758.485L466.432 758.477C467.916 758.406 469.93 758.361 471.818 758.343C475.347 758.417 476.548 758.981 478.293 760.097L478.315 760.109C480.566 761.418 482.937 762.749 485.388 764.126L485.388 764.126C503.833 774.485 526.919 787.454 526.284 805.48L526.292 805.594C526.337 805.859 526.332 806.129 526.278 806.404C526.137 806.903 525.945 807.344 525.695 807.708L525.695 807.707V807.708Z" fill="#E5EEFF"/>
<path id="Vector_84" fill-rule="evenodd" clip-rule="evenodd" d="M437.728 797.26C433.637 783.982 434.525 768.54 429.76 765.025C428.81 769.287 428.066 774.926 428.205 782.402C428.359 790.691 430.97 793.322 437.728 797.26Z" fill="#C5D2EB"/>
<path id="Vector_85" d="M479.466 782.085L484.303 786.205C484.552 786.418 484.924 786.396 485.133 786.154C485.342 785.913 485.309 785.545 485.06 785.331L480.555 781.494C480.931 781.183 481.188 780.8 481.274 780.374C481.429 779.594 480.974 778.857 480.157 778.381C480.595 777.829 481.149 777.307 481.787 776.825C483.386 775.619 485.482 774.693 487.636 774.178C489.772 773.667 491.941 773.56 493.704 773.982C494.001 774.054 494.287 774.141 494.556 774.243C494.358 774.435 494.22 774.649 494.159 774.877C493.896 775.858 495.142 776.743 496.942 776.854C497.647 776.897 498.331 776.815 498.92 776.641C501.376 778.234 503.621 779.782 505.636 781.331C505.896 781.531 506.265 781.488 506.46 781.237C506.656 780.985 506.604 780.619 506.344 780.418C504.457 778.968 502.38 777.523 500.125 776.047C500.406 775.822 500.6 775.561 500.676 775.278C500.939 774.297 499.693 773.412 497.893 773.301C497.756 773.293 497.621 773.289 497.487 773.29C496.588 772.528 495.463 772.009 494.202 771.706C493.755 771.599 493.29 771.52 492.811 771.466C491.339 770.572 489.817 769.657 488.244 768.712C488.498 768.497 488.674 768.251 488.745 767.984C489.008 767.003 487.761 766.118 485.962 766.007C485.743 765.994 485.526 765.993 485.314 766.002C484.294 765.362 483.063 764.966 481.714 764.776C480.485 764.029 479.231 763.262 477.95 762.469C477.671 762.297 477.309 762.378 477.142 762.65C476.975 762.922 477.065 763.283 477.345 763.455C477.995 763.857 478.64 764.254 479.28 764.646C477.271 764.695 475.135 765.09 473.157 765.73C470.444 766.607 467.978 767.963 466.485 769.529C466.165 769.865 465.887 770.214 465.656 770.573C464.214 770.704 463.017 771.475 462.813 772.5C462.568 773.725 463.832 774.847 465.635 775.007C467.439 775.167 469.098 774.304 469.343 773.079C469.497 772.314 469.06 771.589 468.271 771.113C469.499 769.848 471.594 768.723 473.945 767.963C476.348 767.186 478.972 766.807 481.177 767.059C481.591 767.107 481.988 767.176 482.364 767.269C482.302 767.369 482.257 767.474 482.228 767.582C481.965 768.563 483.211 769.448 485.011 769.559C485.732 769.603 486.434 769.515 487.032 769.332L487.131 769.392C488.269 770.075 489.382 770.743 490.467 771.398C489.337 771.452 488.175 771.624 487.031 771.898C484.573 772.485 482.169 773.55 480.321 774.944C479.193 775.796 478.26 776.778 477.625 777.863C476.166 777.984 474.95 778.759 474.743 779.794C474.498 781.019 475.762 782.14 477.566 782.3C478.241 782.36 478.897 782.277 479.466 782.084L479.466 782.085L479.466 782.085ZM471.568 811.565C471.25 811.489 470.936 811.681 470.868 811.994C470.799 812.308 471.002 812.623 471.32 812.699C479.7 814.727 489.974 815.292 499.364 814.439C506.152 813.822 512.492 812.462 517.337 810.376C522.29 808.244 525.709 805.337 526.524 801.665C526.716 800.802 526.763 799.897 526.651 798.954C526.613 798.633 526.321 798.397 525.998 798.426C525.675 798.455 525.444 798.738 525.482 799.059C525.578 799.869 525.537 800.647 525.373 801.389C524.645 804.667 521.469 807.315 516.847 809.305C512.118 811.34 505.901 812.671 499.228 813.277C489.96 814.12 479.827 813.564 471.569 811.565H471.568H471.568H471.568ZM428.555 780.595C428.52 780.914 428.754 781.207 429.077 781.25C429.4 781.293 429.691 781.069 429.726 780.75C429.964 778.576 430.462 777.297 431.096 776.777C431.406 776.523 431.771 776.491 432.159 776.656C432.66 776.871 433.211 777.373 433.772 778.129C435.778 780.83 437.677 786.458 437.97 793.644C438.076 796.236 446.489 800.739 454.034 804.777C457.791 806.788 461.329 808.681 463.441 810.099C463.713 810.282 464.078 810.216 464.256 809.951C464.434 809.686 464.357 809.322 464.085 809.139C461.922 807.687 458.358 805.778 454.572 803.753C447.314 799.869 439.223 795.538 439.145 793.624C438.842 786.187 436.836 780.308 434.714 777.451C434.025 776.522 433.304 775.886 432.601 775.585C431.785 775.237 431.008 775.314 430.33 775.869C429.477 776.569 428.828 778.101 428.555 780.594L428.555 780.594V780.595ZM441.354 788.581C441.352 788.259 441.086 787.993 440.76 787.986C440.435 787.98 440.173 788.236 440.175 788.559L440.199 793.531C440.201 793.853 440.467 794.12 440.792 794.126C441.118 794.132 441.38 793.876 441.378 793.554L441.354 788.581ZM443.986 790.421C443.983 790.098 443.718 789.832 443.392 789.825C443.067 789.82 442.804 790.076 442.807 790.398L442.831 795.371C442.833 795.693 443.098 795.96 443.424 795.966C443.749 795.972 444.012 795.715 444.01 795.393L443.986 790.42V790.421Z" fill="#868CB5"/>
<path id="Vector_86" fill-rule="evenodd" clip-rule="evenodd" d="M420.71 746.69C419.962 754.395 478.609 748.777 476.601 739.924L460.763 503.541L453.646 427.49C436.044 429.954 402.5 431.2 379.86 431.225C357.219 431.2 331.509 429.955 313.908 427.49L313.147 441.133L300.67 556L289.661 744.131C288.225 752.678 349.426 757.112 348.438 744.84L366.821 603.314L381.031 499.893L420.711 746.691L420.71 746.69V746.69Z" fill="#6934D9"/>
<path id="Vector_87" fill-rule="evenodd" clip-rule="evenodd" d="M343.517 749.97C346.721 748.766 348.62 747.085 348.44 744.844L366.823 603.319L381.032 499.898L375.141 487.365L360.173 592.168L343.517 749.97V749.97L343.517 749.97Z" fill="#2B0087"/>
<path id="Vector_88" d="M382.091 471.257L381.868 429.775" stroke="#2B0087" stroke-width="2.34998" stroke-miterlimit="22.9256" stroke-linecap="round" stroke-linejoin="round"/>
<path id="Vector_89" d="M474.321 743.359L447.948 441.903L446.716 424.367" stroke="#2B0087" stroke-width="2.34998" stroke-miterlimit="22.9256" stroke-linecap="round" stroke-linejoin="round"/>
<path id="Vector_90" d="M451.981 486.426L442.576 483.027L433.906 427.49" stroke="#2B0087" stroke-width="2.34998" stroke-miterlimit="22.9256" stroke-linecap="round" stroke-linejoin="round"/>
<path id="Vector_91" d="M363.199 598.567L354.135 579.381" stroke="#2B0087" stroke-width="2.34998" stroke-miterlimit="22.9256" stroke-linecap="round" stroke-linejoin="round"/>
<path id="Vector_92" d="M300.671 556.004L317.749 447.356L318.936 428.141" stroke="#2B0087" stroke-width="2.34998" stroke-miterlimit="22.9256" stroke-linecap="round" stroke-linejoin="round"/>
<path id="Vector_93" d="M381.117 499.897L371.968 480.71L371.771 429.562" stroke="#2B0087" stroke-width="2.34998" stroke-miterlimit="22.9256" stroke-linecap="round" stroke-linejoin="round"/>
<path id="Vector_94" d="M308.887 480.676L312.847 476.967" stroke="#2B0087" stroke-width="2.34998" stroke-miterlimit="22.9256" stroke-linecap="round" stroke-linejoin="round"/>
<path id="Vector_95" fill-rule="evenodd" clip-rule="evenodd" d="M453.647 427.492C436.045 429.956 402.501 431.202 379.861 431.227C357.22 431.202 331.51 429.957 313.909 427.492C309.509 426.876 305.886 424.235 305.321 420.012C305.725 419.985 306.099 419.748 306.289 419.372C317.185 424.794 333.012 429.176 383.777 427.492C436.188 425.754 453.275 420.498 457.75 418.785C457.68 420.132 458.197 425.126 453.646 427.492H453.647Z" fill="#2B0087"/>
<path id="Vector_96" d="M313.908 427.49L313.147 441.133L300.67 556L289.661 744.131C288.225 752.678 349.426 757.112 348.438 744.84L366.821 603.314L381.031 499.893L420.711 746.691C419.962 754.396 478.61 748.778 476.601 739.925L460.764 503.542L453.646 427.491" stroke="#2B0087" stroke-width="2.34998" stroke-miterlimit="22.9256" stroke-linecap="round" stroke-linejoin="round"/>
<path id="Vector_97" fill-rule="evenodd" clip-rule="evenodd" d="M473.676 365.579L490.367 395.456L480.246 404.252C477.574 406.574 474.758 407.961 471.289 408.664L467.499 409.432C466.406 409.949 464.848 410.695 461.447 412.382C456.448 415.019 452.198 407.736 457.727 404.963L464.268 401.681L463.79 400.728C453.049 405.816 468.463 398.293 457.257 404.027C451.57 406.857 447.507 398.082 452.915 395.369L459.447 392.069L458.933 391.044L452.391 394.326C447.145 396.957 442.68 387.943 447.885 385.34L454.426 382.059L453.913 381.034L447.371 384.316C442.169 386.924 437.682 377.929 442.864 375.33L457 368.459L463.519 365.217L463.569 354.688C468.803 355.739 470.724 360.76 469.066 364.093L471.488 365.188L471.944 365.764L472.256 365.952L473.676 365.579Z" fill="#EBA884"/>
<path id="Vector_98" d="M465.782 400.361L473.308 396.752" stroke="#C98560" stroke-width="1.16337" stroke-miterlimit="22.9256" stroke-linecap="round" stroke-linejoin="round"/>
<path id="Vector_99" d="M460.274 391.131L467.872 387.42" stroke="#C98560" stroke-width="1.16337" stroke-miterlimit="22.9256" stroke-linecap="round" stroke-linejoin="round"/>
<path id="Vector_100" d="M455.685 380.833L464.964 376.383" stroke="#C98560" stroke-width="1.16337" stroke-miterlimit="22.9256" stroke-linecap="round" stroke-linejoin="round"/>
<path id="Vector_101" d="M456.996 368.459L465.533 364.27C473.518 362.247 476.041 371.162 470.355 374.489C476.464 371.445 481.276 381.535 475.087 384.715L470.501 386.968C475.77 384.402 480.139 393.451 474.91 396.001" stroke="#C98560" stroke-width="1.16337" stroke-miterlimit="22.9256" stroke-linecap="round" stroke-linejoin="round"/>
<path id="Vector_102" d="M465.782 400.361L473.308 396.752" stroke="#C98560" stroke-width="1.16337" stroke-miterlimit="22.9256" stroke-linecap="round" stroke-linejoin="round"/>
<path id="Vector_103" d="M460.274 391.131L467.872 387.42" stroke="#C98560" stroke-width="1.16337" stroke-miterlimit="22.9256" stroke-linecap="round" stroke-linejoin="round"/>
<path id="Vector_104" d="M455.685 380.833L464.964 376.383" stroke="#C98560" stroke-width="1.16337" stroke-miterlimit="22.9256" stroke-linecap="round" stroke-linejoin="round"/>
<path id="Vector_105" d="M456.996 368.459L465.533 364.27C473.518 362.247 476.041 371.162 470.355 374.489C476.464 371.445 481.276 381.535 475.087 384.715L470.501 386.968C475.77 384.402 480.139 393.451 474.91 396.001" stroke="#C98560" stroke-width="1.16337" stroke-miterlimit="22.9256" stroke-linecap="round" stroke-linejoin="round"/>
<path id="Vector_106" fill-rule="evenodd" clip-rule="evenodd" d="M496.639 389.599L496.55 389.503C495.77 388.89 495.03 388.208 494.341 387.459L473.575 364.857C473.502 364.778 473.431 364.698 473.36 364.617L472.526 365.381C472.98 365.888 473.333 366.466 473.582 367.086C473.951 368.007 474.09 369.021 473.98 370.028C473.854 371.19 473.4 372.345 472.593 373.341C473.999 373.329 475.265 373.909 476.268 374.831C476.889 375.402 477.408 376.107 477.793 376.884C478.176 377.656 478.427 378.503 478.516 379.359C478.616 380.323 478.512 381.299 478.166 382.202L490.334 395.45L496.64 389.599L496.639 389.599Z" fill="#D90324"/>
<path id="Vector_107" d="M299.444 306.929C299.457 306.283 299.991 305.769 300.638 305.781C301.284 305.794 301.798 306.328 301.785 306.975C301.674 312.401 301.539 347.46 301.449 371.523C301.402 383.805 301.366 393.228 301.35 394.393L301.325 396.457L301.32 398.49C301.472 403.476 300.857 406.957 300.396 409.562C299.631 413.894 299.371 415.364 305.658 417.745C306.263 417.973 306.569 418.649 306.341 419.255C306.113 419.861 305.437 420.167 304.831 419.939C296.721 416.866 297.066 414.915 298.083 409.158C298.528 406.641 299.122 403.277 298.979 398.561L298.971 398.427L298.985 396.439L299.009 394.365C299.026 393.19 299.062 383.784 299.108 371.522C299.2 347.436 299.333 312.344 299.445 306.929L299.444 306.929Z" fill="#D90324"/>
</g>
</g>
</g>
<defs>
<linearGradient id="paint0_linear_1536_7308" x1="434.032" y1="87.7672" x2="449.461" y2="115.223" gradientUnits="userSpaceOnUse">
<stop stop-color="#6934DD"/>
<stop offset="1" stop-color="#FF0431"/>
</linearGradient>
<linearGradient id="paint1_linear_1536_7308" x1="411.689" y1="71.5563" x2="474.378" y2="182.873" gradientUnits="userSpaceOnUse">
<stop stop-color="#6934DD"/>
<stop offset="1" stop-color="#FF0431"/>
</linearGradient>
<linearGradient id="paint2_linear_1536_7308" x1="395.253" y1="74.4321" x2="482.869" y2="227.457" gradientUnits="userSpaceOnUse">
<stop stop-color="#6934DD"/>
<stop offset="1" stop-color="#FF0431"/>
</linearGradient>
<linearGradient id="paint3_linear_1536_7308" x1="376.423" y1="85.6185" x2="481.274" y2="267.828" gradientUnits="userSpaceOnUse">
<stop stop-color="#6934DD"/>
<stop offset="1" stop-color="#FF0431"/>
</linearGradient>
<linearGradient id="paint4_linear_1536_7308" x1="353.281" y1="99.3143" x2="474.346" y2="309.93" gradientUnits="userSpaceOnUse">
<stop stop-color="#6934DD"/>
<stop offset="1" stop-color="#FF0431"/>
</linearGradient>
<linearGradient id="paint5_linear_1536_7308" x1="306.628" y1="107.483" x2="458.831" y2="373.955" gradientUnits="userSpaceOnUse">
<stop stop-color="#6934DD"/>
<stop offset="1" stop-color="#FF0431"/>
</linearGradient>
<linearGradient id="paint6_linear_1536_7308" x1="262.852" y1="115.161" x2="445.659" y2="436.243" gradientUnits="userSpaceOnUse">
<stop stop-color="#6934DD"/>
<stop offset="1" stop-color="#FF0431"/>
</linearGradient>
<linearGradient id="paint7_linear_1536_7308" x1="245.088" y1="128.444" x2="442.249" y2="475.222" gradientUnits="userSpaceOnUse">
<stop stop-color="#6934DD"/>
<stop offset="1" stop-color="#FF0431"/>
</linearGradient>
<linearGradient id="paint8_linear_1536_7308" x1="237.337" y1="143.725" x2="442.873" y2="505.505" gradientUnits="userSpaceOnUse">
<stop stop-color="#6934DD"/>
<stop offset="1" stop-color="#FF0431"/>
</linearGradient>
<linearGradient id="paint9_linear_1536_7308" x1="234.199" y1="159.899" x2="445.256" y2="531.601" gradientUnits="userSpaceOnUse">
<stop stop-color="#6934DD"/>
<stop offset="1" stop-color="#FF0431"/>
</linearGradient>
<linearGradient id="paint10_linear_1536_7308" x1="233.273" y1="176.654" x2="448.14" y2="555.537" gradientUnits="userSpaceOnUse">
<stop stop-color="#6934DD"/>
<stop offset="1" stop-color="#FF0431"/>
</linearGradient>
<linearGradient id="paint11_linear_1536_7308" x1="233.801" y1="194.028" x2="451.368" y2="577.889" gradientUnits="userSpaceOnUse">
<stop stop-color="#6934DD"/>
<stop offset="1" stop-color="#FF0431"/>
</linearGradient>
<linearGradient id="paint12_linear_1536_7308" x1="235.036" y1="212.096" x2="454.38" y2="599.116" gradientUnits="userSpaceOnUse">
<stop stop-color="#6934DD"/>
<stop offset="1" stop-color="#FF0431"/>
</linearGradient>
<linearGradient id="paint13_linear_1536_7308" x1="236.403" y1="230.921" x2="456.759" y2="619.512" gradientUnits="userSpaceOnUse">
<stop stop-color="#6934DD"/>
<stop offset="1" stop-color="#FF0431"/>
</linearGradient>
<linearGradient id="paint14_linear_1536_7308" x1="237.628" y1="250.429" x2="458.267" y2="639.501" gradientUnits="userSpaceOnUse">
<stop stop-color="#6934DD"/>
<stop offset="1" stop-color="#FF0431"/>
</linearGradient>
<linearGradient id="paint15_linear_1536_7308" x1="238.842" y1="270.546" x2="459.13" y2="658.961" gradientUnits="userSpaceOnUse">
<stop stop-color="#6934DD"/>
<stop offset="1" stop-color="#FF0431"/>
</linearGradient>
<linearGradient id="paint16_linear_1536_7308" x1="240.213" y1="291.499" x2="459.182" y2="677.526" gradientUnits="userSpaceOnUse">
<stop stop-color="#6934DD"/>
<stop offset="1" stop-color="#FF0431"/>
</linearGradient>
<linearGradient id="paint17_linear_1536_7308" x1="241.88" y1="313.457" x2="458.274" y2="694.913" gradientUnits="userSpaceOnUse">
<stop stop-color="#6934DD"/>
<stop offset="1" stop-color="#FF0431"/>
</linearGradient>
<linearGradient id="paint18_linear_1536_7308" x1="244.177" y1="336.753" x2="456.389" y2="710.648" gradientUnits="userSpaceOnUse">
<stop stop-color="#6934DD"/>
<stop offset="1" stop-color="#FF0431"/>
</linearGradient>
<linearGradient id="paint19_linear_1536_7308" x1="247.111" y1="361.79" x2="452.964" y2="724.638" gradientUnits="userSpaceOnUse">
<stop stop-color="#6934DD"/>
<stop offset="1" stop-color="#FF0431"/>
</linearGradient>
<linearGradient id="paint20_linear_1536_7308" x1="250.886" y1="389.188" x2="447.37" y2="735.995" gradientUnits="userSpaceOnUse">
<stop stop-color="#6934DD"/>
<stop offset="1" stop-color="#FF0431"/>
</linearGradient>
<linearGradient id="paint21_linear_1536_7308" x1="255.508" y1="420.118" x2="438.52" y2="743.659" gradientUnits="userSpaceOnUse">
<stop stop-color="#6934DD"/>
<stop offset="1" stop-color="#FF0431"/>
</linearGradient>
<linearGradient id="paint22_linear_1536_7308" x1="260.875" y1="456.723" x2="423.91" y2="745.888" gradientUnits="userSpaceOnUse">
<stop stop-color="#6934DD"/>
<stop offset="1" stop-color="#FF0431"/>
</linearGradient>
<linearGradient id="paint23_linear_1536_7308" x1="266.325" y1="503.786" x2="398.297" y2="738.727" gradientUnits="userSpaceOnUse">
<stop stop-color="#6934DD"/>
<stop offset="1" stop-color="#FF0431"/>
</linearGradient>
<linearGradient id="paint24_linear_1536_7308" x1="267.339" y1="581.281" x2="338.786" y2="708.457" gradientUnits="userSpaceOnUse">
<stop stop-color="#6934DD"/>
<stop offset="1" stop-color="#FF0431"/>
</linearGradient>
<clipPath id="clip0_1536_7308">
<rect width="360" height="833.551" fill="white" transform="translate(198)"/>
</clipPath>
</defs>
</svg>
