<svg width="658" height="800" viewBox="0 0 658 800" fill="none" xmlns="http://www.w3.org/2000/svg">
<g id="Group 1000006127">
<g id="Group" opacity="0.2">
<path id="Vector" opacity="0.55" d="M422.283 98.2681L457.678 94.1283C445.811 94.0767 433.904 95.4695 422.283 98.2681V98.2681Z" fill="url(#paint0_linear_1536_7307)"/>
<path id="Vector_2" opacity="0.55" d="M503.604 107.629L371.114 123.121C368.742 124.209 366.374 125.323 364.01 126.465L507.456 109.686C506.25 108.989 504.973 108.302 503.604 107.629Z" fill="url(#paint1_linear_1536_7307)"/>
<path id="Vector_3" opacity="0.55" d="M524.846 127.215L334.978 149.56L329.148 152.708L525.851 129.531C525.524 128.813 525.205 128.009 524.846 127.215Z" fill="url(#paint2_linear_1536_7307)"/>
<path id="Vector_4" opacity="0.55" d="M531.969 149.878L303.268 176.883L297.504 180.064L531.559 152.417C531.706 151.571 531.842 150.719 531.969 149.878Z" fill="url(#paint3_linear_1536_7307)"/>
<path id="Vector_5" opacity="0.55" d="M533.479 174.404L269.219 205.595C266.79 206.766 264.421 207.897 262.11 208.987L532.7 177.032C532.982 176.132 533.228 175.259 533.479 174.404Z" fill="url(#paint4_linear_1536_7307)"/>
<path id="Vector_6" opacity="0.55" d="M534.736 203.537L206.738 242.125C201.718 243.565 196.692 244.997 191.661 246.421L534.295 206.119C534.394 205.25 534.556 204.382 534.736 203.537Z" fill="url(#paint5_linear_1536_7307)"/>
<path id="Vector_7" opacity="0.55" d="M537.894 231.769L132.319 279.433C129.705 280.533 127.117 281.676 124.555 282.861L537.624 234.313C537.708 233.467 537.791 232.621 537.894 231.769Z" fill="url(#paint6_linear_1536_7307)"/>
<path id="Vector_8" opacity="0.55" d="M542.226 254.725L99.8677 306.646C98.5037 307.629 97.1519 308.618 95.8297 309.637L542.05 257.225C542.131 256.408 542.175 255.572 542.226 254.725Z" fill="url(#paint7_linear_1536_7307)"/>
<path id="Vector_9" opacity="0.55" d="M547.295 275.613L84.1662 329.981C83.3212 330.919 82.4959 331.851 81.6829 332.789L547.252 278.133L547.295 275.613Z" fill="url(#paint8_linear_1536_7307)"/>
<path id="Vector_10" opacity="0.55" d="M552.7 295.527L76.084 351.473C75.501 352.359 74.9106 353.257 74.3941 354.19L552.669 298.052C552.669 297.21 552.681 296.374 552.7 295.527Z" fill="url(#paint9_linear_1536_7307)"/>
<path id="Vector_11" opacity="0.55" d="M558.038 315.013L72.0404 372.023C71.618 372.912 71.203 373.791 70.7929 374.686L557.963 317.531L558.038 315.013Z" fill="url(#paint10_linear_1536_7307)"/>
<path id="Vector_12" opacity="0.55" d="M562.93 334.297L70.3933 392.064C70.0624 392.938 69.7437 393.819 69.4251 394.699L562.756 336.842L562.93 334.297Z" fill="url(#paint11_linear_1536_7307)"/>
<path id="Vector_13" opacity="0.55" d="M566.998 353.612L70.2246 411.882C69.9654 412.746 69.6864 413.616 69.4196 414.492L566.66 356.181C566.771 355.319 566.874 354.468 566.998 353.612Z" fill="url(#paint12_linear_1536_7307)"/>
<path id="Vector_14" opacity="0.55" d="M569.842 373.1L70.8687 431.651L70.1132 434.286L569.267 375.734C569.477 374.845 569.64 373.978 569.842 373.1Z" fill="url(#paint13_linear_1536_7307)"/>
<path id="Vector_15" opacity="0.55" d="M571.613 392.856L71.8447 451.482L71.1635 454.078L570.903 395.423L571.613 392.856Z" fill="url(#paint14_linear_1536_7307)"/>
<path id="Vector_16" opacity="0.55" d="M572.356 412.774L73.2952 471.325L72.7252 473.901L571.48 415.394C571.779 414.519 572.078 413.644 572.356 412.774Z" fill="url(#paint15_linear_1536_7307)"/>
<path id="Vector_17" opacity="0.55" d="M571.816 432.898L75.6344 491.106C75.4914 491.968 75.3559 492.818 75.2326 493.674L570.731 435.537C571.094 434.663 571.465 433.778 571.816 432.898Z" fill="url(#paint16_linear_1536_7307)"/>
<path id="Vector_18" opacity="0.55" d="M569.743 453.228L79.1842 510.758L79.0173 513.292L568.379 455.895C568.834 455.006 569.3 454.123 569.743 453.228Z" fill="url(#paint17_linear_1536_7307)"/>
<path id="Vector_19" opacity="0.55" d="M565.74 473.779L84.5874 530.279C84.6274 531.11 84.6871 531.937 84.7469 532.763L564.042 476.507C564.62 475.603 565.179 474.705 565.74 473.779Z" fill="url(#paint18_linear_1536_7307)"/>
<path id="Vector_20" opacity="0.55" d="M559.26 494.686L92.1859 549.529C92.3618 550.352 92.5351 551.204 92.7607 551.977L557.103 497.443C557.829 496.538 558.551 495.615 559.26 494.686Z" fill="url(#paint19_linear_1536_7307)"/>
<path id="Vector_21" opacity="0.55" d="M549.282 516.036L102.797 568.388L103.906 570.767L546.447 518.881C547.409 517.941 548.407 517.019 549.282 516.036Z" fill="url(#paint20_linear_1536_7307)"/>
<path id="Vector_22" opacity="0.55" d="M533.942 538.192L117.312 587.003C117.911 587.778 118.53 588.548 119.156 589.307L530.033 541.154C531.345 540.177 532.658 539.199 533.942 538.192Z" fill="url(#paint21_linear_1536_7307)"/>
<path id="Vector_23" opacity="0.55" d="M509.825 561.835L137.322 605.351C138.272 606.089 139.23 606.815 140.215 607.524L504.058 565.011C506.033 563.923 507.952 562.868 509.825 561.835Z" fill="url(#paint22_linear_1536_7307)"/>
<path id="Vector_24" opacity="0.55" d="M468.685 588.446L165.825 623.818C167.38 624.506 168.945 625.154 170.537 625.785L458.621 592.138C461.992 590.941 465.346 589.71 468.685 588.446Z" fill="url(#paint23_linear_1536_7307)"/>
<path id="Vector_25" opacity="0.55" d="M376.877 625.273L212.933 644.428C216.638 644.935 220.359 645.335 224.096 645.628L351.099 630.801C359.65 629.013 368.243 627.17 376.877 625.273Z" fill="url(#paint24_linear_1536_7307)"/>
</g>
<g id="&#208;&#159;&#208;&#176;&#208;&#178;&#208;&#181;&#208;&#187;10 (2) 1" clip-path="url(#clip0_1536_7307)">
<g id="&#208;&#161;&#208;&#187;&#208;&#190;&#208;&#185;_x0020_1">
<path id="Vector_26" fill-rule="evenodd" clip-rule="evenodd" d="M462.95 748.311C458.098 750.688 462.129 751.351 459.88 754.391C461.229 753.458 462.724 752.603 464.377 751.841C464.045 751.155 463.438 749.825 462.949 748.311H462.95Z" fill="#E5EEFF" stroke="#868CB5" stroke-width="1.17073" stroke-miterlimit="22.9256" stroke-linecap="round" stroke-linejoin="round"/>
<path id="Vector_27" fill-rule="evenodd" clip-rule="evenodd" d="M462.53 733.338L464.007 740.734C467.49 738.224 476.089 736.4 484.478 736.4C490.876 736.4 497.039 737.37 501.223 738.869L499.985 732.953C489.758 734.318 473.893 734.583 462.53 733.338Z" fill="#DAD9FF"/>
<path id="Vector_28" fill-rule="evenodd" clip-rule="evenodd" d="M521.29 788.135H447.662V794.211C447.662 797.393 450.265 799.995 453.446 799.995H515.506C518.688 799.995 521.29 797.392 521.29 794.211V788.135V788.135Z" fill="#868CB5"/>
<path id="Vector_29" fill-rule="evenodd" clip-rule="evenodd" d="M448.408 788.135C448.408 788.135 439.72 748.08 484.478 748.057C513.726 748.057 525.008 767.573 520.548 788.135C496.501 788.135 472.455 788.135 448.408 788.135H448.408Z" fill="#E5EEFF"/>
<path id="Vector_30" fill-rule="evenodd" clip-rule="evenodd" d="M484.479 736.399C494.875 736.399 504.652 738.959 506.325 742.188C507.997 745.418 504.333 752.337 504.333 752.337L503.325 752.145C498.177 749.859 491.909 748.557 484.48 748.557H484.478C476.144 748.562 469.666 750 464.636 752.335L464.626 752.337C464.626 752.337 460.961 745.418 462.633 742.188C464.306 738.959 474.539 736.398 484.479 736.398V736.399Z" fill="#868CB5"/>
<path id="Vector_31" d="M497.523 755.346C495.417 748.991 472.167 749.223 471.435 755.327" stroke="#868CB5" stroke-width="2.34105" stroke-miterlimit="22.9256" stroke-linecap="round" stroke-linejoin="round"/>
<path id="Vector_32" d="M472.075 757.723C473.944 757.224 475.173 755.745 474.819 754.42C474.465 753.094 472.663 752.424 470.794 752.923C468.925 753.422 467.696 754.901 468.05 756.226C468.404 757.552 470.206 758.222 472.075 757.723Z" fill="#868CB5"/>
<path id="Vector_33" d="M496.883 757.723C495.014 757.224 493.785 755.745 494.139 754.42C494.493 753.094 496.295 752.424 498.165 752.923C500.034 753.422 501.263 754.901 500.909 756.226C500.555 757.552 498.753 758.222 496.883 757.723Z" fill="#868CB5"/>
<path id="Vector_34" d="M497.523 764.233C495.417 757.878 472.167 758.109 471.435 764.214" stroke="#868CB5" stroke-width="2.34105" stroke-miterlimit="22.9256" stroke-linecap="round" stroke-linejoin="round"/>
<path id="Vector_35" d="M472.075 766.618C473.944 766.119 475.173 764.64 474.819 763.314C474.465 761.989 472.663 761.318 470.794 761.817C468.925 762.316 467.696 763.795 468.05 765.121C468.404 766.447 470.206 767.117 472.075 766.618Z" fill="#868CB5"/>
<path id="Vector_36" d="M496.883 766.618C495.014 766.119 493.785 764.64 494.139 763.314C494.493 761.989 496.295 761.318 498.165 761.817C500.034 762.316 501.263 763.795 500.909 765.121C500.555 766.447 498.753 767.117 496.883 766.618Z" fill="#868CB5"/>
<path id="Vector_37" d="M471.435 764.215L471.463 770.459" stroke="#868CB5" stroke-width="0.780212" stroke-miterlimit="22.9256" stroke-linecap="round" stroke-linejoin="round"/>
<path id="Vector_38" d="M497.524 755.344L497.538 770.46" stroke="#868CB5" stroke-width="0.780212" stroke-miterlimit="22.9256" stroke-linecap="round" stroke-linejoin="round"/>
<path id="Vector_39" d="M447.828 788.212C447.526 786.753 439.78 747.502 484.478 747.479C488.727 747.476 492.604 747.885 496.115 748.646C504.893 750.55 511.38 754.66 515.677 760.109C519.977 765.562 522.075 772.347 522.075 779.6C522.075 782.433 521.755 785.338 521.12 788.263C521.061 788.538 520.818 788.725 520.549 788.725L448.409 788.725C448.111 788.725 447.864 788.501 447.829 788.212H447.828ZM520.521 784.978L448.548 785.101C448.667 786.223 448.803 787.069 448.89 787.554H520.074C520.251 786.693 520.4 785.834 520.521 784.978ZM448.441 783.936L520.667 783.813C520.825 782.395 520.905 780.988 520.905 779.6C520.905 772.604 518.888 766.071 514.758 760.832C510.624 755.589 504.362 751.631 495.868 749.79C492.439 749.046 488.644 748.647 484.478 748.646C449.19 748.663 447.649 773.867 448.441 783.936L448.441 783.936Z" fill="#868CB5"/>
<path id="Vector_40" fill-rule="evenodd" clip-rule="evenodd" d="M505.848 748.311C510.7 750.688 506.669 751.351 508.918 754.391C507.569 753.458 506.074 752.603 504.42 751.841C504.753 751.155 505.359 749.825 505.849 748.311H505.848Z" fill="#E5EEFF" stroke="#868CB5" stroke-width="1.17073" stroke-miterlimit="22.9256" stroke-linecap="round" stroke-linejoin="round"/>
<g id="Group_2">
<path id="Vector_41" fill-rule="evenodd" clip-rule="evenodd" d="M546.418 250.585C546.675 250.821 546.926 251.062 547.175 251.305C551.475 255.473 554.339 260.384 555.904 265.557L555.933 265.651C555.983 265.814 556.033 265.977 556.079 266.141C557.791 271.979 557.962 278.339 556.242 284.596C555.268 288.137 553.757 291.39 551.824 294.296C546.386 302.782 537.138 308.933 524.994 309.426C524.583 309.444 524.171 309.457 523.758 309.46H523.756H523.756C520.729 309.486 517.652 309.107 514.597 308.282L482.85 299.703L482.841 299.7V361.509C482.371 375.949 484.464 382.932 473.626 387.037L473.625 387.15L473.387 387.159C473.383 387.447 473.365 387.729 473.335 388.005C473.329 387.729 473.34 387.447 473.373 387.159L437.451 388.375C425.843 388.975 412.334 389.609 397.529 389.916C361.965 390.652 339.797 390.209 315.854 387.151L315.853 387.037C305.016 382.932 307.109 375.95 306.639 361.51V291.767L282.449 305.195C281.447 305.75 280.428 306.25 279.396 306.695L279.141 306.803C274.658 308.694 269.937 309.551 265.28 309.458L264.819 309.448L264.514 309.435C255.081 309.084 247.229 305.147 241.607 299.27C239.59 297.206 237.808 294.851 236.331 292.218C233.694 287.516 232.308 282.431 232.062 277.359C231.556 268.977 234.135 260.302 240.514 253.163C240.634 253.026 240.756 252.891 240.879 252.756L241.113 252.503C241.404 252.191 241.7 251.884 242.004 251.583C255.215 237.404 294.582 199.656 302.689 193.599C312.041 184.493 334.613 183.366 346.799 183.366C353.77 173.251 356.962 170.299 373.069 170.299H416.415C432.522 170.299 435.712 173.251 442.682 183.366C455.177 183.366 477.546 184.578 486.794 193.601C504.554 206.867 527.46 232.16 545.349 249.646L546.419 250.586L546.418 250.585ZM547.175 251.305C546.926 251.063 546.677 250.821 546.418 250.585L547.175 251.305Z" fill="#FF0028"/>
</g>
<path id="Vector_42" fill-rule="evenodd" clip-rule="evenodd" d="M348.15 733.967L348.675 738.408C353.952 741.744 355.603 747.829 355.957 749.442C359.326 750.039 383.709 754.13 388.296 748.369C388.577 747.788 389.246 747.373 390.039 747.211L387 732.115C380.647 733.431 361.91 734.49 348.15 733.967H348.15Z" fill="#DAD9FF"/>
<path id="Vector_43" fill-rule="evenodd" clip-rule="evenodd" d="M393.183 786.92C393.183 786.92 396.526 773.421 393.572 751.698C394.456 747.05 389.417 747.114 388.793 748.686C383.747 755.223 355.461 749.949 355.461 749.949C355.461 749.949 341.964 748.964 335.184 748.7C308.989 747.579 274.797 762.574 279.759 788.287L393.183 786.92V786.92Z" fill="#E5EEFF"/>
<path id="Vector_44" fill-rule="evenodd" clip-rule="evenodd" d="M370.431 786.975C376.917 784.457 377.646 761.812 394.65 763.368L394.652 763.399C394.676 764.322 394.713 765.247 394.753 766.183C395.08 779.253 393.183 786.917 393.183 786.917L370.431 786.975V786.975Z" fill="#C5D2EB"/>
<path id="Vector_45" fill-rule="evenodd" clip-rule="evenodd" d="M387.699 799.726L281.905 799.997C279.869 800.002 279.187 798.29 278.9 795.714C278.487 792.009 277.23 786.99 281.872 787.201C319.692 788.917 356.619 788.376 393.184 786.916L393.201 793.314C393.21 796.833 390.734 799.718 387.699 799.726Z" fill="#868CB5"/>
<path id="Vector_46" d="M390.082 771.642C390.627 765.353 373.04 760.846 372.719 781.659C365.25 785.798 328.597 784.374 328.597 784.374" stroke="#868CB5" stroke-width="1.17073" stroke-miterlimit="22.9256" stroke-linecap="round" stroke-linejoin="round"/>
<path id="Vector_47" d="M392.713 786.35C393.242 783.893 395.629 771.151 392.995 751.778C392.986 751.715 392.989 751.653 392.999 751.593C393.253 750.259 392.963 749.406 392.448 748.913L392.42 748.884C392.176 748.661 391.877 748.506 391.561 748.414C391.222 748.316 390.864 748.289 390.53 748.321C389.945 748.377 389.457 748.596 389.336 748.904C389.315 748.956 389.288 749.003 389.255 749.045L389.228 749.077C383.896 755.849 355.438 750.54 355.356 750.526C355.109 750.48 354.927 750.285 354.887 750.052C354.877 750.006 352.206 733.89 335.059 738.071C334.367 739.179 334.715 741.13 335.129 743.451L335.133 743.471C335.417 745.067 335.731 746.827 335.768 748.691C335.774 749.013 335.518 749.279 335.196 749.285L335.162 749.285C329.8 749.056 324.094 749.509 318.459 750.596C308.741 752.471 299.247 756.234 292.099 761.64C285.011 767.001 280.238 773.979 279.881 782.324C279.807 784.055 279.922 785.85 280.247 787.705C286.758 787.702 293.388 787.72 300.016 787.738C313.638 787.775 327.262 787.812 339.876 787.661C352.468 787.51 364.067 787.168 375.664 786.826C381.301 786.66 386.94 786.494 392.714 786.35L392.713 786.35ZM394.163 751.717C397.11 773.497 393.762 787.018 393.753 787.057C393.692 787.309 393.468 787.499 393.198 787.505C387.294 787.651 381.494 787.822 375.695 787.993C364.104 788.334 352.512 788.675 339.89 788.827C327.273 788.979 313.643 788.942 300.015 788.905C293.235 788.886 286.454 788.868 279.8 788.872C279.509 788.893 279.242 788.693 279.185 788.399C278.779 786.291 278.63 784.25 278.714 782.279C279.088 773.542 284.041 766.27 291.394 760.709C298.688 755.192 308.355 751.356 318.239 749.449C323.736 748.388 329.307 747.923 334.578 748.097C334.495 746.564 334.227 745.06 333.981 743.678L333.976 743.658C333.496 740.966 333.095 738.719 334.223 737.23C334.302 737.113 334.421 737.024 334.569 736.987C351.477 732.731 355.388 746.858 355.957 749.449C359.326 750.046 383.71 754.137 388.296 748.376C388.621 747.703 389.467 747.253 390.421 747.161C390.893 747.116 391.402 747.155 391.886 747.295C392.367 747.435 392.829 747.677 393.218 748.037L393.254 748.068C394.021 748.801 394.472 749.98 394.165 751.718L394.163 751.717Z" fill="#868CB5"/>
<path id="Vector_48" d="M369.819 775.242L369.879 780.174" stroke="#868CB5" stroke-width="1.17073" stroke-miterlimit="22.9256" stroke-linecap="round" stroke-linejoin="round"/>
<path id="Vector_49" d="M367.63 775.248L367.689 780.18" stroke="#868CB5" stroke-width="1.17073" stroke-miterlimit="22.9256" stroke-linecap="round" stroke-linejoin="round"/>
<path id="Vector_50" fill-rule="evenodd" clip-rule="evenodd" d="M345.46 736.91C349.193 738.496 353.146 742.125 356.008 749.748C356.04 749.834 356.052 749.928 356.04 750.025C356 750.344 355.707 750.57 355.388 750.53C350.15 749.851 344.796 749.653 339.577 749.46C338.081 749.404 336.594 749.349 335.159 749.285C335.119 749.283 335.079 749.277 335.038 749.267C334.726 749.187 334.539 748.868 334.62 748.556C334.966 747.226 334.638 744.899 334.331 742.716C334.016 740.481 333.721 738.386 334.173 737.325C334.23 737.197 334.621 736.895 335.219 736.666L335.249 736.653C336.083 736.34 337.532 735.932 339.319 735.84C341.108 735.747 343.243 735.968 345.46 736.91L345.46 736.91Z" fill="#868CB5"/>
<path id="Vector_51" d="M317.705 784.439L279.305 784.538" stroke="#868CB5" stroke-width="1.17073" stroke-miterlimit="22.9256" stroke-linecap="round" stroke-linejoin="round"/>
<path id="Vector_52" d="M316.113 755.905L310.63 757.221C309.955 757.385 309.697 756.505 310.37 756.341L315.477 755.115C315.3 754.766 315.246 754.405 315.346 754.071C315.529 753.46 316.183 753.086 317.022 753.022C317.965 753.063 318.332 753.254 319.246 753.505C320.362 754.084 321.026 755.049 320.783 755.859C320.496 756.818 319.045 757.195 317.543 756.701C316.981 756.516 316.491 756.235 316.113 755.905H316.113ZM331.669 752.326C332.768 752.906 333.418 753.862 333.177 754.664C332.889 755.623 331.439 755.999 329.936 755.506C328.435 755.012 327.452 753.834 327.739 752.875C327.919 752.276 328.553 751.905 329.371 751.831C330.212 751.816 331.069 752.132 331.669 752.326Z" fill="#868CB5"/>
<path id="Vector_53" d="M318.254 754.419C318.254 754.419 317.618 743.201 316.606 749.707" stroke="#868CB5" stroke-width="2.34105" stroke-miterlimit="22.9256" stroke-linecap="round" stroke-linejoin="round"/>
<path id="Vector_54" d="M330.731 752.596C330.731 752.596 330.095 741.379 329.083 747.885" stroke="#868CB5" stroke-width="2.34105" stroke-miterlimit="22.9256" stroke-linecap="round" stroke-linejoin="round"/>
<path id="Vector_55" fill-rule="evenodd" clip-rule="evenodd" d="M322.798 395.314H390.968L464.756 395.667L467.871 443.612L478.725 553.145L510.114 729.485C509.989 734.969 454.718 736.384 449.215 729.485L416.095 586.72L391.317 469.338L387.206 586.967L389.122 731.046C391.773 733.579 335.439 736.439 332.515 731.046L320.938 552.283L322.798 395.315V395.314Z" fill="#6934D9"/>
<path id="Vector_56" fill-rule="evenodd" clip-rule="evenodd" d="M391.317 469.332L387.206 586.961L389.122 731.04C389.741 731.631 386.76 732.24 381.793 732.758L379.029 577.999L386.686 452.957L391.317 469.332V469.332Z" fill="#2B0087"/>
<path id="Vector_57" d="M505.656 731.933L473.12 555.417L456.988 392.281" stroke="#2B0087" stroke-width="2.34105" stroke-miterlimit="22.9256" stroke-linecap="round" stroke-linejoin="round"/>
<path id="Vector_58" d="M463.15 454.576L453.78 451.189L445.144 395.863" stroke="#2B0087" stroke-width="2.34105" stroke-miterlimit="22.9256" stroke-linecap="round" stroke-linejoin="round"/>
<path id="Vector_59" d="M396.805 437.332L396.583 396.008" stroke="#2B0087" stroke-width="2.34105" stroke-miterlimit="22.9256" stroke-linecap="round" stroke-linejoin="round"/>
<path id="Vector_60" d="M391.317 469.333L386.686 452.959L386.521 395.795" stroke="#2B0087" stroke-width="2.34105" stroke-miterlimit="22.9256" stroke-linecap="round" stroke-linejoin="round"/>
<path id="Vector_61" fill-rule="evenodd" clip-rule="evenodd" d="M416.414 181.056V174.188C427.557 176.438 434.942 181.283 434.942 188.969C434.942 195.696 430.058 202.964 422.242 208.569C421.328 209.225 420.294 209.446 419.191 209.222C418.088 208.998 417.224 208.391 416.637 207.43L416.126 206.592L416.319 206.491C410.683 209.44 403.092 211.248 394.741 211.248C386.485 211.248 378.972 209.481 373.357 206.591L372.845 207.431C372.259 208.392 371.394 208.999 370.291 209.223C369.188 209.447 368.154 209.226 367.24 208.57C359.423 202.964 354.54 195.695 354.54 188.969C354.54 181.283 361.924 176.438 373.068 174.188V181.056H416.414H416.414V181.056Z" fill="#D90324"/>
<path id="Vector_62" fill-rule="evenodd" clip-rule="evenodd" d="M420.527 188.154C421.746 189.888 422.415 191.775 422.415 193.748C422.415 202.244 410.025 209.131 394.74 209.131C379.457 209.131 367.066 202.244 367.066 193.748C367.066 191.775 367.736 189.888 368.955 188.154H420.527Z" fill="#AD041E"/>
<path id="Vector_63" d="M369.259 219.474C369.852 219.727 370.129 220.413 369.876 221.006C369.624 221.599 368.938 221.876 368.345 221.623C361.818 218.836 356.308 214.803 352.399 210.358C348.316 205.715 345.953 200.588 345.953 195.895C345.953 195.249 346.478 194.725 347.124 194.725C347.77 194.725 348.295 195.249 348.295 195.895C348.295 200.009 350.443 204.591 354.155 208.813C357.849 213.014 363.068 216.83 369.259 219.474H369.259Z" fill="#D90324"/>
<path id="Vector_64" d="M349.553 328.887L346.422 320.345C346.2 319.739 346.511 319.067 347.117 318.845C347.723 318.623 348.395 318.934 348.617 319.541L351.634 327.774H437.759L440.672 319.916C440.897 319.31 441.571 319.001 442.177 319.226C442.783 319.45 443.092 320.124 442.868 320.73L439.841 328.892L454.048 358.432C458.244 366.916 463.114 367.542 467.062 368.048L467.73 368.135C468.369 368.218 468.819 368.804 468.736 369.443C468.653 370.082 468.067 370.532 467.428 370.449L466.765 370.362C462.258 369.783 456.701 369.066 451.956 359.464L437.843 330.116H351.548L337.433 359.464C332.69 369.066 327.133 369.783 322.626 370.362L321.963 370.449C321.324 370.532 320.738 370.082 320.655 369.443C320.572 368.804 321.022 368.218 321.661 368.135L322.329 368.048C326.277 367.542 331.147 366.916 335.34 358.431L349.552 328.887H349.553Z" fill="#D90324"/>
<path id="Vector_65" fill-rule="evenodd" clip-rule="evenodd" d="M416.413 161.624V188.101C416.413 200.021 406.661 205.872 394.741 205.872H394.74C382.82 205.872 373.067 200.022 373.067 188.101V161.561C377.869 165.735 383.923 168.573 390.711 169.413C400.373 170.608 409.577 167.515 416.413 161.624H416.413Z" fill="#EBA884"/>
<path id="Vector_66" fill-rule="evenodd" clip-rule="evenodd" d="M473.335 388.013C472.861 392.335 469.209 395.038 464.757 395.661C447.221 398.117 421.609 399.357 399.055 399.382C376.501 399.357 340.822 399.276 323.287 396.821C318.512 396.153 315.854 392.038 315.854 387.152C339.797 390.211 361.965 390.654 397.53 389.917C433.095 389.18 461.188 386.557 473.388 387.044C473.344 387.375 473.328 387.698 473.335 388.013V388.013Z" fill="#2B0087"/>
<path id="Vector_67" d="M373.318 300.278C374.418 299.477 374.661 297.936 373.86 296.836C373.059 295.736 371.518 295.493 370.418 296.294L363.695 301.187C362.595 301.988 362.352 303.529 363.153 304.629C363.954 305.729 365.495 305.972 366.595 305.171L373.318 300.278Z" fill="#FF5E04"/>
<g id="Group_3">
<path id="Vector_68" d="M385.178 217.454C385.458 216.868 386.161 216.62 386.748 216.9C387.334 217.18 387.583 217.883 387.302 218.469L385.178 217.454ZM385.093 276.672L382.742 276.805V276.805L382.617 275.013L382.453 273.252L382.252 271.521L382.022 269.813L381.767 268.125L381.491 266.454L381.201 264.795L380.902 263.146L380.598 261.503L380.296 259.861L380.001 258.218L379.718 256.57L379.452 254.914L379.21 253.245L378.997 251.56L378.818 249.857L378.68 248.131L378.587 246.38L378.546 244.601L378.561 242.789L378.64 240.943L378.787 239.059L379.007 237.133L379.306 235.165L379.69 233.148L380.163 231.082L380.731 228.963L381.4 226.788L382.173 224.552L383.057 222.253L384.057 219.888L385.178 217.454L387.302 218.468L386.211 220.838L385.241 223.134L384.384 225.359L383.637 227.517L382.994 229.613L382.448 231.65L381.993 233.631L381.626 235.561L381.34 237.444L381.13 239.284L380.99 241.084L380.915 242.849L380.9 244.584L380.94 246.292L381.028 247.976L381.162 249.641L381.336 251.291L381.543 252.93L381.779 254.561L382.04 256.187L382.319 257.813L382.612 259.443L382.913 261.079L383.217 262.724L383.518 264.384L383.812 266.061L384.091 267.759L384.352 269.481L384.588 271.23L384.794 273.009L384.964 274.822L385.093 276.672V276.672V276.672ZM381.738 290.529L379.771 289.236L379.962 288.941L380.147 288.642L380.326 288.338L380.501 288.029L380.67 287.716L380.833 287.397L380.991 287.073L381.143 286.744L381.289 286.409L381.428 286.069L381.562 285.723L381.69 285.37L381.812 285.011L381.927 284.646L382.035 284.274L382.136 283.896L382.231 283.51L382.319 283.119L382.4 282.719L382.474 282.313L382.54 281.898L382.599 281.476L382.65 281.047L382.694 280.609L382.729 280.164L382.757 279.709L382.776 279.247L382.786 278.776L382.789 278.297L382.782 277.808L382.767 277.31L382.742 276.804L385.093 276.671L385.119 277.218L385.136 277.756L385.143 278.286L385.141 278.807L385.129 279.322L385.108 279.828L385.078 280.327L385.039 280.818L384.991 281.301L384.934 281.777L384.869 282.246L384.795 282.707L384.713 283.161L384.623 283.609L384.524 284.049L384.417 284.482L384.302 284.908L384.18 285.328L384.051 285.74L383.913 286.146L383.768 286.546L383.617 286.939L383.458 287.326L383.292 287.706L383.12 288.08L382.941 288.447L382.756 288.809L382.564 289.165L382.366 289.514L382.162 289.858L381.953 290.196L381.739 290.529H381.738ZM360.21 309.438L358.274 308.099L358.82 307.35L359.396 306.629L360 305.936L360.629 305.269L361.28 304.626L361.952 304.004L362.641 303.402L363.346 302.818L364.065 302.25L364.796 301.695L365.536 301.152L366.283 300.619L367.036 300.093L367.793 299.573L368.55 299.057L369.308 298.544L370.063 298.03L370.813 297.516L371.556 296.998L372.292 296.476L373.016 295.947L373.729 295.41L374.427 294.863L375.109 294.304L375.773 293.733L376.417 293.147L377.039 292.545L377.639 291.926L378.213 291.287L378.761 290.626L379.282 289.943L379.772 289.235L381.739 290.528L381.188 291.325L380.606 292.089L379.997 292.823L379.363 293.528L378.706 294.208L378.029 294.862L377.334 295.494L376.624 296.106L375.9 296.698L375.165 297.275L374.421 297.836L373.67 298.384L372.913 298.923L372.154 299.451L371.393 299.973L370.633 300.49L369.876 301.003L369.124 301.515L368.379 302.026L367.644 302.54L366.919 303.057L366.207 303.58L365.51 304.109L364.83 304.646L364.169 305.194L363.528 305.753L362.91 306.325L362.315 306.912L361.747 307.516L361.206 308.136L360.693 308.776L360.212 309.438H360.21ZM360.21 309.438C359.84 309.972 359.106 310.105 358.572 309.735C358.037 309.366 357.904 308.633 358.274 308.099L360.21 309.438Z" fill="#FF5E04"/>
</g>
<path id="Vector_69" d="M439.7 204.43C441.589 201.296 442.631 198.097 442.631 195.105" stroke="#D90324" stroke-width="2.34105" stroke-miterlimit="22.9256" stroke-linecap="round" stroke-linejoin="round"/>
<path id="Vector_70" fill-rule="evenodd" clip-rule="evenodd" d="M416.413 161.624V171.917C410.684 183.228 380.469 188.109 373.067 161.561C377.869 165.735 383.923 168.573 390.711 169.413C400.373 170.608 409.577 167.515 416.413 161.624H416.413Z" fill="#C98560"/>
<path id="Vector_71" fill-rule="evenodd" clip-rule="evenodd" d="M430.039 121.533L427.655 140.605C425.408 158.762 408.867 171.659 390.71 169.413C372.553 167.167 359.656 150.626 361.902 132.469L364.283 113.224L364.624 110.467L366.554 94.8697L367.429 87.7978C367.429 87.7978 372.896 75.7549 380.566 78.3192C384.986 81.204 391.468 83.0719 397.021 83.1728C401.146 83.248 404.75 82.4793 406.627 81.5677C410.634 79.6221 422.676 94.9995 425.709 97.6331L425.734 119.764C425.577 121.025 427.686 121.611 430.038 121.533H430.039Z" fill="#EBA884"/>
<path id="Vector_72" fill-rule="evenodd" clip-rule="evenodd" d="M434.411 115.153C436.521 115.415 438.279 117.983 437.945 120.69L437.001 128.317C436.316 133.848 431.261 137.754 425.737 137.071L428.591 114.434L434.411 115.153V115.153Z" fill="#EBA884"/>
<path id="Vector_73" d="M369.881 53.6145C370.227 52.9826 370.49 52.769 371.085 52.8136C371.601 52.8698 371.807 53.2996 371.752 53.8165C371.748 53.848 369.769 64.33 374.384 67.6422C374.469 65.8226 371.103 54.8145 379.661 48.1232C388.356 41.3249 395.869 52.9805 395.556 53.5008C395.244 54.0211 413.004 56.2869 424.118 64.3449C435.232 72.4028 440.788 81.0649 439.19 95.641C437.594 110.217 438.321 107.093 436.037 118.728C435.381 122.07 425.402 122.455 425.735 119.764L425.71 97.6332C422.677 94.9996 410.635 79.6222 406.629 81.5678C404.751 82.4798 401.147 83.2485 397.022 83.1729C391.469 83.0716 384.987 81.2042 380.568 78.3193C372.897 75.7551 367.43 87.7979 367.43 87.7979L365.482 103.537L365.141 106.295C365.141 106.295 356.817 106.8 358.669 97.5262C360.52 88.2525 357.249 86.7479 362.139 78.9528C365.479 73.6277 367.58 71.0366 370.206 69.4518C366.348 64.9143 368.98 55.2828 369.881 53.6157L369.881 53.6145Z" fill="#241813"/>
<path id="Vector_74" d="M387.663 114.301C386.963 118.736 385.861 123.09 385.2 127.538C384.842 129.967 383.205 132.246 383.414 134.701C383.533 136.165 385.122 138.374 386.701 138.941C387.246 139.135 386.585 139.58 386.365 139.667C385.834 139.874 385.218 139.927 384.682 139.734C383.115 139.171 381.316 137.287 381.076 135.785C380.695 133.364 382.359 131.031 382.678 128.621C383.297 123.914 384.504 119.333 385.241 114.653C385.368 113.858 387.749 113.777 387.663 114.301V114.301Z" fill="black"/>
<path id="Vector_75" d="M432.814 124.782C432.795 124.466 433.035 124.192 433.35 124.173C433.667 124.153 433.94 124.393 433.959 124.709C433.96 124.73 434.423 132.253 429.996 133.497C429.69 133.583 429.373 133.404 429.287 133.098C429.201 132.793 429.38 132.475 429.686 132.39C433.221 131.397 432.815 124.8 432.814 124.782H432.814Z" fill="#C98560"/>
<path id="Vector_76" d="M399.686 113.227C399.605 115.243 401.173 116.942 403.192 117.023C405.211 117.103 406.909 115.533 406.989 113.517C407.069 111.5 405.501 109.801 403.482 109.72C401.463 109.64 399.766 111.209 399.686 113.227V113.227Z" fill="black"/>
<path id="Vector_77" d="M384.885 152.608C386.138 152.761 387.39 152.914 388.641 153.068C389.285 153.147 388.223 155.025 387.588 154.947C386.336 154.794 385.083 154.64 383.837 154.488C383.189 154.408 384.255 152.531 384.886 152.608H384.885Z" fill="black"/>
<path id="Vector_78" d="M369.962 96.2378C371.681 96.2861 376.574 95.4968 381.836 98.5264C384.029 99.7888 385.874 98.6189 387.947 97.4412C390.019 96.2634 388.435 95.2654 386.291 94.0806C384.146 92.8954 380.357 91.8057 376.536 91.5846C372.715 91.364 370.153 92.9909 368.487 94.6526C366.82 96.3142 368.243 96.1899 369.962 96.2378H369.962Z" fill="#241813"/>
<path id="Vector_79" d="M415.997 97.4552C412.199 96.1717 408.121 95.4952 404.556 94.8695C402.631 94.4968 400.156 92.8512 399.373 90.811C398.525 88.5915 401.161 88.7225 402.292 88.9423C406.737 89.1754 410.816 89.8523 414.264 91.2718C416.136 92.0565 418.403 93.6298 419.04 95.8882C419.668 98.1259 417.105 97.9201 415.997 97.4552Z" fill="#241813"/>
<path id="Vector_80" d="M436.895 114.299L415.082 108.031" stroke="#160045" stroke-width="1.95094" stroke-miterlimit="22.9256" stroke-linecap="round" stroke-linejoin="round"/>
<path id="Vector_81" d="M390.418 110.915C388.18 108.962 383.234 108.486 381.463 110.272" stroke="#160045" stroke-width="1.95094" stroke-miterlimit="22.9256"/>
<path id="Vector_82" fill-rule="evenodd" clip-rule="evenodd" d="M403.688 103.234C416.343 104.109 415.938 109.966 415.671 113.831C415.404 117.695 414.874 125.359 402.219 124.485C389.564 123.61 390.093 115.946 390.36 112.081C390.628 108.217 391.032 102.36 403.688 103.234V103.234Z" stroke="#160045" stroke-width="1.95094" stroke-miterlimit="22.9256"/>
<path id="Vector_83" fill-rule="evenodd" clip-rule="evenodd" d="M370.541 102.06C382.234 102.893 381.841 108.751 381.581 112.616C381.321 116.48 380.807 124.129 369.114 123.297C357.422 122.464 357.936 114.815 358.195 110.951C358.455 107.086 358.849 101.228 370.541 102.06L370.541 102.06Z" stroke="#160045" stroke-width="1.95094" stroke-miterlimit="22.9256"/>
<path id="Vector_84" d="M358.434 108.604L364.711 109.783" stroke="#160045" stroke-width="1.95094" stroke-miterlimit="22.9256" stroke-linecap="round" stroke-linejoin="round"/>
<path id="Vector_85" d="M371.065 113.805C370.664 114.307 369.93 114.389 369.428 113.988C368.926 113.587 368.844 112.853 369.245 112.351C369.255 112.34 372.638 108.138 377.571 111.273C378.116 111.619 378.278 112.342 377.932 112.887C377.586 113.432 376.863 113.594 376.318 113.248C373.141 111.228 371.07 113.798 371.065 113.805V113.805Z" fill="black"/>
<path id="Vector_86" fill-rule="evenodd" clip-rule="evenodd" d="M306.572 234.08L312.76 230.557L329.593 260.244L323.139 263.808C322.864 263.154 322.552 262.51 322.201 261.877C317.231 252.949 312.204 244.045 307.205 235.131C307.004 234.771 306.792 234.421 306.572 234.08V234.08Z" fill="#D90324"/>
<path id="Vector_87" fill-rule="evenodd" clip-rule="evenodd" d="M371.27 210.295C376.637 207.309 371.243 197.724 365.927 200.691L347.859 210.745C346.048 205.139 344.541 198.608 339.209 192.133C333.878 185.658 327.89 190.784 330.083 195.253C332.083 198.625 333.862 200.895 332.823 205.892C331.784 210.889 326.924 218.327 325.277 223.497L312.76 230.552L329.593 260.239L338.33 255.428C349.879 256.569 352.243 256.153 367.931 247.239L383.745 238.439C388.562 235.759 383.927 227.526 379.154 230.189L382.771 228.177C387.343 225.633 383.017 216.571 378.489 219.099C383.855 216.113 378.358 206.342 373.041 209.31L371.27 210.295H371.27Z" fill="#EBA884"/>
<g id="Group_4">
<path id="Vector_88" d="M372.756 208.798C373.038 208.641 373.395 208.743 373.552 209.026C373.709 209.308 373.608 209.665 373.326 209.822L372.756 208.798ZM360.412 215.666L372.756 208.798L373.326 209.822L360.982 216.689L360.412 215.666ZM360.982 216.689C360.701 216.846 360.344 216.745 360.187 216.462C360.029 216.179 360.13 215.823 360.412 215.666L360.982 216.689Z" fill="#C98560"/>
</g>
<g id="Group_5">
<path id="Vector_89" d="M378.203 218.589C378.485 218.432 378.842 218.534 378.999 218.817C379.156 219.099 379.055 219.456 378.773 219.613L378.203 218.589ZM365.859 225.458L378.203 218.589L378.773 219.613L366.429 226.481L365.859 225.458ZM366.429 226.481C366.147 226.638 365.79 226.536 365.633 226.254C365.476 225.971 365.577 225.614 365.859 225.458L366.429 226.481Z" fill="#C98560"/>
</g>
<g id="Group_6">
<path id="Vector_90" d="M379.985 229.06C380.197 228.943 380.497 229.076 380.654 229.359C380.811 229.641 380.767 229.966 380.556 230.083L379.985 229.06V229.06ZM370.73 234.21L379.985 229.06L380.556 230.083L371.3 235.233L370.73 234.21ZM371.3 235.233C371.088 235.35 370.789 235.217 370.632 234.935C370.474 234.652 370.518 234.327 370.73 234.21L371.3 235.233V235.233Z" fill="#C98560"/>
</g>
<g id="Group_7">
<path id="Vector_91" d="M404.508 217.331L402.203 217.813C402.07 217.178 402.478 216.555 403.114 216.422C403.75 216.289 404.375 216.696 404.508 217.331H404.508ZM405.855 273.515L405.959 271.706L406.062 269.959L406.162 268.269L406.259 266.63L406.351 265.036L406.436 263.481L406.513 261.961L406.582 260.469L406.64 258.998L406.686 257.545L406.72 256.102L406.74 254.664L406.744 253.225L406.732 251.779L406.702 250.32L406.653 248.842L406.584 247.34L406.493 245.806L406.378 244.236L406.24 242.624L406.076 240.962L405.885 239.246L405.666 237.47L405.417 235.628L405.137 233.714L404.826 231.721L404.48 229.646L404.099 227.481L403.683 225.221L403.229 222.861L402.736 220.394L402.203 217.815L404.507 217.332L405.043 219.926L405.539 222.409L405.997 224.787L406.416 227.065L406.801 229.25L407.15 231.347L407.465 233.362L407.748 235.301L408.001 237.17L408.223 238.973L408.417 240.718L408.584 242.408L408.725 244.051L408.841 245.652L408.935 247.217L409.005 248.75L409.055 250.258L409.086 251.746L409.098 253.22L409.094 254.685L409.074 256.147L409.04 257.611L408.993 259.084L408.934 260.569L408.865 262.075L408.787 263.607L408.701 265.169L408.609 266.767L408.512 268.409L408.412 270.099L408.309 271.844L408.205 273.649L405.854 273.516L405.855 273.515ZM422.57 302.192L422.041 301.188L421.484 300.264L420.9 299.411L420.293 298.623L419.663 297.89L419.013 297.205L418.346 296.56L417.664 295.949L416.968 295.366L416.261 294.802L415.547 294.251L414.827 293.706L414.106 293.16L413.386 292.606L412.672 292.036L411.967 291.444L411.275 290.82L410.602 290.159L409.952 289.452L409.331 288.694L408.745 287.877L408.198 286.997L407.697 286.047L407.246 285.023L406.849 283.921L406.51 282.734L406.233 281.458L406.018 280.086L405.871 278.613L405.793 277.031L405.786 275.335L405.855 273.516L408.205 273.648L408.141 275.376L408.146 276.971L408.219 278.441L408.354 279.791L408.547 281.029L408.795 282.164L409.091 283.203L409.434 284.154L409.818 285.027L410.242 285.83L410.704 286.573L411.201 287.265L411.732 287.913L412.295 288.526L412.89 289.109L413.514 289.672L414.165 290.219L414.84 290.757L415.535 291.293L416.249 291.833L416.977 292.385L417.715 292.954L418.46 293.548L419.206 294.175L419.951 294.841L420.688 295.552L421.412 296.317L422.121 297.142L422.807 298.033L423.466 298.995L424.094 300.036L424.685 301.16L422.571 302.194L422.57 302.192ZM422.57 302.192L424.684 301.158C424.97 301.742 424.729 302.446 424.145 302.731C423.561 303.017 422.855 302.776 422.569 302.192H422.57Z" fill="#FF5E04"/>
</g>
<path id="Vector_92" d="M415.094 289.271C414.095 288.347 412.536 288.408 411.612 289.407C410.689 290.407 410.75 291.966 411.75 292.889L417.856 298.533C418.855 299.457 420.414 299.396 421.338 298.396C422.261 297.397 422.2 295.838 421.2 294.914L415.094 289.271Z" fill="#FF5E04"/>
<path id="Vector_93" fill-rule="evenodd" clip-rule="evenodd" d="M474.086 245.048L467.229 243.115L458.028 275.98L465.146 277.886C465.256 277.187 465.403 276.488 465.592 275.791L473.723 246.223C473.832 245.825 473.953 245.434 474.085 245.048H474.086Z" fill="#D90324"/>
<path id="Vector_94" fill-rule="evenodd" clip-rule="evenodd" d="M405.562 237.521C399.635 235.912 402.566 225.312 408.44 226.914L428.395 232.329C428.805 226.452 428.698 219.75 432.316 212.183C435.935 204.617 442.979 208.153 441.925 213.017C440.794 216.771 439.613 219.402 441.823 224.003C444.033 228.604 450.54 234.655 453.382 239.276L467.227 243.115L458.027 275.979L448.389 273.41C437.453 277.294 435.059 277.459 417.687 272.578L400.221 267.839C394.901 266.396 397.421 257.29 402.693 258.727L398.699 257.644C393.649 256.274 395.669 246.438 400.673 247.803C394.746 246.195 397.732 235.388 403.607 236.991L405.562 237.521V237.521Z" fill="#EBA884"/>
<g id="Group_8">
<path id="Vector_95" d="M403.76 236.429L403.453 237.559C403.142 237.475 402.958 237.153 403.043 236.841C403.127 236.529 403.449 236.344 403.76 236.429ZM417.393 240.127L417.086 241.258L403.453 237.559L403.76 236.429L417.393 240.127ZM417.086 241.258L417.393 240.127C417.705 240.211 417.889 240.533 417.804 240.845C417.719 241.157 417.397 241.342 417.086 241.258Z" fill="#C98560"/>
</g>
<g id="Group_9">
<path id="Vector_96" d="M400.827 247.243L400.519 248.374C400.208 248.289 400.024 247.967 400.109 247.655C400.194 247.343 400.516 247.159 400.827 247.243ZM414.46 250.942L414.152 252.073L400.519 248.374L400.827 247.243L414.46 250.942ZM414.152 252.073L414.46 250.942C414.771 251.026 414.955 251.348 414.87 251.66C414.786 251.972 414.464 252.157 414.152 252.073Z" fill="#C98560"/>
</g>
<g id="Group_10">
<path id="Vector_97" d="M401.616 257.836L401.308 258.967C401.075 258.904 400.955 258.599 401.039 258.287C401.124 257.975 401.383 257.773 401.616 257.836V257.836ZM411.838 260.609L411.531 261.74L401.308 258.967L401.616 257.836L411.838 260.609ZM411.531 261.74L411.838 260.609C412.072 260.672 412.192 260.977 412.107 261.289C412.023 261.601 411.764 261.803 411.531 261.74V261.74Z" fill="#C98560"/>
</g>
<path id="Vector_98" fill-rule="evenodd" clip-rule="evenodd" d="M234.568 262.747C230.782 272.009 231.088 282.87 236.331 292.218C241.585 301.588 250.697 307.472 260.593 309.043C263.91 304.269 265.855 298.472 265.855 292.218C265.855 275.912 252.636 262.693 236.331 262.693C235.739 262.693 235.151 262.713 234.568 262.747V262.747Z" fill="#FF6600"/>
<path id="Vector_99" fill-rule="evenodd" clip-rule="evenodd" d="M550.863 255.568C556.766 263.649 559.083 274.266 556.241 284.603C553.394 294.96 545.965 302.863 536.738 306.767C530.594 301.356 526.716 293.433 526.716 284.603C526.716 270.133 537.125 258.097 550.863 255.568Z" fill="#FF6600"/>
<g id="Group_11">
<path id="Vector_100" d="M401.258 143.845C401.258 143.49 400.983 141.421 400.43 141.648C394.677 144.011 381.697 145.421 376.028 142.958C375.52 143.027 375.494 144.862 375.478 145.483C375.426 146.558 377.907 150.728 387.437 150.626C396.853 150.525 401.683 145.894 401.258 143.845V143.845Z" fill="black"/>
<path id="1" d="M401.258 143.845C401.258 143.49 400.983 141.421 400.43 141.648C394.677 144.011 381.697 145.421 376.028 142.958C375.52 143.027 375.494 144.862 375.478 145.483C375.426 146.558 377.907 150.728 387.437 150.626C396.853 150.525 401.683 145.894 401.258 143.845V143.845Z" stroke="black" stroke-width="0.297125" stroke-miterlimit="22.9256"/>
</g>
<path id="Vector_101" d="M400.353 143.831C400.367 143.649 400.206 142.406 399.767 142.542C394.778 144.093 384.314 145.948 376.661 143.963C376.187 143.84 376.402 144.652 376.407 144.834C376.465 145.958 382.226 148.174 387.463 148.025C392.699 147.875 400.628 144.884 400.353 143.83V143.831Z" fill="white"/>
<path id="Vector_102" fill-rule="evenodd" clip-rule="evenodd" d="M482.841 353.271L476.72 350.529C470.923 346.963 472.108 345.097 472.108 330.605V294.654C474.214 296.595 476.798 298.071 479.74 298.866L482.851 299.707L482.841 353.271Z" fill="#D90324"/>
<path id="Vector_103" fill-rule="evenodd" clip-rule="evenodd" d="M306.639 353.266L312.761 350.525C318.557 346.959 317.373 345.092 317.373 330.6V285.279C316.368 286.183 315.248 286.987 314.02 287.669L306.629 291.772L306.639 353.266V353.266Z" fill="#D90324"/>
<path id="Vector_104" d="M307.204 292.794C306.641 293.107 305.93 292.904 305.617 292.341C305.304 291.779 305.507 291.068 306.07 290.755L313.522 286.618C317.669 284.29 320.483 280.47 321.683 276.191C322.885 271.909 322.471 267.169 320.162 263.009L305.166 236.273C302.826 232.101 298.997 229.272 294.709 228.065C290.405 226.854 285.639 227.272 281.446 229.599L249.876 247.124C249.313 247.437 248.602 247.234 248.29 246.671C247.977 246.109 248.179 245.398 248.742 245.085L280.312 227.56C285.068 224.921 290.468 224.445 295.34 225.816C300.206 227.185 304.549 230.395 307.205 235.13C312.204 244.044 317.231 252.947 322.201 261.876C324.822 266.598 325.294 271.972 323.933 276.822C322.571 281.677 319.375 286.013 314.664 288.656C314.64 288.656 307.861 292.429 307.203 292.794L307.204 292.794Z" fill="#D90324"/>
<path id="Vector_105" d="M483.141 298.571C483.765 298.737 484.136 299.378 483.97 300.002C483.803 300.625 483.162 300.996 482.539 300.83C481.463 300.54 480.313 300.273 479.258 299.939C474.091 298.491 469.98 295.066 467.508 290.71C465.02 286.327 464.184 280.999 465.59 275.79L473.721 246.223C475.162 240.985 478.605 236.824 482.998 234.326C487.399 231.823 492.754 230.985 497.999 232.402L532.857 241.821C533.48 241.988 533.851 242.629 533.685 243.253C533.519 243.876 532.878 244.247 532.254 244.081L497.396 234.662C492.762 233.409 488.034 234.148 484.15 236.357C480.275 238.56 477.239 242.226 475.971 246.835L467.849 276.393C466.607 280.991 467.344 285.692 469.538 289.557C471.72 293.402 475.343 296.423 479.891 297.695C480.966 297.949 482.07 298.281 483.141 298.571H483.141Z" fill="#D90324"/>
<path id="Vector_106" d="M464.756 395.667L467.871 443.612L478.725 553.144L510.114 729.485C509.989 734.968 454.718 736.383 449.215 729.485L416.095 586.719L391.317 469.337L387.206 586.967L389.122 731.045C391.773 733.579 335.439 736.438 332.515 731.045L320.938 552.283L322.798 395.314" stroke="#2B0087" stroke-width="2.34105" stroke-miterlimit="22.9256" stroke-linecap="round" stroke-linejoin="round"/>
</g>
</g>
</g>
<defs>
<linearGradient id="paint0_linear_1536_7307" x1="434.031" y1="83.7672" x2="449.46" y2="111.223" gradientUnits="userSpaceOnUse">
<stop stop-color="#6934DD"/>
<stop offset="1" stop-color="#FF0431"/>
</linearGradient>
<linearGradient id="paint1_linear_1536_7307" x1="411.689" y1="67.5563" x2="474.378" y2="178.873" gradientUnits="userSpaceOnUse">
<stop stop-color="#6934DD"/>
<stop offset="1" stop-color="#FF0431"/>
</linearGradient>
<linearGradient id="paint2_linear_1536_7307" x1="395.253" y1="70.4321" x2="482.869" y2="223.457" gradientUnits="userSpaceOnUse">
<stop stop-color="#6934DD"/>
<stop offset="1" stop-color="#FF0431"/>
</linearGradient>
<linearGradient id="paint3_linear_1536_7307" x1="376.423" y1="81.6185" x2="481.274" y2="263.828" gradientUnits="userSpaceOnUse">
<stop stop-color="#6934DD"/>
<stop offset="1" stop-color="#FF0431"/>
</linearGradient>
<linearGradient id="paint4_linear_1536_7307" x1="353.281" y1="95.3143" x2="474.345" y2="305.93" gradientUnits="userSpaceOnUse">
<stop stop-color="#6934DD"/>
<stop offset="1" stop-color="#FF0431"/>
</linearGradient>
<linearGradient id="paint5_linear_1536_7307" x1="306.628" y1="103.483" x2="458.83" y2="369.955" gradientUnits="userSpaceOnUse">
<stop stop-color="#6934DD"/>
<stop offset="1" stop-color="#FF0431"/>
</linearGradient>
<linearGradient id="paint6_linear_1536_7307" x1="262.852" y1="111.161" x2="445.659" y2="432.243" gradientUnits="userSpaceOnUse">
<stop stop-color="#6934DD"/>
<stop offset="1" stop-color="#FF0431"/>
</linearGradient>
<linearGradient id="paint7_linear_1536_7307" x1="245.087" y1="124.444" x2="442.248" y2="471.222" gradientUnits="userSpaceOnUse">
<stop stop-color="#6934DD"/>
<stop offset="1" stop-color="#FF0431"/>
</linearGradient>
<linearGradient id="paint8_linear_1536_7307" x1="237.337" y1="139.725" x2="442.873" y2="501.505" gradientUnits="userSpaceOnUse">
<stop stop-color="#6934DD"/>
<stop offset="1" stop-color="#FF0431"/>
</linearGradient>
<linearGradient id="paint9_linear_1536_7307" x1="234.198" y1="155.899" x2="445.255" y2="527.601" gradientUnits="userSpaceOnUse">
<stop stop-color="#6934DD"/>
<stop offset="1" stop-color="#FF0431"/>
</linearGradient>
<linearGradient id="paint10_linear_1536_7307" x1="233.273" y1="172.654" x2="448.14" y2="551.537" gradientUnits="userSpaceOnUse">
<stop stop-color="#6934DD"/>
<stop offset="1" stop-color="#FF0431"/>
</linearGradient>
<linearGradient id="paint11_linear_1536_7307" x1="233.8" y1="190.028" x2="451.367" y2="573.889" gradientUnits="userSpaceOnUse">
<stop stop-color="#6934DD"/>
<stop offset="1" stop-color="#FF0431"/>
</linearGradient>
<linearGradient id="paint12_linear_1536_7307" x1="235.036" y1="208.096" x2="454.38" y2="595.116" gradientUnits="userSpaceOnUse">
<stop stop-color="#6934DD"/>
<stop offset="1" stop-color="#FF0431"/>
</linearGradient>
<linearGradient id="paint13_linear_1536_7307" x1="236.403" y1="226.921" x2="456.758" y2="615.512" gradientUnits="userSpaceOnUse">
<stop stop-color="#6934DD"/>
<stop offset="1" stop-color="#FF0431"/>
</linearGradient>
<linearGradient id="paint14_linear_1536_7307" x1="237.627" y1="246.429" x2="458.266" y2="635.501" gradientUnits="userSpaceOnUse">
<stop stop-color="#6934DD"/>
<stop offset="1" stop-color="#FF0431"/>
</linearGradient>
<linearGradient id="paint15_linear_1536_7307" x1="238.841" y1="266.546" x2="459.129" y2="654.961" gradientUnits="userSpaceOnUse">
<stop stop-color="#6934DD"/>
<stop offset="1" stop-color="#FF0431"/>
</linearGradient>
<linearGradient id="paint16_linear_1536_7307" x1="240.212" y1="287.499" x2="459.182" y2="673.526" gradientUnits="userSpaceOnUse">
<stop stop-color="#6934DD"/>
<stop offset="1" stop-color="#FF0431"/>
</linearGradient>
<linearGradient id="paint17_linear_1536_7307" x1="241.879" y1="309.457" x2="458.273" y2="690.913" gradientUnits="userSpaceOnUse">
<stop stop-color="#6934DD"/>
<stop offset="1" stop-color="#FF0431"/>
</linearGradient>
<linearGradient id="paint18_linear_1536_7307" x1="244.177" y1="332.753" x2="456.389" y2="706.648" gradientUnits="userSpaceOnUse">
<stop stop-color="#6934DD"/>
<stop offset="1" stop-color="#FF0431"/>
</linearGradient>
<linearGradient id="paint19_linear_1536_7307" x1="247.111" y1="357.79" x2="452.964" y2="720.638" gradientUnits="userSpaceOnUse">
<stop stop-color="#6934DD"/>
<stop offset="1" stop-color="#FF0431"/>
</linearGradient>
<linearGradient id="paint20_linear_1536_7307" x1="250.885" y1="385.188" x2="447.369" y2="731.995" gradientUnits="userSpaceOnUse">
<stop stop-color="#6934DD"/>
<stop offset="1" stop-color="#FF0431"/>
</linearGradient>
<linearGradient id="paint21_linear_1536_7307" x1="255.508" y1="416.118" x2="438.519" y2="739.659" gradientUnits="userSpaceOnUse">
<stop stop-color="#6934DD"/>
<stop offset="1" stop-color="#FF0431"/>
</linearGradient>
<linearGradient id="paint22_linear_1536_7307" x1="260.875" y1="452.723" x2="423.91" y2="741.888" gradientUnits="userSpaceOnUse">
<stop stop-color="#6934DD"/>
<stop offset="1" stop-color="#FF0431"/>
</linearGradient>
<linearGradient id="paint23_linear_1536_7307" x1="266.324" y1="499.786" x2="398.296" y2="734.727" gradientUnits="userSpaceOnUse">
<stop stop-color="#6934DD"/>
<stop offset="1" stop-color="#FF0431"/>
</linearGradient>
<linearGradient id="paint24_linear_1536_7307" x1="267.338" y1="577.281" x2="338.785" y2="704.457" gradientUnits="userSpaceOnUse">
<stop stop-color="#6934DD"/>
<stop offset="1" stop-color="#FF0431"/>
</linearGradient>
<clipPath id="clip0_1536_7307">
<rect width="325.451" height="754" fill="white" transform="translate(232 46)"/>
</clipPath>
</defs>
</svg>
