<svg width="589" height="726" viewBox="0 0 589 726" fill="none" xmlns="http://www.w3.org/2000/svg">
<g clip-path="url(#clip0_2060_7554)">
<g opacity="0.2">
<path opacity="0.55" d="M353.283 28.3701L388.677 24.246C376.81 24.1834 364.902 25.5709 353.283 28.3701Z" fill="url(#paint0_linear_2060_7554)"/>
<path opacity="0.55" d="M434.602 37.8563L302.112 53.2892C299.741 54.3792 297.374 55.4964 295.01 56.6406L438.456 39.9248C437.25 39.2237 435.972 38.5325 434.602 37.8563Z" fill="url(#paint1_linear_2060_7554)"/>
<path opacity="0.55" d="M455.844 57.5561L265.975 79.818L260.148 82.9734L456.851 59.8825C456.523 59.1613 456.204 58.3534 455.844 57.5561Z" fill="url(#paint2_linear_2060_7554)"/>
<path opacity="0.55" d="M462.968 80.3401L234.265 107.245L228.503 110.434L462.56 82.8886C462.707 82.0394 462.841 81.1841 462.968 80.3401Z" fill="url(#paint3_linear_2060_7554)"/>
<path opacity="0.55" d="M464.478 104.993L200.217 136.069C197.788 137.243 195.42 138.376 193.11 139.467L463.702 107.631C463.983 106.727 464.228 105.851 464.478 104.993Z" fill="url(#paint4_linear_2060_7554)"/>
<path opacity="0.55" d="M465.735 134.289L137.736 172.733C132.717 174.174 127.692 175.608 122.661 177.033L465.297 136.881C465.395 136.008 465.557 135.137 465.735 134.289Z" fill="url(#paint5_linear_2060_7554)"/>
<path opacity="0.55" d="M468.894 162.679L63.3163 210.165C60.7028 211.267 58.1154 212.412 55.5542 213.6L468.626 165.233C468.708 164.383 468.791 163.534 468.894 162.679Z" fill="url(#paint6_linear_2060_7554)"/>
<path opacity="0.55" d="M473.226 185.754L30.8654 237.48C29.5022 238.466 28.1512 239.458 26.8298 240.479L473.052 188.263C473.132 187.443 473.175 186.604 473.226 185.754Z" fill="url(#paint7_linear_2060_7554)"/>
<path opacity="0.55" d="M478.294 206.743L15.1631 260.907C14.3188 261.848 13.4943 262.783 12.6822 263.724L478.253 209.273L478.294 206.743Z" fill="url(#paint8_linear_2060_7554)"/>
<path opacity="0.55" d="M483.699 226.752L7.08121 282.489C6.49906 283.378 5.90944 284.278 5.3938 285.215L483.67 229.288C483.669 228.442 483.68 227.603 483.699 226.752Z" fill="url(#paint9_linear_2060_7554)"/>
<path opacity="0.55" d="M489.037 246.329L3.03761 303.125C2.616 304.018 2.20183 304.899 1.79254 305.798L488.964 248.857L489.037 246.329Z" fill="url(#paint10_linear_2060_7554)"/>
<path opacity="0.55" d="M493.929 265.702L1.3908 323.252C1.06066 324.13 0.742807 325.013 0.425004 325.897L493.757 268.257L493.929 265.702Z" fill="url(#paint11_linear_2060_7554)"/>
<path opacity="0.55" d="M497.997 285.103L1.22236 343.155C0.963946 344.023 0.68573 344.896 0.419833 345.775L497.662 287.683C497.772 286.817 497.874 285.963 497.997 285.103Z" fill="url(#paint12_linear_2060_7554)"/>
<path opacity="0.55" d="M500.842 304.681L1.86687 363.012L1.11381 365.657L500.269 307.324C500.478 306.432 500.64 305.561 500.842 304.681Z" fill="url(#paint13_linear_2060_7554)"/>
<path opacity="0.55" d="M502.613 324.524L2.84273 382.93L2.16393 385.536L501.905 327.101L502.613 324.524Z" fill="url(#paint14_linear_2060_7554)"/>
<path opacity="0.55" d="M503.356 344.53L4.29285 402.862L3.72537 405.448L502.482 347.16C502.78 346.282 503.078 345.403 503.356 344.53Z" fill="url(#paint15_linear_2060_7554)"/>
<path opacity="0.55" d="M502.815 364.742L6.63237 422.732C6.49016 423.597 6.35546 424.451 6.23305 425.31L501.733 367.39C502.096 366.514 502.465 365.625 502.815 364.742Z" fill="url(#paint16_linear_2060_7554)"/>
<path opacity="0.55" d="M500.742 385.161L10.1823 442.475L10.0179 445.019L499.381 387.837C499.835 386.945 500.301 386.059 500.742 385.161Z" fill="url(#paint17_linear_2060_7554)"/>
<path opacity="0.55" d="M496.739 405.796L15.5855 462.085C15.6263 462.92 15.6869 463.749 15.7475 464.579L495.044 408.534C495.622 407.627 496.179 406.726 496.739 405.796Z" fill="url(#paint18_linear_2060_7554)"/>
<path opacity="0.55" d="M490.26 426.792L23.1841 481.43C23.3609 482.257 23.535 483.112 23.7614 483.888L488.105 429.559C488.831 428.65 489.552 427.724 490.26 426.792Z" fill="url(#paint19_linear_2060_7554)"/>
<path opacity="0.55" d="M480.282 448.226L33.7956 500.381L34.9073 502.77L477.449 451.079C478.41 450.136 479.408 449.212 480.282 448.226Z" fill="url(#paint20_linear_2060_7554)"/>
<path opacity="0.55" d="M464.942 470.466L48.3115 519.093C48.9112 519.872 49.5309 520.646 50.1579 521.408L461.035 473.437C462.347 472.456 463.659 471.476 464.942 470.466Z" fill="url(#paint21_linear_2060_7554)"/>
<path opacity="0.55" d="M440.825 494.192L68.3208 537.544C69.272 538.285 70.2308 539.015 71.2169 539.728L435.06 497.375C437.034 496.285 438.953 495.228 440.825 494.192Z" fill="url(#paint22_linear_2060_7554)"/>
<path opacity="0.55" d="M399.684 520.887L96.8244 556.125C98.38 556.817 99.9457 557.469 101.539 558.105L389.622 524.586C392.993 523.386 396.347 522.153 399.684 520.887Z" fill="url(#paint23_linear_2060_7554)"/>
<path opacity="0.55" d="M307.877 557.812L143.934 576.894C147.639 577.407 151.361 577.812 155.099 578.11L282.101 563.338C290.652 561.551 299.244 559.709 307.877 557.812Z" fill="url(#paint24_linear_2060_7554)"/>
</g>
<g clip-path="url(#clip1_2060_7554)">
<path fill-rule="evenodd" clip-rule="evenodd" d="M305.522 110.015L309.346 128.568C305.302 129.1 301.387 130.214 298.592 131.158C292.564 133.195 278.088 138.685 270.125 143.395C269.964 142.855 269.816 142.294 269.692 141.693L265.231 120.043C268.802 121.858 272.778 123.025 277.019 123.37C288.621 124.313 299.268 118.886 305.523 110.015L305.522 110.015Z" fill="#EBA884"/>
<path fill-rule="evenodd" clip-rule="evenodd" d="M265.282 120.072L265.661 121.985L265.648 121.987L265.881 123.209L266.475 126.088L266.475 126.091L269.692 141.695C269.815 142.294 269.958 142.862 270.118 143.4C272.073 142.243 274.423 141.038 276.944 139.85L274.747 128.322C284.679 128.925 297.524 124.038 302.952 113.205C296.566 120.156 287.156 124.196 277.019 123.371C272.799 123.028 268.841 121.871 265.283 120.072L265.282 120.072Z" fill="#C98560"/>
<path fill-rule="evenodd" clip-rule="evenodd" d="M312.705 76.0098L311.191 94.3436C309.77 111.798 294.471 124.794 277.018 123.374C259.564 121.955 246.567 106.656 247.987 89.2023L249.492 70.7028L249.707 68.0521L250.926 53.0594L251.48 46.2612C251.48 46.2612 256.224 34.5263 263.662 36.6703C268.004 39.2515 274.278 40.7774 279.592 40.6522C283.54 40.5582 286.955 39.6778 288.714 38.7308C292.467 36.7099 304.6 50.9315 307.605 53.3277L308.517 74.4898C308.419 75.7023 310.458 76.178 312.705 76.0089L312.705 76.0098ZM318.327 73.0898C318.32 73.1375 318.31 73.1845 318.299 73.2314C318.311 73.1845 318.32 73.1379 318.327 73.0898ZM318.297 73.2394C318.286 73.2858 318.272 73.3316 318.257 73.3768C318.272 73.3316 318.285 73.2857 318.297 73.2394ZM318.254 73.386C318.239 73.4281 318.223 73.4701 318.205 73.5115C318.223 73.4697 318.239 73.4285 318.254 73.386ZM318.195 73.5359C318.178 73.5733 318.16 73.6107 318.141 73.6475C318.161 73.6103 318.178 73.5738 318.195 73.5359ZM318.125 73.6786C318.105 73.715 318.084 73.7503 318.062 73.7859C318.083 73.7502 318.105 73.7149 318.125 73.6786ZM318.047 73.8099C318.023 73.8468 317.999 73.8828 317.973 73.9186C317.999 73.8828 318.024 73.8469 318.047 73.8099Z" fill="#EBA884"/>
<path fill-rule="evenodd" clip-rule="evenodd" d="M316.63 69.7345C318.659 69.8998 320.444 72.2854 320.233 74.8869L319.636 82.2184C319.202 87.5359 314.526 91.4731 309.216 91.0416L311.036 69.2797L316.63 69.7345Z" fill="#EBA884"/>
<path d="M252.453 13.4718C252.758 12.8537 253.002 12.639 253.572 12.6574C254.068 12.6902 254.283 13.0933 254.25 13.5896C254.249 13.6196 252.776 23.7229 257.323 26.7043C257.331 24.961 253.671 14.5695 261.586 7.82732C269.627 0.977442 277.28 11.8218 277.001 12.3316C276.722 12.8423 293.798 14.296 304.749 21.5556C315.7 28.8156 321.361 36.8759 320.419 50.8783C319.476 64.8815 320.046 61.8644 318.329 73.0836C317.836 76.3045 308.309 77.0732 308.519 74.4861L307.607 53.3241C304.601 50.9278 292.469 36.7063 288.716 38.7272C286.957 39.6742 283.541 40.5541 279.594 40.6486C274.279 40.7737 268.006 39.2479 263.664 36.6666C256.226 34.5227 251.481 46.2576 251.481 46.2576L250.25 61.3867L250.034 64.0379C250.034 64.0379 242.094 64.8546 243.493 55.9122C244.892 46.9698 241.703 45.6623 246.066 38.0111C249.047 32.7849 250.951 30.2235 253.399 28.6018C249.528 24.4177 251.658 15.1013 252.453 13.4713L252.453 13.4718Z" fill="#241813"/>
<path d="M267.789 70.6018C267.298 74.8706 266.418 79.079 265.964 83.3585C265.719 85.6959 264.246 87.9406 264.545 90.2809C264.717 91.6747 266.325 93.7237 267.858 94.2024C268.387 94.3666 267.772 94.8184 267.566 94.9098C267.066 95.1295 266.479 95.205 265.959 95.0418C264.438 94.5678 262.642 92.8383 262.352 91.4104C261.891 89.111 263.388 86.8127 263.597 84.4954C264 79.97 264.97 75.5411 265.487 71.0354C265.576 70.2692 267.85 70.0969 267.789 70.6013L267.789 70.6018Z" fill="black"/>
<path d="M315.49 79.0006C315.458 78.6994 315.676 78.4282 315.978 78.3974C316.28 78.3653 316.551 78.584 316.582 78.8857C316.584 78.9057 317.328 86.0815 313.145 87.4484C312.856 87.5424 312.545 87.3845 312.451 87.0959C312.357 86.8064 312.515 86.4957 312.804 86.4018C316.144 85.3109 315.492 79.0192 315.49 79.0011L315.49 79.0006Z" fill="#C98560"/>
<path d="M253.696 69.1748C253.701 71.1056 255.272 72.6683 257.202 72.6635C259.136 72.6596 260.696 71.09 260.692 69.1587C260.688 67.2265 259.121 65.6638 257.186 65.6686C255.257 65.6729 253.691 67.2421 253.696 69.1748Z" fill="black"/>
<path d="M280.698 69.5312C280.703 71.4625 282.27 73.0248 284.204 73.0213C286.137 73.0168 287.699 71.4474 287.695 69.5161C287.69 67.5834 286.122 66.0219 284.188 66.0259C282.255 66.0299 280.694 67.599 280.698 69.5316L280.698 69.5312Z" fill="black"/>
<path d="M268.413 108.341C269.617 108.437 270.821 108.534 272.023 108.63C272.642 108.679 271.702 110.518 271.091 110.47C269.888 110.374 268.685 110.277 267.486 110.18C266.863 110.13 267.807 108.293 268.413 108.341Z" fill="black"/>
<path d="M254.176 54.9039C257.723 54.4358 258.661 53.7071 262.242 53.6009C264.008 53.5494 266.458 52.3938 267.468 50.6096C268.565 48.666 266.206 48.3818 265.168 48.4132C261.587 48.519 260.649 49.2485 257.102 49.717C255.288 49.9571 252.948 50.8141 251.875 52.7078C250.816 54.5859 253.101 55.0472 254.176 54.9043L254.176 54.9039Z" fill="#241813"/>
<path d="M319.849 69.0514L294.774 63.3516" stroke="#160045" stroke-width="1.86701" stroke-miterlimit="22.9256" stroke-linecap="round" stroke-linejoin="round"/>
<path d="M271.363 67.4329C269.12 65.6875 264.368 65.4991 262.772 67.3007" stroke="#160045" stroke-width="1.86701" stroke-miterlimit="22.9256"/>
<path fill-rule="evenodd" clip-rule="evenodd" d="M283.143 58.9863C295.284 59.1404 295.213 64.7599 295.165 68.4666C295.118 72.1738 295.024 79.526 282.884 79.3715C270.743 79.2174 270.837 71.8651 270.884 68.1584C270.931 64.4512 271.003 58.8322 283.143 58.9863V58.9863Z" stroke="#160045" stroke-width="1.86701" stroke-miterlimit="22.9256"/>
<path fill-rule="evenodd" clip-rule="evenodd" d="M251.891 60.049C263.109 60.2147 263.049 65.8337 263.009 69.541C262.969 73.2484 262.89 80.5855 251.671 80.4188C240.453 80.2531 240.533 72.916 240.573 69.2087C240.612 65.5019 240.673 59.8833 251.891 60.049V60.049Z" stroke="#160045" stroke-width="1.86701" stroke-miterlimit="22.9256"/>
<path d="M240.672 66.9531L249.172 68.0582" stroke="#160045" stroke-width="1.86701" stroke-miterlimit="22.9256" stroke-linecap="round" stroke-linejoin="round"/>
<path d="M278.653 100.517C278.642 100.28 278.511 99.8308 278.105 99.9678C273.957 101.37 265.405 102.133 261.048 101.49C260.622 101.427 260.582 101.891 260.621 102.127C260.539 103.523 265.455 105.863 270.061 105.456C274.693 105.047 279.02 101.882 278.653 100.517Z" fill="black"/>
<path d="M278.653 100.517C278.642 100.28 278.511 99.8308 278.105 99.9678C273.957 101.37 265.405 102.133 261.048 101.49C260.622 101.427 260.582 101.891 260.621 102.127C260.539 103.523 265.455 105.863 270.061 105.456C274.693 105.047 279.02 101.882 278.653 100.517Z" stroke="black" stroke-width="0.284364" stroke-miterlimit="22.9256"/>
<path d="M277.552 101.339C277.542 101.229 277.289 100.51 276.994 100.649C275.32 101.443 272.33 101.7 269.695 101.974C267.059 102.248 264.119 102.603 262.299 102.123C261.996 102.043 261.893 102.8 261.907 102.909C261.734 103.546 265.965 105.117 269.989 104.717C274.013 104.318 277.864 101.93 277.552 101.34L277.552 101.339Z" fill="white"/>
<path d="M296.141 54.9927C291.731 54.1364 287.327 53.017 282.809 53.5189C281.08 53.7112 278.928 52.5304 277.938 51.1628C276.956 49.8042 277.664 48.7168 279.206 48.5476C284.278 47.9834 289.26 49.1547 294.209 50.1151C295.874 50.4383 297.922 51.3577 298.601 53.0591C299.24 54.674 297.385 55.2331 296.141 54.9931L296.141 54.9927Z" fill="#241813"/>
<path fill-rule="evenodd" clip-rule="evenodd" d="M327.128 133.7C324.822 118.217 306.13 124.202 297.81 127.762C290.864 130.734 272.424 139.499 266.91 145.017C263.9 148.029 261.3 151.288 259.041 154.75C256.128 159.216 253.793 164.022 251.912 169.085L239.409 175.894L223.776 147.628C219.04 139.065 208.043 136.09 199.528 140.911L174.061 155.329C165.546 160.15 162.522 171.062 167.344 179.577L195.561 230.598C196.159 232.329 196.91 234.03 197.823 235.684C205.915 250.335 223.834 256.187 238.953 249.8C240.196 249.29 241.42 248.697 242.617 248.019L242.621 248.017C242.288 253.426 241.84 258.703 241.163 263.767C236.001 302.375 234.231 336.909 240.475 347.268C259.808 341.941 347.514 347.63 367.785 347.56C371.394 336.733 372.191 302.418 370.323 266.069L370.487 265.864C383.917 255.774 387.578 236.673 378.271 222.399C374.843 217.141 369.498 208.825 363.52 199.497C362.209 193.263 358.433 182.357 353.702 171.319C353.347 170.151 352.868 169.005 352.256 167.898L351.992 167.421C347.623 157.676 342.645 148.246 338.106 142.282C335.714 137.952 331.751 135.01 327.31 133.77L327.128 133.7V133.7Z" fill="#FF0028"/>
<path fill-rule="evenodd" clip-rule="evenodd" d="M392.007 630.012L394.35 637.243C390.936 638.648 387.753 640.102 384.768 641.467C376.578 645.21 369.876 648.273 363.634 647.84C361.909 647.72 361.361 648.604 361.279 649.785C361.233 650.45 361.367 651.199 361.486 651.875C361.556 652.27 361.622 652.64 361.637 652.901L361.644 652.968L360.684 652.299C359.931 647.833 359.035 643.427 358.064 639.041C368.227 640.039 384.149 635.932 392.007 630.013V630.012Z" fill="#DAD9FF"/>
<path fill-rule="evenodd" clip-rule="evenodd" d="M407.104 662.632C405.107 652.821 401.062 646.95 397.742 642.948C397.506 643.189 398.651 636.132 396.754 636.876C382.704 642.381 373.106 649.162 363.958 648.375C360.504 648.077 361.764 652.372 361.971 653.659C361.246 653.361 360.504 653.16 360.173 652.623C360.105 651.299 358.794 645.497 357.275 638.947C353.756 638.494 351.014 637.38 349.69 635.45L345.637 620.254C337.619 623.446 331.008 630.009 328.845 638.594L328.856 640.065C329.064 655.742 335.871 663.491 355.46 678.008C372.806 690.923 400.921 683.158 406.455 672.913C407.141 671.642 407.166 663.712 407.104 662.632Z" fill="#E5EEFF"/>
<path fill-rule="evenodd" clip-rule="evenodd" d="M406.992 666.857C408.383 670.187 408.818 674.618 408.994 678.461C409.424 687.886 384.929 697.249 372.252 694.428C364.531 692.71 360.443 691.149 354.681 686.102C345.016 677.635 336.524 670.205 333.077 664.684C330.535 660.612 328.332 655.673 327.871 643.637C327.839 641.825 328.091 640.12 328.843 638.598L328.855 640.068C329.064 655.746 335.869 663.495 355.458 678.012C360.285 681.589 366.07 683.064 371.844 683.11C389.505 683.248 407.982 674.235 406.993 666.857L406.992 666.857Z" fill="#868CB5"/>
<path fill-rule="evenodd" clip-rule="evenodd" d="M363.06 663.23C350.726 653.39 358.835 671.965 355.161 677.794L355.457 678.014C358.937 680.593 362.916 682.079 367.03 682.725C367.859 676.609 364.841 664.974 363.06 663.23Z" fill="#C5D2EB"/>
<path d="M386.556 648.558C386.249 648.586 385.977 648.36 385.95 648.053C385.922 647.747 386.148 647.474 386.455 647.447C388.141 647.292 390.176 646.778 392.238 645.85C393.924 645.092 395.625 644.057 397.162 642.715C397.159 642.492 397.178 642.222 397.201 641.912C397.292 640.646 397.45 638.474 397.093 637.565C397.048 637.449 397.002 637.381 396.959 637.398C392.687 639.071 388.818 640.841 385.234 642.478C376.899 646.287 370.079 649.405 363.562 648.952C362.706 648.893 362.436 649.304 362.397 649.855C362.36 650.395 362.48 651.069 362.589 651.676C362.665 652.094 362.735 652.483 362.754 652.836C362.797 653.61 362.601 654.131 361.857 654.172C361.449 654.195 361.026 653.897 360.448 653.491C360.267 653.364 360.065 653.222 359.866 653.09C359.732 653 359.648 652.863 359.624 652.716L358.502 646.061L356.839 638.889C357.237 638.947 357.648 638.996 358.067 639.037C359.038 643.423 359.934 647.829 360.687 652.295L361.647 652.964L361.639 652.897C361.625 652.636 361.559 652.266 361.489 651.871C361.369 651.195 361.236 650.446 361.282 649.78C361.364 648.599 361.912 647.716 363.637 647.836C369.878 648.269 376.58 645.206 384.77 641.463C388.389 639.809 392.295 638.023 396.552 636.355C397.346 636.044 397.842 636.407 398.136 637.157C398.584 638.302 398.416 640.632 398.318 641.989C398.291 642.354 398.05 642.403 398.083 642.503L398.087 642.506L398.09 642.508L398.096 642.513L398.098 642.514L398.102 642.518L398.108 642.522L398.109 642.523L398.114 642.528L398.119 642.533L398.12 642.533L398.126 642.539L398.13 642.542L398.131 642.544L398.136 642.549L398.14 642.552L398.142 642.555L398.148 642.561L398.149 642.562L398.153 642.566L398.158 642.572L398.159 642.573L398.164 642.578L398.168 642.584L398.169 642.584L398.175 642.59L398.178 642.595L398.187 642.606C399.861 644.624 401.718 647.117 403.416 650.353C405.113 653.589 406.644 657.559 407.653 662.519L407.66 662.559C407.699 662.856 407.709 664.395 407.691 665.826C407.675 667.056 407.639 668.225 407.582 668.507C407.522 668.811 407.227 669.007 406.923 668.947C406.62 668.887 406.423 668.592 406.484 668.289C406.529 668.062 406.561 666.973 406.575 665.813C406.592 664.458 406.587 663.025 406.555 662.724C405.568 657.884 404.078 654.017 402.427 650.869C400.898 647.955 399.222 645.646 397.677 643.748C396.111 645.074 394.397 646.105 392.699 646.869C390.522 647.848 388.359 648.391 386.558 648.557L386.556 648.558ZM349.67 665.577C349.605 665.275 349.797 664.977 350.099 664.912C350.401 664.847 350.699 665.039 350.764 665.341L351.701 669.618C351.766 669.92 351.574 670.218 351.272 670.283C350.97 670.348 350.672 670.156 350.607 669.854L349.67 665.577ZM347.027 664.649C346.962 664.346 347.154 664.048 347.456 663.983C347.759 663.918 348.056 664.11 348.122 664.412L349.059 668.689C349.124 668.991 348.932 669.289 348.63 669.354C348.327 669.419 348.03 669.227 347.964 668.925L347.027 664.649ZM365.883 680.236C365.93 680.54 365.721 680.825 365.417 680.873C365.112 680.92 364.827 680.711 364.78 680.407C363.431 671.865 361.498 667.073 359.613 665.091C358.956 664.402 358.332 664.089 357.771 664.104C357.223 664.119 356.692 664.453 356.21 665.057C354.955 666.631 354.123 669.854 354.159 674.089C354.161 674.343 354.096 674.552 353.969 674.716C353.581 675.219 352.827 675.108 351.816 674.515C351.045 674.063 350.042 673.316 348.899 672.363L348.868 672.335C343.977 668.248 336.345 660.244 333.137 655.076C332.975 654.814 333.055 654.469 333.317 654.306C333.579 654.144 333.924 654.224 334.087 654.486C337.242 659.568 344.764 667.452 349.586 671.481L349.617 671.505C350.72 672.425 351.671 673.135 352.381 673.552C352.751 673.769 352.958 673.962 353.043 674.019C353.016 669.557 353.943 666.107 355.335 664.361C356.022 663.498 356.835 663.018 357.725 662.989L357.74 662.988C358.62 662.964 359.532 663.386 360.422 664.321C362.444 666.445 364.493 671.443 365.882 680.235L365.883 680.236ZM371.149 663.201C371.213 663.503 371.02 663.8 370.718 663.864C370.416 663.928 370.119 663.735 370.055 663.433C369.37 660.24 368.828 659.39 368.192 658.395C368.045 658.163 367.89 657.921 367.758 657.696C367.601 657.431 367.689 657.087 367.954 656.93C368.22 656.773 368.564 656.862 368.72 657.127C368.881 657.399 369.009 657.6 369.133 657.795C369.829 658.885 370.422 659.815 371.149 663.201V663.201ZM329.399 638.685C329.297 640.497 329.47 642.635 330.021 644.753C330.493 646.574 331.244 648.377 332.333 649.94C332.509 650.193 332.447 650.541 332.195 650.717C331.943 650.893 331.594 650.831 331.418 650.579C330.247 648.898 329.443 646.971 328.94 645.033C328.354 642.781 328.173 640.507 328.286 638.585L328.287 638.571L328.287 638.562L328.288 638.558L328.288 638.548L328.289 638.544L328.29 638.534L328.291 638.53L328.292 638.52L328.292 638.516L328.294 638.506L328.294 638.503L328.296 638.492L328.297 638.489L328.299 638.479L328.3 638.475L328.302 638.465L328.303 638.46L328.305 638.452L328.309 638.438C329.702 632.929 332.838 628.213 337.017 624.667C339.512 622.55 342.382 620.85 345.476 619.648L345.766 620.734C342.832 621.889 340.11 623.509 337.738 625.521C333.738 628.915 330.735 633.424 329.399 638.686L329.399 638.685Z" fill="#868CB5"/>
<path fill-rule="evenodd" clip-rule="evenodd" d="M359.471 647.781C359.471 647.781 361.361 653.621 359.753 652.994C359.455 652.877 358.216 648.332 357.04 646.675C355.864 645.018 354.977 643.853 353.667 642.048C352.298 640.163 352.827 638.901 353.624 638.131C354.745 638.519 356.025 638.794 357.428 638.966L359.472 647.782L359.471 647.781Z" fill="#868CB5"/>
<path fill-rule="evenodd" clip-rule="evenodd" d="M322.762 667.549L322.119 663.112C314.072 666.321 297.296 666.93 285.126 662.396C285.44 665.02 286.111 667.318 287.154 669.227C288.355 671.426 290.055 673.115 292.279 674.193C294.526 675.283 297.318 675.759 300.679 675.524C306.323 675.129 313.545 672.732 322.463 667.878C322.544 667.757 322.645 667.647 322.761 667.549H322.762Z" fill="#DAD9FF"/>
<path fill-rule="evenodd" clip-rule="evenodd" d="M328.37 704.428C328.37 704.428 332.427 691.341 327.296 671.651C328.373 667.32 323.545 666.858 322.87 668.29C297.433 682.181 285.507 676.308 284.438 661.041L272.843 655.544C235.839 648.569 232.576 676.417 232.326 683.114C236.691 686.08 238.96 691.395 243.243 694.48C255.402 703.242 270.999 712.559 288.876 714.83C312.91 717.883 323.35 709.917 328.37 704.428Z" fill="#E5EEFF"/>
<path fill-rule="evenodd" clip-rule="evenodd" d="M270.437 707.801C278.808 710.419 270.292 683.429 280.674 682.531C292.673 681.491 294.981 705.626 291.917 716.171L270.437 707.801V707.801Z" fill="#C5D2EB"/>
<path fill-rule="evenodd" clip-rule="evenodd" d="M291.231 725.061C282.984 723.025 262.986 713.68 252.551 707.206C244.665 702.313 236.956 697.466 234.712 695.595C232.121 694.656 231.073 682.377 232.326 683.114C236.817 686.162 241.032 689.29 245.218 692.307C257.379 701.068 273.468 711.077 291.346 713.348C315.38 716.401 320.682 708.04 328.37 704.428L327.627 713.779C327.022 721.407 307.022 728.96 291.231 725.061L291.231 725.061Z" fill="#868CB5"/>
<path d="M261.132 658.57C259.416 658.49 257.837 658.918 257.358 659.657C256.786 660.54 258.002 661.532 260.073 661.874C262.144 662.215 264.286 661.776 264.858 660.894C265.216 660.341 264.874 659.747 264.063 659.295C263.17 658.878 261.956 658.709 261.132 658.57H261.132Z" fill="#868CB5"/>
<path d="M276.764 667.668C276.498 668.209 275.829 668.407 275.271 668.11C274.713 667.813 274.477 667.133 274.743 666.591C277.047 661.918 281.262 659.729 284.107 659.221L284.307 659.188L284.466 661.455C282.099 661.929 278.68 663.782 276.764 667.668H276.764Z" fill="#868CB5"/>
<path d="M260.524 659.906C265.231 652.759 276.05 655.017 274.354 657.145" stroke="#868CB5" stroke-width="2.24077" stroke-miterlimit="22.9256" stroke-linecap="round" stroke-linejoin="round"/>
<path d="M275.778 665.426C274.062 665.345 272.482 665.773 272.004 666.512C271.431 667.395 272.647 668.387 274.718 668.729C276.789 669.071 278.932 668.632 279.503 667.749C279.861 667.197 279.52 666.602 278.708 666.151C277.815 665.733 276.602 665.564 275.777 665.426H275.778Z" fill="#868CB5"/>
<path d="M285.063 670.544C285.354 670.645 285.507 670.964 285.406 671.255C285.305 671.546 284.986 671.7 284.695 671.599C281.476 670.474 277.122 668.368 272.56 666.16C265.299 662.648 257.502 658.876 253.137 658.497C252.829 658.47 252.601 658.199 252.627 657.891C252.654 657.583 252.925 657.354 253.233 657.381C257.798 657.777 265.693 661.597 273.045 665.154C277.582 667.349 281.913 669.444 285.063 670.544V670.544Z" fill="#868CB5"/>
<path d="M328.599 705.392C328.492 705.681 328.171 705.827 327.882 705.721C327.593 705.613 327.446 705.292 327.553 705.003C327.554 705 327.926 703.984 328.056 703.452C328.44 701.876 329.197 698.128 329.319 692.696C329.437 687.444 328.962 680.625 326.983 672.683C326.324 673.214 325.534 673.717 324.643 674.187C323.354 674.867 321.846 675.481 320.212 676.014C319.919 676.109 319.602 675.949 319.507 675.655C319.412 675.362 319.572 675.046 319.866 674.95C321.444 674.436 322.893 673.847 324.122 673.198C325.202 672.629 326.112 672.015 326.791 671.367C327.051 670.173 326.79 669.361 326.309 668.855C326.066 668.599 325.76 668.414 325.438 668.295C325.105 668.172 324.755 668.118 324.433 668.124C323.92 668.135 323.495 668.283 323.377 668.533C323.321 668.653 323.226 668.743 323.115 668.797C313.995 673.776 306.579 676.234 300.756 676.642C297.195 676.891 294.216 676.375 291.796 675.202C289.353 674.017 287.489 672.168 286.175 669.763C284.915 667.456 284.166 664.64 283.905 661.411L272.669 656.084C269.393 655.47 266.388 655.131 263.633 655.029C252.47 654.613 245.359 658.062 240.833 662.733C236.305 667.406 234.343 673.316 233.497 677.801C233.404 678.294 233.325 678.769 233.257 679.223L233.256 679.224L233.254 679.241C233.04 680.865 233.901 681.385 236.793 683.127C238.459 684.131 240.751 685.511 243.861 687.712C244.112 687.89 244.172 688.238 243.995 688.489C243.817 688.74 243.469 688.8 243.218 688.623C240.186 686.477 237.887 685.092 236.215 684.085C234.661 683.149 233.609 682.516 232.957 681.875C232.921 682.353 232.898 682.778 232.885 683.139C232.874 683.447 232.615 683.688 232.307 683.677C231.999 683.666 231.758 683.408 231.769 683.099C231.815 681.86 231.963 679.909 232.398 677.596C233.274 672.952 235.313 666.824 240.032 661.955C244.753 657.083 252.134 653.484 263.672 653.914C266.503 654.019 269.583 654.367 272.93 654.997C272.982 655.005 273.033 655.021 273.082 655.044L284.668 660.537C284.85 660.619 284.981 660.796 284.996 661.009C285.22 664.216 285.932 666.991 287.155 669.23C288.356 671.429 290.056 673.118 292.28 674.196C294.527 675.286 297.319 675.762 300.68 675.527C306.324 675.132 313.546 672.735 322.464 667.881C322.825 667.34 323.574 667.028 324.41 667.01C324.868 667 325.359 667.075 325.822 667.246C326.295 667.421 326.747 667.697 327.117 668.087C327.84 668.846 328.242 670.011 327.871 671.651C330.039 680.031 330.557 687.22 330.433 692.72C330.308 698.264 329.532 702.102 329.139 703.717C328.997 704.3 328.597 705.392 328.597 705.394L328.599 705.392ZM296.666 706.995C296.61 706.691 296.81 706.399 297.113 706.343C297.416 706.286 297.709 706.486 297.765 706.789C297.967 707.858 297.974 709.121 297.818 710.509C297.657 711.954 297.316 713.546 296.838 715.201C296.752 715.497 296.442 715.667 296.146 715.582C295.85 715.497 295.679 715.187 295.765 714.89C296.225 713.3 296.552 711.771 296.707 710.387C296.851 709.104 296.847 707.95 296.666 706.995H296.666ZM262.934 693.722C262.919 693.414 263.155 693.151 263.464 693.136C263.772 693.121 264.035 693.358 264.05 693.666L264.308 698.386C264.323 698.695 264.087 698.957 263.779 698.973C263.47 698.988 263.208 698.751 263.192 698.443L262.934 693.722ZM265.725 694.965C265.71 694.656 265.947 694.394 266.255 694.378C266.563 694.363 266.826 694.6 266.841 694.908L267.1 699.628C267.115 699.937 266.878 700.199 266.57 700.215C266.262 700.23 265.999 699.993 265.984 699.685L265.725 694.965ZM288.457 691.895C288.574 692.18 288.438 692.507 288.153 692.624C287.868 692.74 287.541 692.604 287.424 692.319C285.84 688.464 283.312 686.016 280.676 685.14C279.332 684.694 277.959 684.658 276.672 685.057C275.385 685.457 274.174 686.299 273.159 687.606C270.827 690.608 269.538 696.017 270.629 704.115C270.67 704.42 270.455 704.702 270.15 704.743C270.01 704.761 269.875 704.726 269.766 704.654C265.373 701.947 261.341 699.851 257.858 698.041C252.608 695.313 248.591 693.224 246.243 690.539C246.04 690.307 246.063 689.954 246.295 689.752C246.527 689.549 246.88 689.572 247.083 689.804C249.286 692.324 253.226 694.372 258.373 697.048C261.598 698.724 265.296 700.646 269.38 703.111C268.516 695.308 269.893 689.984 272.274 686.918C273.434 685.425 274.837 684.456 276.344 683.989C277.853 683.521 279.459 683.561 281.025 684.081C283.955 685.054 286.742 687.721 288.456 691.894L288.457 691.895Z" fill="#868CB5"/>
<path fill-rule="evenodd" clip-rule="evenodd" d="M285.612 667.104C284.036 667.434 280.326 666.82 280.239 663.356C280.21 662.179 280.203 661.105 280.216 660.121C281.567 660.895 283.022 661.58 284.558 662.179C284.708 663.576 284.79 664.17 285.612 667.104Z" fill="#868CB5"/>
<path fill-rule="evenodd" clip-rule="evenodd" d="M278.518 350.926L306.774 474.547L349.691 635.453C356.527 645.418 401.042 633.694 396.376 620.986L363.48 475.412L357.171 372.834L358.184 357.976L358.075 355.593C323.585 350.53 303.409 348.441 278.518 350.926V350.926Z" fill="#6934D9"/>
<path fill-rule="evenodd" clip-rule="evenodd" d="M249.376 355.373L254.562 463.152L271.023 647.704C274.07 671.392 328.815 668.012 326.738 658.197L321.546 502.337L321.496 392.231L334.761 368.976L335.128 352.443C303.301 348.534 283.423 348.78 249.376 355.373H249.376Z" fill="#6934D9"/>
<path fill-rule="evenodd" clip-rule="evenodd" d="M242.621 248.015L242.617 248.017C227.653 256.49 208.483 251.749 199.395 237.407C204.837 234.442 211.078 232.756 217.712 232.756C227.371 232.756 236.195 236.33 242.936 242.227C242.842 244.17 242.739 246.101 242.621 248.015Z" fill="#FF5E04"/>
<path fill-rule="evenodd" clip-rule="evenodd" d="M202.242 139.639L202.128 139.701C201.243 140.028 200.374 140.429 199.529 140.907L174.062 155.325C173.972 155.375 173.885 155.428 173.797 155.479L169.862 148.55L198.236 132.48L202.242 139.638V139.639Z" fill="#D90324"/>
<path fill-rule="evenodd" clip-rule="evenodd" d="M178.132 81.2023L183.454 100.882C183.441 102.2 185.479 103.566 185.907 101.972C188.864 81.0663 197.83 86.2027 196.938 92.1594C195.854 110.352 197.382 112.12 193.132 122.967L196.094 133.518L172.217 147L167.778 138.167C159.454 134.287 160.196 131.064 154.095 117.756L152.379 112.709L147.539 105.592L141.939 99.9374C137.415 96.7857 141.72 91.1706 145.566 93.9578L151.196 99.3341L157.843 107.45L158.065 107.269L150.934 94.6952L143.034 84.2355C140.383 79.1338 147.072 76.0366 149.275 80.4737L156.815 89.6719L164.444 101.041L164.643 100.918L156.53 84.0892L151.2 76.4221C147.937 71.6883 154.192 67.786 156.927 71.9161L162.871 80.0879L172.99 98.69L173.205 98.6893L171.047 84.1407L166.899 73.4787C164.932 68.0758 171.967 65.8748 173.575 70.5609L178.132 81.2027V81.2023Z" fill="#EBA884"/>
<path d="M177.12 130.229L177.112 130.24L177.083 130.287L177.033 130.365L176.962 130.472L176.873 130.604L176.763 130.761L176.634 130.941L176.487 131.14L176.321 131.356L176.138 131.588L175.936 131.833L175.718 132.088L175.483 132.352L175.232 132.622L174.965 132.896L174.684 133.172L174.387 133.447L174.076 133.72L173.75 133.987L173.412 134.248L173.06 134.499L172.696 134.739L172.321 134.964L171.934 135.174L171.536 135.367L171.127 135.539L170.709 135.689L170.281 135.817L169.844 135.918L169.398 135.991L168.942 136.035L168.478 136.047C168.216 136.045 168.002 136.256 168 136.519C167.997 136.782 168.208 136.998 168.469 137L169 136.986L169.519 136.936L170.026 136.852L170.521 136.738L171.002 136.595L171.471 136.427L171.925 136.236L172.364 136.023L172.789 135.792L173.2 135.545L173.595 135.286L173.975 135.014L174.339 134.734L174.687 134.447L175.02 134.156L175.336 133.863L175.635 133.571L175.918 133.28L176.183 132.995L176.431 132.717L176.662 132.446L176.875 132.188L177.068 131.944L177.243 131.715L177.4 131.505L177.536 131.315L177.653 131.147L177.75 131.004L177.826 130.888L177.882 130.802L177.916 130.747L177.931 130.724L177.931 130.723C178.067 130.499 177.996 130.205 177.773 130.069C177.55 129.933 177.258 130.004 177.122 130.228H177.122L177.12 130.229Z" fill="#C98560"/>
<path d="M178.736 113.565L178.74 113.391L178.746 113.216L178.753 113.039L178.762 112.86L178.772 112.68L178.785 112.498L178.799 112.315L178.815 112.131L178.833 111.946L178.854 111.76L178.876 111.573L178.901 111.385L178.927 111.196L178.956 111.008L178.988 110.819L179.022 110.629L179.059 110.44L179.097 110.25L179.139 110.062L179.183 109.873L179.23 109.684L179.28 109.496L179.334 109.309L179.39 109.122L179.448 108.936L179.51 108.751L179.576 108.567L179.644 108.385L179.716 108.204L179.791 108.024L179.869 107.846L179.951 107.669C180.052 107.456 179.992 107.182 179.816 107.06C179.641 106.937 179.416 107.01 179.314 107.223L179.224 107.418L179.138 107.614L179.056 107.81L178.978 108.008L178.903 108.207L178.832 108.408L178.765 108.608L178.701 108.81L178.64 109.012L178.583 109.215L178.529 109.418L178.478 109.62L178.43 109.824L178.385 110.028L178.344 110.23L178.304 110.433L178.268 110.636L178.234 110.838L178.203 111.039L178.175 111.239L178.149 111.439L178.125 111.638L178.104 111.835L178.084 112.031L178.067 112.227L178.052 112.42L178.039 112.611L178.028 112.802L178.018 112.99L178.01 113.177L178.005 113.361L178 113.543L178 113.543C177.995 113.79 178.156 113.994 178.359 114C178.562 114.005 178.73 113.81 178.735 113.564L178.735 113.563L178.736 113.565Z" fill="#C98560"/>
<path fill-rule="evenodd" clip-rule="evenodd" d="M341.962 346.792L342.062 346.796L342.496 346.813L343.026 346.833L343.554 346.854L344.078 346.874L344.17 346.877L346.649 346.972L347.153 346.991L348.15 347.029L348.226 347.031L350.1 347.101L350.168 347.103L351.988 347.17L352.049 347.172L352.45 347.186L353.811 347.234L353.864 347.235C355.635 347.296 357.304 347.352 358.861 347.398L358.893 347.399L359.637 347.42L360.017 347.431L360.393 347.441L360.42 347.442L360.436 347.443L361.845 347.479L361.866 347.48L363.202 347.51L363.213 347.51L363.229 347.511L363.259 347.512L364.495 347.535H364.506L365.576 347.55L365.686 347.551L365.693 347.552L365.969 347.554L366.519 347.559L366.784 347.56L366.787 347.561H366.888C367.201 347.562 367.502 347.562 367.786 347.561C371.395 336.734 372.191 302.42 370.324 266.071C368.769 267.98 366.972 269.74 364.936 271.298L355.584 278.46C352.947 305.675 348.162 331.382 341.961 346.792L341.962 346.792ZM363.522 199.498C360.897 187.011 348.378 155.776 338.108 142.283C342.584 152.532 347.462 165.327 351.629 180.927C355.63 187.175 359.705 193.542 363.522 199.498Z" fill="#D90324"/>
<path fill-rule="evenodd" clip-rule="evenodd" d="M250.229 288.737C255.578 287.371 256.202 288.931 259.16 288.977L263.298 286.074L283.014 311.769L279.01 314.847C279.844 318.281 280.301 320.853 278.833 323.946C276.47 323.878 274.516 323.819 274.362 323.798C272.541 323.549 270.555 323.17 268.6 321.936C266.619 320.685 264.611 318.53 262.716 314.701L250.229 288.737L250.229 288.737Z" fill="#EBA884"/>
<path fill-rule="evenodd" clip-rule="evenodd" d="M288.58 307.774L283.151 311.95L263.3 286.08L268.947 281.793C269.413 282.657 269.953 283.495 270.568 284.298L288.389 307.53L288.58 307.774H288.58Z" fill="#D90324"/>
<path d="M249.113 286.414L262.718 314.702C264.613 318.531 266.621 320.686 268.602 321.937C270.557 323.171 272.543 323.549 274.364 323.799C274.568 323.826 277.913 323.921 281.191 324.014C284.411 324.105 287.569 324.195 287.849 324.233C288.46 324.314 288.889 324.877 288.807 325.489C288.726 326.1 288.163 326.529 287.551 326.447C287.371 326.423 284.28 326.335 281.13 326.246C277.782 326.151 274.368 326.054 274.066 326.013C271.999 325.73 269.733 325.293 267.411 323.827C265.114 322.376 262.816 319.941 260.715 315.69L247.19 287.565C245.996 287.508 244.759 287.44 243.517 287.366C241.772 287.262 240.032 287.146 238.38 287.029C237.764 286.986 237.3 286.45 237.344 285.834C237.387 285.218 237.922 284.754 238.538 284.798C240.278 284.921 242.021 285.038 243.648 285.135C244.867 285.208 246.037 285.273 247.118 285.325L248.849 280.28C249.05 279.695 249.687 279.384 250.272 279.584C250.857 279.785 251.168 280.422 250.968 281.006L249.112 286.414H249.113Z" fill="#D90324"/>
<path fill-rule="evenodd" clip-rule="evenodd" d="M359.526 355.804C311.505 348.723 291.109 347.232 248.711 355.5C244.186 355.285 240.484 351.798 240.478 347.265C259.919 341.907 348.144 347.483 367.787 347.557C367.787 352.233 364.085 355.07 359.526 355.804H359.527H359.526Z" fill="#2B0087"/>
<path fill-rule="evenodd" clip-rule="evenodd" d="M370.926 211.036C373.826 215.545 376.35 219.453 378.271 222.4C387.58 236.676 383.916 255.779 370.483 265.868C369.636 266.926 368.716 267.94 367.722 268.899C366.282 267.504 364.951 265.997 363.743 264.393L363.73 264.377C363.281 263.78 362.849 263.169 362.435 262.545L362.413 262.513L362.22 262.218L362.137 262.089L361.985 261.851L361.893 261.705L361.729 261.441L361.655 261.321L361.483 261.037L361.424 260.938L361.25 260.642L361.183 260.528L361.027 260.256L360.957 260.131L360.79 259.833L360.736 259.734L360.579 259.444L360.506 259.307L360.372 259.051L360.276 258.868L360.159 258.637L360.078 258.477L359.937 258.193L359.901 258.117L359.738 257.78L359.685 257.666L359.552 257.382L359.469 257.199L359.353 256.943L359.314 256.853C359.202 256.6 359.092 256.347 358.985 256.091L358.98 256.079L358.82 255.688L358.806 255.653L358.644 255.244L358.636 255.224L358.62 255.182L358.472 254.793L358.312 254.36L358.308 254.347L358.158 253.923L358.148 253.896L358.009 253.484L358.005 253.474L357.868 253.053L357.865 253.043L357.751 252.678L357.721 252.584L357.633 252.289L357.583 252.122L357.492 251.804L357.457 251.679L357.388 251.428L357.319 251.174L357.28 251.022L357.203 250.719L357.148 250.498L357.099 250.296L357.03 250.002L356.987 249.811L356.94 249.601L356.878 249.315L356.835 249.105L356.793 248.899L356.734 248.594L356.703 248.431L356.65 248.139L356.615 247.943L356.57 247.678L356.535 247.461L356.494 247.199L356.463 246.992L356.425 246.728L356.392 246.488L356.361 246.251L356.333 246.021L356.302 245.765L356.274 245.504L356.252 245.305L356.223 245.001L356.205 244.812L356.182 244.538L356.163 244.312L356.144 244.047L356.129 243.834L356.114 243.57L356.1 243.324L356.099 243.3L356.08 242.869V242.863L356.07 242.536L356.064 242.366L356.063 242.331C356.059 242.176 356.057 242.019 356.054 241.862L356.054 241.844L356.051 241.356C356.051 241.184 356.052 241.014 356.054 240.843L356.056 240.705L356.066 240.291L356.067 240.204L356.068 240.172C356.073 240.009 356.08 239.846 356.087 239.684L356.093 239.554L356.115 239.127L356.12 239.036L356.151 238.554L356.164 238.389L356.198 237.975L356.204 237.905C356.219 237.735 356.235 237.565 356.252 237.396L356.266 237.274L356.308 236.893L356.326 236.741L356.383 236.283L356.406 236.116L356.453 235.782L356.478 235.611L356.529 235.289L356.586 234.94L356.628 234.693L356.668 234.473L356.729 234.144L356.75 234.03L356.752 234.021L356.77 233.928L356.837 233.596L356.886 233.362L356.947 233.084L356.994 232.87L357.086 232.475L357.133 232.278L357.193 232.035L357.254 231.796L357.35 231.429L357.351 231.427L357.428 231.144L357.469 230.995C357.563 230.661 357.66 230.329 357.763 230L357.774 229.964C357.877 229.631 357.986 229.299 358.098 228.97L358.132 228.871L358.241 228.558L358.246 228.544C360.725 221.553 365.174 215.494 370.928 211.035L370.926 211.036Z" fill="#FF5E04"/>
<path d="M313.551 309.246C314.045 308.876 314.745 308.976 315.115 309.469C315.483 309.959 315.385 310.656 314.897 311.026C310.775 314.191 305.73 315.379 300.926 314.746C296.121 314.113 291.554 311.655 288.389 307.53L270.568 284.297C267.411 280.175 266.224 275.134 266.855 270.334C267.487 265.531 269.94 260.967 274.063 257.805L306.599 232.888L275.351 184.265C270.354 176.487 268.887 167.383 270.608 158.957C272.319 150.579 277.181 142.872 284.853 137.803L285.025 137.693C292.682 132.696 301.709 131.241 310.079 132.942C318.457 134.643 326.181 139.503 331.223 147.134L331.328 147.298C331.667 147.813 331.524 148.505 331.009 148.843C330.494 149.181 329.802 149.038 329.464 148.524L329.359 148.368C324.655 141.249 317.453 136.716 309.642 135.13C301.822 133.542 293.392 134.9 286.241 139.565L286.087 139.667C278.929 144.396 274.393 151.588 272.797 159.404C271.189 167.276 272.561 175.786 277.234 183.058L308.382 231.525L324.791 218.958C325.281 218.584 325.983 218.678 326.357 219.168C326.731 219.658 326.637 220.36 326.147 220.735L275.42 259.583C271.789 262.369 269.627 266.391 269.071 270.623C268.513 274.858 269.561 279.306 272.345 282.942L290.166 306.173C292.955 309.809 296.98 311.974 301.216 312.533C305.453 313.091 309.904 312.043 313.543 309.252L313.552 309.247L313.551 309.246Z" fill="#D90324"/>
<path d="M240.495 183.887C240.495 184.503 239.996 185.003 239.38 185.003C238.763 185.003 238.264 184.503 238.264 183.887L238.294 175.893C238.294 175.277 238.793 174.777 239.41 174.777C240.026 174.777 240.526 175.277 240.526 175.893L240.495 183.887Z" fill="#D90324"/>
<path d="M250.769 168.947C250.982 168.367 251.625 168.069 252.205 168.281C252.785 168.494 253.083 169.137 252.87 169.717C251.559 173.28 250.476 176.949 249.578 180.699C248.68 184.449 247.956 188.328 247.365 192.295C245.516 204.715 245.02 217.786 244.536 230.583C244.314 236.468 244.092 242.298 243.751 247.903C243.585 250.618 243.388 253.327 243.143 256.032C242.901 258.709 242.615 261.339 242.272 263.906C239.527 284.44 237.742 303.81 237.618 318.973C237.509 332.115 238.631 342.032 241.435 346.685C241.754 347.214 241.584 347.902 241.054 348.221C240.525 348.54 239.837 348.369 239.518 347.84C236.489 342.814 235.274 332.497 235.386 318.955C235.512 303.685 237.302 284.224 240.058 263.617C240.398 261.066 240.681 258.467 240.92 255.83C241.155 253.221 241.35 250.526 241.518 247.772C241.866 242.08 242.084 236.32 242.304 230.505C242.792 217.621 243.29 204.461 245.15 191.97C245.742 187.99 246.48 184.052 247.407 180.183C248.333 176.312 249.44 172.555 250.768 168.946L250.769 168.947Z" fill="#D90324"/>
<path d="M363.493 475.406C361.661 476.074 359.694 477.201 357.943 479.087" stroke="#2B0087" stroke-width="2.24077" stroke-miterlimit="22.9256" stroke-linecap="round" stroke-linejoin="round"/>
<path fill-rule="evenodd" clip-rule="evenodd" d="M323.7 534.697L349.69 635.456C349.933 635.809 350.296 636.198 350.765 636.597L328.182 495.893L321.497 392.234L321.542 491.551L323.7 534.698V534.697Z" fill="#2B0087"/>
<path d="M290.521 664.014L273.172 464.285L268.165 387.877L266.002 349.814" stroke="#2B0087" stroke-width="2.24077" stroke-miterlimit="22.9256" stroke-linecap="round" stroke-linejoin="round"/>
<path d="M269.79 412.711L257.642 408.324L249.376 355.371" stroke="#2B0087" stroke-width="2.24077" stroke-miterlimit="22.9256" stroke-linecap="round" stroke-linejoin="round"/>
<path d="M259.535 151.779C260.14 151.64 260.744 152.019 260.882 152.624C261.02 153.229 260.642 153.832 260.037 153.97C258.954 154.218 259.234 156.343 259.68 158.291C259.857 159.063 260.069 159.822 260.251 160.472L260.464 161.238C262.571 169.104 262.555 174.362 262.54 179.426C262.528 183.581 262.516 187.603 263.75 192.884C265.755 201.471 270.554 206.501 274.997 211.161C275.709 211.907 276.411 212.643 277.094 213.383C278.086 213.143 279.166 213.572 279.698 214.5L283.657 221.405C284.063 222.112 284.058 222.947 283.719 223.63C284.322 225.476 284.688 227.518 284.741 229.839C284.753 230.458 284.26 230.971 283.641 230.983C283.021 230.995 282.509 230.502 282.496 229.883C282.456 228.069 282.191 226.433 281.752 224.93C280.887 224.979 280.024 224.55 279.566 223.751L275.607 216.846C275.254 216.231 275.212 215.519 275.43 214.895C274.76 214.167 274.069 213.443 273.369 212.709C268.721 207.836 263.702 202.573 261.558 193.395C260.271 187.886 260.284 183.725 260.296 179.425C260.31 174.517 260.326 169.419 258.29 161.818L258.086 161.078C257.897 160.404 257.676 159.616 257.487 158.792C256.799 155.785 256.594 152.451 259.535 151.778V151.779ZM255.688 219.839C256.41 220.27 256.92 221.047 256.962 221.917L257.339 229.853C257.375 230.609 257.049 231.275 256.515 231.693C256.434 233.282 256.278 234.687 256.109 236.017C256.032 236.632 255.47 237.068 254.855 236.99C254.241 236.913 253.805 236.351 253.882 235.736C254.03 234.57 254.168 233.344 254.249 231.977C253.341 231.613 252.662 230.728 252.614 229.72L252.237 221.785C252.194 220.884 252.665 220.111 253.389 219.732C253.003 217.488 252.475 214.963 251.767 212.089C249.11 201.301 250.133 195.201 251.585 186.549C252.474 181.254 253.528 174.981 253.969 166.052C253.985 165.734 253.949 165.281 253.91 164.795C253.784 163.198 253.633 161.287 254.853 159.716C255.232 159.225 255.937 159.134 256.428 159.513C256.919 159.893 257.01 160.598 256.631 161.089C255.945 161.972 256.059 163.414 256.154 164.619C256.197 165.161 256.237 165.666 256.213 166.157C255.764 175.24 254.7 181.573 253.803 186.919C252.395 195.305 251.403 201.216 253.95 211.552C254.722 214.686 255.286 217.422 255.688 219.839V219.839Z" fill="#FF5E04"/>
<path fill-rule="evenodd" clip-rule="evenodd" d="M393.104 634.316C395.183 635.22 397.128 636.229 397.26 636.885C397.26 636.885 395.285 637.666 394.539 637.822L393.104 634.317L393.104 634.316Z" fill="#E5EEFF" stroke="#868CB5" stroke-width="0.747074" stroke-miterlimit="22.9256" stroke-linecap="round" stroke-linejoin="round"/>
<path d="M265.411 157.007C265.588 156.415 266.211 156.078 266.803 156.254C267.395 156.43 267.732 157.053 267.556 157.645C267.367 158.278 267.187 158.807 267.023 159.285C266.338 161.292 265.981 162.341 266.518 168.36C266.571 168.974 266.116 169.515 265.502 169.568C264.888 169.621 264.347 169.166 264.294 168.552C263.715 162.056 264.124 160.859 264.906 158.568C265.059 158.118 265.23 157.619 265.411 157.007Z" fill="#D90324"/>
<path d="M249.376 355.371L254.562 463.15L271.022 647.702C274.069 671.39 328.814 668.01 326.738 658.195L321.545 502.335L321.496 392.229L326.171 377.564" stroke="#2B0087" stroke-width="2.24077" stroke-miterlimit="22.9256" stroke-linecap="round" stroke-linejoin="round"/>
<path d="M322.762 534.492L349.689 635.45C356.525 645.415 401.04 633.691 396.373 620.983L363.478 475.409L357.169 372.831L358.182 357.973L358.073 355.59" stroke="#2B0087" stroke-width="2.24077" stroke-miterlimit="22.9256" stroke-linecap="round" stroke-linejoin="round"/>
</g>
</g>
<defs>
<linearGradient id="paint0_linear_2060_7554" x1="365.018" y1="13.822" x2="380.54" y2="41.3655" gradientUnits="userSpaceOnUse">
<stop stop-color="#6934DD"/>
<stop offset="1" stop-color="#FF0431"/>
</linearGradient>
<linearGradient id="paint1_linear_2060_7554" x1="342.637" y1="-2.46038" x2="405.703" y2="109.21" gradientUnits="userSpaceOnUse">
<stop stop-color="#6934DD"/>
<stop offset="1" stop-color="#FF0431"/>
</linearGradient>
<linearGradient id="paint2_linear_2060_7554" x1="326.18" y1="0.427834" x2="414.323" y2="153.934" gradientUnits="userSpaceOnUse">
<stop stop-color="#6934DD"/>
<stop offset="1" stop-color="#FF0431"/>
</linearGradient>
<linearGradient id="paint3_linear_2060_7554" x1="307.336" y1="11.6659" x2="412.817" y2="194.447" gradientUnits="userSpaceOnUse">
<stop stop-color="#6934DD"/>
<stop offset="1" stop-color="#FF0431"/>
</linearGradient>
<linearGradient id="paint4_linear_2060_7554" x1="284.181" y1="25.4226" x2="405.973" y2="236.699" gradientUnits="userSpaceOnUse">
<stop stop-color="#6934DD"/>
<stop offset="1" stop-color="#FF0431"/>
</linearGradient>
<linearGradient id="paint5_linear_2060_7554" x1="237.503" y1="33.6272" x2="390.62" y2="300.939" gradientUnits="userSpaceOnUse">
<stop stop-color="#6934DD"/>
<stop offset="1" stop-color="#FF0431"/>
</linearGradient>
<linearGradient id="paint6_linear_2060_7554" x1="193.701" y1="41.3383" x2="377.606" y2="363.434" gradientUnits="userSpaceOnUse">
<stop stop-color="#6934DD"/>
<stop offset="1" stop-color="#FF0431"/>
</linearGradient>
<linearGradient id="paint7_linear_2060_7554" x1="175.925" y1="54.6811" x2="374.271" y2="402.556" gradientUnits="userSpaceOnUse">
<stop stop-color="#6934DD"/>
<stop offset="1" stop-color="#FF0431"/>
</linearGradient>
<linearGradient id="paint8_linear_2060_7554" x1="168.167" y1="70.0287" x2="374.937" y2="432.953" gradientUnits="userSpaceOnUse">
<stop stop-color="#6934DD"/>
<stop offset="1" stop-color="#FF0431"/>
</linearGradient>
<linearGradient id="paint9_linear_2060_7554" x1="165.024" y1="86.2759" x2="377.348" y2="459.155" gradientUnits="userSpaceOnUse">
<stop stop-color="#6934DD"/>
<stop offset="1" stop-color="#FF0431"/>
</linearGradient>
<linearGradient id="paint10_linear_2060_7554" x1="164.096" y1="103.105" x2="380.253" y2="483.189" gradientUnits="userSpaceOnUse">
<stop stop-color="#6934DD"/>
<stop offset="1" stop-color="#FF0431"/>
</linearGradient>
<linearGradient id="paint11_linear_2060_7554" x1="164.62" y1="120.557" x2="383.494" y2="505.634" gradientUnits="userSpaceOnUse">
<stop stop-color="#6934DD"/>
<stop offset="1" stop-color="#FF0431"/>
</linearGradient>
<linearGradient id="paint12_linear_2060_7554" x1="165.855" y1="138.704" x2="386.517" y2="526.95" gradientUnits="userSpaceOnUse">
<stop stop-color="#6934DD"/>
<stop offset="1" stop-color="#FF0431"/>
</linearGradient>
<linearGradient id="paint13_linear_2060_7554" x1="167.221" y1="157.613" x2="388.9" y2="547.436" gradientUnits="userSpaceOnUse">
<stop stop-color="#6934DD"/>
<stop offset="1" stop-color="#FF0431"/>
</linearGradient>
<linearGradient id="paint14_linear_2060_7554" x1="168.445" y1="177.207" x2="390.409" y2="567.512" gradientUnits="userSpaceOnUse">
<stop stop-color="#6934DD"/>
<stop offset="1" stop-color="#FF0431"/>
</linearGradient>
<linearGradient id="paint15_linear_2060_7554" x1="169.659" y1="197.414" x2="391.27" y2="587.06" gradientUnits="userSpaceOnUse">
<stop stop-color="#6934DD"/>
<stop offset="1" stop-color="#FF0431"/>
</linearGradient>
<linearGradient id="paint16_linear_2060_7554" x1="171.031" y1="218.46" x2="391.316" y2="605.71" gradientUnits="userSpaceOnUse">
<stop stop-color="#6934DD"/>
<stop offset="1" stop-color="#FF0431"/>
</linearGradient>
<linearGradient id="paint17_linear_2060_7554" x1="172.7" y1="240.517" x2="390.395" y2="623.18" gradientUnits="userSpaceOnUse">
<stop stop-color="#6934DD"/>
<stop offset="1" stop-color="#FF0431"/>
</linearGradient>
<linearGradient id="paint18_linear_2060_7554" x1="175.002" y1="263.914" x2="388.488" y2="638.992" gradientUnits="userSpaceOnUse">
<stop stop-color="#6934DD"/>
<stop offset="1" stop-color="#FF0431"/>
</linearGradient>
<linearGradient id="paint19_linear_2060_7554" x1="177.941" y1="289.065" x2="385.031" y2="653.063" gradientUnits="userSpaceOnUse">
<stop stop-color="#6934DD"/>
<stop offset="1" stop-color="#FF0431"/>
</linearGradient>
<linearGradient id="paint20_linear_2060_7554" x1="181.722" y1="316.584" x2="379.387" y2="664.49" gradientUnits="userSpaceOnUse">
<stop stop-color="#6934DD"/>
<stop offset="1" stop-color="#FF0431"/>
</linearGradient>
<linearGradient id="paint21_linear_2060_7554" x1="186.357" y1="347.651" x2="370.468" y2="672.219" gradientUnits="userSpaceOnUse">
<stop stop-color="#6934DD"/>
<stop offset="1" stop-color="#FF0431"/>
</linearGradient>
<linearGradient id="paint22_linear_2060_7554" x1="191.74" y1="384.418" x2="355.754" y2="674.503" gradientUnits="userSpaceOnUse">
<stop stop-color="#6934DD"/>
<stop offset="1" stop-color="#FF0431"/>
</linearGradient>
<linearGradient id="paint23_linear_2060_7554" x1="197.215" y1="431.69" x2="329.979" y2="667.379" gradientUnits="userSpaceOnUse">
<stop stop-color="#6934DD"/>
<stop offset="1" stop-color="#FF0431"/>
</linearGradient>
<linearGradient id="paint24_linear_2060_7554" x1="198.279" y1="509.528" x2="270.155" y2="637.11" gradientUnits="userSpaceOnUse">
<stop stop-color="#6934DD"/>
<stop offset="1" stop-color="#FF0431"/>
</linearGradient>
<clipPath id="clip0_2060_7554">
<rect width="590" height="726" fill="white"/>
</clipPath>
<clipPath id="clip1_2060_7554">
<rect width="277" height="721.125" fill="white" transform="translate(132 5)"/>
</clipPath>
</defs>
</svg>
