<svg width="40" height="40" viewBox="0 0 40 40" fill="none" xmlns="http://www.w3.org/2000/svg">
<path d="M15.0241 25.169C17.3757 25.169 18.7528 23.25 18.7528 19.9141C18.7528 16.603 17.3558 14.679 15.0241 14.679C12.6875 14.679 11.2955 16.598 11.2905 19.9141C11.2905 23.245 12.6676 25.1641 15.0241 25.169ZM15.0241 23.8416C13.647 23.8416 12.8168 22.4595 12.8168 19.9141C12.8217 17.3786 13.652 15.9815 15.0241 15.9815C16.3913 15.9815 17.2266 17.3786 17.2266 19.9141C17.2266 22.4595 16.3963 23.8416 15.0241 23.8416ZM23.5293 23.2898H24.8667V20.5952H27.5613V19.2578H24.8667V16.5682H23.5293V19.2578H20.8397V20.5952H23.5293V23.2898Z" fill="#9CA1AD"/>
<rect x="0.5" y="0.5" width="39" height="39" rx="19.5" stroke="#E0E2E7"/>
</svg>
