<svg width="61" height="61" viewBox="0 0 61 61" fill="none" xmlns="http://www.w3.org/2000/svg">
<g clip-path="url(#clip0_989:10425)">
<path d="M30.5059 61C47.3529 61 61.0118 47.3412 61.0118 30.4941C61 13.6588 47.3529 0 30.5059 0C13.6588 0 0 13.6588 0 30.5059C0 47.3412 13.6588 61 30.5059 61Z" fill="#D6101F"/>
<path d="M17.3535 16.7412V27.1177C18.93 25.2353 20.8241 24.2824 23.0241 24.2824C24.1535 24.2824 25.1652 24.4942 26.0829 24.9294C27.0005 25.353 27.6711 25.9059 28.13 26.5647C28.5888 27.2353 28.9064 27.9647 29.0711 28.7765C29.2358 29.5765 29.3182 30.8353 29.3182 32.5295V43.6236H24.4123V33.6353C24.4123 31.6471 24.3182 30.4 24.1417 29.8589C23.9535 29.3177 23.6241 28.8942 23.1535 28.5883C22.6829 28.2706 22.0947 28.1059 21.377 28.1059C20.5652 28.1059 19.8358 28.3059 19.2005 28.7177C18.5535 29.1294 18.0829 29.7294 17.7888 30.5412C17.4829 31.353 17.3417 32.553 17.3417 34.1412L17.33 43.6118H12.4241V16.7412H17.3535V16.7412ZM36.6711 16.7412V27.1177C38.2476 25.2353 40.1417 24.2824 42.3417 24.2824C43.4711 24.2824 44.4829 24.4942 45.4005 24.9294C46.3064 25.353 46.9888 25.9059 47.4476 26.5647C47.9064 27.2353 48.2241 27.9647 48.3888 28.7765C48.5535 29.5765 48.6358 30.8353 48.6358 32.5295V43.6236H43.7299V33.6353C43.7299 31.6471 43.6358 30.4 43.4476 29.8589C43.2769 29.3328 42.9272 28.8832 42.4594 28.5883C41.9888 28.2706 41.4005 28.1059 40.6947 28.1059C39.8829 28.1059 39.1535 28.3059 38.5182 28.7177C37.8829 29.1294 37.4123 29.7294 37.1064 30.5412C36.8123 31.353 36.6594 32.553 36.6594 34.1412V43.6118H31.7535V16.7412H36.6711V16.7412Z" fill="white"/>
</g>
<defs>
<clipPath id="clip0_989:10425">
<rect width="61" height="61" fill="white"/>
</clipPath>
</defs>
</svg>
